<svg width="142" height="118" viewBox="0 0 142 118" fill="none" xmlns="http://www.w3.org/2000/svg"><path d="M18.12 91.482a4.504 4.504 0 012.342.566c.633.378 1.255 1.117 1.866 2.217l12.124 21.999a.763.763 0 01.091.605c-.06.159-.237.237-.53.237h-4.652a.841.841 0 01-.842-.475l-2.603-4.721H8.712l-2.526 4.721a.883.883 0 01-.841.475H.593c-.317 0-.505-.079-.567-.237a.759.759 0 01.092-.605l11.998-22.003c.61-1.097 1.21-1.836 1.795-2.216a3.695 3.695 0 012.037-.567l2.172.004zm-7.087 16.182h12.595l-5.82-10.725a.449.449 0 00-.404-.254h-.221a.449.449 0 00-.404.254l-5.746 10.725zm48.711-16.182c2.513 0 4.3.5 5.362 1.5 1.061 1 1.59 2.514 1.589 4.541v1.758c0 2.05-.781 3.6-2.342 4.65 1.683.977 2.525 2.551 2.525 4.721v2.125a9.732 9.732 0 01-.34 2.637 4.866 4.866 0 01-1.079 1.995 4.794 4.794 0 01-1.996 1.263 9.32 9.32 0 01-3.075.438H38.657c-.733 0-1.1-.367-1.1-1.1V92.564c0-.733.367-1.1 1.1-1.1l21.087.018zM43.16 102.136h15.008c1.22 0 2.049-.184 2.488-.55a1.976 1.976 0 00.658-1.612v-1.246a2.037 2.037 0 00-.642-1.666c-.427-.353-1.116-.53-2.066-.53h-14.97a.42.42 0 00-.475.475v5.129zm0 3.991v5.444a.422.422 0 00.475.475h15.008c.975 0 1.67-.177 2.087-.53.417-.352.624-.918.621-1.697v-1.391a2.152 2.152 0 00-.678-1.721c-.453-.389-1.29-.585-2.509-.587l-15.004.007zm48.8-14.645c2.805 0 4.819.635 6.04 1.904 1.222 1.27 1.832 3.145 1.83 5.627v2.087c0 2.1-.428 3.76-1.283 4.979-.855 1.22-2.246 2.001-4.171 2.342l6.258 7.772a.573.573 0 01.109.55c-.05.245-.246.367-.587.367h-4.721a1.39 1.39 0 01-.659-.109 1.293 1.293 0 01-.366-.366l-5.77-7.616H76.802v7.283a.712.712 0 01-.805.804h-3.954c-.56 0-.841-.268-.841-.804V92.564c0-.733.366-1.1 1.1-1.1l19.657.018zm-15.158 13.07h14.02c1.245 0 2.124-.268 2.637-.804.514-.537.77-1.355.77-2.454v-1.538c0-1.097-.256-1.915-.77-2.454-.513-.538-1.392-.806-2.637-.804H77.277c-.317 0-.475.146-.475.438v7.616zm32.317-13.071a.713.713 0 01.804.805v24.016a.704.704 0 01-.202.602.7.7 0 01-.602.202h-3.944c-.561 0-.842-.268-.842-.804V92.286c0-.536.281-.805.842-.805h3.944zm31.126 0a.712.712 0 01.805.805v3.479a.716.716 0 01-.202.602.71.71 0 01-.603.202h-18.327c-.708 0-1.208.183-1.5.55a2.339 2.339 0 00-.438 1.5v1.246c0 1.357.634 2.036 1.904 2.036h13.708c2.123 0 3.721.543 4.796 1.629 1.075 1.086 1.612 2.642 1.612 4.667v2.929c0 1.783-.525 3.223-1.575 4.32-1.05 1.098-2.684 1.646-4.904 1.646h-20.293c-.561 0-.841-.268-.841-.804v-3.465c0-.536.28-.805.841-.805h19.22c.709 0 1.209-.183 1.501-.549a2.34 2.34 0 00.437-1.501v-1.5c0-1.357-.634-2.036-1.904-2.036h-13.711c-2.125 0-3.724-.543-4.796-1.629-1.073-1.086-1.61-2.642-1.612-4.667v-2.671c0-1.78.525-3.22 1.575-4.32 1.049-1.1 2.684-1.649 4.904-1.647l19.403-.017zm-30.311-53.109c0 14.367-16.203 26.015-36.194 26.015-19.99 0-36.193-11.648-36.193-26.015 0-14.366 16.203-26.015 36.193-26.015s36.194 11.649 36.194 26.015zM70.676 16.057c-17.758 0-32.152 10.416-32.152 23.266 0 12.85 14.394 23.265 32.151 23.265 17.758 0 32.152-10.416 32.152-23.265 0-12.85-14.411-23.266-32.151-23.266z" fill="#fff"/><path d="M39.288 51.585a33.17 33.17 0 009.944 11.01 39.298 39.298 0 0013.576 5.885 52.29 52.29 0 007.362 1.191c2.482.23 4.974.333 7.466.31a111.66 111.66 0 0014.968-1.287c-1.229.265-2.45.563-3.693.767l-1.856.34-1.867.288a75.496 75.496 0 01-7.531.679 64.97 64.97 0 01-7.579-.143 51.481 51.481 0 01-7.504-1.14 41.474 41.474 0 01-7.22-2.41 34.92 34.92 0 01-6.583-3.822 30.636 30.636 0 01-5.495-5.257c-.4-.489-.77-1.018-1.147-1.51a13.978 13.978 0 01-1.046-1.578 28.884 28.884 0 01-1.795-3.323z" fill="#fff"/><path d="M47.62 46.521c0-23.024 7.698-41.691 17.19-41.691 9.494 0 17.191 18.666 17.191 41.691 0 2.715-.108 5.39-.315 7.97a86.49 86.49 0 00.933-12.8C82.619 18.668 73.92 0 63.189 0 52.456 0 43.757 18.667 43.757 41.692c0 15.378 3.883 28.811 9.656 36.037-3.554-7.636-5.794-18.786-5.794-31.208z" fill="#fff"/><path d="M69.07 16.088c.316-.917.621-1.867.978-2.851.091-.258.19-.51.291-.76-18.385 1.238-32.775 12.357-32.775 25.896.004 2.046.336 4.08.984 6.02a3.16 3.16 0 01.631-.434 17.174 17.174 0 01-.655-4.636c0-12.456 13.525-22.624 30.546-23.235z" fill="#fff"/></svg>