<svg width="151" height="36" viewBox="0 0 151 36" fill="none" xmlns="http://www.w3.org/2000/svg"><g clip-path="url(#clip0)"><path d="M150.728 1.593c-.519-.749-1.134-1.275-3.71-1.46-.673-.05-2.903-.124-6.655-.124-9.856 0-16.552 2.974-19.984 8.847C121.325 2.952 115.534 0 103.004 0 88.286 0 79.101 5.893 75.449 17.68c-1.36 4.382-1.504 7.976-.43 10.78l-3.485.22c-2.714.207-6.287.389-8.475.389-5.385 0-8.725-.899-10.02-2.696-1.159-1.613-1.044-4.608.321-8.977 2.243-7.237 7.812-10.494 16.706-10.494 4.61 0 9.096.481 9.1.481.618-.038.89-.678.823-1.207l-.09-.692-.32-2.431c-.214-1.598-1.41-2.544-3.589-2.84C73.994.08 72.508-.01 70.32-.01h-.122C58.573.016 50.472 3.811 45.895 11.376 47.572 3.792 42.189 0 29.746 0c-6.918 0-11.881.194-14.889.583-2.307.285-3.714 1.234-4.223 2.849l-.983 3.126c-.18.574.1.857.836.857h.022c.548-.07 2.653-.274 6.252-.56 4.759-.379 8.295-.568 10.608-.568 6.85 0 9.734 1.705 8.651 5.115a1.962 1.962 0 01-1.554 1.405c-6.479 1.062-11.621 1.83-15.427 2.304C8.337 16.462 2.154 19.78.49 25.06c-2.285 7.261 3.438 10.893 17.17 10.895 6.849 0 12.597-.392 17.245-1.176 2.679-.446 4.034-1.128 4.572-2.842l2.563-8.094c-.266 8.087 5.447 12.16 17.123 12.16 5.059 0 9.855-.166 12.117-.558 2.397-.414 3.54-.93 4.07-2.727l.519-2.55c2.488 3.86 7.949 5.79 16.382 5.79 8.892 0 14.078-.247 15.559-.742 1.24-.392 2.005-1.03 2.278-1.912.051-.166.087-.335.109-.507l1.067-3.435c.185-.596-.093-.883-.824-.857l-5.693.27c-3.8.213-6.774.32-8.92.32-4.042 0-6.819-.275-8.33-.823-2.25-.85-3.318-2.568-3.205-5.156l18.029-2.298c8.066-1.036 13.467-3.515 16.203-7.434l-6.11 21.16a.975.975 0 00.134.956c.228.264.619.391 1.196.391h7.462c1.304 0 1.768-.669 1.922-1.23l6.604-22.835c.868-3.005 3.646-4.462 8.497-4.462 4.377 0 7.69.038 9.785.115h.163a1.569 1.569 0 001.526-1.144l1.159-3.149a1.672 1.672 0 00-.134-1.593zM30.438 29.082c-2.321.37-5.666.554-10.034.554-7.583 0-10.894-1.522-9.933-4.566.689-2.183 2.675-3.506 5.979-3.942L33.694 18.8l-3.256 10.28zm79.746-18.506c-.726 2.337-4.099 3.94-10.118 4.806l-14.37 2.03.362-1.16c1.19-3.85 2.879-6.472 5.068-7.868 2.19-1.396 5.746-2.093 10.67-2.09 6.483-.009 9.279 1.419 8.388 4.282z" fill="#83B81A"/></g><defs><clipPath id="clip0"><path fill="#fff" d="M0 0h151v36H0z"/></clipPath></defs></svg>