<svg width="150" height="39" viewBox="0 0 150 39" fill="none" xmlns="http://www.w3.org/2000/svg"><g clip-path="url(#clip0)" fill-rule="evenodd" clip-rule="evenodd"><path d="M25.664 38.535l-5.083-8.922h18.384l-9.228-19.224-13.542 28.146H0L21.206.536H38.26l21.046 38H25.664zm33.722-22.077h20.188c5.083 0 7.12-.308 7.12-3.847 0-3.381-1.604-3.767-6.888-3.767H59.33L54.768.536h28.478c13.461 0 18.44 5.77 18.44 11.926 0 5.919-4.618 12.461-19.402 12.461H75.58v13.612H59.33v-22.07l.056-.007z" fill="#ED174C"/><path d="M143.891 35.69c-4.851 2.23-10.88 3.31-17.294 3.31-19.403 0-26.057-10.617-26.057-19.382C100.548 8.536 110.401 0 127.383 0a46.153 46.153 0 0116.131 2.617v11.035a27.625 27.625 0 00-13.534-3.54c-8.138 0-14.792 3.618-14.792 9.388s6.799 9.348 14.936 9.348c4.699 0 8.531-.922 13.775-3.31v10.151h-.008z" fill="#ED174C"/><path d="M145.005 5.265c-.004-.485.137-.96.407-1.366a2.48 2.48 0 011.11-.913 2.533 2.533 0 012.723.505c.352.34.593.774.694 1.249.101.474.057.968-.128 1.417-.184.45-.5.836-.907 1.11a2.522 2.522 0 01-1.381.426 2.493 2.493 0 01-1.77-.698 2.435 2.435 0 01-.543-.793 2.381 2.381 0 01-.189-.937h-.016zm2.518 2.026a2.016 2.016 0 001.437-.595 1.942 1.942 0 00.559-1.431 1.95 1.95 0 00-.587-1.393 2.023 2.023 0 00-1.417-.578c-.532 0-1.042.208-1.418.578-.375.37-.587.87-.587 1.393a1.94 1.94 0 00.565 1.437 2.02 2.02 0 001.448.589zm-.521-.623h-.433v-2.79h1.082c.674 0 1.002.244 1.002.788a.713.713 0 01-.192.554.74.74 0 01-.545.234l.801 1.23h-.481l-.745-1.214h-.497v1.198l.513-1.577c.369 0 .689 0 .689-.457s-.32-.41-.617-.41h-.585v.867h.529l-.513 1.577h-.008z" fill="#231F20"/></g><defs><clipPath id="clip0"><path fill="#fff" d="M0 0h150v39H0z"/></clipPath></defs></svg>