<svg width="150" height="54" viewBox="0 0 150 54" fill="none" xmlns="http://www.w3.org/2000/svg"><g clip-path="url(#clip0)" fill-rule="evenodd" clip-rule="evenodd"><path d="M62.777 9.143h7.385l.088.088v32.08l-.088.089h-7.385a.089.089 0 01-.088-.088V9.23a.088.088 0 01.088-.088zm-2.461 0a.12.12 0 010 .176L50.56 25.151a.393.393 0 000 .441l9.845 15.655a.12.12 0 010 .177h-9.148c-.088 0-.176-.088-.264-.088l-5.885-9.673c-.088-.088-.088-.088-.177 0l-5.54 9.625c-.088.088-.176.176-.264.176h-8.53c-.177 0-.177-.088-.09-.088L40.53 24.75a.33.33 0 000-.53L31.71 9.36a.12.12 0 010-.177h8.908a.193.193 0 01.176.176l5.364 8.975c.088.088.088.088.177 0l5.54-9.015a.192.192 0 01.176-.176h8.266z" fill="#302D2D"/><path d="M123.446 0L150 41.424h-23.042l-8.699-13.546H117.2l-.617-.962h-10.375L123.446 0z" fill="#FCDE00"/><path d="M121.77 25.593l10.207 15.832H99.53l10.198-15.832h12.042z" fill="#231F20"/><path d="M119.132 25.593l10.207 15.832H96.892l10.198-15.832h12.042z" fill="#C9493F"/><path d="M27.693 9.143h-6.847a.193.193 0 00-.177.176L0 41.336a.088.088 0 00.088.088h8.354c.089 0 .177 0 .177-.088l2.814-4.395c.088 0 .088-.089.176-.089h8.82a.088.088 0 01.088.089v4.306c0 .089 0 .177.088.177h7.216l.088-.088V9.319a.192.192 0 00-.176-.176h-.04zm-7.216 21.373v.089h-5.452c-.088 0-.088 0-.088-.089l5.804-9.23-.264 9.23zm54.086 10.908h9.757a16.278 16.278 0 003.608-.617c4.482-1.404 6.855-5.895 6.855-9.673 0-6.071-4.746-8.18-10.374-10.554-.97-.441-2.197-1.059-2.197-2.406 0-1.348 1.315-2.021 2.726-2.021h7.648c.089 0 .089 0 .089-.089V9.143c0-.088 0-.088-.088-.088h-8.018c-6.679 0-10.64 3.954-10.64 9.496 0 4.812 3.08 7.218 7.561 9.062 3.167 1.236 5.188 1.757 5.188 4.307a2.406 2.406 0 01-2.462 2.639h-9.653v6.769c0 .088.088.088 0 .088v.008zM98.912 8.975a2.686 2.686 0 10.294 5.363 2.686 2.686 0 00-.294-5.363zm0 5.1a2.404 2.404 0 01-2.405-2.405 2.406 2.406 0 014.106-1.702 2.397 2.397 0 01.704 1.701 2.405 2.405 0 01-2.405 2.407z" fill="#302D2D"/><path d="M100.219 13.193l-.617-1.403a.802.802 0 00.529-.802.8.8 0 00-.353-.706.947.947 0 00-.705-.177h-1.147v3.08h.353V11.87h.882l.617 1.315.441.008zm-1.932-1.668v-1.147h.802c.176 0 .353 0 .44.176a.409.409 0 01.265.441.666.666 0 01-.176.353.65.65 0 01-.53.177h-.8zM6.51 53.39c-.783.42-1.66.633-2.549.618-2.55 0-3.784-1.604-3.784-3.168s1.427-3.257 3.832-3.257a4.745 4.745 0 012.405.538v1.403a4.858 4.858 0 00-2.196-.601c-1.403 0-2.406.802-2.406 1.933 0 1.13.97 1.844 2.285 1.844a5.027 5.027 0 002.406-.617v1.315l.008-.008zm9.228.61c-2.405 0-3.696-1.604-3.696-3.167 0-1.564 1.315-3.257 3.696-3.257a3.412 3.412 0 013.365 1.93c.198.416.311.867.331 1.327 0 1.604-1.315 3.168-3.696 3.168zm0-5.1a1.867 1.867 0 00-2.02 1.933 1.805 1.805 0 002.02 1.844 1.804 1.804 0 002.02-1.844 1.87 1.87 0 00-2.02-1.91V48.9zm14.857-1.228h1.323v6.24H30.33v-3.866l-1.756 1.933h-.177l-1.756-1.933v3.866h-1.587v-6.24h1.323l2.108 2.374 2.109-2.374zm13.188 0h1.411v6.24h-1.587v-3.866l-1.756 1.933h-.264l-1.756-1.933v3.866h-1.588v-6.24h1.411l2.109 2.374 2.02-2.374zm13.719 0v3.609c0 2.021-1.491 2.727-3.255 2.727-1.764 0-3.167-.802-3.167-2.727v-3.61h1.603v3.61a1.436 1.436 0 001.604 1.404c.882 0 1.668-.353 1.668-1.492v-3.521h1.547zm12.395 6.24h-1.315l-3.607-3.954v3.954h-1.58v-6.24h1.491l3.432 3.866v-3.866h1.58v6.24zm6.157 0h1.58v-6.24h-1.58v6.24zm13.189-.522a5.203 5.203 0 01-2.55.618c-2.46 0-3.784-1.604-3.784-3.168s1.403-3.256 3.873-3.256a4.746 4.746 0 012.405.53v1.403a4.857 4.857 0 00-2.197-.618c-1.403 0-2.405.802-2.405 1.933s.97 1.845 2.285 1.845a5.026 5.026 0 002.405-.618v1.316l-.032.016zm11.513.522h-1.668l-.529-1.235h-2.902l-.53 1.235H93.46l2.55-6.248h1.932l2.814 6.248zm-3.744-4.748l-.882 2.462h1.932l-1.05-2.462zm13.157-.354h-2.285v5.102h-1.676V48.81h-2.285v-1.14h6.246v1.14zm4.923 5.102h1.579v-6.24h-1.579v6.24zM125.29 54c-2.405 0-3.696-1.604-3.696-3.168s1.234-3.256 3.696-3.256a3.468 3.468 0 013.35 1.94c.201.412.318.86.346 1.316 0 1.604-1.403 3.168-3.696 3.168zm0-5.1a1.866 1.866 0 00-2.021 1.932 2.03 2.03 0 004.009 0 1.872 1.872 0 00-1.988-1.909V48.9zm14.945 5.012h-1.315l-3.608-3.954v3.954h-1.58v-6.24h1.492l3.431 3.866v-3.866h1.58v6.24zm9.413-4.572a4.92 4.92 0 00-2.109-.617c-.529 0-.882.264-.882.529 0 .97 3.255.706 3.255 2.903 0 1.147-1.058 1.845-2.461 1.845a4.491 4.491 0 01-2.406-.618v-1.315a3.73 3.73 0 002.197.802c.618 0 .97-.176.97-.53 0-1.058-3.255-.705-3.255-2.903 0-1.146.97-1.844 2.462-1.844.76.027 1.507.207 2.196.53v1.234l.033-.016z" fill="#302D2D"/></g><defs><clipPath id="clip0"><path fill="#fff" d="M0 0h150v54H0z"/></clipPath></defs></svg>