<svg width="80" height="93" viewBox="0 0 80 93" fill="none" xmlns="http://www.w3.org/2000/svg"><path d="M76.713 35.081h-4.025l-.724-6.522a3.2 3.2 0 00-3.185-2.848h-3.578a3.195 3.195 0 00-3.183 2.849l-.724 6.521h-4.442v-3.575c0-1.764-1.437-3.2-3.203-3.2H26.353a3.205 3.205 0 00-3.203 3.2v3.575h-4.442l-.724-6.519a3.196 3.196 0 00-3.183-2.851h-3.578a3.2 3.2 0 00-3.185 2.849l-.724 6.521H3.29a3.205 3.205 0 00-3.203 3.2v4.088c0 1.765 1.437 3.2 3.203 3.2h.123V89.8A3.204 3.204 0 006.615 93h66.772a3.206 3.206 0 003.203-3.2V64.08a1.363 1.363 0 00-2.727 0v18.007H62.879V53.372c0-1.765-1.437-3.2-3.203-3.2h-9.128a1.363 1.363 0 100 2.724h9.128c.262 0 .476.213.476.476v16.39H19.85v-16.39c0-.263.214-.476.476-.476H44.61a1.363 1.363 0 100-2.724H20.326a3.205 3.205 0 00-3.203 3.2v28.715H6.14V45.57h8.775a1.363 1.363 0 100-2.725H3.289a.476.476 0 01-.476-.476v-4.088c0-.262.214-.475.476-.475h73.424c.262 0 .476.213.476.475v4.088a.476.476 0 01-.476.476h-55.86a1.363 1.363 0 100 2.725h53.01v12.579a1.363 1.363 0 002.727 0v-12.58h.123a3.205 3.205 0 003.203-3.2v-4.088c0-1.764-1.437-3.2-3.203-3.2zM60.152 72.486v1.803a.476.476 0 01-.476.476h-39.35a.476.476 0 01-.476-.476v-1.803h40.302zM19.85 77.45c.156.023.314.04.476.04h39.35c.162 0 .32-.017.476-.04v4.637H19.85V77.45zm-7.57 7.362v1.41a1.363 1.363 0 002.727 0v-1.41h2.116v1.41a1.363 1.363 0 002.727 0v-1.41h2.117v1.41a1.363 1.363 0 002.727 0v-1.41h30.614v1.41a1.363 1.363 0 002.728 0v-1.41h2.116v1.41a1.363 1.363 0 002.727 0v-1.41h2.117v1.41a1.363 1.363 0 002.727 0v-1.41h6.14v4.987a.477.477 0 01-.476.476H6.615a.477.477 0 01-.476-.476v-4.987h6.14zm52.45-55.954a.473.473 0 01.471-.422h3.579c.243 0 .446.182.473.424l.69 6.221H64.04l.69-6.223zm-38.853 2.648c0-.262.214-.475.476-.475h27.296c.262 0 .476.213.476.475v3.575H25.877v-3.575zm-15.128-2.645a.477.477 0 01.473-.425h3.579c.242 0 .445.181.472.424l.69 6.221h-5.905l.69-6.22z" fill="#1B75BC"/><path d="M23.07 56.91v9.143a1.363 1.363 0 002.728 0V56.91a1.363 1.363 0 00-2.728 0zm6.614 6.06h5.363a1.363 1.363 0 100-2.725h-5.363a1.363 1.363 0 100 2.725zm0 4.445h15.763a1.363 1.363 0 100-2.725H29.684a1.363 1.363 0 100 2.725zm27.799-10.687v-.019a1.363 1.363 0 00-2.727 0v.019a1.363 1.363 0 002.727 0zm-4.291 0v-.019a1.363 1.363 0 00-2.727 0v.019a1.363 1.363 0 002.727 0zm-4.292 0v-.019a1.363 1.363 0 00-2.728 0v.019a1.363 1.363 0 002.727 0zM40 25.062c6.917 0 12.544-5.621 12.544-12.53C52.544 5.621 46.917 0 40.001 0c-6.917 0-12.544 5.621-12.544 12.531s5.627 12.531 12.544 12.531zm0-22.337c5.413 0 9.817 4.399 9.817 9.806 0 5.408-4.404 9.807-9.816 9.807-5.413 0-9.817-4.4-9.817-9.807s4.404-9.806 9.817-9.806z" fill="#1B75BC"/><path d="M37.11 17.155a1.36 1.36 0 001.925.106l3.65-3.267a1.361 1.361 0 00-.575-2.335l-1.065-.269 1.74-1.558a1.36 1.36 0 00.107-1.924 1.365 1.365 0 00-1.926-.105l-3.65 3.266a1.362 1.362 0 00.575 2.335l1.066.269-1.741 1.558a1.362 1.362 0 00-.106 1.924zm-24.395 5.627c4.53 0 8.216-3.682 8.216-8.208s-3.686-8.209-8.216-8.209c-4.531 0-8.217 3.682-8.217 8.209 0 4.526 3.686 8.208 8.217 8.208zm0-13.692a5.492 5.492 0 015.489 5.484 5.493 5.493 0 01-5.49 5.484 5.493 5.493 0 01-5.489-5.484 5.493 5.493 0 015.49-5.484z" fill="#1B75BC"/><path d="M10.797 15.936h.557v.556a1.363 1.363 0 002.727 0v-.556h.557a1.363 1.363 0 100-2.725h-.557v-.556a1.363 1.363 0 00-2.727 0v.556h-.557a1.363 1.363 0 100 2.725zm56.488 6.846c4.53 0 8.216-3.682 8.216-8.208s-3.686-8.209-8.216-8.209c-4.53 0-8.217 3.682-8.217 8.209 0 4.526 3.686 8.208 8.217 8.208zm0-13.692a5.493 5.493 0 015.489 5.484 5.493 5.493 0 01-5.49 5.484 5.493 5.493 0 01-5.488-5.484 5.493 5.493 0 015.489-5.484z" fill="#1B75BC"/><path d="M65.366 15.935h3.84a1.363 1.363 0 100-2.724h-3.84a1.363 1.363 0 100 2.724z" fill="#1B75BC"/></svg>