<svg width="280" height="94" viewBox="0 0 280 94" fill="none" xmlns="http://www.w3.org/2000/svg"><g clip-path="url(#clip0)"><path d="M0 0v94h280V0H0z" fill="#4BC0E2"/><path d="M121.977 31.68c-4.134 0-8.838 1.93-11.713 5.796l.002-.007-.002.003.002-5.186h-9.865v36.179h9.863V47.88c0-3.706 2.852-7.644 8.133-7.644 4.082 0 8.305 2.859 8.305 7.644v20.585h9.865V46.038c0-8.32-5.911-14.358-14.59-14.358zm84.698.61l-8.918 24.644-8.918-24.645h-11.267l14.781 36.165h10.808l14.781-36.165h-11.267zM70.951 43.188c1.68-2.272 4.356-3.605 7.588-3.605 3.555 0 6.252 2.045 7.645 5.061L68.95 51.845c-.471-3.694.468-6.585 2-8.657zm18.952 14.154c-4.152 3.094-6.525 3.834-10.31 3.834-3.408 0-6.074-1.065-7.956-2.934l25.219-10.537c-.55-3.926-2.03-7.432-4.307-10.1-3.314-3.876-8.218-5.926-14.188-5.926-10.848 0-19.026 8.06-19.026 18.702 0 10.92 8.198 18.7 20.112 18.7 6.675 0 13.5-3.186 16.692-6.909l-6.236-4.83zm-31.508 2.002h-22.42V21.468h-9.998v46.997h32.418v-9.121zm177.26-19.152c-5.509 0-9.508 4.204-9.508 10.186 0 5.71 4.236 10.186 9.641 10.186 5.509 0 9.508-4.32 9.508-10.186 0-5.712-4.235-10.186-9.641-10.186zm0 28.884c-10.789 0-19.241-8.094-19.241-18.698 0-10.485 8.511-18.7 19.374-18.7 10.788 0 19.238 8.095 19.238 18.7 0 10.483-8.508 18.698-19.371 18.698zm-75.947-28.884c-5.509 0-9.508 4.204-9.508 10.186 0 5.71 4.237 10.186 9.641 10.186 5.51 0 9.51-4.32 9.51-10.186 0-5.712-4.237-10.186-9.643-10.186zm0 28.884c-10.789 0-19.239-8.094-19.239-18.698 0-10.485 8.51-18.7 19.372-18.7 10.788 0 19.24 8.095 19.24 18.7 0 10.483-8.51 18.698-19.373 18.698zm100.361-5.819h1.057l1.562 2.468 1.562-2.468h1.025v5.208h-.958v-3.703l-1.596 2.502h-.101l-1.595-2.502v3.703h-.956v-5.208zm-3.695.914h-1.595v-.914h4.182v.914h-1.596v4.294h-.991V64.17z" fill="#fff"/></g><defs><clipPath id="clip0"><path fill="#fff" d="M0 0h280v94H0z"/></clipPath></defs></svg>