<svg width="280" height="77" viewBox="0 0 280 77" fill="none" xmlns="http://www.w3.org/2000/svg"><path d="M11.805 0v58.93H0V0h11.805zm39.8 57.157c-2.286 1.073-6.766 2.286-12.132 2.286-13.344 0-22.07-8.631-22.07-21.883 0-12.83 8.773-22.862 23.843-22.862 3.966 0 7.98.886 10.452 2.006l-1.913 8.072c-1.773-.793-4.293-1.68-8.165-1.68-8.259 0-13.205 6.066-13.111 13.905 0 8.771 5.739 13.81 13.11 13.81 3.78 0 6.393-.793 8.54-1.68-.047.047 1.446 8.026 1.446 8.026zm13.11-17.03c.28 7.745 6.346 11.058 13.205 11.058 4.993 0 8.632-.7 11.852-1.913l1.586 7.465c-3.686 1.493-8.772 2.753-14.93 2.753-13.905 0-22.07-8.632-22.07-21.696 0-11.852 7.232-23.05 20.903-23.05 13.998 0 18.477 11.432 18.477 20.81 0 2.006-.187 3.593-.374 4.573H64.716zm18.804-7.56c.094-3.965-1.68-10.45-8.865-10.45-6.672 0-9.471 6.065-9.938 10.45h18.803zM189.855 58.79c.093-2.566.42-5.972.793-9.658h-.28c-4.199 7.885-9.845 10.638-15.304 10.638-7.652 0-12.644-5.972-12.644-14.604 0-14.604 10.218-30.142 30.141-30.142 4.666 0 9.659.887 12.925 1.913l-4.386 22.35c-1.213 6.439-1.913 14.417-1.773 19.503h-9.472zm4.199-35.414c-1.073-.28-2.379-.42-4.199-.42-9.472 0-16.797 10.638-16.797 20.39 0 4.48 1.68 8.165 6.159 8.165 4.759 0 10.545-5.972 12.598-16.89-.047 0 2.239-11.245 2.239-11.245zm12.225 35.414l4.992-26.362c1.12-6.066 1.68-12.551 2.193-16.424h8.866c-.28 2.893-.514 5.879-.98 9.052h.28c2.893-5.786 7.558-10.032 13.437-10.032.7 0 1.494.094 2.193.187l-2.006 10.031c-.653-.093-1.306-.186-1.913-.186-7.279 0-11.945 7.372-13.624 16.517l-3.266 17.217h-10.172zm26.409 17.404l8.352-44.28c.98-5.085 1.913-11.757 2.473-16.097h9.238l-.98 7.186h.187c3.686-5.086 8.959-7.979 14.511-7.979 9.238 0 13.531 7.559 13.531 15.91 0 14.932-10.358 28.836-24.963 28.836-3.966 0-6.952-.887-8.538-1.82h-.187l-3.452 18.29c0-.046-10.172-.046-10.172-.046zm15.257-26.456c1.587 1.307 3.873 2.1 6.859 2.1 7.932 0 14.418-10.545 14.418-20.11 0-3.966-1.773-8.352-6.766-8.352-5.179 0-10.825 5.88-12.644 15.91l-1.867 10.452z" fill="#231F20"/><path d="M131.625.047c-3.266 0-6.719 2.66-7.699 5.879l-18.057 53.051h4.573c3.266 0 6.719-2.613 7.698-5.879L136.477.047h-4.852zm27.529 0l-20.81 58.93h4.526c3.266 0 6.719-2.613 7.698-5.879L170.912.047h-11.758zm-18.151.56l-8.398 23.796V53.05c0 1.68.7 3.22 1.866 4.293l9.938-28.182V5.879c0-2.286-1.399-4.339-3.406-5.272zm-29.022 27.575V.047h-11.804v53.051c0 1.54.606 2.986 1.586 4.013.047 0 10.218-28.929 10.218-28.929z" fill="#29ABE2"/></svg>