<svg width="280" height="42" viewBox="0 0 280 42" fill="none" xmlns="http://www.w3.org/2000/svg"><g clip-path="url(#clip0)"><path d="M31.273 7.334H47a5.6 5.6 0 01.721.017c.705.09 1.051.618.794 1.308-.402 1.07-.864 2.118-1.303 3.175-.206.5-.617.577-1.084.563H35.315c-3.075 0-6.15.02-9.239 0-1.797-.018-2.994.744-3.704 2.505-2.337 5.773-4.735 11.547-7.108 17.32-.62 1.51-.333 2.982.749 3.943a3.012 3.012 0 002.122.722 3818.01 3818.01 0 0116.58 0c1.783 0 2.048.41 1.366 2.087-.305.747-.634 1.486-.922 2.242a1.15 1.15 0 01-.443.61 1.09 1.09 0 01-.715.193h-.262c-9.085 0-18.17.014-27.258 0a6.267 6.267 0 01-4.161-1.532 6.65 6.65 0 01-2.205-3.953 6.924 6.924 0 01.445-3.972c2.88-6.968 5.753-13.939 8.62-20.913 1.183-2.863 3.325-4.287 6.302-4.307 5.264-.034 10.516-.008 15.791-.008z" fill="#E64011"/><path d="M40.493 34.553H24.88a3.98 3.98 0 01-.911-.066.822.822 0 01-.37-.145.856.856 0 01-.264-.303.89.89 0 01-.015-.793c.411-1.068.864-2.12 1.303-3.176.074-.19.202-.353.367-.467a.967.967 0 01.558-.173c.263-.015.523 0 .786 0h19.663c1.873 0 2.73-.61 3.46-2.393 2.332-5.693 4.61-11.408 7.04-17.054 1.157-2.694-.694-4.994-3.227-4.934-5.504.13-11.01.04-16.515.04-1.342 0-1.677-.504-1.138-1.763.35-.825.696-1.628 1.004-2.46a1.22 1.22 0 01.469-.66c.225-.157.495-.23.766-.205 9.264 0 18.529-.018 27.79.02 4.4.017 7.36 4.844 5.677 9.182-.724 1.862-1.512 3.698-2.272 5.545-2.159 5.254-4.277 10.522-6.489 15.752-1.174 2.777-3.404 4.027-6.278 4.042-5.261.032-10.525.011-15.791.011zm167.112-1.148c-.766.288-1.468.577-2.192.808-3.782 1.155-7.52 1.077-11.109-.704-4.193-2.079-5.988-6.455-4.473-10.995.839-2.5 1.957-4.873 3.724-6.862 2.071-2.35 4.674-3.752 7.645-4.437 4.325-.995 8.63-.915 12.859.485 1.87.618 3.5 1.646 4.56 3.438a4.613 4.613 0 01.587 3.565.68.68 0 01-.236.458.628.628 0 01-.483.14c-1.792-.017-3.583 0-5.373 0-.355 0-.614-.055-.483-.534a.953.953 0 00-.029-.471.92.92 0 00-.251-.395 3.034 3.034 0 00-1.367-1.02c-4.019-1.318-7.958-1.226-11.567 1.202-2.192 1.475-3.321 3.804-3.71 6.445-.279 1.891.669 3.372 2.458 4.169 1.889.843 3.877.81 5.87.629a12.227 12.227 0 003.682-.91c.816-.346 1.585-.782 2.074-1.578.369-.6.279-.777-.425-.777h-9.242c-1.056 0-1.059 0-.646-.97.434-1.01.889-2.02 1.3-3.03a.937.937 0 01.372-.49.885.885 0 01.587-.14h15.599c.687 0 .732.092.452.745-1.652 3.856-3.315 7.707-4.945 11.575-.254.6-.573.866-1.227.834-1.135-.052-2.273 0-3.407-.017-.794 0-.803-.02-.635-.849a3.01 3.01 0 00.031-.314zm-32.077-22.303c2.292 0 4.587-.032 6.879 0 2.952.05 5.681 2.598 5.924 5.485a8.642 8.642 0 01-.99 4.724 8.273 8.273 0 01-3.346 3.381 12.04 12.04 0 01-4.962 1.36c-.218.014-.436 0-.654.02-.618.052-.693.179-.405.748a1522.67 1522.67 0 003.41 6.705c.07.139.145.289.221.416.226.418.126.63-.355.63h-5.373c-.467 0-.64-.29-.813-.648-1.118-2.346-2.265-4.679-3.355-7.037a1.083 1.083 0 00-.452-.583 1.029 1.029 0 00-.711-.145 16.17 16.17 0 01-2.093 0c-.56-.034-.822.205-1.032.708-.987 2.358-2.015 4.7-2.999 7.06a.902.902 0 01-.354.497.854.854 0 01-.58.147c-1.661-.023-3.318 0-4.979 0-.738 0-.771-.055-.464-.77l9.505-22.13a.859.859 0 01.351-.454.819.819 0 01.552-.123c2.359.015 4.715 0 7.075 0v.009zm-.786 10.322h3.866c1.809-.014 2.991-1.08 3.265-2.932.202-1.369-.408-2.16-1.733-2.171-2.532-.02-5.068 0-7.601 0a.683.683 0 00-.464.101.718.718 0 00-.296.384 230.618 230.618 0 01-1.677 4.041c-.193.453-.095.6.38.595 1.417-.026 2.835-.015 4.257-.015l.003-.003zm57.217 13.539c-2.438-.06-4.836-.332-7.07-1.444-3.075-1.544-4.777-4.081-5.085-7.571-.178-2.02.467-3.914 1.284-5.736 2.616-5.845 7.128-8.865 13.241-9.508 2.849-.289 5.628 0 8.286 1.154 3.489 1.516 5.633 4.853 5.479 8.66-.089 2.258-.942 4.31-1.993 6.247-2.706 4.985-6.868 7.664-12.378 8.128-.305.026-.607.075-.912.093-.304.017-.57-.023-.852-.023zm-.028-5.684c4.9 0 8.026-2.327 9.462-6.83.747-2.338-.148-4.552-2.367-5.418-2.994-1.2-5.957-1.01-8.747.722-1.893 1.154-2.907 3.03-3.766 5.051-1.283 3.023.61 5.37 2.751 6.08a7.87 7.87 0 002.667.395zm35.59-3.01l2.421-5.51c1.321-3.02 2.64-6.041 3.956-9.065a.857.857 0 01.341-.466.815.815 0 01.55-.137c1.552.026 3.1 0 4.652 0 .646 0 .682.072.405.71a35736.12 35736.12 0 00-9.557 22.04 1.04 1.04 0 01-.415.575.988.988 0 01-.676.166 73.874 73.874 0 00-3.997 0c-.559 0-.839-.199-1.048-.759-1.602-4.619-3.235-9.237-4.859-13.856-.058-.164-.128-.326-.212-.537a1.67 1.67 0 00-.439.765c-1.971 4.547-3.947 9.093-5.893 13.654a1.067 1.067 0 01-.437.588 1.014 1.014 0 01-.7.157c-1.507-.038-3.014 0-4.521-.015-.693 0-.74-.075-.455-.739 1.722-3.997 3.447-7.99 5.177-11.982 1.398-3.253 2.829-6.498 4.193-9.765.299-.713.654-1.042 1.451-1 1.35.076 2.709.044 4.061 0 .526 0 .772.186.948.694 1.571 4.566 3.167 9.127 4.752 13.688.076.216.154.413.302.794zm-146.34-.121c.559-1.264 1.118-2.506 1.661-3.753 1.537-3.513 3.075-7.023 4.598-10.547.235-.549.528-.783 1.118-.765 1.462.046 2.927 0 4.389.017.719 0 .769.078.464.777l-6.429 14.81c-1.046 2.408-2.105 4.81-3.128 7.217a.953.953 0 01-.38.518.9.9 0 01-.613.146 95.119 95.119 0 00-4.061 0c-.56.015-.839-.188-1.046-.753-1.613-4.66-3.257-9.318-4.892-13.983-.045-.124-.098-.245-.165-.421a1.23 1.23 0 00-.38.635 1401.02 1401.02 0 00-5.809 13.471c-.321.757-.679 1.129-1.543 1.077-1.414-.087-2.837-.02-4.257-.026-.719 0-.76-.066-.481-.716 3.187-7.37 6.371-14.742 9.554-22.114a.946.946 0 01.384-.511.893.893 0 01.612-.139c1.442.03 2.885.035 4.324 0 .559 0 .811.185.995.722a2032.01 2032.01 0 004.753 13.691c.035.249.152.477.332.647zM95.364 11.1h9.633c.757 0 .785.043.483.742-.542 1.255-1.118 2.5-1.632 3.752a1.047 1.047 0 01-.42.565.99.99 0 01-.673.157c-4.26-.023-8.518 0-12.778-.026-.615 0-.953.17-1.166.785a22.726 22.726 0 01-1.034 2.425c-.28.563-.117.68.439.678 3.953-.017 7.908 0 11.861 0h.59c.36 0 .483.144.327.496a948.025 948.025 0 00-1.887 4.33c-.187.433-.54.39-.889.39-3.998 0-7.995.026-11.992-.02-.77 0-1.155.251-1.398.961-.289.78-.617 1.543-.984 2.286-.246.511-.145.667.405.664 2.751-.014 5.504 0 8.258 0h4.719c.52 0 .673.139.433.673a138.913 138.913 0 00-1.75 4.01.93.93 0 01-.365.492.88.88 0 01-.583.148c-6.4-.013-12.799-.013-19.199 0-.74 0-.788-.08-.494-.765 3.155-7.36 6.308-14.722 9.46-22.082a.92.92 0 01.366-.487.873.873 0 01.58-.14c3.221-.026 6.455-.034 9.69-.034z" fill="#0D4594"/><path d="M146.366 20.207h10.48c.262-.009.523.003.783.035.649.1.995.577.766 1.21-.414 1.136-.894 2.25-1.384 3.356-.195.442-.626.529-1.059.531h-21.936c-1.118-.043-1.456-.577-1.034-1.628.335-.831.713-1.648 1.015-2.49.279-.751.752-1.026 1.501-1.02 3.623.006 7.246.006 10.868.006z" fill="#E64011"/><path d="M150.287 11.1h10.88c1.188 0 1.501.491 1.048 1.617-.327.811-.696 1.608-.992 2.43-.266.73-.718 1.02-1.487 1.02-5.135-.024-10.268 0-15.403 0h-6.292c-1.205 0-1.535-.517-1.071-1.675.341-.866.718-1.694 1.048-2.554.232-.61.621-.843 1.258-.84 3.671.014 7.341.003 11.011.003zm-9.361 23.355h-10.882c-1.183 0-1.498-.491-1.043-1.62.352-.866.73-1.732 1.079-2.615.082-.259.245-.481.464-.632.219-.15.481-.221.744-.2 7.341.012 14.681.012 22.022 0 1.018 0 1.378.578.984 1.548-.366.892-.755 1.778-1.098 2.679-.235.612-.624.843-1.258.84-3.671-.009-7.341 0-11.012 0zM31.06 27.134h-9.035c-1.17 0-1.49-.511-1.025-1.625.36-.866.726-1.732 1.076-2.598.082-.259.246-.481.466-.632.22-.15.481-.22.744-.197h18.265c1.015 0 1.373.578.979 1.562-.352.866-.744 1.732-1.074 2.612a1.25 1.25 0 01-.494.68c-.236.16-.519.23-.8.198H31.06zm9.755-12.38h9.043c1.138 0 1.467.502 1.034 1.582-.35.866-.752 1.732-1.079 2.612a1.23 1.23 0 01-.478.664c-.229.158-.503.23-.777.202H30.75a3.64 3.64 0 01-.838-.058c-.56-.138-.861-.632-.652-1.175.428-1.11.898-2.202 1.364-3.296.213-.496.649-.531 1.119-.531 3.017.004 6.04.004 9.07 0z" fill="#0D4594"/></g><defs><clipPath id="clip0"><path fill="#fff" d="M0 0h280v42H0z"/></clipPath></defs></svg>