<svg width="280" height="58" viewBox="0 0 280 58" fill="none" xmlns="http://www.w3.org/2000/svg"><g clip-path="url(#clip0)" fill-rule="evenodd" clip-rule="evenodd" fill="#008995"><path d="M0 7.277l1.868-6.154H38.91c4.558 0 7.727 1.128 9.508 3.385 3.395 4.348 6.786 8.636 10.17 12.861 3.386 4.226 4.93 8.149 4.631 11.77A16.888 16.888 0 0159.5 40a2205.115 2205.115 0 01-8.566 12.108 15.411 15.411 0 01-4.985 4.815 16.424 16.424 0 01-6.822 1.062H0l1.698-6.154a26.076 26.076 0 003.087-.17c.926-.133 1.389-1.25 1.389-3.353V9.569c0-1.384-.602-2.107-1.79-2.154L0 7.277zm45.934 21.846a9.121 9.121 0 00-1.544-4.015 67.56 67.56 0 00-3.519-5.539c-1.343-1.907-2.686-3.754-4.06-5.477a152.846 152.846 0 00-3.086-3.754 6.366 6.366 0 00-2.293-2.155 6.39 6.39 0 00-3.048-.798c-2.269-.093-4.074-.139-5.433-.108v44.508c2.161 0 4.183 0 6.066-.17a6.186 6.186 0 002.834-1.07 6.16 6.16 0 001.982-2.284 26.62 26.62 0 012.006-2.676c1.297-1.616 2.67-3.477 4.199-5.57 1.528-2.092 2.87-4.154 4.105-6.154a9.92 9.92 0 001.806-4.615l-.015-.123zm42.691-3.847l-4.028 8.8H66.924l4.893-8.8h16.808zM112.673 9.23v40.34c0 .907 1.034 1.538 2.933 2.107 2.039.495 4.177.416 6.173-.23a13.148 13.148 0 006.174-4.34c1.883-2.215 2.866-5.615 2.948-10.2l5.14-1.538V58H89.706l1.698-6.154a21.016 21.016 0 003.087-.215c.91-.139 1.343-1.231 1.327-3.262V9.57a1.842 1.842 0 00-.352-1.343 1.853 1.853 0 00-1.191-.718 23.505 23.505 0 00-4.63-.231l1.867-6.154h30.19l-1.821 6.154a30.25 30.25 0 01-4.522 0c-1.544-.092-2.485.554-2.655 1.985l-.031-.031zm44.761-2.446a5.446 5.446 0 01.54 5.4 10.121 10.121 0 01-4.106 4.323 13.757 13.757 0 01-7.717 1.538c-3.21-.138-5.016-.523-5.371-1.138-.355-.615 0-2.323 1.374-5.215a13.284 13.284 0 014.923-6.154 10.321 10.321 0 015.726-1.616 5.57 5.57 0 012.692.827 5.543 5.543 0 011.939 2.035zm.864 14.923v28.246a3.072 3.072 0 001.544 3.077 6.867 6.867 0 003.581 1L162.265 58h-23.862l1.08-3.924a3.56 3.56 0 003.489-1.938 8.2 8.2 0 00.833-2.492V31.322c.17-1.539-.293-2.324-1.389-2.508a66.879 66.879 0 00-4.044-.554l1.544-5.2a18.822 18.822 0 008.566-1.662 25.798 25.798 0 019.261-2.03c.416.338.586.569.524.738a4.96 4.96 0 000 1.538l.031.062zm33.262 8.001a9.425 9.425 0 00-4.368 2.6c-1.018 1.138-1.821 2.061-2.407 2.8v14.646a4.224 4.224 0 001.492 3.364 4.245 4.245 0 003.57.928l-1.157 3.97h-23.94l1.081-3.924c2.871-.369 4.322-1.83 4.322-4.43V31.337c0-1.538-.479-2.369-1.436-2.63a20.136 20.136 0 00-4.013-.447l1.544-5.2a30.859 30.859 0 009.152-1.86 29.287 29.287 0 018.736-1.83c.189.096.344.246.448.43a4.12 4.12 0 01.093 1.892v4.016a3.86 3.86 0 00.138 1.43c.093.108.448 0 1.019-.215l7.347-3.846a34.045 34.045 0 019.616-2.908c5.721.144 8.885 2.42 9.492 6.83v22.232a7.99 7.99 0 001.065 2.815c.479.739 2.423 1.292 5.788 1.677l-2.408 4.261h-14.539c-2.979.077-4.476-1.153-4.476-3.723V34.37a4.33 4.33 0 00-2.269-3.6 4.88 4.88 0 00-3.89-1.03v-.031zM241.753 1.23v32.708l13.29-13.846h14.508l-1.157 4.092c-3.226-.077-5.202.308-5.896 1.139l-5.094 5.061-5.031 5 17.472 15.708c1.461 2.051 4.846 2.667 10.156 1.846L278.457 58h-20.065l-16.561-15.616v7.57a3.5 3.5 0 001.034 2.723 8.43 8.43 0 004.059 1.369l-1.127 3.97h-23.954l1.111-3.924a9.28 9.28 0 003.396-1.538 5.192 5.192 0 00.926-2.939V12.477c0-1.293-.463-2.046-1.389-2.339a26.119 26.119 0 00-3.967-.692l1.451-5.108 18.382-3.077v-.03zm25.528 6.8h.803l1.852 3.354h2.022l-2.037-3.492a1.877 1.877 0 001.444-.595 1.858 1.858 0 00.485-1.482c0-1.83-1.219-2.4-3.288-2.4h-2.978V11.4h1.713V8.03h-.016zm0-3.261h1.189c.648 0 1.543 0 1.543.877s-.447 1.03-1.219 1.03h-1.544V4.77h.031zm8.69 2.646a7.434 7.434 0 00-2.188-5.265 7.482 7.482 0 00-5.282-2.181 7.483 7.483 0 00-5.283 2.18 7.434 7.434 0 00-2.188 5.266c0 1.975.787 3.869 2.188 5.265a7.483 7.483 0 005.283 2.181 7.482 7.482 0 005.282-2.18 7.434 7.434 0 002.188-5.266zm-2.145 0a5.327 5.327 0 01-1.408 4.022 5.342 5.342 0 01-3.917 1.705 5.352 5.352 0 01-3.917-1.704 5.31 5.31 0 01-1.408-4.023 5.31 5.31 0 011.408-4.023 5.353 5.353 0 017.834 0 5.314 5.314 0 011.408 4.023z"/></g><defs><clipPath id="clip0"><path fill="#fff" d="M0 0h280v58H0z"/></clipPath></defs></svg>