<svg width="256" height="135" viewBox="0 0 256 135" fill="none" xmlns="http://www.w3.org/2000/svg"><g clip-path="url(#clip0)"><path d="M98.82 123.534l-.043 10.209.745.128a63.03 63.03 0 007.087.91c2.082.193 4.175.235 6.263.123a26.196 26.196 0 005.878-1.109 16.253 16.253 0 006.097-3.251 12.33 12.33 0 003.551-5.091 14.005 14.005 0 00-.072-10.247 11.489 11.489 0 00-3.185-4.413 13.206 13.206 0 00-4.67-2.721l-7.699-2.844a4.127 4.127 0 01-2.105-2.005 2.625 2.625 0 01.085-2.336 3.08 3.08 0 01.512-.692c.237-.24.501-.45.787-.626.114-.07.231-.136.351-.2a8.164 8.164 0 012.75-.781 16.021 16.021 0 014.911.052c1.918.208 3.819.549 5.689 1.019l.398.09v-9.442l-.734-.156a50.144 50.144 0 00-5.789-1.043 29.735 29.735 0 00-7.613-.033 16.467 16.467 0 00-8.771 3.526 11.63 11.63 0 00-3.745 5.162 14.178 14.178 0 000 9.598 10.752 10.752 0 002.693 4.062 15.396 15.396 0 003.484 2.527c1.678.901 3.457 1.6 5.3 2.08.607.184 1.212.376 1.816.579l.91.336.261.104c.9.322 1.722.829 2.413 1.489.48.448.85 1.001 1.081 1.616.14.563.14 1.153 0 1.716a3.645 3.645 0 01-1.764 2.114 8.736 8.736 0 01-2.939.919c-1.504.238-3.03.315-4.551.228a52.066 52.066 0 01-5.94-.792 53.864 53.864 0 01-3.063-.715l-.379-.095m-41.87 9.84V121.52l-.232.099a21.927 21.927 0 01-8.534 2.171 12.573 12.573 0 01-8.604-2.536 11.004 11.004 0 01-3.745-5.318 12.797 12.797 0 01-.251-7.11 10.903 10.903 0 013.792-6.081 11.434 11.434 0 015.992-2.583 19.76 19.76 0 0111.317 2.123l.256.133V90.493l-.54-.147a30.314 30.314 0 00-10.79-1.422 24.965 24.965 0 00-9.639 2.204 22.021 22.021 0 00-7.888 6.095 23.73 23.73 0 00-.432 28.866 22.627 22.627 0 0012.544 8.058 29.401 29.401 0 0015.872-.555l.873-.237m26.676.801V89.691H72.405v44.465h11.212zm165.96-5.167v-.673h-4.746v.673h1.972v5.167h.797v-5.167h1.977zm.459 5.167h.759v-4.664h.099l1.707 4.664h.758l1.845-4.887v4.887H256v-5.84h-1.233l-1.73 4.811-1.749-4.811h-1.252v5.84z" fill="#C82027"/><path d="M0 53.958a5.56 5.56 0 009.322 3.651 5.559 5.559 0 001.767-3.651V41.634A5.55 5.55 0 000 41.64v12.324m30.696-.006a5.559 5.559 0 005.545 5.13 5.561 5.561 0 005.544-5.13V26.334a5.55 5.55 0 00-11.089 0v27.624zm30.535 11.129a5.56 5.56 0 0011.089 0V5.332a5.55 5.55 0 00-9.37-3.742 5.55 5.55 0 00-1.719 3.742v59.755zm30.692-11.129a5.56 5.56 0 009.321 3.65 5.558 5.558 0 001.767-3.65V26.334a5.549 5.549 0 00-5.544-5.27 5.552 5.552 0 00-5.544 5.27v27.624zm30.559 0a5.563 5.563 0 0011.089 0V41.635a5.553 5.553 0 00-5.544-5.27 5.552 5.552 0 00-5.545 5.27v12.323zm30.667 0a5.562 5.562 0 0011.089 0V26.334a5.553 5.553 0 00-5.544-5.27 5.552 5.552 0 00-5.545 5.27v27.624zm30.545 11.129a5.558 5.558 0 005.545 5.13 5.562 5.562 0 005.544-5.13V5.332a5.55 5.55 0 00-5.544-5.27 5.552 5.552 0 00-5.545 5.27v59.755zm30.645-11.129a5.558 5.558 0 005.544 5.13 5.558 5.558 0 005.544-5.13V26.334a5.549 5.549 0 00-5.544-5.27 5.552 5.552 0 00-5.544 5.27v27.624zm30.572 0a5.558 5.558 0 005.544 5.131 5.563 5.563 0 005.545-5.13V41.634a5.55 5.55 0 00-5.545-5.27 5.55 5.55 0 00-5.544 5.27v12.323z" fill="#12393D"/><path d="M174.113 133.369V121.52l-.232.099a21.933 21.933 0 01-8.534 2.171 12.573 12.573 0 01-8.599-2.536 11.003 11.003 0 01-3.746-5.318 12.798 12.798 0 01-.251-7.11 10.903 10.903 0 013.793-6.081 11.433 11.433 0 015.992-2.583 19.761 19.761 0 0111.321 2.123l.256.133V90.493l-.541-.147a30.308 30.308 0 00-10.789-1.422 24.963 24.963 0 00-9.657 2.213 22.031 22.031 0 00-7.889 6.096 23.73 23.73 0 00-.431 28.865 22.624 22.624 0 0012.544 8.058 29.392 29.392 0 0015.872-.555l.872-.237m11.833-21.424a23.393 23.393 0 0018.159 22.438c3.383.777 6.896.792 10.285.043a22.815 22.815 0 0018.233-18.413 22.81 22.81 0 00-10.738-23.582 23.55 23.55 0 00-32.509 7.782 23.531 23.531 0 00-3.425 11.756l-.005-.024zm16.284-9.095a11.693 11.693 0 0114.838.196 11.689 11.689 0 012.702 14.589 11.695 11.695 0 11-17.54-14.785z" fill="#C82027"/></g><defs><clipPath id="clip0"><path fill="#fff" d="M0 0h256v135H0z"/></clipPath></defs></svg>