<svg width="246" height="66" viewBox="0 0 246 66" fill="none" xmlns="http://www.w3.org/2000/svg"><g clip-path="url(#clip0)" fill="#005BAA"><path d="M0 2.012h19.767c4.536 0 9.862 4.242 12.272 6.599l34.713 38.75V2.01H78.54v61.88H57.897c-3.67-.088-7.302-.89-11.523-5.036L11.735 20.016v43.873H0V2.012zm246 62.293c-14.142 1.964-28.402 2.143-42.765.929-8.398-.703-16.591-2.48-24.145-6.425-9.467-4.948-12.501-16.103-12.383-26.214.103-9.337 2.872-19.254 11.113-24.675 5.416-3.571 11.203-4.762 17.384-5.877 16.789-2.976 33.566-2.305 49.972-.512v8.818c-19.329-3.75-39.716-2.822-46.662 6.11-4.312 5.556-4.908 11.076-4.908 15.735 0 8.393 2.825 21.091 19.752 23.587 11.068 1.635 21.976.357 32.646-1.551L246 64.305zm-120.953-9.643c1.676.088 28.323.171 37.474 0v9.278c-18.429.726-36.133 1.016-54.701.246-15.779-.659-18.493-8.647-18.812-16.31V2.017h72.59v8.813h-46.942v15.758h42.769v8.591h-42.773c-.023 4.651.119 9.921.158 10.865.253 6.004 3.018 8.242 10.217 8.62"/></g><defs><clipPath id="clip0"><path fill="#fff" d="M0 0h246v66H0z"/></clipPath></defs></svg>