<svg width="278" height="67" viewBox="0 0 278 67" fill="none" xmlns="http://www.w3.org/2000/svg"><g clip-path="url(#clip0)"><path d="M277.499 2.965c-.956-1.394-2.089-2.373-6.831-2.717-1.239-.095-5.345-.231-12.252-.231-18.145 0-30.473 5.533-36.791 16.464 1.742-10.988-8.921-16.482-31.989-16.482-27.096 0-44.006 10.968-50.73 32.904-2.505 8.157-2.769 14.845-.791 20.064l-6.418.41c-4.996.385-11.573.723-15.602.723-9.914 0-16.063-1.673-18.446-5.018-2.135-3-1.923-8.575.59-16.707 4.129-13.468 14.381-19.53 30.757-19.53 8.488 0 16.746.896 16.752.896 1.139-.071 1.64-1.263 1.516-2.248l-.165-1.287-.59-4.525c-.393-2.973-2.595-4.735-6.606-5.284-3.675-.25-6.412-.416-10.441-.416h-.225c-21.4.048-36.315 7.111-44.742 21.191C87.582 7.057 77.672 0 54.765 0 42.027 0 32.89.361 27.353 1.085c-4.247.53-6.839 2.297-7.775 5.302l-1.81 5.818c-.331 1.067.182 1.595 1.539 1.595h.041c1.009-.13 4.884-.51 11.509-1.044 8.761-.703 15.272-1.055 19.53-1.055 12.612 0 17.921 3.173 15.928 9.519a3.656 3.656 0 01-1.056 1.722 3.626 3.626 0 01-1.805.893c-11.928 1.977-21.395 3.406-28.403 4.288C15.349 30.638 3.966 36.81.903 46.639c-4.208 13.514 6.329 20.273 31.611 20.277 12.608 0 23.19-.73 31.748-2.188 4.931-.83 7.427-2.1 8.418-5.29l4.719-15.065c-.49 15.053 10.028 22.632 31.523 22.632 9.314 0 18.145-.308 22.309-1.038 4.413-.77 6.518-1.731 7.492-5.076l.955-4.745c4.582 7.184 14.635 10.776 30.161 10.776 16.371 0 25.92-.46 28.645-1.382 2.283-.73 3.692-1.915 4.194-3.558.093-.308.16-.624.2-.943l1.965-6.394c.342-1.109-.171-1.642-1.516-1.595l-10.482.504c-6.996.395-12.471.593-16.423.593-7.44 0-12.553-.51-15.337-1.53-4.141-1.581-6.107-4.78-5.899-9.596l33.193-4.276c14.849-1.93 24.793-6.542 29.83-13.836l-11.249 39.38a1.836 1.836 0 00.248 1.78c.419.491 1.139.729 2.2.729h13.739c2.401 0 3.256-1.246 3.539-2.29l12.158-42.5c1.598-5.592 6.712-8.303 15.643-8.303 8.058 0 14.157.071 18.015.214h.301a2.884 2.884 0 001.762-.587 2.91 2.91 0 001.046-1.542l2.135-5.86a3.145 3.145 0 00-.247-2.965zM56.039 54.124c-4.275.688-10.433 1.032-18.475 1.032-13.96 0-20.056-2.834-18.287-8.5 1.269-4.062 4.926-6.523 11.008-7.336l31.747-4.33-5.993 19.133zm146.816-34.44c-1.337 4.349-7.547 7.33-18.629 8.943l-26.456 3.778.667-2.159c2.19-7.164 5.301-12.045 9.332-14.643 4.03-2.598 10.578-3.894 19.643-3.89 11.935-.016 17.083 2.64 15.443 7.97z" fill="#83B81A"/></g><defs><clipPath id="clip0"><path fill="#fff" d="M0 0h278v67H0z"/></clipPath></defs></svg>