<svg width="188" height="154" viewBox="0 0 188 154" fill="none" xmlns="http://www.w3.org/2000/svg"><g clip-path="url(#clip0)" fill-rule="evenodd" clip-rule="evenodd"><path d="M0 0h187.09v153.76H0V0z" fill="#F47A3F"/><path d="M154.41 108.91v-20.5h-10.58v11.22a5.445 5.445 0 01-10.89 0v-55.1h-10.57v64.39l32.04-.01zM75 97.7c0 6.4-4.17 12.18-16 12.18s-16-7.53-16-12.18v-9.29h10.5v11.22a5.455 5.455 0 001.617 3.868A5.463 5.463 0 0059 105.08a5.511 5.511 0 005.44-5.53v-55H75V97.7zM114.68 66V55c0-7.13-6.49-10.49-10.57-10.49H83v64.39h21.14c7.93 0 10.57-5.13 10.57-8.41V81.21c0-2.72-2.8-6.33-7-6.33 4.17 0 7-5.68 7-8.89l-.03.01zM100 103.65h-6.46v-26H100c4.16 0 4.16 3 4.16 13.05s0 12.91-4.16 12.91v.04zm-.65-31.4h-5.81V50.61h5.77c3.85 0 4.81.81 4.81 10.89s-1 10.75-4.81 10.75h.04z" fill="#fff"/><path d="M48.21 69.16a6.12 6.12 0 100 12.24 6.12 6.12 0 000-12.24zm-9.77-24.63l9.77 22.26 9.77-22.26H38.44z" fill="#fff"/></g><defs><clipPath id="clip0"><path fill="#fff" d="M0 0h187.09v153.76H0z"/></clipPath></defs></svg>