<svg width="265" height="55" viewBox="0 0 265 55" fill="none" xmlns="http://www.w3.org/2000/svg"><g clip-path="url(#clip0)" fill-rule="evenodd" clip-rule="evenodd" fill="#ED1C24"><path d="M20.892 39.144a24.359 24.359 0 0020.68 11.623c12.748 0 19.83-11.042 19.83-11.042l.92 2.93C56.403 50.356 45.823 55 33.995 55 20.368 55 8.612 48.502 3.201 39.13A23.152 23.152 0 010 27.493C0 12.317 15.213 0 33.994 0c13.258 0 23.938 5.663 29.533 13.902L41.275 27.21 54.023 7.73c-3.626-2.28-8.088-4.417-12.748-4.417a24 24 0 00-16.786 7.068 23.976 23.976 0 00-6.982 16.815 22.826 22.826 0 003.371 11.948h.014zm59.561-.014a8.943 8.943 0 004.511 9.171 8.956 8.956 0 0013.005-5.585 8.942 8.942 0 00-3.552-9.584 8.956 8.956 0 00-5.112-1.604 9.026 9.026 0 00-8.853 7.602zm33.215 0l4.447 14.978h-15.58l-3.088-10.221C97.393 49.79 90.452 54.15 82.223 54.15c-9.915 0-17.847-6.23-17.847-13.902v-1.076c.708-7.164 8.4-12.813 17.79-12.813a20.29 20.29 0 0113.386 4.715l-4.25-14.157h-17.86s3.045-1.897 16.203-6.696c13.159-4.8 17.408 6.597 17.408 6.597l6.629 22.311h-.014zm49.901 0v14.978h-16.062V21.236a4.391 4.391 0 00-8.499-1.586v34.458h-15.779V16.804h-9.15s12.748-7.743 17.224-7.743a7.778 7.778 0 015.304 2.143 7.769 7.769 0 012.401 5.19c6.19-3.327 12.323-7.333 16.53-7.333a8.034 8.034 0 018.031 7.8V39.13zm24.745 0l2.238 7.39a5.804 5.804 0 005.836 5.663 5.909 5.909 0 005.907-5.903 6.42 6.42 0 000-.68l-1.898-6.484-6.672-22.793a5.906 5.906 0 00-5.878-5.252 6.823 6.823 0 00-6.246 5.663l6.756 22.311-.043.085zm25.496 0a23.134 23.134 0 01-10.743 12.986 23.155 23.155 0 01-30.513-7.414 23.124 23.124 0 014.966-30.99 23.152 23.152 0 0131.303 2.48 23.126 23.126 0 014.987 22.938zm26.643 0v14.978h-15.75V16.804h-8.81s12.408-7.743 16.841-7.743a7.778 7.778 0 015.304 2.143 7.769 7.769 0 012.401 5.19c6.19-3.327 12.323-7.333 16.53-7.333a8.034 8.034 0 018.031 7.8v37.233h-16.062V21.236a4.391 4.391 0 00-8.499-1.586v19.48h.014z"/></g><defs><clipPath id="clip0"><path fill="#fff" d="M0 0h265v55H0z"/></clipPath></defs></svg>