<svg width="238" height="86" viewBox="0 0 238 86" fill="none" xmlns="http://www.w3.org/2000/svg"><g clip-path="url(#clip0)" fill-rule="evenodd" clip-rule="evenodd"><path d="M99.607 14.562h11.716l.14.14v51.092l-.14.14H99.607a.14.14 0 01-.14-.14V14.702a.14.14 0 01.14-.14zm-3.905 0a.192.192 0 010 .28L80.22 40.056a.627.627 0 000 .703l15.622 24.933a.192.192 0 010 .28H81.327c-.14 0-.28-.14-.42-.14L71.57 50.428c-.14-.14-.14-.14-.28 0L62.5 65.755c-.14.14-.28.281-.42.281H48.544c-.28 0-.28-.14-.14-.14l15.902-26.478a.525.525 0 000-.843L50.313 14.906a.19.19 0 01-.046-.217.191.191 0 01.046-.064h14.133a.304.304 0 01.28.281l8.51 14.293c.14.14.14.14.28 0l8.79-14.357a.307.307 0 01.28-.28h13.116z" fill="#302D2D"/><path d="M195.868 0l42.133 65.972H201.44L187.637 44.4h-1.679l-.979-1.533h-16.461L195.868 0z" fill="#FCDE00"/><path d="M193.209 40.758l16.194 25.214h-51.482l16.181-25.214h19.107z" fill="#231F20"/><path d="M189.023 40.758l16.194 25.214h-51.483l16.182-25.214h19.107z" fill="#C9493F"/><path d="M43.939 14.562H33.075a.305.305 0 00-.28.28L0 65.832a.14.14 0 00.14.14h13.255c.14 0 .28 0 .28-.14l4.465-7c.14 0 .14-.14.28-.14h13.993a.14.14 0 01.14.14v6.86c0 .14 0 .28.14.28h11.45l.14-.14v-50.99a.307.307 0 00-.28-.28h-.064zm-11.45 34.04v.14h-8.65c-.14 0-.14 0-.14-.14L32.91 33.9l-.42 14.7zm85.818 17.37h15.481c1.939-.11 3.86-.44 5.725-.983 7.111-2.235 10.876-9.388 10.876-15.404 0-9.67-7.53-13.029-16.461-16.81-1.539-.702-3.485-1.685-3.485-3.831s2.086-3.22 4.325-3.22h12.136c.14 0 .14 0 .14-.14V14.561c0-.14 0-.14-.14-.14h-12.721c-10.597 0-16.881 6.297-16.881 15.123 0 7.664 4.885 11.496 11.996 14.433 5.025 1.967 8.23 2.798 8.23 6.86a3.836 3.836 0 01-2.326 3.907c-.5.21-1.038.31-1.579.295h-15.316v10.78c0 .14.14.14 0 .14v.013zm38.634-51.679a4.255 4.255 0 00-2.862 1.33 4.29 4.29 0 000 5.884 4.255 4.255 0 004.563 1.075 4.26 4.26 0 002.446-2.326 4.293 4.293 0 00-.984-4.798 4.26 4.26 0 00-3.163-1.165zm0 8.123a3.81 3.81 0 01-2.699-1.122 3.842 3.842 0 010-5.42 3.81 3.81 0 014.159-.83 3.828 3.828 0 012.356 3.54 3.841 3.841 0 01-1.118 2.71 3.812 3.812 0 01-2.698 1.122z" fill="#302D2D"/><path d="M159.015 21.012l-.979-2.236a1.273 1.273 0 00.839-1.277 1.283 1.283 0 00-.559-1.124 1.502 1.502 0 00-1.12-.281h-1.819v4.905h.56v-2.095h1.399l.98 2.095.699.013zm-3.066-2.657v-1.827h1.273c.279 0 .559 0 .699.281a.65.65 0 01.42.703 1.063 1.063 0 01-.28.562 1.028 1.028 0 01-.839.28h-1.273zM10.33 85.029a8.23 8.23 0 01-4.045.984c-4.046 0-6.005-2.555-6.005-5.046 0-2.49 2.265-5.186 6.081-5.186a7.505 7.505 0 013.816.856v2.235a7.686 7.686 0 00-3.485-.958c-2.226 0-3.817 1.278-3.817 3.079 0 1.8 1.54 2.938 3.626 2.938a7.952 7.952 0 003.816-.984v2.095l.013-.013zM24.97 86c-3.816 0-5.864-2.555-5.864-5.045 0-2.491 2.087-5.186 5.865-5.186a5.399 5.399 0 014.032 1.339 5.44 5.44 0 011.832 3.847c0 2.554-2.086 5.045-5.864 5.045zm0-8.124a2.952 2.952 0 00-2.291.816 2.976 2.976 0 00-.914 2.263 2.882 2.882 0 00.932 2.207 2.86 2.86 0 002.274.73 2.85 2.85 0 002.274-.73 2.874 2.874 0 00.932-2.207 2.987 2.987 0 00-.928-2.238 2.963 2.963 0 00-2.278-.802v-.039zm23.574-1.954h2.1v9.937h-2.52v-6.156L45.34 82.78h-.28l-2.786-3.078v6.156h-2.52v-9.937h2.1l3.346 3.78 3.345-3.78zm20.926 0h2.239v9.937H69.19v-6.156l-2.786 3.078h-.42L63.2 79.703v6.156h-2.52v-9.937h2.24l3.345 3.78 3.206-3.78zm21.767 0v5.748c0 3.218-2.367 4.343-5.165 4.343-2.799 0-5.025-1.278-5.025-4.343v-5.748h2.544v5.748a2.294 2.294 0 00.777 1.685 2.277 2.277 0 001.767.55c1.4 0 2.646-.562 2.646-2.376v-5.607h2.456zm19.667 9.938h-2.086l-5.725-6.298v6.297h-2.506v-9.937h2.366l5.445 6.156v-6.156h2.506v9.937zm9.769 0h2.506v-9.938h-2.506v9.937zm20.926-.831a8.227 8.227 0 01-4.045.984c-3.905 0-6.004-2.555-6.004-5.046 0-2.49 2.226-5.186 6.144-5.186a7.505 7.505 0 013.816.843v2.236a7.68 7.68 0 00-3.485-.984c-2.226 0-3.816 1.277-3.816 3.078s1.539 2.938 3.625 2.938a7.95 7.95 0 003.816-.983v2.094l-.051.026zm18.267.831h-2.646l-.839-1.968h-4.605l-.84 1.967h-2.646l4.045-9.95h3.066l4.465 9.95zm-5.94-7.562l-1.4 3.921h3.066l-1.666-3.921zm20.874-.562h-3.625v8.123h-2.659v-8.123h-3.625v-1.814h9.909v1.814zm7.812 8.124h2.506v-9.938h-2.506v9.937zm16.181.14c-3.816 0-5.864-2.554-5.864-5.045 0-2.49 1.959-5.186 5.864-5.186a5.49 5.49 0 014.007 1.368 5.553 5.553 0 011.858 3.818c0 2.555-2.227 5.045-5.865 5.045zm0-8.123a2.95 2.95 0 00-2.292.815 2.985 2.985 0 00-.914 2.263 3.237 3.237 0 001.087 1.958 3.21 3.21 0 004.188 0 3.236 3.236 0 001.086-1.958 2.978 2.978 0 00-1.947-2.866 2.95 2.95 0 00-1.208-.174v-.038zm23.713 7.983h-2.086l-5.724-6.298v6.297h-2.507v-9.937h2.367L220 82.078v-6.156h2.506v9.937zm14.934-7.28a7.775 7.775 0 00-3.346-.984c-.839 0-1.399.421-1.399.843 0 1.545 5.165 1.124 5.165 4.624 0 1.826-1.679 2.938-3.906 2.938a7.101 7.101 0 01-3.816-.984v-2.095a5.9 5.9 0 003.486 1.278c.979 0 1.539-.282 1.539-.844 0-1.685-5.165-1.123-5.165-4.623 0-1.827 1.539-2.938 3.905-2.938a8.976 8.976 0 013.486.843v1.967l.051-.026z" fill="#302D2D"/></g><defs><clipPath id="clip0"><path fill="#fff" d="M0 0h238v86H0z"/></clipPath></defs></svg>