<svg width="150" height="31" viewBox="0 0 150 31" fill="none" xmlns="http://www.w3.org/2000/svg"><g clip-path="url(#clip0)" fill-rule="evenodd" clip-rule="evenodd" fill="#ED1C24"><path d="M11.826 22.063a13.754 13.754 0 004.997 4.79 13.834 13.834 0 006.709 1.761c7.215 0 11.224-6.224 11.224-6.224l.521 1.652C31.926 28.382 25.937 31 19.242 31c-7.713 0-14.367-3.663-17.43-8.945A13.007 13.007 0 010 15.496C0 6.942 8.61 0 19.242 0c7.505 0 13.55 3.192 16.717 7.836l-12.596 7.5 7.216-10.98C28.526 3.073 26 1.868 23.363 1.868a13.614 13.614 0 00-9.501 3.984 13.485 13.485 0 00-3.952 9.477 12.826 12.826 0 001.908 6.735h.008zm33.714-.008a5.022 5.022 0 00.462 2.984 5.053 5.053 0 002.091 2.186 5.087 5.087 0 005.758-.587 5.04 5.04 0 001.603-2.562 5.02 5.02 0 00-.154-3.014 5.047 5.047 0 00-1.856-2.387 5.084 5.084 0 00-2.894-.905 5.122 5.122 0 00-3.295 1.228 5.077 5.077 0 00-1.716 3.057zm18.8 0l2.518 8.443h-8.82l-1.747-5.762c-1.163 3.328-5.091 5.786-9.75 5.786-5.612 0-10.102-3.511-10.102-7.836v-.607c.401-4.037 4.755-7.221 10.07-7.221a11.515 11.515 0 017.577 2.657l-2.405-7.98H41.57s1.723-1.068 9.172-3.773c7.448-2.706 9.853 3.718 9.853 3.718l3.752 12.575h-.008zm28.247 0v8.442h-9.092V11.969a2.466 2.466 0 00-.568-1.593 2.496 2.496 0 00-3.137-.583 2.48 2.48 0 00-1.106 1.282v19.422h-8.931V9.47h-5.18s7.216-4.365 9.75-4.365a4.413 4.413 0 013.002 1.209 4.372 4.372 0 011.36 2.925c3.503-1.875 6.974-4.134 9.356-4.134 1.183 0 2.32.46 3.17 1.28a4.514 4.514 0 011.376 3.117v12.552zm14.007 0l1.266 4.166c.021.856.379 1.67.997 2.267a3.294 3.294 0 002.307.924c.886 0 1.737-.35 2.364-.974a3.32 3.32 0 00.979-2.353 3.495 3.495 0 000-.383l-1.075-3.655-3.776-12.846a3.322 3.322 0 00-1.094-2.114 3.353 3.353 0 00-2.233-.847 3.874 3.874 0 00-2.322.988 3.842 3.842 0 00-1.214 2.204l3.825 12.575-.024.048zm14.431 0a13.053 13.053 0 01-6.081 7.32 13.157 13.157 0 01-9.457 1.271 13.1 13.1 0 01-7.815-5.45 12.989 12.989 0 01-2.026-9.281 13.027 13.027 0 014.837-8.187 13.147 13.147 0 0117.719 1.399 13.006 13.006 0 013.481 8.843c0 1.388-.222 2.767-.658 4.085zm15.081 0v8.442h-8.916V9.47h-4.987s7.023-4.365 9.533-4.365a4.411 4.411 0 013.002 1.209 4.377 4.377 0 011.36 2.925c3.503-1.875 6.975-4.134 9.356-4.134 1.184 0 2.321.46 3.17 1.28A4.517 4.517 0 01150 9.503V30.49h-9.092V11.97a2.464 2.464 0 00-.567-1.593 2.489 2.489 0 00-3.137-.583c-.509.285-.9.739-1.106 1.282v10.98h.008z"/></g><defs><clipPath id="clip0"><path fill="#fff" d="M0 0h150v31H0z"/></clipPath></defs></svg>