<svg width="87" height="87" viewBox="0 0 87 87" fill="none" xmlns="http://www.w3.org/2000/svg"><g clip-path="url(#clip0)"><path d="M81.923 38.258a2.751 2.751 0 002.263-1.379l2.506-4.34c.636-1.089.243-2.541-.848-3.164L56.148 12.23a1.274 1.274 0 10-1.274 2.207l29.494 17.03-2.39 4.138a.213.213 0 01-.174.107l-6.708.314a.213.213 0 01-.116-.028L53.934 24.085a4.275 4.275 0 00-3.782-.202l-4.672 2.02a1.71 1.71 0 01-1.527-.088l-16.93-9.774a1.692 1.692 0 01-.793-1.034 1.692 1.692 0 01.17-1.292l5.955-10.313a1.704 1.704 0 012.325-.623l15.071 8.701a1.274 1.274 0 001.275-2.207L35.956.57a4.224 4.224 0 00-3.227-.424 4.224 4.224 0 00-2.581 1.98L24.193 12.44a4.224 4.224 0 00-.424 3.226 4.279 4.279 0 002.166 2.688l-2.34 4.053a4.223 4.223 0 00-.425 3.226 4.224 4.224 0 001.98 2.581l15.35 8.862-1.367 2.369a3.485 3.485 0 00-.351 2.661c.22.821.72 1.518 1.418 1.99l-8.884 17.76a9.78 9.78 0 00-1.831-.175c-4.019 0-7.478 2.44-8.976 5.915h-9.12v-6.734a4.964 4.964 0 00-4.959-4.958H2.468a2.467 2.467 0 00-2.464 2.464v26.167A2.467 2.467 0 002.468 87H6.43a4.964 4.964 0 004.959-4.958v-6.734h9.12c1.498 3.475 4.957 5.915 8.976 5.915 5.387 0 9.77-4.383 9.77-9.77a9.71 9.71 0 00-1.495-5.186l3.708-7.413a1.274 1.274 0 00-2.28-1.14l-3.22 6.438a9.808 9.808 0 00-2.208-1.483l8.645-17.284 2.29 1.322-2.844 5.684a1.274 1.274 0 002.28 1.14l2.837-5.67a3.479 3.479 0 001.75-.017 3.485 3.485 0 002.13-1.635l1.367-2.368 15.349 8.861a4.224 4.224 0 002.119.57 4.32 4.32 0 003.842-2.392l2.368 1.368a3.51 3.51 0 004.791-1.284l3.256-5.64a3.485 3.485 0 00.35-2.661 3.485 3.485 0 00-1.633-2.13l-2.369-1.367.493-.855 1.142-.053zM8.84 82.042a2.413 2.413 0 01-2.41 2.41H2.553V58.453H6.43c1.329 0 2.41 1.08 2.41 2.409v21.179zm10.965-9.283h-8.416v-2.613h8.415c-.057.428-.09.863-.09 1.306 0 .444.033.88.09 1.307zm16.901-1.307c0 3.983-3.24 7.222-7.221 7.222-3.982 0-7.222-3.24-7.222-7.222s3.24-7.221 7.222-7.221 7.221 3.24 7.221 7.221zM48.64 44.935a.967.967 0 01-1.31.35l-5.64-3.255a.966.966 0 01-.35-1.31l1.367-2.368 7.3 4.215-1.367 2.368zm23.314 3.567a.075.075 0 00-.001.005l-.79 1.366a1.705 1.705 0 01-2.325.622L26.425 26.008a1.704 1.704 0 01-.623-2.325l2.34-4.054 14.537 8.393a4.27 4.27 0 003.813.22l4.672-2.02a1.713 1.713 0 011.515.08l21.046 11.914c.453.257.97.38 1.49.355l2.542-.118-.766 1.326-5.037 8.723zm9.428-5.762a.966.966 0 01.35 1.31l-3.255 5.64a.96.96 0 01-1.31.35L74.8 48.674l4.215-7.3 2.368 1.367zm-56.57 28.712a4.678 4.678 0 004.673 4.673 4.678 4.678 0 004.673-4.673 4.678 4.678 0 00-4.673-4.672 4.678 4.678 0 00-4.673 4.672zm6.797 0a2.126 2.126 0 01-2.124 2.124 2.126 2.126 0 01-2.124-2.124c0-1.17.953-2.124 2.124-2.124 1.171 0 2.124.953 2.124 2.124z" fill="#1B75BC"/></g><defs><clipPath id="clip0"><path fill="#fff" d="M0 0h87v87H0z"/></clipPath></defs></svg>