<svg width="150" height="25" viewBox="0 0 150 25" fill="none" xmlns="http://www.w3.org/2000/svg"><g clip-path="url(#clip0)"><path fill-rule="evenodd" clip-rule="evenodd" d="M46.448 5.136c-.444-2.233-2.24-3.362-4.448-3.362-3.767 0-5.365 3.095-5.365 6.384 0 3.605 1.596 6.61 5.387 6.61 2.77 0 4.363-1.944 4.565-4.553h2.105c-.384 3.93-2.844 6.325-6.834 6.325-4.91 0-7.314-3.626-7.314-8.224C34.544 3.72 37.159 0 42.035 0c3.303 0 6.028 1.768 6.516 5.128l-2.103.008zm101.836-2.552h.189c.212 0 .395-.079.395-.272 0-.144-.104-.272-.395-.272a1.214 1.214 0 00-.189 0v.544zm0 .903h-.272V1.855a2.84 2.84 0 01.461-.038.853.853 0 01.507.123.388.388 0 01.15.337.403.403 0 01-.319.394c.142.025.24.155.272.395.014.139.049.274.104.402h-.273a1.251 1.251 0 01-.109-.416.306.306 0 00-.117-.212.3.3 0 00-.235-.06h-.182l.013.707zm.273-2.08a1.205 1.205 0 00-1.17 1.232 1.168 1.168 0 00.705 1.155 1.174 1.174 0 001.641-1.155 1.201 1.201 0 00-1.17-1.238l-.006.005zm0-.23a1.45 1.45 0 011.027.43c.134.135.24.296.312.472.071.177.106.366.104.557a1.443 1.443 0 01-1.447 1.443 1.447 1.447 0 01-1.025-2.473 1.453 1.453 0 011.029-.428zm-2.962 3.56h2.283v1.659h-2.283v7.094c0 .863.246 1.018 1.418 1.018h.865v1.659h-1.44c-1.95 0-2.727-.397-2.727-2.497V6.396h-1.95v-1.66h1.95V1.311h1.884v3.425zm-14.383 0h1.772V6.55h.044c.796-1.415 2.084-2.079 3.723-2.079 3.013 0 3.943 1.725 3.943 4.173v7.52h-1.876V8.432c0-1.39-.886-2.296-2.326-2.296-2.283 0-3.39 1.526-3.39 3.577v6.45h-1.885l-.005-11.428zm-4.255 0h1.885v11.425h-1.888l.003-11.426zm1.885-2.057h-1.888V.384h1.885l.003 2.296zm-9.221 12.091c1.972 0 3.567-1.547 3.567-4.311 0-2.764-1.595-4.331-3.567-4.331-1.972 0-3.568 1.548-3.568 4.33 0 2.784 1.593 4.313 3.568 4.313zm0-10.299c3.635 0 5.563 2.63 5.563 5.985 0 3.354-1.928 5.968-5.563 5.968-3.636 0-5.564-2.63-5.564-5.968s1.928-5.985 5.564-5.985zm-15.573 3.469h4.124c2.372.021 3.458-1.015 3.458-2.895 0-1.88-1.091-2.894-3.458-2.894h-4.124V7.94zM101.945.384h6.938c3.145 0 4.844 1.743 4.844 4.662 0 2.92-1.707 4.685-4.852 4.663h-4.827v6.455h-2.103V.384zm-16.756 0h1.885V9.73l5.23-4.995h2.526L90.272 8.89l4.877 7.272h-2.395l-3.91-5.969-1.773 1.632v4.34h-1.885L85.19.383zm-3.68 8.02c-.288-1.434-1.284-2.275-2.835-2.275-2.728 0-3.57 2.14-3.57 4.461 0 2.1.951 4.179 3.346 4.179 1.816 0 2.902-1.061 3.147-2.786h1.928c-.422 2.786-2.181 4.445-5.053 4.445-3.502 0-5.365-2.432-5.365-5.838s1.773-6.12 5.408-6.12c2.594 0 4.678 1.216 4.942 3.93l-1.947.003zm-11.691.951c-.09-1.787-1.44-3.223-3.303-3.223-1.972 0-3.147 1.482-3.273 3.223h6.576zm1.816 3.183c-.51 2.522-2.326 3.893-4.909 3.893-3.657 0-5.386-2.52-5.495-6.015 0-3.422 2.26-5.944 5.386-5.944 4.056 0 5.297 3.776 5.182 6.53h-8.553c-.065 2.001 1.064 3.77 3.573 3.77 1.552 0 2.637-.751 2.97-2.234h1.846zM50.454.384h1.885v6.033h.044c.619-1.36 2.239-1.945 3.613-1.945 3.014 0 3.944 1.725 3.944 4.173v7.52h-1.882V8.432c0-1.39-.886-2.296-2.326-2.296-2.283 0-3.393 1.526-3.393 3.577v6.45h-1.885V.384zM38.304 21.36c-.076-.71-.545-1.014-1.235-1.014-.545 0-1.115.201-1.115.849 0 .647.796.704 1.598.884.802.18 1.59.46 1.59 1.433 0 1.058-1.04 1.483-1.945 1.483-1.118 0-2.059-.544-2.059-1.755h.628c0 .835.698 1.197 1.45 1.197.6 0 1.263-.188 1.263-.903 0-.715-.794-.8-1.59-.974-.796-.174-1.598-.405-1.598-1.316 0-1.01.9-1.456 1.808-1.456 1.017 0 1.795.479 1.836 1.572h-.63zm110.428 3.515h.772v-.772h-.772v.772zm-3.99-.544h1.091c.452 0 1.674-.125 1.674-1.956 0-1.183-.439-1.904-1.661-1.904h-1.115l.011 3.86zm-.663-4.412h1.71c1.536 0 2.392.767 2.392 2.366 0 1.663-.734 2.604-2.392 2.604h-1.71v-4.97zm-3.139.557h-1.661v-.57h3.985v.557h-1.661v4.412h-.663v-4.399zm-4.724-.557h.663v4.398h2.637v.544h-3.3V19.92zm-3.894 1.452c-.079-.71-.546-1.014-1.236-1.014-.545 0-1.115.2-1.115.848 0 .648.796.705 1.598.885.802.179 1.59.46 1.59 1.433 0 1.058-1.039 1.483-1.947 1.483-1.116 0-2.057-.544-2.057-1.755h.628c0 .835.698 1.197 1.451 1.197.6 0 1.262-.188 1.262-.903 0-.716-.796-.8-1.59-.974-.793-.174-1.595-.405-1.595-1.317 0-1.009.9-1.455 1.805-1.455 1.02 0 1.795.479 1.839 1.572h-.633zm-7.413-1.466h3.439v.558h-2.771v1.572h2.586v.544h-2.586v1.72h2.796v.544h-3.464v-4.938zm-2.043 0h.679v4.97h-.662l-.017-4.97zm-1.862 4.353a1.948 1.948 0 01-1.599.737c-1.486 0-2.372-1.21-2.372-2.506 0-1.447.793-2.698 2.372-2.698 1.091 0 1.953.487 2.141 1.648h-.662c-.134-.75-.739-1.088-1.479-1.088-1.208 0-1.71 1.045-1.71 2.108 0 1.064.6 1.984 1.71 1.984a1.506 1.506 0 001.178-.448 1.49 1.49 0 00.421-1.185h-1.59v-.544h2.181v2.617h-.417l-.174-.625zm-7.187.182c1.214 0 1.724-1.045 1.724-2.046 0-1-.51-2.045-1.724-2.045-1.213 0-1.726 1.041-1.726 2.043 0 1 .515 2.045 1.729 2.045l-.003.003zm0-4.65c1.585 0 2.387 1.252 2.387 2.604s-.802 2.604-2.387 2.604c-1.584 0-2.386-1.252-2.386-2.604s.804-2.606 2.389-2.606l-.003.003zm-6.125.118h.663v4.41H111v.543h-3.3l-.008-4.953zm-3.396 4.53c1.214 0 1.724-1.046 1.724-2.046 0-1.002-.51-2.046-1.724-2.046-1.213 0-1.723 1.044-1.723 2.046 0 1 .518 2.045 1.723 2.045zm0-4.65c1.582 0 2.387 1.251 2.387 2.604 0 1.352-.805 2.603-2.387 2.603-1.581 0-2.386-1.252-2.386-2.604s.805-2.603 2.386-2.603zm-7.415.117h.704l2.623 4.034h.014v-4.034h.627v4.97h-.725l-2.602-3.988v3.988h-.63l-.011-4.97zm-5.296 0h.662v2.13h2.624v-2.13h.663v4.97h-.663v-2.277h-2.624v2.277h-.662v-4.97zm-1.8 1.496c-.14-.702-.704-1.058-1.394-1.058-1.187 0-1.688.974-1.688 2.013 0 1.134.501 2.081 1.693 2.081.873 0 1.364-.612 1.438-1.434h.662c-.125 1.238-.9 1.992-2.154 1.992-1.55 0-2.302-1.14-2.302-2.59s.818-2.617 2.36-2.617c1.038 0 1.908.544 2.05 1.613h-.666zm-8.03-1.496h3.44v.558h-2.777v1.572h2.588v.544h-2.588v1.72h2.798v.544h-3.46v-4.938zm-3.139.558h-1.66v-.558h3.984v.558h-1.66v4.412h-.664v-4.412zm-7.862-.558h3.428v.558h-2.766v1.572h2.588v.544h-2.588v1.72h2.799v.544H70.75l.003-4.938zm-3 2.29c.621 0 1.15-.16 1.15-.884a.784.784 0 00-.536-.814.792.792 0 00-.347-.034h-1.636v1.733h1.369zm-2.043-2.29h2.343c.935 0 1.513.509 1.513 1.303 0 .599-.272 1.088-.864 1.26v.016c.578.111.698.544.744 1.023.047.479 0 1.028.295 1.36H69c-.188-.201-.085-.737-.183-1.224-.098-.487-.188-.898-.818-.898h-1.62v2.122h-.663l-.005-4.962zm-3.927 2.916h1.688l-.818-2.318-.87 2.318zm.496-2.916H63l1.947 4.97h-.733l-.546-1.496H61.56l-.546 1.496h-.681l1.947-4.97zm-3.164 4.97h-.69L57.29 20.7h-.016l-1.151 4.176h-.69l-1.276-4.97h.676l.976 4.135h.014l1.115-4.135h.72l1.091 4.135 1.012-4.135h.663l-1.307 4.97zm-7.876-4.41h-1.66v-.56h3.984v.558h-1.661v4.412h-.663v-4.41zm-5.455-.557h3.273v.557h-2.61v1.57h2.288v.544h-2.288v2.277h-.663v-4.948zm-3.469 4.53c1.214 0 1.724-1.046 1.724-2.046 0-1.002-.507-2.046-1.724-2.046-1.216 0-1.723 1.044-1.723 2.046 0 1 .51 2.045 1.723 2.045zm0-4.65c1.585 0 2.387 1.251 2.387 2.604 0 1.352-.802 2.603-2.387 2.603-1.584 0-2.386-1.252-2.386-2.604s.802-2.603 2.386-2.603z" fill="#000"/><path d="M28.54 0H0v25h28.54V0z" fill="#E79197"/><path fill-rule="evenodd" clip-rule="evenodd" d="M18.545 15.38c-.59.083-1.746.197-2.302.254-.507.052-1.055.076-1.636.109-.51.03-1.04 0-1.58 0a13.053 13.053 0 01-1.636-.063 12.993 12.993 0 01-1.636-.326c-.616-.076-1.091-.188-1.606-.3a8.059 8.059 0 00-1.13-.198c-.053-.08-.1-.163-.139-.25a9.233 9.233 0 01-.567-1.548c-.178-.69-.32-1.388-.425-2.092a2.94 2.94 0 00-.221-.778 4.665 4.665 0 01-.123-1.317c-.025-.544-.052-1.83-.025-2.367.005-.494.075-.986.208-1.463a8.33 8.33 0 01.608-1.537c.15-.41.35-.802.592-1.167.327-.433.406-.612.572-.77a.732.732 0 01.156-.046c.404-.13.769-.174.979-.237.05 0 .273.02.308.02l1.536.04c.452 0 .979.052 1.554.065.516 0 1.072.017 1.636.027.521 0 1.059-.016 1.593 0 .494 0 .985.047 1.462.047s1.015-.02 1.478-.022c.527 0 1.01-.025 1.43-.04.467 0 .934-.024 1.398-.074a6.36 6.36 0 011.222-.153c.07.023.138.053.202.09.237.122.463.263.676.422a19.51 19.51 0 00.022 2.233c.052.482.137 1.026.21 1.586.074.56.104.95.177 1.461.074.511.273 1.249.325 1.662.115.748.147.346.254.971.078.55.127 1.104.15 1.66.026.733-.015 1.467-.123 2.192-.087.544-.316.974-.496 1.05a8.711 8.711 0 01-1.337.289c-.61.098-.562.024-.927.098-.597.116-1.203.186-1.81.21-.61.056-.143.105-.852.203-.044 0-.117.05-.177.06z" fill="#3F3A86"/><path fill-rule="evenodd" clip-rule="evenodd" d="M8.52 2.449c.213-.465.396-.433.843-.463a5.33 5.33 0 011 .115c.22-.006.44.014.655.06.25.058.503.099.759.122.335.052 1.363.272 1.748.315.384.044.733.226 1.115.253.382.028.737.058 1.107.077.371.019.742.03 1.091.038.35.008.756-.068 1.105-.074.35-.005.742-.073 1.055-.095.344-.02.685-.076 1.018-.166.359-.11.739-.129 1.107-.057a.994.994 0 01.818.58c.126.271.05.543.123 1.039.035.236-.076.633-.082 1.118 0 .329 0 .699.016 1.088.017.389.058.734.066 1.115.008.38 0 .745.014 1.113.013.367.03.764.04 1.115 0 .394.022.759.033 1.07.025.636.117.478.057 1.063-.054.544.118.634-.39 1.03-.272.233-.607.38-.962.425-.137 0-.489.123-1.012.253-.29.07-.63.147-1.012.231-.308.071-.663.12-1.023.19-.36.072-.66.099-1.017.156-.357.057-.674.065-1.02.109-.346.043-.668 0-1.009.038-.34.038-.636.057-.96.07-.273 0 0 .088-.136.134-.325.106-.415.068-1.034.057-.31 0-.62 0-1-.024-.33-.02-.7-.05-1.045-.088-.347-.038-.68-.141-1.001-.204a6.558 6.558 0 01-1.02-.182 1.514 1.514 0 01-.791-.525 3.659 3.659 0 01-.172-1.088c-.025-.302 0-.656 0-1.042 0-.32-.063-.664-.052-1.025.011-.362 0-.689.025-1.045.024-.357.032-.68.057-1.026.024-.345.12-.68.15-1.02.03-.34.093-.68.128-1.01.036-.328.027-.671.063-.987.035-.315.128-.674.172-.979.051-.378.016-.726.065-1.006.03-.31.136-.608.308-.868z" fill="#fff"/><path fill-rule="evenodd" clip-rule="evenodd" d="M25.996 21.902a6.168 6.168 0 01-1.72.256c-.366 0-.898.046-1.555.073-.467.02-.952-.062-1.527-.03-.47.027-.974.02-1.5.055-.527.035-1.07.1-1.637.141-.51.04-.799-.022-1.328.025-.53.046-.952-.128-1.497-.077-.494.047-1.348.058-1.841.11-.494.05-1.091.252-1.582.31-.491.056-.933.021-1.424.086-.49.066-1.09.234-1.576.308-.486.073-.993.16-1.448.242-.456.082-.958.139-1.364.234-.406.095-.72.22-1.023.313-.564.18-1.141.317-1.726.41-.94.134-1.364-.06-1.62-.438a3.361 3.361 0 01-.374-1.34 7.76 7.76 0 00-.163-.838c-.145-.773-.273-1.263.19-1.75.342-.327.739-.59 1.173-.778.715-.383.431-.329 1.446-.737.4-.16.894-.335 1.48-.525.453-.147.983-.245 1.553-.397.471-.128.981-.253 1.535-.378.49-.112 1.004-.272 1.563-.373a50.91 50.91 0 011.565-.272c.53-.084 1.091-.147 1.667-.223.515-.068 1.055-.117 1.614-.177.496-.052 1.004-.147 1.533-.193.529-.046 1.227 0 1.775-.03.483-.033.8-.128 1.31-.155.51-.027 1.008-.033 1.532-.052a72.65 72.65 0 011.571-.038c.447 0 .9-.032 1.364-.035.752 0 1.486.04 1.865.272.57.364.505.58.526 1.292.028.816-.049.416.082 1.213.14.86.159 1.61.216 2.359.043.405-.216.743-.655 1.137zM19.909 4.836v-.854h-.87v.854h.87zm-8.37 1.494l3.79.568 3.456-1.131.521-.297.025-.079h.024v-.353h-.537V3.775h1.276v1.27h-.545v.52l-.052.03-.03.02v.013l1.585 1.923.111.136-.174.033-2.182.413-.038-.204 2.02-.38-1.385-1.682-.518 1.673-.199-.06.502-1.632-.32.106L15.623 7.8l.444 1.276L18.584 7.8l.093.185-2.623 1.33-.107.054-.038-.12-.066-.192-1.8-.136.017-.21 1.48.112-.872-.49-.695.394h-.02l-4.09 1.36-.221.074.092-.215 1.424-3.321.191.081-1.34 3.142 3.863-1.295.583-.329-3.07-1.72-.055-.029v-.571h-.521v-1.28h1.276v1.279h-.545v.427zm9.873 3.378v-.854h-.86v.854h.86zm.21-.957v1.167h-1.28V8.645h.486v-.357h.21v.351h.584v.112zm-5.002 2.06v-.855h-.857v.854h.857zm.21-.958v1.164h-1.285v-1.27h.491v-.202h.207v.202h.579l.008.106zm-2.567.674v-.854h-.859v.854h.86zm.21-.957v1.167h-1.279v-1.27h.524v-.2h.21v.2h.545v.103zm-5.01 2.347l.39-.764-.766-.389-.39.762.766.391zm.628-.764l-.437.854-.095.185-.093-.046-.952-.482-.092-.046.049-.092.485-.947.05-.093.092.047.363.182.128-.229.183.101-.126.226.404.204.092.046-.051.09zm1.786-5.462v-.852h-.859v.854l.86-.002zm6 .595l-2.493.816h-.049L12 6.61l2.662 1.493.706-.4-.06-.174.196-.068.05.136 2.323-1.31zm-3 1.934l.835.485-.273-.79-.562.305z" fill="#3F3A86"/><path d="M19.418 6.333a.498.498 0 10.002-.997.498.498 0 00-.002.997zm-5.561 2.993a.523.523 0 10.001-1.046.523.523 0 00-.001 1.046zm1.536-1.682c.276 0 .5-.221.5-.495a.497.497 0 00-.5-.495.497.497 0 00-.499.495c0 .274.223.495.5.495z" fill="#DF3F54"/><path d="M9.875 10.655c.276 0 .5-.221.5-.495a.497.497 0 00-.5-.495.498.498 0 00-.499.495c0 .274.224.495.5.495z" fill="#E5889D"/><path d="M18.774 8.411c.276 0 .5-.222.5-.495a.497.497 0 00-.5-.495c-.275 0-.499.222-.499.495s.224.495.5.495z" fill="#E6879C"/><path d="M11.416 7.07a.498.498 0 10.002-.997.498.498 0 00-.002.997zm9.467 1.3a.498.498 0 10.001-.996.498.498 0 00-.001.997zm-4.715 1.238a.498.498 0 10.001-.997.498.498 0 00-.001.997z" fill="#F0E525"/><path fill-rule="evenodd" clip-rule="evenodd" d="M5.275 20.601a.483.483 0 00.455-.31.478.478 0 00.03-.19.521.521 0 00-.485-.544.501.501 0 00-.45.544.453.453 0 00.45.5zm2.907 1.447a.487.487 0 00.499-.5.458.458 0 00-.5-.444.448.448 0 00-.477.444c-.005.655.352.487.478.5zm-1.637.346a.53.53 0 00.505-.517.495.495 0 00-.685-.442.454.454 0 00-.273.442.483.483 0 00.453.517zm6.399-2.068a.53.53 0 00.507-.517.465.465 0 00-.322-.421.47.47 0 00-.185-.022c-.273 0-.597.109-.48.457.082.256.21.503.48.503zm-2.771.586a.453.453 0 00.318-.772.436.436 0 00-.318-.123.408.408 0 00-.388.272.404.404 0 00-.021.166.421.421 0 00.409.457zm-1.307-.363c.273.057.47-.226.47-.495a.475.475 0 00-.47-.492.49.49 0 00-.48.492c0 .267-.008.386.48.495zm2.9-1.749c.273 0 .48-.07.48-.337a.503.503 0 00-.518-.468.491.491 0 00-.51.468c-.008.267.278.338.548.338zm1.377-.712a.502.502 0 00.513-.479.51.51 0 00-.51-.459.513.513 0 00-.51.46.498.498 0 00.507.478z" fill="#fff"/><path fill-rule="evenodd" clip-rule="evenodd" d="M4.86 22.427a.35.35 0 00.353-.362.378.378 0 00-.352-.397.361.361 0 00-.325.397.326.326 0 00.325.362zm4.2-3.847a.382.382 0 00.365-.372.359.359 0 00-.365-.349.33.33 0 00-.314.216.326.326 0 00-.019.133.35.35 0 00.333.372zm-1.65 1.67c.197 0 .347-.049.347-.245a.364.364 0 00-.393-.337.356.356 0 00-.368.34c.01.193.218.242.414.242zm4.29.857a.363.363 0 00.37-.345.369.369 0 00-.367-.326.371.371 0 00-.368.326.359.359 0 00.365.345zm6.97.175a.707.707 0 00.694-.7.712.712 0 00-.704-.69.655.655 0 00-.627.696.66.66 0 00.638.694zm-.809-2.335a.737.737 0 00.717-.704.7.7 0 00-.717-.667.654.654 0 00-.655.667.682.682 0 00.655.704zm4.012.183a.645.645 0 00.47-1.106.63.63 0 00-.47-.17.594.594 0 00-.621.628.606.606 0 00.622.648zm-1.418 1.314a.72.72 0 00.676-.724.62.62 0 00-.424-.581.626.626 0 00-.252-.03.686.686 0 00-.742.611.775.775 0 00.742.724z" fill="#F0E525"/></g><defs><clipPath id="clip0"><path fill="#fff" d="M0 0h150v25H0z"/></clipPath></defs></svg>