<svg width="150" height="79" viewBox="0 0 150 79" fill="none" xmlns="http://www.w3.org/2000/svg"><path d="M57.902 72.29l-.025 5.975.437.075c1.373.256 2.76.433 4.152.532a25.12 25.12 0 003.67.073 15.385 15.385 0 003.444-.65 9.535 9.535 0 003.572-1.902 7.212 7.212 0 002.081-2.98 8.187 8.187 0 00-.042-5.996 6.726 6.726 0 00-1.866-2.582 7.737 7.737 0 00-2.736-1.592l-4.512-1.665a2.418 2.418 0 01-1.233-1.173 1.533 1.533 0 01.05-1.367 1.79 1.79 0 01.3-.405 2.44 2.44 0 01.461-.366c.067-.041.135-.08.206-.117a4.787 4.787 0 011.61-.457 9.398 9.398 0 012.879.03c1.123.122 2.237.321 3.333.596l.233.053v-5.525l-.43-.092a29.38 29.38 0 00-3.392-.61 17.451 17.451 0 00-4.461-.02 9.655 9.655 0 00-5.139 2.064 6.807 6.807 0 00-2.194 3.02 8.287 8.287 0 000 5.618 6.298 6.298 0 001.577 2.377 9.036 9.036 0 002.042 1.478 14.08 14.08 0 003.106 1.218c.355.107.71.22 1.064.338l.533.197.153.061a3.996 3.996 0 011.414.871 2.5 2.5 0 01.633.946c.082.33.082.674 0 1.004a2.13 2.13 0 01-1.033 1.237 5.12 5.12 0 01-1.723.538 12.52 12.52 0 01-2.666.133 30.537 30.537 0 01-3.48-.463c-.603-.122-1.2-.262-1.795-.419l-.223-.055M33.37 78.046v-6.934l-.137.058a12.868 12.868 0 01-5 1.27 7.374 7.374 0 01-5.041-1.483 6.44 6.44 0 01-2.195-3.112 7.478 7.478 0 01-.147-4.161 6.378 6.378 0 012.222-3.559 6.702 6.702 0 013.511-1.511c2.285-.253 4.593.18 6.63 1.242l.15.078v-6.979l-.316-.086a17.784 17.784 0 00-6.322-.832c-1.95.05-3.87.489-5.647 1.29a12.9 12.9 0 00-4.623 3.567 13.875 13.875 0 00-.252 16.892 13.26 13.26 0 007.35 4.715 17.24 17.24 0 009.3-.325l.51-.138m15.631.468v-26.02h-6.57v26.02h6.57zm97.243-3.022v-.394h-2.781v.394h1.156v3.023h.466v-3.023h1.159zm.268 3.023h.445v-2.73h.058l1 2.73h.445l1.08-2.86v2.86H150V75.09h-.722l-1.014 2.815-1.025-2.815h-.734v3.417z" fill="#C82027"/><path d="M0 31.576a3.252 3.252 0 003.249 3.002 3.26 3.26 0 003.248-3.002v-7.212a3.246 3.246 0 00-1.008-2.189 3.256 3.256 0 00-4.482.002A3.246 3.246 0 000 24.367v7.212m17.986-.003c.063.817.433 1.58 1.035 2.136a3.26 3.26 0 005.462-2.136V15.41a3.246 3.246 0 00-3.249-3.084c-.834 0-1.636.32-2.24.894a3.246 3.246 0 00-1.008 2.19v16.165zm17.892 6.513c.063.817.433 1.58 1.035 2.136a3.261 3.261 0 005.462-2.136V3.12A3.246 3.246 0 0041.368.93a3.255 3.255 0 00-5.49 2.19v34.968zm17.983-6.513a3.26 3.26 0 006.497 0V15.41a3.246 3.246 0 00-1.007-2.19 3.256 3.256 0 00-5.49 2.19v16.165zm17.906 0a3.252 3.252 0 003.248 3.003c.82 0 1.611-.31 2.213-.866a3.252 3.252 0 001.036-2.137v-7.211a3.255 3.255 0 00-6.497 0v7.211zm17.969 0c.063.817.433 1.58 1.035 2.136a3.261 3.261 0 005.462-2.136V15.41a3.246 3.246 0 00-1.008-2.19 3.255 3.255 0 00-5.49 2.19v16.165zm17.898 6.513a3.25 3.25 0 001.035 2.136 3.261 3.261 0 005.462-2.136V3.12a3.254 3.254 0 00-6.497 0v34.968zm17.955-6.513a3.26 3.26 0 006.498 0V15.41a3.248 3.248 0 00-3.249-3.084 3.254 3.254 0 00-3.249 3.084v16.165zm17.913 0a3.257 3.257 0 003.249 3.003A3.26 3.26 0 00150 31.576v-7.211a3.248 3.248 0 00-3.249-3.084 3.256 3.256 0 00-3.249 3.084v7.212z" fill="#12393D"/><path d="M102.019 78.046v-6.934l-.136.058a12.864 12.864 0 01-5 1.27 7.374 7.374 0 01-5.039-1.483 6.44 6.44 0 01-2.194-3.112 7.478 7.478 0 01-.147-4.161 6.378 6.378 0 012.222-3.559 6.702 6.702 0 013.511-1.511c2.286-.253 4.595.18 6.633 1.242l.15.078v-6.979l-.316-.086a17.786 17.786 0 00-6.323-.832 14.63 14.63 0 00-5.658 1.296A12.909 12.909 0 0085.1 56.9a13.875 13.875 0 00-.253 16.891 13.26 13.26 0 007.35 4.716c3.071.746 6.289.633 9.3-.325l.511-.139m6.933-12.536a13.687 13.687 0 005.207 10.527 13.728 13.728 0 0011.46 2.628 13.378 13.378 0 007.022-3.726A13.343 13.343 0 00130 54.088a13.813 13.813 0 00-19.049 4.553 13.764 13.764 0 00-2.007 6.88l-.003-.014zm9.542-5.323a6.859 6.859 0 018.694.115 6.838 6.838 0 01-1.879 11.588 6.861 6.861 0 01-8.286-2.631 6.832 6.832 0 011.471-9.072z" fill="#C82027"/></svg>