<svg width="150" height="59" viewBox="0 0 150 59" fill="none" xmlns="http://www.w3.org/2000/svg"><g clip-path="url(#clip0)" fill="#000"><path d="M146.277 14.018a3.725 3.725 0 013.635 4.462 3.717 3.717 0 01-2.936 2.914 3.727 3.727 0 01-3.816-1.597 3.719 3.719 0 01.48-4.699 3.717 3.717 0 012.637-1.08zm3.232 3.708a3.233 3.233 0 10-5.028 2.687 3.231 3.231 0 001.796.545 3.244 3.244 0 003.232-3.232z"/><path d="M147.954 19.771h-.654a1.874 1.874 0 010-.518c0-.872-.273-1.104-1.023-1.104h-.723v1.622h-.655v-4.09h1.364c.873 0 1.759.19 1.759 1.186 0 .695-.531.927-1.009.995a1.09 1.09 0 01.928 1.228c-.034.226-.03.456.013.681zm-.723-2.904c0-.477-.395-.695-1.036-.695h-.723v1.554h.723c.668 0 1.036-.327 1.036-.86zM130.66 28.266l10.693 16.594h-11.061l-5.128-9.054-6.492 9.054h-11.171l12.316-16.635-9.438-14.099h11.28l3.641 6.518 4.215-6.518h11.32l-10.175 14.14zM101.296 47.45a5.769 5.769 0 11-.109 11.538 5.769 5.769 0 01.109-11.538zM85.243 32.616l9.397 12.272H83.02l-5.865-9.177v9.15h-9.22V14.127H80.02a11.569 11.569 0 018.402 2.917 9.312 9.312 0 012.564 6.818 8.725 8.725 0 01-5.742 8.754zm-2.51-8.181a3.189 3.189 0 00-.818-2.36c-1.091-1.09-3.191-1.24-4.76-1.254v7.24c3.942-.095 5.578-1.145 5.578-3.68v.054zM65.44 14.126v8.031h-7.01V44.86h-9.18V22.157h-7.01v-8.031h23.2zm-25.682 0V44.86h-9.22V14.126h9.22zM35.148 0a5.784 5.784 0 015.67 6.914 5.78 5.78 0 01-4.55 4.54 5.784 5.784 0 01-6.903-5.686A5.78 5.78 0 0135.148 0zm-7.42 18.366l-4.855 7.84a8.046 8.046 0 00-6.82-3.722 6.822 6.822 0 00-6.71 7.023 6.816 6.816 0 006.71 7.008 8.047 8.047 0 006.82-3.722l4.855 7.854A16.122 16.122 0 01-.043 29.507a16.114 16.114 0 0110.118-14.958 16.125 16.125 0 0117.653 3.817zm78.178-4.24V44.86h-9.22V14.126h9.22z"/></g><defs><clipPath id="clip0"><path fill="#fff" d="M0 0h150v59H0z"/></clipPath></defs></svg>