<svg width="107" height="107" viewBox="0 0 107 107" fill="none" xmlns="http://www.w3.org/2000/svg"><g clip-path="url(#clip0)" fill="#fff"><path d="M101.449 0h-24.87a5.33 5.33 0 00-5.33 5.33v72.834a5.33 5.33 0 005.33 5.33h24.87a5.33 5.33 0 005.329-5.33V5.33A5.33 5.33 0 00101.449 0zm1.776 78.164c0 .981-.795 1.777-1.776 1.777h-24.87a1.777 1.777 0 01-1.777-1.777V5.33c0-.98.795-1.776 1.776-1.776h24.871c.981 0 1.776.795 1.776 1.776v72.835zm-55.07-5.329h-7.106v-7.106h21.318a5.33 5.33 0 005.33-5.33V24.87a5.33 5.33 0 00-5.33-5.329h-3.553a1.777 1.777 0 000 3.553h3.553c.98 0 1.776.795 1.776 1.776V60.4c0 .98-.795 1.776-1.776 1.776H5.52A1.777 1.777 0 013.743 60.4V24.87c0-.98.796-1.776 1.777-1.776h3.553a1.777 1.777 0 000-3.553H5.52a5.33 5.33 0 00-5.33 5.33V60.4a5.33 5.33 0 005.33 5.33h21.317v7.105h-7.105a5.33 5.33 0 100 10.659h28.423a5.33 5.33 0 000-10.66zM30.39 65.729h7.106v7.106H30.39v-7.106zm17.765 14.212H19.731a1.777 1.777 0 010-3.553h28.424a1.777 1.777 0 010 3.553z"/><path d="M97.896 8.883H80.131a1.777 1.777 0 000 3.553h17.765a1.777 1.777 0 000-3.553zm0 7.105H80.131a1.777 1.777 0 000 3.553h17.765a1.777 1.777 0 000-3.553zm0 7.106H80.131a1.777 1.777 0 000 3.553h17.765a1.777 1.777 0 000-3.553zm-12.436 5.33h-3.552a1.777 1.777 0 000 3.553h3.553a1.777 1.777 0 000-3.553zm10.66 3.553a1.777 1.777 0 000-3.553h-3.553a1.777 1.777 0 000 3.553h3.553zM81.908 42.635a7.106 7.106 0 1014.211 0 7.106 7.106 0 00-14.211 0zm10.659 0a3.542 3.542 0 01-1.777 3.06v-3.06a1.777 1.777 0 00-3.553 0v3.06a3.553 3.553 0 115.33-3.06zm5.329 10.658H80.131c-.98 0-1.776.795-1.776 1.776v7.106c0 .981.795 1.777 1.776 1.777h17.765c.981 0 1.776-.796 1.776-1.777V55.07c0-.98-.795-1.776-1.776-1.776zm-1.776 7.106H81.908v-3.553H96.12v3.553zm1.776 5.329H80.131c-.98 0-1.776.796-1.776 1.777v7.106c0 .98.795 1.776 1.776 1.776h17.765c.981 0 1.776-.795 1.776-1.776v-7.106c0-.981-.795-1.776-1.776-1.776zm-1.776 7.106H81.908v-3.553H96.12v3.553zM48.584 85.323l-3.658-.912a16.003 16.003 0 00-7.755 0l-3.228.806-3.228-.806a16.003 16.003 0 00-7.756 0l-3.658.912a1.777 1.777 0 00-1.346 1.724v17.764a1.775 1.775 0 002.206 1.724l3.66-.915a12.493 12.493 0 016.04 0l3.659.915h.039c.013 0 .049 0 .073.008.102.025.206.039.311.045a1.93 1.93 0 00.31-.052h.12l3.66-.915a12.518 12.518 0 016.04 0l3.659.915a1.779 1.779 0 002.2-1.725V87.046a1.78 1.78 0 00-1.348-1.723zM22.96 102.175l-1.451.355V88.433l2.31-.578a12.502 12.502 0 016.039 0l2.31.578v14.105l-1.452-.356a16 16 0 00-7.756-.007zm23.42.363l-1.453-.356a16 16 0 00-7.755 0l-1.451.356V88.433l2.309-.578a12.502 12.502 0 016.04 0l2.31.578v14.105zm25.693-11.463a5.331 5.331 0 00-7.284-1.954l-3.076 1.776a5.332 5.332 0 00-1.955 7.284l3.553 6.153a5.29 5.29 0 004.625 2.665 5.293 5.293 0 002.656-.71l3.076-1.777a5.331 5.331 0 001.955-7.284l-3.55-6.153zm.654 9.279c-.12.455-.419.844-.828 1.078l-3.079 1.776a1.775 1.775 0 01-2.423-.65l-3.553-6.155c-.49-.85-.2-1.935.649-2.426l1.776 3.077a1.776 1.776 0 003.077-1.776l-1.777-3.075a1.783 1.783 0 011.352-.177c.456.118.845.418 1.077.827l3.553 6.155c.236.407.3.891.176 1.346zm-60.8-74.531l7.106 12.307c.237.407.625.705 1.08.828.456.117.939.054 1.348-.178l3.6-2.078v4.157c0 .98.795 1.776 1.776 1.776H41.05c.981 0 1.776-.795 1.776-1.776v-4.157l3.6 2.078a1.81 1.81 0 001.347.178c.456-.123.843-.42 1.08-.828l7.106-12.307a1.776 1.776 0 00-.651-2.427l-3.6-2.078 3.6-2.079a1.776 1.776 0 00.651-2.427L48.852 4.505a1.772 1.772 0 00-2.428-.65l-3.599 2.078V1.776C42.825.796 42.03 0 41.05 0H26.837c-.98 0-1.776.795-1.776 1.776v4.157l-3.6-2.078a1.775 1.775 0 00-2.428.65l-7.106 12.307c-.49.85-.198 1.937.652 2.427l3.6 2.079-3.6 2.078a1.777 1.777 0 00-.652 2.427zm8.693-2.967a1.777 1.777 0 000-3.077l-4.726-2.725 5.33-9.238 4.725 2.733a1.776 1.776 0 002.665-1.54V3.554h10.659V9.01a1.776 1.776 0 002.664 1.539l4.725-2.733 5.33 9.238-4.725 2.725a1.776 1.776 0 000 3.077l4.724 2.725-5.329 9.238-4.725-2.733a1.776 1.776 0 00-2.664 1.54v5.456h-10.66v-5.457a1.778 1.778 0 00-2.664-1.538l-4.726 2.732-5.329-9.238 4.726-2.725z"/><path d="M33.943 30.2a8.883 8.883 0 10-8.882-8.882 8.892 8.892 0 008.882 8.882zm0-14.211a5.33 5.33 0 110 10.659 5.33 5.33 0 010-10.66zm-7.106 31.976h-3.553a1.777 1.777 0 000 3.553h3.553a1.777 1.777 0 000-3.553zm19.542 0H32.167a1.777 1.777 0 000 3.553H46.38a1.777 1.777 0 000-3.553zM26.837 55.07h-3.553a1.777 1.777 0 000 3.553h3.553a1.777 1.777 0 000-3.553zm19.542 0H32.167a1.777 1.777 0 000 3.553H46.38a1.777 1.777 0 000-3.553z"/></g><defs><clipPath id="clip0"><path fill="#fff" d="M0 0h107v107H0z"/></clipPath></defs></svg>