<svg width="98" height="97" viewBox="0 0 98 97" fill="none" xmlns="http://www.w3.org/2000/svg"><path d="M93.368 32.659L67.618 48.03a4.513 4.513 0 00-1.896 5.474 4.807 4.807 0 01-3.61.05l-3.33-1.311a6.738 6.738 0 00-4.149-.263l-5.103 1.294c-.198.05-.392.108-.582.175-3.118-1.783-4.975-2.316-8.266-1.042l-2.954 1.144a4.82 4.82 0 01-4.225-.354l-.987-.582a4.512 4.512 0 00-2.134-4.585L4.632 32.659C2.59 31.44 0 32.91 0 35.294v28.788a5.7 5.7 0 002.764 4.873l11.243 6.712a4.487 4.487 0 006.081-1.435l.48.284-1.457 2.034a5.061 5.061 0 001.157 7.06 5.013 5.013 0 003.826.872 5.028 5.028 0 002.049 3.352 5.03 5.03 0 003.828.87 5.045 5.045 0 002.046 3.354 5.042 5.042 0 005.032.5 5.052 5.052 0 008.678 1.452l3.777 2.24a5.054 5.054 0 007.608-3.907l.147.088a5.011 5.011 0 003.828.549 5.02 5.02 0 003.094-2.323 5.04 5.04 0 00.701-2.325 5.016 5.016 0 002.603.024 5.02 5.02 0 003.094-2.323c.4-.677.634-1.42.693-2.182a5.056 5.056 0 006.313-2.082 5.075 5.075 0 00-.56-5.928l1.48-.866a4.488 4.488 0 005.489.692l2.717-1.623c.682-.407.905-1.29.499-1.971a1.434 1.434 0 00-1.968-.5l-2.718 1.624a1.62 1.62 0 01-1.924-.195c-.01-.08-12.077-20.278-12.077-20.278a1.629 1.629 0 01.565-2.223l25.75-15.373a.191.191 0 01.29.166v28.788c0 .98-.521 1.9-1.362 2.403l-2.714 1.62a1.439 1.439 0 00-.498 1.97 1.435 1.435 0 001.968.5l2.714-1.62A5.7 5.7 0 0098 64.082V35.294c0-2.38-2.588-3.856-4.632-2.635zm-38.03 22.11a3.893 3.893 0 012.394.151l3.338 1.314a7.66 7.66 0 006.067-.211l9.788 16.547-1.586.928a7.7 7.7 0 00-.828.567L53.577 61.65a1.434 1.434 0 00-2.167 1.237v.29a3.805 3.805 0 01-1.12 2.706 3.793 3.793 0 01-2.701 1.12.32.32 0 01-.312-.312v-6.823c0-1.487.83-2.814 2.102-3.479.064-.025.125-.055.184-.09.213-.097.438-.177.67-.236l5.105-1.293zm-38.63 18.607a1.61 1.61 0 01-1.231-.18l-11.243-6.71a2.81 2.81 0 01-1.363-2.403V35.294c0-.03 0-.112.098-.167a.195.195 0 01.097-.028c.046 0 .08.02.096.03L28.912 50.5a1.629 1.629 0 01.565 2.223L17.702 72.629a1.611 1.611 0 01-.995.747zm6.86 8.28a2.163 2.163 0 01-1.625-.382 2.17 2.17 0 01-.88-1.42 2.171 2.171 0 01.38-1.627l2.048-2.857c.05-.07.104-.136.16-.197.042-.039.083-.08.121-.124a2.181 2.181 0 012.762-.18 2.19 2.19 0 01.5 3.048l-.004.005-2.045 2.852c-.34.474-.843.787-1.418.881zm4.25 3.842a2.17 2.17 0 01-.88-1.42 2.171 2.171 0 01.38-1.627l2.047-2.857 2.26-3.153a2.165 2.165 0 011.776-.911c.453 0 .893.14 1.267.41a2.188 2.188 0 01.5 3.047l-4.308 6.01a2.181 2.181 0 01-3.043.5zm7.498 4.605a2.164 2.164 0 01-1.625-.381 2.188 2.188 0 01-.5-3.047l.004-.005 4.306-6.006a2.18 2.18 0 113.542 2.546l-4.309 6.011c-.34.474-.843.787-1.418.882zm5.211 2.501a2.17 2.17 0 01-.88-1.42 2.17 2.17 0 01.385-1.633l1.43-1.995a2.18 2.18 0 113.54 2.55l-.82 1.142a1.127 1.127 0 00-.024.036l-.589.82a2.18 2.18 0 01-3.042.5zm34.588-12.3a2.182 2.182 0 01-2.989.765L68.808 79.1l-.005-.002-10.278-6.099a1.434 1.434 0 00-1.967.504 1.439 1.439 0 00.503 1.97l10.283 6.101.002.001a2.19 2.19 0 01.763 2.992 2.167 2.167 0 01-1.335 1.003 2.164 2.164 0 01-1.653-.237l-2.705-1.605-.007-.004-.004-.002-7.572-4.493a1.434 1.434 0 00-1.967.504 1.439 1.439 0 00.503 1.97l7.573 4.492.004.003c.501.298.857.773 1.001 1.338.145.565.06 1.153-.236 1.655a2.166 2.166 0 01-1.336 1.003 2.164 2.164 0 01-1.653-.237l-4.06-2.409-.007-.005-2.97-1.761a1.434 1.434 0 00-1.966.504 1.439 1.439 0 00.503 1.97l2.97 1.762.003.002a2.183 2.183 0 01-2.227 3.757l-3.553-2.109a5.07 5.07 0 00-1.237-6.946 5.016 5.016 0 00-2.218-.895c.343-.85.449-1.781.297-2.71a5.027 5.027 0 00-2.04-3.29 5.032 5.032 0 00-3.827-.868 5.045 5.045 0 00-2.047-3.355 5.013 5.013 0 00-3.764-.882 5.01 5.01 0 00-2.866 1.53 5.03 5.03 0 00-1.504-1.718 5.053 5.053 0 00-5.637-.172l-1.018-.602 9.768-16.512.72.426a7.684 7.684 0 003.93 1.085c.94 0 1.886-.174 2.792-.525l2.954-1.144c1.766-.683 2.714-.715 4.497.153a6.796 6.796 0 00-1.809 4.623v6.824a3.188 3.188 0 003.179 3.188h.004a6.644 6.644 0 004.731-1.962 6.675 6.675 0 001.646-2.695l19.995 11.86c.066.039.134.072.204.1.057.047.119.09.185.13a2.189 2.189 0 01.765 2.992z" fill="#fff"/><path d="M32.544 37.507h32.911c2.98 0 5.404-2.428 5.404-5.413V12.483c0-2.984-2.424-5.412-5.404-5.412h-7.922V4.793a4.75 4.75 0 00-4.74-4.75h-7.586a4.75 4.75 0 00-4.74 4.75V7.07h-7.923c-2.98 0-5.404 2.428-5.404 5.412v10.803a1.437 1.437 0 102.87 0v-2.672a8.585 8.585 0 005.756 2.21h1.124v1.581a1.437 1.437 0 102.87 0v-1.581h18.478v1.581a1.437 1.437 0 102.87 0v-1.581h1.124c2.21 0 4.228-.837 5.756-2.21v11.48a2.538 2.538 0 01-2.533 2.537H32.544a2.538 2.538 0 01-2.533-2.537v-2.086a1.437 1.437 0 10-2.871 0v2.086c0 2.985 2.424 5.413 5.404 5.413zM43.338 4.793c0-1.033.838-1.874 1.87-1.874h7.584c1.031 0 1.87.84 1.87 1.874V7.07H43.338V4.793zm18.895 15.155H61.11v-1.581a1.437 1.437 0 10-2.872 0v1.581H39.761v-1.581a1.437 1.437 0 10-2.87 0v1.581h-1.124c-3.174 0-5.756-2.586-5.756-5.764v-1.701a2.538 2.538 0 012.533-2.537h32.912a2.538 2.538 0 012.532 2.537v1.7c0 3.18-2.582 5.765-5.755 5.765z" fill="#fff"/></svg>