<svg width="81" height="72" viewBox="0 0 81 72" fill="none" xmlns="http://www.w3.org/2000/svg"><path d="M53.693 2.403h-3.425a1.161 1.161 0 010-2.317h3.425c.306 0 .6.122.816.34a1.161 1.161 0 01-.816 1.977z" fill="#1B75BC"/><path d="M76.685 25.573H4.313a4.17 4.17 0 01-2.95-1.23A4.208 4.208 0 01.139 21.38V4.28a4.208 4.208 0 011.224-2.964 4.17 4.17 0 012.95-1.23h26.453a1.161 1.161 0 010 2.317H4.313c-.495 0-.97.199-1.32.55-.35.352-.547.83-.548 1.327v17.1c0 .497.198.974.548 1.326.35.352.825.55 1.32.55h72.372c.495 0 .97-.198 1.32-.55.35-.352.547-.829.548-1.326V4.28c0-.498-.197-.975-.548-1.327a1.866 1.866 0 00-1.32-.55H61.763a1.161 1.161 0 010-2.317h14.922a4.17 4.17 0 012.95 1.23A4.208 4.208 0 0180.86 4.28v17.1a4.208 4.208 0 01-1.224 2.964 4.17 4.17 0 01-2.95 1.23z" fill="#1B75BC"/><path d="M42.196 2.403h-3.355a1.161 1.161 0 010-2.317h3.355a1.161 1.161 0 010 2.317zm25.726 16.304a5.83 5.83 0 01-3.25-.99 5.87 5.87 0 01-2.154-2.638 5.903 5.903 0 011.268-6.404A5.825 5.825 0 0170.16 7.4a5.856 5.856 0 012.625 2.164 5.897 5.897 0 01-.73 7.419 5.843 5.843 0 01-4.134 1.723zm0-9.437c-.7 0-1.386.209-1.968.6a3.556 3.556 0 00-1.306 1.598 3.575 3.575 0 00.769 3.88 3.539 3.539 0 003.861.771 3.547 3.547 0 001.59-1.31 3.572 3.572 0 00-.441-4.495 3.54 3.54 0 00-2.505-1.044zm-16.254 9.437a5.83 5.83 0 01-3.25-.99 5.87 5.87 0 01-2.154-2.638 5.902 5.902 0 011.268-6.404A5.825 5.825 0 0153.907 7.4a5.856 5.856 0 012.625 2.164 5.897 5.897 0 01-.73 7.419 5.843 5.843 0 01-4.134 1.723zm0-9.437c-.7 0-1.386.209-1.968.6a3.556 3.556 0 00-1.306 1.598 3.575 3.575 0 00.769 3.88 3.539 3.539 0 003.861.771 3.547 3.547 0 001.59-1.31 3.572 3.572 0 00-.441-4.495 3.54 3.54 0 00-2.505-1.044zm-12.153 4.718H8.38a1.161 1.161 0 010-2.317h31.135a1.161 1.161 0 010 2.317zM76.68 55.694H4.318a4.175 4.175 0 01-2.955-1.231A4.214 4.214 0 01.14 51.495V34.407a4.214 4.214 0 011.225-2.969 4.175 4.175 0 012.955-1.231h72.36a4.175 4.175 0 012.955 1.231 4.214 4.214 0 011.225 2.969v17.088a4.214 4.214 0 01-1.225 2.968 4.175 4.175 0 01-2.955 1.231zM4.318 32.524c-.497 0-.973.2-1.325.552a1.89 1.89 0 00-.549 1.33v17.089a1.883 1.883 0 001.874 1.882h72.36c.497 0 .973-.199 1.325-.552a1.89 1.89 0 00.55-1.33V34.407c-.002-.5-.2-.978-.55-1.33a1.872 1.872 0 00-1.325-.553H4.32z" fill="#1B75BC"/><path d="M67.922 48.828a5.83 5.83 0 01-3.25-.99 5.87 5.87 0 01-2.154-2.638 5.903 5.903 0 011.268-6.404 5.826 5.826 0 016.375-1.274 5.856 5.856 0 012.625 2.164 5.897 5.897 0 01-.73 7.42 5.843 5.843 0 01-4.134 1.722zm0-9.437c-.7 0-1.386.21-1.968.6a3.575 3.575 0 00-.537 5.478 3.539 3.539 0 003.861.771 3.547 3.547 0 001.59-1.31 3.572 3.572 0 00-.441-4.495 3.54 3.54 0 00-2.505-1.044zm-16.254 9.437a5.83 5.83 0 01-3.25-.99 5.87 5.87 0 01-2.154-2.638 5.902 5.902 0 011.268-6.404 5.826 5.826 0 016.375-1.274 5.856 5.856 0 012.625 2.164 5.897 5.897 0 01-.73 7.42 5.843 5.843 0 01-4.134 1.722zm0-9.437c-.7 0-1.386.21-1.968.6a3.575 3.575 0 00-.537 5.478 3.539 3.539 0 003.861.771 3.547 3.547 0 001.59-1.31 3.572 3.572 0 00-.441-4.495 3.54 3.54 0 00-2.505-1.044zM39.515 44.11H8.38c-.306 0-.6-.122-.816-.34a1.161 1.161 0 010-1.638c.217-.217.51-.339.816-.339h31.135a1.161 1.161 0 010 2.317zm.984-11.585a1.16 1.16 0 01-1.153-1.159v-6.95c0-.308.121-.603.338-.82a1.15 1.15 0 011.63 0c.217.217.338.512.338.82v6.95c0 .308-.121.602-.338.82a1.15 1.15 0 01-.815.339zm0 31.816a1.161 1.161 0 01-1.153-1.158v-8.647c0-.307.121-.602.338-.819a1.15 1.15 0 011.63 0c.217.218.338.512.338.82v8.645c0 .308-.121.602-.338.82a1.15 1.15 0 01-.815.339z" fill="#1B75BC"/><path d="M46.158 71.914H34.425c-.306 0-.6-.122-.816-.339a1.161 1.161 0 01-.337-.82v-7.577a1.15 1.15 0 011.153-1.158h11.733a1.158 1.158 0 011.153 1.158v7.578c0 .307-.121.602-.338.82a1.15 1.15 0 01-.815.338zm-10.58-2.317h9.427v-5.26h-9.427v5.26z" fill="#1B75BC"/><path d="M34.428 68.125H18.235a1.16 1.16 0 010-2.317h16.193c.306 0 .599.122.815.339a1.162 1.162 0 010 1.638 1.15 1.15 0 01-.815.34zm28.338 0H46.573a1.16 1.16 0 010-2.317h16.193c.306 0 .599.122.815.339a1.161 1.161 0 01-.815 1.978z" fill="#1B75BC"/></svg>