<svg width="150" height="47" viewBox="0 0 150 47" fill="none" xmlns="http://www.w3.org/2000/svg"><path fill-rule="evenodd" clip-rule="evenodd" d="M0 2.512h18.24l1.996.08 1.916.17 1.836.418 1.748.419 1.604.668 1.5.668 1.418.805 1.331.918 1.163 1.006 1.162 1.087 1.002 1.167.914 1.256.746 1.337.754 1.336.569 1.45.497 1.424L64.293 0l9.412 6.352-20.156 13.05 3.247 2.174L77.121 8.614l8.747 5.877-20.044 13.3 3.415 2.093 20.405-13.05V2.512h14.993v28.515h13.325v13.38h-28.35V30.723L64.38 47 38.645 29.522l-.498 1.505-.465 1.425-.801 1.417-.754 1.425-.898 1.256-1.002 1.288-1.082 1.168-1.251 1.006-1.243.966-1.5.805-1.498.749-1.668.668-1.748.5-1.836.337-1.916.25-2.085.08H0V2.504v.008zm14.327 13.13h3.913l1.748.17 1.419.499 1.25.748 1.083 1.007.754 1.167.585 1.256.337 1.425.08 1.425-.08 1.425-.337 1.425-.585 1.256-.802 1.167-1.002 1.007-1.251.748-1.5.5-1.667.168h-3.945V15.642zm107.355-13.13h15.073v28.515H150v13.38h-28.318V2.513z" fill="#0083CA"/></svg>