<svg width="150" height="36" viewBox="0 0 150 36" fill="none" xmlns="http://www.w3.org/2000/svg"><path d="M6.298 17.806V6.204h22V0H0v24.013l6.208 5.934h22.09l.174-6.067H.312l5.986-6.074z" fill="#452285"/><path d="M24.398 11.916H12.363v6.021h12.035v-6.021zM40.1 5.987v17.971h13.163v-1.852h-11v-6.261h9.872v-1.852h-9.872V7.84h11V5.987H40.1zm28.772 4.695H66.52l-3.98 5.163-3.856-5.163h-2.506l5.203 6.638-5.36 6.638h2.289l4.309-5.25 3.965 5.25h2.476l-5.391-6.762 5.203-6.514zm6.142-3.985h-2.006l-.025 3.984h-1.925v1.884h1.944v8.15c0 2.84 2.256 3.49 3.668 3.49a6.85 6.85 0 002.476-.464V21.91c-1.097.586-1.88.556-1.88.556-2.068 0-2.226-2.008-2.226-2.008v-7.925h4.262V10.68h-4.288V6.697zm34.122 21.306h-.903l-.01 1.79h-.856v.843h.875v3.666c0 1.277 1.013 1.57 1.649 1.57a3.078 3.078 0 001.114-.211v-.82c-.26.153-.554.24-.856.251-.93 0-1-.902-1-.902v-3.564h1.924v-.843h-1.924l-.013-1.78zM84.793 14.046v-3.37h-2.068v13.272h2.038v-5.9s.126-5.433 5.485-5.496v-2.107s-3.26-.598-5.455 3.6zm45.604 17.191v-1.532h-.941v6.04h.926v-2.684s.058-2.47 2.495-2.5v-.955s-1.482-.28-2.48 1.63zM104.1 21.828l-1.159-1.205a5.417 5.417 0 01-1.888 1.46 5.5 5.5 0 01-2.344.516c-2.78 0-4.705-2.347-4.733-4.445h10.751s.532-7.721-6.238-7.721c-6.77 0-6.55 7.072-6.55 7.318 0 .247.408 6.453 6.864 6.453-.004 0 2.979.31 5.297-2.376zm-5.83-9.727c4.044 0 4.295 4.424 4.295 4.424h-8.588s.25-4.424 4.294-4.424zm5.739 17.568c-3.073 0-2.972 3.21-2.972 3.322 0 .112.184 2.929 3.116 2.929.458.015.913-.074 1.33-.262a2.954 2.954 0 001.073-.817l-.526-.546a2.454 2.454 0 01-.858.664 2.5 2.5 0 01-1.066.234 2.183 2.183 0 01-1.474-.593 2.123 2.123 0 01-.665-1.425h4.88s.236-3.506-2.838-3.506zm-2.048 2.762s.113-2.004 1.948-2.004 1.948 2.004 1.948 2.004h-3.896zm36.583-21.998c-6.77 0-6.55 7.072-6.55 7.318 0 .247.408 6.453 6.865 6.453 0 0 2.976.31 5.297-2.376l-1.16-1.205a5.408 5.408 0 01-1.888 1.46 5.496 5.496 0 01-2.344.516c-2.78 0-4.704-2.347-4.732-4.445h10.744s.539-7.721-6.232-7.721zm-4.512 6.084s.25-4.424 4.294-4.424 4.294 4.424 4.294 4.424h-8.588zm-10.5-6.084a5.533 5.533 0 00-2.694.673 5.44 5.44 0 00-2.011 1.89c-1.629-2.932-4.388-2.563-4.388-2.563a4.997 4.997 0 00-2.453.638 4.907 4.907 0 00-1.809 1.753V10.65h-2.068v13.245h2.068v-8.111c.297-1.435 1.159-3.683 3.635-3.683 3.377 0 3.514 3.278 3.518 3.763v8.033h2.068v-7.968c0-.741.34-3.705 3.693-3.705 3.354 0 3.452 3.21 3.452 3.21v8.46h2.068v-8.797h-.03c-.146-2.486-1.903-4.664-5.049-4.664zm24.494-.772c-.39 0-.772.114-1.097.328a1.959 1.959 0 00-.727.872 1.922 1.922 0 00.428 2.12 2 2 0 002.151.422c.361-.148.669-.397.886-.717a1.924 1.924 0 00-.245-2.455 1.988 1.988 0 00-1.396-.57zm0 3.598c-.333 0-.659-.097-.936-.28a1.67 1.67 0 01-.621-.744 1.642 1.642 0 01.366-1.81 1.71 1.71 0 011.836-.36c.308.126.571.339.756.612a1.644 1.644 0 01-.209 2.096 1.699 1.699 0 01-1.192.486z" fill="#452285"/><path d="M148.888 11.145a.559.559 0 00-.131-.41.576.576 0 00-.387-.2h-1.129v2.053h.25v-.81h.533l.626.802h.403l-.627-.843s.462-.006.462-.592zm-.674.409h-.723v-.75h.753a.357.357 0 01.267.385.33.33 0 01-.073.243.338.338 0 01-.226.122h.002zm-50.9 18.076a2.71 2.71 0 00-1.158.252 2.67 2.67 0 00-.934.72v-.855h-.988v5.998h.988v-4.033c.231-.672.776-1.31 1.903-1.31 1.388 0 1.576 1.776 1.576 1.776v3.567h.988V31.69h-.036c-.15-1.163-.87-2.06-2.34-2.06zm21.392 4.91l-1.624-4.77h-.821l-1.623 4.77-1.574-4.77h-1.058l2.138 6.154h.894l1.597-4.788 1.671 4.788h.87l2.091-6.154h-1.011l-1.55 4.77zm6.261-4.95a3.29 3.29 0 00-1.807.54 3.214 3.214 0 00-1.198 1.439 3.166 3.166 0 00.705 3.492 3.27 3.27 0 001.666.877c.631.124 1.285.06 1.879-.182a3.248 3.248 0 001.46-1.18 3.173 3.173 0 00.3-3.007 3.194 3.194 0 00-.705-1.04 3.252 3.252 0 00-1.055-.694 3.3 3.3 0 00-1.245-.244zm0 5.554a2.41 2.41 0 01-1.324-.396 2.356 2.356 0 01-.879-1.054 2.32 2.32 0 01.517-2.56 2.4 2.4 0 011.221-.643 2.42 2.42 0 011.378.134 2.38 2.38 0 011.07.865 2.325 2.325 0 01-.297 2.966 2.401 2.401 0 01-1.686.688zm14.471-5.382h-1.192l-3.291 3.301V27.2h-.924v8.545h.924V34.24l1.206-1.203 2.209 2.71h1.192l-2.695-3.39 2.571-2.594zm3.714 2.732c-1.629-.586-1.991-.803-1.991-1.22 0-.417.565-.91 1.224-.91.658 0 1.785.664 1.785.664l.428-.582a3.906 3.906 0 00-2.175-.855c-.753 0-2.138.495-2.138 1.73 0 1.234 1.069 1.558 1.614 1.698.546.139 1.991.278 1.991 1.205s-1.253.92-1.253.92a3.203 3.203 0 01-2.115-.72l-.547.632s.894.842 2.694.842c1.801 0 2.053-1.42 2.053-1.685 0-.265.054-1.138-1.57-1.72z" fill="#452285"/></svg>