<svg width="22" height="28" viewBox="0 0 22 28" fill="none" xmlns="http://www.w3.org/2000/svg"><path d="M14.97.216A.667.667 0 0014.49 0H3.687C1.694 0 .05 1.654.05 3.665V24.28c0 2.011 1.645 3.665 3.638 3.665h14.661c1.993 0 3.639-1.654 3.639-3.665V7.91a.73.73 0 00-.194-.472L14.97.216zm.194 2.167l4.569 4.84h-2.97a1.6 1.6 0 01-1.599-1.607V2.383zm3.184 24.212H3.688c-1.251 0-2.302-1.046-2.302-2.315V3.665c0-1.262 1.044-2.315 2.301-2.315h10.14v4.266a2.94 2.94 0 002.936 2.957h3.886V24.28c0 1.27-1.044 2.315-2.301 2.315z" fill="#1B75BC"/><path d="M16.521 21.938H5.514a.674.674 0 00-.67.675c0 .37.302.675.67.675h11.015a.674.674 0 00-.006-1.35zm-8.928-7.263l2.756-2.99v7.37c0 .372.3.675.668.675a.674.674 0 00.67-.675v-7.37l2.755 2.99a.661.661 0 00.943.034.677.677 0 00.034-.952l-3.92-4.246a.67.67 0 00-.488-.216.67.67 0 00-.488.216l-3.92 4.246a.677.677 0 00.034.951.678.678 0 00.956-.033z" fill="#1B75BC"/></svg>