<svg width="117" height="117" viewBox="0 0 117 117" fill="none" xmlns="http://www.w3.org/2000/svg"><path d="M108.955 28.691H83.082c-1.056 0-1.76.705-1.76 1.76 0 1.056.704 1.76 1.76 1.76h25.699c2.112 0 3.696 1.76 3.696 3.697v30.978h-4.225V46.822c0-3.168-2.641-5.633-5.809-5.633H77.097c-1.055 0-1.76.705-1.76 1.76 0 1.056.705 1.76 1.76 1.76h25.523c1.231 0 2.288 1.056 2.288 2.113v20.243h-15.49c-7.392 0-13.2 5.984-13.2 13.2 0 7.393 5.984 13.201 13.2 13.201h15.49v19.186H5.811a2.335 2.335 0 01-2.29-2.289V46.469a1.762 1.762 0 011.76-1.76H28.87c1.055 0 1.76-.704 1.76-1.76 0-1.055-.705-1.76-1.76-1.76H5.282c-.529 0-1.231.177-1.76.353v-6.337c0-1.584 1.231-2.992 2.991-2.992h16.545c1.055 0 1.76-.704 1.76-1.76 0-1.055-.705-1.76-1.76-1.76H6.513A6.499 6.499 0 000 35.207v75.158c0 3.168 2.641 5.809 5.809 5.809h102.97c4.048 0 7.216-3.344 7.216-7.216V36.084c.178-4.049-3.168-7.393-7.04-7.393zM79.738 80.266c0-5.457 4.4-9.681 9.68-9.681h23.235v19.538H89.595a9.844 9.844 0 01-9.857-9.858zm28.69 32.386v-19.01h4.225v15.314c0 1.936-1.41 3.696-4.225 3.696z" fill="#1B75BC"/><path d="M93.29 74.28a5.935 5.935 0 00-5.984 5.984 5.936 5.936 0 005.985 5.985 5.936 5.936 0 005.984-5.985 5.937 5.937 0 00-5.984-5.984zm0 8.623a2.405 2.405 0 01-2.464-2.464c0-1.408 1.055-2.465 2.465-2.465s2.465 1.055 2.465 2.465c-.002 1.233-1.058 2.464-2.465 2.464zM52.103 63.718c.353.176.705.352.881.352.353 0 .705-.176 1.056-.352 1.055-.705 25.522-17.602 25.522-44.18 0-2.465-.176-4.928-.705-7.569-.176-.88-.88-1.407-1.76-1.407C67.593 10.21 60.553 7.218 54.216.529 54.038.176 53.686 0 53.158 0c-.529 0-.881.176-1.232.529-6.513 6.513-14.434 10.033-22.179 10.033h-.528c-.881 0-1.584.528-1.76 1.408-.529 2.464-.705 5.103-.705 7.568-.174 26.93 24.291 43.475 25.348 44.18zM30.628 14.082c7.921-.176 15.842-3.696 22.53-9.857 6.16 6.16 13.553 9.328 22.529 9.857.352 1.936.529 3.696.529 5.456 0 21.827-18.481 37.14-23.058 40.484C48.58 56.678 30.1 41.715 30.1 19.538c0-1.76.176-3.696.528-5.456z" fill="#1B75BC"/><path d="M67.415 30.276c0-7.921-6.513-14.258-14.258-14.258-7.92 0-14.258 6.513-14.258 14.258 0 7.92 6.514 14.258 14.258 14.258a14.202 14.202 0 0014.258-14.258zm-25.17 0c0-5.985 4.928-10.736 10.736-10.736 5.985 0 10.736 4.927 10.736 10.736 0 5.984-4.927 10.736-10.736 10.736-5.808.002-10.736-4.752-10.736-10.736z" fill="#1B75BC"/><path d="M60.55 25.523c-.705-.704-1.76-.88-2.465-.176l-7.392 6.337-2.112-3.52c-.529-.88-1.584-1.055-2.465-.528-.881.528-1.055 1.584-.529 2.464l3.168 5.28c.529.881 1.76 1.056 2.64.353l8.977-7.745c.707-.529.883-1.762.178-2.465zm6.514 46.292H14.258c-1.055 0-1.76.705-1.76 1.76 0 1.056.705 1.76 1.76 1.76H67.24c1.055 0 1.76-.704 1.76-1.76-.177-.88-.88-1.76-1.936-1.76zm0 11.265H14.258c-1.055 0-1.76.705-1.76 1.76 0 1.055.705 1.76 1.76 1.76H67.24c1.055 0 1.76-.705 1.76-1.76-.177-1.055-.88-1.76-1.936-1.76zm0 10.738H14.258c-1.055 0-1.76.705-1.76 1.76 0 1.055.705 1.76 1.76 1.76H67.24c1.055 0 1.76-.705 1.76-1.76-.177-1.057-.88-1.76-1.936-1.76z" fill="#1B75BC"/></svg>