<svg width="175" height="34" viewBox="0 0 175 34" fill="none" xmlns="http://www.w3.org/2000/svg"><path fill-rule="evenodd" clip-rule="evenodd" d="M20.353 0c8.961 0 16.609 4.888 19.317 11.633H17.764l-9.21 19.2C3.384 27.743 0 22.69 0 17 0 7.635 9.14 0 20.353 0z" fill="#2E3192"/><path fill-rule="evenodd" clip-rule="evenodd" d="M40.537 14.732c.12.75.18 1.509.18 2.268 0 9.366-9.141 17-20.353 17a24.12 24.12 0 01-4.481-.42l5.287-11.868c1.115-2.502-.438-4.946-3.156-6.98h22.523z" fill="#ED1C24"/><path fill-rule="evenodd" clip-rule="evenodd" d="M84.637 6.257H64.484c-5.307 0-11.95 5.279-13.214 10.294l-.846 3.46c-1.763 7.215 2.838 11.878 7.488 11.878h15.832c2.52 0 5.257-3.02 5.865-5.445l2.52-10.099-13.941.098-1.992 3.558h6.353c1.046 0 .518 2.083.18 3.07l-1.036 3.275c-.379 1.075-1.374 2.375-2.52 2.375h-7.607c-3.176 0-3.704-5.767-2.877-8.798l.946-3.46c.995-3.588 5.297-6.931 9.05-6.931h15.126l.826-3.275zm90.353 0h-15.673c-5.307 0-11.949 5.279-13.213 10.294l-.846 3.46c-1.763 7.215 2.837 11.878 7.487 11.878h15.833l.846-3.138H156.33c-3.087-.088-3.614-5.68-2.828-8.72h17.923l.797-3.09h-17.923l.129-.459c.996-3.587 5.298-6.93 9.051-6.93h10.595l.836-3.266.08-.03zm-29.025 0h-15.624c-5.307 0-11.948 5.279-13.213 10.294l-.846 3.46c-1.763 7.215 2.838 11.878 7.488 11.878h15.832l.796-3.148h-13.054c-3.086-.088-3.614-5.68-2.828-8.72h17.924l.796-3.089h-17.923l.129-.46c.996-3.587 5.298-6.93 9.052-6.93h10.594l.837-3.266.04-.02zm-57.235 0L82.277 31.79l8.365.098 5.446-22.484h10.386c1.394 0 2.161 2.317 1.912 3.665-.279 1.535-1.932 3.91-4.441 3.91h-7.628l8.235 14.811h9.38l-6.652-11.68c4.332-.616 8.733-3.832 8.962-8.32a5.822 5.822 0 00-1.862-3.94 6.033 6.033 0 00-4.112-1.602l-21.538.01z" fill="#2E3192"/></svg>