<svg width="1597" height="41" viewBox="0 0 1597 41" fill="none" xmlns="http://www.w3.org/2000/svg"><path fill="#1B75BC" d="M1597 38v3H0v-3zM0 33h39v5H0z"/><path d="M5.994 14.18c-2.064 0-3.846-.672-5.346-2.016l1.638-1.962c1.236 1.02 2.49 1.53 3.762 1.53.564 0 1.008-.108 1.332-.324.324-.216.486-.516.486-.9 0-.36-.168-.648-.504-.864-.336-.228-1.014-.474-2.034-.738a16.2 16.2 0 01-1.746-.522 6.348 6.348 0 01-1.278-.702 2.648 2.648 0 01-.882-1.08c-.18-.444-.27-.972-.27-1.584 0-1.14.408-2.058 1.224-2.754.828-.696 1.89-1.044 3.186-1.044 1.788 0 3.348.534 4.68 1.602L8.802 4.91c-1.188-.828-2.28-1.242-3.276-1.242-.516 0-.918.108-1.206.324a.96.96 0 00-.414.81c0 .408.174.714.522.918.348.204 1.08.45 2.196.738 1.368.36 2.376.822 3.024 1.386.648.564.972 1.374.972 2.43 0 1.224-.426 2.184-1.278 2.88-.84.684-1.956 1.026-3.348 1.026zm17.94-1.854c-1.272 1.26-2.868 1.89-4.788 1.89-1.92 0-3.516-.63-4.788-1.89-1.26-1.26-1.89-2.802-1.89-4.626 0-1.812.636-3.348 1.908-4.608 1.284-1.272 2.886-1.908 4.806-1.908s3.51.63 4.77 1.89c1.272 1.26 1.908 2.802 1.908 4.626 0 1.812-.642 3.354-1.926 4.626zm-7.488-1.818c.72.768 1.632 1.152 2.736 1.152 1.104 0 2.01-.378 2.718-1.134.708-.768 1.062-1.71 1.062-2.826 0-1.104-.36-2.04-1.08-2.808-.72-.768-1.632-1.152-2.736-1.152-1.104 0-2.01.384-2.718 1.152-.708.756-1.062 1.692-1.062 2.808 0 1.104.36 2.04 1.08 2.808zM28.319 14V1.4h2.772v10.08h6.282V14h-9.054zm16.049.198c-1.716 0-3.054-.474-4.014-1.422-.96-.96-1.44-2.352-1.44-4.176V1.4h2.772v7.128c0 1.008.234 1.782.702 2.322.48.528 1.152.792 2.016.792.864 0 1.53-.258 1.998-.774.48-.516.72-1.266.72-2.25V1.4h2.772v7.11c0 1.872-.492 3.288-1.476 4.248-.972.96-2.322 1.44-4.05 1.44zM55.65 14V3.956h-3.834V1.4h10.44v2.556h-3.834V14H55.65zm8.864 0V1.4h2.772V14h-2.772zm16.829-1.674c-1.272 1.26-2.868 1.89-4.788 1.89-1.92 0-3.516-.63-4.788-1.89-1.26-1.26-1.89-2.802-1.89-4.626 0-1.812.636-3.348 1.908-4.608 1.284-1.272 2.886-1.908 4.806-1.908s3.51.63 4.77 1.89c1.272 1.26 1.908 2.802 1.908 4.626 0 1.812-.642 3.354-1.926 4.626zm-7.488-1.818c.72.768 1.632 1.152 2.736 1.152 1.104 0 2.01-.378 2.718-1.134.708-.768 1.062-1.71 1.062-2.826 0-1.104-.36-2.04-1.08-2.808-.72-.768-1.632-1.152-2.736-1.152-1.104 0-2.01.384-2.718 1.152-.708.756-1.062 1.692-1.062 2.808 0 1.104.36 2.04 1.08 2.808zM85.729 14V1.4h2.556l5.904 7.758V1.4h2.736V14h-2.358l-6.102-8.01V14h-2.736zm19.617 0V1.4h4.914c1.968 0 3.576.6 4.824 1.8 1.248 1.188 1.872 2.688 1.872 4.5 0 1.8-.63 3.3-1.89 4.5-1.248 1.2-2.85 1.8-4.806 1.8h-4.914zm2.772-2.502h2.142c1.14 0 2.058-.348 2.754-1.044.696-.708 1.044-1.626 1.044-2.754 0-1.116-.354-2.028-1.062-2.736-.696-.708-1.608-1.062-2.736-1.062h-2.142v7.596zM119.552 14V1.4h2.772V14h-2.772zm9.935.09L124.393 1.4h3.06l3.294 8.874 3.294-8.874h2.988l-5.094 12.69h-2.448zm9.612-.09V1.4h2.772V14h-2.772zm10.403.18c-2.064 0-3.846-.672-5.346-2.016l1.638-1.962c1.236 1.02 2.49 1.53 3.762 1.53.564 0 1.008-.108 1.332-.324.324-.216.486-.516.486-.9 0-.36-.168-.648-.504-.864-.336-.228-1.014-.474-2.034-.738a16.2 16.2 0 01-1.746-.522 6.348 6.348 0 01-1.278-.702 2.648 2.648 0 01-.882-1.08c-.18-.444-.27-.972-.27-1.584 0-1.14.408-2.058 1.224-2.754.828-.696 1.89-1.044 3.186-1.044 1.788 0 3.348.534 4.68 1.602l-1.44 2.088c-1.188-.828-2.28-1.242-3.276-1.242-.516 0-.918.108-1.206.324a.96.96 0 00-.414.81c0 .408.174.714.522.918.348.204 1.08.45 2.196.738 1.368.36 2.376.822 3.024 1.386.648.564.972 1.374.972 2.43 0 1.224-.426 2.184-1.278 2.88-.84.684-1.956 1.026-3.348 1.026zm7.157-.18V1.4h2.772V14h-2.772zm16.829-1.674c-1.272 1.26-2.868 1.89-4.788 1.89-1.92 0-3.516-.63-4.788-1.89-1.26-1.26-1.89-2.802-1.89-4.626 0-1.812.636-3.348 1.908-4.608 1.284-1.272 2.886-1.908 4.806-1.908s3.51.63 4.77 1.89c1.272 1.26 1.908 2.802 1.908 4.626 0 1.812-.642 3.354-1.926 4.626zM166 10.508c.72.768 1.632 1.152 2.736 1.152 1.104 0 2.01-.378 2.718-1.134.708-.768 1.062-1.71 1.062-2.826 0-1.104-.36-2.04-1.08-2.808-.72-.768-1.632-1.152-2.736-1.152-1.104 0-2.01.384-2.718 1.152-.708.756-1.062 1.692-1.062 2.808 0 1.104.36 2.04 1.08 2.808zM177.873 14V1.4h2.556l5.904 7.758V1.4h2.736V14h-2.358l-6.102-8.01V14h-2.736zm192.612-3V.5h1.2l3.825 5.73L379.335.5h1.2V11h-1.185V2.495l-3.825 5.625h-.06l-3.825-5.61V11h-1.155zm19.262-1.005c-.78.79-1.745 1.185-2.895 1.185s-2.11-.395-2.88-1.185c-.76-.79-1.14-1.745-1.14-2.865 0-1.11.385-2.06 1.155-2.85.78-.8 1.745-1.2 2.895-1.2s2.11.395 2.88 1.185 1.155 1.745 1.155 2.865c0 1.11-.39 2.065-1.17 2.865zm-2.865.15c.83 0 1.51-.29 2.04-.87.54-.58.81-1.295.81-2.145 0-.84-.28-1.555-.84-2.145a2.677 2.677 0 00-2.04-.885c-.83 0-1.51.295-2.04.885-.53.58-.795 1.295-.795 2.145 0 .84.275 1.555.825 2.145.55.58 1.23.87 2.04.87zm10.253 1.02c-1.22 0-2.21-.55-2.97-1.65V11h-1.155V.05h1.155v4.755c.78-1.15 1.77-1.725 2.97-1.725.99 0 1.855.37 2.595 1.11.74.73 1.11 1.71 1.11 2.94 0 1.21-.37 2.185-1.11 2.925-.74.74-1.605 1.11-2.595 1.11zm-.21-1.035c.78 0 1.43-.27 1.95-.81.52-.55.78-1.285.78-2.205 0-.89-.265-1.61-.795-2.16-.53-.56-1.175-.84-1.935-.84-.75 0-1.405.285-1.965.855-.56.57-.84 1.29-.84 2.16 0 .87.28 1.59.84 2.16.56.56 1.215.84 1.965.84zm6.076-8.58V.275h1.32V1.55h-1.32zm.075 9.45V3.245h1.155V11h-1.155zm3.94 0V.05h1.155V11h-1.155zm4.526-3.405c.08.79.375 1.42.885 1.89.52.46 1.135.69 1.845.69.93 0 1.745-.365 2.445-1.095l.72.645c-.87.97-1.935 1.455-3.195 1.455-1.09 0-2.01-.375-2.76-1.125-.74-.76-1.11-1.735-1.11-2.925 0-1.13.355-2.085 1.065-2.865.71-.79 1.595-1.185 2.655-1.185 1.11 0 1.99.39 2.64 1.17.65.78.975 1.76.975 2.94 0 .15-.005.285-.015.405h-6.15zm0-.93h4.995c-.07-.75-.32-1.37-.75-1.86-.42-.5-.995-.75-1.725-.75-.66 0-1.225.245-1.695.735s-.745 1.115-.825 1.875zm15.939 4.5c-.99 0-1.855-.365-2.595-1.095-.74-.74-1.11-1.725-1.11-2.955 0-1.21.37-2.185 1.11-2.925.74-.74 1.605-1.11 2.595-1.11 1.22 0 2.21.55 2.97 1.65V.05h1.155V11h-1.155V9.44c-.78 1.15-1.77 1.725-2.97 1.725zm.21-1.035c.75 0 1.405-.285 1.965-.855.56-.57.84-1.295.84-2.175 0-.86-.28-1.57-.84-2.13-.56-.57-1.215-.855-1.965-.855-.78 0-1.43.275-1.95.825-.52.54-.78 1.27-.78 2.19 0 .89.265 1.615.795 2.175.53.55 1.175.825 1.935.825zm6.525-8.58V.275h1.32V1.55h-1.32zm.075 9.45V3.245h1.155V11h-1.155zm6.431.06l-3.36-7.815h1.275l2.61 6.435 2.625-6.435h1.245l-3.375 7.815h-1.02zm6.239-9.51V.275h1.32V1.55h-1.32zm.075 9.45V3.245h1.155V11h-1.155zm6.4.15c-.56 0-1.13-.1-1.71-.3-.57-.21-1.07-.49-1.5-.84l.585-.825c.88.66 1.775.99 2.685.99.47 0 .855-.115 1.155-.345.3-.23.45-.535.45-.915 0-.35-.165-.62-.495-.81-.32-.19-.8-.375-1.44-.555-.39-.11-.7-.21-.93-.3-.23-.09-.49-.215-.78-.375a1.7 1.7 0 01-.645-.63c-.14-.26-.21-.565-.21-.915 0-.66.245-1.195.735-1.605.5-.41 1.135-.615 1.905-.615 1 0 1.93.285 2.79.855l-.525.87c-.77-.5-1.535-.75-2.295-.75-.45 0-.815.11-1.095.33a.996.996 0 00-.405.825c0 .14.04.27.12.39.08.12.17.22.27.3.1.08.255.165.465.255.22.09.395.155.525.195.13.04.335.105.615.195.37.11.675.215.915.315s.495.235.765.405c.27.17.47.385.6.645.14.25.21.545.21.885 0 .72-.26 1.29-.78 1.71-.52.41-1.18.615-1.98.615zm4.936-9.6V.275h1.32V1.55h-1.32zm.075 9.45V3.245h1.155V11h-1.155zm10.27-1.005c-.78.79-1.745 1.185-2.895 1.185s-2.11-.395-2.88-1.185c-.76-.79-1.14-1.745-1.14-2.865 0-1.11.385-2.06 1.155-2.85.78-.8 1.745-1.2 2.895-1.2s2.11.395 2.88 1.185 1.155 1.745 1.155 2.865c0 1.11-.39 2.065-1.17 2.865zm-2.865.15c.83 0 1.51-.29 2.04-.87.54-.58.81-1.295.81-2.145 0-.84-.28-1.555-.84-2.145a2.677 2.677 0 00-2.04-.885c-.83 0-1.51.295-2.04.885-.53.58-.795 1.295-.795 2.145 0 .84.275 1.555.825 2.145.55.58 1.23.87 2.04.87zm6.127.855V3.245h1.155v1.35c.61-1.01 1.495-1.515 2.655-1.515.92 0 1.645.285 2.175.855.53.56.795 1.31.795 2.25V11h-1.155V6.47c0-.73-.19-1.3-.57-1.71-.37-.42-.895-.63-1.575-.63-.67 0-1.225.225-1.665.675-.44.45-.66 1.035-.66 1.755V11h-1.155zm-245.879.075L221.585.5h1.32l3.735 9.045L230.39.5h1.275l-4.515 10.575h-1.05zm12.82-1.08c-.78.79-1.745 1.185-2.895 1.185s-2.11-.395-2.88-1.185c-.76-.79-1.14-1.745-1.14-2.865 0-1.11.385-2.06 1.155-2.85.78-.8 1.745-1.2 2.895-1.2s2.11.395 2.88 1.185 1.155 1.745 1.155 2.865c0 1.11-.39 2.065-1.17 2.865zm-2.865.15c.83 0 1.51-.29 2.04-.87.54-.58.81-1.295.81-2.145 0-.84-.28-1.555-.84-2.145a2.677 2.677 0 00-2.04-.885c-.83 0-1.51.295-2.04.885-.53.58-.795 1.295-.795 2.145 0 .84.275 1.555.825 2.145.55.58 1.23.87 2.04.87zm6.233.855V.05h1.155V11h-1.155zm6.685.165c-.92 0-1.645-.28-2.175-.84-.53-.57-.795-1.325-.795-2.265V3.245h1.155v4.53c0 .73.185 1.305.555 1.725.38.41.91.615 1.59.615.67 0 1.225-.225 1.665-.675.44-.45.66-1.035.66-1.755v-4.44h1.14V11h-1.14V9.65c-.63 1.01-1.515 1.515-2.655 1.515zm6.393-.165V3.245h1.155V4.55c.65-.98 1.485-1.47 2.505-1.47 1.16 0 1.99.515 2.49 1.545.67-1.03 1.58-1.545 2.73-1.545.89 0 1.59.28 2.1.84.52.56.78 1.32.78 2.28V11h-1.155V6.47c0-.75-.18-1.325-.54-1.725-.35-.41-.84-.615-1.47-.615-.61 0-1.12.215-1.53.645-.41.43-.615 1.015-.615 1.755V11h-1.14V6.44c0-.72-.18-1.285-.54-1.695-.35-.41-.835-.615-1.455-.615-.62 0-1.135.23-1.545.69-.41.46-.615 1.045-.615 1.755V11h-1.155zm14.958-3.405c.08.79.375 1.42.885 1.89.52.46 1.135.69 1.845.69.93 0 1.745-.365 2.445-1.095l.72.645c-.87.97-1.935 1.455-3.195 1.455-1.09 0-2.01-.375-2.76-1.125-.74-.76-1.11-1.735-1.11-2.925 0-1.13.355-2.085 1.065-2.865.71-.79 1.595-1.185 2.655-1.185 1.11 0 1.99.39 2.64 1.17.65.78.975 1.76.975 2.94 0 .15-.005.285-.015.405h-6.15zm0-.93h4.995c-.07-.75-.32-1.37-.75-1.86-.42-.5-.995-.75-1.725-.75-.66 0-1.225.245-1.695.735s-.745 1.115-.825 1.875zm15.939 4.5c-.99 0-1.855-.365-2.595-1.095-.74-.74-1.11-1.725-1.11-2.955 0-1.21.37-2.185 1.11-2.925.74-.74 1.605-1.11 2.595-1.11 1.22 0 2.21.55 2.97 1.65V.05h1.155V11h-1.155V9.44c-.78 1.15-1.77 1.725-2.97 1.725zm.21-1.035c.75 0 1.405-.285 1.965-.855.56-.57.84-1.295.84-2.175 0-.86-.28-1.57-.84-2.13-.56-.57-1.215-.855-1.965-.855-.78 0-1.43.275-1.95.825-.52.54-.78 1.27-.78 2.19 0 .89.265 1.615.795 2.175.53.55 1.175.825 1.935.825zm6.526-8.58V.275h1.32V1.55h-1.32zm.075 9.45V3.245h1.155V11h-1.155zm6.43.06l-3.36-7.815h1.275l2.61 6.435 2.625-6.435h1.245l-3.375 7.815h-1.02zm6.239-9.51V.275h1.32V1.55h-1.32zm.075 9.45V3.245h1.155V11h-1.155zm6.4.15c-.56 0-1.13-.1-1.71-.3-.57-.21-1.07-.49-1.5-.84l.585-.825c.88.66 1.775.99 2.685.99.47 0 .855-.115 1.155-.345.3-.23.45-.535.45-.915 0-.35-.165-.62-.495-.81-.32-.19-.8-.375-1.44-.555-.39-.11-.7-.21-.93-.3-.23-.09-.49-.215-.78-.375a1.7 1.7 0 01-.645-.63c-.14-.26-.21-.565-.21-.915 0-.66.245-1.195.735-1.605.5-.41 1.135-.615 1.905-.615 1 0 1.93.285 2.79.855l-.525.87c-.77-.5-1.535-.75-2.295-.75-.45 0-.815.11-1.095.33a.996.996 0 00-.405.825c0 .14.04.27.12.39.08.12.17.22.27.3.1.08.255.165.465.255.22.09.395.155.525.195.13.04.335.105.615.195.37.11.675.215.915.315s.495.235.765.405c.27.17.47.385.6.645.14.25.21.545.21.885 0 .72-.26 1.29-.78 1.71-.52.41-1.18.615-1.98.615zm4.936-9.6V.275h1.32V1.55h-1.32zm.075 9.45V3.245h1.155V11h-1.155zm10.27-1.005c-.78.79-1.745 1.185-2.895 1.185s-2.11-.395-2.88-1.185c-.76-.79-1.14-1.745-1.14-2.865 0-1.11.385-2.06 1.155-2.85.78-.8 1.745-1.2 2.895-1.2s2.11.395 2.88 1.185 1.155 1.745 1.155 2.865c0 1.11-.39 2.065-1.17 2.865zm-2.865.15c.83 0 1.51-.29 2.04-.87.54-.58.81-1.295.81-2.145 0-.84-.28-1.555-.84-2.145a2.677 2.677 0 00-2.04-.885c-.83 0-1.51.295-2.04.885-.53.58-.795 1.295-.795 2.145 0 .84.275 1.555.825 2.145.55.58 1.23.87 2.04.87zm6.128.855V3.245h1.155v1.35c.61-1.01 1.495-1.515 2.655-1.515.92 0 1.645.285 2.175.855.53.56.795 1.31.795 2.25V11h-1.155V6.47c0-.73-.19-1.3-.57-1.71-.37-.42-.895-.63-1.575-.63-.67 0-1.225.225-1.665.675-.44.45-.66 1.035-.66 1.755V11h-1.155z" fill="#003056"/></svg>