<svg width="174" height="73" viewBox="0 0 174 73" fill="none" xmlns="http://www.w3.org/2000/svg"><path d="M3.723 3.74h52.095v9.676H3.723V3.74zM0 17.172h59.542V0H0v17.172z" fill="#1AAD88"/><path d="M3.723 45.564H0V28.392h3.723V35.1h6.68v-6.708h3.69v17.172h-3.724v-7.11H3.69l.033 7.11zm18.835.268a5.887 5.887 0 01-4.611-1.705 5.941 5.941 0 01-1.734-4.617 5.995 5.995 0 011.532-4.509 5.946 5.946 0 014.328-1.947c3.64 0 5.444 2.448 5.444 6.104v1.375h-7.781a3.087 3.087 0 001.212 1.842c.617.442 1.374.64 2.127.556a5.809 5.809 0 003.34-.99h.133v2.835a6.906 6.906 0 01-4.074 1.073l.084-.017zm-2.906-7.78h4.425c0-1.259-.6-2.147-2.054-2.147a2.23 2.23 0 00-2.175 1.281c-.127.271-.2.566-.212.865h.016zm17.465.334l-1.92 7.195h-3.155L28.385 33.54v-.134h3.556l2.02 7.228 1.921-7.228h2.905l1.937 7.228 2.054-7.228h3.34v.134L42.41 45.564h-3.339l-1.953-7.178zm15.028 7.463c-2.956 0-4.158-1.174-4.158-3.957V28.474h3.607v13.249c0 .855.334 1.157 1.035 1.157.28-.015.555-.072.818-.168v3.002c-.441.147-.904.22-1.369.218l.067-.084zm8.666.084a5.887 5.887 0 01-4.611-1.705 5.938 5.938 0 01-1.734-4.617 5.994 5.994 0 011.532-4.51 5.945 5.945 0 014.329-1.947c3.64 0 5.443 2.449 5.443 6.105v1.375h-7.68a3.086 3.086 0 001.211 1.841 3.063 3.063 0 002.127.557 5.792 5.792 0 003.34-.99h.133v2.734a6.906 6.906 0 01-4.074 1.073l-.016.084zm-2.805-7.882h4.441c0-1.258-.601-2.146-2.054-2.146a2.246 2.246 0 00-2.17 1.284c-.129.27-.203.563-.217.862zm22.607-4.696h2.689v2.902h-2.605v5.03c0 1.074.417 1.56 1.503 1.56.368.005.735-.052 1.085-.167v2.85a6.452 6.452 0 01-2.22.353c-2.923 0-4.075-1.342-4.075-4.444v-5.182h-4.525v5.03c0 1.074.418 1.56 1.503 1.56.374.005.746-.051 1.102-.167v2.85a6.472 6.472 0 01-2.22.353c-2.923 0-4.075-1.342-4.075-4.444v-5.182H66.99v-2.918h1.87v-3.354h3.606v3.354h4.625v-3.354h3.607l-.084 3.37zm21.423.873c0 3.74-2.488 5.768-6.262 5.768h-2.571v5.585h-3.724V28.39h6.379c3.773 0 6.261 2.03 6.261 5.82l-.083.017zm-6.479 2.666a2.462 2.462 0 002.037-.668 2.483 2.483 0 00.752-2.015 2.491 2.491 0 00-.759-2.004 2.469 2.469 0 00-2.03-.663h-2.354v5.35h2.354zm14.644 7.463a4.094 4.094 0 01-3.34 1.425 3.952 3.952 0 01-3.058-1.054 3.984 3.984 0 01-.949-1.358 3.98 3.98 0 01-.317-1.63c0-2.38 1.936-3.974 4.725-3.974a9.53 9.53 0 012.705.42v-.219c0-1.325-.735-1.895-2.688-1.895a6.953 6.953 0 00-3.423.94h-.134v-2.935a8.935 8.935 0 014.191-1.023c3.673 0 5.66 1.677 5.66 4.83v7.663h-3.372v-1.19zm-.101-2.633v-1.04a4.206 4.206 0 00-2.003-.42c-1.186 0-1.887.437-1.887 1.426 0 .99.718 1.46 1.787 1.46a2.126 2.126 0 002.103-1.442v.016zm5.444-2.264a6.145 6.145 0 011.773-4.596 6.094 6.094 0 014.571-1.794 5.759 5.759 0 013.34.94v3.102h-.134a4.493 4.493 0 00-2.788-.956 3.06 3.06 0 00-2.339.959 3.096 3.096 0 00-.834 2.395 3.071 3.071 0 00.821 2.408 3.035 3.035 0 002.352.946c1.009 0 1.99-.336 2.788-.956h.134v3.103c-.99.65-2.157.979-3.34.939a6.05 6.05 0 01-2.482-.397 6.08 6.08 0 01-3.488-3.484 6.14 6.14 0 01-.408-2.492l.034-.117zm15.611.67v5.551h-3.606v-17.29h3.606v9.778l3.64-4.83h4.108v.201l-4.375 5.55 4.375 6.407v.134h-4.141l-3.607-5.5zm15.946 4.344a4.092 4.092 0 01-3.222 1.426 3.959 3.959 0 01-3.059-1.054 4 4 0 01-1.266-2.988c0-2.381 1.937-3.975 4.742-3.975.917.01 1.828.15 2.705.42v-.218c0-1.325-.735-1.895-2.688-1.895a6.94 6.94 0 00-3.34.939h-.217v-3.052a8.935 8.935 0 014.191-1.023c3.673 0 5.66 1.677 5.66 4.83v7.663h-3.506v-1.073zm-.167-2.75v-1.04a4.21 4.21 0 00-2.004-.42c-1.168 0-1.886.437-1.886 1.426 0 .99.718 1.46 1.77 1.46a2.123 2.123 0 002.12-1.425zm9.684-6.406a3.22 3.22 0 011.152-1.517 3.194 3.194 0 011.804-.596c.4-.008.798.066 1.169.218v3.471h-.134a4.108 4.108 0 00-1.586-.268c-.54.006-1.06.205-1.467.562a2.282 2.282 0 00-.754 1.383v7.043h-3.623V33.34h3.506l-.067 1.979zm13.826 8.988a4.329 4.329 0 01-3.607 1.543c-3.122 0-5.109-2.85-5.109-6.372s2.003-6.407 5.109-6.407a4.307 4.307 0 013.506 1.41v-6.088h3.607v17.172h-3.506v-1.258zm-.134-2.884V37.48a2.673 2.673 0 00-2.304-1.258c-1.586 0-2.655 1.157-2.655 3.237s1.069 3.22 2.655 3.22a2.663 2.663 0 002.304-1.258zM0 51.182h10.57v2.096h-8.2v5.25H9.8v2.029H2.37v5.718h8.181v2.08H0V51.182zm19.285 4.83c2.705 0 4.208 1.777 4.208 4.729v7.614h-2.254V60.79a2.391 2.391 0 00-.62-1.954 2.37 2.37 0 00-1.902-.746 3.147 3.147 0 00-1.898.63 3.17 3.17 0 00-1.14 1.651v8.05h-2.321V56.263h2.32v1.677a4.167 4.167 0 011.538-1.487 4.144 4.144 0 012.07-.525v.084zm10.319.168h3.089v1.945h-3.09v6.607c0 1.375.719 1.845 2.005 1.845.346.006.691-.05 1.018-.168v1.946a3.677 3.677 0 01-1.42.251c-2.821 0-3.94-1.291-3.94-3.656v-6.708h-2.003v-1.979h2.087v-3.22h2.27l-.016 3.137zm10.469 12.426a5.656 5.656 0 01-4.36-1.724 5.707 5.707 0 01-1.584-4.43c0-3.79 2.237-6.423 5.493-6.423 3.256 0 5.01 2.398 5.01 5.936v1.04h-8.216a3.718 3.718 0 001.21 2.672 3.686 3.686 0 002.764.95 5.095 5.095 0 003.34-1.106v2.012a5.942 5.942 0 01-3.757 1.073h.1zm-3.69-7.48h5.994c0-1.794-.952-3.152-2.822-3.152a3.332 3.332 0 00-2.187.966 3.36 3.36 0 00-.985 2.187zm13.14-3.001a3.184 3.184 0 011.172-1.503 3.163 3.163 0 011.817-.56 2.91 2.91 0 011.186.185v2.247a3.493 3.493 0 00-1.42-.252 2.765 2.765 0 00-1.707.635c-.482.399-.816.95-.947 1.562v7.882h-2.255V56.263h2.271l-.117 1.862zm11.872-2.113c3.59 0 5.51 2.935 5.51 6.289 0 3.354-1.92 6.288-5.51 6.288a4.325 4.325 0 01-3.34-1.593v5.987h-2.187v-16.77h2.271v1.375a4.28 4.28 0 013.34-1.677l-.084.1zm-.3 10.43c2.237 0 3.556-1.777 3.556-4.225 0-2.449-1.32-4.226-3.556-4.226a3.33 3.33 0 00-1.771.532 3.35 3.35 0 00-1.218 1.396v4.646a3.349 3.349 0 001.224 1.377c.528.335 1.14.514 1.764.518v-.017zm10.836-8.367a3.184 3.184 0 011.172-1.503 3.162 3.162 0 011.817-.56c.398-.02.796.042 1.168.184v2.248a3.493 3.493 0 00-1.419-.252 2.764 2.764 0 00-1.708.635 2.79 2.79 0 00-.947 1.562v7.882h-2.32V56.263h2.27l-.033 1.812zm7.447-6.708c.378 0 .742.15 1.01.42a1.437 1.437 0 010 2.027 1.425 1.425 0 01-2.02 0 1.437 1.437 0 010-2.028 1.43 1.43 0 011.01-.42zm-1.119 4.896h2.27v12.092h-2.236l-.034-12.092zm10.369 5.031c1.67.554 3.64 1.258 3.64 3.572 0 2.315-2.02 3.74-4.625 3.74a6.973 6.973 0 01-4.074-1.107v-2.096h.117a5.878 5.878 0 003.94 1.342c1.286 0 2.438-.487 2.438-1.543 0-1.057-.952-1.325-2.855-1.945-1.904-.621-3.557-1.208-3.557-3.522 0-2.315 1.92-3.706 4.358-3.706a6.457 6.457 0 013.69.99v2.18a5.462 5.462 0 00-3.556-1.259c-1.42 0-2.221.638-2.221 1.476 0 .839.868 1.241 2.822 1.878h-.117zm11.554 7.312a5.655 5.655 0 01-4.36-1.724 5.707 5.707 0 01-1.584-4.43c0-3.79 2.238-6.423 5.493-6.423 3.256 0 5.01 2.398 5.01 5.936v1.04h-8.199a3.718 3.718 0 001.21 2.672 3.687 3.687 0 002.764.95 5.096 5.096 0 003.34-1.106v2.012a5.943 5.943 0 01-3.757 1.073h.083zm-3.673-7.48h5.994c0-1.794-.952-3.152-2.822-3.152a3.332 3.332 0 00-2.187.966 3.36 3.36 0 00-.985 2.187z" fill="#010101"/></svg>