<svg width="104" height="105" viewBox="0 0 104 105" fill="none" xmlns="http://www.w3.org/2000/svg"><g clip-path="url(#clip0)"><path d="M31.933 87.605v9.818c0 2.789-1.35 4.264-3.93 4.264s-3.945-1.528-3.945-4.385v-9.683H20.56v9.804c0 4.828 2.701 7.577 7.402 7.577 4.7 0 7.484-2.816 7.484-7.738v-9.67l-3.512.013zm12.874 0l-7.605 17.14h3.593l1.472-3.312.108-.242h7.903l1.553 3.568h3.674l-7.55-17.033-.068-.107-3.08-.014zm20.83 0l-3.918 11.802-3.81-11.775h-3.741l6.011 17.14h2.904l3.931-11.252 3.931 11.252h2.918l5.998-17.14h-3.634l-3.823 11.775-3.917-11.802h-2.85zm34.284 0v17.114h3.458V87.605H99.92zm-99.138 0v17.14H4.27v-6.96h7.888v6.96h3.512v-17.14h-3.512v6.92H4.27v-6.92H.783zm81.915 0v17.14h13.035v-3.125h-9.59v-4.251h6.375v-3.125h-6.376v-3.5h9.267v-3.125l-12.712-.014zm-36.405 4.332l2.499 5.74.175.403H43.66l.175-.403 2.459-5.74z" fill="#232527"/><path d="M44.403 0c-1.351.12-5.134.966-5.134.966a14.89 14.89 0 00-6.501 3.542A14.74 14.74 0 0028.8 10.73a15.096 15.096 0 00-.661 3.836v1.676a19.99 19.99 0 00.702 4.547c2.837 12.46 16.723 32.912 19.709 37.19.216.215.378.135.378.135a.405.405 0 00.297-.403C53.845 12.07 44.403 0 44.403 0zm15.21 0s-9.456 12.07-4.877 57.804a.373.373 0 00.288.37.38.38 0 00.428-.195c3.053-4.413 16.872-24.731 19.695-37.137 0 0 1.527-6.009 0-10.059a14.739 14.739 0 00-3.985-6.248A14.89 14.89 0 0064.624.992 49.5 49.5 0 0059.613 0zM15.927 13.72s-8.105 7.605-8.456 15.652v1.502a15.172 15.172 0 005.282 10.34c7.916 7.685 27.11 17.368 31.569 19.568.067 0 .297.107.432-.067a.335.335 0 00.108-.161v-.202A234.744 234.744 0 0015.927 13.72zm72.148 0a235.59 235.59 0 00-28.88 46.498.454.454 0 00.08.51.435.435 0 00.162.067h.256c4.58-2.253 23.64-11.883 31.543-19.514a15.263 15.263 0 005.254-10.434c.595-8.905-8.415-17.14-8.415-17.127zm15.007 26.3S75.904 54.505 61.855 63.907a.416.416 0 00-.162.469s.135.241.338.241h24.544a19.379 19.379 0 005.498-1.26 18.65 18.65 0 0010.293-9.764 18.793 18.793 0 001.648-7.739V45.6a18.382 18.382 0 00-.932-5.633v.053zM.919 40.087a18.653 18.653 0 00.855 13.758 18.855 18.855 0 0010.087 9.471 19.654 19.654 0 006.12 1.342c.472.08 19.005 0 23.977 0a.435.435 0 00.337-.215.134.134 0 000-.067v-.188a.565.565 0 00-.162-.228C28.125 54.545.92 40.087.92 40.087zm40.525 26.824L9.457 68.064c3.458 6.143 9.307 10.917 15.4 9.388 4.187-1.046 13.697-7.63 16.844-9.857.243-.228.162-.403.162-.403-.068-.254-.405-.254-.405-.281h-.014zm21.181 0s-.283 0-.365.255a.453.453 0 00.122.429c3.053 2.186 12.333 8.624 16.804 9.87.594.17 1.206.265 1.824.282h.675c2.986-.107 8.213-1.636 12.941-9.71l-32-1.126z" fill="#CF0A2C"/></g><defs><clipPath id="clip0"><path fill="#fff" d="M0 0h104v105H0z"/></clipPath></defs></svg>