<svg width="95" height="96" viewBox="0 0 95 96" fill="none" xmlns="http://www.w3.org/2000/svg"><g clip-path="url(#clip0)" fill="#fff"><path d="M47.5 6.26c-1.033 0-1.87-.84-1.87-1.876V1.875C45.63.839 46.467 0 47.5 0c1.033 0 1.87.84 1.87 1.875v2.51a1.873 1.873 0 01-1.87 1.874zM17.124 18.872c-.479 0-.957-.183-1.323-.55l-2.55-2.556a1.879 1.879 0 010-2.652 1.867 1.867 0 012.644 0l2.55 2.556c.731.733.731 1.92.001 2.652-.365.367-.844.55-1.322.55zm60.752-.001c-.478 0-.957-.183-1.322-.549a1.879 1.879 0 010-2.652l2.551-2.557a1.868 1.868 0 012.645 0c.73.733.73 1.92 0 2.652l-2.551 2.557a1.862 1.862 0 01-1.323.55zm15.086 30.45h-2.504c-1.032 0-1.87-.84-1.87-1.875 0-1.035.838-1.875 1.87-1.875h2.504c1.033 0 1.87.84 1.87 1.875a1.873 1.873 0 01-1.87 1.875zm-88.42 0H2.038c-1.033 0-1.87-.84-1.87-1.875 0-1.035.837-1.875 1.87-1.875h2.504c1.032 0 1.87.84 1.87 1.875a1.873 1.873 0 01-1.87 1.875zm78.878-2.653c0-19.855-16.113-36.008-35.92-36.008-19.806 0-35.92 16.153-35.92 36.008 0 15.802 10.309 29.74 25.243 34.39v2.09a1.874 1.874 0 00-1.596 1.855v9.123c0 1.035.837 1.875 1.87 1.875h20.806c1.033 0 1.87-.84 1.87-1.875v-9.123c0-.942-.693-1.722-1.596-1.855v-2.09c14.934-4.65 25.244-18.588 25.244-34.39zm-68.1 0c0-17.787 14.436-32.258 32.18-32.258 17.745 0 32.18 14.47 32.18 32.258 0 14.592-9.81 27.408-23.856 31.168a1.875 1.875 0 00-1.387 1.811v3.481H40.563v-3.481c0-.85-.57-1.592-1.388-1.812C25.13 74.076 15.32 61.26 15.32 46.668zM56.033 92.25H38.967v-5.373h17.066v5.373z"/><path d="M70.936 46.956a1.89 1.89 0 01-1.76-1.245 1.894 1.894 0 01.55-2.06 1.883 1.883 0 012.197-.164c.653.407.997 1.204.846 1.96a1.89 1.89 0 01-1.833 1.508zm-23.106 6.74c-5.715 0-10.364-4.66-10.364-10.39s4.65-10.391 10.364-10.391c5.716 0 10.365 4.661 10.365 10.39 0 5.73-4.65 10.391-10.364 10.391zm0-17.031c-3.652 0-6.624 2.979-6.624 6.64 0 3.662 2.972 6.641 6.624 6.641 3.653 0 6.625-2.979 6.625-6.64 0-3.662-2.972-6.641-6.624-6.641z"/><path d="M70.472 52.51a1.868 1.868 0 00-2.354 1.209 21.099 21.099 0 01-5.203 8.517c-.886.888-1.84 1.69-2.854 2.402V59.53c0-2.6-2.11-4.714-4.703-4.714H40.303c-2.593 0-4.703 2.114-4.703 4.714v5.108a21.4 21.4 0 01-2.855-2.402c-4.022-4.032-6.238-9.402-6.238-15.122 0-5.72 2.216-11.09 6.239-15.122 4.022-4.033 9.379-6.254 15.084-6.254 5.706 0 11.063 2.221 15.085 6.255a21.288 21.288 0 013.982 5.522 1.867 1.867 0 002.51.835 1.877 1.877 0 00.833-2.517 25.031 25.031 0 00-4.68-6.493c-4.729-4.74-11.025-7.352-17.73-7.352-6.704 0-13 2.611-17.729 7.352-4.73 4.74-7.334 11.052-7.334 17.774 0 6.722 2.605 13.034 7.334 17.774a24.94 24.94 0 006.53 4.716 25.063 25.063 0 0011.2 2.629c3.844 0 7.688-.875 11.193-2.626l.006-.003a24.942 24.942 0 006.53-4.716 25.155 25.155 0 006.117-10.02 1.875 1.875 0 00-1.206-2.359zM39.34 66.732V59.53c0-.532.431-.964.962-.964h15.056c.53 0 .962.432.962.964v7.203a21.45 21.45 0 01-16.98 0z"/></g><defs><clipPath id="clip0"><path fill="#fff" d="M0 0h95v96H0z"/></clipPath></defs></svg>