<svg width="136" height="118" viewBox="0 0 136 118" fill="none" xmlns="http://www.w3.org/2000/svg"><path d="M101.26 18.797c-8.59 0-15.541 6.956-15.541 15.55 0 8.594 6.952 15.55 15.541 15.55s15.542-6.956 15.542-15.55c.203-8.389-6.953-15.55-15.542-15.55zm0 28.235c-6.952 0-12.473-5.73-12.473-12.48 0-6.956 5.726-12.48 12.473-12.48 6.952 0 12.473 5.73 12.473 12.48.205 6.954-5.521 12.48-12.473 12.48z" fill="#1B75BC" stroke="#1B75BC" stroke-width=".5" stroke-miterlimit="10" stroke-linecap="round" stroke-linejoin="round"/><path d="M128.048 41.098L135 39.871V28.824l-6.952-1.227c-.614-2.455-1.637-4.911-3.066-7.365l3.885-5.729-7.975-7.774-5.726 4.092c-2.249-1.433-4.703-2.25-7.361-2.865L106.579 1H95.538l-1.226 6.956c-2.454.615-4.909 1.638-7.158 2.865l-5.93-3.888-2.454 2.455C65.683 3.865 50.757 3.456 37.465 8.365c-3.477 1.227-6.952 3.068-10.224 5.115l1.637 2.659c3.066-1.841 6.338-3.48 9.61-4.706 12.27-4.5 25.968-4.297 38.035.409l-3.067 3.068 4.09 5.73c-1.227 2.25-2.25 4.705-2.864 7.364l-6.952 1.227v11.047l6.952 1.227c.615 2.659 1.635 4.911 3.067 7.161l-3.886 5.73 7.77 7.774 5.725-4.092c2.25 1.433 4.704 2.25 7.361 2.865l1.226 6.956h11.042l1.226-6.956c.614-.206 1.023-.206 1.635-.409 0 16.573-7.77 32.53-21.063 42.556-23.31 17.595-56.437 12.889-74.024-10.435C-.167 73.014.65 46.007 16.192 27.184l1.431 7.774 3.067-.615-2.25-12.685-12.678 2.25.615 3.274 6.952-1.227C-2.621 45.802-3.236 74.035 12.306 94.7A56.233 56.233 0 0057.088 117a55.603 55.603 0 0033.535-11.253c14.518-10.844 22.696-28.03 22.288-46.239.817-.409 1.84-.818 2.657-1.432l5.726 3.888 7.77-7.774-4.089-5.73a23.286 23.286 0 003.073-7.362zm-2.863 12.685l-4.089 4.297-5.318-3.682-.817.614c-2.455 1.636-5.112 2.865-8.181 3.48l-1.023.205-1.226 6.342h-5.929l-1.226-6.342-1.023-.205c-2.863-.615-5.726-1.636-8.18-3.274l-.818-.614-5.317 3.682-4.295-4.091 3.68-5.32-.614-.819c-1.636-2.455-2.863-5.114-3.477-8.184l-.205-1.024-6.338-1.227V31.69l6.338-1.227.205-1.023c.614-2.865 1.637-5.73 3.272-8.185l.614-.818-3.68-5.32 4.089-4.298 5.317 3.683.818-.615a24.116 24.116 0 018.18-3.479l1.023-.205 1.226-6.342h5.929l1.227 6.342 1.022.205c2.863.615 5.726 1.638 8.181 3.274l.817.614 5.318-3.682 4.294 4.091-3.68 5.32.614.818a24.179 24.179 0 013.477 8.185l.206 1.024 6.338 1.227v5.932l-6.338 1.227-.409 1.023a25.427 25.427 0 01-3.272 8.185l-.614.818 3.884 5.32z" fill="#1B75BC" stroke="#1B75BC" stroke-width=".5" stroke-miterlimit="10" stroke-linecap="round" stroke-linejoin="round"/><path d="M51.16 60.944c0 3.068 2.657 5.73 5.725 5.73 1.023 0 2.046-.206 2.863-.818l13.293 13.3 2.249-2.25-13.293-13.3c.409-.818.818-1.842.818-2.865 0-2.66-1.84-4.912-4.09-5.524V29.435H55.66v25.78c-2.66 1.023-4.5 3.07-4.5 5.73zm5.725-2.659c1.432 0 2.658 1.227 2.658 2.66 0 .817-.206 1.431-.818 1.84-.408.41-1.226.818-1.84.818-1.431 0-2.657-1.227-2.657-2.659 0-1.432 1.226-2.659 2.657-2.659zm-1.634-45.832h3.066V23.5H55.25V12.453zm14.167 7.235l-2.964-.793 1.43-5.336 2.96.793-1.426 5.336zm34.019 55.21l-5.333-1.43.793-2.963 5.333 1.43-.793 2.963zm-8.485 6.196l4.78 2.762-1.53 2.656-4.782-2.761 1.532-2.657zM79.798 97.45l2.76 4.786-2.657 1.532-2.76-4.781 2.657-1.538zm-13.142 5.384l2.961-.793 1.429 5.334-2.96.795-1.43-5.336zm-23.716 4.598l1.43-5.336 2.96.795-1.429 5.336-2.96-.795zM31.339 102.2l2.76-4.782 2.656 1.533-2.76 4.782-2.656-1.533zM15.657 86.632l-1.534-2.657 4.78-2.762 1.534 2.657-4.78 2.762zM10.45 75.148l-.795-2.965 5.333-1.43.795 2.963-5.333 1.432zm5.32-26.655l-.796 2.965-5.33-1.43.795-2.968 5.33 1.433zm18.174-30.438l2.76 4.782-2.658 1.535-2.758-4.782 2.655-1.535zm11.762-4.473l1.43 5.334-2.964.795-1.429-5.336 2.963-.793zM90.213 96.28l-7.805-7.812 2.166-2.167 7.808 7.81-2.169 2.17zm-34.757 2.31h3.066v11.047h-3.066V98.59zM29.41 86.486l2.166 2.172-7.807 7.81-2.166-2.168 7.807-7.814zM8.423 59.512h11.041v3.068H8.423v-3.068z" fill="#1B75BC" stroke="#1B75BC" stroke-width=".5" stroke-miterlimit="10" stroke-linecap="round" stroke-linejoin="round"/></svg>