<svg width="149" height="42" viewBox="0 0 149 42" fill="none" xmlns="http://www.w3.org/2000/svg"><g clip-path="url(#clip0)"><path d="M136.329 0c2.509.006 4.96.753 7.042 2.145a12.63 12.63 0 014.658 5.676 12.56 12.56 0 01.703 7.293 12.6 12.6 0 01-3.489 6.453 12.702 12.702 0 01-6.504 3.437c-2.462.48-5.011.224-7.327-.737a12.67 12.67 0 01-5.68-4.664 12.575 12.575 0 01-2.119-7.017 12.556 12.556 0 013.733-8.919A12.67 12.67 0 01131.47.943c1.542-.63 3.193-.95 4.859-.943zm2.173 12.632a.723.723 0 01-.218.245 37011.53 37011.53 0 00-6.383 5.861c-.167.154-.167.245-.02.391a116.94 116.94 0 011.692 1.834c.142.16.245.171.402.02 1.127-1.043 2.264-2.079 3.395-3.117l5.32-4.884c.408-.374.408-.367 0-.733l-6.918-6.35c-.606-.557-1.227-1.107-1.821-1.664-.101-.093-.187-.17-.317-.029-.601.651-1.205 1.303-1.812 1.954-.088.095-.1.166 0 .266 1.026.938 2.045 1.883 3.069 2.824l3.437 3.158a.36.36 0 01.174.227v-.003z" fill="#E85222"/><path d="M3.026 26.984a4.495 4.495 0 012.588-1.92 4.117 4.117 0 012.612.147c.831.332 1.53.925 1.99 1.69.14.244.197.178.327 0 .982-1.304 2.273-2.01 3.928-1.983a4.08 4.08 0 012.868 1.207 4.038 4.038 0 011.17 2.872v7.942c0 .42 0 .423-.43.423h-2.172c-.417 0-.42 0-.42-.432 0-2.296-.039-4.592.012-6.886.037-1.595-1.24-2.425-2.678-2.198-1.286.205-2 1.087-2.018 2.52-.024 2.14-.012 4.28-.017 6.42v.293c0 .195-.073.285-.277.283H8.034c-.287 0-.275-.176-.275-.371v-6.155c0-.44-.02-.88-.059-1.317-.088-.962-.876-1.648-1.932-1.71-1.593-.082-2.617.848-2.7 2.443-.106 2.215-.022 4.433-.05 6.65 0 .462 0 .462-.475.462H.333c-.245 0-.343-.088-.343-.34.006-3.84.01-7.679.01-11.515 0-.269.102-.36.365-.354.776.011 1.552.011 2.327 0 .246 0 .346.088.34.342-.016.495-.006.991-.006 1.487zm109.163-.261c.265-.245.461-.445.682-.618a5.495 5.495 0 014.358-1.065 5.497 5.497 0 013.697 2.53c1.499 2.355 1.443 5.899-.568 8.114a5.607 5.607 0 01-7.855.542c-.081-.068-.167-.134-.26-.21-.091.115-.057.244-.057.342v5.244c0 .388 0 .398-.393.4h-2.297c-.246 0-.342-.083-.342-.339V25.492c0-.262.098-.337.346-.335h2.328c.262 0 .375.078.363.352-.002.38-.002.757-.002 1.214zm-.121 4.472c-.039 1.841.982 3.465 2.985 3.663 1.284.125 2.406-.2 3.192-1.275.879-1.19.935-3.175.169-4.452-.766-1.277-2.052-1.685-3.41-1.532a3.093 3.093 0 00-1.619.613 3.07 3.07 0 00-1.032 1.385 3.816 3.816 0 00-.282 1.598h-.003zm-81.834-4.719v-.997c0-.244.096-.327.334-.325h2.386c.229 0 .307.088.307.316v11.574c0 .244-.098.323-.331.32h-2.357c-.263 0-.349-.105-.341-.35v-1.05c-.197.164-.324.282-.46.386a5.632 5.632 0 01-4.543 1.132 5.638 5.638 0 01-2.208-.927 5.604 5.604 0 01-1.62-1.758c-1.409-2.313-1.237-5.566.447-7.686a5.418 5.418 0 011.949-1.61 5.448 5.448 0 012.47-.554c1.434 0 2.75.413 3.815 1.431.049.035.1.068.152.098zm.16 4.792a3.315 3.315 0 00-.066-.816c-.246-1.26-.872-2.21-2.129-2.652a3.855 3.855 0 00-2.317-.066 2.965 2.965 0 00-1.856 1.387 4.256 4.256 0 00-.506 2.767c.204 1.632 1.257 2.758 2.892 2.963 1.227.154 2.33-.117 3.16-1.107a3.8 3.8 0 00.822-2.481v.005zm64.096-.005a6.327 6.327 0 011.066-3.533 6.374 6.374 0 012.86-2.347 6.412 6.412 0 016.963 1.364 6.332 6.332 0 01-.958 9.776 6.406 6.406 0 01-3.548 1.071 6.337 6.337 0 01-4.529-1.83 6.272 6.272 0 01-1.854-4.5zm6.383 3.6c1.65 0 2.853-.925 3.253-2.515.229-.876.18-1.8-.14-2.648a2.987 2.987 0 00-1.682-1.785 3.57 3.57 0 00-1.2-.266c-1.242-.074-2.514.388-3.167 1.656-.4.8-.544 1.704-.412 2.589.213 1.812 1.531 2.982 3.343 2.982l.005-.012zm-44.205-3.617c0-1.257.375-2.486 1.077-3.531a6.377 6.377 0 012.87-2.339 6.414 6.414 0 016.958 1.389 6.32 6.32 0 011.366 6.93 6.357 6.357 0 01-2.362 2.844 6.406 6.406 0 01-3.554 1.057 6.335 6.335 0 01-4.518-1.847 6.273 6.273 0 01-1.837-4.503zm2.977-.083c.032 2 1.049 3.541 3.096 3.693 1.318.097 2.634-.394 3.287-1.744.351-.747.48-1.579.373-2.396-.343-3.188-3.579-3.664-5.295-2.516-1.083.72-1.407 1.827-1.453 2.963h-.008zm16.318-6.25c1.606.049 3.098.444 4.404 1.421.209.156.246.276.096.489a27.223 27.223 0 00-.938 1.524c-.125.215-.245.23-.437.095a6.096 6.096 0 00-2.518-1.011 4.085 4.085 0 00-1.552.034 1.1 1.1 0 00-.862.718c-.164.489.042.899.572 1.126.776.306 1.58.539 2.399.694.925.205 1.826.471 2.6 1.045 1.392 1.03 1.718 3.1.756 4.64-.71 1.129-1.787 1.686-3.071 1.837-2.426.286-4.574-.422-6.491-1.895a.296.296 0 01-.079-.489c.347-.52.678-1.052.997-1.59.125-.21.226-.244.43-.09a8.248 8.248 0 003.174 1.485 3.973 3.973 0 001.75.027 1.243 1.243 0 00.982-1.109.99.99 0 00-.81-1.07c-.704-.175-1.414-.327-2.109-.537a11.011 11.011 0 01-2.15-.87c-1.719-.95-2.328-2.945-1.377-4.591.527-.916 1.389-1.378 2.374-1.649a6.826 6.826 0 011.86-.234zm-40.687 6.418c0-3.211 2.111-5.78 5.224-6.31 2.047-.35 3.864.229 5.4 1.636a.244.244 0 01.025.39 57.365 57.365 0 00-1.308 1.585c-.17.215-.268.194-.452 0-1.36-1.34-3.726-1.323-4.99.025-1.447 1.541-1.174 4.484.522 5.642a3.557 3.557 0 004.493-.535c.189-.21.28-.178.449 0 .49.508.99 1.006 1.497 1.495.17.163.153.269 0 .427-1.784 1.788-3.927 2.347-6.323 1.637-2.455-.733-3.928-2.404-4.446-4.907a4.427 4.427 0 01-.091-1.085zm53.837 6.283c-3.322 0-5.948-2.176-6.442-5.32-.582-3.698 1.876-6.773 5.261-7.283a6.152 6.152 0 015.246 1.612c.18.161.219.276.042.488a33.971 33.971 0 00-1.252 1.517c-.174.222-.282.244-.491.027-1.228-1.221-3.376-1.319-4.691-.244a3.305 3.305 0 00-1.122 1.976 3.936 3.936 0 00.613 3.175c.857 1.194 2.423 1.617 3.906 1.094a3.09 3.09 0 001.358-.899c.145-.168.245-.17.4 0 .506.52 1.019 1.032 1.54 1.537.142.139.154.244 0 .383-1.226 1.24-2.687 1.959-4.368 1.937zm-37.895-9.526a6.015 6.015 0 011.013-1.603 4.62 4.62 0 013.045-1.55c.432-.042.468 0 .468.434v2.198c0 .267-.066.379-.36.381a4.233 4.233 0 00-2.96 1.253 4.19 4.19 0 00-1.214 2.963v4.804c0 .398 0 .406-.415.406h-2.268c-.245 0-.349-.076-.349-.335V25.496c0-.261.104-.337.352-.332.775.01 1.551.01 2.327 0 .262 0 .363.08.358.354-.005.845.003 1.703.003 2.57z" fill="#2B2A29"/></g><defs><clipPath id="clip0"><path fill="#fff" d="M0 0h149v42H0z"/></clipPath></defs></svg>