<svg width="1141" height="399" viewBox="0 0 1141 399" fill="none" xmlns="http://www.w3.org/2000/svg"><path opacity=".3" fill-rule="evenodd" clip-rule="evenodd" d="M688.73 114.554l2.259-5.386 2.696-1.408 6.774.286.987-1.429 2.543-2.682 4.669-1.715.132-2.969 1.118-2.968 3.683-1.847.131-1.979 2.412-2.418 2.543-.55 1.973-2.836 1.272-1.276-1.557-1.143-.132-2.11.987-1.276 4.801 1.407 1.973-.99 1.557-3.825 2.258-.99 5.217-.703 2.828-.704 2.412-.154 3.376.286 2.258-1.407.724.132 1.819 2.419.285 1.693 1.71 1.847 3.091-.286 1.557-.44 2.696.154 2.105-1.43 4.669-.417.987 2.419.57 2.396.833 1.847 7.059 4.244 2.828 2.132 5.24 2.55 1.973-1.143 2.959-.989 3.113-2.397 2.543-.285 2.828.703 2.105 1.561 2.412-.703 6.357.132 2.39 1.143 2.696-.286.702-.725 2.674.44 4.955-.572 2.828-4.53-1.557-1.693-2.981-2v-4.53l.855-4.815-.417-1.847-2.828-.99-1.425-1.824-4.362-1.144-.987-3.672V55.63l2.96-3.408V50.11l1.556-2.55 2.39-.858 1.425.571 1.118-2.418-.833-2.397.416-2.418 1.842-1.562 2.828.154 1.973 1.276 3.814.99 3.947 1.978.57.99 3.376 1.143 3.683.286 5.217-.154 1.973 1.275 1.425 1.43 3.815.417 1.973.99 2.543.417 6.226-.286 2.258 1.012 1.118 2.264v1.98l1.425 1.978v2.133l1.403 1.56 1.557 3.255-.154 2.682 1.842 1.561h1.688l2.981 2.683.833 1.561 4.385 1.275 4.516 2.419h1.973l1.14-.99 4.385.286 1.973-1.429 2.258.154 1.841.55 1.842-.55 2.521-2.704 4.253-1.408 5.788-.44 2.959-1.824 3.815-.154 3.683-.99 3.244 1.847 4.363.418 5.656-.132 2.96 4.244 5.239 1.979 4.231-.132 3.113-.704 1.403 1.407 1.557 4.684 2.959 1.978 1.842.99 1.841.418 2.544 2.836 2.258.154 6.642-.726 5.788 1.715 8.747-.154 3.815-.417 1.424-1.276h3.248l2.83 1.561 1.68-.285 2.26-3.54 5.5-3.123h3.4l2.26-2.682 2.54-.286h6.65l2.96-2.55.85-2.969v-1.297l1.82-2.814 3.11-1.43 2.13-2.264 1.12-3.122 2.26-2.111h2.54l.85.857 4.39-1.143 2.8.286 3.4 2.265 1.69 2.55 2.26.836 2.69-1.407 1.56 1.143 2.54-.154 3.38-1.825v-1.561l4.95-.858 5.51 1.693 1.55 1.715-3.24 22.801.7 4.947-1.27 4.266.42 2.968-1.98 6.376 2.41 4.662 6.91 3.408 4.67-3.694h5.92l6.36 1.143 2.98 2.968 3.53-5.518-.44-3.254.28-2.705 3.97-1.275 1.56-1.275 6.49 1.715 3.81 4.661 5.37 4.815 4.23 5.387 5.38 3.826.13 2.55.98 1.979v2.551l-1.11 1.715v2.11l-1.28 1.715-2.12-.439-1.41-1.407-3.11.417-1.69 1.144-4.1-1.847-2.54.571-2.7 3.672-3.94 3.254-2.26 1.43-2.67-1.847-1.14.285-.14 2.683-1.14 1.715-1.97.264-1.56-.264-1.11 1.693-2.57 3.958-.7 4.397.28 3.122-1.55 1.825-3.09.858-6.65 4.397h-3.39l-3.66-.703-1.71 1.275-2.68 5.804-2.67 1.979-3.4 2.397-1.97 2.133-.86 2.418-1.4.286-3.12-1.429-3.53-.858-4.51-1.561-3.53-2.528-3.68-.154-5.64 1.275-3.4 2.551-2.12 2.968-.13 6.53.28 3.1-.28 2.133 6.64 4.244 5.92 3.694v1.846l-1.41 2.815-1.97 2.836-6.36 7.234-3.81 6.222-2.13 4.816h-2.39l-4.67 1.561-3.53.154-3.94 2.682-3.97 2.968-4.1.154-6.07.704-4.1 1.407-4.803 1.275-10.435 3.694-8.199 2.836-4.1 4.662-6.357 5.101-2.675 2.133-3.398.131-4.363-1.275v-1.539l-.57-2.287-6.226 1.847-5.064.704-5.24-2.682-4.231-.418-9.317-3.54-9.185-4.266-4.955-4.815h-3.793l-10.61-1.275-8.901.286-2.258-.572-1.535 1.011-.854 1.693-4.955 1.847-6.906.704-12.145-1.143-8.901.571-6.774-.418-5.809.704-2.96.286-2.543-.858-3.244-6.376-1.272-3.122-3.113-4.661-2.543-2.969-1.688-4.265-.132-1.825-2.126-2.265-2.258-.857-1.403-.286-.724-1.561-.285-2.683-.986-.439-1.403.439h-4.1l-3.529-2.132-5.371-3.826-1.842-.418h-1.272l-2.674-.44-1.118-1.693-4.67-2.968-9.887-2.265-.986.286-1.272 1.121-3.946.44h-6.358l-14.425-2.99-3.244-1.847-3.245-5.079-.57-2.265v-2.286l.987-1.539 2.126-1.562.855-2.704-1.71-1.979-.701-3.408.701-1.825-.131-3.408-1.272-1.693-1.841-3.122-2.105-.989-2.412-1.979-.855-2.551-1.534-2.133-.855-2.682-.417-2.265-1.556-2.418-2.412-1.847-2.104-.704-1.14-1.693-2.39-.989-2.28.132-1.403 1.429-1.556.703-1.557-.571-2.39-2.551-.701-1.407h-2.828l-2.828 1.407-1.14 1.275-.548 1.715-1.425.132-2.828-1.978-.702-2.133-.131-.99-1.973-2.55-2.982-1.847-2.258-2.551-1.688-.703-1.556-1.407-.57-1.847-.132-1.847-.855-1.561-.417.154-.284.835-.855.286-1.119-1.825-.855-.858v-3.408l-.285-1.693z" fill="#1B75BC"/><path opacity=".5" fill-rule="evenodd" clip-rule="evenodd" d="M263.1 281.701l-10.414-6.047-9.755-1.473-7.41 2.572-8.528 7.564-.219-2.946-.68-3.32 1.513-3.98.57-4.222-.11-1.517.702-1.231-1.623-1.011-3.135.286-2.28-1.078-2.937-.638-2.061.968-.943-.418-1.052-2.265-1.381-1.275-1.25-2.396-1.556-.88-1.184.528-2.631.681-.701-.022.131-3.232-.153-3.012-4.188-4.925-.876-1.913-1.097-.418-1.118-3.056-1.578-1.011-1.14-2.309-2.719-1.055-2.192-.154-1.6-1.847.109-1.1.987-1.209 1.271.462 4.407-.264 1.074.528 1.754-.088 1.272.791 1.929-1.451 1.03-.462 2.477.88 1.294-1.078-.987-2-3.113.154-.526-.352v-2.067l-2.85-3.276-.197-1.143 1.359-.814v-2.66l-.373-1.166 1.645-1.649 2.937-.879 2.39-.792 2.236.99 2.981-.748 2.302-.396 1.338 1.21 1.447-.814h1.666l2.411 2.551h2.455l3.464-1.672.614-1.868-2.543-.858-2.653-.66-1.688-3.518.373-2.88 1.754-.747 1.293-1.562.241-.307-1.249-1.254-.811-1.209-.439-1.011 1.601-2.925.35-2.506-2.411-2.419-.526-1.341 1.074-1.759v-1.341l-2.127-.44-1.03-1.825-.482-1.473-5.393-.308-1.776-.264-2.411.484-.285 1.055-1.601.88-.153 1.539-1.031.528-1.666-.572-.175-1.407-2.412.176-.614.637-1.008-1.209.153-2.111-1.118-1.341-1.337 1.187h-1.534l-1.425-.989-4.122.132-2.105 2.111-.745 2.154-.438.286-.855-.857h-1.688l-1.688 2.374-1.71-.132-1.272 2.067-2.28 1.891-1.622-.33-.504 1.979-.702.726-.789-.902-1.71-.198-1.009 1.584h-1.468l-.724-1.606-1.14.176-3.858-2.44-3.683 1.275-5.064-3.276.306-1.891h5.92l-6.336-10.576-6.862-6.464-9.975-2.749-1.052 1.957-4.122-3.408.943-2.176-2.74-4.442-5.788-2.287 2.083-4.529 1.315-9.564-2.302-2.155-.657-6.772 2.565-1.275 4.187-5.057v-3.826l1.732-2.199 7.432 6.772.92 2.661 4.78 2.836 5.108-.484-.592-4.595 1.863-1.583-3.31-11.522 3.99-.373h5.195v-4.134l-2.082-2.638.767-3.035 4.209-2.594 2.083-.088 1.447-4.112 1.995-1.495 3.222.924.505-3.035-.68-2.726.482-1.253 3.924 2.176 3.245 1.43-.351 1.473-2.302 2.704 2.105 1.913 3.113-1.803.833-2.265 1.228-.791.153 2.836 2.631-2.836.373-1.65 2.499-.263 3.222-2.11 2.237-.133 1.49 3.804 3.53 2.463 5.437-1.76h2.17l1.403 2.265 1.71.132 2.982 3.848h3.113l2.28 2.814 4.253 3.255 2.17.263 1.096 1.715.154 3.584 2.302.77 2.258-3.386-.417-3.54 2.368-1.363 1.863 2.66 5.481.836 1.666 2.792 2.784 1.143 3.88-3.122.264-5.343 3.091-.286.285-2.77 1.71-.638 1.907 2.551 1.491-2.836 2.959-.484 4.078 3.826.921 1.693 4.845-.506-.592-3.628 2.06-.726 3.311.462 1.469-2.001 3.2 1.781 1.732.814-.723 1.451-2.609 1.495 3.398 3.892 2.85.945 1.228-.813 1.863 1.055 4.516-.264 5.262 2.991 3.617-.792 1.512-3.32.286-2.814 1.074-1.056 4.209 2.639 4.297.483 5.415-1.759 1.425-2.682-.724-11.94-1.688-1.186-4.231-.154-2.609-2.09-.438-1.67-3.53-.748-2.017-2.022h-3.31l-.11-1.43-.942-1.847.285-.989 2.718-.418.614-3.276 2.17-2.66-.811-3.914-2.214-.286-.11-2.726 3.157-4.552 3.223-2.946 5.919-.55 2.587.902 2.061-1.54v-3.54l-3.135-.945-2.236-2.286-2.741.154-1.6 1.34-2.719-1.165-3.595-.153-.197-1.408.986-.857 4.385-.154-1.447-4.024-4.165.616-1.71-.616 1.008-1.143-1.513-3.474.746-.55 3.157-.307 1.534-1.803 1.645.11.876 1.605 3.508-.44 2.916 2.154 1.469-2.044V40.28l2.214-1.495 2.324.131 1.907 3.057 1.798-2.529.328-2.023 4.823-1.495 3.289-.264 3.836-1.869 3.859-.263.964-1.452 3.574-2.22 3.683-.132 2.367-1.65 1.798-.197 2.127.923 1.644-1.297-.132-3.122 1.403-1.188h3.311l.46-2.176 1.557-1.21 1.359 1.232 2.411.483 2.828-1.648 3.289-.946 6.226-4.222h1.271l1.535-1.077 3.508-.528 1.907-2.572 1.644.506 4.45-.946-.175-2.506-1.118-2.067 1.184-.638 4.077-.11.746-3.1 2.389-1.253 1.688.264L405.685 0l3.376 1.363 4.012-.374 3.508 2.375h3.661l3.42-1.451 2.477.286 1.228 3.408 1.206 1.055 1.008 2.793 2.039 2.682 1.929 1.143.263 1.341-.701 2.353.548 3.056-.11.682-2.477.616 1.491 3.32 2.06 1.627 3.245-1.98 2.214 1.804 2.149-.726.57-2.88 1.205-.55.921 2.815h2.39l.504-2.749-1.03-2.726.394-.242 4.582 3.408.68 4.485 2.017 4.09 2.148-.176 2.631-2.814-1.951-1.056-.505-.923 2.522-.572 5.371 2.639 2.192.044 2.148-1.76.965.528-.987 2.617-1.885 1.517v4.178l2.214 2.858 2.412-.176 1.732-2.177 3.091-.813 5.722 1.429 1.512 1.1 2.324-1.606-.548-3.32 2.346-.857 4.275-.55 2.981-1.979 1.316-2.66 2.126-1.803.285-2.155 3.157-3.144 2.236-.748 2.324-2.287 3.003-.813 3.618-1.21 1.205.858v2.155l-2.345 2.463-2.653.681 1.359 2.748 26.549 19.987 36.106 45.316 3.793-.748 2.675-1.561.701-2.287-.767-.637-.132-2.77 1.951-.924 3.727 1.759-.35 1.649.153 2.55 3.595.902 2.149 2.155 2.85.153 2.236-1.495 2.083-.33 3.726 2.155 3.311-1.429 2.389.55 3.091-1.231 1.075-1.781-1.009-1.474.395-1.099 4.538-.66h5.152l4.275 1.122 4.231 3.188 2.28 4.112 1.644 3.627h1.71l2.981.836 3.376 2.265h1.119l1.841.857.132 1.43-.548 1.231.109 2.594.746 1.979 1.512 1.561.833.836h1.447l2.784 1.231 2.456 1.143 1.052-1.583 2.258-1.121 6.73-.374 3.376-1.055 1.579-2.595 2.521-1.407.987.462-1.184 3.298.986 2.77 2.324.638 3.069 2.726 4.407 1.605.679.88-2.28 2.572-2.28 1.166-4.055 4.309-.154 2.704.789 1.452-1.622 2.77-4.253 1.649-2.784 1.979-.592 3.584.132 6.31 3.025 6.003 2.609 3.584-.373 1.825-3.573 4.023-3.048 1.056-2.543 2.968-1.841.616-1.096-.44-.746-1.803h-2.85l-5.875 1.275-3.683-.286-5.678-1.957-3.486-.439-2.126.154-1.316 7.145-1.271 4.046-.154 3.518-1.403 8.443-.022 6.596-.767 2.419 1.929 1.473 3.069 1.275-1.205 2.573-.285 2.001h-1.71l-1.71 1.143h-1.951l-1.776-1.649-2.105.989-3.442.814-6.489 1.407-4.582 1.715-1.841-.022-1.798-1.033-2.74 1.209-2.806 2.617-.154 2.396 2.85 2.221 4.275-.286 2.916.374v.835l-2.039 2.199 1.337 4.617.285 2.067 1.338 2.155.504 2.836 2.718 4.662.57 2.44 3.092 2.265 1.052 5.673-1.513 1.407-1.206 3.1 2.346 2.594-1.074.55-.439 1.737-2.74 2.045.132 3.782-2.434 1.341-6.204-1.627-6.292-7.322-2.806.748-6.073-2.507-9.054-.462-4.56 1.54-7.344-1.935-7.147 1.693-3.485.417-3.42-1.055-2.872 2.419-2.477 1.165-7.914-1.121-5.876-1.539-3.113-1.869-4.779.153-1.732.748-3.332-.198-2.784-.571-2.083 1.209.329 3.386.855 3.342.109 3.474-4.143.66-9.12.263-10.676-1.121-2.368-1.363-5.327-.792-3.047 3.386.942 1.627-2.872 1.957-.482 1.078-.767-.132-3.135 4.045-2.368.99-5.809 6.926-2.171 4.177-1.644 1.913-3.025 5.585-5.437 5.167-1.25-.924-6.708-3.276-5.064-.769-4.538.857-6.511 3.518-2.675-.242-6.073-16.974-10.347-1.275-.439-21.02-5.261 1.605-3.551-8.509-7.695-5.826h-24.313l-21.638 2.396-12.167-7.431-9.251-3.452-23.216-16.469-39.308 7.476 11.86 69.941-1.797.242-5.722 1.209-9.295-10.839z" fill="#1B75BC"/><path opacity=".3" fill-rule="evenodd" clip-rule="evenodd" d="M447.339 361.162l-1.798-2.617-3.354-1.539-3.902 1.056-.79-6.157.307-4.002-5.875-4.067-2.346.418-1.622-1.781-7.914-1.298-9.712-6.728-11.093-4.991-9.668-7.036-9.756-6.244-5.02-2.243-3.31-6.112-.987-3.87-2.981-2.133-2.543-8.641-6.336-4.617-3.332-.528-2.171 1.517-8.528-4.419-10.851-5.717-.987-3.386-8.616-5.189-9.909-4.969-7.892-.704 2.828 3.958-1.096.726-3.661-1.979-3.595 2.111-2.28 3.496-4.56.439-3.289 6.728 1.053 5.519 2.433 2.441-1.184 2.792-5.875-.923-6.336.527-11.729-69.149 38.102-7.256 22.997 16.336 9.296 3.43 12.342 7.564 21.901-2.419h23.94l7.278 5.497 3.793 9.037 4.91-1.495.417 20.624 10.545 1.275 6.072 17.018 3.53.33 6.621-3.628 4.253-.791 4.779.703 6.511 3.232 1.798 1.298 6.05-5.783 3.047-5.629 1.645-1.913 2.17-4.177 5.59-6.728 2.39-1.012 2.981-3.738.921.154.373-.857.548.879.197 2.617-7.081 11.169 3.069 1.935 6.731 2.023 2.521 2.462 2.959 1.034 2.85-3.012.373-3.76 1.513.308 6.774 5.365.745 2.594-3.946 4.331-4.735-.263-6.994 1.099-.964-1.847-3.639-3.694-4.845 4.991-2.916-.286-3.946 3.079-3.968 1.319-.176 4.112 4.517 2.264-.11 2.419-4.692 2.023-7.124 1.583 1.929 1.693.701 1.825-5.48 1.913-.417 3.386-2.411.615-6.512-1.033-3.266 2.682v4.882l4.121 5.958 2.894-1.605 3.53-.088.723 2.902-1.425 2.859 1.688 4.595 2.894 1.253.395 3.518-1.316 1.561-3.025 7.344-1.03 8.311-.746-.901-2.915-.33-2.412 2.265-1.556-.11z" fill="#1B75BC"/><path opacity=".3" fill-rule="evenodd" clip-rule="evenodd" d="M385.231 397.09l-.767-2.067-3.464-2.572h-2.85l-1.995 1.693h-2.083l-2.148-1.605-3.508-.946-1.315.352-.921-1.825.132-2.154-1.228-3.562 1.008-2.309-2.455-4.419-3.814-1.628-6.424-.571-5.919-8.201-5.656-1.298-3.091.66-.987-.77-.877-4.529-3.398-.616-6.072-2.462-2.346 1.627-2.148.11-8.353-5.299-4.626-1.319-5.349-4.288-3.398.154-2.784-1.297-3.332.967-1.075 3.232-4.998-1.055-6.643 1.165-6.05 5.211-2.456.154-2.082 2.705-1.25 3.671-6.906.418-2.718 1.627-2.499-6.882-1.403-5.057.307-7.366-.439-2.506v-4.178l-.899-3.276-4.011-2.023-1.601-2.748-2.455-.462-1.272-.879-2.236.549.154 1.935-.592-.967-.066-2.133 2.236-1.869 1.162 1.034 1.798-.462 2.565.769 1.227-1.649-2.214-3.078-1.71.66-.679-2.397.745-3.122-1.579-1.561-2.126 1.539-4.45-.726-1.25 1.474 1.732 1.891.11.483-3.99-3.76-.658-2.154-1.688-2.155-.68-7.234 1.754-2.858.636-4.728-3.179-5.079-.855-2.594-2.499-1.913-.855-1.979-2.236-2.396-.11-.77 8.879-7.915 7.059-2.485 9.383 1.451 10.15 5.893 9.515 11.147 6.204-1.319 2.214-.286 6.621-.571 6.445 1.055 1.666-4.002-2.653-2.66-.942-4.947 2.937-6.025 4.495-.418 2.367-3.737 3.026-1.715 3.683 2 2.302-1.539-2.258-3.144 5.831.506 9.734 4.903 8.286 4.991 1.009 3.408 11.159 5.893 9.01 4.661 2.324-1.605 2.806.396 5.897 4.375 2.543 8.641 2.96 2.111.942 3.672 3.508 6.464 5.218 2.331 9.69 6.2 9.711 7.058 11.093 5.013 9.822 6.75 7.804 1.32 1.754 1.912 2.455-.439 5.152 3.584-.263 3.583.789 6.267-.92-.902-3.311.704-2.981-1.847-3.574 1.055-4.406 3.233h-1.118l-3.924 1.011-1.71 1.209-1.71.77-.176 2.33 1.294 1.012v2.704l-3.398 3.562v3.98l-.899 3.474-2.017.506-2.521 2-.504 1.298-5.415 1.077-4.977 2.792.724 2.045-1.864 1.583-.438 2.001-1.929 2.089-4.078.704-1.359 1.363-.965-.858zM0 100.881l3.113-2.132 5.371-1.693 3.815 1.847 3.792-1.847 2.543-.286-1.556-4.244 4.253-.154 1.556-3.826 2.543-.835.987 1.693h3.244V86.15l-3.814-1.847.855-4.53 2.104-.417 2.697-4.815 5.064-2.419v-2.968l-2.258-.99 3.398-4.551 4.67-2.11 6.072-.858.57-3.826 2.522-1.275 1.14-2.969 3.529-.857 2.543 1.715 3.245-1.847 2.96 4.661 3.55-1.693 3.245.418 2.675 4.837 3.814-2.99 4.231-1.275 1.71 2.132h2.105l6.358 2.397.855 3.408-.987 3.826 2.543 2.968v4.397l3.376 3.694 1.557 3.958 3.814 5.387 2.96 2.11 1.271 4.816 4.955 1.275 5.503 4.969.416 2.683 3.815 2.55-1.688 1.429-2.96 4.948-7.629.989-3.245-2.968-1.271 2.396.285 3.54 2.959 4.684-.438 4.111 3.398 3.826v3.672l-.416-.132-6.227 1.693-4.362.44-2.127 5.519-.285 4.947-3.113.439-2.543-2.132-4.23 1.275-2.544-1.693-2.96.132-2.828 3.408-2.39-.858-.57-2.836-3.967-.418-4.648 2.683-1.973-.836-4.384-.725-1.272 1.275-2.126.154-2.39-2.265-5.086 1.979-.57-1.693-3.661-1.715-8.353-1.275-3.66-1.979-1.842-.132-2.96 2.55-4.67.132-10.303 1.561-2.543 1.276-4.648-2.419-2.411.286.131-1.407-2.96-4.816-1.117-4.243 2.258-3.694 2.828-.989v-9.213l-1.71-1.561-.702-3.54-1.973-3.1-2.258-6.816-.57-1.122zm142.087 241.198l-4.012-.198-3.42-1.825-.417-2.837-6.423-3.496.263-1.934-1.315-2.969-1.93.154-1.951-2.396h-.548l-.109-.154 1.753-.088 2.28-1.188 3.903 3.76 1.863-1.715h2.105l2.214 4.596 3.705.989 6.292 9.74-.592 1.583-3.661-2.022zm39.196 8.486l-.943-1.627-2.521-1.342-4.385-4.771 4.933-3.342-3.858-2.419-.614-1.121 1.929-1.495-2.411-2.441-1.294-2.352-1.228-.264-.307-.924h-1.907l-2.937 2.067-2.193.396-1.863 2.595-1.776.681-2.477 3.452h-1.403l-1.25 1.737-.438 1.649-2.193.99-1.512-.506v-2.814l1.227-1.386-1.995-3.584 3.749-.901-4.099-3.936-4.385-.154-6.16-3.342-1.798-4.133 1.907-2.067-.328-3.364-5.92-4.815-.131-2.771 1.052-3.496-3.244-3.276-5.24-.703-2.565-2.199.219-2.067 5.064-1.957 8.024 4.464 5.7.351 5.722 2.903.965-6.003-2.193-3.122-3.661-2.353 1.228-4.573 3.727.374 6.577 5.431 1.973 3.606 7.322.769 1.206-2.704 4.253-2.331 4.954-5.893 2.784 1.913 4.385 5.739.131 2.704 2.017 4.288 4.955 3.606.57 2.396 3.354 2.595 4.122-.154 3.507 1.473 1.403 2.199-1.359-.176-2.017 1.451-3.968.286-4.647 3.914.306 4.045.395 2.969-1.228 1.649-.307 2.946.921 1.671v1.737l-1.271 1.275v2.199l-2.521-2.529-1.447 1.452-1.009 2.55 1.162 3.958-.46 2.199.877 1.319-.132 5.277-.921.505-2.104-.373z" fill="#1B75BC"/><path opacity=".3" fill-rule="evenodd" clip-rule="evenodd" d="M140.595 332.029l-3.639-.989-2.28-4.727h-2.982l-1.534 1.385-3.749-3.628-2.675 1.429-2.082.088-.855-1.605-2.763-2.792-3.178.307-4.451-.285-3.814-2.375-.154-5.563 1.031-4.595-1.886-3.43-2.433-.55-.263-1.671-1.908-2.155 3.903-1.341 6.577-1.407 1.644.44 8.133-.286 3.639 3.386 5.218.704 2.674 2.682-.92 3.144.131 3.32 5.941 4.837.263 2.595-2.038 2.177 2.148 4.947 6.621 3.606 4.275.198 2.696 2.572-3.332.792 2.258 4.067-1.03 1.166v2.924l-2.741.572-6.445-9.939z" fill="#1B75BC"/><path opacity=".3" d="M510.475 305.797l-11.356-.263 3.596-8.971-1.644-5.123 4.406-4.662-.965-3.364-7.168-5.606-2.149-.506-.482-.11-.46 4.441-2.237 2.397-2.28-.77-2.521-2.44-6.818-2.089-2.192-1.407 6.752-10.664-.285-3.144-.855-1.385 3.113-2.111-1.03-1.781 2.302-2.573 4.713.682 2.39 1.363.943.132 9.974 1.056 11.181-.572 2.982-1.253-.132-3.584-.855-3.342-.241-2.771 1.337-.791 2.258.373 3.596.264 1.797-.637 4.758-.176 2.937 1.869 14.162 2.726 5.349-3.54 4.144.836 9.712-2.001 7.41 2.001 4.647-1.605 8.725.461 6.205 2.573 2.565-.682 6.116 7.124 5.788 1.495-29.114 23.263-15.412 9.059-14.622 6.398-6.862 2.001-7.41-2.837-6.664 10.642-9.318 2.793-10.786-3.189z" fill="#1B75BC"/><path opacity=".3" d="M457.446 363.45l-1.71-2.265 1.096-9.037 2.937-7.101 1.469-1.737-.46-4.398-3.026-1.319-1.424-3.892 1.381-2.792-.965-3.914-4.45.154-2.39 1.297-3.508-5.101v-4.177l2.653-2.155 6.292.967 3.157-.813.438-3.408 5.898-2.089-2.215-3.474 5.021-1.121 6.006-2.419.154-3.54-4.516-2.265.11-2.968 3.88-1.429 3.464-2.661 3.003.286 4.494-4.661 2.938 2.946 1.184 2.287 7.519-1.165 4.385.263 1.534 4.772-3.968 9.85 12.518.286 10.918 3.254 9.449-2.836 6.269 8.597-2.104 2.506 7.278 12.401-2.915 11.587-13.878 2.771-13.504-.968-4.933-2.308-2.762.065v-2.088l-2.916-1.517-2.608-1.913h-3.947l-1.534 2.946-.592 4.222-1.71 1.451-1.447 2.22.855 4.112-1.907 2.792-2.521.352-.417-1.649h-1.973l-1.315 1.759-3.245.88-.351 2.506 1.447 1.297.11 1.715-4.385-.351-1.425-1.957-1.973-1.297-1.841 1.715-1.754.285-1.644 2.419-2.982 1.715-4.669 1.033-1.973-.923z" fill="#1B75BC"/><path d="M430.922 134.484v4.219c2.337 0 4.25 1.899 4.25 4.219a4.22 4.22 0 01-4.25 4.219v11.343a.7.7 0 00.628-.346l6.668-10.899a8.277 8.277 0 001.204-4.317c0-4.655-3.811-8.438-8.5-8.438z" fill="#fff"/><path d="M430.926 134.484c-4.689 0-8.5 3.783-8.5 8.438 0 1.575.439 3.108 1.275 4.43l6.649 10.8a.67.67 0 00.481.324.709.709 0 00.723-.338l6.668-10.899a8.277 8.277 0 001.204-4.317c0-4.655-3.811-8.438-8.5-8.438zm0 12.657a4.229 4.229 0 01-4.25-4.219c0-2.32 1.912-4.219 4.25-4.219 2.337 0 4.25 1.899 4.25 4.219a4.22 4.22 0 01-4.25 4.219zm-45 92.859c-4.689 0-8.5 3.783-8.5 8.438a8.27 8.27 0 001.275 4.429l6.649 10.801a.668.668 0 00.481.323.706.706 0 00.723-.337l6.668-10.899a8.28 8.28 0 001.204-4.317c0-4.655-3.811-8.438-8.5-8.438zm0 12.656a4.228 4.228 0 01-4.25-4.218c0-2.321 1.912-4.219 4.25-4.219 2.337 0 4.25 1.898 4.25 4.219a4.22 4.22 0 01-4.25 4.218zm-59 45.344c-4.689 0-8.5 3.783-8.5 8.438a8.27 8.27 0 001.275 4.429l6.649 10.801a.668.668 0 00.481.323.706.706 0 00.723-.337l6.668-10.899a8.28 8.28 0 001.204-4.317c0-4.655-3.811-8.438-8.5-8.438zm0 12.656a4.228 4.228 0 01-4.25-4.218c0-2.321 1.912-4.219 4.25-4.219 2.337 0 4.25 1.898 4.25 4.219a4.22 4.22 0 01-4.25 4.218zm-188 1.344c-4.689 0-8.5 3.783-8.5 8.438a8.27 8.27 0 001.275 4.429l6.649 10.801a.668.668 0 00.481.323.706.706 0 00.723-.337l6.668-10.899a8.28 8.28 0 001.204-4.317c0-4.655-3.811-8.438-8.5-8.438zm0 12.656a4.228 4.228 0 01-4.25-4.218c0-2.321 1.912-4.219 4.25-4.219 2.337 0 4.25 1.898 4.25 4.219a4.22 4.22 0 01-4.25 4.218zM59.926 78c-4.69 0-8.5 3.783-8.5 8.438 0 1.575.439 3.107 1.275 4.43l6.649 10.8a.67.67 0 00.481.323c.27.043.567-.07.723-.337l6.668-10.9a8.276 8.276 0 001.204-4.317c0-4.654-3.811-8.437-8.5-8.437zm0 12.656a4.229 4.229 0 01-4.25-4.219c0-2.32 1.912-4.218 4.25-4.218 2.337 0 4.25 1.898 4.25 4.219a4.22 4.22 0 01-4.25 4.218zm60 202.344c-4.689 0-8.5 3.783-8.5 8.438a8.27 8.27 0 001.275 4.429l6.649 10.801a.668.668 0 00.481.323.706.706 0 00.723-.337l6.668-10.899a8.28 8.28 0 001.204-4.317c0-4.655-3.811-8.438-8.5-8.438zm0 12.656a4.228 4.228 0 01-4.25-4.218c0-2.321 1.912-4.219 4.25-4.219 2.337 0 4.25 1.898 4.25 4.219a4.22 4.22 0 01-4.25 4.218zM174.5 292c-4.689 0-8.5 3.783-8.5 8.438a8.27 8.27 0 001.275 4.429l6.649 10.801a.668.668 0 00.482.323.705.705 0 00.722-.337l6.668-10.899a8.28 8.28 0 001.204-4.317c0-4.655-3.811-8.438-8.5-8.438zm0 12.656a4.228 4.228 0 01-4.25-4.218c0-2.321 1.912-4.219 4.25-4.219s4.25 1.898 4.25 4.219a4.22 4.22 0 01-4.25 4.218zM488.926 300c-4.689 0-8.5 3.783-8.5 8.438a8.27 8.27 0 001.275 4.429l6.649 10.801a.668.668 0 00.481.323.706.706 0 00.723-.337l6.668-10.899a8.28 8.28 0 001.204-4.317c0-4.655-3.811-8.438-8.5-8.438zm0 12.656a4.228 4.228 0 01-4.25-4.218c0-2.321 1.912-4.219 4.25-4.219 2.337 0 4.25 1.898 4.25 4.219a4.22 4.22 0 01-4.25 4.218zm70-76.656c-4.689 0-8.5 3.783-8.5 8.438a8.27 8.27 0 001.275 4.429l6.649 10.801a.668.668 0 00.481.323.706.706 0 00.723-.337l6.668-10.899a8.28 8.28 0 001.204-4.317c0-4.655-3.811-8.438-8.5-8.438zm0 12.656a4.228 4.228 0 01-4.25-4.218c0-2.321 1.912-4.219 4.25-4.219 2.337 0 4.25 1.898 4.25 4.219a4.22 4.22 0 01-4.25 4.218zm355-123.656c-4.689 0-8.5 3.783-8.5 8.438a8.27 8.27 0 001.275 4.429l6.649 10.801a.668.668 0 00.481.323.706.706 0 00.723-.337l6.668-10.899a8.28 8.28 0 001.204-4.317c0-4.655-3.811-8.438-8.5-8.438zm0 12.656a4.228 4.228 0 01-4.25-4.218c0-2.321 1.912-4.219 4.25-4.219 2.337 0 4.25 1.898 4.25 4.219a4.22 4.22 0 01-4.25 4.218zM392.205 180v-8.4h1.848v3.672l3.408-3.672h2.232l-3.42 3.564 3.576 4.836h-2.22l-2.604-3.576-.972 1.008V180h-1.848zm8.046 0l3.6-8.46h1.704l3.6 8.46h-1.932l-.768-1.884h-3.552l-.768 1.884h-1.884zm3.312-3.516h2.232l-1.116-2.724-1.116 2.724zm9.876-5.028c.896 0 1.624.212 2.184.636.568.424.852.964.852 1.62 0 .896-.452 1.54-1.356 1.932 1.048.336 1.572.996 1.572 1.98 0 .736-.292 1.34-.876 1.812-.576.472-1.348.708-2.316.708-.856 0-1.576-.116-2.16-.348a4.694 4.694 0 01-1.572-1.056l.984-1.284c.728.712 1.62 1.068 2.676 1.068.408 0 .744-.088 1.008-.264.272-.184.408-.432.408-.744 0-.336-.152-.584-.456-.744-.296-.16-.7-.24-1.212-.24h-.972v-1.536h.948c1 0 1.5-.324 1.5-.972a.786.786 0 00-.372-.684c-.248-.168-.576-.252-.984-.252-.912 0-1.668.308-2.268.924l-.972-1.176c.88-.92 2.008-1.38 3.384-1.38zm4.144 8.544l3.6-8.46h1.704l3.6 8.46h-1.932l-.768-1.884h-3.552l-.768 1.884h-1.884zm3.312-3.516h2.232l-1.116-2.724-1.116 2.724zm6.252 3.516l2.928-4.272-2.808-4.128h2.16l1.764 2.724 1.776-2.724h2.1l-2.808 4.104 2.928 4.296h-2.16l-1.884-2.88-1.896 2.88h-2.1zm13.361.144c-1.232 0-2.26-.416-3.084-1.248-.816-.84-1.224-1.872-1.224-3.096 0-1.216.412-2.244 1.236-3.084.824-.84 1.872-1.26 3.144-1.26.728 0 1.34.12 1.836.36.496.232.968.568 1.416 1.008l-1.104 1.272c-.36-.328-.7-.564-1.02-.708-.312-.152-.692-.228-1.14-.228-.704 0-1.288.256-1.752.768-.456.504-.684 1.128-.684 1.872 0 .736.228 1.36.684 1.872.464.512 1.048.768 1.752.768.448 0 .836-.08 1.164-.24.328-.16.676-.408 1.044-.744l1.176 1.26c-.456.488-.952.848-1.488 1.08-.528.232-1.18.348-1.956.348zm6.88-.144v-6.696h-2.556V171.6h6.96v1.704h-2.556V180h-1.848zm5.105 0l3.6-8.46h1.704l3.6 8.46h-1.932l-.768-1.884h-3.552l-.768 1.884h-1.884zm3.312-3.516h2.232l-1.116-2.724-1.116 2.724zm6.889 3.516v-8.4h1.848v3.324h3.408V171.6h1.848v8.4h-1.848v-3.372h-3.408V180h-1.848zM347.806 281.556l2.028-4.44h2.004l-3.228 6.492c-.36.72-.76 1.24-1.2 1.56-.432.32-.948.48-1.548.48a3.61 3.61 0 01-1.812-.492l.72-1.356c.304.184.636.276.996.276.416 0 .768-.224 1.056-.672l-3.36-6.288h2.064l2.28 4.44zm8.249-4.584c.896 0 1.624.212 2.184.636.568.424.852.964.852 1.62 0 .896-.452 1.54-1.356 1.932 1.048.336 1.572.996 1.572 1.98 0 .736-.292 1.34-.876 1.812-.576.472-1.348.708-2.316.708-.856 0-1.576-.116-2.16-.348a4.694 4.694 0 01-1.572-1.056l.984-1.284c.728.712 1.62 1.068 2.676 1.068.408 0 .744-.088 1.008-.264.272-.184.408-.432.408-.744 0-.336-.152-.584-.456-.744-.296-.16-.7-.24-1.212-.24h-.972v-1.536h.948c1 0 1.5-.324 1.5-.972a.786.786 0 00-.372-.684c-.248-.168-.576-.252-.984-.252-.912 0-1.668.308-2.268.924l-.972-1.176c.88-.92 2.008-1.38 3.384-1.38zm6.711 1.812v1.464h2.22c.936 0 1.66.236 2.172.708.52.464.78 1.096.78 1.896 0 .848-.276 1.504-.828 1.968-.552.464-1.32.696-2.304.696h-3.888v-8.4h6.444v1.668h-4.596zm2.028 3h-2.028v2.064h2.04c.856 0 1.284-.356 1.284-1.068 0-.664-.432-.996-1.296-.996zm4.667 3.732v-8.4h6.336v1.644h-4.5v1.704h3.96v1.644h-3.96v1.764h4.56v1.644h-6.396zm8.039 0v-8.4h1.848v3.672l3.408-3.672h2.232l-3.42 3.564 3.576 4.836h-2.22l-2.604-3.576-.972 1.008v2.568H377.5zm16.002-8.4v8.4h-1.824v-5.508l-3.672 5.508h-1.74v-8.4h1.824v5.508l3.696-5.508h1.716zm5.958 8.544c-1.232 0-2.26-.416-3.084-1.248-.816-.84-1.224-1.872-1.224-3.096 0-1.216.412-2.244 1.236-3.084.824-.84 1.872-1.26 3.144-1.26.728 0 1.34.12 1.836.36.496.232.968.568 1.416 1.008l-1.104 1.272c-.36-.328-.7-.564-1.02-.708-.312-.152-.692-.228-1.14-.228-.704 0-1.288.256-1.752.768-.456.504-.684 1.128-.684 1.872 0 .736.228 1.36.684 1.872.464.512 1.048.768 1.752.768.448 0 .836-.08 1.164-.24.328-.16.676-.408 1.044-.744l1.176 1.26c-.456.488-.952.848-1.488 1.08-.528.232-1.18.348-1.956.348zm6.879-.144v-6.696h-2.556v-1.704h6.96v1.704h-2.556v6.696h-1.848zm5.105 0l3.6-8.46h1.704l3.6 8.46h-1.932l-.768-1.884h-3.552l-.768 1.884h-1.884zm3.312-3.516h2.232l-1.116-2.724-1.116 2.724zm6.889 3.516v-8.4h1.848v3.324h3.408v-3.324h1.848v8.4h-1.848v-3.372h-3.408v3.372h-1.848zm-144.404 58v-6.696h-2.556v-1.704h6.96v1.704h-2.556v6.696h-1.848zm9.378-3.96l2.028-4.44h2.004l-3.228 6.492c-.36.72-.76 1.24-1.2 1.56-.432.32-.948.48-1.548.48a3.61 3.61 0 01-1.812-.492l.72-1.356c.304.184.636.276.996.276.416 0 .768-.224 1.056-.672l-3.36-6.288h2.064l2.28 4.44zm5.26 3.96v-8.4h3.432c.992 0 1.776.268 2.352.804.576.536.864 1.244.864 2.124 0 .936-.32 1.664-.96 2.184-.64.512-1.452.768-2.436.768h-1.404v2.52h-1.848zm1.848-4.164h1.464c.456 0 .812-.12 1.068-.36.264-.24.396-.552.396-.936 0-.408-.132-.72-.396-.936-.264-.224-.632-.336-1.104-.336h-1.428v2.568zm6.168 4.164v-8.4h1.848v3.672l3.408-3.672h2.232l-3.42 3.564 3.576 4.836h-2.22l-2.604-3.576-.972 1.008v2.568h-1.848zm8.765 0v-8.4h1.992l2.208 3.552 2.208-3.552h1.992v8.4h-1.836v-5.484l-2.364 3.588h-.048l-2.34-3.552v5.448h-1.812zm10.418 0v-8.4h6.336v1.644h-4.5v1.704h3.96v1.644h-3.96v1.764h4.56v1.644h-6.396zm8.039 0v-8.4h1.848v3.324h3.408v-3.324h1.848v8.4h-1.848v-3.372h-3.408v3.372h-1.848zm16.354-8.4v8.4h-1.824v-5.508l-3.672 5.508h-1.74v-8.4h1.824v5.508l3.696-5.508h1.716zm5.957 8.544c-1.232 0-2.26-.416-3.084-1.248-.816-.84-1.224-1.872-1.224-3.096 0-1.216.412-2.244 1.236-3.084.824-.84 1.872-1.26 3.144-1.26.728 0 1.34.12 1.836.36.496.232.968.568 1.416 1.008l-1.104 1.272c-.36-.328-.7-.564-1.02-.708-.312-.152-.692-.228-1.14-.228-.704 0-1.288.256-1.752.768-.456.504-.684 1.128-.684 1.872 0 .736.228 1.36.684 1.872.464.512 1.048.768 1.752.768.448 0 .836-.08 1.164-.24.328-.16.676-.408 1.044-.744l1.176 1.26c-.456.488-.952.848-1.488 1.08-.528.232-1.18.348-1.956.348zm6.88-.144v-6.696h-2.556v-1.704h6.96v1.704h-2.556v6.696h-1.848zm5.105 0l3.6-8.46h1.704l3.6 8.46h-1.932l-.768-1.884h-3.552l-.768 1.884h-1.884zm3.312-3.516h2.232l-1.116-2.724-1.116 2.724zm6.888 3.516v-8.4h1.848v3.324h3.408v-3.324h1.848v8.4h-1.848v-3.372h-3.408v3.372h-1.848zm-263.325 14l3.6-8.46h1.704l3.6 8.46h-1.932l-.768-1.884h-3.552l-.768 1.884h-1.884zM111.6 354h2.232l-1.116-2.724L111.6 354zm6.888 3.516v-8.4h3.432c.992 0 1.776.268 2.352.804.576.536.864 1.244.864 2.124 0 .936-.32 1.664-.96 2.184-.64.512-1.452.768-2.436.768h-1.404v2.52h-1.848zm1.848-4.164h1.464c.456 0 .812-.12 1.068-.36.264-.24.396-.552.396-.936 0-.408-.132-.72-.396-.936-.264-.224-.632-.336-1.104-.336h-1.428v2.568zm6.168 4.164v-8.4h1.992l2.208 3.552 2.208-3.552h1.992v8.4h-1.836v-5.484l-2.364 3.588h-.048l-2.34-3.552v5.448h-1.812zm10.418 0v-8.4h6.336v1.644h-4.5v1.704h3.96v1.644h-3.96v1.764h4.56v1.644h-6.396zm8.039 0v-8.4h1.848v3.324h3.408v-3.324h1.848v8.4h-1.848v-3.372h-3.408v3.372h-1.848zm16.353-8.4v8.4h-1.824v-5.508l-3.672 5.508h-1.74v-8.4h1.824v5.508l3.696-5.508h1.716zm8.67 0v8.4h-1.848v-2.688h-1.452l-1.8 2.688h-2.16l2.052-3c-1.2-.448-1.8-1.324-1.8-2.628 0-.864.28-1.54.84-2.028.568-.496 1.344-.744 2.328-.744h3.84zm-3.72 4.08h1.872v-2.412H166.3c-.456 0-.812.104-1.068.312-.256.208-.384.512-.384.912 0 .36.124.648.372.864.256.216.604.324 1.044.324zM28.856 116.784v1.464h2.22c.936 0 1.66.236 2.172.708.52.464.78 1.096.78 1.896 0 .848-.276 1.504-.828 1.968-.552.464-1.32.696-2.304.696h-3.888v-8.4h6.444v1.668h-4.596zm2.028 3h-2.028v2.064h2.04c.856 0 1.284-.356 1.284-1.068 0-.664-.432-.996-1.296-.996zm4.667 3.732v-8.4h6.336v1.644h-4.5v1.704h3.96v1.644h-3.96v1.764h4.56v1.644h-6.396zm9.155-8.4h6v8.4h-1.848v-6.732h-2.424v.636c0 1.64-.1 2.912-.3 3.816-.192.904-.476 1.528-.852 1.872-.376.344-.9.516-1.572.516-.376 0-.7-.036-.972-.108l.12-1.524c.112.016.208.024.288.024.272 0 .492-.056.66-.168.176-.12.336-.356.48-.708.152-.352.26-.876.324-1.572.064-.704.096-1.608.096-2.712v-1.74zm7.293 8.4l3.6-8.46h1.704l3.6 8.46H58.97l-.768-1.884H54.65l-.768 1.884h-1.884zM55.31 120h2.232l-1.116-2.724L55.31 120zm6.888 3.516v-8.4h3.432c.992 0 1.776.268 2.352.804.576.536.864 1.244.864 2.124 0 .936-.32 1.664-.96 2.184-.64.512-1.452.768-2.436.768h-1.404v2.52H62.2zm1.848-4.164h1.464c.456 0 .812-.12 1.068-.36.264-.24.396-.552.396-.936 0-.408-.132-.72-.396-.936-.264-.224-.632-.336-1.104-.336h-1.428v2.568zm9.72.204l2.028-4.44h2.004l-3.228 6.492c-.36.72-.76 1.24-1.2 1.56-.432.32-.948.48-1.548.48a3.61 3.61 0 01-1.812-.492l.72-1.356c.304.184.636.276.996.276.416 0 .768-.224 1.056-.672l-3.36-6.288h2.064l2.28 4.44zm9.197 4.104c-1.233 0-2.26-.416-3.085-1.248-.816-.84-1.224-1.872-1.224-3.096 0-1.216.412-2.244 1.236-3.084.825-.84 1.872-1.26 3.144-1.26.728 0 1.34.12 1.837.36.496.232.968.568 1.415 1.008l-1.104 1.272c-.36-.328-.7-.564-1.02-.708-.311-.152-.691-.228-1.14-.228-.703 0-1.287.256-1.751.768-.457.504-.684 1.128-.684 1.872 0 .736.228 1.36.684 1.872.463.512 1.047.768 1.751.768.449 0 .837-.08 1.165-.24.328-.16.675-.408 1.043-.744l1.177 1.26c-.457.488-.953.848-1.489 1.08-.528.232-1.18.348-1.956.348zm4.923-.144v-8.4h1.848v2.856h1.788c.96 0 1.712.248 2.256.744.544.488.816 1.148.816 1.98 0 .864-.288 1.552-.864 2.064-.568.504-1.344.756-2.328.756h-3.516zm3.48-3.96h-1.632v2.292h1.644c.92 0 1.38-.392 1.38-1.176 0-.744-.464-1.116-1.392-1.116zM53.965 301.268V308h-1.848v-8.4h5.868v1.668h-4.02zM59.29 308v-8.4h3.432c.992 0 1.776.268 2.352.804.576.536.864 1.244.864 2.124 0 .936-.32 1.664-.96 2.184-.64.512-1.452.768-2.436.768h-1.404V308H59.29zm1.848-4.164h1.464c.456 0 .812-.12 1.068-.36.264-.24.396-.552.396-.936 0-.408-.132-.72-.396-.936-.264-.224-.632-.336-1.104-.336h-1.428v2.568zm9.72.204l2.028-4.44h2.004l-3.228 6.492c-.36.72-.76 1.24-1.2 1.56-.432.32-.948.48-1.548.48a3.61 3.61 0 01-1.812-.492l.72-1.356c.304.184.636.276.996.276.416 0 .768-.224 1.056-.672l-3.36-6.288h2.064l2.28 4.44zm8.248-4.584c.896 0 1.624.212 2.184.636.568.424.852.964.852 1.62 0 .896-.452 1.54-1.356 1.932 1.048.336 1.572.996 1.572 1.98 0 .736-.292 1.34-.876 1.812-.576.472-1.348.708-2.316.708-.856 0-1.576-.116-2.16-.348a4.694 4.694 0 01-1.572-1.056l.984-1.284c.728.712 1.62 1.068 2.676 1.068.408 0 .744-.088 1.008-.264.272-.184.408-.432.408-.744 0-.336-.152-.584-.456-.744-.296-.16-.7-.24-1.212-.24h-.972v-1.536h.948c1 0 1.5-.324 1.5-.972a.786.786 0 00-.372-.684c-.248-.168-.576-.252-.984-.252-.912 0-1.668.308-2.268.924l-.972-1.176c.88-.92 2.008-1.38 3.384-1.38zm12.1.144v8.4H89.38v-5.508L85.709 308h-1.74v-8.4h1.824v5.508l3.696-5.508h1.716zm8.67 0v8.4h-1.848v-2.688h-1.452l-1.8 2.688h-2.16l2.052-3c-1.2-.448-1.8-1.324-1.8-2.628 0-.864.28-1.54.84-2.028.568-.496 1.344-.744 2.328-.744h3.84zm-3.72 4.08h1.872v-2.412H96.19c-.456 0-.812.104-1.068.312-.256.208-.384.512-.384.912 0 .36.124.648.372.864.256.216.604.324 1.044.324zM123.323 286l3.6-8.46h1.704l3.6 8.46h-1.932l-.768-1.884h-3.552l-.768 1.884h-1.884zm3.312-3.516h2.232l-1.116-2.724-1.116 2.724zm9.877-5.028c.896 0 1.624.212 2.184.636.568.424.852.964.852 1.62 0 .896-.452 1.54-1.356 1.932 1.048.336 1.572.996 1.572 1.98 0 .736-.292 1.34-.876 1.812-.576.472-1.348.708-2.316.708-.856 0-1.576-.116-2.16-.348a4.694 4.694 0 01-1.572-1.056l.984-1.284c.728.712 1.62 1.068 2.676 1.068.408 0 .744-.088 1.008-.264.272-.184.408-.432.408-.744 0-.336-.152-.584-.456-.744-.296-.16-.7-.24-1.212-.24h-.972v-1.536h.948c1 0 1.5-.324 1.5-.972a.786.786 0 00-.372-.684c-.248-.168-.576-.252-.984-.252-.912 0-1.668.308-2.268.924l-.972-1.176c.88-.92 2.008-1.38 3.384-1.38zm4.863 8.544v-8.4h6.336v1.644h-4.5v1.704h3.96v1.644h-3.96v1.764h4.56V286h-6.396zm8.039 0v-8.4h3.432c.992 0 1.776.268 2.352.804.576.536.864 1.244.864 2.124 0 .936-.32 1.664-.96 2.184-.64.512-1.452.768-2.436.768h-1.404V286h-1.848zm1.848-4.164h1.464c.456 0 .812-.12 1.068-.36.264-.24.396-.552.396-.936 0-.408-.132-.72-.396-.936-.264-.224-.632-.336-1.104-.336h-1.428v2.568zm8.016-2.568v1.464h2.22c.936 0 1.66.236 2.172.708.52.464.78 1.096.78 1.896 0 .848-.276 1.504-.828 1.968-.552.464-1.32.696-2.304.696h-3.888v-8.4h6.444v1.668h-4.596zm2.028 3h-2.028v2.064h2.04c.856 0 1.284-.356 1.284-1.068 0-.664-.432-.996-1.296-.996zm3.947 3.732l3.6-8.46h1.704l3.6 8.46h-1.932l-.768-1.884h-3.552l-.768 1.884h-1.884zm3.312-3.516h2.232l-1.116-2.724-1.116 2.724zm14.124-4.884v8.4h-1.824v-5.508L177.193 286h-1.74v-8.4h1.824v5.508l3.696-5.508h1.716zm-2.232-1.116c-.352.32-.804.48-1.356.48s-1.008-.16-1.368-.48c-.352-.32-.568-.768-.648-1.344l1.068-.192c.168.536.484.804.948.804.464 0 .78-.268.948-.804l1.068.192c-.08.576-.3 1.024-.66 1.344zm3.366 11.268v-3.42h.792c.328-.76.564-1.564.708-2.412.144-.848.216-1.96.216-3.336v-.984h6.108v6.732h1.008l-.24 3.42h-1.548V286h-5.256l-.12 1.752h-1.668zm5.976-8.484h-2.484v.852c0 1.584-.252 2.988-.756 4.212h3.24v-5.064zM200.57 286h-1.836v-2.232l-1.116-1.2-2.364 3.432h-2.208l3.324-4.764-3.204-3.636h2.196l3.372 3.924V277.6h1.836v3.924l3.372-3.924h2.196l-3.204 3.636 3.324 4.764h-2.208l-2.376-3.432-1.104 1.2V286zm6.085 0l3.6-8.46h1.704l3.6 8.46h-1.932l-.768-1.884h-3.552l-.768 1.884h-1.884zm3.312-3.516h2.232l-1.116-2.724-1.116 2.724zm6.889 3.516v-8.4h1.848v3.324h3.408V277.6h1.848v8.4h-1.848v-3.372h-3.408V286h-1.848zm224.385 59.516v-6.696h-2.556v-1.704h6.96v1.704h-2.556v6.696h-1.848zm5.106 0l3.6-8.46h1.704l3.6 8.46h-1.932l-.768-1.884h-3.552l-.768 1.884h-1.884zm3.312-3.516h2.232l-1.116-2.724-1.116 2.724zm6 5.268v-3.42h.792c.328-.76.564-1.564.708-2.412.144-.848.216-1.96.216-3.336v-.984h6.108v6.732h1.008l-.24 3.42h-1.548v-1.752h-5.256l-.12 1.752h-1.668zm5.976-8.484h-2.484v.852c0 1.584-.252 2.988-.756 4.212h3.24v-5.064zm10.77 6.732h-1.836v-2.232l-1.116-1.2-2.364 3.432h-2.208l3.324-4.764-3.204-3.636h2.196l3.372 3.924v-3.924h1.836v3.924l3.372-3.924h2.196l-3.204 3.636 3.324 4.764h-2.208l-2.376-3.432-1.104 1.2v2.232zm14.042-8.4v8.4h-1.824v-5.508l-3.672 5.508h-1.74v-8.4h1.824v5.508l3.696-5.508h1.716zm2.022 8.4v-8.4h1.848v3.672l3.408-3.672h2.232l-3.42 3.564 3.576 4.836h-2.22l-2.604-3.576-.972 1.008v2.568h-1.848zm16.002-8.4v8.4h-1.824v-5.508l-3.672 5.508h-1.74v-8.4h1.824v5.508l3.696-5.508h1.716zm5.957 8.544c-1.232 0-2.26-.416-3.084-1.248-.816-.84-1.224-1.872-1.224-3.096 0-1.216.412-2.244 1.236-3.084.824-.84 1.872-1.26 3.144-1.26.728 0 1.34.12 1.836.36.496.232.968.568 1.416 1.008l-1.104 1.272c-.36-.328-.7-.564-1.02-.708-.312-.152-.692-.228-1.14-.228-.704 0-1.288.256-1.752.768-.456.504-.684 1.128-.684 1.872 0 .736.228 1.36.684 1.872.464.512 1.048.768 1.752.768.448 0 .836-.08 1.164-.24.328-.16.676-.408 1.044-.744l1.176 1.26c-.456.488-.952.848-1.488 1.08-.528.232-1.18.348-1.956.348zm6.88-.144v-6.696h-2.556v-1.704h6.96v1.704h-2.556v6.696h-1.848zm5.105 0l3.6-8.46h1.704l3.6 8.46h-1.932l-.768-1.884h-3.552l-.768 1.884h-1.884zm3.312-3.516h2.232l-1.116-2.724-1.116 2.724zm6.888 3.516v-8.4h1.848v3.324h3.408v-3.324h1.848v8.4h-1.848v-3.372h-3.408v3.372h-1.848zm-17.134-64v-8.4h1.848v3.672l3.408-3.672h2.232l-3.42 3.564 3.576 4.836h-2.22l-2.604-3.576-.972 1.008v2.568h-1.848zm8.765 0v-8.4h1.848v2.856h1.788c.96 0 1.712.248 2.256.744.544.488.816 1.148.816 1.98 0 .864-.288 1.552-.864 2.064-.568.504-1.344.756-2.328.756h-3.516zm3.48-3.96h-1.632v2.292h1.644c.92 0 1.38-.392 1.38-1.176 0-.744-.464-1.116-1.392-1.116zm4.164 3.96v-8.4h1.848v8.4h-1.848zm3.864 0v-8.4h3.432c.992 0 1.776.268 2.352.804.576.536.864 1.244.864 2.124 0 .936-.32 1.664-.96 2.184-.64.512-1.452.768-2.436.768H537.6v2.52h-1.848zm1.848-4.164h1.464c.456 0 .812-.12 1.068-.36.264-.24.396-.552.396-.936 0-.408-.132-.72-.396-.936-.264-.224-.632-.336-1.104-.336H537.6v2.568zm8.016-2.568v6.732h-1.848v-8.4h5.868v1.668h-4.02zm5.324 6.732v-8.4h1.848v2.856h1.788c.96 0 1.712.248 2.256.744.544.488.816 1.148.816 1.98 0 .864-.288 1.552-.864 2.064-.568.504-1.344.756-2.328.756h-3.516zm3.48-3.96h-1.632v2.292h1.644c.92 0 1.38-.392 1.38-1.176 0-.744-.464-1.116-1.392-1.116zm4.164 3.96v-8.4h1.848v8.4h-1.848zm6.851-8.544c.896 0 1.624.212 2.184.636.568.424.852.964.852 1.62 0 .896-.452 1.54-1.356 1.932 1.048.336 1.572.996 1.572 1.98 0 .736-.292 1.34-.876 1.812-.576.472-1.348.708-2.316.708-.856 0-1.576-.116-2.16-.348a4.694 4.694 0 01-1.572-1.056l.984-1.284c.728.712 1.62 1.068 2.676 1.068.408 0 .744-.088 1.008-.264.272-.184.408-.432.408-.744 0-.336-.152-.584-.456-.744-.296-.16-.7-.24-1.212-.24h-.972v-1.536h.948c1 0 1.5-.324 1.5-.972a.786.786 0 00-.372-.684c-.248-.168-.576-.252-.984-.252-.912 0-1.668.308-2.268.924l-.972-1.176c.88-.92 2.008-1.38 3.384-1.38zm8.8 8.688c-1.232 0-2.26-.416-3.084-1.248-.816-.84-1.224-1.872-1.224-3.096 0-1.216.412-2.244 1.236-3.084.824-.84 1.872-1.26 3.144-1.26.728 0 1.34.12 1.836.36.496.232.968.568 1.416 1.008l-1.104 1.272c-.36-.328-.7-.564-1.02-.708-.312-.152-.692-.228-1.14-.228-.704 0-1.288.256-1.752.768-.456.504-.684 1.128-.684 1.872 0 .736.228 1.36.684 1.872.464.512 1.048.768 1.752.768.448 0 .836-.08 1.164-.24.328-.16.676-.408 1.044-.744l1.176 1.26c-.456.488-.952.848-1.488 1.08-.528.232-1.18.348-1.956.348zm6.879-.144v-6.696h-2.556v-1.704h6.96v1.704h-2.556v6.696h-1.848zm5.106 0l3.6-8.46h1.704l3.6 8.46h-1.932l-.768-1.884h-3.552l-.768 1.884h-1.884zm3.312-3.516h2.232l-1.116-2.724-1.116 2.724zm6.888 3.516v-8.4h1.848v3.324h3.408v-3.324h1.848v8.4h-1.848v-3.372h-3.408v3.372h-1.848zm282.01-111v-8.4h1.992l2.208 3.552 2.208-3.552h1.992v8.4h-1.836v-5.484l-2.364 3.588h-.048l-2.34-3.552v5.448h-1.812zm17.69-1.116c-.848.84-1.912 1.26-3.192 1.26-1.28 0-2.344-.42-3.192-1.26-.84-.84-1.26-1.868-1.26-3.084 0-1.208.424-2.232 1.272-3.072.856-.848 1.924-1.272 3.204-1.272 1.28 0 2.34.42 3.18 1.26.848.84 1.272 1.868 1.272 3.084 0 1.208-.428 2.236-1.284 3.084zm-4.992-1.212c.48.512 1.088.768 1.824.768s1.34-.252 1.812-.756c.472-.512.708-1.14.708-1.884 0-.736-.24-1.36-.72-1.872s-1.088-.768-1.824-.768-1.34.256-1.812.768c-.472.504-.708 1.128-.708 1.872 0 .736.24 1.36.72 1.872zm7.915 2.328v-8.4h1.848v3.324h3.408v-3.324h1.848v8.4h-1.848v-3.372h-3.408v3.372h-1.848zm10.965-6.732v6.732h-1.848v-8.4h5.868v1.668h-4.02zm12.596 5.616c-.848.84-1.912 1.26-3.192 1.26-1.28 0-2.344-.42-3.192-1.26-.84-.84-1.26-1.868-1.26-3.084 0-1.208.424-2.232 1.272-3.072.856-.848 1.924-1.272 3.204-1.272 1.28 0 2.34.42 3.18 1.26.848.84 1.272 1.868 1.272 3.084 0 1.208-.428 2.236-1.284 3.084zm-4.992-1.212c.48.512 1.088.768 1.824.768s1.34-.252 1.812-.756c.472-.512.708-1.14.708-1.884 0-.736-.24-1.36-.72-1.872s-1.088-.768-1.824-.768-1.34.256-1.812.768c-.472.504-.708 1.128-.708 1.872 0 .736.24 1.36.72 1.872zm9.032-6.072h6v8.4h-1.848v-6.732h-2.424v.636c0 1.64-.1 2.912-.3 3.816-.192.904-.476 1.528-.852 1.872-.376.344-.9.516-1.572.516-.376 0-.7-.036-.972-.108l.12-1.524c.112.016.208.024.288.024.272 0 .492-.056.66-.168.176-.12.336-.356.48-.708.152-.352.26-.876.324-1.572.064-.704.096-1.608.096-2.712v-1.74zm15.248 0v8.4h-1.824v-5.508l-3.672 5.508h-1.74v-8.4h1.824v5.508l3.696-5.508h1.716zm8.67 0v8.4h-1.848v-2.688h-1.452l-1.8 2.688h-2.16l2.052-3c-1.2-.448-1.8-1.324-1.8-2.628 0-.864.28-1.54.84-2.028.568-.496 1.344-.744 2.328-.744h3.84zm-3.72 4.08h1.872v-2.412h-1.836c-.456 0-.812.104-1.068.312-.256.208-.384.512-.384.912 0 .36.124.648.372.864.256.216.604.324 1.044.324z" fill="#1B75BC"/></svg>