<svg enable_background="new 0 0 1000 400" pretty_print="False"
    style="stroke-linejoin: round; stroke:#000; fill: none;" version="1.1" viewBox="0 0 1000 440"
    xmlns="http://www.w3.org/2000/svg" xmlns:xlink="http://www.w3.org/1999/xlink">
    <defs>
        <style type="text/css">
        </style>
    </defs>
    <metadata>
        <views>
            <view h="647.825177808" padding="0" w="1000">
                <proj flip="auto" id="mercator" lon0="95.3146660706" />
                <bbox h="1064.12" w="1283.19" x="1000" y="1000" />
            </view>
        </views>
    </metadata>
    <g class="" id="countries" stroke-width="2">
        <path
            d="M624.235382,339.229529 L624.675529,340.585934L626.076232,342.235846L627.978568,342.708992L626.846311,340.643464L626.859066,340.089750L625.633649,340.097826L624.812260,339.132161L624.235382,339.229529Z M628.703356,331.361286L627.983584,331.874165L629.349459,333.876584L625.409777,333.028338L624.730422,333.631564L625.304577,334.598953L627.280438,337.400355L626.498607,338.554432L628.921208,340.125118L628.982837,342.604415L632.253771,339.966246L634.113253,340.754413L633.156997,342.521127L635.576875,344.201462L635.502777,342.444709L637.479354,337.554219L639.763648,337.261983L637.617232,336.109548L636.206496,333.505528L634.747893,331.554132L634.747891,331.554130L633.091928,333.049168L632.615950,333.988056L631.389099,333.736290L629.483037,331.486147L628.703356,331.361286Z "
            data-id="AZ" data-name="Azerbaijan" id="AZ" />
        <path
            d="M628.921208,340.125118L626.498607,338.554432L627.280438,337.400355L625.304577,334.598953L624.730422,333.631564L620.876018,334.206281L621.347266,335.497998L621.080397,337.272875L623.142682,338.174517L624.235382,339.229529L624.812260,339.132161L625.633649,340.097826L626.859066,340.089750L626.846311,340.643464L627.978568,342.708992L628.982837,342.604415L628.921208,340.125118Z "
            data-id="AM" data-name="Armenia" id="AM" />
        <path
            d="M578.147633,270.269966L575.168219,272.182379L573.481586,273.010221L573.742148,275.197562L571.468318,276.746210L570.824651,279.446824L567.813563,281.228439L565.132836,281.196444L565.253228,283.268499L566.006681,286.865492L564.343409,287.797351L565.199051,289.896621L565.251938,291.893321L566.577682,291.719235L568.097630,290.505020L573.047888,290.757283L576.143394,291.831502L580.411145,291.788010L581.138082,292.829365L584.744107,293.045735L585.777041,289.812287L588.157919,289.544607L588.157935,289.544605L587.475714,286.632202L586.824451,285.105670L587.358189,284.673882L589.596045,284.834360L590.675273,283.820804L587.044310,280.041517L585.305506,276.915656L585.628271,273.324908L582.916873,272.152047L581.461564,272.740006L581.067567,271.515228L578.147633,270.269966Z "
            data-id="BY" data-name="Belarus" id="BY" />
        <path
            d="M682.125983,277.926156L680.771574,279.105397L670.393360,280.754433L669.121649,282.358416L671.123881,285.539141L668.461356,286.733265L668.980762,287.976854L666.318953,290.181397L670.813299,293.253513L670.118322,295.342309L666.222640,295.152988L665.416874,296.452256L661.869612,294.177979L657.472727,294.266674L654.530004,296.119088L651.246028,294.343025L645.132841,291.266652L640.800451,291.382522L635.075242,296.191591L634.729832,299.358886L631.877690,296.847926L629.664772,301.579506L630.474837,302.446204L628.873911,305.635741L631.228003,308.450310L633.285989,308.335246L635.054030,311.073427L634.772542,313.159068L636.181247,313.810362L638.768694,312.965545L641.980006,311.183044L644.337681,312.174238L647.113145,311.978162L647.607182,314.471677L647.107985,318.349284L644.685384,317.760067L642.326562,318.400691L642.220073,321.262547L639.521860,320.892815L641.146148,323.136622L642.397364,326.575140L645.611829,327.866296L645.459046,330.740530L645.614695,331.649195L646.840113,330.408435L649.988362,329.629178L651.863036,330.677719L653.804213,333.588288L655.226844,333.408239L655.117918,319.383893L662.257446,317.054120L669.344231,321.686252L671.992853,325.158934L680.001353,324.302327L683.321733,327.088836L683.114774,330.861861L684.466173,330.887990L685.030295,333.925329L688.557635,334.044867L690.351045,335.759658L691.564567,333.128933L695.222618,330.538240L696.812795,329.846483L697.433960,328.198675L699.259904,327.665527L703.822615,328.965078L704.254019,326.733578L705.828144,325.945821L709.777859,327.542538L710.785711,327.125380L719.499507,327.625060L720.890320,328.980921L722.599742,329.532039L722.378307,327.382889L724.281073,326.394975L721.784660,319.690940L727.278832,318.120714L728.698454,317.240920L730.699683,310.034894L736.201737,311.377315L737.744330,309.531238L737.876761,305.378294L740.180260,304.987207L742.291419,302.179132L740.819771,299.565720L737.247284,300.140241L736.066583,298.312450L734.127413,297.471208L732.792639,294.946225L731.261368,294.153576L727.275822,295.284703L723.455242,292.740043L721.977288,295.053891L715.779540,283.574417L712.241307,279.947016L713.256182,278.455666L706.305125,282.910613L703.644894,283.176740L703.874642,280.615864L700.312474,278.998632L697.416905,280.154075L696.543633,275.185141L691.559407,274.135754L689.065861,276.150732L682.125983,277.926156Z "
            data-id="KZ" data-name="Kazakhstan" id="KZ" />
        <path
            d="M720.890320,328.980921L719.499507,327.625060L710.785711,327.125380L709.777859,327.542538L705.828144,325.945821L704.254019,326.733578L703.822615,328.965078L699.259904,327.665527L697.433960,328.198675L696.812795,329.846483L697.636333,330.215143L695.308756,332.626589L697.355132,334.016891L699.330563,333.096935L702.617979,335.036952L699.066417,337.664023L696.956692,337.306300L695.941100,338.425117L692.922416,337.818659L692.659704,339.900384L695.666922,339.621507L699.093649,340.787743L704.337434,340.243347L705.126861,339.420522L704.744760,338.576196L709.308760,336.149170L712.244604,336.638342L713.293303,334.300683L716.850885,333.863158L717.839532,332.395908L722.209902,330.378872L722.599742,329.532039L720.890320,328.980921Z "
            data-id="KG" data-name="Kyrgyzstan" id="KG" />
        <path
            d="M579.003419,317.014078L580.247182,314.374685L582.538785,314.008713L582.951701,312.701468L580.572097,309.296263L580.771317,307.900325L576.333298,305.330745L574.489725,305.744069L573.828286,306.358897L574.673753,306.764220L578.012622,312.150575L578.101339,313.922006L577.808529,315.631650L578.305289,317.444226L579.003419,317.014078Z "
            data-id="MD" data-name="Moldova" id="MD" />
        <path
            d="M779.815289,292.168046L777.297664,291.645241L774.190693,289.789683L771.318055,294.410237L772.444150,296.988571L769.748231,299.997840L765.738606,298.916408L762.970452,298.761234L761.116703,296.735341L758.222997,296.671028L755.811432,295.328703L751.592842,297.382540L746.300756,301.091331L743.376666,301.829760L744.104894,304.776440L746.435911,306.989222L750.392362,308.542210L752.306020,311.835603L751.238115,316.526753L752.235935,318.242769L759.267254,319.463834L762.618162,321.893799L764.332027,322.323932L765.595569,325.865361L767.223440,328.118112L770.280822,328.030300L776.005458,328.875540L779.694324,328.351435L782.432237,328.912487L786.534878,331.186968L789.890803,331.183694L791.118658,332.339664L794.347884,330.340028L798.828327,329.037966L802.985288,328.895278L806.226124,327.567767L810.157494,324.244603L808.822864,321.485743L810.278746,318.966906L814.690250,320.115981L817.453818,318.030810L821.682728,316.496882L823.715058,313.855110L825.667127,312.708047L829.695957,312.171097L831.884080,312.627406L832.187927,311.185673L829.674459,308.321605L827.448928,306.998981L825.317131,308.525068L822.580938,307.882491L821.010826,308.406209L820.296501,306.713865L822.256023,302.520148L823.606705,299.299610L820.297647,299.658123L817.182363,297.745055L813.119995,300.779347L809.468680,301.485968L806.919238,302.539095L800.854065,301.892057L799.170584,299.707418L796.454313,297.632286L793.674693,297.059869L790.166128,297.627800L787.545167,298.430657L783.605055,296.604440L783.076190,293.309977L779.815289,292.168046Z "
            data-id="MN" data-name="Mongolia" id="MN" />
        <path
            d="M695.811822,337.400167L695.992697,334.691304L692.284195,335.543298L690.084606,339.876041L687.768782,339.706876L687.049870,341.286430L689.085067,342.138164L689.684160,344.777812L688.125371,348.323054L688.972844,348.746781L690.980523,347.628542L691.914707,348.301657L692.809190,346.703602L696.381534,343.613834L698.420314,345.662495L698.161758,348.598999L699.259904,349.734781L703.185541,347.101503L705.095473,347.358975L707.955785,347.364479L707.539716,345.366240L707.636316,343.994218L705.951976,343.187493L705.040437,343.544612L704.337434,340.243347L699.093649,340.787743L695.666922,339.621507L692.659704,339.900384L692.922416,337.818659L695.941100,338.425117L696.956692,337.306300L695.811822,337.400167Z "
            data-id="TJ" data-name="Tajikistan" id="TJ" />
        <path
            d="M684.564637,345.420155L680.875484,343.909828L672.993969,337.997448L671.630674,334.233094L670.700073,333.564264L667.701311,333.734099L666.640142,332.977690L666.343605,330.007854L662.606582,328.020249L660.269976,330.204507L657.900548,331.490282L658.355887,333.357766L655.226844,333.408239L653.804213,333.588288L651.863036,330.677719L649.988362,329.629178L646.840113,330.408435L645.614695,331.649195L646.480657,334.047150L646.763721,331.333573L648.996275,330.381674L649.791148,332.510941L651.811726,334.725084L649.374650,335.897276L646.759565,334.998476L646.145853,338.070837L647.986989,338.282082L647.274814,340.747931L649.437855,341.957985L649.034543,345.661224L649.550651,348.135362L651.987728,347.460738L653.960436,345.457334L659.005001,345.228175L662.071698,347.006919L664.286623,347.388930L667.456370,350.463299L669.523815,350.586783L669.767179,353.474360L672.595672,354.766275L674.686909,354.312810L675.266223,352.766604L679.018582,351.205398L679.572241,348.438463L681.909851,347.764979L682.344409,346.520899L683.652811,347.455957L684.488245,347.564174L684.564637,345.420155Z "
            data-id="TM" data-name="Turkmenistan" id="TM" />
        <path
            d="M695.222618,330.538240L691.564567,333.128933L690.351045,335.759658L688.557635,334.044867L685.030295,333.925329L684.466173,330.887990L683.114774,330.861861L683.321733,327.088836L680.001353,324.302327L671.992853,325.158934L669.344231,321.686252L662.257446,317.054120L655.117918,319.383893L655.226844,333.408239L658.355887,333.357766L657.900548,331.490282L660.269976,330.204507L662.606582,328.020249L666.343605,330.007854L666.640142,332.977690L667.701311,333.734099L670.700073,333.564264L671.630674,334.233094L672.993969,337.997448L680.875484,343.909828L684.564637,345.420155L684.488245,347.564174L686.033561,347.587345L688.125371,348.323054L689.684160,344.777812L689.085067,342.138164L687.049870,341.286430L687.768782,339.706876L690.084606,339.876041L692.284195,335.543298L695.992697,334.691304L695.811822,337.400167L696.956692,337.306300L699.066417,337.664023L702.617979,335.036952L699.330563,333.096935L697.355132,334.016891L695.308756,332.626589L697.636333,330.215143L696.812795,329.846483L695.222618,330.538240Z "
            data-id="UZ" data-name="Uzbekistan" id="UZ" />
</svg>