<svg width="162" height="119" viewBox="0 0 162 119" fill="none" xmlns="http://www.w3.org/2000/svg"><path d="M113.468.129h-8.117c-3.821 0-7.02 2.71-7.777 6.31-6.232 3.118-36.813 17.602-77.081 22.904a8.03 8.03 0 00-5.459 3.262H7.948C3.565 32.605 0 36.17 0 40.555v16.238c0 4.384 3.565 7.95 7.948 7.95h7.087a8.028 8.028 0 005.458 3.262c.405.054.806.11 1.21.165l12.462 44.878a7.972 7.972 0 007.658 5.822H56.64l.008.001.01-.001h2.697a2.537 2.537 0 000-5.075h-.777L47.26 73.042c26.612 6.486 45.557 15.487 50.314 17.867.758 3.6 3.956 6.31 7.777 6.31h8.117c4.382 0 7.948-3.566 7.948-7.95V8.08c0-4.384-3.566-7.95-7.948-7.95zm-99.94 59.54h-5.58a2.879 2.879 0 01-2.875-2.876V40.555a2.879 2.879 0 012.875-2.876h5.58v21.99zm39.784 54.126H41.823a2.882 2.882 0 01-2.77-2.105l-11.86-42.705c4.995.8 9.817 1.731 14.439 2.75l11.68 42.06zm63.03-24.526a2.878 2.878 0 01-2.875 2.876h-8.116a2.878 2.878 0 01-2.875-2.876V29.731a2.537 2.537 0 00-5.073 0v55.454c-9.987-4.744-39.101-17.32-76.248-22.21-1.457-.192-2.554-1.419-2.554-2.854V37.227c0-1.435 1.098-2.661 2.554-2.853 37.147-4.89 66.26-17.467 76.248-22.21v6.741a2.537 2.537 0 105.073 0V8.079a2.878 2.878 0 012.875-2.876h8.116a2.878 2.878 0 012.875 2.876v81.19zm43.121-43.132h-27.056a2.537 2.537 0 000 5.074h27.056a2.537 2.537 0 000-5.074zm-5.786-25.527a2.535 2.535 0 00-3.33-1.332l-2.706 1.16a2.538 2.538 0 001.998 4.664l2.706-1.16a2.537 2.537 0 001.332-3.332zm-10.822 4.641a2.536 2.536 0 00-3.33-1.332l-8.117 3.48a2.538 2.538 0 001.998 4.663l8.117-3.48a2.537 2.537 0 001.332-3.33zm9.491 48.155l-2.714-1.163a2.536 2.536 0 10-1.998 4.664l2.713 1.163a2.536 2.536 0 101.999-4.664zm-10.827-4.64l-8.113-3.478a2.536 2.536 0 10-1.998 4.663l8.113 3.478a2.536 2.536 0 001.998-4.664z" fill="#1B75BC"/></svg>