<svg width="100" height="107" viewBox="0 0 100 107" fill="none" xmlns="http://www.w3.org/2000/svg"><path d="M50 63.288c2.042 0 4.04-.606 5.738-1.743a10.355 10.355 0 001.565-15.913 10.325 10.325 0 00-11.256-2.241 10.332 10.332 0 00-4.635 3.809 10.35 10.35 0 00-1.741 5.746 10.36 10.36 0 003.029 7.31 10.333 10.333 0 007.3 3.032zm0-18.026a7.667 7.667 0 017.09 4.743 7.694 7.694 0 01-1.664 8.374 7.67 7.67 0 01-8.363 1.666 7.69 7.69 0 01-4.737-7.1 7.698 7.698 0 012.25-5.43A7.678 7.678 0 0150 45.262z" fill="#fff"/><path d="M37.596 63.282c.784.96 1.684 1.818 2.68 2.556l-.061 2.055a1.33 1.33 0 00.849 1.279l4.636 1.791a1.326 1.326 0 001.482-.372l1.335-1.548c1.23.105 2.467.073 3.69-.096l1.43 1.493a1.327 1.327 0 001.49.297l4.555-1.995a1.328 1.328 0 00.792-1.315l-.152-2.06a14.963 14.963 0 002.552-2.683l2.052.06a1.329 1.329 0 001.278-.85l1.789-4.642a1.331 1.331 0 00-.371-1.484l-1.547-1.337a16.611 16.611 0 00-.095-3.695l1.49-1.432a1.33 1.33 0 00.298-1.492l-1.993-4.561a1.329 1.329 0 00-1.313-.793l-2.058.152a14.977 14.977 0 00-2.679-2.556l.06-2.054a1.33 1.33 0 00-.848-1.28L54.3 34.93a1.326 1.326 0 00-1.482.372l-1.335 1.549a16.57 16.57 0 00-3.69.095l-1.43-1.493a1.327 1.327 0 00-1.49-.297l-4.555 1.996a1.328 1.328 0 00-.792 1.315l.151 2.06a14.963 14.963 0 00-2.552 2.683l-2.052-.06a1.33 1.33 0 00-1.277.85l-1.79 4.642a1.331 1.331 0 00.372 1.484l1.547 1.337a16.615 16.615 0 00.096 3.695L32.53 56.59a1.329 1.329 0 00-.298 1.492l1.993 4.56a1.327 1.327 0 001.314.793l2.057-.152zm-.848-7.887a13.964 13.964 0 01-.11-4.314 1.33 1.33 0 00-.45-1.177l-1.366-1.18 1.114-2.892 1.827.054a1.333 1.333 0 001.143-.591 12.346 12.346 0 012.938-3.09 1.329 1.329 0 00.535-1.166l-.135-1.83 2.846-1.247 1.27 1.326a1.327 1.327 0 001.197.387 13.918 13.918 0 014.307-.11 1.326 1.326 0 001.177-.45l1.178-1.369 2.888 1.116-.054 1.83a1.332 1.332 0 00.59 1.144 12.332 12.332 0 013.086 2.942 1.326 1.326 0 001.164.535l1.829-.134 1.244 2.849-1.323 1.271a1.33 1.33 0 00-.387 1.199 13.96 13.96 0 01.11 4.313 1.332 1.332 0 00.45 1.178l1.365 1.18-1.114 2.891-1.826-.053a1.33 1.33 0 00-1.144.59 12.346 12.346 0 01-2.938 3.09 1.33 1.33 0 00-.535 1.166l.135 1.831-2.847 1.246-1.27-1.326a1.326 1.326 0 00-1.197-.387c-1.422.26-2.875.298-4.307.11a1.33 1.33 0 00-1.177.45l-1.178 1.368-2.888-1.115.054-1.83a1.331 1.331 0 00-.59-1.145 12.339 12.339 0 01-3.086-2.941 1.328 1.328 0 00-1.164-.536l-1.829.135-1.245-2.849 1.324-1.271a1.33 1.33 0 00.389-1.198zM50 100.995a4.948 4.948 0 004.576-3.062 4.965 4.965 0 00-1.074-5.404 4.95 4.95 0 00-8.455 3.507 4.969 4.969 0 001.452 3.505 4.951 4.951 0 003.5 1.454zm0-7.26a2.295 2.295 0 012.123 1.42 2.303 2.303 0 01-1.675 3.137 2.295 2.295 0 01-2.359-.978 2.303 2.303 0 011.91-3.58zM26.106 20.989a1.327 1.327 0 001.328-1.33v-1.125a1.33 1.33 0 00-1.328-1.329 1.326 1.326 0 00-1.327 1.33v1.125a1.33 1.33 0 001.327 1.329zm0 15.114a1.327 1.327 0 001.328-1.33v-10.72a1.33 1.33 0 00-1.328-1.328 1.326 1.326 0 00-1.327 1.329v10.72a1.33 1.33 0 001.327 1.329z" fill="#fff"/><path d="M87.16 54.275a6.453 6.453 0 001.764 3.265 6.483 6.483 0 0010.628-2.236 6.5 6.5 0 00-2.277-7.645 6.48 6.48 0 00-7.961.334 6.496 6.496 0 00-2.154 3.624h-6.85V40.888c.34-.811.515-1.683.515-2.563a3.986 3.986 0 011.147-2.802 3.977 3.977 0 012.782-1.186H86a6.137 6.137 0 001.764 3.288 6.478 6.478 0 0011.058-4.594 6.495 6.495 0 00-3.997-5.994 6.473 6.473 0 00-7.06 1.4A6.897 6.897 0 0086 31.679h-1.246a6.516 6.516 0 00-4.444 1.758V10.19c0-2.703-1.072-5.295-2.98-7.206A10.17 10.17 0 0070.132 0H29.868a10.17 10.17 0 00-7.197 2.985 10.197 10.197 0 00-2.98 7.206v23.245a6.516 6.516 0 00-4.444-1.757H14a6.909 6.909 0 00-1.765-3.242 6.505 6.505 0 00-7.096-1.43 6.51 6.51 0 00-4.026 6.024 6.522 6.522 0 004.026 6.024 6.5 6.5 0 007.096-1.43A6.135 6.135 0 0014 34.337h1.247a3.977 3.977 0 012.782 1.186 3.988 3.988 0 011.147 2.802c0 .88.175 1.752.515 2.563v10.729h-6.85a6.495 6.495 0 00-2.154-3.624A6.48 6.48 0 00.278 51.091a6.502 6.502 0 002.893 7.432 6.478 6.478 0 007.906-.983 6.453 6.453 0 001.764-3.265h6.85v10.73a6.624 6.624 0 00-.515 2.562 3.987 3.987 0 01-1.147 2.802 3.977 3.977 0 01-2.782 1.186H14a6.136 6.136 0 00-1.765-3.288 6.461 6.461 0 00-7.037-1.38A6.466 6.466 0 001.22 72.86a6.478 6.478 0 003.978 5.975 6.456 6.456 0 007.037-1.38A6.91 6.91 0 0014 74.213h1.247a6.516 6.516 0 004.444-1.757v24.353c0 2.703 1.072 5.295 2.98 7.206A10.17 10.17 0 0029.868 107h40.265c2.7 0 5.288-1.074 7.196-2.985a10.197 10.197 0 002.981-7.206V72.457a6.516 6.516 0 004.444 1.757H86a6.909 6.909 0 001.764 3.242 6.494 6.494 0 007.082 1.417 6.499 6.499 0 004.013-6.01 6.51 6.51 0 00-4.013-6.012 6.488 6.488 0 00-7.082 1.418A6.135 6.135 0 0086 71.555h-1.246a3.977 3.977 0 01-2.782-1.186 3.987 3.987 0 01-1.147-2.802c0-.88-.175-1.751-.515-2.563V54.275h6.85zm3.641-4.043a3.832 3.832 0 016.545 2.714 3.842 3.842 0 01-2.367 3.546 3.829 3.829 0 01-5.298-3.546c0-1.018.403-1.994 1.12-2.714zm-1.16-19.892a3.833 3.833 0 016.545 2.714 3.842 3.842 0 01-2.367 3.547 3.83 3.83 0 01-4.178-.832 3.841 3.841 0 010-5.429zM10.36 35.77a3.832 3.832 0 01-6.379-1.602 3.844 3.844 0 011.862-4.499 3.829 3.829 0 014.77.951 3.842 3.842 0 01-.253 5.15zM9.2 55.66a3.83 3.83 0 01-6.54-2.713 3.84 3.84 0 012.365-3.545 3.826 3.826 0 014.175.83 3.846 3.846 0 010 5.428zm1.16 19.892a3.83 3.83 0 01-6.54-2.714 3.84 3.84 0 012.364-3.544 3.828 3.828 0 014.176.83 3.841 3.841 0 010 5.428zM22.345 44a6.473 6.473 0 003.415.972h1.284a23.866 23.866 0 00-1.239 5.62c-.035.353-.06.675-.08 1.026h-3.38V44zm0 10.276h3.377c.11 2.27.56 4.51 1.334 6.646H25.76a6.474 6.474 0 00-3.415.973v-7.619zm55.31 42.674c0 4.153-3.343 7.614-7.49 7.614H29.836c-4.148 0-7.49-3.461-7.49-7.614v-7.893h55.31v7.893zm0-10.552h-55.31V65.615a3.937 3.937 0 013.415-2.035h2.411a24.315 24.315 0 007.95 9.289 24.273 24.273 0 0011.461 4.239c.813.08 1.622.135 2.427.135A24.327 24.327 0 0062.84 73.52a24.372 24.372 0 008.94-9.94h2.46a3.93 3.93 0 013.415 2.035v20.782zM28.447 50.822a21.667 21.667 0 014.805-11.613 21.62 21.62 0 0110.439-6.982 21.595 21.595 0 0112.553.001 21.62 21.62 0 0110.437 6.985 21.675 21.675 0 012.352 23.942 21.636 21.636 0 01-8.877 8.887 21.598 21.598 0 01-12.313 2.45 21.46 21.46 0 01-14.64-7.775 21.519 21.519 0 01-4.756-15.895zm49.208 11.072a6.474 6.474 0 00-3.414-.973h-1.355a23.876 23.876 0 001.239-5.62c.035-.353.06-.675.08-1.026h3.45v7.619zm0-10.277h-3.447a22.79 22.79 0 00-1.334-6.646h1.367a6.473 6.473 0 003.414-.972v7.618zm0-11.34a3.936 3.936 0 01-3.414 2.036h-2.483a24.296 24.296 0 00-8.953-9.938 24.252 24.252 0 00-25.7 0 24.296 24.296 0 00-8.954 9.938H25.76a3.93 3.93 0 01-3.415-2.035V15.286h55.31v24.992zm0-27.65h-55.31v-2.355c0-4.153 3.343-7.614 7.491-7.614h40.329c4.147 0 7.49 3.461 7.49 7.614v2.355zm11.986 57.497a3.83 3.83 0 016.38 1.6 3.843 3.843 0 01-1.862 4.5 3.829 3.829 0 01-4.77-.95 3.841 3.841 0 01.252-5.15z" fill="#fff"/></svg>