<svg width="150" height="40" viewBox="0 0 150 40" fill="none" xmlns="http://www.w3.org/2000/svg"><g clip-path="url(#clip0)" fill="#005BAA"><path d="M0 1.22h12.053c2.766 0 6.013 2.57 7.483 4l21.167 23.484V1.22h7.187v37.5H35.303c-2.237-.052-4.452-.538-7.026-3.051L7.156 12.131v26.59H0V1.22zm150 37.753c-8.623 1.19-17.319 1.299-26.076.563-5.121-.426-10.117-1.503-14.723-3.894-5.773-2.999-7.623-9.76-7.551-15.887.063-5.66 1.752-11.67 6.776-14.955 3.303-2.164 6.831-2.886 10.6-3.561 10.237-1.804 20.467-1.398 30.471-.31v5.343C137.711 4 125.28 4.562 121.044 9.976c-2.629 3.367-2.992 6.712-2.992 9.536 0 5.086 1.722 12.782 12.044 14.295 6.749.99 13.4.216 19.906-.94L150 38.973zm-73.752-5.844c1.023.053 17.27.103 22.85 0v5.623c-11.237.44-22.032.615-33.354.149-9.62-.4-11.276-5.24-11.47-9.885V1.222h44.262v5.341H69.913v9.55H95.99v5.207H69.91c-.015 2.819.072 6.013.096 6.585.153 3.639 1.84 4.995 6.23 5.224"/></g><defs><clipPath id="clip0"><path fill="#fff" d="M0 0h150v40H0z"/></clipPath></defs></svg>