<svg width="84" height="84" viewBox="0 0 84 84" fill="none" xmlns="http://www.w3.org/2000/svg"><path d="M17.535 63.115a1.2 1.2 0 00-1.2-1.202c-7.131 0-12.933-5.796-12.933-12.922a12.96 12.96 0 017.582-11.768 1.201 1.201 0 10-.994-2.187A15.366 15.366 0 001 48.99c0 8.45 6.879 15.325 15.334 15.325a1.2 1.2 0 001.201-1.201zm8.617-25.092c1.732-9.672 10.138-16.692 19.988-16.692a20.284 20.284 0 0117.946 10.786 1.201 1.201 0 002.121-1.127 22.841 22.841 0 00-2.327-3.543V11.435l2.906-3.462A3.606 3.606 0 0071.652 4.6 3.607 3.607 0 0068.047 1a3.606 3.606 0 00-3.603 3.6c0 .668.182 1.293.5 1.83l-3.186 3.796c-.182.216-.281.49-.281.772v13.88a22.657 22.657 0 00-7.232-4.462v-8.383a3.607 3.607 0 002.403-3.395c0-1.985-1.617-3.6-3.604-3.6a3.606 3.606 0 00-3.603 3.6c0 1.565 1.004 2.9 2.402 3.395v7.618a22.96 22.96 0 00-8.643-.535V7.996A3.607 3.607 0 0045.603 4.6C45.603 2.615 43.987 1 42 1a3.606 3.606 0 00-3.603 3.6c0 1.565 1.004 2.9 2.402 3.395v11.564a22.677 22.677 0 00-8.643 4.167V12.033a3.607 3.607 0 002.402-3.395c0-1.985-1.616-3.6-3.603-3.6a3.606 3.606 0 00-3.604 3.6c0 1.565 1.005 2.9 2.403 3.395V25.89a22.574 22.574 0 00-5.574 9.93 15.193 15.193 0 00-1.734-.892v-23.93c0-.283-.1-.557-.28-.773l-3.187-3.797c.318-.536.5-1.161.5-1.829 0-1.985-1.616-3.6-3.603-3.6a3.606 3.606 0 00-3.604 3.6 3.606 3.606 0 004.866 3.373l2.906 3.462v22.68a15.44 15.44 0 00-3.71-.448 1.201 1.201 0 000 2.403c2.89 0 5.622.93 7.902 2.692a1.201 1.201 0 001.917-.739zm41.896-34.62A1.2 1.2 0 0169.249 4.6a1.2 1.2 0 01-2.402 0 1.2 1.2 0 011.201-1.198zM53.045 7.44a1.2 1.2 0 011.201 1.198 1.201 1.201 0 01-2.402 0 1.2 1.2 0 011.201-1.198zM42 3.402A1.2 1.2 0 0143.201 4.6a1.2 1.2 0 01-2.403 0A1.2 1.2 0 0142 3.402zM30.954 7.44a1.2 1.2 0 011.201 1.198 1.2 1.2 0 01-2.402 0 1.2 1.2 0 011.2-1.198zM14.674 4.6a1.2 1.2 0 012.402 0 1.2 1.2 0 01-2.402 0zm56.757 36.594a11.6 11.6 0 00-2.582.289 22.802 22.802 0 00-.574-4.955 1.201 1.201 0 10-2.342.537 20.402 20.402 0 01.464 5.98 1.201 1.201 0 001.643 1.198 9.126 9.126 0 013.391-.647c5.055 0 9.166 4.109 9.166 9.16 0 5.05-4.112 9.158-9.166 9.158h-3.939a1.201 1.201 0 000 2.403h3.94c6.378 0 11.567-5.187 11.567-11.562 0-6.375-5.189-11.561-11.568-11.561zm-13.492 20.72H46.807a1.201 1.201 0 000 2.402h5.037v11.689a3.607 3.607 0 00-2.402 3.394c0 1.986 1.616 3.6 3.603 3.6a3.606 3.606 0 003.604-3.6 3.607 3.607 0 00-2.403-3.394V64.316h3.693a1.201 1.201 0 000-2.402zm-4.894 18.683a1.2 1.2 0 01-1.201-1.198 1.2 1.2 0 012.402 0 1.2 1.2 0 01-1.2 1.198zM37.19 61.914H26.252a1.201 1.201 0 100 2.402h3.502v11.689a3.607 3.607 0 00-2.403 3.394c0 1.986 1.617 3.6 3.604 3.6a3.606 3.606 0 003.603-3.6 3.606 3.606 0 00-2.402-3.394V64.316h5.034a1.201 1.201 0 000-2.402zm-6.235 18.683a1.2 1.2 0 01-1.201-1.198 1.2 1.2 0 012.402 0c0 .66-.539 1.198-1.201 1.198z" fill="#1B75BC" stroke="#1B75BC" stroke-width=".5"/><path d="M21.32 51.55a3.606 3.606 0 00-3.603 3.601c0 1.565 1.004 2.9 2.402 3.395v16.417l-5.088 6.063a1.201 1.201 0 101.84 1.544l5.37-6.397c.181-.217.28-.49.28-.773V58.546a3.607 3.607 0 002.403-3.395c0-1.985-1.616-3.6-3.604-3.6zm0 4.8a1.2 1.2 0 01-1.2-1.199 1.2 1.2 0 012.402 0 1.2 1.2 0 01-1.202 1.198zM42 51.55a3.606 3.606 0 00-3.603 3.601c0 1.565 1.004 2.9 2.402 3.395v23.252a1.201 1.201 0 002.402 0V58.546a3.607 3.607 0 002.402-3.395c0-1.985-1.616-3.6-3.603-3.6zm0 4.8a1.2 1.2 0 01-1.201-1.199 1.2 1.2 0 012.402 0c0 .66-.539 1.198-1.201 1.198zm21.88 18.613V58.546a3.607 3.607 0 002.403-3.395c0-1.985-1.616-3.6-3.603-3.6a3.606 3.606 0 00-3.604 3.6c0 1.565 1.004 2.9 2.402 3.395V75.4c0 .282.1.556.282.772l5.369 6.397a1.199 1.199 0 001.692.149 1.201 1.201 0 00.148-1.693l-5.088-6.063zm-1.2-21.01a1.2 1.2 0 011.2 1.198 1.201 1.201 0 01-2.402 0 1.2 1.2 0 011.202-1.198z" fill="#1B75BC" stroke="#1B75BC" stroke-width=".5"/></svg>