<svg width="176" height="54" viewBox="0 0 176 54" fill="none" xmlns="http://www.w3.org/2000/svg"><g clip-path="url(#clip0)"><path d="M56.196 12.064a13.507 13.507 0 015.934 1.227c1.861.854 3.51 2.12 4.822 3.705a13.835 13.835 0 012.758 5.45c.504 2.004.556 4.096.151 6.122a19.571 19.571 0 01-6.519 11.373 19.194 19.194 0 01-12.175 4.619 13.427 13.427 0 01-5.87-1.204 13.564 13.564 0 01-4.784-3.645 13.75 13.75 0 01-2.761-5.372 13.843 13.843 0 01-.201-6.052 19.625 19.625 0 016.446-11.49 19.246 19.246 0 0112.199-4.733zm-4.36 27.198a13.473 13.473 0 008.145-3.312 13.73 13.73 0 004.427-7.663 9.007 9.007 0 00.01-4.062 8.952 8.952 0 00-1.775-3.644 8.827 8.827 0 00-3.19-2.47 8.734 8.734 0 00-3.943-.782 13.316 13.316 0 00-8.121 3.338 13.569 13.569 0 00-4.336 7.703 9.04 9.04 0 00.034 4.013 8.983 8.983 0 001.766 3.595 8.861 8.861 0 003.144 2.452 8.77 8.77 0 003.889.816M73.47 23.799h4.897l-.261 1.65a7.84 7.84 0 012.926-1.805 7.774 7.774 0 013.409-.373c5.942.478 7.934 5.908 7.248 10.463-.832 5.512-4.75 10.315-10.693 10.496-1.03.1-2.067-.06-3.021-.462a6.292 6.292 0 01-2.449-1.848l-1.894 12.03h-4.898L73.47 23.8zm7.117 15.81c2.417 0 5.209-1.551 6.074-5.776.735-3.548-.947-5.892-4.065-5.892a6.499 6.499 0 00-4.037 1.831 6.628 6.628 0 00-1.955 4.011c-.539 4.275 1.763 5.826 3.983 5.826zm15.184-11.157h-2.057l.718-4.654h2.074l1.028-6.535h4.866l-1.029 6.535h3.216l-.734 4.654h-3.2l-2.4 15.332H93.37l2.4-15.332zm7.983 5.232a12.582 12.582 0 014.083-7.339 12.335 12.335 0 017.754-3.075 8.65 8.65 0 013.809.752 8.735 8.735 0 013.111 2.346 8.863 8.863 0 011.799 3.477c.333 1.28.378 2.62.13 3.921a12.463 12.463 0 01-4.103 7.499 12.22 12.22 0 01-7.93 3.03 8.673 8.673 0 01-3.776-.828 8.777 8.777 0 01-3.055-2.39 8.934 8.934 0 01-1.822-7.393zm15.837 0c.506-3.516-1.404-5.644-4.49-5.71a6.835 6.835 0 00-4.313 1.759 6.964 6.964 0 00-2.217 4.132c-.588 3.549 1.502 5.777 4.473 5.777a6.833 6.833 0 004.336-1.791 6.973 6.973 0 002.195-4.184m28.115-4.769a1.285 1.285 0 00-1.11-.908 3.233 3.233 0 00-1.835.208 3.268 3.268 0 00-1.43 1.179 11.209 11.209 0 00-1.274 4.423l-1.633 9.985h-4.898l1.764-11.107c.392-2.69.506-4.737-1.437-4.737-3.118 0-3.771 3.68-4.131 5.842l-1.632 9.985h-4.898l3.134-20.002h4.898l-.212 1.452a4.91 4.91 0 011.837-1.484 4.856 4.856 0 012.31-.447 5.13 5.13 0 012.397.627 5.18 5.18 0 011.832 1.684 8.115 8.115 0 015.714-2.31 4.983 4.983 0 012.963.658 5.063 5.063 0 012.049 2.262c.698 1.884.823 3.936.359 5.892l-1.812 11.668h-4.898l1.747-11.107c.539-2.954.131-3.78.131-3.78m25.256 14.903h-4.898l.294-1.65a8.142 8.142 0 01-2.824 1.715 8.084 8.084 0 01-3.266.447c-4.261 0-8.62-4.077-7.51-10.629 1.029-6.122 5.6-10.347 11.021-10.347a5.87 5.87 0 012.843.447 5.934 5.934 0 012.3 1.748l.277-1.65h4.898l-3.135 19.92zm-7.102-15.843a6.658 6.658 0 00-4.132 1.837 6.791 6.791 0 00-2.039 4.071c-.49 3.152.996 5.793 4 5.793a6.575 6.575 0 004.154-1.808 6.711 6.711 0 002.034-4.084c.587-3.862-1.372-5.826-3.984-5.826" fill="#130C15"/><path d="M15.38 22.94S.684 21.29 0 14.325C-.654 8.021 23.053.693 44.816 0c34.188-.974 53.29 9.242 53.29 9.242S77.942 3.961 50.008 6.321C24.88 8.433 13.534 14.193 12.163 17.808c-1.013 2.69 3.265 5.116 3.265 5.116" fill="#D61F28"/></g><defs><clipPath id="clip0"><path fill="#fff" d="M0 0h176v54H0z"/></clipPath></defs></svg>