<svg width="176" height="26" viewBox="0 0 176 26" fill="none" xmlns="http://www.w3.org/2000/svg"><path fill-rule="evenodd" clip-rule="evenodd" d="M42.152 7.45h6.511l.29 2.166c.502-1.715 3.797-2.938 5.8-2.938 4.649 0 6.512 2.867 6.512 7.881v10.799h-7.232v-9.666c0-1.935-.361-3.37-2.294-3.37-1.934 0-2.715 1.936-2.715 3.31v9.746h-6.872V7.45zM0 25.429V.07h12.09c7.233 0 10.518 3.51 10.518 8.593 0 5.445-3.005 9.165-10.517 9.165H8.014v7.59L0 25.429zm11.26-13.747c1.933 0 4.006-.432 4.006-2.648s-2.214-2.797-4.007-2.797H8.014v5.445h3.245zM121.727 7.45h6.581l.21 2.146c.571-1.715 3.867-2.938 5.87-2.938 4.578 0 6.511 2.868 6.511 7.881v10.89h-7.232v-9.736c0-1.936-.431-3.37-2.364-3.37-1.713 0-2.644 1.936-2.644 3.3v9.816h-6.942V7.45h.01zM88.52 18.981a3.4 3.4 0 00.792 2.146c.553.436 1.23.686 1.933.712 1.292 0 2.294-.361 2.294-1.574.07-3.008-10.878-.361-10.878-7.52 0-5.014 3.866-6.157 7.873-6.157s9.516.792 9.306 6.237h-6.08a2.227 2.227 0 00-.501-1.294 2.384 2.384 0 00-1.864-.792c-1.212-.07-2.364.14-2.364 1.073.07 2.798 11.31.933 11.31 7.52 0 4.583-3.226 6.658-9.446 6.658-3.937-.07-8.876-2.075-8.876-7.019l6.502.01zm74.077-4.582a2.429 2.429 0 00-.571-1.715 2.585 2.585 0 00-1.933-1.143c-2.715 0-3.436 2.647-3.436 4.803 0 2.506 1.142 4.582 3.295 4.582a3.004 3.004 0 002.795-3.148h6.301c.14 3.73-2.434 8.162-9.376 8.162a9.234 9.234 0 01-6.958-2.702 9.257 9.257 0 01-2.699-6.964c0-6.95 5.149-9.596 9.587-9.596 6.01 0 9.446 3.65 9.376 7.74l-6.381-.02zM34.498 25.428l-.711-1.504a7.188 7.188 0 01-5.079 1.795c-2.214-.07-6.581-.36-6.581-5.154 0-7.881 11.74-4.301 11.74-8.162 0-1.293-1.432-1.213-2.214-1.213-1.432 0-2.364.29-2.574 2.437h-6.01c0-3.72 1.142-6.879 9.015-6.879 7.653 0 8.444 4.01 8.444 7.952v8.161a2.83 2.83 0 00.792 2.367v.14l-6.802.07-.02-.01zm-.57-8.242c-2.435 1.143-5.51 1.073-5.58 2.868 0 1.143.64 1.715 2.073 1.715 2.364 0 3.646-2.437 3.506-4.583zm40.939 8.242l-.711-1.504a7.308 7.308 0 01-5.079 1.795c-2.294-.07-6.651-.36-6.651-5.154 0-7.881 11.74-4.301 11.81-8.162 0-1.293-1.503-1.213-2.214-1.213-1.503 0-2.364.29-2.574 2.437h-6.01c0-3.72 1.071-6.879 9.015-6.879 7.583 0 8.374 4.01 8.374 7.952v8.161a2.83 2.83 0 00.791 2.367v.14l-6.731.07-.02-.01zm-.571-8.242c-2.434 1.143-5.58 1.073-5.58 2.868 0 1.143.571 1.715 2.074 1.715 2.294 0 3.646-2.437 3.506-4.583zm74.558 8.242V7.45h-6.651v17.98h6.651zm-6.651-20.274h6.651V0h-6.651v5.154zM111 6.809c5.94 0 9.587 4.15 9.587 9.595S116.94 26 111 26c-5.94 0-9.656-4.08-9.656-9.596 0-5.514 3.726-9.595 9.656-9.595zm-3.145 9.595c0 2.216.711 4.944 3.145 5.014 2.434.07 3.075-2.798 3.075-5.014s-.641-4.943-3.075-4.943-3.075 2.798-3.145 4.943zm65.4 5.515c.431 0 1.072.07 1.072-.502 0-.571-.431-.571-.792-.571h-.861v1.073h.581zm1.432 1.714h-.43l-.862-1.433h-.711v1.454h-.361v-3.079h1.293c.57 0 1.081.17 1.081.863 0 .691-.37.792-.941.792l.931 1.433v-.03zm1.002-1.463a2.396 2.396 0 00-4.087-1.725 2.398 2.398 0 001.723 4.09 2.393 2.393 0 002.364-2.366zm-5.119 0a2.722 2.722 0 011.676-2.511 2.713 2.713 0 013.701 1.98 2.721 2.721 0 01-1.154 2.79 2.71 2.71 0 01-3.428-.338 2.719 2.719 0 01-.795-1.922z" fill="#0066B1"/></svg>