<svg width="150" height="31" viewBox="0 0 150 31" fill="none" xmlns="http://www.w3.org/2000/svg"><g clip-path="url(#clip0)" fill="#0073BD"><path d="M71.557 0L67.32 7.457H52.454l-2.552 4.418h11.865l-4.081 7.175h-11.88l-2.468 4.418H58.19l-4.25 7.457H29.172L46.788 0h24.769zm14.039 0L72.23 23.468h11.01l-4.25 7.457H57.53L75.133 0h10.463zm21.039 7.457a2.144 2.144 0 00-1.913 1.186l-7.709 13.502a.898.898 0 00-.14.47.85.85 0 00.837.834h12.861l-4.25 7.452H87.247a3.304 3.304 0 01-2.337-.969 3.326 3.326 0 01-.973-2.341 3.29 3.29 0 01.468-1.642L97.35 3.194A6.13 6.13 0 0199.599.858 6.105 6.105 0 01102.721 0h20.856l-4.236 7.457h-12.706zM28.05 8.775l-2.337 4.113a2.168 2.168 0 01-1.954 1.182h-3.703l3.787-6.613h3.506a.84.84 0 01.842.844.892.892 0 01-.14.47v.004zM37.798 0H17.616L0 30.925h10.463l5.343-9.38h11.866a6.106 6.106 0 003.122-.858 6.131 6.131 0 002.25-2.335l7.63-13.395c.286-.5.436-1.068.434-1.646a3.316 3.316 0 00-.969-2.346A3.295 3.295 0 0037.798 0zm99.13 8.775l-7.672 13.502a2.179 2.179 0 01-1.935 1.172h-1.978a.84.84 0 01-.841-.849.906.906 0 01.14-.469l7.663-13.488a2.136 2.136 0 011.921-1.19h1.978a.831.831 0 01.841.843.792.792 0 01-.14.47l.023.009zM146.704 0h-16.363a6.102 6.102 0 00-3.122.858 6.133 6.133 0 00-2.25 2.336l-12.964 22.774a3.258 3.258 0 00-.434 1.641 3.31 3.31 0 003.31 3.311h16.362a6.105 6.105 0 003.123-.858 6.13 6.13 0 002.249-2.335l12.959-22.774c.288-.5.438-1.069.435-1.647a3.301 3.301 0 00-.969-2.34A3.292 3.292 0 00146.704 0zm-8.149 29.307h.281a.897.897 0 00.421-.07.312.312 0 00.104-.235.316.316 0 00-.104-.235.865.865 0 00-.407-.065h-.309v.628l.014-.023zm-.238-.783h.715a.658.658 0 01.435.122.386.386 0 01.154.337c0 .267-.154.427-.467.47.101.06.191.138.266.229.104.18.193.369.267.563h-.253a2.583 2.583 0 00-.364-.629.64.64 0 00-.435-.126h-.098v.755h-.225l.005-1.721zm2.104.848a1.4 1.4 0 00-.421-1.018 1.409 1.409 0 00-1.01-.43 1.395 1.395 0 00-1.01.43 1.416 1.416 0 00-.434 1.018 1.422 1.422 0 00.434 1.018 1.4 1.4 0 002.02 0 1.412 1.412 0 00.435-1.041l-.014.023zm-3.072 0a1.586 1.586 0 01.468-1.163 1.648 1.648 0 011.169-.488 1.643 1.643 0 011.168.488c.193.192.335.429.414.689a1.647 1.647 0 01-1.737 2.126 1.641 1.641 0 01-1.291-.87 1.67 1.67 0 01-.191-.782z"/></g><defs><clipPath id="clip0"><path fill="#fff" d="M0 0h150v31H0z"/></clipPath></defs></svg>