<svg width="101" height="85" viewBox="0 0 101 85" fill="none" xmlns="http://www.w3.org/2000/svg"><path d="M16.8 42.5c0 21.711-8.776 33.374-16.138 39.335a1.705 1.705 0 00-.413 2.135c.399.72 1.25 1.05 2.024.784a89.075 89.075 0 0131.602-4.067 65.053 65.053 0 0113.57 2.598 41.442 41.442 0 0013.255 1.54c21.141-1.165 38.2-17.865 39.986-39.146.915-11.773-3.122-23.39-11.122-32.011C77.809.912 59.514-3.288 43.444 3.08 27.375 9.447 16.806 25.085 16.8 42.5zM58.803 3.522c10.736.018 20.984 4.525 28.304 12.448 7.36 7.933 11.074 18.623 10.233 29.456-1.641 19.578-17.334 34.942-36.783 36.014a38.257 38.257 0 01-12.199-1.409 68.005 68.005 0 00-14.28-2.711 81.34 81.34 0 00-5.052-.154 93.351 93.351 0 00-21.248 2.52c6.424-7.242 12.384-18.883 12.384-37.186.024-21.517 17.31-38.954 38.64-38.978z" fill="#fff"/><path d="M32.953 63.08c.631 0 1.209-.357 1.495-.925a1.707 1.707 0 00-.136-1.764c-8.705-12.138-7.383-28.855 3.118-39.449 10.5-10.593 27.073-11.927 39.107-3.148a1.67 1.67 0 001.673.176 1.703 1.703 0 00.3-2.924c-13.37-9.776-31.8-8.302-43.477 3.477C23.355 30.3 21.894 48.892 31.585 62.38a1.68 1.68 0 001.368.7zm47.232.991C69.708 74.73 53.081 76.062 41.067 67.206a1.67 1.67 0 00-1.673-.175 1.703 1.703 0 00-.3 2.924c13.37 9.776 31.8 8.302 43.478-3.477C94.249 54.7 95.71 36.108 86.019 22.62a1.67 1.67 0 00-2.335-.36 1.704 1.704 0 00-.385 2.35c8.78 12.12 7.457 28.895-3.114 39.461z" fill="#fff"/><path d="M47.041 42.5c0-3.743-3.008-6.778-6.72-6.778-3.711 0-6.72 3.035-6.72 6.779 0 3.743 3.009 6.778 6.72 6.778 3.712 0 6.72-3.035 6.72-6.779zm-10.08 0c0-1.871 1.505-3.389 3.36-3.389 1.856 0 3.36 1.518 3.36 3.39 0 1.871-1.504 3.389-3.36 3.389-1.855 0-3.36-1.518-3.36-3.39zm28.561 0c0-3.743-3.009-6.778-6.72-6.778-3.712 0-6.72 3.035-6.72 6.779 0 3.743 3.008 6.778 6.72 6.778 3.711 0 6.72-3.035 6.72-6.779zm-10.08 0c0-1.871 1.504-3.389 3.36-3.389 1.855 0 3.36 1.518 3.36 3.39 0 1.871-1.505 3.389-3.36 3.389-1.856 0-3.36-1.518-3.36-3.39zm15.121 0c0 3.744 3.008 6.78 6.72 6.78 3.711 0 6.72-3.036 6.72-6.78 0-3.743-3.009-6.778-6.72-6.778-3.712 0-6.72 3.035-6.72 6.779zm10.08 0c0 1.872-1.505 3.39-3.36 3.39-1.856 0-3.36-1.518-3.36-3.39 0-1.871 1.504-3.389 3.36-3.389 1.855 0 3.36 1.518 3.36 3.39z" fill="#fff"/></svg>