<svg width="123" height="123" viewBox="0 0 123 123" fill="none" xmlns="http://www.w3.org/2000/svg"><path d="M42.676 42.117c-1.117 0-1.864.746-1.864 1.864v51.436c0 1.117.747 1.864 1.864 1.864h11.927a1.686 1.686 0 001.304-.56 1.69 1.69 0 00.56-1.304V43.983a1.688 1.688 0 00-.56-1.304 1.691 1.691 0 00-1.304-.56H42.676v-.002zm10.063 51.437h-8.2V45.846h8.2v47.708zM17.516 63.736c-1.117 0-1.863.747-1.863 1.864v29.817c0 1.117.746 1.864 1.863 1.864h11.927a1.686 1.686 0 001.304-.56 1.691 1.691 0 00.56-1.304V65.6c0-.56-.187-.933-.56-1.304-.373-.37-.746-.56-1.304-.56H17.516zm10.066 29.818h-8.2v-26.09h8.2v26.09z" fill="#1B75BC"/><path d="M121.137 102.687h-4.474c.56-2.237.933-4.847.933-7.268 0-8.76-4.1-17.146-11.554-22.55V29.633c0-1.117-.746-1.864-1.863-1.864H92.25c-1.117 0-1.863.747-1.863 1.864v38.203H90.2c-3.167 0-5.963.56-8.76 1.49V50.318c0-1.117-.746-1.863-1.863-1.863H67.65a1.688 1.688 0 00-1.304.56 1.691 1.691 0 00-.56 1.303v32.614a28.031 28.031 0 00-2.982 12.486c0 2.423.373 4.846.932 7.267H3.727V1.864C3.727.745 2.982 0 1.864 0 .933 0 0 .933 0 1.863V104.55c0 .56.187.933.56 1.304a1.697 1.697 0 001.303.559h62.99C69.14 116.104 78.834 123 90.2 123s21.06-6.896 25.346-16.587h5.591c1.117 0 1.863-.746 1.863-1.863a1.868 1.868 0 00-1.863-1.863zM94.113 31.683h8.2v39.136c-2.61-1.303-5.403-2.05-8.2-2.61V31.684zm-24.786 20.5h8.2v18.636a28.195 28.195 0 00-8.2 6.523v-25.16zm20.873 67.09c-13.417 0-23.854-10.996-23.854-23.854 0-13.046 10.623-23.853 23.854-23.853a23.782 23.782 0 0123.854 23.853c0 13.231-10.808 23.854-23.854 23.854z" fill="#1B75BC"/><path d="M21.433 48.454a8.353 8.353 0 008.387-8.387c0-1.677-.56-3.167-1.304-4.473l13.977-13.79a8.139 8.139 0 0010.81-1.864l10.436 5.218c-.189.56-.189 1.305-.189 1.865a8.351 8.351 0 008.387 8.387 8.351 8.351 0 008.386-8.387c0-1.304-.373-2.423-.746-3.354l11.74-8.946c1.49 1.117 3.354 2.05 5.404 2.05a8.351 8.351 0 008.387-8.386A8.35 8.35 0 0096.723 0a8.351 8.351 0 00-8.386 8.387c0 1.303.373 2.423.746 3.353l-11.74 8.947c-3.727-2.983-8.76-2.424-11.74 1.117L54.978 16.77c.187-.56.187-1.304.187-1.863a8.353 8.353 0 00-8.387-8.387 8.352 8.352 0 00-8.386 8.387c0 1.677.56 3.167 1.303 4.473L25.72 33.17c-1.304-.746-2.797-1.304-4.474-1.304-4.286-.186-8.2 3.54-8.2 8.2 0 4.66 3.914 8.387 8.387 8.387zM96.537 3.727c2.61 0 4.659 2.05 4.659 4.66 0 2.61-2.05 4.66-4.66 4.66a4.612 4.612 0 01-4.659-4.66c.187-2.61 2.237-4.66 4.66-4.66zm-24.6 18.823c2.61 0 4.66 2.05 4.66 4.66 0 2.61-2.05 4.66-4.66 4.66-2.61 0-4.66-2.05-4.66-4.66 0-2.61 2.237-4.66 4.66-4.66zm-24.973-12.3c2.61 0 4.66 2.05 4.66 4.66 0 2.61-2.05 4.66-4.66 4.66-2.61 0-4.66-2.05-4.66-4.66 0-2.61 2.05-4.66 4.66-4.66zM21.433 35.41c2.61 0 4.66 2.05 4.66 4.66 0 2.609-2.05 4.659-4.66 4.659a4.613 4.613 0 01-4.66-4.66c0-2.61 2.237-4.66 4.66-4.66zM92.25 92.25l-.186-8.76a15.19 15.19 0 016.71 2.797l2.98-4.287c-3.167-2.05-6.337-3.354-9.877-3.54v-2.423h-2.983v2.236c-2.982.187-5.59 1.117-7.454 2.796-1.863 1.677-2.796 3.914-2.796 6.71s.746 4.846 2.423 6.15c1.677 1.304 4.287 2.423 7.827 3.354v9.133c-2.796-.374-5.59-1.864-8.2-4.1l-3.353 4.1c3.353 2.982 7.267 4.659 11.553 5.217v3.354h2.983v-3.354c3.167-.187 5.777-1.117 7.827-2.796 1.863-1.677 2.983-3.914 2.983-6.71s-.933-4.846-2.61-6.337c-1.49-1.49-4.286-2.607-7.827-3.54zm-3.167-.746c-1.677-.56-2.983-1.117-3.54-1.677-.56-.56-.933-1.49-.933-2.423 0-1.117.373-1.864 1.117-2.61.746-.746 1.864-1.117 3.354-1.304l.002 8.014zm6.521 13.606c-.933.746-2.05 1.117-3.54 1.304v-8.387c1.863.56 3.167 1.117 3.913 1.863.746.56 1.12 1.493 1.12 2.61 0 1.117-.56 2.05-1.493 2.61z" fill="#1B75BC"/></svg>