<svg width="150" height="50" viewBox="0 0 150 50" fill="none" xmlns="http://www.w3.org/2000/svg"><g clip-path="url(#clip0)"><path d="M149.902 11.903c-2.04-11.761-37.227-15.43-78.594-8.198-17.377 3.045-33.066 7.545-45.28 12.563 1.875.045 3.264.473 4.116 1.32a3.683 3.683 0 01.994 2.716v1.162H27.08V20.44a1.296 1.296 0 00-.384-1.03 1.284 1.284 0 00-1.035-.358 1.252 1.252 0 00-1.383 1.028 1.97 1.97 0 000 .81c.434 1.785 6.455 2.888 7.113 6.173a7.87 7.87 0 010 2.625c-.374 2.648-2.697 3.676-5.648 3.676-4.124 0-5.798-1.958-5.798-4.666v-1.275h4.348v1.59a1.377 1.377 0 00.929 1.321c.181.062.374.085.566.067a1.335 1.335 0 001.494-1.028c.11-.374.11-.773 0-1.147-.807-2.026-6.433-3-7.12-6.249a5.511 5.511 0 01.007-2.152c.065-.393.186-.775.359-1.133C6.969 25.051-.957 32.05.089 38.096c2.047 11.76 37.264 15.429 78.6 8.19 18.185-3.18 34.531-7.935 46.977-13.269h-.537c-2.832 0-5.357-1.065-5.626-3.967a15.16 15.16 0 01-.06-1.05v-6.676c0-.285 0-.795.067-1.058.337-2.805 2.548-3.968 5.611-3.968 2.368 0 5.282.683 5.603 3.968.017.333.017.666 0 .998v.63h-4.101V21a3.795 3.795 0 00-.053-.592 1.378 1.378 0 00-1.494-1.11c-.34-.028-.68.069-.954.273a1.418 1.418 0 00-.54.837 3.627 3.627 0 00-.06.75v7.26a3.448 3.448 0 000 .593 1.66 1.66 0 001.562 1.119 1.646 1.646 0 001.561-1.119c.03-.196.042-.394.037-.592v-2.25h-1.613v-2.453h5.7v4.305c.001.35-.017.701-.052 1.05a4.064 4.064 0 01-.68 1.958c13.216-6.278 20.873-13.172 19.865-19.127zM42.635 32.74l-2.077-14.154h-.074l-2.13 14.154h-4.377l2.943-15.992h7.157l2.921 15.992h-4.363zm21.038 0l-.097-13.884h-.075l-2.57 13.884h-4.109l-2.555-13.884h-.074l-.09 13.884h-4.05l.352-15.992h6.522l1.905 11.882h.09l1.912-11.882h6.537l.351 15.992h-4.049zm19.156-3.098c-.441 3.098-3.46 3.638-5.596 3.638-3.549 0-5.738-1.5-5.738-4.62V27.4h4.296v1.575a1.36 1.36 0 00.928 1.319c.182.06.375.081.566.06a1.311 1.311 0 001.494-1.02c.108-.37.108-.762 0-1.132-.792-1.988-6.372-3-7.052-6.188a5.406 5.406 0 01-.038-2.138c.471-2.925 3.265-3.533 5.521-3.533 2.01 0 3.474.443 4.356 1.32a3.648 3.648 0 01.986 2.686v1.155h-4.02v-1.02a1.286 1.286 0 00-.853-1.308 1.274 1.274 0 00-.55-.065 1.244 1.244 0 00-.894.234c-.257.19-.432.471-.489.786a1.959 1.959 0 000 .803c.433 1.77 6.403 2.858 7.053 6.113.154.857.164 1.735.03 2.595zm14.882-1.455c0 .3 0 .9-.038 1.05-.246 2.633-2.122 3.976-5.566 3.976s-5.334-1.343-5.573-3.976c0-.15-.045-.75-.037-1.05V16.748h4.109v11.807c-.02.197-.02.395 0 .592a1.501 1.501 0 001.471 1.241 1.494 1.494 0 001.472-1.241c.016-.2.016-.4 0-.6V16.748h4.094l.067 11.439zm17.713 4.388h-5.723l-3.84-12.661h-.067l.217 12.669h-3.99V16.756h5.977l3.549 12.166h.082l-.209-12.166h4.011l-.007 15.819z" fill="#034EA2"/></g><defs><clipPath id="clip0"><path fill="#fff" d="M0 0h150v50H0z"/></clipPath></defs></svg>