<svg width="87" height="80" viewBox="0 0 87 80" fill="none" xmlns="http://www.w3.org/2000/svg"><g clip-path="url(#clip0)" fill="#1B75BC"><path d="M56.188 58.099a1.815 1.815 0 01-1.813-1.816v-9.078c0-1.002.812-1.815 1.813-1.815 1 0 1.812.813 1.812 1.815v9.078a1.815 1.815 0 01-1.813 1.816z"/><path d="M59.813 79.886H5.437C2.44 79.886 0 77.442 0 74.44V59.915c0-3.003 2.44-5.447 5.438-5.447h54.374c2.998 0 5.438 2.444 5.438 5.447v14.524c0 3.003-2.44 5.447-5.438 5.447zM5.437 58.1c-1 0-1.812.813-1.812 1.816V74.44c0 1.003.812 1.816 1.813 1.816h54.374a1.815 1.815 0 001.813-1.816V59.915a1.815 1.815 0 00-1.813-1.816H5.438zm54.376-9.079H5.437C2.44 49.021 0 46.577 0 43.574V29.05c0-3.003 2.44-5.447 5.438-5.447h36.43a1.815 1.815 0 010 3.632H5.439a1.814 1.814 0 00-1.813 1.815v14.525c0 1.002.812 1.816 1.813 1.816h54.374c.639 0 1.258-.367 1.577-.93a1.812 1.812 0 012.473-.682 1.816 1.816 0 01.681 2.476 5.453 5.453 0 01-4.73 2.767z"/><path d="M9.063 58.099a1.815 1.815 0 01-1.813-1.816v-9.078c0-1.002.812-1.815 1.813-1.815 1 0 1.812.813 1.812 1.815v9.078A1.815 1.815 0 019.062 58.1zm14.5-19.972H12.688a1.815 1.815 0 010-3.63h10.874a1.815 1.815 0 010 3.63zm0 30.866H12.688a1.815 1.815 0 010-3.632h10.874a1.815 1.815 0 010 3.632zm61.625-32.681a1.815 1.815 0 01-1.813-1.816c0-17.019-13.822-30.865-30.813-30.865a1.815 1.815 0 010-3.631C71.55 0 87 15.476 87 34.496a1.815 1.815 0 01-1.813 1.816z"/><path d="M74.313 36.312a1.815 1.815 0 01-1.813-1.816c0-11.013-8.943-19.971-19.938-19.971a1.815 1.815 0 010-3.631c12.993 0 23.563 10.588 23.563 23.602a1.815 1.815 0 01-1.813 1.816z"/><path d="M63.438 36.312a1.815 1.815 0 01-1.813-1.816c0-5.004-4.067-9.078-9.063-9.078a1.815 1.815 0 010-3.63c6.997 0 12.688 5.7 12.688 12.708a1.815 1.815 0 01-1.813 1.816z"/></g><defs><clipPath id="clip0"><path fill="#fff" d="M0 0h87v80H0z"/></clipPath></defs></svg>