<svg width="82" height="82" viewBox="0 0 82 82" fill="none" xmlns="http://www.w3.org/2000/svg"><g clip-path="url(#clip0)" fill="#1B75BC"><path d="M14.47 53.058h9.648V0H0v53.058h14.47zm6.426-12.868H3.222v-6.426h17.674v6.426zm0-36.968v27.321H3.222V3.223h17.674zM3.222 43.412h17.674v6.425H3.222v-6.425zm40.189 9.646h9.648V0H28.941v53.058h14.47zm6.426-12.868H32.162v-6.426h17.675v6.426zm0-36.968v27.321H32.162V3.223h17.675zm-17.675 40.19h17.675v6.425H32.162v-6.425zm40.191 9.646H82V0H57.883v53.058h14.47zm6.425-12.868H61.105v-6.426h17.673v6.426zm0-36.968v27.321H61.105V3.223h17.673zm-17.673 40.19h17.673v6.425H61.105v-6.425z"/><path d="M12.053 9.647h.01a2.403 2.403 0 012.403 2.403v.011a2.402 2.402 0 01-2.402 2.402h-.011a2.402 2.402 0 01-2.403-2.402v-.011a2.402 2.402 0 012.403-2.403zm0 9.647h.01a2.402 2.402 0 012.403 2.402v.011a2.402 2.402 0 01-2.402 2.403h-.011a2.402 2.402 0 01-2.403-2.402v-.012a2.402 2.402 0 012.403-2.402zM41 9.647a2.402 2.402 0 012.402 2.403v.011a2.402 2.402 0 11-4.804 0v-.011A2.402 2.402 0 0141 9.647zm0 9.647a2.402 2.402 0 012.402 2.402v.011a2.402 2.402 0 01-4.804 0v-.01A2.402 2.402 0 0141 19.293zm28.936-9.647h.01a2.403 2.403 0 012.403 2.403v.011a2.402 2.402 0 01-2.402 2.402h-.011a2.402 2.402 0 01-2.403-2.402v-.011a2.4 2.4 0 012.403-2.403zm0 9.647h.01a2.402 2.402 0 012.403 2.402v.011a2.402 2.402 0 01-2.402 2.403h-.011a2.403 2.403 0 01-2.403-2.402v-.012a2.402 2.402 0 012.403-2.402zM13.652 70.355V50.808H10.43v19.547h3.222zm21.903 2.88h-17.35v3.223h17.35v-3.223zm28.828 0h-17.35v3.223h17.35v-3.223zm-21.772-2.88V50.808h-3.222v19.547h3.222zm28.959 0V50.808h-3.222v19.547h3.222z"/><path d="M4.904 74.844a7.156 7.156 0 1114.312 0 7.156 7.156 0 01-14.312 0zm7.155 3.953a3.948 3.948 0 100-7.896 3.948 3.948 0 000 7.896zm21.787-3.953a7.155 7.155 0 1114.31 0 7.155 7.155 0 01-14.31 0zM41 78.797a3.948 3.948 0 100-7.896 3.948 3.948 0 000 7.896zm21.781-3.953a7.156 7.156 0 1114.312 0 7.156 7.156 0 01-14.312 0zm7.16 3.953a3.948 3.948 0 10.001-7.896 3.948 3.948 0 000 7.896z"/></g><defs><clipPath id="clip0"><path fill="#fff" d="M0 0h82v82H0z"/></clipPath></defs></svg>