<svg width="107" height="107" viewBox="0 0 107 107" fill="none" xmlns="http://www.w3.org/2000/svg"><path d="M24.918 33.883h-10.68c-.982 0-1.779.798-1.779 1.783 0 .985.797 1.783 1.78 1.783h10.679c.983 0 1.78-.798 1.78-1.783 0-.985-.797-1.783-1.78-1.783zm0 7.135h-10.68c-.982 0-1.779.798-1.779 1.783 0 .985.797 1.783 1.78 1.783h10.679c.983 0 1.78-.798 1.78-1.783 0-.985-.797-1.783-1.78-1.783zm-5.34 10.699c-3.931 0-7.119 3.194-7.119 7.133 0 3.94 3.188 7.133 7.12 7.133 3.93-.004 7.114-3.195 7.119-7.133 0-3.94-3.188-7.133-7.12-7.133zm0 10.7a3.567 3.567 0 01-3.56-3.567 3.563 3.563 0 013.56-3.567 3.563 3.563 0 013.56 3.567 3.563 3.563 0 01-3.56 3.567zm1.78-44.583H8.9c-.983 0-1.78.799-1.78 1.783 0 .985.797 1.784 1.78 1.784h12.46a1.783 1.783 0 000-3.567z" fill="#fff"/><path d="M101.452 76.683a5.35 5.35 0 005.339-5.35V14.267a5.35 5.35 0 00-5.339-5.35H76.534V5.35A5.35 5.35 0 0071.194 0H35.597a5.35 5.35 0 00-5.34 5.35v3.567H5.34A5.35 5.35 0 000 14.267v57.067a5.35 5.35 0 005.34 5.35h12.459V96.3h-3.56a3.567 3.567 0 00-3.56 3.567h-8.9c-.982 0-1.779.798-1.779 1.783 0 .985.797 1.783 1.78 1.783h8.9A3.567 3.567 0 0014.238 107h10.68a3.567 3.567 0 003.559-3.567h16.019a3.567 3.567 0 003.56 3.567h10.678a3.567 3.567 0 003.56-3.567h16.019a3.567 3.567 0 003.56 3.567h10.679a3.567 3.567 0 003.56-3.567h8.899c.983 0 1.78-.798 1.78-1.783 0-.985-.797-1.783-1.78-1.783h-8.9a3.567 3.567 0 00-3.56-3.567h-3.56V76.683h12.46zM76.534 21.4h12.459c.983 0 1.78-.798 1.78-1.783 0-.985-.797-1.784-1.78-1.784h-12.46v-5.35h24.919a1.785 1.785 0 011.78 1.784V26.75H76.534V21.4zM33.817 5.35a1.784 1.784 0 011.78-1.783h35.597a1.784 1.784 0 011.78 1.783V21.4H33.817V5.35zm0 19.617h39.157V80.25a1.784 1.784 0 01-1.78 1.783H35.597a1.784 1.784 0 01-1.78-1.783V24.967zM3.56 14.267a1.784 1.784 0 011.78-1.784h24.918v5.35h-1.78c-.983 0-1.78.799-1.78 1.784s.797 1.783 1.78 1.783h1.78v5.35H3.56V14.267zm1.78 58.85a1.784 1.784 0 01-1.78-1.784V30.318h26.698v42.8H5.34zm8.899 30.316v-3.567h10.68v1.79l.002 1.777H14.239zm30.257-3.566H28.478a3.567 3.567 0 00-3.56-3.567h-3.56V76.683h8.9v3.567a5.35 5.35 0 005.34 5.35h16.018v10.7h-3.56a3.567 3.567 0 00-3.56 3.567zm3.56 3.566v-3.567h10.68v1.79l.002 1.777H48.056zm30.258-3.566H62.295a3.567 3.567 0 00-3.56-3.567h-3.56V85.6h16.02a5.35 5.35 0 005.339-5.35v-3.567h8.9V96.3h-3.56a3.567 3.567 0 00-3.56 3.567zm14.239 0v1.79l.002 1.776H81.873v-3.566h10.68zm-16.02-26.75v-42.8h26.699v41.017a1.785 1.785 0 01-1.78 1.783H76.534z" fill="#fff"/><path d="M92.553 33.883h-10.68c-.983 0-1.78.798-1.78 1.783 0 .985.798 1.783 1.78 1.783h10.68c.983 0 1.78-.798 1.78-1.783 0-.985-.797-1.783-1.78-1.783zm0 7.135h-10.68c-.983 0-1.78.798-1.78 1.783 0 .985.798 1.783 1.78 1.783h10.68c.983 0 1.78-.798 1.78-1.783 0-.985-.797-1.783-1.78-1.783zm-5.34 10.699c-3.932 0-7.12 3.194-7.12 7.133 0 3.94 3.188 7.133 7.12 7.133s7.12-3.193 7.12-7.133c-.005-3.938-3.19-7.129-7.12-7.133zm0 10.7a3.563 3.563 0 01-3.56-3.567 3.563 3.563 0 013.56-3.567 3.567 3.567 0 010 7.134zm-33.817-1.784c-3.932 0-7.12 3.194-7.12 7.133 0 3.94 3.188 7.133 7.12 7.133s7.12-3.193 7.12-7.133c-.005-3.938-3.19-7.129-7.12-7.133zm0 10.7a3.563 3.563 0 01-3.56-3.567 3.563 3.563 0 013.56-3.566 3.567 3.567 0 010 7.133zm44.497-53.499h-1.78c-.983 0-1.78.799-1.78 1.783 0 .985.797 1.784 1.78 1.784h1.78c.983 0 1.78-.799 1.78-1.784s-.797-1.783-1.78-1.783zM58.735 10.7H39.157c-.983 0-1.78.798-1.78 1.783 0 .984.797 1.783 1.78 1.783h19.578c.983 0 1.78-.799 1.78-1.784 0-.984-.797-1.783-1.78-1.783zm8.899 0h-1.78c-.983 0-1.78.798-1.78 1.783 0 .984.797 1.783 1.78 1.783h1.78c.983 0 1.78-.799 1.78-1.784 0-.984-.797-1.783-1.78-1.783zM44.497 32.1h17.798c.983 0 1.78-.799 1.78-1.784 0-.984-.797-1.783-1.78-1.783H44.497c-.983 0-1.78.798-1.78 1.784 0 .984.797 1.783 1.78 1.783zm0 7.133h17.798c.983 0 1.78-.799 1.78-1.784s-.797-1.783-1.78-1.783H44.497c-.983 0-1.78.798-1.78 1.783 0 .985.797 1.784 1.78 1.784zm0 7.134h17.798c.983 0 1.78-.798 1.78-1.783 0-.985-.797-1.783-1.78-1.783H44.497c-.983 0-1.78.798-1.78 1.783 0 .985.797 1.783 1.78 1.783z" fill="#fff"/></svg>