<svg width="96" height="96" viewBox="0 0 96 96" fill="none" xmlns="http://www.w3.org/2000/svg"><path d="M93.732 44.918c-1.437-1.325-3.392-2.144-5.364-2.247-2.239-.115-4.336.683-5.898 2.246L71.794 55.479a7.093 7.093 0 00-.722-1.03c-1.313-1.56-3.234-2.418-5.407-2.418H50.723a30.66 30.66 0 01-8.17-1.086c-6.786-1.877-13.27-.506-18.75 3.968-2.229 1.82-3.855 3.798-4.883 5.241l-2.68-2.6a1.905 1.905 0 00-1.32-.536h-.013a1.909 1.909 0 00-1.354.581L.528 71.121a1.887 1.887 0 00.058 2.677l22.03 20.976a1.884 1.884 0 002.654-.049l12.903-13.238c.353-.361.548-.856.539-1.361a1.908 1.908 0 00-.576-1.326l-1.124-1.09 2.572-.29a40.87 40.87 0 014.704-.272h22.735c3.694 0 6.832-.807 9.326-2.401l.062-.041a12.585 12.585 0 002.409-2.187l15.32-18.024c2.623-3.085 2.459-6.933-.408-9.577zM23.868 90.752L4.566 72.373l10.398-10.795L34.154 80.2 23.868 90.752zm67.395-38.704l-15.32 18.025a8.829 8.829 0 01-1.66 1.511c-1.872 1.186-4.314 1.788-7.26 1.788H44.287c-1.71 0-3.44.1-5.132.297l-5.653.635-11.836-11.486a23.557 23.557 0 014.526-4.98c4.554-3.717 9.72-4.812 15.355-3.252a34.42 34.42 0 009.176 1.222h14.943c2.684 0 3.4 2.325 3.4 3.698 0 1.003-.322 1.958-.884 2.62-.61.718-1.476 1.08-2.575 1.08H52.599a1.889 1.889 0 000 3.778h13.008c2.196 0 4.132-.857 5.454-2.413 1.099-1.293 1.726-2.994 1.779-4.812l12.293-12.165c1.757-1.757 4.502-1.316 6.038.1.794.733 1.862 2.272.092 4.354z" fill="#fff"/><path d="M46.71 64.594a1.889 1.889 0 10-3.677.862l.017.076a1.89 1.89 0 003.678-.862l-.018-.076zm-33.945-24h18.401a4.54 4.54 0 002.684-.875c.754.55 1.681.875 2.683.875h18.403a4.537 4.537 0 002.683-.875c.755.55 1.682.875 2.684.875h18.401a4.577 4.577 0 004.572-4.573v-8.58a9.902 9.902 0 00-5.386-8.854 10.843 10.843 0 002.507-6.944C80.397 5.637 75.51.75 69.503.75 63.497.75 58.61 5.637 58.61 11.643c0 2.637.942 5.058 2.507 6.944a9.89 9.89 0 00-3.498 2.998 9.874 9.874 0 00-3.498-2.998 10.842 10.842 0 002.506-6.944C56.627 5.637 51.741.75 45.734.75c-6.007 0-10.893 4.887-10.893 10.893 0 2.637.942 5.058 2.507 6.944a9.873 9.873 0 00-3.498 2.999 9.883 9.883 0 00-3.498-3 10.841 10.841 0 002.506-6.942C32.858 5.637 27.971.75 21.965.75c-6.006 0-10.893 4.887-10.893 10.894 0 2.636.942 5.057 2.507 6.943a9.903 9.903 0 00-5.387 8.854v8.58a4.578 4.578 0 004.573 4.573zm56.74-36.067a7.124 7.124 0 017.115 7.116 7.124 7.124 0 01-7.116 7.116 7.124 7.124 0 01-7.116-7.116 7.124 7.124 0 017.116-7.116zm-4.907 16.838a10.823 10.823 0 004.905 1.172c1.765 0 3.431-.424 4.906-1.172a6.136 6.136 0 015.09 6.075v8.581a.796.796 0 01-.795.796H60.303a.796.796 0 01-.795-.796v-8.58a6.136 6.136 0 015.09-6.076zM45.735 4.527a7.124 7.124 0 017.116 7.116c0 3.924-3.193 7.116-7.116 7.116a7.124 7.124 0 01-7.116-7.116 7.124 7.124 0 017.116-7.116zm-4.906 16.838a10.819 10.819 0 004.906 1.172c1.764 0 3.43-.424 4.906-1.172a6.137 6.137 0 015.09 6.075v8.581a.796.796 0 01-.795.796H36.534a.796.796 0 01-.795-.796v-8.58a6.137 6.137 0 015.09-6.076zM21.966 4.527a7.124 7.124 0 017.116 7.116c0 3.924-3.193 7.116-7.116 7.116-3.924 0-7.117-3.192-7.117-7.116a7.124 7.124 0 017.117-7.116zM11.969 27.44a6.137 6.137 0 015.09-6.075 10.821 10.821 0 004.907 1.172c1.764 0 3.43-.424 4.905-1.172a6.136 6.136 0 015.09 6.075v8.581a.796.796 0 01-.795.796H12.765a.796.796 0 01-.796-.796v-8.58z" fill="#fff"/></svg>