<svg width="89" height="96" viewBox="0 0 89 96" fill="none" xmlns="http://www.w3.org/2000/svg"><g clip-path="url(#clip0)" fill="#fff"><path d="M84.752 23.922h-.979a27.068 27.068 0 00-2.414-5.79l.696-.693a4.159 4.159 0 001.234-2.97 4.16 4.16 0 00-1.235-2.972L77.42 6.894a4.2 4.2 0 00-2.99-1.235 4.196 4.196 0 00-2.988 1.23l-.695.692a27.294 27.294 0 00-5.825-2.405v-.973C64.921 1.885 63.025 0 60.695 0h-6.553c-2.33 0-4.227 1.885-4.227 4.203v.973a27.37 27.37 0 00-5.829 2.405l-.691-.687a4.2 4.2 0 00-2.992-1.235 4.196 4.196 0 00-2.987 1.23l-4.634 4.609a4.159 4.159 0 00-1.234 2.97c0 1.125.438 2.18 1.234 2.971l.695.692a26.933 26.933 0 00-2.415 5.791h-.982c-2.33 0-4.227 1.886-4.227 4.203v6.522c0 2.317 1.896 4.203 4.227 4.203h.982a26.941 26.941 0 002.415 5.79l-.695.693a4.16 4.16 0 00-1.234 2.97 4.16 4.16 0 001.234 2.971l4.63 4.604a4.198 4.198 0 002.99 1.235h.001a4.197 4.197 0 002.988-1.23l.695-.693a27.232 27.232 0 005.83 2.403v.976c0 2.318 1.895 4.203 4.226 4.203h6.552c2.331 0 4.227-1.885 4.227-4.203v-.976a27.148 27.148 0 005.825-2.402l.69.687a4.199 4.199 0 002.992 1.235 4.196 4.196 0 002.987-1.23l4.64-4.609a4.16 4.16 0 001.233-2.97 4.16 4.16 0 00-1.233-2.971l-.696-.692a27.073 27.073 0 002.414-5.791h.978c2.331 0 4.227-1.886 4.227-4.203v-6.522c0-2.317-1.896-4.203-4.226-4.203zM61.15 58.57a.46.46 0 01-.455.453h-6.553a.46.46 0 01-.456-.453V44.315c0-.785-.49-1.486-1.23-1.758-5.066-1.869-8.47-6.718-8.47-12.067 0-4.238 2.122-8.212 5.677-10.627.16-.109.3-.197.423-.27-.006.244-.024.476-.033.596-.014.19-.025.341-.025.49v8.85c0 4.061 3.191 7.453 7.265 7.722.084.005.167.005.25 0 4.071-.269 7.26-3.66 7.26-7.723V20.68c0-.148-.01-.297-.025-.487a13.255 13.255 0 01-.033-.6c.123.073.264.162.423.27 3.555 2.416 5.677 6.39 5.677 10.628 0 5.348-3.402 10.197-8.466 12.067a1.875 1.875 0 00-1.23 1.757V58.57h.001zm24.057-23.922a.466.466 0 01-.455.453h-2.443c-.88 0-1.644.606-1.839 1.46a23.376 23.376 0 01-3.074 7.374 1.867 1.867 0 00.26 2.328l1.733 1.722a.45.45 0 01.129.32.447.447 0 01-.129.318l-4.644 4.612a.44.44 0 01-.317.129.443.443 0 01-.32-.133l-1.733-1.722a1.894 1.894 0 00-2.342-.258 23.452 23.452 0 01-5.112 2.414v-8.102c5.85-2.707 9.696-8.607 9.696-15.072 0-5.478-2.737-10.609-7.32-13.724-.703-.477-2.838-1.93-4.706-.86-1.834 1.05-1.651 3.511-1.573 4.562.007.091.013.168.015.211v8.85a4.005 4.005 0 01-3.615 3.97c-2.04-.198-3.62-1.919-3.62-3.97v-8.837c.002-.056.01-.133.016-.224.079-1.05.263-3.51-1.57-4.561-1.866-1.071-4.005.381-4.709.859-4.584 3.116-7.32 8.246-7.32 13.724 0 6.466 3.847 12.366 9.7 15.072v8.102a23.576 23.576 0 01-5.118-2.415 1.889 1.889 0 00-2.34.26l-1.737 1.725a.44.44 0 01-.317.129.443.443 0 01-.32-.132l-4.634-4.608a.448.448 0 01-.13-.32.45.45 0 01.13-.319l1.731-1.722c.624-.62.732-1.587.26-2.328a23.258 23.258 0 01-3.072-7.37 1.883 1.883 0 00-1.84-1.465H30.08a.466.466 0 01-.455-.452v-6.522a.46.46 0 01.455-.453h2.448c.882 0 1.646-.608 1.84-1.464a23.232 23.232 0 013.073-7.37 1.867 1.867 0 00-.26-2.329l-1.733-1.722a.448.448 0 01-.129-.319c0-.071.017-.207.13-.319l4.637-4.612a.44.44 0 01.317-.128c.086 0 .211.022.321.132l1.732 1.722c.624.62 1.596.728 2.34.26a23.643 23.643 0 017.42-3.063 1.877 1.877 0 001.47-1.828v-2.43a.46.46 0 01.456-.452h6.553a.46.46 0 01.456.453v2.429c0 .876.61 1.636 1.47 1.829a23.547 23.547 0 017.412 3.06c.746.47 1.718.363 2.343-.257l1.736-1.726a.44.44 0 01.317-.129c.085 0 .21.022.321.133l4.639 4.607c.112.112.13.248.13.32a.449.449 0 01-.13.319l-1.732 1.722a1.867 1.867 0 00-.26 2.328 23.384 23.384 0 013.073 7.373 1.884 1.884 0 001.84 1.461h2.442a.46.46 0 01.456.453v6.522zm-16.802 47.91a1.868 1.868 0 000 2.652c.368.366.85.549 1.333.549s.965-.183 1.333-.55l.006-.004a1.864 1.864 0 00-.003-2.65 1.896 1.896 0 00-2.67.003z"/><path d="M77.14 64.395L62.17 72.04a6.97 6.97 0 00-5.014-2.122H46.9c-.575 0-.715-.046-.724-.049-.084-.043-.346-.29-.558-.486l-.093-.088c-8.298-7.767-15.307-7.275-23.279-4.147-1.29.507-1.314.508-2.61.563l-2.319.001a5.012 5.012 0 00-4.752-3.416H5.023c-2.758 0-5.002 2.233-5.002 4.979v19.681c0 2.742 2.244 4.974 5.002 4.974h7.542a5.012 5.012 0 004.752-3.413h4.243c.374 0 .374 0 .81.122.159.045.351.099.6.165l19.514 5.192c.86.23 1.65.458 2.413.678 2.5.72 4.601 1.326 6.792 1.326 2.475 0 5.064-.774 8.469-3.03l.049-.034 3.725-2.641a1.868 1.868 0 00.44-2.615 1.892 1.892 0 00-2.629-.438l-3.7 2.624c-4.941 3.267-7.04 2.663-12.097 1.206-.78-.224-1.585-.456-2.482-.698l-19.516-5.191c-.229-.061-.408-.112-.555-.153-.712-.2-.978-.262-1.833-.262h-3.988V69.464h2.037c.027 0 .054 0 .081-.002l.108-.005c1.58-.067 2.023-.11 3.833-.82 7.001-2.748 12.405-3.074 19.312 3.391l.093.088c1.18 1.103 1.86 1.552 3.864 1.552h10.256c1.204 0 2.254.664 2.8 1.643l.02.032c.244.45.383.964.383 1.51 0 1.753-1.437 3.18-3.203 3.18H40.535a1.88 1.88 0 00-1.885 1.874 1.88 1.88 0 001.885 1.875h16.623c3.845 0 6.973-3.108 6.973-6.93 0-.519-.06-1.024-.169-1.51l14.901-7.61c1.41-.72 3.34-.643 4.297.902.847 1.362.38 3.172-1.083 4.21l-6.537 4.629a1.868 1.868 0 00-.442 2.615 1.894 1.894 0 002.63.44l6.537-4.63c3.105-2.201 4.008-6.172 2.103-9.234-1.873-3.023-5.84-3.998-9.228-2.269zM13.8 86.956c0 .663-.566 1.224-1.236 1.224h-7.54c-.668 0-1.231-.56-1.231-1.224V67.275a1.23 1.23 0 011.23-1.229h7.542c.67 0 1.235.563 1.235 1.229v19.681z"/></g><defs><clipPath id="clip0"><path fill="#fff" d="M0 0h89v96H0z"/></clipPath></defs></svg>