<svg width="88" height="74" viewBox="0 0 88 74" fill="none" xmlns="http://www.w3.org/2000/svg"><path d="M61.702 69.469l-4.67-5.076 5.267-3.565.318-.215-.325-.204-4.253-2.663-.552-1.006 1.985-1.537.224-.173-.199-.2-2.668-2.698-1.427-2.593-.055-.1-.112-.024-1.231-.264-.298-.895-.056-.17h-2.39l-.064.045-3.235 2.273-2.394.432-.1.018-.058.082-2.037 2.833-1.913.733-.07.027-.044.06-2.691 3.747h-1.566l-.075.103-1.395 1.938-.027.037-.012.044-.46 1.725-2.25 1.014-1.425-.476v-2.863l1.308-1.474.117-.133-.086-.155-2.067-3.71 3.865-.928.445-.107-.33-.316-4.577-4.39-.07-.066-.095-.003-4.837-.17-6.75-3.658-1.908-4.382 2.019-2.185.076-.082-.011-.112-.367-3.752-.01-.104-.082-.066-6.522-5.3-.14-2.934 1.163-3.858.043-.143-.105-.106-3.622-3.653-.06-.06-.085-.012-5.777-.775-2.708-2.319.215-2.022 5.403-2.085 8.857 4.92.05.028.056.004 6.313.389 6.342 3.213.306.155.054-.338 1.077-6.694.016-.1-.058-.084-2.448-3.482-.028-.04-.041-.027-3.935-2.525 1.269-4.719 3.874.388 7.248 5.978 2.18 3.98.063.115.13.013 8.176.859.18.019.074-.166 1.312-2.94 4.675-2.558.041-.023.03-.036L57.088.73l2.89 1.983 4.824 6.306.143 2.939.002.05.021.044 2.252 4.782.027.058.052.038 5.457 3.967.616 2.583.02.086.07.054 3.745 2.893.072.056.09-.004 4.547-.17 3.794 1.592 1.236 1.935-.987-.127-.097-.013-.08.058-2.195 1.577-4.36.314-.081.005-.062.053-5.19 4.365-.098.082.01.128.343 4.512h0l.001.014.427 3.21-1.31 1.757-.04.055-.008.069-.343 3.286-.008.078.038.068.997 1.808v1.77l-1.346 1.348-.073.073v1.951l-2.388-2.393-.178-.177-.176.177-1.616 1.619-.037.036-.019.048-1.125 2.845-.032.08.024.083 1.28 4.353-.501 2.39-.022.103.058.088.936 1.405-.142 5.663-.825.452-2.148-.38-.995-1.715-.036-.062-.063-.033-2.777-1.476z" fill="#fff" stroke="#fff" stroke-width=".5"/></svg>