<svg width="505" height="240" viewBox="0 0 505 240" fill="none" xmlns="http://www.w3.org/2000/svg"><mask id="a" fill="#fff"><path fill-rule="evenodd" clip-rule="evenodd" d="M.012 85.76l2.521-6.007 3.011-1.57 7.564.32 1.101-1.595 2.84-2.992 5.214-1.912.147-3.31 1.248-3.311 4.112-2.06.147-2.207 2.693-2.698 2.84-.613 2.203-3.163 1.42-1.422-1.739-1.275-.147-2.355 1.102-1.422 5.36 1.57 2.204-1.104 1.738-4.267 2.52-1.103 5.827-.785 3.157-.785 2.693-.171 3.77.319 2.52-1.57.809.147 2.031 2.698.319 1.888 1.909 2.06 3.451-.32 1.738-.49 3.011.172 2.35-1.594 5.214-.466 1.101 2.698.637 2.673.93 2.06 7.882 4.732 3.158 2.379 5.85 2.844 2.203-1.275 3.304-1.103 3.476-2.673 2.84-.319 3.158.785 2.349 1.74 2.693-.784 7.099.147 2.668 1.276 3.011-.32.783-.809 2.986.49 5.532-.637 3.158-5.051-1.738-1.889-3.329-2.231v-5.052l.955-5.37-.465-2.06-3.158-1.103-1.591-2.036-4.871-1.275-1.102-4.095v-8.068l3.305-3.8v-2.355l1.738-2.844 2.668-.957 1.591.638 1.248-2.698-.93-2.672.465-2.698 2.056-1.74 3.158.17 2.203 1.423 4.259 1.103 4.406 2.207.637 1.104 3.77 1.275 4.112.319 5.826-.172 2.203 1.423 1.591 1.594 4.259.465 2.203 1.104 2.839.466 6.952-.319 2.522 1.128 1.248 2.526v2.207l1.591 2.207v2.378l1.567 1.742 1.738 3.629-.172 2.992 2.056 1.74h1.885l3.329 2.992.93 1.741 4.896 1.423 5.043 2.697h2.203l1.272-1.103 4.896.318 2.203-1.594 2.521.172 2.057.613 2.056-.613 2.815-3.016 4.749-1.57 6.462-.49 3.304-2.035 4.26-.172 4.112-1.103 3.623 2.06 4.871.465 6.315-.147 3.305 4.733 5.85 2.207 4.724-.147 3.476-.785 1.567 1.57L302 47.065l3.304 2.207 2.057 1.103 2.056.466 2.839 3.163 2.521.172 7.417-.81 6.462 1.914 9.767-.172 4.26-.466 1.591-1.422h3.622l3.158 1.74 1.885-.318 2.521-3.948 6.144-3.482h3.794l2.522-2.992 2.839-.319h7.417l3.304-2.844.955-3.31V36.3l2.032-3.14 3.476-1.593 2.374-2.526 1.248-3.482 2.522-2.354h2.839l.955.956 4.896-1.275 3.133.319 3.794 2.526 1.885 2.844 2.521.932 3.011-1.57 1.738 1.276 2.839-.172 3.77-2.035v-1.741l5.532-.957 6.144 1.888 1.738 1.913-3.623 25.43.783 5.517-1.419 4.757.465 3.31-2.203 7.112 2.692 5.199 7.711 3.8 5.214-4.119h6.609l7.099 1.275 3.329 3.31 3.941-6.154-.49-3.63.318-3.016 4.431-1.422 1.738-1.422 7.245 1.912 4.259 5.199 5.998 5.37 4.724 6.008 5.997 4.267.147 2.845 1.102 2.207v2.844l-1.249 1.913v2.354l-1.42 1.913-2.374-.491-1.567-1.569-3.475.466-1.885 1.275-4.578-2.06-2.839.638-3.011 4.095-4.406 3.629-2.521 1.594-2.987-2.06-1.272.319-.147 2.992-1.273 1.913-2.203.294-1.738-.294-1.249 1.888-2.864 4.414-.783 4.904.318 3.482-1.738 2.036-3.451.956-7.417 4.904h-3.794l-4.088-.784-1.909 1.422-2.987 6.474-2.986 2.207-3.794 2.673-2.203 2.378-.955 2.698-1.566.319-3.476-1.594-3.941-.957-5.043-1.741-3.941-2.82-4.112-.171-6.291 1.422-3.794 2.844-2.375 3.311-.146 7.283.318 3.458-.318 2.378 7.417 4.733 6.609 4.12v2.06l-1.567 3.138-2.203 3.164-7.099 8.068-4.259 6.939-2.374 5.371h-2.668l-5.214 1.741-3.941.171-4.406 2.992-4.431 3.311-4.577.171-6.781.785-4.577 1.569-5.361 1.423-11.652 4.119-9.154 3.164-4.578 5.198-7.099 5.689-2.986 2.379-3.794.147-4.871-1.422v-1.717l-.636-2.55-6.952 2.06-5.655.785-5.85-2.992-4.724-.466-10.404-3.948-10.256-4.757-5.532-5.371h-4.235l-11.847-1.422-9.938.319-2.522-.638-1.713 1.128-.955 1.889-5.532 2.059-7.71.785-13.561-1.275-9.939.638-7.563-.466-6.487.784-3.305.319-2.839-.956-3.623-7.112-1.42-3.482-3.476-5.199-2.839-3.31-1.885-4.757-.147-2.036-2.374-2.525-2.521-.957-1.567-.319-.808-1.741-.318-2.991-1.101-.491-1.567.491h-4.577l-3.941-2.379-5.998-4.267-2.056-.466h-1.42l-2.986-.49-1.248-1.888-5.214-3.311-11.04-2.526-1.101.319-1.42 1.251-4.406.49h-7.099L71.44 171.22l-3.623-2.06-3.623-5.664-.636-2.526v-2.55l1.101-1.717 2.374-1.741.955-3.016-1.91-2.207-.782-3.801.783-2.035-.147-3.801-1.42-1.889-2.056-3.482-2.35-1.103-2.692-2.207-.955-2.845-1.714-2.378-.954-2.992-.465-2.526-1.738-2.697-2.693-2.06-2.35-.785-1.273-1.888-2.668-1.104-2.545.148-1.567 1.593-1.738.785-1.738-.637-2.668-2.845-.783-1.569h-3.158l-3.158 1.569-1.273 1.422-.612 1.913-1.59.147-3.158-2.207-.784-2.378-.146-1.104-2.204-2.845-3.329-2.059-2.52-2.845-1.886-.785-1.738-1.57-.636-2.059-.147-2.06-.955-1.74-.465.17-.318.933-.955.318-1.248-2.035-.955-.956v-3.801L.012 85.76z"/></mask><path fill-rule="evenodd" clip-rule="evenodd" d="M.012 85.76l2.521-6.007 3.011-1.57 7.564.32 1.101-1.595 2.84-2.992 5.214-1.912.147-3.31 1.248-3.311 4.112-2.06.147-2.207 2.693-2.698 2.84-.613 2.203-3.163 1.42-1.422-1.739-1.275-.147-2.355 1.102-1.422 5.36 1.57 2.204-1.104 1.738-4.267 2.52-1.103 5.827-.785 3.157-.785 2.693-.171 3.77.319 2.52-1.57.809.147 2.031 2.698.319 1.888 1.909 2.06 3.451-.32 1.738-.49 3.011.172 2.35-1.594 5.214-.466 1.101 2.698.637 2.673.93 2.06 7.882 4.732 3.158 2.379 5.85 2.844 2.203-1.275 3.304-1.103 3.476-2.673 2.84-.319 3.158.785 2.349 1.74 2.693-.784 7.099.147 2.668 1.276 3.011-.32.783-.809 2.986.49 5.532-.637 3.158-5.051-1.738-1.889-3.329-2.231v-5.052l.955-5.37-.465-2.06-3.158-1.103-1.591-2.036-4.871-1.275-1.102-4.095v-8.068l3.305-3.8v-2.355l1.738-2.844 2.668-.957 1.591.638 1.248-2.698-.93-2.672.465-2.698 2.056-1.74 3.158.17 2.203 1.423 4.259 1.103 4.406 2.207.637 1.104 3.77 1.275 4.112.319 5.826-.172 2.203 1.423 1.591 1.594 4.259.465 2.203 1.104 2.839.466 6.952-.319 2.522 1.128 1.248 2.526v2.207l1.591 2.207v2.378l1.567 1.742 1.738 3.629-.172 2.992 2.056 1.74h1.885l3.329 2.992.93 1.741 4.896 1.423 5.043 2.697h2.203l1.272-1.103 4.896.318 2.203-1.594 2.521.172 2.057.613 2.056-.613 2.815-3.016 4.749-1.57 6.462-.49 3.304-2.035 4.26-.172 4.112-1.103 3.623 2.06 4.871.465 6.315-.147 3.305 4.733 5.85 2.207 4.724-.147 3.476-.785 1.567 1.57L302 47.065l3.304 2.207 2.057 1.103 2.056.466 2.839 3.163 2.521.172 7.417-.81 6.462 1.914 9.767-.172 4.26-.466 1.591-1.422h3.622l3.158 1.74 1.885-.318 2.521-3.948 6.144-3.482h3.794l2.522-2.992 2.839-.319h7.417l3.304-2.844.955-3.31V36.3l2.032-3.14 3.476-1.593 2.374-2.526 1.248-3.482 2.522-2.354h2.839l.955.956 4.896-1.275 3.133.319 3.794 2.526 1.885 2.844 2.521.932 3.011-1.57 1.738 1.276 2.839-.172 3.77-2.035v-1.741l5.532-.957 6.144 1.888 1.738 1.913-3.623 25.43.783 5.517-1.419 4.757.465 3.31-2.203 7.112 2.692 5.199 7.711 3.8 5.214-4.119h6.609l7.099 1.275 3.329 3.31 3.941-6.154-.49-3.63.318-3.016 4.431-1.422 1.738-1.422 7.245 1.912 4.259 5.199 5.998 5.37 4.724 6.008 5.997 4.267.147 2.845 1.102 2.207v2.844l-1.249 1.913v2.354l-1.42 1.913-2.374-.491-1.567-1.569-3.475.466-1.885 1.275-4.578-2.06-2.839.638-3.011 4.095-4.406 3.629-2.521 1.594-2.987-2.06-1.272.319-.147 2.992-1.273 1.913-2.203.294-1.738-.294-1.249 1.888-2.864 4.414-.783 4.904.318 3.482-1.738 2.036-3.451.956-7.417 4.904h-3.794l-4.088-.784-1.909 1.422-2.987 6.474-2.986 2.207-3.794 2.673-2.203 2.378-.955 2.698-1.566.319-3.476-1.594-3.941-.957-5.043-1.741-3.941-2.82-4.112-.171-6.291 1.422-3.794 2.844-2.375 3.311-.146 7.283.318 3.458-.318 2.378 7.417 4.733 6.609 4.12v2.06l-1.567 3.138-2.203 3.164-7.099 8.068-4.259 6.939-2.374 5.371h-2.668l-5.214 1.741-3.941.171-4.406 2.992-4.431 3.311-4.577.171-6.781.785-4.577 1.569-5.361 1.423-11.652 4.119-9.154 3.164-4.578 5.198-7.099 5.689-2.986 2.379-3.794.147-4.871-1.422v-1.717l-.636-2.55-6.952 2.06-5.655.785-5.85-2.992-4.724-.466-10.404-3.948-10.256-4.757-5.532-5.371h-4.235l-11.847-1.422-9.938.319-2.522-.638-1.713 1.128-.955 1.889-5.532 2.059-7.71.785-13.561-1.275-9.939.638-7.563-.466-6.487.784-3.305.319-2.839-.956-3.623-7.112-1.42-3.482-3.476-5.199-2.839-3.31-1.885-4.757-.147-2.036-2.374-2.525-2.521-.957-1.567-.319-.808-1.741-.318-2.991-1.101-.491-1.567.491h-4.577l-3.941-2.379-5.998-4.267-2.056-.466h-1.42l-2.986-.49-1.248-1.888-5.214-3.311-11.04-2.526-1.101.319-1.42 1.251-4.406.49h-7.099L71.44 171.22l-3.623-2.06-3.623-5.664-.636-2.526v-2.55l1.101-1.717 2.374-1.741.955-3.016-1.91-2.207-.782-3.801.783-2.035-.147-3.801-1.42-1.889-2.056-3.482-2.35-1.103-2.692-2.207-.955-2.845-1.714-2.378-.954-2.992-.465-2.526-1.738-2.697-2.693-2.06-2.35-.785-1.273-1.888-2.668-1.104-2.545.148-1.567 1.593-1.738.785-1.738-.637-2.668-2.845-.783-1.569h-3.158l-3.158 1.569-1.273 1.422-.612 1.913-1.59.147-3.158-2.207-.784-2.378-.146-1.104-2.204-2.845-3.329-2.059-2.52-2.845-1.886-.785-1.738-1.57-.636-2.059-.147-2.06-.955-1.74-.465.17-.318.933-.955.318-1.248-2.035-.955-.956v-3.801L.012 85.76z" fill="#fff" stroke="#fff" mask="url(#a)"/></svg>