<svg width="236" height="148" viewBox="0 0 236 148" fill="none" xmlns="http://www.w3.org/2000/svg"><mask id="a" fill="#fff"><path fill-rule="evenodd" clip-rule="evenodd" d="M177.136 146.87l-.857-2.305-3.868-2.869h-3.182l-2.227 1.888h-2.326l-2.399-1.79-3.916-1.055-1.469.393-1.028-2.036.147-2.403-1.371-3.972 1.126-2.575-2.741-4.929-4.26-1.815-7.172-.637-6.609-9.147-6.315-1.447-3.452.736-1.101-.859-.979-5.051-3.794-.687-6.781-2.746-2.619 1.814-2.399.123-9.326-5.91-5.165-1.471-5.973-4.782-3.794.172-3.109-1.447-3.72 1.079-1.2 3.605-5.58-1.177-7.418 1.3-6.756 5.811-2.741.172-2.326 3.016-1.395 4.095-7.71.466-3.036 1.815-2.79-7.676-1.567-5.64.343-8.215-.49-2.795v-4.66l-1.003-3.653-4.48-2.256-1.787-3.066-2.741-.515-1.42-.98-2.497.613.172 2.157-.661-1.078-.074-2.38 2.497-2.084 1.297 1.153 2.007-.515 2.864.858 1.371-1.839-2.472-3.433-1.91.736-.758-2.673.832-3.482-1.762-1.741-2.375 1.716-4.969-.81-1.395 1.644 1.934 2.109.122.54-4.455-4.194-.734-2.403-1.885-2.403-.759-8.068 1.958-3.188.71-5.272-3.55-5.665-.954-2.893-2.79-2.134-.955-2.207L.672 23.18l-.122-.858 9.914-8.828 7.882-2.771 10.476 1.618 11.334 6.572 10.623 12.433 6.927-1.471 2.473-.319 7.392-.638 7.197 1.178 1.86-4.463-2.962-2.968-1.052-5.517 3.28-6.72 5.018-.465 2.643-4.169 3.378-1.913 4.113 2.232 2.57-1.717L91.095.89l6.51.564 10.869 5.468 9.253 5.567 1.126 3.8 12.459 6.572 10.061 5.2 2.595-1.791 3.133.442 6.584 4.88 2.84 9.636 3.305 2.355 1.052 4.095 3.917 7.21 5.825 2.599 10.82 6.915 10.844 7.871 12.386 5.592 10.966 7.528 8.714 1.471 1.958 2.134 2.742-.49 5.752 3.996-.293 3.997.881 6.989-1.028-1.005-3.697.785-3.329-2.06-3.99 1.177-4.92 3.604h-1.248l-4.382 1.128-1.909 1.349-1.909.858-.196 2.6 1.444 1.128v3.016l-3.794 3.973v4.438l-1.004 3.875-2.252.564-2.815 2.231-.563 1.447-6.046 1.202-5.556 3.114.808 2.28-2.081 1.766-.49 2.232-2.154 2.329-4.553.785-1.517 1.52-1.077-.956z"/></mask><path fill-rule="evenodd" clip-rule="evenodd" d="M177.136 146.87l-.857-2.305-3.868-2.869h-3.182l-2.227 1.888h-2.326l-2.399-1.79-3.916-1.055-1.469.393-1.028-2.036.147-2.403-1.371-3.972 1.126-2.575-2.741-4.929-4.26-1.815-7.172-.637-6.609-9.147-6.315-1.447-3.452.736-1.101-.859-.979-5.051-3.794-.687-6.781-2.746-2.619 1.814-2.399.123-9.326-5.91-5.165-1.471-5.973-4.782-3.794.172-3.109-1.447-3.72 1.079-1.2 3.605-5.58-1.177-7.418 1.3-6.756 5.811-2.741.172-2.326 3.016-1.395 4.095-7.71.466-3.036 1.815-2.79-7.676-1.567-5.64.343-8.215-.49-2.795v-4.66l-1.003-3.653-4.48-2.256-1.787-3.066-2.741-.515-1.42-.98-2.497.613.172 2.157-.661-1.078-.074-2.38 2.497-2.084 1.297 1.153 2.007-.515 2.864.858 1.371-1.839-2.472-3.433-1.91.736-.758-2.673.832-3.482-1.762-1.741-2.375 1.716-4.969-.81-1.395 1.644 1.934 2.109.122.54-4.455-4.194-.734-2.403-1.885-2.403-.759-8.068 1.958-3.188.71-5.272-3.55-5.665-.954-2.893-2.79-2.134-.955-2.207L.672 23.18l-.122-.858 9.914-8.828 7.882-2.771 10.476 1.618 11.334 6.572 10.623 12.433 6.927-1.471 2.473-.319 7.392-.638 7.197 1.178 1.86-4.463-2.962-2.968-1.052-5.517 3.28-6.72 5.018-.465 2.643-4.169 3.378-1.913 4.113 2.232 2.57-1.717L91.095.89l6.51.564 10.869 5.468 9.253 5.567 1.126 3.8 12.459 6.572 10.061 5.2 2.595-1.791 3.133.442 6.584 4.88 2.84 9.636 3.305 2.355 1.052 4.095 3.917 7.21 5.825 2.599 10.82 6.915 10.844 7.871 12.386 5.592 10.966 7.528 8.714 1.471 1.958 2.134 2.742-.49 5.752 3.996-.293 3.997.881 6.989-1.028-1.005-3.697.785-3.329-2.06-3.99 1.177-4.92 3.604h-1.248l-4.382 1.128-1.909 1.349-1.909.858-.196 2.6 1.444 1.128v3.016l-3.794 3.973v4.438l-1.004 3.875-2.252.564-2.815 2.231-.563 1.447-6.046 1.202-5.556 3.114.808 2.28-2.081 1.766-.49 2.232-2.154 2.329-4.553.785-1.517 1.52-1.077-.956z" fill="#fff" stroke="#fff" mask="url(#a)"/></svg>