<svg width="264" height="164" viewBox="0 0 264 164" fill="none" xmlns="http://www.w3.org/2000/svg"><mask id="a" fill="#fff"><path fill-rule="evenodd" clip-rule="evenodd" d="M199.482 163.799l-2.007-2.918-3.745-1.716-4.357 1.177-.882-6.866.343-4.463-6.56-4.537-2.619.466-1.812-1.986-8.836-1.447-10.844-7.504-12.386-5.566-10.795-7.848-10.893-6.964-5.605-2.501-3.697-6.817-1.101-4.316-3.329-2.379-2.84-9.637-7.074-5.15-3.72-.588-2.424 1.692L84.777 79 72.66 72.627l-1.1-3.777-9.62-5.787-11.064-5.542-8.812-.785 3.157 4.414-1.224.81-4.087-2.208-4.015 2.354-2.545 3.9-5.092.49-3.672 7.503 1.175 6.156 2.717 2.721-1.322 3.115-6.56-1.03-7.074.588L.425 8.427 42.968.335l25.678 18.22 10.379 3.825 13.781 8.436 24.454-2.697h26.73l8.127 6.13 4.234 10.079 5.484-1.668.465 23.002 11.774 1.422 6.78 18.98 3.941.368 7.393-4.046 4.748-.883 5.337.785 7.27 3.605 2.007 1.447 6.756-6.45 3.402-6.278 1.836-2.133 2.423-4.66 6.242-7.503 2.669-1.128 3.329-4.169 1.028.172.416-.956.612.98.22 2.919-7.906 12.457 3.426 2.158 7.515 2.256 2.815 2.746 3.305 1.153 3.182-3.36.416-4.193 1.689.343 7.564 5.984.832 2.893-4.406 4.831-5.287-.294-7.809 1.226-1.077-2.06-4.063-4.12-5.41 5.567-3.255-.319-4.407 3.433-4.43 1.472-.196 4.585 5.043 2.526-.123 2.697-5.238 2.257-7.956 1.765 2.155 1.888.783 2.036-6.12 2.133-.465 3.777-2.692.686-7.27-1.152-3.648 2.991v5.444l4.602 6.646 3.231-1.79 3.941-.098.808 3.236-1.591 3.188 1.885 5.125 3.231 1.398.441 3.924-1.469 1.741-3.378 8.19-1.151 9.27-.832-1.006-3.255-.368-2.693 2.526-1.738-.123z"/></mask><path fill-rule="evenodd" clip-rule="evenodd" d="M199.482 163.799l-2.007-2.918-3.745-1.716-4.357 1.177-.882-6.866.343-4.463-6.56-4.537-2.619.466-1.812-1.986-8.836-1.447-10.844-7.504-12.386-5.566-10.795-7.848-10.893-6.964-5.605-2.501-3.697-6.817-1.101-4.316-3.329-2.379-2.84-9.637-7.074-5.15-3.72-.588-2.424 1.692L84.777 79 72.66 72.627l-1.1-3.777-9.62-5.787-11.064-5.542-8.812-.785 3.157 4.414-1.224.81-4.087-2.208-4.015 2.354-2.545 3.9-5.092.49-3.672 7.503 1.175 6.156 2.717 2.721-1.322 3.115-6.56-1.03-7.074.588L.425 8.427 42.968.335l25.678 18.22 10.379 3.825 13.781 8.436 24.454-2.697h26.73l8.127 6.13 4.234 10.079 5.484-1.668.465 23.002 11.774 1.422 6.78 18.98 3.941.368 7.393-4.046 4.748-.883 5.337.785 7.27 3.605 2.007 1.447 6.756-6.45 3.402-6.278 1.836-2.133 2.423-4.66 6.242-7.503 2.669-1.128 3.329-4.169 1.028.172.416-.956.612.98.22 2.919-7.906 12.457 3.426 2.158 7.515 2.256 2.815 2.746 3.305 1.153 3.182-3.36.416-4.193 1.689.343 7.564 5.984.832 2.893-4.406 4.831-5.287-.294-7.809 1.226-1.077-2.06-4.063-4.12-5.41 5.567-3.255-.319-4.407 3.433-4.43 1.472-.196 4.585 5.043 2.526-.123 2.697-5.238 2.257-7.956 1.765 2.155 1.888.783 2.036-6.12 2.133-.465 3.777-2.692.686-7.27-1.152-3.648 2.991v5.444l4.602 6.646 3.231-1.79 3.941-.098.808 3.236-1.591 3.188 1.885 5.125 3.231 1.398.441 3.924-1.469 1.741-3.378 8.19-1.151 9.27-.832-1.006-3.255-.368-2.693 2.526-1.738-.123z" fill="#fff" stroke="#fff" mask="url(#a)"/></svg>