<svg width="622" height="327" viewBox="0 0 622 327" fill="none" xmlns="http://www.w3.org/2000/svg"><mask id="a" fill="#fff"><path fill-rule="evenodd" clip-rule="evenodd" d="M152.768 314.177l-11.627-6.743-10.893-1.643-8.274 2.869-9.522 8.436-.245-3.286-.758-3.703 1.689-4.439.636-4.708-.122-1.692.783-1.373-1.812-1.128-3.5.318-2.546-1.201-3.28-.711-2.301 1.079-1.052-.466-1.175-2.526-1.542-1.422-1.396-2.673-1.737-.981-1.322.588-2.938.761-.783-.025.147-3.605-.171-3.359-4.676-5.493-.979-2.134-1.224-.465-1.248-3.409-1.763-1.128-1.273-2.575-3.035-1.177-2.448-.172-1.787-2.059.123-1.227 1.101-1.348 1.42.515 4.92-.295 1.2.589 1.958-.098 1.42.883 2.154-1.619 1.15-.515 2.766.981 1.444-1.201-1.101-2.232-3.476.172-.588-.393v-2.305l-3.182-3.654-.22-1.275 1.518-.907v-2.967l-.416-1.3 1.835-1.839 3.28-.981 2.669-.883 2.496 1.104 3.33-.834 2.57-.441 1.493 1.348 1.615-.907h1.861l2.692 2.845h2.742l3.867-1.864.686-2.084-2.84-.957-2.962-.735-1.884-3.924.416-3.212 1.958-.834 1.444-1.741.269-.344-1.395-1.397-.905-1.349-.49-1.128 1.787-3.261.392-2.796-2.693-2.697-.588-1.496 1.2-1.962v-1.496l-2.374-.49-1.151-2.036-.538-1.643-6.022-.343-1.983-.294-2.692.539-.319 1.177-1.787.981-.17 1.717-1.151.588-1.86-.637-.197-1.57-2.692.196-.686.712-1.126-1.349.172-2.354-1.249-1.496-1.493 1.324H78.6l-1.591-1.103-4.602.147-2.35 2.354-.832 2.403-.49.319-.955-.957h-1.884l-1.885 2.649-1.91-.147-1.42 2.305-2.545 2.109-1.811-.368-.563 2.207-.784.809-.88-1.005-1.91-.221-1.126 1.766h-1.64l-.808-1.791-1.273.197-4.308-2.722-4.112 1.422-5.655-3.654.343-2.109h6.609l-7.074-11.795-7.662-7.209-11.138-3.066-1.175 2.183-4.601-3.801 1.052-2.428-3.06-4.953-6.462-2.551 2.326-5.051 1.468-10.667-2.57-2.403-.734-7.553 2.864-1.422 4.675-5.641v-4.266l1.934-2.453 8.298 7.553 1.028 2.967 5.336 3.164 5.704-.54-.661-5.125 2.08-1.766-3.696-12.849 4.455-.417h5.802v-4.61l-2.326-2.943.857-3.384 4.7-2.893 2.325-.099 1.616-4.585 2.227-1.668 3.599 1.03.563-3.384-.76-3.041.54-1.397 4.38 2.427 3.624 1.594-.392 1.643-2.57 3.017 2.35 2.133 3.475-2.011.93-2.526 1.371-.882.172 3.163 2.937-3.163.416-1.84 2.79-.294 3.6-2.354 2.496-.147 1.664 4.242 3.941 2.747 6.071-1.962h2.423l1.567 2.526 1.91.147 3.328 4.291h3.476l2.546 3.139 4.749 3.629 2.423.295 1.224 1.912.171 3.997 2.571.859 2.521-3.777-.465-3.948 2.643-1.52 2.081 2.967 6.12.932 1.86 3.114 3.109 1.275 4.332-3.482.294-5.959 3.451-.318.319-3.09 1.909-.711 2.129 2.844 1.665-3.163 3.305-.54 4.553 4.267 1.028 1.888 5.409-.564-.661-4.046 2.301-.809 3.697.515 1.64-2.232 3.573 1.987 1.934.907-.808 1.618-2.913 1.668 3.795 4.34 3.182 1.055 1.371-.907 2.08 1.177 5.043-.295 5.874 3.335 4.039-.882 1.689-3.703.319-3.139 1.199-1.177 4.7 2.942 4.798.54 6.046-1.962 1.591-2.992-.808-13.315-1.885-1.324-4.724-.172-2.913-2.329-.49-1.864-3.941-.834-2.252-2.256h-3.696l-.122-1.594-1.053-2.06.318-1.103 3.036-.466.685-3.654 2.424-2.967-.906-4.365-2.473-.319-.122-3.04 3.525-5.077 3.598-3.286 6.609-.613 2.889 1.006 2.301-1.717V63.88l-3.501-1.054-2.496-2.55-3.06.171-1.787 1.496-3.035-1.3-4.015-.172-.22-1.569 1.101-.956 4.896-.172-1.615-4.487-4.651.686-1.91-.686 1.126-1.276-1.689-3.874.833-.613 3.524-.343 1.714-2.011 1.836.122.979 1.79 3.916-.49 3.256 2.403 1.64-2.28v-1.79l2.472-1.668 2.595.147 2.13 3.409 2.007-2.82.367-2.256 5.385-1.668 3.672-.294 4.284-2.084 4.308-.295 1.077-1.618 3.99-2.477 4.112-.147 2.644-1.84 2.007-.22 2.374 1.03 1.836-1.447-.147-3.482 1.567-1.324h3.696l.514-2.428 1.738-1.349 1.518 1.374 2.692.54 3.158-1.84 3.672-1.055 6.952-4.708h1.419l1.714-1.201 3.916-.589 2.13-2.869 1.836.564 4.969-1.054-.196-2.796-1.248-2.305 1.322-.711 4.552-.123.833-3.457L307.52.466l1.885.294 2.57-.76 3.77 1.52 4.479-.417 3.917 2.649h4.087l3.819-1.619 2.766.32 1.371 3.8 1.346 1.177 1.126 3.114 2.277 2.992 2.154 1.275.293 1.496-.783 2.624.612 3.409-.122.76-2.766.686 1.664 3.703 2.301 1.815 3.623-2.207 2.472 2.01 2.399-.808.637-3.213 1.346-.613 1.028 3.139h2.668l.563-3.065-1.15-3.041.44-.27 5.116 3.801.759 5.003 2.252 4.56 2.399-.196 2.937-3.138-2.178-1.177-.563-1.03 2.815-.638 5.997 2.943 2.448.049 2.398-1.962 1.077.589-1.101 2.918-2.105 1.692v4.659l2.472 3.188 2.693-.196 1.933-2.428 3.452-.907 6.389 1.594 1.689 1.226 2.594-1.79-.612-3.703 2.62-.957 4.773-.613 3.329-2.207 1.469-2.967 2.374-2.01.318-2.404 3.525-3.507 2.497-.833 2.595-2.55 3.353-.908 4.039-1.349 1.346.957v2.403l-2.619 2.746-2.962.76 1.518 3.066 29.643 22.29 40.316 50.54 4.234-.833 2.987-1.741.783-2.55-.857-.712-.147-3.09 2.179-1.03 4.161 1.962-.391 1.84.171 2.844 4.014 1.005 2.399 2.404 3.182.171 2.497-1.667 2.326-.368 4.161 2.403 3.696-1.594 2.668.613 3.452-1.373 1.199-1.986-1.126-1.643.441-1.226 5.067-.736h5.752l4.773 1.25 4.724 3.556 2.546 4.586 1.836 4.046h1.909l3.329.932 3.77 2.526h1.248l2.057.956.147 1.594-.612 1.373.122 2.894.832 2.207 1.689 1.741.93.932h1.616l3.109 1.373 2.741 1.275 1.175-1.765 2.522-1.251 7.514-.417 3.77-1.177 1.762-2.894 2.815-1.569 1.102.515-1.322 3.678 1.102 3.09 2.594.711 3.427 3.041 4.92 1.79.759.981-2.546 2.869-2.545 1.3-4.529 4.806-.171 3.016.881 1.619-1.811 3.089-4.749 1.84-3.109 2.207-.661 3.997.147 7.038 3.378 6.694 2.913 3.997-.416 2.036-3.99 4.487-3.403 1.177-2.839 3.311-2.056.686-1.224-.49-.832-2.011h-3.182l-6.561 1.422-4.112-.318-6.34-2.183-3.892-.49-2.374.171-1.469 7.97-1.42 4.512-.171 3.924-1.567 9.416-.024 7.357-.857 2.697 2.154 1.643 3.427 1.422-1.346 2.869-.318 2.232h-1.91l-1.909 1.275h-2.179l-1.982-1.839-2.35 1.103-3.843.908-7.246 1.569-5.116 1.913-2.056-.025-2.007-1.152-3.06 1.349-3.133 2.918-.171 2.673 3.182 2.476 4.773-.318 3.256.416v.932l-2.277 2.453 1.493 5.149.319 2.305 1.493 2.403.563 3.164 3.035 5.198.636 2.722 3.452 2.526 1.175 6.327-1.689 1.569-1.346 3.458 2.619 2.894-1.2.613-.489 1.937-3.06 2.28.147 4.218-2.717 1.496-6.928-1.815-7.025-8.165-3.133.833-6.781-2.795-10.109-.515-5.092 1.716-8.2-2.158-7.98 1.889-3.892.466-3.818-1.178-3.207 2.698-2.766 1.3-8.837-1.251-6.56-1.717-3.476-2.084-5.336.172-1.934.833-3.72-.22-3.109-.638-2.325 1.349.367 3.776.954 3.728.123 3.874-4.627.736-10.183.294-11.92-1.251-2.644-1.52-5.948-.883-3.403 3.777 1.053 1.814-3.207 2.183-.538 1.201-.857-.147-3.501 4.512-2.643 1.104-6.487 7.724-2.423 4.659-1.836 2.134-3.378 6.229-6.071 5.762-1.395-1.03-7.49-3.654-5.655-.858-5.067.957-7.27 3.923-2.986-.27-6.781-18.931-11.553-1.422-.49-23.443-5.875 1.79-3.965-9.49-8.592-6.498h-27.146l-24.16 2.672-13.586-8.288-10.329-3.85-25.923-18.367-43.889 8.337 13.242 78.005-2.007.27-6.389 1.349-10.378-12.09z"/></mask><path fill-rule="evenodd" clip-rule="evenodd" d="M152.768 314.177l-11.627-6.743-10.893-1.643-8.274 2.869-9.522 8.436-.245-3.286-.758-3.703 1.689-4.439.636-4.708-.122-1.692.783-1.373-1.812-1.128-3.5.318-2.546-1.201-3.28-.711-2.301 1.079-1.052-.466-1.175-2.526-1.542-1.422-1.396-2.673-1.737-.981-1.322.588-2.938.761-.783-.025.147-3.605-.171-3.359-4.676-5.493-.979-2.134-1.224-.465-1.248-3.409-1.763-1.128-1.273-2.575-3.035-1.177-2.448-.172-1.787-2.059.123-1.227 1.101-1.348 1.42.515 4.92-.295 1.2.589 1.958-.098 1.42.883 2.154-1.619 1.15-.515 2.766.981 1.444-1.201-1.101-2.232-3.476.172-.588-.393v-2.305l-3.182-3.654-.22-1.275 1.518-.907v-2.967l-.416-1.3 1.835-1.839 3.28-.981 2.669-.883 2.496 1.104 3.33-.834 2.57-.441 1.493 1.348 1.615-.907h1.861l2.692 2.845h2.742l3.867-1.864.686-2.084-2.84-.957-2.962-.735-1.884-3.924.416-3.212 1.958-.834 1.444-1.741.269-.344-1.395-1.397-.905-1.349-.49-1.128 1.787-3.261.392-2.796-2.693-2.697-.588-1.496 1.2-1.962v-1.496l-2.374-.49-1.151-2.036-.538-1.643-6.022-.343-1.983-.294-2.692.539-.319 1.177-1.787.981-.17 1.717-1.151.588-1.86-.637-.197-1.57-2.692.196-.686.712-1.126-1.349.172-2.354-1.249-1.496-1.493 1.324H78.6l-1.591-1.103-4.602.147-2.35 2.354-.832 2.403-.49.319-.955-.957h-1.884l-1.885 2.649-1.91-.147-1.42 2.305-2.545 2.109-1.811-.368-.563 2.207-.784.809-.88-1.005-1.91-.221-1.126 1.766h-1.64l-.808-1.791-1.273.197-4.308-2.722-4.112 1.422-5.655-3.654.343-2.109h6.609l-7.074-11.795-7.662-7.209-11.138-3.066-1.175 2.183-4.601-3.801 1.052-2.428-3.06-4.953-6.462-2.551 2.326-5.051 1.468-10.667-2.57-2.403-.734-7.553 2.864-1.422 4.675-5.641v-4.266l1.934-2.453 8.298 7.553 1.028 2.967 5.336 3.164 5.704-.54-.661-5.125 2.08-1.766-3.696-12.849 4.455-.417h5.802v-4.61l-2.326-2.943.857-3.384 4.7-2.893 2.325-.099 1.616-4.585 2.227-1.668 3.599 1.03.563-3.384-.76-3.041.54-1.397 4.38 2.427 3.624 1.594-.392 1.643-2.57 3.017 2.35 2.133 3.475-2.011.93-2.526 1.371-.882.172 3.163 2.937-3.163.416-1.84 2.79-.294 3.6-2.354 2.496-.147 1.664 4.242 3.941 2.747 6.071-1.962h2.423l1.567 2.526 1.91.147 3.328 4.291h3.476l2.546 3.139 4.749 3.629 2.423.295 1.224 1.912.171 3.997 2.571.859 2.521-3.777-.465-3.948 2.643-1.52 2.081 2.967 6.12.932 1.86 3.114 3.109 1.275 4.332-3.482.294-5.959 3.451-.318.319-3.09 1.909-.711 2.129 2.844 1.665-3.163 3.305-.54 4.553 4.267 1.028 1.888 5.409-.564-.661-4.046 2.301-.809 3.697.515 1.64-2.232 3.573 1.987 1.934.907-.808 1.618-2.913 1.668 3.795 4.34 3.182 1.055 1.371-.907 2.08 1.177 5.043-.295 5.874 3.335 4.039-.882 1.689-3.703.319-3.139 1.199-1.177 4.7 2.942 4.798.54 6.046-1.962 1.591-2.992-.808-13.315-1.885-1.324-4.724-.172-2.913-2.329-.49-1.864-3.941-.834-2.252-2.256h-3.696l-.122-1.594-1.053-2.06.318-1.103 3.036-.466.685-3.654 2.424-2.967-.906-4.365-2.473-.319-.122-3.04 3.525-5.077 3.598-3.286 6.609-.613 2.889 1.006 2.301-1.717V63.88l-3.501-1.054-2.496-2.55-3.06.171-1.787 1.496-3.035-1.3-4.015-.172-.22-1.569 1.101-.956 4.896-.172-1.615-4.487-4.651.686-1.91-.686 1.126-1.276-1.689-3.874.833-.613 3.524-.343 1.714-2.011 1.836.122.979 1.79 3.916-.49 3.256 2.403 1.64-2.28v-1.79l2.472-1.668 2.595.147 2.13 3.409 2.007-2.82.367-2.256 5.385-1.668 3.672-.294 4.284-2.084 4.308-.295 1.077-1.618 3.99-2.477 4.112-.147 2.644-1.84 2.007-.22 2.374 1.03 1.836-1.447-.147-3.482 1.567-1.324h3.696l.514-2.428 1.738-1.349 1.518 1.374 2.692.54 3.158-1.84 3.672-1.055 6.952-4.708h1.419l1.714-1.201 3.916-.589 2.13-2.869 1.836.564 4.969-1.054-.196-2.796-1.248-2.305 1.322-.711 4.552-.123.833-3.457L307.52.466l1.885.294 2.57-.76 3.77 1.52 4.479-.417 3.917 2.649h4.087l3.819-1.619 2.766.32 1.371 3.8 1.346 1.177 1.126 3.114 2.277 2.992 2.154 1.275.293 1.496-.783 2.624.612 3.409-.122.76-2.766.686 1.664 3.703 2.301 1.815 3.623-2.207 2.472 2.01 2.399-.808.637-3.213 1.346-.613 1.028 3.139h2.668l.563-3.065-1.15-3.041.44-.27 5.116 3.801.759 5.003 2.252 4.56 2.399-.196 2.937-3.138-2.178-1.177-.563-1.03 2.815-.638 5.997 2.943 2.448.049 2.398-1.962 1.077.589-1.101 2.918-2.105 1.692v4.659l2.472 3.188 2.693-.196 1.933-2.428 3.452-.907 6.389 1.594 1.689 1.226 2.594-1.79-.612-3.703 2.62-.957 4.773-.613 3.329-2.207 1.469-2.967 2.374-2.01.318-2.404 3.525-3.507 2.497-.833 2.595-2.55 3.353-.908 4.039-1.349 1.346.957v2.403l-2.619 2.746-2.962.76 1.518 3.066 29.643 22.29 40.316 50.54 4.234-.833 2.987-1.741.783-2.55-.857-.712-.147-3.09 2.179-1.03 4.161 1.962-.391 1.84.171 2.844 4.014 1.005 2.399 2.404 3.182.171 2.497-1.667 2.326-.368 4.161 2.403 3.696-1.594 2.668.613 3.452-1.373 1.199-1.986-1.126-1.643.441-1.226 5.067-.736h5.752l4.773 1.25 4.724 3.556 2.546 4.586 1.836 4.046h1.909l3.329.932 3.77 2.526h1.248l2.057.956.147 1.594-.612 1.373.122 2.894.832 2.207 1.689 1.741.93.932h1.616l3.109 1.373 2.741 1.275 1.175-1.765 2.522-1.251 7.514-.417 3.77-1.177 1.762-2.894 2.815-1.569 1.102.515-1.322 3.678 1.102 3.09 2.594.711 3.427 3.041 4.92 1.79.759.981-2.546 2.869-2.545 1.3-4.529 4.806-.171 3.016.881 1.619-1.811 3.089-4.749 1.84-3.109 2.207-.661 3.997.147 7.038 3.378 6.694 2.913 3.997-.416 2.036-3.99 4.487-3.403 1.177-2.839 3.311-2.056.686-1.224-.49-.832-2.011h-3.182l-6.561 1.422-4.112-.318-6.34-2.183-3.892-.49-2.374.171-1.469 7.97-1.42 4.512-.171 3.924-1.567 9.416-.024 7.357-.857 2.697 2.154 1.643 3.427 1.422-1.346 2.869-.318 2.232h-1.91l-1.909 1.275h-2.179l-1.982-1.839-2.35 1.103-3.843.908-7.246 1.569-5.116 1.913-2.056-.025-2.007-1.152-3.06 1.349-3.133 2.918-.171 2.673 3.182 2.476 4.773-.318 3.256.416v.932l-2.277 2.453 1.493 5.149.319 2.305 1.493 2.403.563 3.164 3.035 5.198.636 2.722 3.452 2.526 1.175 6.327-1.689 1.569-1.346 3.458 2.619 2.894-1.2.613-.489 1.937-3.06 2.28.147 4.218-2.717 1.496-6.928-1.815-7.025-8.165-3.133.833-6.781-2.795-10.109-.515-5.092 1.716-8.2-2.158-7.98 1.889-3.892.466-3.818-1.178-3.207 2.698-2.766 1.3-8.837-1.251-6.56-1.717-3.476-2.084-5.336.172-1.934.833-3.72-.22-3.109-.638-2.325 1.349.367 3.776.954 3.728.123 3.874-4.627.736-10.183.294-11.92-1.251-2.644-1.52-5.948-.883-3.403 3.777 1.053 1.814-3.207 2.183-.538 1.201-.857-.147-3.501 4.512-2.643 1.104-6.487 7.724-2.423 4.659-1.836 2.134-3.378 6.229-6.071 5.762-1.395-1.03-7.49-3.654-5.655-.858-5.067.957-7.27 3.923-2.986-.27-6.781-18.931-11.553-1.422-.49-23.443-5.875 1.79-3.965-9.49-8.592-6.498h-27.146l-24.16 2.672-13.586-8.288-10.329-3.85-25.923-18.367-43.889 8.337 13.242 78.005-2.007.27-6.389 1.349-10.378-12.09z" fill="#fff" stroke="#fff" mask="url(#a)"/></svg>