<svg width="138" height="107" viewBox="0 0 138 107" fill="none" xmlns="http://www.w3.org/2000/svg"><mask id="a" fill="#fff"><path fill-rule="evenodd" clip-rule="evenodd" d="M0 55.512l3.476-2.379 5.997-1.888 4.26 2.06 4.234-2.06 2.84-.319-1.738-4.733 4.748-.171 1.738-4.267 2.84-.932 1.101 1.888h3.623v-3.629l-4.26-2.06.955-5.051 2.35-.466 3.011-5.37 5.655-2.698v-3.31l-2.522-1.104 3.794-5.076 5.214-2.354 6.78-.957.637-4.267 2.815-1.422 1.273-3.31L62.762.68l2.84 1.913 3.622-2.06 3.305 5.199 3.965-1.888 3.623.466 2.986 5.394 4.26-3.335 4.724-1.422 1.91 2.379h2.35l7.098 2.673.955 3.8-1.102 4.268 2.839 3.31v4.904l3.77 4.12 1.738 4.414 4.259 6.008 3.305 2.354 1.42 5.37 5.532 1.423 6.144 5.542.465 2.992 4.259 2.844-1.885 1.594-3.304 5.518-8.519 1.103-3.623-3.31-1.419 2.672.318 3.948 3.304 5.224-.489 4.585 3.794 4.267v4.095l-.465-.147-6.952 1.888-4.871.49-2.374 6.156-.319 5.517-3.476.491-2.839-2.379-4.724 1.422-2.84-1.888-3.304.147-3.158 3.801-2.668-.956-.637-3.163-4.43-.466-5.19 2.991-2.203-.931-4.895-.81-1.42 1.423-2.374.171-2.668-2.526-5.68 2.207-.636-1.888-4.088-1.912-9.326-1.423-4.088-2.207-2.056-.147-3.304 2.845-5.214.147-11.505 1.741-2.84 1.422-5.189-2.697-2.693.319.147-1.57-3.304-5.37-1.249-4.733 2.522-4.12 3.157-1.103V73.51l-1.909-1.74-.783-3.948-2.203-3.458-2.522-7.602L0 55.512z"/></mask><path fill-rule="evenodd" clip-rule="evenodd" d="M0 55.512l3.476-2.379 5.997-1.888 4.26 2.06 4.234-2.06 2.84-.319-1.738-4.733 4.748-.171 1.738-4.267 2.84-.932 1.101 1.888h3.623v-3.629l-4.26-2.06.955-5.051 2.35-.466 3.011-5.37 5.655-2.698v-3.31l-2.522-1.104 3.794-5.076 5.214-2.354 6.78-.957.637-4.267 2.815-1.422 1.273-3.31L62.762.68l2.84 1.913 3.622-2.06 3.305 5.199 3.965-1.888 3.623.466 2.986 5.394 4.26-3.335 4.724-1.422 1.91 2.379h2.35l7.098 2.673.955 3.8-1.102 4.268 2.839 3.31v4.904l3.77 4.12 1.738 4.414 4.259 6.008 3.305 2.354 1.42 5.37 5.532 1.423 6.144 5.542.465 2.992 4.259 2.844-1.885 1.594-3.304 5.518-8.519 1.103-3.623-3.31-1.419 2.672.318 3.948 3.304 5.224-.489 4.585 3.794 4.267v4.095l-.465-.147-6.952 1.888-4.871.49-2.374 6.156-.319 5.517-3.476.491-2.839-2.379-4.724 1.422-2.84-1.888-3.304.147-3.158 3.801-2.668-.956-.637-3.163-4.43-.466-5.19 2.991-2.203-.931-4.895-.81-1.42 1.423-2.374.171-2.668-2.526-5.68 2.207-.636-1.888-4.088-1.912-9.326-1.423-4.088-2.207-2.056-.147-3.304 2.845-5.214.147-11.505 1.741-2.84 1.422-5.189-2.697-2.693.319.147-1.57-3.304-5.37-1.249-4.733 2.522-4.12 3.157-1.103V73.51l-1.909-1.74-.783-3.948-2.203-3.458-2.522-7.602L0 55.512z" fill="#fff" stroke="#fff" mask="url(#a)"/></svg>