<svg width="108" height="87" viewBox="0 0 108 87" fill="none" xmlns="http://www.w3.org/2000/svg"><path d="M21.227 27.467l-2.28-3.574 5.256-1.172.02-.005.02-.008 6.706-2.697.15-.06.007-.161.171-3.948.007-.162-.145-.072-4.898-2.454.11-2.982 4.175-1.537.036-.013.03-.023 3.79-2.907 3.255.31.12.01.084-.086L42.682.911l3.073 3.078 1.304 2.516.083.16.177-.028 8.37-1.296 4.698.283 1.633 5.072-4.396 10.902-.135.335.36.009 13.944.318 12.158 3.62.072.02.072-.02 10.38-3.113 6.781 9.287-2.224 2.645-.113.136.09.152 8.074 13.742-3.192 12.67-15.307 3.053-14.998-1.073-5.466-2.556-.053-.025-.059.002-2.828.067v-2.225l-.135-.07-3.239-1.683-2.897-2.122-.066-.049h-4.639l-.07.135-1.714 3.286-.02.038-.006.042-.648 4.614-1.836 1.557-.028.024-.02.03-1.616 2.477-.056.087.021.1.933 4.482-2.007 2.935-2.484.346-.41-1.621-.047-.19h-2.523l-.075.101-1.417 1.893-3.54.958-.16.043-.022.164-.392 2.795-.018.132.099.09 1.54 1.378.097 1.522-4.494-.36-1.523-2.09-.027-.036-.038-.025-2.203-1.447-.164-.108-.143.134-2.001 1.861-1.884.307-.106.017-.06.089-1.804 2.65-3.246 1.865L15 86.119l-2.07-.968-1.811-2.396 1.207-9.944 3.252-7.853 1.615-1.907.07-.082-.012-.106-.514-4.904-.015-.146-.134-.058-3.28-1.428-1.517-4.14 1.495-3.018.04-.082-.022-.088-1.077-4.365-.049-.197-.202.007-4.97.171-.058.002-.052.028-2.47 1.34-3.745-5.44v-4.462l2.783-2.259 6.916 1.063.05.007.05-.012 3.525-.908.164-.042.022-.168.47-3.648 6.44-2.279.296-.105-.17-.265z" fill="#fff" stroke="#fff" stroke-width=".5"/></svg>