<svg width="86" height="55" viewBox="0 0 86 55" fill="none" xmlns="http://www.w3.org/2000/svg"><path d="M84.74 16.925c.696 0 1.26-.572 1.26-1.277v-1.67a4.911 4.911 0 00-2.277-4.17 4.773 4.773 0 00-4.696-.26l-12.844 6.305V12.31C66.183 5.52 60.736 0 54.04 0h-41.9C5.448 0 0 5.522 0 12.309V42.63c0 5.225 3.266 9.895 8.128 11.62a1.254 1.254 0 001.605-.783 1.281 1.281 0 00-.772-1.628C5.108 50.472 2.52 46.771 2.52 42.63V12.31c0-5.379 4.316-9.755 9.622-9.755h41.9c5.305 0 9.621 4.376 9.621 9.755v30.32c0 5.38-4.316 9.755-9.622 9.755H14.664c-.696 0-1.26.572-1.26 1.277 0 .706.564 1.277 1.26 1.277h39.377c6.695 0 12.142-5.521 12.142-12.309v-3.544l12.845 6.305a4.805 4.805 0 002.12.497c.894 0 1.785-.254 2.575-.757A4.91 4.91 0 0086 40.962V21.744c0-.705-.564-1.277-1.26-1.277a1.27 1.27 0 00-1.26 1.277v19.218c0 .833-.399 1.564-1.095 2.007a2.27 2.27 0 01-2.26.125l-1.672-.822V12.668l1.672-.821a2.268 2.268 0 012.26.124 2.335 2.335 0 011.096 2.008v1.669c0 .705.563 1.277 1.26 1.277zm-8.807 24.11l-9.75-4.786V18.691l9.75-4.786v27.13zM59.87 42.632V12.31c0-3.258-2.615-5.909-5.829-5.909h-41.9c-3.213 0-5.828 2.65-5.828 5.91V42.63c0 3.259 2.615 5.91 5.829 5.91h41.9c3.213 0 5.828-2.651 5.828-5.91zm-51.037 0V12.31c0-1.85 1.484-3.355 3.309-3.355h41.9c1.824 0 3.308 1.505 3.308 3.355v30.322c0 1.85-1.484 3.355-3.309 3.355h-41.9c-1.824 0-3.308-1.505-3.308-3.355zm34.531-12.9a3.885 3.885 0 00-5.54 0l-1.578 1.6a.74.74 0 01-.928.106 22.359 22.359 0 01-6.981-7.077.764.764 0 01.105-.94l1.577-1.6a4.016 4.016 0 000-5.617l-3.304-3.35a3.866 3.866 0 00-2.77-1.163 3.863 3.863 0 00-2.77 1.163l-2.185 2.215a7.653 7.653 0 00-1.053 9.423c4.348 7.033 10.314 13.081 17.252 17.489a7.43 7.43 0 003.994 1.17 7.432 7.432 0 005.302-2.238l2.183-2.214a3.973 3.973 0 001.148-2.808c0-1.06-.408-2.059-1.148-2.808l-3.304-3.35zm1.523 7.16l-2.184 2.215a4.915 4.915 0 01-6.176.71C29.91 35.61 24.22 29.842 20.072 23.133a5.084 5.084 0 01.7-6.26l2.184-2.215a1.38 1.38 0 011.977 0l3.305 3.35a1.433 1.433 0 010 2.005l-1.578 1.599a3.332 3.332 0 00-.458 4.103 24.906 24.906 0 007.779 7.885 3.22 3.22 0 004.047-.465l1.577-1.599a1.387 1.387 0 011.978 0l3.304 3.35c.264.268.41.624.41 1.003 0 .379-.146.734-.41 1.002z" fill="#1B75BC"/></svg>