<svg width="79" height="79" viewBox="0 0 79 79" fill="none" xmlns="http://www.w3.org/2000/svg"><path d="M59.827 8.106h-.01c-.851 0-1.538.69-1.538 1.54a1.545 1.545 0 003.09 0c0-.85-.69-1.54-1.542-1.54zm8.326 0h-.009c-.852 0-1.538.69-1.538 1.54a1.545 1.545 0 003.09 0c0-.85-.691-1.54-1.543-1.54zm-16.654 0h-.01c-.851 0-1.538.69-1.538 1.54a1.545 1.545 0 003.09 0c0-.85-.69-1.54-1.542-1.54zm-17.472 0H10.842c-.852 0-1.543.69-1.543 1.54 0 .85.69 1.54 1.543 1.54h23.185c.852 0 1.543-.69 1.543-1.54 0-.85-.691-1.54-1.543-1.54z" fill="#1B75BC"/><path d="M74.05 0H4.95C2.22 0 0 2.216 0 4.94v57.023c0 2.724 2.22 4.94 4.95 4.94h8.263v6.204c0 3.165 2.58 5.74 5.75 5.74h41.074c3.17 0 5.75-2.575 5.75-5.74v-6.204h8.263c2.73 0 4.95-2.216 4.95-4.94V4.94C79 2.216 76.78 0 74.05 0zm1.864 61.962a1.865 1.865 0 01-1.864 1.861h-8.263v-31.71c0-3.164-2.58-5.739-5.75-5.739H46.42c-.852 0-1.543.69-1.543 1.54 0 .85.691 1.54 1.543 1.54h13.615a2.665 2.665 0 012.665 2.66v40.993a2.665 2.665 0 01-2.665 2.66H18.963a2.665 2.665 0 01-2.664-2.66V32.114a2.665 2.665 0 012.664-2.66h13.598c.852 0 1.543-.69 1.543-1.54 0-.85-.69-1.54-1.543-1.54H18.963c-3.17 0-5.75 2.575-5.75 5.74v31.71H4.95a1.865 1.865 0 01-1.864-1.861V19.297h72.828v42.665zm0-45.745H3.086V4.94c0-1.026.836-1.861 1.864-1.861h69.1c1.028 0 1.864.835 1.864 1.86v11.277z" fill="#1B75BC"/><path d="M21.451 42.99c.852 0 1.543-.689 1.543-1.54v-5.313h5.324c.852 0 1.543-.689 1.543-1.54 0-.85-.691-1.54-1.543-1.54H21.45c-.852 0-1.543.69-1.543 1.54v6.854c0 .85.691 1.54 1.543 1.54zm29.225-6.852h5.328v5.313c0 .85.69 1.54 1.543 1.54.852 0 1.543-.69 1.543-1.54v-6.853c0-.85-.691-1.54-1.543-1.54h-6.871c-.852 0-1.543.69-1.543 1.54 0 .85.69 1.54 1.543 1.54zM28.318 69.083h-5.324v-5.317c0-.851-.69-1.54-1.543-1.54-.852 0-1.543.689-1.543 1.54v6.857c0 .85.691 1.54 1.543 1.54h6.867c.852 0 1.543-.69 1.543-1.54 0-.85-.691-1.54-1.543-1.54zm29.229-6.857c-.852 0-1.543.689-1.543 1.54v5.317h-5.328c-.852 0-1.543.69-1.543 1.54 0 .85.69 1.54 1.543 1.54h6.87c.853 0 1.544-.69 1.544-1.54v-6.858c0-.85-.691-1.54-1.543-1.54zM34.01 52.608a5.491 5.491 0 0010.98 0c0-3.02-2.464-5.477-5.492-5.477-3.026 0-5.488 2.457-5.488 5.477zm7.894 0a2.405 2.405 0 01-4.809 0 2.405 2.405 0 014.809 0z" fill="#1B75BC"/><path d="M25.86 45.25c-2.745 1.89-5.952 4.952-5.952 7.358 0 2.408 3.206 5.469 5.952 7.359 2.414 1.66 7.395 4.448 13.637 4.448 6.242 0 11.224-2.787 13.639-4.448 2.746-1.89 5.954-4.951 5.954-7.36 0-2.405-3.207-5.466-5.954-7.356-2.415-1.662-7.398-4.45-13.64-4.45-6.24 0-11.222 2.788-13.636 4.45zm-2.864 7.358c.076-.475 1.194-2.337 4.086-4.446a13.132 13.132 0 000 8.894c-2.893-2.11-4.011-3.973-4.086-4.448zm28.916-4.448c2.894 2.11 4.014 3.972 4.09 4.448-.075.475-1.194 2.339-4.092 4.45a13.14 13.14 0 00.002-8.898zM49.6 52.608c0 2.845-1.205 5.549-3.31 7.464-1.948.72-4.256 1.262-6.794 1.262-2.535 0-4.841-.54-6.788-1.26a10.079 10.079 0 01-3.316-7.466c0-2.853 1.21-5.558 3.322-7.468 1.946-.719 4.25-1.26 6.782-1.26 2.535 0 4.841.542 6.788 1.261a10.072 10.072 0 013.316 7.467zM39.494 29.454h.005a1.54 1.54 0 10-.005-3.08c-.852 0-1.543.69-1.543 1.54 0 .85.691 1.54 1.543 1.54z" fill="#1B75BC"/></svg>