<svg width="120" height="120" viewBox="0 0 120 120" fill="none" xmlns="http://www.w3.org/2000/svg"><path d="M113.052 0h-88.42a1.895 1.895 0 100 3.79h88.42a3.161 3.161 0 013.158 3.157V68.21h-10.736a1.895 1.895 0 100 3.79h10.736v18.316a3.17 3.17 0 01-1.58 2.736 1.895 1.895 0 001.898 3.28A6.973 6.973 0 00120 90.316V6.947C120 3.117 116.883 0 113.052 0z" fill="#1B75BC"/><path d="M98.526 82.736a6.955 6.955 0 006.948 6.948 6.955 6.955 0 006.947-6.948 6.955 6.955 0 00-6.947-6.947 6.955 6.955 0 00-6.948 6.947zm6.948-3.157a3.162 3.162 0 013.158 3.158 3.162 3.162 0 01-3.158 3.158 3.161 3.161 0 01-3.158-3.158 3.161 3.161 0 013.158-3.158zm-63.79 15.789a1.895 1.895 0 00-1.895-1.894H6.947a3.161 3.161 0 01-3.158-3.158V72h46.106a1.894 1.894 0 100-3.79H3.789V6.948A3.161 3.161 0 016.947 3.79h10.106a1.895 1.895 0 100-3.789H6.947A6.955 6.955 0 000 6.947v83.369a6.955 6.955 0 006.947 6.947H39.79a1.895 1.895 0 001.895-1.895z" fill="#1B75BC"/><path d="M106.395 93.92l-16.711-5.013V82.98a17.062 17.062 0 009.534-12.808l2.106-13.689a5.477 5.477 0 003.518-5.108c0-1.46-.569-2.833-1.601-3.866l-3.69-3.69-2.608-7.824a11.985 11.985 0 00-10.184-8.146 4.427 4.427 0 00-4.022-2.585H72.632a4.427 4.427 0 00-4.022 2.585 11.985 11.985 0 00-10.184 8.146l-2.608 7.824-3.69 3.69a5.432 5.432 0 00-1.602 3.866 5.477 5.477 0 003.518 5.108l2.106 13.69a17.064 17.064 0 009.534 12.807v5.927L48.973 93.92c-5.115 1.535-8.552 6.154-8.552 11.494v10.165A4.426 4.426 0 0044.84 120h45.474a1.894 1.894 0 100-3.789H60.633v-5.684a1.895 1.895 0 10-3.79 0v5.684h-12a.632.632 0 01-.631-.632v-10.165a8.16 8.16 0 015.85-7.864l17.796-5.339h19.654l17.796 5.339a8.16 8.16 0 015.851 7.864v10.165a.632.632 0 01-.632.632h-12v-5.684a1.895 1.895 0 10-3.789 0v7.579c0 1.046.848 1.894 1.895 1.894h13.894a4.426 4.426 0 004.421-4.421v-10.165c0-5.34-3.437-9.96-8.552-11.494zm-50.4-40.867a1.68 1.68 0 01-1.188-2.865l4.007-4.006a1.88 1.88 0 00.457-.74l2.75-8.248a8.198 8.198 0 016.19-5.458v8.054a1.895 1.895 0 103.79 0V29.685c0-.349.283-.632.63-.632h10.106c.348 0 .632.283.632.632V39.79a1.895 1.895 0 103.79 0v-8.054a8.198 8.198 0 016.189 5.458l2.75 8.248c.092.28.25.533.457.74l4.006 4.006a1.68 1.68 0 01-1.186 2.865h-43.38zm26.37 31.579a17.05 17.05 0 003.53-.37v4.16h-16.42v-4.16c1.153.244 2.336.37 3.53.37h2.154a1.894 1.894 0 100-3.79h-2.154c-6.594 0-12.107-4.73-13.11-11.246l-1.961-12.753h39.502l-1.962 12.753c-1.003 6.516-6.516 11.247-13.11 11.247a1.894 1.894 0 100 3.789zM14.526 75.79a6.955 6.955 0 00-6.947 6.946 6.955 6.955 0 006.947 6.948h17.685a6.955 6.955 0 006.947-6.948 6.955 6.955 0 00-6.947-6.947H14.526zm20.842 6.946a3.161 3.161 0 01-3.157 3.158H14.526a3.161 3.161 0 01-3.158-3.158 3.161 3.161 0 013.158-3.158h17.685a3.162 3.162 0 013.157 3.158z" fill="#1B75BC"/><path d="M36 10.105H18.316a3.161 3.161 0 00-3.158 3.158v7.58A3.161 3.161 0 0018.316 24h6.947v4.514l-8.359 4.18a3.14 3.14 0 00-1.746 2.824v.965a3.14 3.14 0 001.746 2.825l8.36 4.18V48h-6.948a3.161 3.161 0 00-3.158 3.158v7.58a3.161 3.161 0 003.158 3.157H36a3.161 3.161 0 003.158-3.158v-1.895h5.684a1.894 1.894 0 100-3.789h-5.684v-1.895A3.161 3.161 0 0036 48h-6.947v-4.513l8.359-4.18a3.14 3.14 0 001.746-2.824v-.965a3.14 3.14 0 00-1.746-2.825l-8.36-4.18V24H36a3.161 3.161 0 003.158-3.158v-1.894h61.894v18.315a1.895 1.895 0 003.79 0v-20.21a1.895 1.895 0 00-1.895-1.895h-63.79v-1.895A3.161 3.161 0 0036 10.105zm-.632 41.684v6.316h-16.42V51.79h16.42zm0-15.88v.184l-8.21 4.105-8.21-4.105v-.185l8.21-4.105 8.21 4.105zm0-15.698h-16.42v-6.316h16.42v6.316zm7.579 62.525a6.955 6.955 0 006.948 6.948 6.955 6.955 0 006.947-6.948 6.955 6.955 0 00-6.947-6.947 6.955 6.955 0 00-6.948 6.947zm10.106 0a3.161 3.161 0 01-3.158 3.158 3.161 3.161 0 01-3.158-3.158 3.161 3.161 0 013.158-3.158 3.162 3.162 0 013.158 3.158z" fill="#1B75BC"/></svg>