<svg width="110" height="101" viewBox="0 0 110 101" fill="none" xmlns="http://www.w3.org/2000/svg"><g clip-path="url(#clip0)" fill="#fff"><path d="M54.997 0a2.144 2.144 0 00-2.148 2.14v12.73c0 1.182.962 2.14 2.148 2.14a2.144 2.144 0 002.148-2.14V2.14c0-1.182-.962-2.14-2.148-2.14zM42.824 18.27l-5.14-5.115a2.155 2.155 0 00-3.04 0 2.134 2.134 0 00.002 3.027l5.14 5.115c.42.418.97.626 1.519.626.55 0 1.1-.209 1.52-.627a2.134 2.134 0 00-.002-3.026zm32.53-5.11a2.155 2.155 0 00-3.039.002l-5.465 5.447a2.134 2.134 0 00.002 3.026c.42.418.969.626 1.518.626.55 0 1.1-.209 1.52-.627l5.465-5.447a2.134 2.134 0 00-.001-3.027zm20.574 43.332h-1.734a10.815 10.815 0 002.259-6.62v-3.02c0-6.012-4.91-10.902-10.945-10.902s-10.945 4.89-10.945 10.901v2.348L58.4 33.1a3.248 3.248 0 00-3.4-.754 3.248 3.248 0 00-3.4.754L35.437 49.2v-2.35c0-6.01-4.91-10.901-10.945-10.901s-10.945 4.89-10.945 10.901v3.02c0 2.489.844 4.784 2.26 6.621h-1.735C6.312 56.492 0 62.78 0 70.508v28.353c0 1.182.962 2.14 2.148 2.14h9.078c.214 0 .421-.032.617-.091.196.059.403.091.618.091h24.062a2.144 2.144 0 002.149-2.14v-7.275c0-1.182-.962-2.14-2.149-2.14a2.144 2.144 0 00-2.148 2.14v5.135H14.609V72.338c0-1.181-.962-2.14-2.148-2.14a2.144 2.144 0 00-2.149 2.14v24.383H4.298V70.508c0-5.368 4.385-9.736 9.775-9.736h14.932c.591 0 1.127-.238 1.515-.623l.004-.004L52.84 37.92a23.498 23.498 0 01-4.036 12.426L34.742 71.143c-.24.354-.367.77-.367 1.195v2.343c0 1.182.962 2.14 2.149 2.14a2.144 2.144 0 002.148-2.14v-1.69l13.695-20.256A27.967 27.967 0 0055 47.855a27.954 27.954 0 002.634 4.88l13.694 20.257V98.86c0 1.182.962 2.14 2.149 2.14h24.062c.215 0 .422-.032.618-.091.196.059.403.091.617.091h9.078A2.144 2.144 0 00110 98.86V70.508c0-7.728-6.313-14.016-14.072-14.016zM31.14 49.871c0 3.651-2.982 6.621-6.648 6.621-3.666 0-6.648-2.97-6.648-6.62v-3.02c0-3.652 2.982-6.622 6.648-6.622 3.666 0 6.648 2.97 6.648 6.621v3.02zm47.72-3.02c0-3.651 2.982-6.621 6.648-6.621 3.666 0 6.648 2.97 6.648 6.621v3.02c0 3.651-2.982 6.621-6.648 6.621-3.666 0-6.648-2.97-6.648-6.62V46.85zm26.843 49.87h-6.016V80.886c0-1.181-.962-2.14-2.148-2.14a2.144 2.144 0 00-2.148 2.14v15.835H75.625V72.338c0-.425-.128-.841-.366-1.195L61.198 50.345a23.498 23.498 0 01-4.037-12.426l22.316 22.227c.028.028.055.051.08.073.382.343.885.553 1.44.553h14.93c5.391 0 9.776 4.368 9.776 9.737V96.72z"/><path d="M99.058 70.824a2.168 2.168 0 00-1.519-.627 2.17 2.17 0 00-1.519.627c-.4.398-.63.95-.63 1.513s.23 1.115.63 1.513c.4.398.954.627 1.52.627a2.17 2.17 0 001.518-.627c.4-.398.63-.95.63-1.513s-.23-1.113-.63-1.513zm-61.016 11.33a2.168 2.168 0 00-1.519-.627 2.17 2.17 0 00-1.519.627c-.4.398-.629.95-.629 1.513s.23 1.115.63 1.513c.4.398.953.627 1.518.627a2.17 2.17 0 001.52-.627c.399-.398.629-.95.629-1.513s-.23-1.115-.63-1.513z"/></g><defs><clipPath id="clip0"><path fill="#fff" d="M0 0h110v101H0z"/></clipPath></defs></svg>