<?xml version="1.0" standalone="no"?>
<!DOCTYPE svg PUBLIC "-//W3C//DTD SVG 20010904//EN"
 "http://www.w3.org/TR/2001/REC-SVG-20010904/DTD/svg10.dtd">
<svg version="1.0" xmlns="http://www.w3.org/2000/svg"
 width="1136.000000pt" height="1136.000000pt" viewBox="0 0 1136.000000 1136.000000"
 preserveAspectRatio="xMidYMid meet">
<metadata>
Created by potrace 1.14, written by Peter Selinger 2001-2017
</metadata>
<g transform="translate(0.000000,1136.000000) scale(0.100000,-0.100000)"
fill="#000000" stroke="none">
<path d="M4905 10386 c-281 -66 -520 -256 -739 -586 -175 -263 -340 -638 -440
-1000 l-31 -115 -136 -135 c-373 -372 -549 -763 -549 -1222 0 -419 151 -782
476 -1143 l80 -90 18 -115 c10 -63 28 -167 41 -230 13 -63 22 -116 20 -118 -5
-5 -186 191 -252 273 -35 44 -96 127 -135 185 -86 129 -88 131 -48 50 78 -154
230 -366 373 -517 l93 -98 33 -130 c91 -353 247 -730 417 -1005 54 -87 134
-199 134 -187 0 4 -16 45 -35 92 -80 192 -157 427 -211 640 -31 121 -84 369
-79 373 1 2 48 -27 103 -63 420 -275 940 -439 1567 -496 308 -28 806 -11 1195
41 163 22 499 85 509 96 3 4 -13 4 -36 0 -401 -61 -1021 -96 -1384 -77 -785
40 -1366 207 -1885 543 l-91 58 -17 113 c-27 177 -43 327 -36 327 3 0 51 -29
106 -65 133 -88 468 -253 629 -311 576 -205 1196 -268 1830 -188 538 68 1093
275 1495 557 244 172 431 359 584 584 533 790 310 1747 -552 2367 -442 318
-1013 527 -1617 591 -77 8 -147 15 -156 15 -11 0 -28 26 -49 73 -77 172 -224
399 -358 552 -142 162 -314 282 -481 336 -79 26 -116 32 -211 35 -76 2 -135
-1 -175 -10z m427 -395 c205 -53 391 -207 570 -471 l71 -105 -169 -7 c-93 -4
-227 -12 -299 -18 -393 -35 -839 -154 -1182 -316 -62 -29 -113 -51 -113 -49 0
12 81 188 126 275 136 257 312 475 475 587 162 112 347 148 521 104z m678
-892 c82 -8 118 -15 127 -26 7 -9 26 -52 43 -97 181 -471 302 -1044 356 -1686
19 -225 26 -894 11 -1075 -15 -172 3 -97 23 101 93 917 17 1824 -216 2579 -20
66 -39 130 -41 142 l-5 21 88 -19 c175 -38 397 -109 564 -181 756 -324 1229
-896 1266 -1533 15 -258 -53 -537 -190 -775 -197 -345 -513 -625 -941 -836
-321 -157 -621 -245 -1030 -300 -180 -24 -624 -25 -815 -1 -440 56 -857 189
-1190 380 -146 83 -210 129 -215 152 -9 44 -25 344 -31 580 -17 684 72 1452
237 2032 l51 182 77 40 c425 220 1009 348 1536 336 99 -3 232 -10 295 -16z
m-2396 -776 c-25 -131 -74 -480 -91 -658 -13 -139 -17 -277 -17 -600 0 -406 5
-507 40 -824 l7 -56 -28 25 c-40 37 -134 154 -192 240 -57 85 -120 206 -162
312 -60 151 -98 404 -86 573 26 355 170 671 440 962 48 51 90 93 94 93 4 0 2
-30 -5 -67z"/>
<path d="M1143 3050 c-76 -38 -110 -77 -195 -230 -233 -415 -948 -1740 -948
-1757 0 -11 7 -24 16 -27 9 -3 111 -6 228 -6 154 0 217 3 229 12 9 7 63 101
120 208 l104 195 688 0 687 0 109 -195 c59 -107 116 -200 125 -207 13 -10 73
-13 230 -13 179 0 214 2 224 15 17 20 22 10 -212 435 -105 190 -214 388 -243
440 -330 601 -542 981 -565 1014 -41 59 -78 92 -135 118 -45 21 -67 23 -225
26 l-175 3 -62 -31z m363 -557 c273 -502 364 -670 370 -685 6 -17 -22 -18
-490 -18 -273 0 -496 3 -496 6 0 3 26 53 58 112 33 59 137 252 231 430 171
319 173 322 204 322 31 0 35 -5 123 -167z"/>
<path d="M3029 3061 l-24 -19 -3 -954 c-2 -524 0 -968 3 -986 3 -18 15 -42 26
-53 19 -19 41 -19 954 -19 817 0 946 2 1013 16 192 40 297 143 337 329 19 93
20 389 1 461 -21 79 -65 151 -123 203 l-53 47 59 60 c97 100 128 216 118 439
-7 146 -17 194 -53 270 -51 110 -151 178 -306 209 -67 14 -204 16 -1001 16
-896 0 -926 -1 -948 -19z m1786 -406 c22 -11 50 -35 62 -54 21 -30 23 -46 23
-146 0 -100 -2 -116 -23 -146 -12 -19 -40 -43 -62 -54 -39 -19 -60 -20 -700
-20 l-660 0 -3 207 c-2 180 0 208 14 223 15 14 75 16 663 13 623 -3 647 -4
686 -23z m0 -775 c77 -39 90 -69 90 -217 0 -140 -9 -162 -85 -200 l-44 -23
-651 0 c-493 0 -654 3 -663 12 -13 13 -18 439 -5 452 4 4 300 5 658 4 l650 -3
50 -25z"/>
<path d="M5720 3060 c-20 -20 -20 -28 -20 -1009 0 -886 2 -991 16 -1005 23
-24 385 -24 408 0 9 8 16 21 16 27 0 7 0 138 0 293 0 154 2 288 6 297 6 16 48
17 475 17 l468 0 232 -307 c127 -170 240 -316 251 -325 18 -16 45 -18 242 -18
233 0 246 2 246 45 0 11 -106 151 -250 330 -137 171 -250 313 -250 317 0 3 18
9 39 13 65 11 178 71 235 125 61 58 107 142 133 246 25 100 25 478 0 578 -50
200 -162 315 -362 373 -55 16 -139 18 -962 21 -896 3 -902 3 -923 -18z m1705
-411 c41 -20 55 -36 78 -81 25 -47 30 -71 34 -159 7 -124 -10 -235 -41 -281
-12 -18 -42 -44 -66 -58 l-45 -25 -620 0 -620 0 -3 291 c-1 179 2 302 8 318
l10 27 608 -3 608 -3 49 -26z"/>
<path d="M8368 3069 c-17 -9 -18 -68 -18 -1009 0 -894 2 -1000 16 -1014 22
-22 380 -24 410 -2 19 14 19 37 21 998 2 779 0 988 -10 1008 l-13 25 -194 2
c-120 2 -202 -1 -212 -8z"/>
<path d="M9500 3064 c-94 -20 -182 -67 -231 -122 -50 -56 -95 -147 -109 -221
-15 -81 -12 -403 4 -482 37 -175 142 -284 321 -336 53 -15 136 -17 700 -22
715 -7 680 -3 711 -76 22 -53 19 -239 -5 -291 -36 -78 14 -74 -895 -74 -793 0
-806 0 -826 -20 -18 -18 -20 -33 -20 -185 0 -152 2 -167 20 -185 20 -20 33
-20 878 -20 534 0 881 4 920 10 184 30 300 120 360 278 24 63 26 80 30 282 3
165 0 232 -12 287 -36 175 -133 282 -306 339 -50 16 -113 19 -705 24 -515 4
-655 8 -673 18 -42 24 -62 86 -62 192 0 80 4 103 23 140 12 25 33 51 47 57 19
10 204 13 798 13 l773 0 24 25 c24 24 25 28 25 182 0 127 -3 163 -16 181 l-15
22 -847 -1 c-688 0 -859 -3 -912 -15z"/>
</g>
</svg>
