<svg version="1.0" xmlns="http://www.w3.org/2000/svg" width="1514.667" height="1514.667" viewBox="0 0 1136 1136"><path d="M490.5 97.4c-28.1 6.6-52 25.6-73.9 58.6-17.5 26.3-34 63.8-44 100l-3.1 11.5-13.6 13.5c-37.3 37.2-54.9 76.3-54.9 122.2 0 41.9 15.1 78.2 47.6 114.3l8 9 1.8 11.5c1 6.3 2.8 16.7 4.1 23 1.3 6.3 2.2 11.6 2 11.8-.5.5-18.6-19.1-25.2-27.3-3.5-4.4-9.6-12.7-13.5-18.5-8.6-12.9-8.8-13.1-4.8-5 7.8 15.4 23 36.6 37.3 51.7l9.3 9.8 3.3 13c9.1 35.3 24.7 73 41.7 100.5 5.4 8.7 13.4 19.9 13.4 18.7 0-.4-1.6-4.5-3.5-9.2-8-19.2-15.7-42.7-21.1-64-3.1-12.1-8.4-36.9-7.9-37.3.1-.2 4.8 2.7 10.3 6.3 42 27.5 94 43.9 156.7 49.6 30.8 2.8 80.6 1.1 119.5-4.1 16.3-2.2 49.9-8.5 50.9-9.6.3-.4-1.3-.4-3.6 0-40.1 6.1-102.1 9.6-138.4 7.7-78.5-4-136.6-20.7-188.5-54.3l-9.1-5.8-1.7-11.3c-2.7-17.7-4.3-32.7-3.6-32.7.3 0 5.1 2.9 10.6 6.5 13.3 8.8 46.8 25.3 62.9 31.1 57.6 20.5 119.6 26.8 183 18.8 53.8-6.8 109.3-27.5 149.5-55.7 24.4-17.2 43.1-35.9 58.4-58.4 53.3-79 31-174.7-55.2-236.7-44.2-31.8-101.3-52.7-161.7-59.1-7.7-.8-14.7-1.5-15.6-1.5-1.1 0-2.8-2.6-4.9-7.3-7.7-17.2-22.4-39.9-35.8-55.2-14.2-16.2-31.4-28.2-48.1-33.6-7.9-2.6-11.6-3.2-21.1-3.5-7.6-.2-13.5.1-17.5 1zm42.7 39.5c20.5 5.3 39.1 20.7 57 47.1l7.1 10.5-16.9.7c-9.3.4-22.7 1.2-29.9 1.8-39.3 3.5-83.9 15.4-118.2 31.6-6.2 2.9-11.3 5.1-11.3 4.9 0-1.2 8.1-18.8 12.6-27.5 13.6-25.7 31.2-47.5 47.5-58.7 16.2-11.2 34.7-14.8 52.1-10.4zm67.8 89.2c8.2.8 11.8 1.5 12.7 2.6.7.9 2.6 5.2 4.3 9.7 18.1 47.1 30.2 104.4 35.6 168.6 1.9 22.5 2.6 89.4 1.1 107.5-1.5 17.2.3 9.7 2.3-10.1 9.3-91.7 1.7-182.4-21.6-257.9-2-6.6-3.9-13-4.1-14.2l-.5-2.1 8.8 1.9c17.5 3.8 39.7 10.9 56.4 18.1 75.6 32.4 122.9 89.6 126.6 153.3 1.5 25.8-5.3 53.7-19 77.5-19.7 34.5-51.3 62.5-94.1 83.6-32.1 15.7-62.1 24.5-103 30-18 2.4-62.4 2.5-81.5.1-44-5.6-85.7-18.9-119-38-14.6-8.3-21-12.9-21.5-15.2-.9-4.4-2.5-34.4-3.1-58-1.7-68.4 7.2-145.2 23.7-203.2l5.1-18.2 7.7-4c42.5-22 100.9-34.8 153.6-33.6 9.9.3 23.2 1 29.5 1.6zm-239.6 77.6c-2.5 13.1-7.4 48-9.1 65.8-1.3 13.9-1.7 27.7-1.7 60 0 40.6.5 50.7 4 82.4l.7 5.6-2.8-2.5c-4-3.7-13.4-15.4-19.2-24-5.7-8.5-12-20.6-16.2-31.2-6-15.1-9.8-40.4-8.6-57.3 2.6-35.5 17-67.1 44-96.2 4.8-5.1 9-9.3 9.4-9.3.4 0 .2 3-.5 6.7zM114.3 831c-7.6 3.8-11 7.7-19.5 23C71.5 895.5 0 1028 0 1029.7c0 1.1.7 2.4 1.6 2.7.9.3 11.1.6 22.8.6 15.4 0 21.7-.3 22.9-1.2.9-.7 6.3-10.1 12-20.8l10.4-19.5h137.5l10.9 19.5c5.9 10.7 11.6 20 12.5 20.7 1.3 1 7.3 1.3 23 1.3 17.9 0 21.4-.2 22.4-1.5 1.7-2 2.2-1-21.2-43.5-10.5-19-21.4-38.8-24.3-44-33-60.1-54.2-98.1-56.5-101.4-4.1-5.9-7.8-9.2-13.5-11.8-4.5-2.1-6.7-2.3-22.5-2.6l-17.5-.3-6.2 3.1zm36.3 55.7c27.3 50.2 36.4 67 37 68.5.6 1.7-2.2 1.8-49 1.8-27.3 0-49.6-.3-49.6-.6s2.6-5.3 5.8-11.2c3.3-5.9 13.7-25.2 23.1-43 17.1-31.9 17.3-32.2 20.4-32.2 3.1 0 3.5.5 12.3 16.7zm152.3-56.8l-2.4 1.9-.3 95.4c-.2 52.4 0 96.8.3 98.6.3 1.8 1.5 4.2 2.6 5.3 1.9 1.9 4.1 1.9 95.4 1.9 81.7 0 94.6-.2 101.3-1.6 19.2-4 29.7-14.3 33.7-32.9 1.9-9.3 2-38.9.1-46.1-2.1-7.9-6.5-15.1-12.3-20.3l-5.3-4.7 5.9-6c9.7-10 12.8-21.6 11.8-43.9-.7-14.6-1.7-19.4-5.3-27-5.1-11-15.1-17.8-30.6-20.9-6.7-1.4-20.4-1.6-100.1-1.6-89.6 0-92.6.1-94.8 1.9zm178.6 40.6c2.2 1.1 5 3.5 6.2 5.4 2.1 3 2.3 4.6 2.3 14.6s-.2 11.6-2.3 14.6c-1.2 1.9-4 4.3-6.2 5.4-3.9 1.9-6 2-70 2h-66l-.3-20.7c-.2-18 0-20.8 1.4-22.3 1.5-1.4 7.5-1.6 66.3-1.3 62.3.3 64.7.4 68.6 2.3zm0 77.5c7.7 3.9 9 6.9 9 21.7 0 14-.9 16.2-8.5 20l-4.4 2.3h-65.1c-49.3 0-65.4-.3-66.3-1.2-1.3-1.3-1.8-43.9-.5-45.2.4-.4 30-.5 65.8-.4l65 .3 5 2.5zM572 830c-2 2-2 2.8-2 100.9 0 88.6.2 99.1 1.6 100.5 2.3 2.4 38.5 2.4 40.8 0 .9-.8 1.6-2.1 1.6-2.7v-29.3c0-15.4.2-28.8.6-29.7.6-1.6 4.8-1.7 47.5-1.7h46.8l23.2 30.7c12.7 17 24 31.6 25.1 32.5 1.8 1.6 4.5 1.8 24.2 1.8 23.3 0 24.6-.2 24.6-4.5 0-1.1-10.6-15.1-25-33-13.7-17.1-25-31.3-25-31.7 0-.3 1.8-.9 3.9-1.3 6.5-1.1 17.8-7.1 23.5-12.5 6.1-5.8 10.7-14.2 13.3-24.6 2.5-10 2.5-47.8 0-57.8-5-20-16.2-31.5-36.2-37.3-5.5-1.6-13.9-1.8-96.2-2.1-89.6-.3-90.2-.3-92.3 1.8zm170.5 41.1c4.1 2 5.5 3.6 7.8 8.1 2.5 4.7 3 7.1 3.4 15.9.7 12.4-1 23.5-4.1 28.1-1.2 1.8-4.2 4.4-6.6 5.8l-4.5 2.5h-124l-.3-29.1c-.1-17.9.2-30.2.8-31.8l1-2.7 60.8.3 60.8.3 4.9 2.6zm94.3-42c-1.7.9-1.8 6.8-1.8 100.9 0 89.4.2 100 1.6 101.4 2.2 2.2 38 2.4 41 .2 1.9-1.4 1.9-3.7 2.1-99.8.2-77.9 0-98.8-1-100.8l-1.3-2.5-19.4-.2c-12-.2-20.2.1-21.2.8zm113.2.5c-9.4 2-18.2 6.7-23.1 12.2-5 5.6-9.5 14.7-10.9 22.1-1.5 8.1-1.2 40.3.4 48.2 3.7 17.5 14.2 28.4 32.1 33.6 5.3 1.5 13.6 1.7 70 2.2 71.5.7 68 .3 71.1 7.6 2.2 5.3 1.9 23.9-.5 29.1-3.6 7.8 1.4 7.4-89.5 7.4-79.3 0-80.6 0-82.6 2-1.8 1.8-2 3.3-2 18.5s.2 16.7 2 18.5c2 2 3.3 2 87.8 2 53.4 0 88.1-.4 92-1 18.4-3 30-12 36-27.8 2.4-6.3 2.6-8 3-28.2.3-16.5 0-23.2-1.2-28.7-3.6-17.5-13.3-28.2-30.6-33.9-5-1.6-11.3-1.9-70.5-2.4-51.5-.4-65.5-.8-67.3-1.8-4.2-2.4-6.2-8.6-6.2-19.2 0-8 .4-10.3 2.3-14 1.2-2.5 3.3-5.1 4.7-5.7 1.9-1 20.4-1.3 79.8-1.3h77.3l2.4-2.5c2.4-2.4 2.5-2.8 2.5-18.2 0-12.7-.3-16.3-1.6-18.1l-1.5-2.2-84.7.1c-68.8 0-85.9.3-91.2 1.5z"/></svg>