<svg width="142" height="118" viewBox="0 0 142 118" fill="none" xmlns="http://www.w3.org/2000/svg">
<path d="M18.1197 91.4816C18.9373 91.4543 19.7469 91.6503 20.4616 92.0484C21.0951 92.4262 21.7173 93.165 22.3283 94.2646L34.4516 116.264C34.5078 116.353 34.545 116.453 34.5607 116.557C34.5765 116.661 34.5705 116.767 34.5432 116.869C34.4821 117.028 34.3056 117.106 34.0137 117.106H29.3606C29.1884 117.123 29.0151 117.087 28.8644 117.002C28.7137 116.917 28.593 116.787 28.5189 116.631L25.9157 111.91H8.71161L6.18649 116.631C6.10762 116.783 5.98598 116.91 5.83648 116.994C5.68697 117.078 5.5161 117.117 5.34478 117.106H0.593211C0.276439 117.106 0.0875081 117.027 0.0264164 116.869C-0.00113732 116.767 -0.00721829 116.661 0.00855994 116.557C0.0243382 116.453 0.0616278 116.353 0.118053 116.264L12.1158 94.2612C12.7267 93.1639 13.3252 92.4251 13.9112 92.045C14.5203 91.6618 15.2281 91.4648 15.9476 91.4782L18.1197 91.4816ZM11.0331 107.664H23.6282L17.8075 96.9391C17.771 96.8629 17.7137 96.7986 17.6423 96.7535C17.5708 96.7085 17.4881 96.6846 17.4036 96.6845H17.183C17.0985 96.6846 17.0158 96.7085 16.9443 96.7535C16.8729 96.7986 16.8156 96.8629 16.7791 96.9391L11.0331 107.664Z" fill="white"/>
<path d="M59.7436 91.4818C62.2574 91.4818 64.0449 91.9819 65.1061 92.982C66.1673 93.982 66.6967 95.4958 66.6945 97.5231V99.2812C66.6945 101.331 65.9138 102.881 64.3526 103.931C66.036 104.908 66.8777 106.482 66.8777 108.652V110.777C66.8858 111.667 66.7716 112.554 66.5383 113.414C66.3407 114.155 65.9709 114.838 65.459 115.409C64.9094 115.99 64.2234 116.424 63.4634 116.672C62.4701 116.989 61.4307 117.137 60.3884 117.11H38.6568C37.9237 117.11 37.5571 116.743 37.5571 116.01V92.5645C37.5571 91.8314 37.9237 91.4648 38.6568 91.4648L59.7436 91.4818ZM43.1606 102.136H58.1688C59.3883 102.136 60.2176 101.952 60.6566 101.586C60.8822 101.385 61.0589 101.136 61.173 100.856C61.2872 100.577 61.3357 100.275 61.315 99.9735V98.728C61.3417 98.4197 61.2978 98.1094 61.1867 97.8207C61.0755 97.5319 60.9 97.2723 60.6735 97.0615C60.2459 96.7085 59.5569 96.5321 58.6066 96.5321H43.6357C43.5712 96.523 43.5055 96.5291 43.4437 96.5498C43.382 96.5705 43.3259 96.6052 43.2798 96.6512C43.2337 96.6973 43.199 96.7534 43.1783 96.8152C43.1576 96.877 43.1516 96.9427 43.1606 97.0072V102.136ZM43.1606 106.127V111.571C43.1516 111.635 43.1576 111.701 43.1783 111.763C43.199 111.825 43.2337 111.881 43.2798 111.927C43.3259 111.973 43.382 112.008 43.4437 112.028C43.5055 112.049 43.5712 112.055 43.6357 112.046H58.6439C59.6191 112.046 60.3149 111.869 60.7312 111.516C61.1476 111.164 61.3546 110.598 61.3523 109.819V108.428C61.3743 108.109 61.3247 107.789 61.2073 107.491C61.0898 107.193 60.9075 106.926 60.6735 106.707C60.221 106.318 59.3849 106.122 58.1654 106.12L43.1606 106.127Z" fill="white"/>
<path d="M91.9592 91.4818C94.7649 91.4818 96.7787 92.1165 98.0005 93.3858C99.2224 94.6552 99.8322 96.5309 99.8299 99.0131V101.1C99.8299 103.2 99.4023 104.86 98.547 106.079C97.6917 107.299 96.3013 108.08 94.3758 108.421L100.634 116.193C100.698 116.268 100.741 116.358 100.76 116.454C100.779 116.55 100.773 116.65 100.743 116.743C100.693 116.988 100.497 117.11 100.156 117.11H95.4347C95.2096 117.128 94.9836 117.09 94.7762 117.001C94.6304 116.905 94.5057 116.78 94.4097 116.635L88.6399 109.019H76.8017V116.302C76.817 116.411 76.8067 116.522 76.7716 116.627C76.7366 116.732 76.6778 116.826 76.5998 116.904C76.5218 116.982 76.4269 117.041 76.3223 117.076C76.2178 117.111 76.1066 117.122 75.9974 117.106H72.0434C71.4822 117.106 71.2017 116.838 71.2017 116.302V92.5645C71.2017 91.8314 71.5682 91.4648 72.3013 91.4648L91.9592 91.4818ZM76.8017 104.552H90.8223C92.0667 104.552 92.9458 104.284 93.4594 103.748C93.973 103.211 94.2298 102.393 94.2298 101.294V99.7563C94.2298 98.6589 93.973 97.841 93.4594 97.3025C92.9458 96.764 92.0667 96.4959 90.8223 96.4981H77.2769C76.9601 96.4981 76.8017 96.6441 76.8017 96.9359V104.552Z" fill="white"/>
<path d="M109.119 91.4814C109.228 91.4662 109.339 91.4765 109.444 91.5116C109.549 91.5466 109.644 91.6054 109.721 91.6834C109.799 91.7613 109.858 91.8563 109.893 91.9608C109.928 92.0654 109.939 92.1766 109.923 92.2858V116.302C109.939 116.411 109.928 116.522 109.893 116.627C109.858 116.731 109.799 116.826 109.721 116.904C109.644 116.982 109.549 117.041 109.444 117.076C109.339 117.111 109.228 117.121 109.119 117.106H105.175C104.614 117.106 104.333 116.838 104.333 116.302V92.2858C104.333 91.7496 104.614 91.4814 105.175 91.4814H109.119Z" fill="white"/>
<path d="M140.245 91.4814C140.354 91.4662 140.466 91.4765 140.57 91.5116C140.675 91.5466 140.77 91.6054 140.848 91.6834C140.926 91.7613 140.985 91.8563 141.02 91.9608C141.055 92.0654 141.065 92.1766 141.05 92.2858V95.7646C141.065 95.8738 141.055 95.9851 141.02 96.0896C140.985 96.1942 140.926 96.2891 140.848 96.3671C140.77 96.4451 140.675 96.5039 140.57 96.5389C140.466 96.5739 140.354 96.5843 140.245 96.569H121.918C121.21 96.569 120.71 96.7523 120.418 97.1189C120.104 97.554 119.95 98.0836 119.98 98.619V99.8646C119.98 101.222 120.614 101.901 121.884 101.901H135.592C137.715 101.901 139.313 102.444 140.388 103.53C141.463 104.616 142 106.172 142 108.197V111.126C142 112.909 141.475 114.349 140.425 115.446C139.375 116.544 137.741 117.092 135.521 117.092H115.228C114.667 117.092 114.387 116.824 114.387 116.288V112.823C114.387 112.287 114.667 112.018 115.228 112.018H134.448C135.157 112.018 135.657 111.835 135.949 111.469C136.262 111.034 136.417 110.504 136.386 109.968V108.468C136.386 107.111 135.752 106.432 134.482 106.432H120.771C118.646 106.432 117.047 105.889 115.975 104.803C114.902 103.717 114.365 102.161 114.363 100.136V97.465C114.363 95.6843 114.888 94.2441 115.938 93.1445C116.987 92.0448 118.622 91.4961 120.842 91.4984L140.245 91.4814Z" fill="white"/>
<path d="M109.934 38.3723C109.934 52.739 93.7308 64.3872 73.7403 64.3872C53.7497 64.3872 37.5469 52.739 37.5469 38.3723C37.5469 24.0056 53.7497 12.3574 73.7403 12.3574C93.7308 12.3574 109.934 24.0056 109.934 38.3723ZM70.6755 16.0569C52.9182 16.0569 38.5243 26.473 38.5243 39.3226C38.5243 52.1722 52.9182 62.5883 70.6755 62.5883C88.4328 62.5883 102.827 52.1722 102.827 39.3226C102.827 26.473 88.4159 16.0569 70.6755 16.0569Z" fill="white"/>
<path d="M39.2878 51.585C41.7288 55.9587 45.1286 59.7229 49.2322 62.595C53.3441 65.3987 57.951 67.3958 62.8081 68.4802C65.2305 69.052 67.6906 69.4501 70.1697 69.6715C72.6517 69.9009 75.1439 70.004 77.6364 69.9803C82.6488 69.888 87.6493 69.4583 92.6039 68.694C91.3753 68.9588 90.1534 69.2574 88.9112 69.4611L87.0547 69.8005L85.188 70.0889C82.6905 70.4408 80.177 70.6674 77.6568 70.7677C75.1299 70.868 72.5993 70.8204 70.078 70.6252C67.552 70.4302 65.0438 70.0491 62.5739 69.4848C60.0988 68.9045 57.6823 68.0979 55.3549 67.0751C53.0274 66.045 50.8195 64.7635 48.7706 63.2535C46.7278 61.7361 44.8819 59.97 43.2758 57.9962C42.8753 57.5075 42.5053 56.978 42.1286 56.4859C41.7519 55.9937 41.4023 55.4677 41.0833 54.9077C40.4129 53.8405 39.8132 52.7305 39.2878 51.585Z" fill="white"/>
<path d="M47.6202 46.5213C47.6202 23.4965 55.3177 4.82964 64.8107 4.82964C74.3036 4.82964 82.0012 23.4965 82.0012 46.5213C82.0012 49.2365 81.8926 51.9109 81.6856 54.4904C82.3134 50.2532 82.6253 45.9751 82.6189 41.6917C82.6189 18.6669 73.9201 0 63.1884 0C52.4566 0 43.7578 18.6669 43.7578 41.6917C43.7578 57.0698 47.6405 70.5032 53.4137 77.729C49.8602 70.0925 47.6202 58.9433 47.6202 46.5213Z" fill="white"/>
<path d="M69.07 16.0878C69.3857 15.1714 69.6911 14.2211 70.0475 13.2368C70.1392 12.9789 70.2376 12.7277 70.3394 12.4766C51.9542 13.7154 37.5637 24.834 37.5637 38.3726C37.568 40.4193 37.9003 42.4521 38.548 44.3936C38.74 44.2237 38.952 44.0778 39.1793 43.9591C38.7503 42.4509 38.5299 40.891 38.5242 39.323C38.5242 26.867 52.0492 16.6987 69.07 16.0878Z" fill="white"/>
</svg>
