<svg width="151" height="36" viewBox="0 0 151 36" fill="none" xmlns="http://www.w3.org/2000/svg">
<g clip-path="url(#clip0)">
<path d="M150.728 1.59314C150.209 0.844266 149.594 0.318463 147.018 0.133635C146.345 0.0826483 144.115 0.00935449 140.363 0.00935449C130.507 0.00935449 123.811 2.98253 120.379 8.8556C121.325 2.95173 115.534 -0.000205565 103.004 -0.000205565C88.2864 -0.000205565 79.1015 5.89304 75.4489 17.6795C74.0882 22.0623 73.9451 25.6558 75.0196 28.4601L71.5336 28.68C68.8197 28.8871 65.2472 29.0688 63.0589 29.0688C57.674 29.0688 54.3343 28.1701 53.0398 26.3728C51.88 24.7603 51.9953 21.7649 53.3602 17.3959C55.6031 10.159 61.1717 6.90216 70.0661 6.90216C74.6767 6.90216 79.1624 7.38335 79.1656 7.38335C79.784 7.34511 80.0563 6.70458 79.989 6.17559L79.8993 5.48408L79.5789 3.05264C79.3653 1.45505 78.1691 0.508602 75.9904 0.213302C73.9943 0.0794616 72.5076 -0.00976562 70.3192 -0.00976562H70.1975C58.5732 0.0157279 50.4723 3.81107 45.8948 11.3763C47.5716 3.79195 42.1888 -0.000205565 29.7465 -0.000205565C22.8279 -0.000205565 17.8648 0.194182 14.8573 0.582958C12.5504 0.867635 11.1428 1.81727 10.6344 3.43186L9.65074 6.558C9.47132 7.1316 9.75007 7.41521 10.487 7.41521H10.5094C11.0573 7.34511 13.1624 7.14116 16.7605 6.85436C21.5196 6.4762 25.0558 6.28713 27.3691 6.28713C34.2193 6.28713 37.103 7.992 36.02 11.4018C35.9202 11.7577 35.7215 12.0785 35.4466 12.3271C35.1717 12.5757 34.8318 12.7421 34.466 12.8071C27.9875 13.8693 22.845 14.6373 19.0386 15.1111C8.33708 16.4622 2.15436 19.7785 0.490393 25.0599C-1.79515 32.3213 3.92833 35.9531 17.6608 35.9552C24.5089 35.9552 30.257 35.5632 34.905 34.7793C37.5836 34.3332 38.9389 33.6512 39.4771 31.9368L42.0404 23.8426C41.7744 31.9304 47.4872 36.003 59.1628 36.003C64.2219 36.003 69.0184 35.8373 71.2804 35.4453C73.6771 35.031 74.8209 34.5148 75.3496 32.7175L75.8686 30.1682C78.3571 34.0283 83.8178 35.9584 92.2509 35.9584C101.143 35.9584 106.329 35.7109 107.81 35.2159C109.05 34.8239 109.815 34.1866 110.088 33.3039C110.139 33.1384 110.175 32.9688 110.197 32.7972L111.264 29.3619C111.449 28.766 111.171 28.4792 110.44 28.5047L104.747 28.7756C100.947 28.988 97.9733 29.0942 95.8266 29.0942C91.7852 29.0942 89.0084 28.8202 87.4961 28.2721C85.2468 27.4223 84.1788 25.7036 84.292 23.116L102.321 20.8184C110.387 19.7817 115.788 17.3035 118.524 13.3839L112.414 34.5435C112.352 34.7009 112.331 34.8716 112.355 35.0391C112.378 35.2066 112.445 35.3652 112.548 35.4995C112.776 35.764 113.167 35.8914 113.744 35.8914H121.206C122.51 35.8914 122.974 35.2222 123.128 34.6614L129.732 11.8256C130.6 8.82054 133.378 7.36423 138.229 7.36423C142.606 7.36423 145.919 7.40247 148.014 7.47895H148.177C148.523 7.4811 148.859 7.37026 149.135 7.16352C149.41 6.95678 149.61 6.66563 149.703 6.33493L150.862 3.18648C150.975 2.93064 151.021 2.65104 150.998 2.3729C150.974 2.09475 150.881 1.82678 150.728 1.59314ZM30.4385 29.0815C28.1167 29.4512 24.7717 29.636 20.4035 29.636C12.8206 29.636 9.50976 28.1138 10.471 25.0695C11.1598 22.8866 13.1463 21.5641 16.4497 21.1275L33.6939 18.8012L30.4385 29.0815ZM110.184 10.5764C109.458 12.9133 106.085 14.5152 100.066 15.3819L85.6954 17.4118L86.0575 16.2519C87.2472 12.4024 88.9368 9.77974 91.1263 8.38397C93.3157 6.9882 96.8722 6.29138 101.796 6.2935C108.279 6.285 111.075 7.71264 110.184 10.5764Z" fill="#83B81A"/>
</g>
<defs>
<clipPath id="clip0">
<rect width="151" height="36" fill="white"/>
</clipPath>
</defs>
</svg>
