<svg width="150" height="39" viewBox="0 0 150 39" fill="none" xmlns="http://www.w3.org/2000/svg">
<g clip-path="url(#clip0)">
<path fill-rule="evenodd" clip-rule="evenodd" d="M25.6641 38.5351L20.581 29.6127H38.9652L29.737 10.3886L16.1954 38.5351H0L21.2064 0.536133H38.2597L59.3057 38.5351H25.6641Z" fill="#ED174C"/>
<path fill-rule="evenodd" clip-rule="evenodd" d="M59.3857 16.4577H79.5738C84.6569 16.4577 86.6934 16.1503 86.6934 12.6113C86.6934 9.22995 85.0899 8.84373 79.8063 8.84373H59.3296L54.7676 0.536133H83.2459C96.7073 0.536133 101.686 6.30574 101.686 12.4616C101.686 18.3809 97.0681 24.923 82.2837 24.923H75.5811V38.5351H59.3296V16.4656L59.3857 16.4577Z" fill="#ED174C"/>
<path fill-rule="evenodd" clip-rule="evenodd" d="M143.891 35.6894C139.04 37.92 133.011 38.9999 126.597 38.9999C107.194 38.9999 100.54 28.3829 100.54 19.6181C100.548 8.53605 110.401 -0.000122483 127.383 -0.000122483C132.876 -0.0937623 138.342 0.792856 143.514 2.61669V13.6515C139.393 11.3333 134.728 10.1134 129.98 10.1124C121.842 10.1124 115.188 13.7303 115.188 19.4999C115.188 25.2695 121.987 28.8479 130.124 28.8479C134.823 28.8479 138.655 27.9257 143.899 25.5375V35.6894H143.891Z" fill="#ED174C"/>
<path fill-rule="evenodd" clip-rule="evenodd" d="M145.005 5.26486C145.001 4.78008 145.142 4.30479 145.412 3.89912C145.682 3.49344 146.068 3.1756 146.522 2.98577C146.976 2.79594 147.477 2.74265 147.961 2.83265C148.446 2.92264 148.893 3.15188 149.245 3.49137C149.597 3.83086 149.838 4.26535 149.939 4.73991C150.04 5.21447 149.996 5.70778 149.811 6.15746C149.627 6.60714 149.311 6.99299 148.904 7.26623C148.497 7.53947 148.016 7.68781 147.523 7.69251C147.195 7.69775 146.87 7.63878 146.567 7.51903C146.263 7.39928 145.986 7.22116 145.753 6.9951C145.521 6.76905 145.336 6.49959 145.21 6.20249C145.084 5.9054 145.02 5.58664 145.021 5.26486H145.005ZM147.523 7.29053C147.791 7.29177 148.056 7.23974 148.303 7.13757C148.55 7.03541 148.774 6.88521 148.96 6.696C149.147 6.5068 149.292 6.28249 149.388 6.03656C149.484 5.79062 149.529 5.52813 149.519 5.26486C149.519 4.74226 149.308 4.24105 148.932 3.87152C148.556 3.50198 148.046 3.29437 147.515 3.29437C146.983 3.29437 146.473 3.50198 146.097 3.87152C145.722 4.24105 145.51 4.74226 145.51 5.26486C145.501 5.52947 145.546 5.79328 145.643 6.04028C145.74 6.28727 145.887 6.51231 146.075 6.70174C146.263 6.89117 146.488 7.04104 146.737 7.14225C146.986 7.24346 147.253 7.29391 147.523 7.29053ZM147.002 6.66786H146.569V3.87764H147.651C148.325 3.87764 148.653 4.12198 148.653 4.66583C148.662 4.76623 148.65 4.86734 148.617 4.96273C148.584 5.05812 148.531 5.14569 148.461 5.21986C148.392 5.29402 148.307 5.35315 148.214 5.39347C148.12 5.43379 148.018 5.45441 147.916 5.45403L148.717 6.68362H148.236L147.491 5.4698H146.994V6.66786L147.507 5.09146C147.876 5.09146 148.196 5.09146 148.196 4.63431C148.196 4.17715 147.876 4.22444 147.579 4.22444H146.994V5.09146H147.523L147.01 6.66786H147.002Z" fill="#231F20"/>
</g>
<defs>
<clipPath id="clip0">
<rect width="150" height="39" fill="white"/>
</clipPath>
</defs>
</svg>
