<svg width="150" height="54" viewBox="0 0 150 54" fill="none" xmlns="http://www.w3.org/2000/svg">
<g clip-path="url(#clip0)">
<path fill-rule="evenodd" clip-rule="evenodd" d="M62.7774 9.14258H70.1615L70.2497 9.2308V41.3116L70.1615 41.3998H62.7774C62.754 41.3998 62.7316 41.3905 62.715 41.374C62.6985 41.3574 62.6892 41.335 62.6892 41.3116V9.2308C62.6892 9.2074 62.6985 9.18496 62.715 9.16842C62.7316 9.15187 62.754 9.14258 62.7774 9.14258Z" fill="#302D2D"/>
<path fill-rule="evenodd" clip-rule="evenodd" d="M60.3161 9.14258C60.3282 9.15384 60.3379 9.16749 60.3445 9.18267C60.3512 9.19785 60.3546 9.21424 60.3546 9.2308C60.3546 9.24737 60.3512 9.26375 60.3445 9.27893C60.3379 9.29411 60.3282 9.30776 60.3161 9.31902L50.5587 25.1509C50.5146 25.216 50.491 25.2928 50.491 25.3715C50.491 25.4501 50.5146 25.5269 50.5587 25.592L60.4043 41.2474C60.4164 41.2587 60.4261 41.2723 60.4327 41.2875C60.4394 41.3027 60.4428 41.3191 60.4428 41.3357C60.4428 41.3522 60.4394 41.3686 60.4327 41.3838C60.4261 41.399 60.4164 41.4126 60.4043 41.4239H51.2563C51.1681 41.4239 51.0799 41.3357 50.9917 41.3357L45.1068 31.6633C45.0186 31.5751 45.0186 31.5751 44.9304 31.6633L39.3903 41.2875C39.3021 41.3758 39.2139 41.464 39.1257 41.464H30.5951C30.4187 41.464 30.4187 41.3758 30.5069 41.3758L40.5288 24.7499C40.5703 24.7193 40.6039 24.6794 40.6272 24.6335C40.6504 24.5875 40.6625 24.5367 40.6625 24.4852C40.6625 24.4337 40.6504 24.3829 40.6272 24.337C40.6039 24.291 40.5703 24.2511 40.5288 24.2206L31.7095 9.35912C31.6974 9.34786 31.6877 9.33421 31.6811 9.31903C31.6745 9.30385 31.671 9.28747 31.671 9.2709C31.671 9.25434 31.6745 9.23795 31.6811 9.22277C31.6877 9.20759 31.6974 9.19394 31.7095 9.18268H40.617C40.6626 9.18634 40.7053 9.20611 40.7377 9.23844C40.77 9.27077 40.7897 9.31355 40.7934 9.35912L46.1571 18.3337C46.2453 18.4219 46.2453 18.4219 46.3335 18.3337L51.8736 9.31902C51.8773 9.27345 51.897 9.23067 51.9294 9.19834C51.9617 9.16601 52.0044 9.14624 52.05 9.14258H60.3161Z" fill="#302D2D"/>
<path fill-rule="evenodd" clip-rule="evenodd" d="M123.446 0L150 41.4243H126.958L118.259 27.8782H117.2L116.583 26.9158H106.208L123.446 0Z" fill="#FCDE00"/>
<path fill-rule="evenodd" clip-rule="evenodd" d="M121.77 25.5928L131.977 41.4246H99.5298L109.728 25.5928H121.77Z" fill="#231F20"/>
<path fill-rule="evenodd" clip-rule="evenodd" d="M119.132 25.5928L129.339 41.4246H96.8918L107.09 25.5928H119.132Z" fill="#C9493F"/>
<path fill-rule="evenodd" clip-rule="evenodd" d="M27.6926 9.14258H20.8456C20.8 9.14624 20.7573 9.16601 20.7249 9.19834C20.6926 9.23067 20.6729 9.27345 20.6692 9.31902L0 41.3357C0 41.3591 0.00929172 41.3815 0.0258311 41.398C0.0423705 41.4146 0.0648026 41.4239 0.0881929 41.4239H8.44246C8.53065 41.4239 8.61885 41.4239 8.61885 41.3357L11.433 36.9406C11.5212 36.9406 11.5212 36.8524 11.6094 36.8524H20.4287C20.4521 36.8524 20.4745 36.8617 20.491 36.8782C20.5076 36.8947 20.5169 36.9172 20.5169 36.9406V41.2474C20.5169 41.3357 20.5169 41.4239 20.6051 41.4239H27.8208L27.909 41.3357V9.31902C27.9054 9.27345 27.8856 9.23067 27.8533 9.19834C27.821 9.16601 27.7782 9.14624 27.7326 9.14258H27.6926ZM20.4768 30.5164V30.6046H15.0249C14.9367 30.6046 14.9367 30.6046 14.9367 30.5164L20.7414 21.2852L20.4768 30.5164Z" fill="#302D2D"/>
<path fill-rule="evenodd" clip-rule="evenodd" d="M74.5631 41.4242H84.3204C85.5424 41.3546 86.7527 41.1475 87.9283 40.8066C92.4101 39.4031 94.7833 34.9118 94.7833 31.1343C94.7833 25.063 90.0369 22.9537 84.4086 20.5797C83.4385 20.1386 82.2118 19.521 82.2118 18.1737C82.2118 16.8263 83.5267 16.1526 84.9378 16.1526H92.5865C92.6747 16.1526 92.6747 16.1526 92.6747 16.0643V9.14291C92.6747 9.05469 92.6747 9.05469 92.5865 9.05469H84.569C77.8904 9.05469 73.9297 13.0086 73.9297 18.5506C73.9297 23.3627 77.0084 25.7688 81.4902 27.6134C84.6571 28.8485 86.6776 29.3698 86.6776 31.9203C86.7107 32.26 86.6712 32.6029 86.5616 32.9262C86.4521 33.2495 86.275 33.5457 86.0422 33.7953C85.8094 34.0449 85.5262 34.242 85.2114 34.3737C84.8965 34.5054 84.5573 34.5685 84.2162 34.5589H74.5631V41.328C74.5631 41.4162 74.6513 41.4162 74.5631 41.4162V41.4242Z" fill="#302D2D"/>
<path fill-rule="evenodd" clip-rule="evenodd" d="M98.9122 8.97471C98.2263 9.01224 97.5808 9.31125 97.1085 9.81025C96.6363 10.3092 96.373 10.9703 96.373 11.6575C96.373 12.3446 96.6363 13.0057 97.1085 13.5047C97.5808 14.0037 98.2263 14.3027 98.9122 14.3402C99.2767 14.3602 99.6415 14.3056 99.9842 14.1798C100.327 14.054 100.64 13.8596 100.906 13.6085C101.171 13.3574 101.382 13.0549 101.526 12.7195C101.67 12.384 101.745 12.0227 101.745 11.6575C101.745 11.2923 101.67 10.9309 101.526 10.5955C101.382 10.26 101.171 9.95753 100.906 9.70645C100.64 9.45537 100.327 9.26099 99.9842 9.13518C99.6415 9.00937 99.2767 8.95477 98.9122 8.97471ZM98.9122 14.0756C98.2743 14.0756 97.6625 13.8221 97.2115 13.3708C96.7604 12.9196 96.507 12.3076 96.507 11.6695C96.507 11.0314 96.7604 10.4194 97.2115 9.96816C97.6625 9.51694 98.2743 9.26344 98.9122 9.26344C99.2281 9.26344 99.5409 9.32568 99.8327 9.44659C100.124 9.56751 100.39 9.74474 100.613 9.96816C100.836 10.1916 101.014 10.4568 101.134 10.7487C101.255 11.0407 101.317 11.3535 101.317 11.6695C101.317 11.9855 101.255 12.2983 101.134 12.5903C101.014 12.8822 100.836 13.1474 100.613 13.3708C100.39 13.5943 100.124 13.7715 99.8327 13.8924C99.5409 14.0133 99.2281 14.0756 98.9122 14.0756Z" fill="#302D2D"/>
<path fill-rule="evenodd" clip-rule="evenodd" d="M100.219 13.1931L99.6019 11.7895C99.7649 11.7309 99.9045 11.6211 99.9999 11.4766C100.095 11.332 100.141 11.1604 100.131 10.9875C100.138 10.8494 100.109 10.7119 100.047 10.5882C99.9856 10.4646 99.8929 10.359 99.7783 10.2817C99.6781 10.2072 99.5642 10.1533 99.4432 10.123C99.3221 10.0927 99.1962 10.0867 99.0728 10.1053H97.9263V13.185H98.279V11.8697H99.161L99.7783 13.185L100.219 13.1931ZM98.2871 11.5249V10.378H99.0888C99.2652 10.378 99.4416 10.378 99.5298 10.5544C99.6177 10.5866 99.6919 10.6479 99.74 10.7282C99.7882 10.8084 99.8074 10.9028 99.7943 10.9955C99.7725 11.1283 99.711 11.2513 99.6179 11.3484C99.5484 11.4153 99.4648 11.4658 99.3733 11.4964C99.2817 11.5269 99.1846 11.5366 99.0888 11.5249H98.2871Z" fill="#302D2D"/>
<path fill-rule="evenodd" clip-rule="evenodd" d="M6.51061 53.3901C5.72742 53.8104 4.84967 54.023 3.96103 54.0076C1.41146 54.0076 0.176758 52.4036 0.176758 50.8397C0.176758 49.2757 1.60388 47.5835 4.00914 47.5835C4.8442 47.5476 5.67393 47.733 6.4144 48.1208V49.5244C5.74012 49.1526 4.98716 48.9464 4.21759 48.9228C2.81453 48.9228 1.81233 49.7249 1.81233 50.8557C1.81233 51.9866 2.78246 52.7004 4.09733 52.7004C4.9381 52.6989 5.76508 52.4866 6.50259 52.0828V53.3981L6.51061 53.3901Z" fill="#302D2D"/>
<path fill-rule="evenodd" clip-rule="evenodd" d="M15.7381 54.0005C13.3328 54.0005 12.042 52.3964 12.042 50.8325C12.042 49.2685 13.3569 47.5763 15.7381 47.5763C16.1964 47.538 16.6578 47.5928 17.0944 47.7373C17.5311 47.8818 17.9341 48.113 18.2793 48.417C18.6244 48.7211 18.9046 49.0918 19.1031 49.5069C19.3015 49.9219 19.4142 50.3728 19.4342 50.8325C19.4342 52.4365 18.1193 54.0005 15.7381 54.0005ZM15.7381 48.8996C15.4748 48.8779 15.2098 48.9122 14.9608 49.0005C14.7117 49.0887 14.4842 49.2288 14.2933 49.4115C14.1023 49.5941 13.9523 49.8152 13.8531 50.0602C13.7538 50.3051 13.7077 50.5684 13.7177 50.8325C13.71 51.0922 13.7585 51.3505 13.8598 51.5897C13.9611 51.8289 14.1129 52.0434 14.3047 52.2186C14.4966 52.3937 14.7239 52.5254 14.9713 52.6045C15.2187 52.6836 15.4802 52.7084 15.7381 52.6771C15.9959 52.7084 16.2575 52.6836 16.5048 52.6045C16.7522 52.5254 16.9796 52.3937 17.1714 52.2186C17.3633 52.0434 17.515 51.8289 17.6163 51.5897C17.7177 51.3505 17.7662 51.0922 17.7585 50.8325C17.765 50.5704 17.7163 50.3098 17.6155 50.0677C17.5148 49.8257 17.3642 49.6076 17.1737 49.4275C16.9831 49.2475 16.7568 49.1096 16.5095 49.0228C16.2621 48.936 15.9993 48.9022 15.7381 48.9237V48.8996Z" fill="#302D2D"/>
<path fill-rule="evenodd" clip-rule="evenodd" d="M30.595 47.6719H31.9179V53.9116H30.3305V50.0459L28.5746 51.9787H28.3982L26.6424 50.0459V53.9116H25.0549V47.6719H26.3778L28.4864 50.0459L30.595 47.6719Z" fill="#302D2D"/>
<path fill-rule="evenodd" clip-rule="evenodd" d="M43.7833 47.6719H45.1944V53.9116H43.6069V50.0459L41.8511 51.9787H41.5865L39.8306 50.0459V53.9116H38.2432V47.6719H39.6542L41.7629 50.0459L43.7833 47.6719Z" fill="#302D2D"/>
<path fill-rule="evenodd" clip-rule="evenodd" d="M57.5019 47.6719V51.281C57.5019 53.3021 56.0106 54.0078 54.2468 54.0078C52.4829 54.0078 51.0798 53.2058 51.0798 51.281V47.6719H52.6833V51.281C52.6864 51.4818 52.7316 51.6798 52.816 51.8621C52.9004 52.0444 53.0221 52.2069 53.1733 52.3392C53.3244 52.4715 53.5016 52.5706 53.6934 52.6301C53.8852 52.6895 54.0874 52.7081 54.2868 52.6845C55.1688 52.6845 55.9545 52.3316 55.9545 51.1927V47.6719H57.5019Z" fill="#302D2D"/>
<path fill-rule="evenodd" clip-rule="evenodd" d="M69.8972 53.9116H68.5824L64.9745 49.9576V53.9116H63.395V47.6719H64.8863L68.3178 51.5376V47.6719H69.8972V53.9116Z" fill="#302D2D"/>
<path fill-rule="evenodd" clip-rule="evenodd" d="M76.0542 53.9116H77.6337V47.6719H76.0542V53.9116Z" fill="#302D2D"/>
<path fill-rule="evenodd" clip-rule="evenodd" d="M89.2433 53.3907C88.4601 53.811 87.5823 54.0236 86.6937 54.0083C84.2323 54.0083 82.9094 52.4042 82.9094 50.8403C82.9094 49.2764 84.3125 47.5841 86.7819 47.5841C87.6162 47.5458 88.4459 47.7284 89.1871 48.1134V49.517C88.5143 49.1396 87.7612 48.9279 86.9903 48.8994C85.5873 48.8994 84.5851 49.7014 84.5851 50.8323C84.5851 51.9631 85.5552 52.6769 86.8701 52.6769C87.7108 52.6755 88.5378 52.4632 89.2753 52.0594V53.3747L89.2433 53.3907Z" fill="#302D2D"/>
<path fill-rule="evenodd" clip-rule="evenodd" d="M100.756 53.9118H99.0885L98.5594 52.6767H95.657L95.1279 53.9118H93.4602L96.0098 47.6641H97.942L100.756 53.9118ZM97.012 49.1638L96.1301 51.626H98.0623L97.012 49.1638Z" fill="#302D2D"/>
<path fill-rule="evenodd" clip-rule="evenodd" d="M110.169 48.8107H107.884V53.9116H106.208V48.8107H103.923V47.6719H110.169V48.8107Z" fill="#302D2D"/>
<path fill-rule="evenodd" clip-rule="evenodd" d="M115.092 53.9116H116.671V47.6719H115.092V53.9116Z" fill="#302D2D"/>
<path fill-rule="evenodd" clip-rule="evenodd" d="M125.29 54.0002C122.885 54.0002 121.594 52.3962 121.594 50.8323C121.594 49.2683 122.828 47.576 125.29 47.576C125.747 47.5456 126.205 47.6058 126.638 47.7532C127.072 47.9006 127.472 48.1323 127.815 48.435C128.159 48.7376 128.439 49.1052 128.64 49.5166C128.841 49.9281 128.958 50.3752 128.986 50.8323C128.986 52.4363 127.583 54.0002 125.29 54.0002ZM125.29 48.8994C125.027 48.8776 124.762 48.912 124.513 49.0002C124.263 49.0885 124.036 49.2286 123.845 49.4112C123.654 49.5939 123.504 49.815 123.405 50.06C123.306 50.3049 123.259 50.5681 123.269 50.8323C123.344 51.3107 123.587 51.7467 123.954 52.0617C124.322 52.3767 124.79 52.5498 125.274 52.5498C125.758 52.5498 126.226 52.3767 126.593 52.0617C126.961 51.7467 127.204 51.3107 127.278 50.8323C127.284 50.573 127.236 50.3154 127.138 50.0757C127.039 49.836 126.891 49.6195 126.704 49.44C126.517 49.2604 126.295 49.1218 126.051 49.0329C125.808 48.9439 125.548 48.9067 125.29 48.9234V48.8994Z" fill="#302D2D"/>
<path fill-rule="evenodd" clip-rule="evenodd" d="M140.235 53.9116H138.92L135.312 49.9576V53.9116H133.732V47.6719H135.224L138.655 51.5376V47.6719H140.235V53.9116Z" fill="#302D2D"/>
<path fill-rule="evenodd" clip-rule="evenodd" d="M149.648 49.3402C149 48.9778 148.279 48.7667 147.539 48.7226C147.01 48.7226 146.657 48.9873 146.657 49.252C146.657 50.2224 149.912 49.9578 149.912 52.1553C149.912 53.3022 148.854 53.9999 147.451 53.9999C146.607 54.0244 145.773 53.8103 145.045 53.3824V52.0671C145.673 52.5632 146.443 52.8444 147.242 52.8691C147.86 52.8691 148.212 52.6927 148.212 52.3398C148.212 51.2811 144.957 51.634 144.957 49.4364C144.957 48.2896 145.927 47.5918 147.419 47.5918C148.179 47.6192 148.926 47.7992 149.615 48.1211V49.3562L149.648 49.3402Z" fill="#302D2D"/>
</g>
<defs>
<clipPath id="clip0">
<rect width="150" height="54" fill="white"/>
</clipPath>
</defs>
</svg>
