<svg width="280" height="42" viewBox="0 0 280 42" fill="none" xmlns="http://www.w3.org/2000/svg">
<g clip-path="url(#clip0)">
<path d="M31.273 7.33357H47C47.2406 7.32441 47.4814 7.33019 47.7213 7.35089C48.4257 7.44038 48.7723 7.96862 48.5152 8.65852C48.1126 9.72945 47.6514 10.7773 47.2125 11.8338C47.0056 12.3332 46.5947 12.4111 46.1279 12.3967C42.5237 12.3967 38.9194 12.3967 35.3152 12.3967C32.2403 12.3967 29.1653 12.4169 26.0764 12.3967C24.2789 12.3793 23.0825 13.1414 22.3724 14.9022C20.0355 20.6754 17.637 26.4486 15.2637 32.2218C14.6431 33.7315 14.931 35.2037 16.0129 36.1649C16.6075 36.6716 17.3647 36.9292 18.1346 36.8866C23.6602 36.875 29.1867 36.875 34.7142 36.8866C36.4977 36.8866 36.7632 37.2964 36.0812 38.9736C35.7765 39.7212 35.4466 40.4602 35.1587 41.2164C35.0823 41.4658 34.9262 41.6809 34.7159 41.8267C34.5057 41.9725 34.2538 42.0403 34.0014 42.0189H33.7386C24.6535 42.0189 15.5684 42.0334 6.4805 42.0189C4.96135 42.0353 3.48627 41.4922 2.31979 40.4871C1.15332 39.482 0.371778 38.0807 0.115334 36.5344C-0.130041 35.1945 0.0249737 33.8092 0.559805 32.5624C3.43908 25.5942 6.31277 18.6231 9.18087 11.649C10.3633 8.78553 12.5046 7.36244 15.4817 7.34223C20.7455 7.30759 25.9981 7.33357 31.273 7.33357Z" fill="#E64011"/>
<path d="M40.4926 34.5533H24.8802C24.575 34.5663 24.2693 34.544 23.9689 34.4869C23.8363 34.4698 23.7096 34.4202 23.5993 34.3422C23.489 34.2643 23.3984 34.1603 23.3349 34.0388C23.2715 33.9174 23.2371 33.782 23.2345 33.6441C23.232 33.5061 23.2614 33.3695 23.3204 33.2457C23.7313 32.1776 24.1841 31.1269 24.623 30.0704C24.6971 29.88 24.825 29.7171 24.99 29.6028C25.1551 29.4885 25.3496 29.4281 25.5483 29.4296C25.8111 29.4152 26.071 29.4296 26.3338 29.4296H45.9968C47.8697 29.4296 48.7279 28.8205 49.4575 27.0366C51.7889 21.3442 54.0671 15.6288 56.4963 9.98258C57.6536 7.28938 55.8031 4.98877 53.2704 5.04938C47.7663 5.17928 42.2593 5.0898 36.7551 5.0898C35.4133 5.0898 35.0779 4.58464 35.6174 3.32608C35.9668 2.50052 36.3134 1.69804 36.6209 0.866703C36.699 0.597628 36.8645 0.364575 37.0896 0.206829C37.3147 0.0490825 37.5855 -0.0237095 37.8565 0.000723432C47.1205 0.000723432 56.3845 -0.0165962 65.6457 0.0209296C70.0457 0.0382492 73.0061 4.86464 71.3232 9.2032C70.5992 11.0651 69.8109 12.9009 69.0505 14.7484C66.8925 20.002 64.7736 25.27 62.5624 30.5005C61.3883 33.2774 59.1576 34.5273 56.2839 34.5418C51.0229 34.5735 45.7592 34.5533 40.4926 34.5533Z" fill="#0D4594"/>
<path d="M207.605 33.4047C206.839 33.6934 206.137 33.982 205.413 34.213C201.631 35.3676 197.893 35.2897 194.304 33.5086C190.111 31.4303 188.316 27.0542 189.831 22.5136C190.67 20.0138 191.788 17.641 193.555 15.6521C195.626 13.3024 198.229 11.8996 201.2 11.2154C205.525 10.2196 209.83 10.3004 214.059 11.7004C215.929 12.3181 217.559 13.3457 218.619 15.1383C218.951 15.6579 219.174 16.2432 219.275 16.857C219.377 17.4708 219.353 18.0995 219.206 18.7033C219.198 18.792 219.174 18.8783 219.133 18.957C219.093 19.0356 219.038 19.105 218.97 19.1609C218.903 19.2167 218.826 19.2579 218.743 19.282C218.66 19.306 218.573 19.3124 218.487 19.3008C216.695 19.2835 214.904 19.3008 213.114 19.3008C212.759 19.3008 212.5 19.2459 212.631 18.7668C212.661 18.6098 212.651 18.4474 212.602 18.2956C212.553 18.1438 212.467 18.0078 212.351 17.9008C211.998 17.4344 211.524 17.0811 210.984 16.8818C206.965 15.5626 203.026 15.655 199.417 18.0826C197.225 19.5577 196.096 21.8872 195.707 24.5284C195.428 26.4191 196.376 27.9 198.165 28.6967C200.054 29.5396 202.042 29.5078 204.035 29.3259C205.3 29.2168 206.541 28.9102 207.717 28.4167C208.533 28.0703 209.302 27.6344 209.791 26.8377C210.16 26.2373 210.07 26.0612 209.366 26.0612C206.285 26.0612 203.205 26.0612 200.124 26.0612C199.068 26.0612 199.065 26.0612 199.478 25.0913C199.912 24.081 200.367 23.0707 200.778 22.0604C200.845 21.8583 200.976 21.6857 201.15 21.5712C201.325 21.4567 201.532 21.4073 201.737 21.4311C206.937 21.4311 212.136 21.4311 217.336 21.4311C218.023 21.4311 218.068 21.5235 217.788 22.1758C216.136 26.0323 214.473 29.8831 212.843 33.7511C212.589 34.3515 212.27 34.6171 211.616 34.5853C210.481 34.5334 209.343 34.5853 208.209 34.568C207.415 34.568 207.406 34.5478 207.574 33.7193C207.59 33.6152 207.6 33.5101 207.605 33.4047Z" fill="#0D4594"/>
<path d="M175.528 11.102C177.82 11.102 180.115 11.0703 182.407 11.102C185.359 11.1511 188.088 13.7 188.331 16.5866C188.456 18.2276 188.111 19.8703 187.341 21.3112C186.57 22.752 185.407 23.9276 183.995 24.6921C182.452 25.4993 180.761 25.9625 179.033 26.0517C178.815 26.0662 178.597 26.0517 178.379 26.0719C177.761 26.1239 177.686 26.2509 177.974 26.8196C179.105 29.0576 180.242 31.2928 181.384 33.5251C181.454 33.6637 181.529 33.8138 181.605 33.9408C181.831 34.3594 181.731 34.5701 181.25 34.5701C179.458 34.5701 177.669 34.5701 175.877 34.5701C175.41 34.5701 175.237 34.2814 175.064 33.9235C173.946 31.5767 172.799 29.2443 171.709 26.886C171.63 26.6425 171.469 26.4358 171.257 26.3027C171.044 26.1696 170.792 26.1185 170.546 26.1585C169.849 26.2037 169.15 26.2037 168.453 26.1585C167.893 26.1239 167.631 26.3635 167.421 26.8658C166.434 29.2241 165.406 31.5651 164.422 33.9264C164.364 34.1297 164.239 34.3056 164.068 34.4232C163.897 34.5409 163.692 34.5929 163.488 34.5701C161.827 34.547 160.17 34.5701 158.509 34.5701C157.771 34.5701 157.738 34.5152 158.045 33.7994C161.213 26.4231 164.381 19.0469 167.55 11.6707C167.612 11.4817 167.737 11.3209 167.901 11.2157C168.066 11.1104 168.261 11.0672 168.453 11.0934C170.812 11.1078 173.168 11.0934 175.528 11.0934V11.102ZM174.742 21.4245H178.608C180.417 21.4101 181.599 20.3449 181.873 18.4917C182.075 17.1235 181.465 16.3326 180.14 16.321C177.608 16.3008 175.072 16.321 172.539 16.321C172.378 16.298 172.214 16.3338 172.075 16.4223C171.936 16.5108 171.831 16.6465 171.779 16.806C171.235 18.153 170.676 19.5001 170.102 20.8472C169.909 21.3004 170.007 21.4476 170.482 21.4418C171.899 21.4159 173.317 21.4274 174.739 21.4274L174.742 21.4245Z" fill="#0D4594"/>
<path d="M231.959 34.9627C229.521 34.9021 227.123 34.6307 224.889 33.5194C221.814 31.9751 220.112 29.4377 219.804 25.9478C219.626 23.9272 220.271 22.0336 221.088 20.2122C223.704 14.3668 228.216 11.3474 234.329 10.7037C237.178 10.4151 239.957 10.7037 242.615 11.8584C246.104 13.3738 248.248 16.7107 248.094 20.5182C248.005 22.7755 247.152 24.8278 246.101 26.7648C243.395 31.7499 239.233 34.4287 233.723 34.8934C233.418 34.9194 233.116 34.9685 232.811 34.9858C232.507 35.0031 232.241 34.9627 231.959 34.9627ZM231.931 29.279C236.831 29.279 239.957 26.9524 241.393 22.4493C242.14 20.1111 241.245 17.8971 239.026 17.0311C236.032 15.8303 233.069 16.0208 230.279 17.7528C228.386 18.9074 227.372 20.7837 226.513 22.8043C225.23 25.8266 227.123 28.1734 229.264 28.8835C230.125 29.168 231.027 29.3017 231.931 29.279Z" fill="#0D4594"/>
<path d="M267.521 26.2688C268.374 24.3261 269.159 22.5422 269.942 20.7583C271.263 17.7389 272.582 14.7176 273.898 11.6944C273.955 11.5026 274.076 11.3376 274.239 11.2276C274.401 11.1175 274.596 11.0693 274.789 11.0911C276.341 11.117 277.889 11.0911 279.441 11.0911C280.087 11.0911 280.123 11.1632 279.846 11.8012C276.658 19.1466 273.472 26.493 270.289 33.8403C270.221 34.0767 270.074 34.2807 269.874 34.4164C269.675 34.5521 269.436 34.6108 269.198 34.5822C267.868 34.5447 266.534 34.5476 265.201 34.5822C264.642 34.5822 264.362 34.383 264.153 33.823C262.551 29.2045 260.918 24.5859 259.294 19.9674C259.236 19.8028 259.166 19.6412 259.082 19.4304C258.871 19.6396 258.719 19.904 258.643 20.1954C256.672 24.7418 254.696 29.2882 252.75 33.849C252.677 34.092 252.522 34.3002 252.313 34.4366C252.105 34.5729 251.857 34.6286 251.613 34.5937C250.106 34.5562 248.599 34.5937 247.092 34.5793C246.399 34.5793 246.352 34.5043 246.637 33.8403C248.359 29.8434 250.084 25.8493 251.814 21.8581C253.212 18.6049 254.643 15.3603 256.007 12.0927C256.306 11.3797 256.661 11.0506 257.458 11.0939C258.808 11.169 260.167 11.1372 261.519 11.0939C262.045 11.0939 262.291 11.2787 262.467 11.7867C264.038 16.3533 265.634 20.9142 267.219 25.475C267.295 25.6915 267.373 25.8878 267.521 26.2688Z" fill="#0D4594"/>
<path d="M121.181 26.1479C121.74 24.8836 122.299 23.6423 122.842 22.3953C124.379 18.8823 125.917 15.3722 127.44 11.8477C127.675 11.2992 127.968 11.0654 128.558 11.0827C130.02 11.1289 131.485 11.0827 132.947 11.1C133.666 11.1 133.716 11.178 133.411 11.8765C131.268 16.8145 129.125 21.7516 126.982 26.6877C125.936 29.0951 124.877 31.4967 123.854 33.9042C123.79 34.1173 123.655 34.3006 123.474 34.4219C123.293 34.5432 123.076 34.595 122.861 34.5681C121.508 34.5421 120.152 34.5363 118.8 34.5681C118.24 34.5825 117.961 34.3805 117.754 33.8147C116.141 29.1557 114.497 24.4967 112.862 19.832C112.817 19.7079 112.764 19.5866 112.697 19.4106C112.509 19.5762 112.377 19.7982 112.317 20.0456C110.36 24.5314 108.417 29.0143 106.508 33.5174C106.187 34.2737 105.829 34.646 104.965 34.5941C103.551 34.5075 102.128 34.5739 100.708 34.5681C99.9892 34.5681 99.9472 34.5017 100.227 33.8522C103.414 26.4818 106.598 19.1104 109.781 11.738C109.847 11.5263 109.983 11.3453 110.165 11.2265C110.347 11.1078 110.563 11.0589 110.777 11.0885C112.219 11.1174 113.662 11.1231 115.101 11.0885C115.66 11.0885 115.912 11.2732 116.096 11.8101C117.664 16.3787 119.248 20.9424 120.849 25.5013C120.884 25.75 121.001 25.9785 121.181 26.1479Z" fill="#0D4594"/>
<path d="M95.3638 11.0996H104.997C105.754 11.0996 105.782 11.1429 105.48 11.8415C104.938 13.0971 104.362 14.3413 103.848 15.594C103.776 15.8272 103.627 16.027 103.428 16.1588C103.228 16.2906 102.99 16.3461 102.755 16.3157C98.4947 16.2926 94.2373 16.3157 89.9771 16.2897C89.3621 16.2897 89.0238 16.46 88.8114 17.0749C88.5134 17.9035 88.168 18.7132 87.7771 19.4996C87.4975 20.0625 87.6597 20.1808 88.216 20.178C92.1687 20.1606 96.1242 20.178 100.077 20.178C100.273 20.178 100.471 20.178 100.667 20.178C101.027 20.178 101.15 20.3223 100.994 20.6745C100.362 22.1178 99.7303 23.5611 99.1069 25.0043C98.9196 25.4373 98.5674 25.394 98.218 25.394C94.2205 25.394 90.2231 25.42 86.2256 25.3738C85.4569 25.3738 85.0711 25.625 84.8279 26.3351C84.5393 27.1146 84.2108 27.8777 83.8439 28.6213C83.5979 29.1322 83.6986 29.2881 84.2493 29.2852C87 29.2707 89.7534 29.2852 92.5069 29.2852C94.0807 29.2852 95.6518 29.2852 97.2256 29.2852C97.7455 29.2852 97.8993 29.4237 97.6589 29.9578C97.0551 31.2837 96.4718 32.6202 95.9089 33.9672C95.8455 34.1697 95.7169 34.3436 95.5445 34.4602C95.3722 34.5768 95.1664 34.6289 94.9613 34.6081C88.5617 34.5946 82.162 34.5946 75.7624 34.6081C75.0216 34.6081 74.9741 34.5272 75.2676 33.8431C78.4227 26.4823 81.5759 19.1215 84.7273 11.7606C84.7919 11.56 84.9213 11.3883 85.0938 11.2743C85.2663 11.1603 85.4714 11.1109 85.6749 11.1342C88.8952 11.1083 92.1295 11.0996 95.3638 11.0996Z" fill="#0D4594"/>
<path d="M146.366 20.207H156.846C157.108 20.1985 157.369 20.2101 157.629 20.2417C158.278 20.3427 158.624 20.819 158.395 21.4512C157.981 22.5885 157.501 23.7027 157.011 24.8083C156.816 25.2499 156.385 25.3365 155.952 25.3394C155.08 25.3394 154.205 25.3394 153.333 25.3394H134.67C134.452 25.3394 134.234 25.3394 134.016 25.3394C132.898 25.2961 132.56 24.7621 132.982 23.7114C133.317 22.88 133.695 22.0631 133.997 21.2202C134.276 20.4697 134.749 20.1955 135.498 20.2013C139.121 20.207 142.744 20.207 146.366 20.207Z" fill="#E64011"/>
<path d="M150.287 11.1006H161.167C162.355 11.1006 162.668 11.5913 162.215 12.7171C161.888 13.5282 161.519 14.3249 161.223 15.1476C160.957 15.8779 160.505 16.1666 159.736 16.1666C154.601 16.1435 149.468 16.1666 144.333 16.1666C142.237 16.1666 140.14 16.1666 138.041 16.1666C136.836 16.1666 136.506 15.6498 136.97 14.4923C137.311 13.6263 137.688 12.7979 138.018 11.9377C138.25 11.3286 138.639 11.0948 139.276 11.0977C142.947 11.1121 146.617 11.1006 150.287 11.1006Z" fill="#0D4594"/>
<path d="M140.926 34.4546H130.044C128.861 34.4546 128.546 33.9639 129.001 32.8353C129.353 31.9693 129.731 31.1033 130.08 30.22C130.162 29.9614 130.325 29.7387 130.544 29.5879C130.763 29.4371 131.025 29.3669 131.288 29.3887C138.629 29.4002 145.969 29.4002 153.31 29.3887C154.328 29.3887 154.688 29.966 154.294 30.9359C153.928 31.8278 153.539 32.714 153.196 33.6146C152.961 34.2266 152.572 34.4575 151.938 34.4546C148.267 34.446 144.597 34.4546 140.926 34.4546Z" fill="#0D4594"/>
<path d="M31.0602 27.1339C28.0579 27.1339 25.0463 27.1339 22.0254 27.1339C20.8541 27.1339 20.5354 26.6229 20.9995 25.5087C21.3601 24.6427 21.7263 23.7768 22.0757 22.9108C22.1578 22.6522 22.3219 22.4298 22.5416 22.2795C22.7612 22.1291 23.0235 22.0597 23.2861 22.0823C29.3745 22.0823 35.4629 22.0823 41.5514 22.0823C42.5661 22.0823 42.9239 22.6596 42.5298 23.644C42.1775 24.51 41.7862 25.3759 41.4563 26.2563C41.3734 26.5354 41.1987 26.7758 40.9624 26.936C40.7261 27.0962 40.443 27.1662 40.162 27.1339C37.129 27.1339 34.1044 27.1339 31.0602 27.1339Z" fill="#0D4594"/>
<path d="M40.8146 14.7539H49.8578C50.9955 14.7539 51.3254 15.2562 50.8921 16.3358C50.5427 17.2017 50.1401 18.0677 49.813 18.9481C49.7325 19.2197 49.5636 19.4542 49.3349 19.612C49.1062 19.7698 48.8317 19.8412 48.5579 19.8141C47.2049 19.8141 45.8491 19.8141 44.4962 19.8141H30.7511C30.4704 19.8273 30.1891 19.808 29.9125 19.7564C29.3534 19.6178 29.0515 19.1242 29.2612 18.5815C29.6889 17.4702 30.1585 16.3791 30.6253 15.285C30.8378 14.7885 31.2739 14.7539 31.7435 14.7539C34.7607 14.7578 37.7844 14.7578 40.8146 14.7539Z" fill="#0D4594"/>
</g>
<defs>
<clipPath id="clip0">
<rect width="280" height="42" fill="white"/>
</clipPath>
</defs>
</svg>
