<svg width="278" height="67" viewBox="0 0 278 67" fill="none" xmlns="http://www.w3.org/2000/svg">
<g clip-path="url(#clip0)">
<path d="M277.499 2.96463C276.543 1.57089 275.41 0.592315 270.668 0.24833C269.429 0.153438 265.323 0.01703 258.416 0.01703C240.271 0.01703 227.943 5.55045 221.625 16.4809C223.367 5.49312 212.704 -0.000762355 189.636 -0.000762355C162.54 -0.000762355 145.63 10.9672 138.906 32.9032C136.401 41.06 136.137 47.7479 138.115 52.967L131.697 53.3762C126.701 53.7617 120.124 54.0998 116.095 54.0998C106.181 54.0998 100.032 52.4273 97.6492 49.0824C95.5138 46.0814 95.7262 40.5065 98.2391 32.3754C102.368 18.9066 112.62 12.8453 128.996 12.8453C137.484 12.8453 145.742 13.7409 145.748 13.7409C146.887 13.6697 147.388 12.4776 147.264 11.4931L147.099 10.2061L146.509 5.68092C146.116 2.70763 143.914 0.946185 139.903 0.3966C136.228 0.147507 133.491 -0.0185547 129.462 -0.0185547H129.237C107.837 0.0288915 92.9223 7.09245 84.4948 21.1721C87.5819 7.05686 77.6719 -0.000762355 54.7647 -0.000762355C42.0272 -0.000762355 32.8899 0.361015 27.3529 1.08457C23.1057 1.61439 20.5142 3.38176 19.5782 6.38669L17.7673 12.2048C17.437 13.2723 17.9502 13.8002 19.3069 13.8002H19.3482C20.3569 13.6697 24.2324 13.2901 30.8568 12.7563C39.6185 12.0526 46.1289 11.7007 50.3878 11.7007C62.9995 11.7007 68.3085 14.8736 66.3147 21.2196C66.131 21.8821 65.7651 22.479 65.2589 22.9417C64.7528 23.4044 64.1271 23.714 63.4537 23.835C51.5263 25.812 42.0587 27.2413 35.0509 28.123C15.3488 30.6376 3.96601 36.8096 0.902549 46.6389C-3.30528 60.1531 7.23199 66.9122 32.5144 66.9162C45.1221 66.9162 55.7046 66.1867 64.2619 64.7277C69.1933 63.8974 71.6885 62.6283 72.6795 59.4375L77.3986 44.3733C76.909 59.4256 87.4266 67.0052 108.922 67.0052C118.236 67.0052 127.067 66.6968 131.231 65.9673C135.644 65.1963 137.749 64.2355 138.723 60.8905L139.678 56.1459C144.26 63.3301 154.313 66.9221 169.839 66.9221C186.21 66.9221 195.759 66.4615 198.484 65.5403C200.767 64.8108 202.176 63.6246 202.678 61.9818C202.771 61.6738 202.838 61.3583 202.878 61.0388L204.843 54.6454C205.185 53.5364 204.672 53.0026 203.327 53.05L192.845 53.5542C185.849 53.9495 180.374 54.1472 176.422 54.1472C168.982 54.1472 163.869 53.6372 161.085 52.6171C156.944 51.0356 154.978 47.8369 155.186 43.0211L188.379 38.745C203.228 36.8155 213.172 32.2034 218.209 24.9085L206.96 64.2889C206.846 64.5818 206.808 64.8995 206.852 65.2112C206.895 65.523 207.018 65.8181 207.208 66.0681C207.627 66.5604 208.347 66.7976 209.408 66.7976H223.147C225.548 66.7976 226.403 65.5521 226.686 64.5083L238.844 22.0084C240.442 16.4156 245.556 13.7053 254.487 13.7053C262.545 13.7053 268.644 13.7764 272.502 13.9188H272.803C273.439 13.9228 274.058 13.7165 274.565 13.3317C275.073 12.947 275.44 12.4051 275.611 11.7896L277.746 5.93002C277.953 5.45386 278.038 4.93351 277.995 4.41584C277.952 3.89818 277.781 3.39946 277.499 2.96463ZM56.0389 54.1235C51.7642 54.8115 45.6058 55.1555 37.5638 55.1555C23.6032 55.1555 17.5078 52.3225 19.2774 46.6567C20.5456 42.5941 24.2029 40.1328 30.2846 39.3203L62.0321 34.9908L56.0389 54.1235ZM202.855 19.6835C201.518 24.0327 195.308 27.0139 184.226 28.6271L157.77 32.405L158.437 30.2462C160.627 23.0818 163.738 18.2008 167.769 15.6031C171.799 13.0054 178.347 11.7086 187.412 11.7125C199.347 11.6967 204.495 14.3537 202.855 19.6835Z" fill="#83B81A"/>
</g>
<defs>
<clipPath id="clip0">
<rect width="278" height="67" fill="white"/>
</clipPath>
</defs>
</svg>
