<svg width="246" height="66" viewBox="0 0 246 66" fill="none" xmlns="http://www.w3.org/2000/svg">
<g clip-path="url(#clip0)">
<path d="M0 2.01172H19.7669C24.3034 2.01172 29.6287 6.25378 32.0389 8.61093L66.7524 47.3609V2.01172H78.5392V63.8887H57.8965C54.2279 63.8014 50.5948 62.9998 46.374 58.853L11.7355 20.0157V63.8887H0V2.01172Z" fill="#005BAA"/>
<path d="M246 64.3051C231.858 66.2694 217.598 66.4479 203.235 65.2337C194.837 64.5313 186.644 62.7535 179.09 58.809C169.623 53.8606 166.589 42.7059 166.707 32.5948C166.81 23.2575 169.579 13.3408 177.82 7.92017C183.236 4.34874 189.023 3.15826 195.204 2.04318C211.993 -0.933007 228.77 -0.262372 245.176 1.53128V10.3487C225.847 6.59874 205.46 7.52731 198.514 16.4599C194.202 22.0154 193.606 27.5352 193.606 32.194C193.606 40.5868 196.431 53.2852 213.358 55.7813C224.426 57.4162 235.334 56.1384 246.004 54.2297L246 64.3051Z" fill="#005BAA"/>
<path d="M125.047 54.6624C126.723 54.7498 153.37 54.8331 162.521 54.6624V63.9402C144.092 64.6664 126.388 64.9561 107.82 64.1863C92.0413 63.5275 89.3273 55.5394 89.0078 47.8767V2.01562H161.598V10.8291H114.656V26.5871H157.425V35.1783H114.652C114.629 39.8291 114.771 45.099 114.81 46.0434C115.063 52.0474 117.828 54.2855 125.027 54.6624" fill="#005BAA"/>
</g>
<defs>
<clipPath id="clip0">
<rect width="246" height="66" fill="white"/>
</clipPath>
</defs>
</svg>
