<svg width="265" height="55" viewBox="0 0 265 55" fill="none" xmlns="http://www.w3.org/2000/svg">
<g clip-path="url(#clip0)">
<path fill-rule="evenodd" clip-rule="evenodd" d="M20.8924 39.1441C23.0616 42.6833 26.1005 45.6091 29.7201 47.6434C33.3397 49.6778 37.4197 50.753 41.5722 50.7671C54.3201 50.7671 61.4023 39.7246 61.4023 39.7246L62.3229 42.6551C56.4023 50.3565 45.8215 55 33.9943 55C20.3683 55 8.6119 48.5019 3.20113 39.13C1.12389 35.6019 0.0193456 31.5865 0 27.4929C0 12.3166 15.2125 0 33.9943 0C47.2521 0 57.932 5.66281 63.5269 13.9022L41.2748 27.2098L54.0227 7.72973C50.3966 5.45045 45.9348 3.31274 41.2748 3.31274C34.9676 3.37223 28.9375 5.91157 24.4893 10.3812C20.0412 14.8509 17.5329 20.8914 17.5071 27.1956C17.5052 31.4132 18.6721 35.5489 20.8782 39.1441H20.8924Z" fill="#ED1C24"/>
<path fill-rule="evenodd" clip-rule="evenodd" d="M80.4525 39.1302C80.1777 40.9364 80.4628 42.7835 81.2693 44.423C82.0759 46.0625 83.3653 47.416 84.9643 48.3014C86.5632 49.1868 88.3951 49.5618 90.2135 49.3759C92.032 49.1899 93.7499 48.4521 95.1364 47.2614C96.5229 46.0708 97.5115 44.4844 97.9692 42.7156C98.427 40.9468 98.332 39.0803 97.697 37.3671C97.062 35.6538 95.9175 34.176 94.4173 33.1321C92.9171 32.0882 91.1331 31.5284 89.3052 31.5278C87.1677 31.5416 85.1046 32.3134 83.4833 33.7056C81.862 35.0979 80.788 37.0202 80.4525 39.1302ZM113.668 39.1302L118.115 54.1083H102.535L99.4468 43.8869C97.393 49.7904 90.4525 54.1507 82.223 54.1507C72.308 54.1507 64.376 47.9217 64.376 40.2486C64.376 39.8946 64.376 39.5266 64.376 39.1726C65.0842 32.0092 72.7754 26.3605 82.1663 26.3605C87.0505 26.2697 91.8034 27.9436 95.5516 31.0748L91.3023 16.9178H73.4411C73.4411 16.9178 76.4865 15.0208 89.6451 10.2215C102.804 5.4223 107.053 16.8187 107.053 16.8187L113.682 39.1302H113.668Z" fill="#ED1C24"/>
<path fill-rule="evenodd" clip-rule="evenodd" d="M163.569 39.13V54.1082H147.507V21.2356C147.515 20.2053 147.16 19.205 146.505 18.4099C145.85 17.6147 144.935 17.0753 143.922 16.8863C142.908 16.6972 141.861 16.8705 140.963 17.3758C140.064 17.8811 139.372 18.6862 139.008 19.65V54.1082H123.229V16.8044H114.079C114.079 16.8044 126.827 9.06055 131.303 9.06055C133.279 9.07539 135.176 9.84175 136.607 11.2039C138.038 12.566 138.897 14.4217 139.008 16.3939C145.198 13.067 151.331 9.06055 155.538 9.06055C157.629 9.05972 159.638 9.87425 161.138 11.331C162.638 12.7877 163.51 14.7717 163.569 16.8611V39.13Z" fill="#ED1C24"/>
<path fill-rule="evenodd" clip-rule="evenodd" d="M188.314 39.1304L190.552 46.5203C190.589 48.04 191.222 49.4845 192.313 50.5434C193.404 51.6022 194.867 52.191 196.388 52.1832C197.955 52.1832 199.457 51.5612 200.565 50.4541C201.672 49.3469 202.295 47.8454 202.295 46.2797C202.307 46.0533 202.307 45.8265 202.295 45.6001L200.397 39.1162L193.725 16.3234C193.565 14.878 192.876 13.5427 191.791 12.5735C190.707 11.6042 189.302 11.0693 187.847 11.0712C186.322 11.1796 184.877 11.7966 183.744 12.8234C182.612 13.8502 181.857 15.2273 181.601 16.734L188.357 39.0454L188.314 39.1304ZM213.81 39.1304C211.99 44.6549 208.154 49.2913 203.067 52.116C197.98 54.9406 192.015 55.7462 186.36 54.3722C180.705 52.9982 175.776 49.5455 172.554 44.7019C169.332 39.8584 168.054 33.9794 168.974 28.2361C169.894 22.4929 172.945 17.3069 177.52 13.7113C182.094 10.1157 187.856 8.37434 193.657 8.83416C199.458 9.29398 204.873 11.9212 208.823 16.1925C212.773 20.4637 214.969 26.0656 214.972 31.882C214.973 34.3445 214.581 36.7914 213.81 39.1304Z" fill="#ED1C24"/>
<path fill-rule="evenodd" clip-rule="evenodd" d="M240.453 39.13V54.1082H224.703V16.8044H215.893C215.893 16.8044 228.301 9.06055 232.734 9.06055C234.71 9.07539 236.607 9.84175 238.038 11.2039C239.469 12.566 240.328 14.4217 240.439 16.3939C246.629 13.067 252.762 9.06055 256.969 9.06055C259.06 9.05972 261.069 9.87425 262.569 11.331C264.069 12.7877 264.941 14.7717 265 16.8611V54.094H248.938V21.2356C248.946 20.2053 248.591 19.205 247.936 18.4099C247.281 17.6147 246.366 17.0753 245.353 16.8863C244.34 16.6972 243.292 16.8705 242.394 17.3758C241.495 17.8811 240.803 18.6862 240.439 19.65V39.13H240.453Z" fill="#ED1C24"/>
</g>
<defs>
<clipPath id="clip0">
<rect width="265" height="55" fill="white"/>
</clipPath>
</defs>
</svg>
