<svg width="280" height="77" viewBox="0 0 280 77" fill="none" xmlns="http://www.w3.org/2000/svg">
<path d="M11.8047 0V58.9302H0V0H11.8047ZM51.6047 57.1571C49.3185 58.2303 44.8392 59.4434 39.4734 59.4434C26.129 59.4434 17.4038 50.8115 17.4038 37.5604C17.4038 24.7292 26.1756 14.6976 41.2465 14.6976C45.2125 14.6976 49.2251 15.5841 51.6981 16.7039L49.785 24.7759C48.012 23.9827 45.4924 23.0962 41.6197 23.0962C33.3611 23.0962 28.4153 29.1618 28.5086 37.0005C28.5086 45.7724 34.2476 50.8115 41.6197 50.8115C45.3991 50.8115 48.012 50.0183 50.1583 49.1318C50.1116 49.1785 51.6047 57.1571 51.6047 57.1571ZM64.7159 40.1266C64.9958 47.872 71.0615 51.1848 77.9203 51.1848C82.9128 51.1848 86.5522 50.4849 89.7717 49.2718L91.3581 56.7372C87.6721 58.2303 82.5862 59.4901 76.4273 59.4901C62.5229 59.4901 54.3576 50.8582 54.3576 37.7937C54.3576 25.9423 61.5897 14.7442 75.2608 14.7442C89.2585 14.7442 93.7377 26.1756 93.7377 35.5541C93.7377 37.5604 93.5511 39.1468 93.3644 40.1266H64.7159ZM83.5194 32.5679C83.6127 28.6019 81.8397 22.1163 74.6542 22.1163C67.982 22.1163 65.1825 28.182 64.7159 32.5679H83.5194ZM189.855 58.7902C189.948 56.224 190.275 52.8179 190.648 49.1318H190.368C186.169 57.0172 180.523 59.77 175.064 59.77C167.412 59.77 162.42 53.7977 162.42 45.1658C162.42 30.5616 172.638 15.0242 192.561 15.0242C197.227 15.0242 202.22 15.9107 205.486 16.9372L201.1 39.2868C199.887 45.7257 199.187 53.7044 199.327 58.7902H189.855ZM194.054 23.3761C192.981 23.0962 191.675 22.9562 189.855 22.9562C180.383 22.9562 173.058 33.5944 173.058 43.3461C173.058 47.8254 174.738 51.5114 179.217 51.5114C183.976 51.5114 189.762 45.5391 191.815 34.6209C191.768 34.6209 194.054 23.3761 194.054 23.3761ZM206.279 58.7902L211.271 32.4279C212.391 26.3623 212.951 19.8767 213.464 16.004H222.33C222.05 18.8968 221.816 21.883 221.35 25.0558H221.63C224.523 19.2701 229.188 15.0242 235.067 15.0242C235.767 15.0242 236.561 15.1175 237.26 15.2108L235.254 25.2425C234.601 25.1491 233.948 25.0558 233.341 25.0558C226.062 25.0558 221.396 32.4279 219.717 41.5731L216.451 58.7902H206.279ZM232.688 76.194L241.04 31.9147C242.02 26.8289 242.953 20.1566 243.513 15.8174H252.751L251.771 23.0028H251.958C255.644 17.917 260.917 15.0242 266.469 15.0242C275.707 15.0242 280 22.5829 280 30.9348C280 45.8657 269.642 59.77 255.037 59.77C251.071 59.77 248.085 58.8835 246.499 57.9503H246.312L242.86 76.2406C242.86 76.194 232.688 76.194 232.688 76.194ZM247.945 49.7384C249.532 51.0448 251.818 51.838 254.804 51.838C262.736 51.838 269.222 41.2931 269.222 31.728C269.222 27.762 267.449 23.3761 262.456 23.3761C257.277 23.3761 251.631 29.2551 249.812 39.2868L247.945 49.7384Z" fill="#231F20"/>
<path d="M131.625 0.046875C128.359 0.046875 124.906 2.70643 123.926 5.92589L105.869 58.9771C105.962 58.9771 110.442 58.9771 110.442 58.9771C113.708 58.9771 117.161 56.3641 118.14 53.098L136.477 0.046875H131.625ZM159.154 0.046875L138.344 58.9771H142.87C146.136 58.9771 149.589 56.3641 150.568 53.098L170.912 0.046875H159.154ZM141.003 0.60678L132.605 24.4028V53.0514C132.605 54.7311 133.305 56.2708 134.471 57.344L144.409 29.162V5.87924C144.409 3.59295 143.01 1.53996 141.003 0.60678ZM111.981 28.1822V0.046875H100.177V53.098C100.177 54.6378 100.783 56.0842 101.763 57.1107C101.81 57.1107 111.981 28.1822 111.981 28.1822Z" fill="#29ABE2"/>
</svg>
