<svg width="258" height="80" viewBox="0 0 258 80" fill="none" xmlns="http://www.w3.org/2000/svg">
<path d="M258 0H0V80H258V0Z" fill="#FFCB05"/>
<path d="M226.33 47.153C226.08 47.1313 225.836 47.0896 225.58 47.0896C216.713 47.0896 207.846 47.0935 198.978 47.1013C198.011 47.1013 198.006 47.1263 198.092 48.1013C198.512 52.908 200.713 56.583 205.021 58.733C209.964 61.198 217.038 60.4213 220.807 54.6996C221.058 54.3196 221.338 53.958 221.681 53.483C222.783 54.2113 223.865 54.8996 224.902 55.6496C225.009 55.728 224.918 56.263 224.773 56.483C223.152 59.0113 221.046 61.018 218.302 62.2363C213.381 64.4196 208.351 64.603 203.418 62.4413C198.032 60.0813 195.148 55.6496 194.149 49.903C193.457 45.9163 193.874 42.0296 195.599 38.3646C198.136 32.9746 202.426 29.8363 208.242 29.108C212.514 28.573 216.631 29.228 220.163 32.063C223.486 34.7296 225.31 38.243 225.979 42.423C226.116 43.2763 226.216 44.1363 226.333 44.993L226.33 47.153ZM198.128 43.3113H222.043C221.992 42.8846 221.977 42.5063 221.896 42.1446C220.414 35.403 214.768 32.1997 209.141 32.938C204.28 33.5763 200.904 36.198 198.937 40.7113C198.597 41.4896 198.423 42.343 198.128 43.3113Z" fill="black"/>
<path d="M31.6703 29.459C31.9718 29.4807 32.2717 29.5207 32.5732 29.5207C38.6525 29.5207 44.7302 29.5357 50.8095 29.5073C51.536 29.5073 51.8144 29.694 51.7535 30.4473C51.7026 31.1631 51.7026 31.8816 51.7535 32.5973C51.793 33.2357 51.569 33.4307 50.9297 33.4223C46.3447 33.4023 41.7613 33.4223 37.1763 33.4223C35.883 33.4223 35.883 33.4223 35.8814 34.7657C35.8814 44.0668 35.8814 53.3679 35.8814 62.669C35.8814 63.3723 35.7067 63.6007 34.9983 63.5707C33.8895 63.524 32.7742 63.5907 31.6621 63.609C31.6676 52.2279 31.6703 40.8445 31.6703 29.459Z" fill="black"/>
<path d="M145.228 34.1017C147.951 30.3967 151.534 28.92 155.772 29.08C160.068 29.2467 163.35 31.2467 165.55 35.3134C165.764 34.97 165.863 34.7967 165.978 34.6334C168.808 30.605 172.744 29.03 177.534 29.1217C182.776 29.2234 187.419 32.44 188.712 39.0917C188.809 39.5406 188.864 39.9975 188.877 40.4567C188.928 47.815 188.954 55.1734 189.02 62.5317C189.02 63.2367 188.844 63.4867 188.135 63.4317C187.352 63.3709 186.565 63.3709 185.781 63.4317C185.059 63.4884 184.837 63.265 184.84 62.5084C184.868 56.585 184.885 50.6617 184.83 44.74C184.814 43.01 184.756 41.24 184.374 39.5634C183.407 35.3434 180.196 32.8634 175.932 32.965C171.627 33.0684 168.24 35.1967 167.224 39.7084C167.018 40.62 167.001 41.59 166.998 42.5334C166.969 49.1745 166.962 55.8156 166.975 62.4567C166.975 63.235 166.79 63.5034 166.011 63.4334C165.201 63.3764 164.389 63.3764 163.579 63.4334C162.985 63.465 162.798 63.275 162.802 62.655C162.826 58.7584 162.812 54.86 162.802 50.9634C162.802 48.0917 162.835 45.2184 162.77 42.3484C162.723 40.165 162.228 38.075 160.932 36.27C158.805 33.31 154.933 32.1834 151.262 33.465C148.671 34.37 146.699 36.0267 145.696 38.655C145.386 39.5178 145.227 40.4287 145.228 41.3467C145.147 48.3967 145.101 55.4472 145.089 62.4984C145.089 63.2417 144.89 63.4884 144.155 63.435C143.298 63.3734 142.432 63.4084 141.57 63.425C141.183 63.425 141.002 63.2884 141.031 62.8884C141.045 62.71 141.031 62.53 141.031 62.35C141.031 51.76 141.031 41.1706 141.031 30.5817C141.031 29.53 141.031 29.53 142.051 29.5284C142.786 29.5284 143.524 29.5634 144.256 29.5184C144.873 29.48 145.121 29.6717 145.088 30.33C145.04 31.3017 145.073 32.2784 145.088 33.2517C145.119 33.5373 145.166 33.8211 145.228 34.1017Z" fill="black"/>
<path d="M117.265 59.6664C116.935 59.9231 116.606 60.1764 116.276 60.4364C109.065 66.2047 98.3119 64.9581 92.6181 57.6664C90.2441 54.6281 89.1485 51.1197 89.0381 47.2664C88.9079 42.6664 90.0711 38.4847 93.0415 34.9331C95.9461 31.4647 99.6991 29.6097 104.166 29.1714C108.943 28.7014 113.174 30.0047 116.851 33.1431C117.029 33.2681 117.213 33.3827 117.403 33.4864C117.431 32.5797 117.468 31.8064 117.474 31.0331C117.487 29.6531 117.474 29.6531 118.85 29.6531C119.56 29.6531 120.27 29.6664 120.978 29.6531C121.366 29.6431 121.548 29.7881 121.52 30.1881C121.509 30.3664 121.52 30.5464 121.52 30.7264C121.52 41.3142 121.52 51.902 121.52 62.4897C121.52 63.5531 121.52 63.5531 120.441 63.5531C119.655 63.5531 118.87 63.5314 118.085 63.5531C117.611 63.5714 117.466 63.3864 117.474 62.9247C117.496 61.8781 117.474 60.8314 117.474 59.7847L117.265 59.6664ZM118.181 46.5364C118.047 45.3947 118.003 44.2347 117.766 43.1164C115.502 32.4714 103.935 31.0664 97.9808 35.9997C94.6215 38.7864 93.2425 42.4781 93.203 46.8331C93.1634 52.4164 97.0384 59.0597 104.452 59.7331C108.223 60.0764 111.668 59.1831 114.428 56.3997C117.108 53.6997 118.11 50.3081 118.181 46.5397V46.5364Z" fill="black"/>
<path d="M80.0212 53.5129L83.5008 55.8195C81.6885 58.6979 79.4742 61.0312 76.4165 62.3395C71.6156 64.3912 66.7209 64.5412 61.8788 62.5145C57.4783 60.6812 54.559 57.3312 53.147 52.7629C51.4073 47.1529 51.7219 41.6545 54.8489 36.5879C57.4355 32.3979 61.2347 29.8595 66.1245 29.1895C69.838 28.6812 73.4592 28.9895 76.7855 30.9429C81.1218 33.4895 83.4102 37.4429 84.229 42.3279C84.4514 43.6612 84.4431 45.0262 84.5585 46.3762C84.6079 46.9212 84.3937 47.0812 83.8715 47.0795C75.1561 47.0551 66.4402 47.0406 57.7238 47.0362C56.3383 47.0362 56.3383 47.0362 56.4058 48.3862C56.6875 54.0895 61.1638 59.0362 66.8115 59.8262C70.7029 60.3695 74.3011 59.6879 77.2303 56.8395C78.2238 55.8695 79.0327 54.7029 80.0212 53.5129ZM80.3342 43.3162C79.7757 37.6395 75.2484 32.7545 68.7836 32.8395C61.2643 32.9379 57.0862 38.8512 56.536 43.3162H80.3342Z" fill="black"/>
<path d="M133.366 39.6159C133.366 47.2292 133.354 54.8442 133.384 62.4576C133.384 63.2393 133.191 63.5009 132.413 63.4359C131.578 63.3785 130.741 63.3785 129.906 63.4359C129.319 63.4676 129.118 63.2376 129.194 62.6809C129.201 62.5788 129.201 62.4764 129.194 62.3742C129.194 47.2487 129.194 32.1231 129.194 16.9976C129.194 15.9559 129.194 15.9559 130.222 15.9542C131.033 15.9542 131.845 15.9876 132.654 15.9442C133.239 15.9126 133.375 16.1442 133.374 16.7026C133.354 21.1626 133.364 25.6242 133.364 30.0842C133.365 33.2598 133.366 36.437 133.366 39.6159Z" fill="black"/>
</svg>
