<svg width="238" height="86" viewBox="0 0 238 86" fill="none" xmlns="http://www.w3.org/2000/svg">
<g clip-path="url(#clip0)">
<path fill-rule="evenodd" clip-rule="evenodd" d="M99.6067 14.5615H111.323L111.463 14.702V65.7937L111.323 65.9342H99.6067C99.5696 65.9342 99.534 65.9194 99.5078 65.893C99.4815 65.8667 99.4668 65.8309 99.4668 65.7937V14.702C99.4668 14.6648 99.4815 14.629 99.5078 14.6027C99.534 14.5763 99.5696 14.5615 99.6067 14.5615Z" fill="#302D2D"/>
<path fill-rule="evenodd" clip-rule="evenodd" d="M95.7016 14.5615C95.7209 14.5795 95.7363 14.6012 95.7468 14.6254C95.7573 14.6495 95.7627 14.6756 95.7627 14.702C95.7627 14.7284 95.7573 14.7545 95.7468 14.7787C95.7363 14.8029 95.7209 14.8246 95.7016 14.8425L80.22 40.0563C80.15 40.1599 80.1126 40.2823 80.1126 40.4075C80.1126 40.5327 80.15 40.6551 80.22 40.7588L95.8416 65.6915C95.8608 65.7094 95.8762 65.7312 95.8867 65.7553C95.8972 65.7795 95.9027 65.8056 95.9027 65.832C95.9027 65.8584 95.8972 65.8845 95.8867 65.9086C95.8762 65.9328 95.8608 65.9546 95.8416 65.9725H81.3267C81.1868 65.9725 81.0469 65.832 80.9069 65.832L71.5696 50.4279C71.4297 50.2874 71.4297 50.2874 71.2898 50.4279L62.4994 65.7554C62.3595 65.8959 62.2196 66.0364 62.0796 66.0364H48.5443C48.2645 66.0364 48.2645 65.8959 48.4044 65.8959L64.3059 39.4176C64.3716 39.3689 64.425 39.3054 64.4619 39.2322C64.4987 39.159 64.5179 39.0781 64.5179 38.9961C64.5179 38.9141 64.4987 38.8332 64.4619 38.76C64.425 38.6868 64.3716 38.6233 64.3059 38.5746L50.3126 14.9064C50.2933 14.8885 50.2779 14.8667 50.2674 14.8425C50.2569 14.8184 50.2515 14.7923 50.2515 14.7659C50.2515 14.7395 50.2569 14.7134 50.2674 14.6892C50.2779 14.6651 50.2933 14.6433 50.3126 14.6254H64.4458C64.5181 14.6312 64.5859 14.6627 64.6372 14.7142C64.6885 14.7657 64.7198 14.8338 64.7257 14.9064L73.2361 29.1993C73.376 29.3398 73.376 29.3398 73.516 29.1993L82.3063 14.8425C82.3121 14.7699 82.3434 14.7018 82.3947 14.6503C82.446 14.5988 82.5139 14.5674 82.5861 14.5615H95.7016Z" fill="#302D2D"/>
<path fill-rule="evenodd" clip-rule="evenodd" d="M195.868 0L238.001 65.9721H201.44L187.637 44.3986H185.958L184.979 42.8659H168.518L195.868 0Z" fill="#FCDE00"/>
<path fill-rule="evenodd" clip-rule="evenodd" d="M193.209 40.7578L209.403 65.9715H157.921L174.102 40.7578H193.209Z" fill="#231F20"/>
<path fill-rule="evenodd" clip-rule="evenodd" d="M189.023 40.7578L205.217 65.9715H153.734L169.916 40.7578H189.023Z" fill="#C9493F"/>
<path fill-rule="evenodd" clip-rule="evenodd" d="M43.9389 14.5615H33.075C33.0027 14.5674 32.9348 14.5988 32.8836 14.6503C32.8323 14.7018 32.8009 14.7699 32.7951 14.8425L0 65.832C0 65.8692 0.0147429 65.905 0.0409853 65.9313C0.0672278 65.9577 0.10282 65.9725 0.139933 65.9725H13.3954C13.5353 65.9725 13.6752 65.9725 13.6752 65.832L18.1404 58.8324C18.2803 58.8324 18.2803 58.6919 18.4202 58.6919H32.4135C32.4506 58.6919 32.4862 58.7067 32.5124 58.7331C32.5387 58.7594 32.5534 58.7952 32.5534 58.8324V65.6915C32.5534 65.832 32.5534 65.9725 32.6934 65.9725H44.1424L44.2823 65.832V14.8425C44.2765 14.7699 44.2452 14.7018 44.1939 14.6503C44.1426 14.5988 44.0747 14.5674 44.0025 14.5615H43.9389ZM32.4898 48.6013V48.7418H23.8394C23.6995 48.7418 23.6995 48.7418 23.6995 48.6013L32.9096 33.8997L32.4898 48.6013Z" fill="#302D2D"/>
<path fill-rule="evenodd" clip-rule="evenodd" d="M118.307 65.9723H133.788C135.727 65.8616 137.648 65.5317 139.513 64.9888C146.624 62.7536 150.389 55.6007 150.389 49.5847C150.389 39.9156 142.859 36.5563 133.928 32.7756C132.389 32.0731 130.443 31.0895 130.443 28.9437C130.443 26.7978 132.529 25.7249 134.768 25.7249H146.904C147.044 25.7249 147.044 25.7249 147.044 25.5844V14.5614C147.044 14.4209 147.044 14.4209 146.904 14.4209H134.183C123.586 14.4209 117.302 20.7179 117.302 29.544C117.302 37.2078 122.187 41.0396 129.298 43.9774C134.323 45.9444 137.528 46.7747 137.528 50.8365C137.581 51.3775 137.518 51.9236 137.344 52.4385C137.171 52.9533 136.89 53.4252 136.52 53.8226C136.151 54.2201 135.702 54.5341 135.202 54.7438C134.702 54.9534 134.164 55.054 133.623 55.0387H118.307V65.8191C118.307 65.9596 118.447 65.9596 118.307 65.9596V65.9723Z" fill="#302D2D"/>
<path fill-rule="evenodd" clip-rule="evenodd" d="M156.941 14.2925C155.853 14.3523 154.828 14.8285 154.079 15.6232C153.33 16.4179 152.912 17.4707 152.912 18.5651C152.912 19.6594 153.33 20.7122 154.079 21.5069C154.828 22.3016 155.853 22.7778 156.941 22.8376C157.519 22.8694 158.098 22.7824 158.642 22.582C159.186 22.3817 159.683 22.0721 160.104 21.6722C160.524 21.2724 160.859 20.7906 161.088 20.2564C161.317 19.7221 161.435 19.1467 161.435 18.5651C161.435 17.9835 161.317 17.408 161.088 16.8737C160.859 16.3395 160.524 15.8577 160.104 15.4579C159.683 15.058 159.186 14.7484 158.642 14.5481C158.098 14.3477 157.519 14.2608 156.941 14.2925ZM156.941 22.4161C155.929 22.4161 154.958 22.0124 154.242 21.2938C153.527 20.5751 153.125 19.6005 153.125 18.5842C153.125 17.5679 153.527 16.5933 154.242 15.8747C154.958 15.1561 155.929 14.7523 156.941 14.7523C157.442 14.7523 157.938 14.8515 158.401 15.044C158.864 15.2366 159.285 15.5189 159.639 15.8747C159.994 16.2305 160.275 16.6529 160.467 17.1178C160.659 17.5827 160.757 18.081 160.757 18.5842C160.757 19.0874 160.659 19.5857 160.467 20.0506C160.275 20.5155 159.994 20.9379 159.639 21.2938C159.285 21.6496 158.864 21.9318 158.401 22.1244C157.938 22.317 157.442 22.4161 156.941 22.4161Z" fill="#302D2D"/>
<path fill-rule="evenodd" clip-rule="evenodd" d="M159.015 21.0115L158.036 18.7763C158.294 18.683 158.516 18.5081 158.667 18.2779C158.818 18.0476 158.891 17.7744 158.875 17.499C158.886 17.2791 158.841 17.06 158.743 16.8631C158.645 16.6661 158.497 16.498 158.316 16.375C158.157 16.2563 157.976 16.1704 157.784 16.1221C157.592 16.0739 157.392 16.0643 157.196 16.094H155.377V20.9988H155.937V18.904H157.336L158.316 20.9988L159.015 21.0115ZM155.949 18.3548V16.5282H157.222C157.501 16.5282 157.781 16.5282 157.921 16.8093C158.061 16.8604 158.178 16.9581 158.255 17.0859C158.331 17.2138 158.362 17.3641 158.341 17.5118C158.306 17.7232 158.209 17.9191 158.061 18.0738C157.951 18.1803 157.818 18.2608 157.673 18.3094C157.528 18.358 157.373 18.3735 157.222 18.3548H155.949Z" fill="#302D2D"/>
<path fill-rule="evenodd" clip-rule="evenodd" d="M10.33 85.029C9.08732 85.6983 7.69462 86.0369 6.28466 86.0125C2.23933 86.0125 0.280273 83.4579 0.280273 80.9672C0.280273 78.4765 2.54464 75.7814 6.36098 75.7814C7.68595 75.7243 9.00245 76.0195 10.1773 76.6372V78.8724C9.10747 78.2803 7.91278 77.952 6.69173 77.9144C4.46553 77.9144 2.87539 79.1917 2.87539 80.9927C2.87539 82.7937 4.41465 83.9305 6.50092 83.9305C7.83493 83.9282 9.14707 83.5901 10.3173 82.947V85.0417L10.33 85.029Z" fill="#302D2D"/>
<path fill-rule="evenodd" clip-rule="evenodd" d="M24.9709 85.9999C21.1545 85.9999 19.1064 83.4453 19.1064 80.9546C19.1064 78.4639 21.1927 75.7688 24.9709 75.7688C25.6981 75.7079 26.4301 75.7951 27.123 76.0252C27.8158 76.2553 28.4553 76.6236 29.0029 77.1078C29.5506 77.5921 29.9952 78.1825 30.3101 78.8435C30.6249 79.5045 30.8036 80.2226 30.8353 80.9546C30.8353 83.5092 28.7491 85.9999 24.9709 85.9999ZM24.9709 77.8764C24.5531 77.8417 24.1327 77.8965 23.7376 78.037C23.3424 78.1775 22.9814 78.4006 22.6785 78.6915C22.3755 78.9824 22.1374 79.3346 21.98 79.7247C21.8226 80.1148 21.7494 80.534 21.7652 80.9546C21.753 81.3682 21.8299 81.7796 21.9907 82.1605C22.1515 82.5415 22.3923 82.8832 22.6966 83.1621C23.001 83.441 23.3618 83.6507 23.7543 83.7767C24.1468 83.9028 24.5618 83.9422 24.9709 83.8924C25.38 83.9422 25.795 83.9028 26.1875 83.7767C26.58 83.6507 26.9408 83.441 27.2451 83.1621C27.5495 82.8832 27.7903 82.5415 27.9511 82.1605C28.1118 81.7796 28.1888 81.3682 28.1766 80.9546C28.1869 80.5372 28.1097 80.1222 27.9498 79.7367C27.7899 79.3512 27.551 79.0038 27.2487 78.7171C26.9463 78.4304 26.5873 78.2108 26.1948 78.0725C25.8024 77.9343 25.3854 77.8805 24.9709 77.9147V77.8764Z" fill="#302D2D"/>
<path fill-rule="evenodd" clip-rule="evenodd" d="M48.5442 75.9219H50.6432V85.8592H48.1244V79.7027L45.3385 82.7809H45.0586L42.2727 79.7027V85.8592H39.7539V75.9219H41.8529L45.1986 79.7027L48.5442 75.9219Z" fill="#302D2D"/>
<path fill-rule="evenodd" clip-rule="evenodd" d="M69.47 75.9219H71.7089V85.8592H69.1901V79.7027L66.4042 82.7809H65.9844L63.1985 79.7027V85.8592H60.6797V75.9219H62.9186L66.2643 79.7027L69.47 75.9219Z" fill="#302D2D"/>
<path fill-rule="evenodd" clip-rule="evenodd" d="M91.2365 75.9219V81.6697C91.2365 84.8885 88.8704 86.0125 86.0717 86.0125C83.2731 86.0125 81.0469 84.7352 81.0469 81.6697V75.9219H83.5911V81.6697C83.596 81.9896 83.6678 82.3049 83.8017 82.5952C83.9356 82.8855 84.1286 83.1444 84.3684 83.3551C84.6082 83.5657 84.8894 83.7235 85.1938 83.8183C85.4981 83.913 85.8189 83.9425 86.1353 83.9049C87.5347 83.9049 88.7813 83.3429 88.7813 81.5292V75.9219H91.2365Z" fill="#302D2D"/>
<path fill-rule="evenodd" clip-rule="evenodd" d="M110.904 85.8592H108.818L103.093 79.5622V85.8592H100.587V75.9219H102.953L108.398 82.0784V75.9219H110.904V85.8592Z" fill="#302D2D"/>
<path fill-rule="evenodd" clip-rule="evenodd" d="M120.673 85.8592H123.179V75.9219H120.673V85.8592Z" fill="#302D2D"/>
<path fill-rule="evenodd" clip-rule="evenodd" d="M141.599 85.029C140.357 85.6983 138.964 86.0369 137.554 86.0125C133.649 86.0125 131.55 83.4579 131.55 80.9672C131.55 78.4765 133.776 75.7814 137.694 75.7814C139.018 75.7204 140.334 76.0112 141.51 76.6244V78.8597C140.443 78.2586 139.248 77.9215 138.025 77.8762C135.799 77.8762 134.209 79.1534 134.209 80.9544C134.209 82.7554 135.748 83.8922 137.834 83.8922C139.168 83.8899 140.48 83.5518 141.65 82.9087V85.0034L141.599 85.029Z" fill="#302D2D"/>
<path fill-rule="evenodd" clip-rule="evenodd" d="M159.866 85.8593H157.22L156.381 83.8923H151.776L150.936 85.8593H148.29L152.335 75.9092H155.401L159.866 85.8593ZM153.926 78.2977L152.526 82.219H155.592L153.926 78.2977Z" fill="#302D2D"/>
<path fill-rule="evenodd" clip-rule="evenodd" d="M174.8 77.7356H171.175V85.8592H168.516V77.7356H164.891V75.9219H174.8V77.7356Z" fill="#302D2D"/>
<path fill-rule="evenodd" clip-rule="evenodd" d="M182.612 85.8592H185.118V75.9219H182.612V85.8592Z" fill="#302D2D"/>
<path fill-rule="evenodd" clip-rule="evenodd" d="M198.793 86.0002C194.977 86.0002 192.929 83.4456 192.929 80.9549C192.929 78.4642 194.888 75.7691 198.793 75.7691C199.518 75.7206 200.245 75.8165 200.933 76.0513C201.62 76.286 202.255 76.655 202.8 77.137C203.345 77.619 203.79 78.2044 204.108 78.8596C204.427 79.5149 204.614 80.227 204.658 80.9549C204.658 83.5095 202.431 86.0002 198.793 86.0002ZM198.793 77.8766C198.375 77.842 197.955 77.8967 197.56 78.0373C197.165 78.1778 196.804 78.4009 196.501 78.6918C196.198 78.9827 195.96 79.3348 195.802 79.7249C195.645 80.1151 195.572 80.5343 195.587 80.9549C195.705 81.7168 196.091 82.4113 196.674 82.9129C197.257 83.4146 198 83.6903 198.768 83.6903C199.536 83.6903 200.278 83.4146 200.862 82.9129C201.445 82.4113 201.83 81.7168 201.948 80.9549C201.958 80.5421 201.882 80.1317 201.725 79.75C201.568 79.3682 201.334 79.0234 201.037 78.7375C200.74 78.4516 200.388 78.2308 200.001 78.0892C199.615 77.9476 199.204 77.8882 198.793 77.9149V77.8766Z" fill="#302D2D"/>
<path fill-rule="evenodd" clip-rule="evenodd" d="M222.506 85.8592H220.42L214.696 79.5622V85.8592H212.189V75.9219H214.556L220 82.0784V75.9219H222.506V85.8592Z" fill="#302D2D"/>
<path fill-rule="evenodd" clip-rule="evenodd" d="M237.44 78.5794C236.413 78.0023 235.269 77.666 234.094 77.5959C233.255 77.5959 232.695 78.0174 232.695 78.4389C232.695 79.9844 237.86 79.5629 237.86 83.0627C237.86 84.8892 236.181 86.0005 233.954 86.0005C232.615 86.0394 231.293 85.6985 230.138 85.017V82.9222C231.133 83.7123 232.355 84.1601 233.624 84.1995C234.603 84.1995 235.163 83.9185 235.163 83.3565C235.163 81.6705 229.998 82.2325 229.998 78.7327C229.998 76.9062 231.537 75.7949 233.903 75.7949C235.11 75.8385 236.295 76.1252 237.389 76.6379V78.605L237.44 78.5794Z" fill="#302D2D"/>
</g>
<defs>
<clipPath id="clip0">
<rect width="238" height="86" fill="white"/>
</clipPath>
</defs>
</svg>
