<svg width="256" height="135" viewBox="0 0 256 135" fill="none" xmlns="http://www.w3.org/2000/svg">
<g clip-path="url(#clip0)">
<path d="M98.8201 123.534L98.7774 133.743L99.5217 133.871C101.865 134.308 104.231 134.612 106.609 134.781C108.691 134.974 110.784 135.016 112.872 134.904C114.867 134.76 116.839 134.388 118.75 133.795C120.992 133.161 123.071 132.052 124.847 130.544C126.445 129.178 127.668 127.425 128.398 125.453C129.669 122.151 129.644 118.49 128.326 115.206C127.633 113.501 126.541 111.988 125.141 110.793C123.788 109.574 122.199 108.647 120.471 108.072L112.772 105.228C111.851 104.837 111.102 104.125 110.667 103.223C110.5 102.854 110.42 102.45 110.435 102.045C110.45 101.639 110.558 101.243 110.752 100.887C110.89 100.633 111.062 100.4 111.264 100.195C111.501 99.9551 111.765 99.745 112.051 99.569C112.165 99.4995 112.282 99.4331 112.402 99.3699C113.266 98.9495 114.196 98.6847 115.152 98.5878C116.782 98.3527 118.439 98.3703 120.063 98.64C121.981 98.848 123.882 99.1885 125.752 99.659L126.15 99.7491V90.3073L125.416 90.1509C123.508 89.6903 121.575 89.3421 119.627 89.1082C117.101 88.771 114.542 88.7598 112.014 89.075C108.808 89.3681 105.759 90.5941 103.243 92.6014C101.538 93.9396 100.241 95.7273 99.498 97.7631C98.3822 100.865 98.3822 104.259 99.498 107.361C100.073 108.903 100.994 110.293 102.191 111.423C103.228 112.424 104.401 113.275 105.675 113.95C107.353 114.851 109.132 115.55 110.975 116.03C111.582 116.214 112.187 116.406 112.791 116.609L113.701 116.945L113.962 117.049C114.862 117.371 115.684 117.878 116.375 118.538C116.855 118.986 117.225 119.539 117.456 120.154C117.596 120.717 117.596 121.307 117.456 121.87C117.167 122.778 116.534 123.537 115.692 123.984C114.775 124.462 113.779 124.773 112.753 124.903C111.249 125.141 109.723 125.218 108.202 125.131C106.208 124.981 104.225 124.717 102.262 124.339C101.235 124.131 100.214 123.892 99.1993 123.624L98.8201 123.529" fill="#C82027"/>
<path d="M56.9501 133.369V121.52L56.7178 121.619C54.0494 122.912 51.1464 123.651 48.1845 123.79C45.102 124.031 42.0387 123.129 39.58 121.254C37.8243 119.899 36.5189 118.046 35.8348 115.936C35.0807 113.638 34.9936 111.172 35.5836 108.826C36.1262 106.43 37.4627 104.287 39.3762 102.745C41.0801 101.32 43.1624 100.423 45.3685 100.162C49.2677 99.7304 53.2072 100.47 56.6846 102.285L56.9406 102.418V90.4927L56.4002 90.3457C52.9188 89.2247 49.2633 88.743 45.6103 88.9238C42.2828 89.0086 39.0058 89.758 35.9723 91.1278C32.9113 92.5299 30.2126 94.6152 28.0837 97.2232C24.8475 101.318 23.0513 106.365 22.9734 111.583C22.8954 116.801 24.5399 121.899 27.6523 126.089C30.8031 130.115 35.2246 132.955 40.1963 134.147C45.4377 135.421 50.9288 135.23 56.0683 133.592L56.9406 133.355" fill="#C82027"/>
<path d="M83.6171 134.156V89.6914H72.4053V134.156H83.6171Z" fill="#C82027"/>
<path d="M249.577 128.989V128.316H244.831V128.989H246.803V134.156H247.6V128.989H249.577Z" fill="#C82027"/>
<path d="M250.036 134.156H250.795V129.492H250.894L252.601 134.156H253.359L255.204 129.269V134.156H256V128.316H254.767L253.037 133.127L251.288 128.316H250.036V134.156Z" fill="#C82027"/>
<path d="M0 53.9579C0.108111 55.354 0.73913 56.6579 1.76697 57.609C2.79481 58.5602 4.14376 59.0886 5.5443 59.0886C6.94483 59.0886 8.29379 58.5602 9.32162 57.609C10.3495 56.6579 10.9805 55.354 11.0886 53.9579V41.6343C11.0159 40.2128 10.3998 38.8734 9.36754 37.8931C8.33526 36.9129 6.96574 36.3666 5.54204 36.3672C4.11835 36.3678 2.7493 36.9153 1.71786 37.8964C0.686415 38.8776 0.0714274 40.2174 0 41.6391L0 53.9627" fill="#12393D"/>
<path d="M30.6963 53.9577C30.8044 55.3538 31.4354 56.6577 32.4633 57.6088C33.4911 58.56 34.8401 59.0884 36.2406 59.0884C37.6411 59.0884 38.9901 58.56 40.0179 57.6088C41.0458 56.6577 41.6768 55.3538 41.7849 53.9577V26.334C41.7128 24.9124 41.0973 23.5728 40.0654 22.592C39.0336 21.6113 37.6643 21.0645 36.2406 21.0645C34.8169 21.0645 33.4476 21.6113 32.4157 22.592C31.3839 23.5728 30.7683 24.9124 30.6963 26.334V53.9577Z" fill="#12393D"/>
<path d="M61.2314 65.0871C61.3396 66.4832 61.9706 67.7871 62.9984 68.7382C64.0262 69.6894 65.3752 70.2178 66.7757 70.2178C68.1763 70.2178 69.5252 69.6894 70.5531 68.7382C71.5809 67.7871 72.2119 66.4832 72.32 65.0871V5.332C72.248 3.9104 71.6324 2.57081 70.6006 1.59009C69.5687 0.609373 68.1994 0.0625 66.7757 0.0625C65.352 0.0625 63.9828 0.609373 62.9509 1.59009C61.919 2.57081 61.3035 3.9104 61.2314 5.332V65.0871Z" fill="#12393D"/>
<path d="M91.9229 53.9577C92.031 55.3538 92.662 56.6577 93.6898 57.6088C94.7177 58.56 96.0666 59.0884 97.4671 59.0884C98.8677 59.0884 100.217 58.56 101.244 57.6088C102.272 56.6577 102.903 55.3538 103.011 53.9577V26.334C102.939 24.9124 102.324 23.5728 101.292 22.592C100.26 21.6113 98.8908 21.0645 97.4671 21.0645C96.0435 21.0645 94.6742 21.6113 93.6423 22.592C92.6104 23.5728 91.9949 24.9124 91.9229 26.334V53.9577Z" fill="#12393D"/>
<path d="M122.482 53.9583C122.591 55.3544 123.222 56.6583 124.249 57.6095C125.277 58.5606 126.626 59.089 128.027 59.089C129.427 59.089 130.776 58.5606 131.804 57.6095C132.832 56.6583 133.463 55.3544 133.571 53.9583V41.6347C133.499 40.2131 132.883 38.8735 131.852 37.8928C130.82 36.9121 129.45 36.3652 128.027 36.3652C126.603 36.3652 125.234 36.9121 124.202 37.8928C123.17 38.8735 122.554 40.2131 122.482 41.6347V53.9583Z" fill="#12393D"/>
<path d="M153.149 53.9577C153.258 55.3538 153.889 56.6577 154.916 57.6088C155.944 58.56 157.293 59.0884 158.694 59.0884C160.094 59.0884 161.443 58.56 162.471 57.6088C163.499 56.6577 164.13 55.3538 164.238 53.9577V26.334C164.166 24.9124 163.55 23.5728 162.519 22.592C161.487 21.6113 160.117 21.0645 158.694 21.0645C157.27 21.0645 155.901 21.6113 154.869 22.592C153.837 23.5728 153.221 24.9124 153.149 26.334V53.9577Z" fill="#12393D"/>
<path d="M183.694 65.0871C183.802 66.4832 184.433 67.7871 185.461 68.7382C186.489 69.6894 187.838 70.2178 189.239 70.2178C190.639 70.2178 191.988 69.6894 193.016 68.7382C194.044 67.7871 194.675 66.4832 194.783 65.0871V5.332C194.711 3.9104 194.095 2.57081 193.063 1.59009C192.032 0.609373 190.662 0.0625 189.239 0.0625C187.815 0.0625 186.446 0.609373 185.414 1.59009C184.382 2.57081 183.766 3.9104 183.694 5.332V65.0871Z" fill="#12393D"/>
<path d="M214.339 53.9577C214.447 55.3538 215.078 56.6577 216.106 57.6088C217.134 58.56 218.483 59.0884 219.883 59.0884C221.284 59.0884 222.633 58.56 223.66 57.6088C224.688 56.6577 225.319 55.3538 225.427 53.9577V26.334C225.355 24.9124 224.74 23.5728 223.708 22.592C222.676 21.6113 221.307 21.0645 219.883 21.0645C218.459 21.0645 217.09 21.6113 216.058 22.592C215.026 23.5728 214.411 24.9124 214.339 26.334V53.9577Z" fill="#12393D"/>
<path d="M244.911 53.9583C245.019 55.3544 245.65 56.6583 246.678 57.6095C247.706 58.5606 249.055 59.089 250.455 59.089C251.856 59.089 253.205 58.5606 254.233 57.6095C255.261 56.6583 255.892 55.3544 256 53.9583V41.6347C255.928 40.2131 255.312 38.8735 254.28 37.8928C253.248 36.9121 251.879 36.3652 250.455 36.3652C249.032 36.3652 247.662 36.9121 246.631 37.8928C245.599 38.8735 244.983 40.2131 244.911 41.6347V53.9583Z" fill="#12393D"/>
<path d="M174.113 133.369V121.52L173.881 121.619C171.212 122.912 168.309 123.651 165.347 123.79C162.266 124.03 159.205 123.127 156.748 121.254C154.992 119.899 153.686 118.046 153.002 115.936C152.248 113.638 152.161 111.172 152.751 108.826C153.294 106.43 154.63 104.287 156.544 102.745C158.248 101.32 160.33 100.423 162.536 100.162C166.437 99.7297 170.378 100.469 173.857 102.285L174.113 102.418V90.4927L173.572 90.3457C170.091 89.2247 166.436 88.743 162.783 88.9238C159.448 89.0092 156.164 89.7618 153.126 91.1373C150.065 92.5398 147.366 94.625 145.237 97.2327C142.001 101.327 140.205 106.374 140.127 111.592C140.049 116.811 141.693 121.909 144.806 126.098C147.956 130.124 152.378 132.964 157.35 134.156C162.591 135.431 168.082 135.239 173.222 133.601L174.094 133.364" fill="#C82027"/>
<path d="M185.927 111.94C185.981 115.41 186.806 118.824 188.343 121.936C189.88 125.047 192.09 127.778 194.813 129.93C197.536 132.082 200.703 133.601 204.086 134.378C207.469 135.155 210.982 135.17 214.371 134.421C218.919 133.563 223.099 131.342 226.355 128.053C229.612 124.765 231.791 120.564 232.604 116.008C233.417 111.453 232.826 106.757 230.908 102.546C228.99 98.3339 225.837 94.8048 221.866 92.4264C218.334 90.2408 214.287 89.0282 210.135 88.9116C205.983 88.795 201.874 89.7786 198.225 91.7626C194.575 93.7466 191.516 96.6604 189.357 100.208C187.198 103.756 186.016 107.812 185.932 111.964L185.927 111.94ZM202.211 102.845C204.325 101.156 206.96 100.253 209.665 100.289C212.371 100.325 214.98 101.297 217.049 103.041C219.118 104.785 220.518 107.192 221.01 109.852C221.503 112.512 221.058 115.261 219.751 117.63C218.443 119.998 216.355 121.841 213.842 122.843C211.328 123.845 208.545 123.944 205.967 123.124C203.388 122.305 201.173 120.616 199.7 118.347C198.227 116.078 197.587 113.368 197.888 110.68C198.233 107.598 199.788 104.78 202.211 102.845Z" fill="#C82027"/>
</g>
<defs>
<clipPath id="clip0">
<rect width="256" height="135" fill="white"/>
</clipPath>
</defs>
</svg>
