<svg width="280" height="94" viewBox="0 0 280 94" fill="none" xmlns="http://www.w3.org/2000/svg">
<g clip-path="url(#clip0)">
<path d="M0 0V94H280V0H0Z" fill="#4BC0E2"/>
<path d="M121.977 31.6797C117.843 31.6797 113.139 33.6108 110.264 37.4758L110.266 37.4689L110.264 37.4716L110.266 32.286H100.401V68.4649H110.264V47.8802C110.264 44.1744 113.116 40.2361 118.397 40.2361C122.479 40.2361 126.702 43.0947 126.702 47.8802V68.4649H136.567V46.0377C136.567 37.718 130.656 31.6797 121.977 31.6797Z" fill="white"/>
<path d="M206.675 32.2891L197.757 56.9339L188.839 32.2891H177.572L192.353 68.4541H203.161L217.942 32.2891H206.675Z" fill="white"/>
<path d="M70.9512 43.1878C72.6309 40.9162 75.3071 39.5831 78.5386 39.5831C82.0945 39.5831 84.7914 41.6277 86.1838 44.6441L68.9512 51.8453C68.4798 48.1506 69.4186 45.2601 70.9512 43.1878ZM89.9033 57.3424C85.7508 60.4363 83.3784 61.1755 79.5929 61.1755C76.1854 61.1755 73.5188 60.111 71.6371 58.2422L96.8557 47.7048C96.3059 43.7789 94.8269 40.2725 92.5493 37.6049C89.2353 33.7289 84.3309 31.6787 78.3613 31.6787C67.5135 31.6787 59.335 39.7381 59.335 50.3807C59.335 61.3001 67.5327 69.0813 79.4472 69.0813C86.1219 69.0813 92.9479 65.8946 96.1395 62.1722L89.9033 57.3424Z" fill="white"/>
<path d="M58.395 59.3438H35.9749V21.4678H25.9766V68.465H58.395V59.3438Z" fill="white"/>
<path d="M235.655 40.1922C230.146 40.1922 226.147 44.3963 226.147 50.3779C226.147 56.0882 230.383 60.5637 235.788 60.5637C241.297 60.5637 245.296 56.2432 245.296 50.3779C245.296 44.6663 241.061 40.1922 235.655 40.1922ZM235.655 69.0758C224.866 69.0758 216.414 60.9817 216.414 50.3779C216.414 39.8932 224.925 31.6787 235.788 31.6787C246.576 31.6787 255.026 39.7728 255.026 50.3779C255.026 60.8613 246.518 69.0758 235.655 69.0758Z" fill="white"/>
<path d="M159.708 40.1922C154.199 40.1922 150.2 44.3963 150.2 50.3779C150.2 56.0882 154.437 60.5637 159.841 60.5637C165.351 60.5637 169.351 56.2432 169.351 50.3779C169.351 44.6663 165.114 40.1922 159.708 40.1922ZM159.708 69.0758C148.919 69.0758 140.469 60.9817 140.469 50.3779C140.469 39.8932 148.979 31.6787 159.841 31.6787C170.629 31.6787 179.081 39.7728 179.081 50.3779C179.081 60.8613 170.571 69.0758 159.708 69.0758Z" fill="white"/>
<path d="M260.069 63.2568H261.126L262.688 65.7251L264.25 63.2568H265.275V68.4646H264.317V64.7616L262.721 67.2644H262.62L261.025 64.7616V68.4646H260.069V63.2568ZM256.374 64.1705H254.779V63.2568H258.961V64.1705H257.365V68.4646H256.374V64.1705Z" fill="white"/>
</g>
<defs>
<clipPath id="clip0">
<rect width="280" height="94" fill="white"/>
</clipPath>
</defs>
</svg>
