<svg width="280" height="58" viewBox="0 0 280 58" fill="none" xmlns="http://www.w3.org/2000/svg">
<g clip-path="url(#clip0)">
<path fill-rule="evenodd" clip-rule="evenodd" d="M0 7.27689L1.86759 1.12305H38.9108C43.4691 1.12305 46.6384 2.25125 48.4185 4.50766C51.8141 8.85638 55.2046 13.1436 58.5899 17.3692C61.9753 21.5948 63.5187 25.5179 63.2203 29.1384C63.2875 33.0803 61.9719 36.9219 59.5006 40C56.7635 43.8974 53.9081 47.9333 50.9343 52.1077C49.661 54.0693 47.956 55.7161 45.949 56.923C43.7765 57.7562 41.4507 58.118 39.1268 57.9846H0L1.69781 51.8307C2.72925 51.8354 3.76004 51.7789 4.78474 51.6615C5.71082 51.5282 6.17386 50.4102 6.17386 48.3077V9.5692C6.17386 8.18459 5.57191 7.46151 4.38344 7.41535L0 7.27689ZM45.9335 29.123C45.7468 27.6813 45.2176 26.3047 44.3901 25.1077C43.3868 23.3384 42.2138 21.4769 40.871 19.5692C39.5281 17.6615 38.1853 15.8154 36.8116 14.0923C35.438 12.3692 34.4038 11.1384 33.7247 10.3384C33.1537 9.43988 32.3656 8.69859 31.4325 8.1825C30.4995 7.66642 29.4514 7.39206 28.3843 7.38459C26.1154 7.29228 24.3096 7.24612 22.9513 7.27689V51.7846C25.1122 51.7846 27.1341 51.7846 29.0171 51.6154C30.0362 51.499 31.01 51.1315 31.8508 50.5459C32.6916 49.9604 33.3727 49.1753 33.8328 48.2615C34.4447 47.3282 35.1149 46.4341 35.8393 45.5846C37.1358 43.9692 38.5095 42.1077 40.0375 40.0154C41.5655 37.923 42.9083 35.8615 44.1431 33.8615C45.1262 32.4996 45.7475 30.9119 45.949 29.2461L45.9335 29.123Z" fill="#008995"/>
<path fill-rule="evenodd" clip-rule="evenodd" d="M88.6249 25.2764L84.5965 34.0764H66.9238L71.8166 25.2764H88.6249Z" fill="#008995"/>
<path fill-rule="evenodd" clip-rule="evenodd" d="M112.673 9.23074V49.5692C112.673 50.4769 113.707 51.1077 115.606 51.6769C117.645 52.1724 119.783 52.0925 121.779 51.4461C124.219 50.6329 126.365 49.1245 127.953 47.1077C129.836 44.8923 130.819 41.4923 130.901 36.9077L136.041 35.3692V58H89.7063L91.4041 51.8461C92.437 51.8502 93.4688 51.7783 94.491 51.6307C95.4017 51.4923 95.8338 50.4 95.8184 48.3692V9.5692C95.8807 9.09297 95.7543 8.61129 95.4661 8.22639C95.178 7.84149 94.7507 7.58368 94.2749 7.50766C92.7429 7.27834 91.1919 7.20104 89.6445 7.27689L91.5121 1.12305H121.702L119.881 7.27689C118.376 7.38971 116.864 7.38971 115.359 7.27689C113.815 7.18459 112.874 7.83074 112.704 9.26151L112.673 9.23074Z" fill="#008995"/>
<path fill-rule="evenodd" clip-rule="evenodd" d="M157.434 6.78399C157.988 7.55911 158.33 8.46518 158.424 9.41238C158.519 10.3596 158.364 11.315 157.974 12.184C157.072 14.0031 155.641 15.5095 153.868 16.5071C151.502 17.76 148.819 18.2948 146.151 18.0455C142.941 17.9071 141.135 17.5225 140.78 16.9071C140.425 16.2917 140.78 14.584 142.154 11.6917C143.133 9.19149 144.85 7.0459 147.077 5.53784C148.785 4.44922 150.777 3.88728 152.803 3.92245C153.757 3.96298 154.684 4.24754 155.495 4.74873C156.306 5.24993 156.974 5.95086 157.434 6.78399ZM158.298 21.7071V35.8609C158.298 40.4763 158.298 45.2609 158.298 49.9532C158.219 50.561 158.323 51.1786 158.598 51.7268C158.873 52.275 159.306 52.7288 159.842 53.0302C160.92 53.6861 162.159 54.0322 163.423 54.0301L162.265 57.9994H138.403L139.483 54.0763C140.193 54.1393 140.905 53.9881 141.527 53.6424C142.149 53.2967 142.652 52.7724 142.972 52.1378C143.382 51.3571 143.663 50.5156 143.805 49.6455V31.3225C143.975 29.784 143.512 28.9994 142.416 28.8148C141.32 28.6301 139.962 28.4301 138.372 28.2609L139.916 23.0609C142.862 23.1857 145.797 22.6164 148.482 21.3994C151.416 20.1564 154.556 19.4678 157.743 19.3686C158.159 19.7071 158.329 19.9378 158.267 20.1071C158.187 20.6168 158.187 21.1358 158.267 21.6455L158.298 21.7071Z" fill="#008995"/>
<path fill-rule="evenodd" clip-rule="evenodd" d="M191.56 29.7076C189.893 30.1583 188.381 31.0578 187.192 32.3076C186.174 33.4461 185.371 34.3691 184.785 35.1076V49.7538C184.763 50.3902 184.886 51.0233 185.145 51.6058C185.403 52.1883 185.79 52.7051 186.277 53.1177C186.763 53.5303 187.337 53.8281 187.955 53.9889C188.574 54.1496 189.22 54.1692 189.847 54.0461L188.69 58.0153H164.75L165.831 54.0922C168.702 53.723 170.153 52.2614 170.153 49.6614V31.3384C170.153 29.7999 169.674 28.9691 168.717 28.7076C167.398 28.4248 166.053 28.2753 164.704 28.2614L166.248 23.0614C169.376 22.9087 172.462 22.281 175.4 21.1999C178.201 20.147 181.147 19.5295 184.136 19.3691C184.325 19.4659 184.48 19.6157 184.584 19.7999C184.762 20.415 184.793 21.0628 184.677 21.6922C184.677 22.3845 184.677 23.0614 184.677 23.723C184.677 24.3845 184.677 25.0614 184.677 25.7076C184.633 26.189 184.68 26.6742 184.815 27.1384C184.908 27.2461 185.263 27.1384 185.834 26.923L193.181 23.0768C196.224 21.6376 199.465 20.6577 202.797 20.1691C208.518 20.3127 211.682 22.5897 212.289 26.9999V49.2307C212.462 50.2278 212.824 51.1832 213.354 52.0461C213.833 52.7845 215.777 53.3384 219.142 53.723L216.734 57.9845H202.195C199.216 58.0614 197.719 56.8307 197.719 54.2614V34.3691C197.684 33.6251 197.457 32.9027 197.059 32.2719C196.662 31.6412 196.107 31.1235 195.45 30.7691C194.913 30.3314 194.288 30.013 193.617 29.8352C192.946 29.6575 192.245 29.6244 191.56 29.7384V29.7076Z" fill="#008995"/>
<path fill-rule="evenodd" clip-rule="evenodd" d="M241.753 1.23047V33.9382L255.043 20.092H269.551L268.394 24.1843C265.168 24.1074 263.192 24.492 262.498 25.3228L257.404 30.3843L252.373 35.3843L269.845 51.092C271.306 53.1433 274.691 53.7587 280.001 52.9382L278.457 57.9997H258.392L241.831 42.3843V49.9536C241.797 50.4548 241.872 50.9573 242.051 51.4271C242.229 51.8969 242.507 52.323 242.865 52.6766C244.077 53.4747 245.475 53.9464 246.924 54.0459L245.797 58.0151H221.843L222.954 54.092C224.179 53.8141 225.334 53.2906 226.35 52.5536C226.949 51.6898 227.272 50.6653 227.276 49.6151V12.4766C227.276 11.1843 226.813 10.4305 225.887 10.1382C224.584 9.80561 223.258 9.57415 221.92 9.44585L223.371 4.33816L241.753 1.26124V1.23047Z" fill="#008995"/>
<path fill-rule="evenodd" clip-rule="evenodd" d="M267.281 8.03029H268.084L269.936 11.3841H271.958L269.921 7.89183C270.19 7.90255 270.459 7.85489 270.709 7.75212C270.958 7.64935 271.182 7.49391 271.365 7.29651C271.549 7.09912 271.687 6.86445 271.771 6.60868C271.854 6.3529 271.881 6.08209 271.85 5.8149C271.85 3.98413 270.631 3.4149 268.562 3.4149H265.584V11.3995H267.297V8.03029H267.281ZM267.281 4.76875H268.47C269.118 4.76875 270.013 4.76875 270.013 5.64567C270.013 6.5226 269.566 6.67644 268.794 6.67644H267.25V4.76875H267.281ZM275.971 7.4149C275.971 5.44006 275.184 3.5461 273.783 2.14968C272.382 0.753253 270.482 -0.03125 268.501 -0.03125C266.519 -0.03125 264.619 0.753253 263.218 2.14968C261.817 3.5461 261.03 5.44006 261.03 7.4149C261.03 9.38975 261.817 11.2837 263.218 12.6801C264.619 14.0766 266.519 14.8611 268.501 14.8611C270.482 14.8611 272.382 14.0766 273.783 12.6801C275.184 11.2837 275.971 9.38975 275.971 7.4149ZM273.826 7.4149C273.881 8.1459 273.785 8.88052 273.543 9.57272C273.301 10.2649 272.918 10.8998 272.418 11.4375C271.918 11.9752 271.312 12.4042 270.638 12.6976C269.964 12.991 269.236 13.1424 268.501 13.1424C267.765 13.1424 267.038 12.991 266.364 12.6976C265.689 12.4042 265.084 11.9752 264.584 11.4375C264.084 10.8998 263.701 10.2649 263.458 9.57272C263.216 8.88052 263.12 8.1459 263.176 7.4149C263.12 6.68391 263.216 5.94929 263.458 5.25709C263.701 4.56489 264.084 3.93003 264.584 3.39231C265.084 2.85459 265.689 2.4256 266.364 2.13222C267.038 1.83885 267.765 1.68741 268.501 1.68741C269.236 1.68741 269.964 1.83885 270.638 2.13222C271.312 2.4256 271.918 2.85459 272.418 3.39231C272.918 3.93003 273.301 4.56489 273.543 5.25709C273.785 5.94929 273.881 6.68391 273.826 7.4149Z" fill="#008995"/>
</g>
<defs>
<clipPath id="clip0">
<rect width="280" height="58" fill="white"/>
</clipPath>
</defs>
</svg>
