<svg width="188" height="154" viewBox="0 0 188 154" fill="none" xmlns="http://www.w3.org/2000/svg">
<g clip-path="url(#clip0)">
<path fill-rule="evenodd" clip-rule="evenodd" d="M0 0H187.09V153.76H0V0Z" fill="#F47A3F"/>
<path fill-rule="evenodd" clip-rule="evenodd" d="M154.41 108.91V88.4103H143.83V99.6303C143.83 101.074 143.256 102.459 142.235 103.48C141.214 104.502 139.829 105.075 138.385 105.075C136.941 105.075 135.556 104.502 134.535 103.48C133.514 102.459 132.94 101.074 132.94 99.6303V44.5303H122.37V108.92L154.41 108.91Z" fill="white"/>
<path fill-rule="evenodd" clip-rule="evenodd" d="M75 97.6998C75 104.1 70.83 109.88 59 109.88C47.17 109.88 43 102.35 43 97.6998V88.4098H53.5V99.6298C53.5013 100.349 53.6448 101.062 53.9223 101.725C54.1998 102.389 54.6057 102.992 55.1169 103.498C55.628 104.005 56.2342 104.405 56.9006 104.677C57.567 104.948 58.2805 105.085 59 105.08C60.4526 105.061 61.8392 104.47 62.858 103.434C63.8768 102.399 64.4454 101.003 64.44 99.5498V44.5498H75V97.6998Z" fill="white"/>
<path fill-rule="evenodd" clip-rule="evenodd" d="M114.68 65.9998V54.9998C114.68 47.8698 108.19 44.5098 104.11 44.5098H83V108.9H104.14C112.07 108.9 114.71 103.77 114.71 100.49V81.2098C114.71 78.4898 111.91 74.8798 107.71 74.8798C111.88 74.8798 114.71 69.1998 114.71 65.9898L114.68 65.9998ZM100 103.65H93.54V77.6498H100C104.16 77.6498 104.16 80.6498 104.16 90.6998C104.16 100.75 104.16 103.61 100 103.61V103.65ZM99.35 72.2498H93.54V50.6098H99.31C103.16 50.6098 104.12 51.4198 104.12 61.4998C104.12 71.5798 103.12 72.2498 99.31 72.2498H99.35Z" fill="white"/>
<path fill-rule="evenodd" clip-rule="evenodd" d="M48.2098 69.1602C46.9994 69.1602 45.8162 69.5191 44.8098 70.1916C43.8033 70.864 43.0189 71.8198 42.5557 72.9381C42.0925 74.0564 41.9713 75.2869 42.2074 76.4741C42.4436 77.6613 43.0265 78.7517 43.8824 79.6076C44.7382 80.4635 45.8287 81.0464 47.0159 81.2826C48.2031 81.5187 49.4336 81.3975 50.5519 80.9343C51.6701 80.4711 52.626 79.6867 53.2984 78.6802C53.9709 77.6738 54.3298 76.4906 54.3298 75.2802C54.3298 74.4765 54.1715 73.6806 53.864 72.9381C53.5564 72.1956 53.1056 71.521 52.5373 70.9527C51.969 70.3844 51.2944 69.9336 50.5519 69.626C49.8094 69.3184 49.0135 69.1602 48.2098 69.1602Z" fill="white"/>
<path fill-rule="evenodd" clip-rule="evenodd" d="M38.4404 44.5303L48.2104 66.7903L57.9804 44.5303H38.4404Z" fill="white"/>
</g>
<defs>
<clipPath id="clip0">
<rect width="187.09" height="153.76" fill="white"/>
</clipPath>
</defs>
</svg>
