<svg width="150" height="31" viewBox="0 0 150 31" fill="none" xmlns="http://www.w3.org/2000/svg">
<g clip-path="url(#clip0)">
<path fill-rule="evenodd" clip-rule="evenodd" d="M11.8259 22.0631C13.0538 24.0578 14.7739 25.7069 16.8227 26.8536C18.8715 28.0002 21.1809 28.6063 23.5315 28.6142C30.7472 28.6142 34.756 22.3902 34.756 22.3902L35.2771 24.042C31.9258 28.3828 25.9367 31 19.2421 31C11.5292 31 4.87466 27.3375 1.81196 22.0551C0.636165 20.0665 0.0109503 17.8033 0 15.496C0 6.94209 8.61083 0 19.2421 0C26.7465 0 32.7917 3.19176 35.9586 7.83578L23.3631 15.3364L30.5789 4.35676C28.5264 3.07207 26.0009 1.86718 23.3631 1.86718C19.793 1.90071 16.3797 3.33198 13.8619 5.85125C11.3441 8.37052 9.92426 11.7752 9.90967 15.3284C9.90862 17.7056 10.5691 20.0366 11.8178 22.0631H11.8259Z" fill="#ED1C24"/>
<path fill-rule="evenodd" clip-rule="evenodd" d="M45.5391 22.0555C45.3836 23.0735 45.5449 24.1146 46.0015 25.0387C46.458 25.9628 47.1879 26.7257 48.093 27.2247C48.998 27.7238 50.0349 27.9351 51.0642 27.8303C52.0936 27.7255 53.066 27.3096 53.8508 26.6385C54.6356 25.9674 55.1951 25.0733 55.4542 24.0764C55.7134 23.0794 55.6596 22.0274 55.3002 21.0617C54.9407 20.0961 54.2929 19.2631 53.4437 18.6747C52.5946 18.0864 51.5848 17.7708 50.5501 17.7705C49.3402 17.7783 48.1724 18.2133 47.2547 18.998C46.337 19.7827 45.729 20.8662 45.5391 22.0555ZM64.3402 22.0555L66.8577 30.4977H58.0384L56.2906 24.7365C55.1281 28.064 51.1995 30.5216 46.5413 30.5216C40.929 30.5216 36.4392 27.0107 36.4392 22.6858C36.4392 22.4864 36.4392 22.2789 36.4392 22.0794C36.8401 18.0418 41.1936 14.858 46.5092 14.858C49.2739 14.8068 51.9642 15.7503 54.0858 17.5152L51.6805 9.53577H41.5704C41.5704 9.53577 43.2942 8.46653 50.7425 5.76151C58.1908 3.05649 60.596 9.47991 60.596 9.47991L64.3482 22.0555H64.3402Z" fill="#ED1C24"/>
<path fill-rule="evenodd" clip-rule="evenodd" d="M92.5865 22.0547V30.4969H83.4946V11.9687C83.4993 11.3881 83.2985 10.8242 82.9275 10.3761C82.5565 9.92787 82.0389 9.62388 81.4653 9.51732C80.8918 9.41076 80.2988 9.50843 79.7903 9.79323C79.2818 10.078 78.8902 10.5318 78.6841 11.075V30.4969H69.7526V9.47118H64.5732C64.5732 9.47118 71.789 5.10645 74.3226 5.10645C75.4412 5.11481 76.5147 5.54676 77.3248 6.31451C78.1349 7.08226 78.621 8.12821 78.6841 9.23978C82.1878 7.36462 85.6594 5.10645 88.0406 5.10645C89.2243 5.10598 90.3616 5.56508 91.2105 6.38614C92.0595 7.20719 92.5531 8.32544 92.5865 9.5031V22.0547Z" fill="#ED1C24"/>
<path fill-rule="evenodd" clip-rule="evenodd" d="M106.594 22.0554L107.86 26.2206C107.881 27.0772 108.239 27.8913 108.857 28.4881C109.474 29.085 110.303 29.4168 111.164 29.4124C112.05 29.4124 112.901 29.0618 113.528 28.4378C114.155 27.8138 114.507 26.9674 114.507 26.085C114.514 25.9574 114.514 25.8295 114.507 25.702L113.432 22.0474L109.656 9.20053C109.565 8.38586 109.176 7.63322 108.562 7.08692C107.948 6.54062 107.153 6.2391 106.329 6.24017C105.466 6.30126 104.648 6.64904 104.007 7.22778C103.366 7.80651 102.938 8.5827 102.793 9.43194L106.618 22.0075L106.594 22.0554ZM121.025 22.0554C119.995 25.1692 117.823 27.7824 114.944 29.3745C112.064 30.9666 108.688 31.4206 105.487 30.6462C102.286 29.8718 99.4962 27.9257 97.6724 25.1957C95.8487 22.4657 95.1252 19.1521 95.6461 15.915C96.167 12.6779 97.8941 9.75485 100.483 7.72824C103.073 5.70162 106.334 4.72014 109.618 4.97931C112.901 5.23848 115.966 6.71927 118.202 9.12672C120.438 11.5342 121.681 14.6915 121.683 17.9699C121.683 19.3579 121.461 20.737 121.025 22.0554Z" fill="#ED1C24"/>
<path fill-rule="evenodd" clip-rule="evenodd" d="M136.106 22.0547V30.4969H127.19V9.47118H122.203C122.203 9.47118 129.226 5.10645 131.736 5.10645C132.855 5.11481 133.928 5.54676 134.738 6.31451C135.548 7.08226 136.034 8.12821 136.098 9.23978C139.601 7.36462 143.073 5.10645 145.454 5.10645C146.638 5.10598 147.775 5.56508 148.624 6.38614C149.473 7.20719 149.966 8.32544 150 9.5031V30.4889H140.908V11.9687C140.913 11.3881 140.712 10.8242 140.341 10.3761C139.97 9.92787 139.452 9.62388 138.879 9.51732C138.305 9.41076 137.712 9.50843 137.204 9.79323C136.695 10.078 136.304 10.5318 136.098 11.075V22.0547H136.106Z" fill="#ED1C24"/>
</g>
<defs>
<clipPath id="clip0">
<rect width="150" height="31" fill="white"/>
</clipPath>
</defs>
</svg>
