<svg width="150" height="25" viewBox="0 0 150 25" fill="none" xmlns="http://www.w3.org/2000/svg">
<g clip-path="url(#clip0)">
<path fill-rule="evenodd" clip-rule="evenodd" d="M46.448 5.13602C46.0035 2.90261 44.2089 1.77367 41.9998 1.77367C38.2335 1.77367 36.6353 4.86942 36.6353 8.15832C36.6353 11.7628 38.2307 14.7688 42.0216 14.7688C44.7925 14.7688 46.3853 12.8237 46.5871 10.2149H48.6925C48.308 14.1458 45.848 16.5397 41.858 16.5397C36.9489 16.5397 34.5435 12.9135 34.5435 8.3161C34.5435 3.71872 37.1589 0 42.0353 0C45.338 0 48.0625 1.76823 48.5507 5.12786L46.448 5.13602ZM148.284 2.58433H148.473C148.685 2.58433 148.868 2.50544 148.868 2.3123C148.868 2.16812 148.764 2.04026 148.473 2.04026C148.41 2.03535 148.347 2.03535 148.284 2.04026V2.58433ZM148.284 3.48749H148.012V1.85528C148.164 1.83018 148.318 1.81745 148.473 1.81719C148.65 1.80399 148.828 1.84681 148.98 1.93961C149.031 1.97922 149.071 2.03071 149.097 2.08955C149.123 2.14838 149.135 2.21274 149.13 2.27693C149.13 2.36906 149.098 2.45834 149.04 2.53004C148.982 2.60174 148.901 2.6516 148.811 2.67138C148.953 2.69586 149.051 2.82644 149.083 3.06583C149.097 3.2045 149.132 3.34025 149.187 3.46844H148.914C148.854 3.33722 148.817 3.1963 148.805 3.05223C148.801 3.01082 148.789 2.97065 148.769 2.93421C148.749 2.89777 148.721 2.86582 148.688 2.84033C148.655 2.81484 148.618 2.79636 148.577 2.78602C148.537 2.77568 148.495 2.77369 148.453 2.7802H148.271L148.284 3.48749ZM148.557 1.40642C148.238 1.41567 147.936 1.55055 147.717 1.78153C147.498 2.0125 147.379 2.32073 147.387 2.63874C147.376 2.79906 147.398 2.95992 147.452 3.11133C147.506 3.26274 147.591 3.40147 147.701 3.5189C147.811 3.63634 147.944 3.72997 148.092 3.79398C148.239 3.858 148.399 3.89103 148.56 3.89103C148.721 3.89103 148.88 3.858 149.028 3.79398C149.176 3.72997 149.309 3.63634 149.419 3.5189C149.529 3.40147 149.613 3.26274 149.667 3.11133C149.721 2.95992 149.744 2.79906 149.733 2.63874C149.738 2.48073 149.711 2.32328 149.655 2.17543C149.599 2.02758 149.514 1.89226 149.406 1.77723C149.297 1.66221 149.166 1.56975 149.022 1.50518C148.877 1.44061 148.721 1.4052 148.563 1.40098L148.557 1.40642ZM148.557 1.17791C148.748 1.17789 148.937 1.21574 149.114 1.28925C149.29 1.36275 149.45 1.47046 149.584 1.60611C149.718 1.74177 149.824 1.90266 149.896 2.07946C149.967 2.25626 150.002 2.44544 150 2.63602C150 3.01876 149.847 3.38583 149.576 3.65647C149.305 3.92712 148.937 4.07916 148.553 4.07916C148.169 4.07916 147.801 3.92712 147.53 3.65647C147.259 3.38583 147.106 3.01876 147.106 2.63602C147.105 2.44515 147.142 2.25595 147.214 2.07927C147.287 1.90259 147.393 1.7419 147.528 1.60643C147.663 1.47096 147.823 1.36338 148 1.28984C148.176 1.2163 148.366 1.17827 148.557 1.17791ZM145.595 4.73613H147.878V6.39554H145.595V13.4902C145.595 14.3526 145.841 14.5076 147.013 14.5076H147.878V16.167H146.438C144.488 16.167 143.711 15.7699 143.711 13.6698V6.39554H141.761V4.73613H143.711V1.31121H145.595V4.73613ZM131.212 4.73613H132.984V6.5506H133.028C133.824 5.13602 135.112 4.47225 136.751 4.47225C139.764 4.47225 140.694 6.19695 140.694 8.64527V16.1643H138.818V8.43308C138.818 7.04298 137.932 6.13711 136.492 6.13711C134.209 6.13711 133.102 7.66322 133.102 9.71436V16.1643H131.217L131.212 4.73613ZM126.957 4.73613H128.842V16.1616H126.954L126.957 4.73613ZM128.842 2.67954H126.954V0.383569H128.839L128.842 2.67954ZM119.621 14.7715C121.593 14.7715 123.188 13.2236 123.188 10.4597C123.188 7.69587 121.593 6.12894 119.621 6.12894C117.649 6.12894 116.053 7.67682 116.053 10.4597C116.053 13.2427 117.646 14.7715 119.621 14.7715ZM119.621 4.47225C123.256 4.47225 125.184 7.10283 125.184 10.457C125.184 13.8112 123.256 16.4255 119.621 16.4255C115.985 16.4255 114.057 13.7949 114.057 10.457C114.057 7.11915 115.985 4.47225 119.621 4.47225ZM104.048 7.9407H108.172C110.544 7.96246 111.63 6.92601 111.63 5.04625C111.63 3.16649 110.539 2.1518 108.172 2.1518H104.048V7.9407ZM101.945 0.383569H108.883C112.028 0.383569 113.727 2.12731 113.727 5.04625C113.727 7.96518 112.02 9.73069 108.875 9.70892H104.048V16.1643H101.945V0.383569ZM85.1889 0.383569H87.0735V9.73069L92.3044 4.73613H94.8298L90.2725 8.8901L95.1489 16.1616H92.7544L88.8435 10.1931L87.0707 11.8254V16.1643H85.1862L85.1889 0.383569ZM81.5098 8.40316C81.2207 6.96953 80.2253 6.12894 78.6735 6.12894C75.9462 6.12894 75.1035 8.26986 75.1035 10.5903C75.1035 12.6904 76.0553 14.7688 78.4498 14.7688C80.2662 14.7688 81.3516 13.7078 81.5971 11.9831H83.5253C83.1026 14.7688 81.3435 16.4282 78.4716 16.4282C74.9698 16.4282 73.1071 13.9962 73.1071 10.5903C73.1071 7.18444 74.8798 4.46953 78.5153 4.46953C81.1089 4.46953 83.1926 5.68553 83.4571 8.40044L81.5098 8.40316ZM69.818 9.35528C69.728 7.56801 68.378 6.13167 66.5153 6.13167C64.5435 6.13167 63.368 7.61425 63.2425 9.35528H69.818ZM71.6344 12.5381C71.1244 15.0598 69.308 16.4309 66.7253 16.4309C63.068 16.4309 61.3389 13.9119 61.2298 10.4162C61.2298 6.99402 63.4907 4.47225 66.6162 4.47225C70.6716 4.47225 71.9126 8.2481 71.798 11.0011H63.2453C63.1798 13.0033 64.3089 14.7715 66.818 14.7715C68.3698 14.7715 69.4553 14.0207 69.788 12.5381H71.6344ZM50.4544 0.383569H52.3389V6.4173H52.3825C53.0016 5.05713 54.6216 4.47225 55.9962 4.47225C59.0098 4.47225 59.9398 6.19695 59.9398 8.64527V16.1643H58.058V8.43308C58.058 7.04298 57.1716 6.13711 55.7316 6.13711C53.4489 6.13711 52.3389 7.66322 52.3389 9.71436V16.1643H50.4544V0.383569Z" fill="black"/>
<path fill-rule="evenodd" clip-rule="evenodd" d="M38.3045 21.3604C38.2282 20.6504 37.7591 20.3458 37.0691 20.3458C36.5236 20.3458 35.9536 20.5471 35.9536 21.1945C35.9536 21.8419 36.75 21.8991 37.5518 22.0786C38.3536 22.2582 39.1418 22.5384 39.1418 23.5122C39.1418 24.5705 38.1027 24.9948 37.1973 24.9948C36.0791 24.9948 35.1382 24.4508 35.1382 23.2402H35.7655C35.7655 24.0754 36.4636 24.4372 37.2164 24.4372C37.8164 24.4372 38.4791 24.2495 38.4791 23.534C38.4791 22.8186 37.6855 22.7342 36.8891 22.5601C36.0927 22.386 35.2909 22.1548 35.2909 21.2435C35.2909 20.2342 36.1909 19.7881 37.0991 19.7881C38.1164 19.7881 38.8936 20.2669 38.9345 21.3604H38.3045ZM148.732 24.8751H149.504V24.1026H148.732V24.8751ZM144.742 24.3311H145.833C146.285 24.3311 147.507 24.2059 147.507 22.3751C147.507 21.1918 147.068 20.4709 145.846 20.4709H144.731L144.742 24.3311ZM144.079 19.9187H145.789C147.325 19.9187 148.181 20.6858 148.181 22.2854C148.181 23.9475 147.447 24.8887 145.789 24.8887H144.079V19.9187ZM140.94 20.4763H139.279V19.9051H143.264V20.4627H141.603V24.8751H140.94V20.4763ZM136.216 19.9187H136.879V24.3175H139.516V24.8615H136.216V19.9187ZM132.322 21.3713C132.243 20.6613 131.776 20.3566 131.086 20.3566C130.541 20.3566 129.971 20.5579 129.971 21.2054C129.971 21.8528 130.767 21.91 131.569 22.0895C132.371 22.269 133.159 22.5492 133.159 23.5231C133.159 24.5813 132.12 25.0057 131.212 25.0057C130.096 25.0057 129.155 24.4616 129.155 23.2511H129.783C129.783 24.0862 130.481 24.448 131.234 24.448C131.834 24.448 132.496 24.2603 132.496 23.5449C132.496 22.8294 131.7 22.7451 130.906 22.571C130.113 22.3969 129.311 22.1657 129.311 21.2544C129.311 20.2451 130.211 19.799 131.116 19.799C132.136 19.799 132.911 20.2777 132.955 21.3713H132.322ZM124.909 19.9051H128.348V20.4627H125.577V22.0351H128.163V22.5792H125.577V24.2984H128.373V24.8425H124.909V19.9051ZM122.866 19.9051H123.545V24.8751H122.883L122.866 19.9051ZM121.004 24.2576C120.814 24.4971 120.571 24.6886 120.293 24.8167C120.015 24.9448 119.711 25.0058 119.405 24.9948C117.919 24.9948 117.033 23.7843 117.033 22.4894C117.033 21.0422 117.826 19.7908 119.405 19.7908C120.496 19.7908 121.358 20.2777 121.546 21.4393H120.884C120.75 20.6885 120.145 20.3512 119.405 20.3512C118.197 20.3512 117.695 21.3958 117.695 22.4595C117.695 23.5231 118.295 24.4426 119.405 24.4426C119.623 24.4578 119.84 24.4256 120.044 24.3484C120.247 24.2712 120.431 24.1508 120.583 23.9955C120.735 23.8402 120.852 23.6537 120.924 23.4491C120.997 23.2445 121.024 23.0265 121.004 22.8104H119.414V22.2663H121.595V24.8833H121.178L121.004 24.2576ZM113.817 24.4399C115.031 24.4399 115.541 23.3953 115.541 22.3942C115.541 21.3931 115.031 20.3485 113.817 20.3485C112.604 20.3485 112.091 21.3904 112.091 22.3915C112.091 23.3925 112.606 24.4372 113.82 24.4372L113.817 24.4399ZM113.817 19.7908C115.402 19.7908 116.204 21.0422 116.204 22.3942C116.204 23.7462 115.402 24.9975 113.817 24.9975C112.233 24.9975 111.431 23.7462 111.431 22.3942C111.431 21.0422 112.235 19.7881 113.82 19.7881L113.817 19.7908ZM107.692 19.9078H108.355V24.3175H111V24.8615H107.7L107.692 19.9078ZM104.296 24.4372C105.51 24.4372 106.02 23.3925 106.02 22.3915C106.02 21.3904 105.51 20.3458 104.296 20.3458C103.083 20.3458 102.573 21.3904 102.573 22.3915C102.573 23.3925 103.091 24.4372 104.296 24.4372ZM104.296 19.7881C105.878 19.7881 106.683 21.0394 106.683 22.3915C106.683 23.7435 105.878 24.9948 104.296 24.9948C102.715 24.9948 101.91 23.7435 101.91 22.3915C101.91 21.0394 102.715 19.7881 104.296 19.7881ZM96.8809 19.9051H97.5845L100.208 23.9393H100.222V19.9051H100.849V24.8751H100.124L97.5218 20.8871V24.8751H96.8918L96.8809 19.9051ZM91.5845 19.9051H92.2473V22.0351H94.8709V19.9051H95.5336V24.8751H94.8709V22.5982H92.2473V24.8751H91.5845V19.9051ZM89.7845 21.4013C89.6455 20.6994 89.0809 20.343 88.3909 20.343C87.2045 20.343 86.7027 21.3169 86.7027 22.3561C86.7027 23.4905 87.2045 24.4372 88.3964 24.4372C89.2691 24.4372 89.76 23.8251 89.8336 23.0035H90.4964C90.3709 24.2413 89.5964 24.9948 88.3418 24.9948C86.7927 24.9948 86.04 23.855 86.04 22.4051C86.04 20.9551 86.8582 19.7881 88.3991 19.7881C89.4382 19.7881 90.3082 20.3322 90.45 21.4013H89.7845ZM81.7555 19.9051H85.1945V20.4627H82.4182V22.0351H85.0064V22.5792H82.4182V24.2984H85.2164V24.8425H81.7555V19.9051ZM78.6164 20.4627H76.9555V19.9051H80.94V20.4627H79.2791V24.8751H78.6164V20.4627ZM70.7536 19.9051H74.1818V20.4627H71.4164V22.0351H74.0045V22.5792H71.4164V24.2984H74.2145V24.8425H70.7509L70.7536 19.9051ZM67.7536 22.1956C68.3755 22.1956 68.9045 22.0351 68.9045 21.3115C68.9148 21.1946 68.8988 21.0769 68.8575 20.967C68.8162 20.8571 68.7508 20.7578 68.6661 20.6765C68.5814 20.5951 68.4794 20.5336 68.3678 20.4966C68.2561 20.4597 68.1376 20.4481 68.0209 20.4627H66.3845V22.1956H67.7536ZM65.7109 19.9051H68.0536C68.9891 19.9051 69.5673 20.4138 69.5673 21.2081C69.5673 21.8066 69.2945 22.2962 68.7027 22.4676V22.4839C69.2809 22.5955 69.4009 23.028 69.4473 23.5068C69.4936 23.9856 69.4473 24.5351 69.7418 24.867H69C68.8118 24.6657 68.9155 24.1298 68.8173 23.6428C68.7191 23.1559 68.6291 22.7451 67.9991 22.7451H66.3791V24.867H65.7164L65.7109 19.9051ZM61.7836 22.8213H63.4718L62.6536 20.5035L61.7836 22.8213ZM62.28 19.9051H63L64.9473 24.8751H64.2136L63.6682 23.3789H61.56L61.0145 24.8751H60.3327L62.28 19.9051ZM59.1164 24.8751H58.4264L57.2891 20.6994H57.2727L56.1218 24.8751H55.4318L54.1555 19.9051H54.8318L55.8082 24.04H55.8218L56.9373 19.9051H57.6573L58.7482 24.04L59.76 19.9051H60.4227L59.1164 24.8751ZM51.24 20.4655H49.5791V19.9051H53.5636V20.4627H51.9027V24.8751H51.24V20.4655ZM45.7855 19.9078H49.0582V20.4655H46.4482V22.0351H48.7364V22.5792H46.4482V24.8561H45.7855V19.9078ZM42.3164 24.4372C43.53 24.4372 44.04 23.3925 44.04 22.3915C44.04 21.3904 43.5327 20.3458 42.3164 20.3458C41.1 20.3458 40.5927 21.3904 40.5927 22.3915C40.5927 23.3925 41.1027 24.4372 42.3164 24.4372ZM42.3164 19.7881C43.9009 19.7881 44.7027 21.0394 44.7027 22.3915C44.7027 23.7435 43.9009 24.9948 42.3164 24.9948C40.7318 24.9948 39.93 23.7435 39.93 22.3915C39.93 21.0394 40.7318 19.7881 42.3164 19.7881Z" fill="black"/>
<path d="M28.5409 0H0V25H28.5409V0Z" fill="#E79197"/>
<path fill-rule="evenodd" clip-rule="evenodd" d="M18.5449 15.3809C17.9558 15.4626 16.7994 15.5768 16.2431 15.6339C15.7358 15.6856 15.1876 15.7101 14.6067 15.7428C14.0967 15.7727 13.5676 15.7428 13.0276 15.7428C12.4814 15.7562 11.9348 15.7353 11.3912 15.6802C10.8393 15.6065 10.2927 15.4975 9.75488 15.3537C9.13851 15.2776 8.66397 15.166 8.14851 15.0545C7.77737 14.9616 7.40004 14.8952 7.01942 14.8559C6.96636 14.7764 6.91984 14.6927 6.88033 14.6056C6.64544 14.1076 6.4556 13.5895 6.31306 13.0578C6.13477 12.3683 5.99276 11.6701 5.8876 10.9658C5.85017 10.6976 5.77583 10.4358 5.6667 10.1878C5.56347 9.75694 5.52215 9.31362 5.54397 8.87116C5.51942 8.32709 5.49215 7.04036 5.51942 6.50445C5.52437 6.00969 5.59405 5.51768 5.7267 5.04091C5.87794 4.50976 6.08166 3.99491 6.33488 3.50391C6.48579 3.09318 6.68441 2.70151 6.9267 2.33688C7.25397 1.90435 7.33306 1.7248 7.49942 1.56702C7.54936 1.5459 7.6015 1.53039 7.65488 1.52078C8.05851 1.3902 8.42397 1.34668 8.63397 1.28411C8.68306 1.28411 8.9067 1.30315 8.94215 1.30315L10.4776 1.34396C10.9303 1.34396 11.4567 1.39564 12.0321 1.40924C12.5476 1.40924 13.104 1.42557 13.6685 1.43645C14.1894 1.43645 14.7267 1.42012 15.2612 1.43645C15.7549 1.43645 16.2458 1.48269 16.7231 1.48269C17.2003 1.48269 17.7376 1.46365 18.2012 1.46093C18.7276 1.46093 19.2103 1.43645 19.6303 1.42012C20.0977 1.42156 20.5648 1.39704 21.0294 1.34668C21.4308 1.2565 21.84 1.20548 22.2512 1.19434C22.3215 1.21715 22.3891 1.24724 22.4531 1.28411C22.6897 1.40597 22.9159 1.54699 23.1294 1.70576C23.094 2.45004 23.1013 3.19572 23.1512 3.93917C23.2031 4.42067 23.2876 4.96474 23.3612 5.52513C23.4349 6.08552 23.4649 6.47453 23.5385 6.98596C23.6121 7.49738 23.8112 8.2346 23.8631 8.64809C23.9776 9.39618 24.0103 8.99357 24.1167 9.61925C24.1945 10.1695 24.2445 10.7234 24.2667 11.2787C24.2934 12.0117 24.2523 12.7457 24.144 13.4713C24.0567 14.0153 23.8276 14.4451 23.6476 14.5213C23.2104 14.6523 22.7636 14.7487 22.3112 14.8097C21.7003 14.9076 21.7494 14.8342 21.384 14.9076C20.7867 15.0241 20.1812 15.0941 19.5731 15.1171C18.9649 15.1742 19.4312 15.2232 18.7221 15.3211C18.6785 15.3211 18.6049 15.3701 18.5449 15.3809Z" fill="#3F3A86"/>
<path fill-rule="evenodd" clip-rule="evenodd" d="M8.52024 2.44879C8.73296 1.98361 8.91569 2.01625 9.36297 1.98633C9.69947 1.99282 10.0346 2.03107 10.3639 2.10058C10.5836 2.09526 10.8033 2.11534 11.0184 2.16043C11.268 2.21879 11.5213 2.25969 11.7766 2.28285C12.1121 2.33453 13.1402 2.55488 13.5248 2.59841C13.9093 2.64193 14.2584 2.8242 14.6402 2.8514C15.0221 2.8786 15.3766 2.90853 15.7475 2.92757C16.1184 2.94661 16.4893 2.95749 16.8384 2.96565C17.1875 2.97381 17.5939 2.89764 17.943 2.8922C18.2921 2.88676 18.6848 2.81875 18.9984 2.79699C19.3424 2.7771 19.6833 2.72149 20.0157 2.63105C20.3745 2.52186 20.7548 2.50225 21.123 2.57392C21.2987 2.58931 21.4671 2.6511 21.6109 2.75294C21.7547 2.85478 21.8687 2.99299 21.9411 3.15336C22.0666 3.42539 21.9902 3.69743 22.0639 4.19253C22.0993 4.4292 21.9875 4.82637 21.9821 5.31059C21.9821 5.63976 21.9821 6.00972 21.9984 6.39873C22.0148 6.78774 22.0557 7.13323 22.0639 7.51408C22.0721 7.89493 22.0639 8.25945 22.0775 8.6267C22.0911 8.99395 22.1075 9.39112 22.1184 9.74204C22.1184 10.1365 22.1402 10.501 22.1511 10.8111C22.1757 11.4477 22.2684 11.2899 22.2084 11.8748C22.1539 12.4189 22.3257 12.5086 21.8184 12.9058C21.5458 13.1377 21.2112 13.2852 20.8557 13.3302C20.7193 13.3302 20.3675 13.4526 19.8439 13.5832C19.5548 13.6539 19.2139 13.7301 18.8321 13.8144C18.5239 13.8851 18.1693 13.9341 17.8093 14.0048C17.4493 14.0756 17.1493 14.1028 16.7921 14.1599C16.4348 14.217 16.1184 14.2252 15.7721 14.2687C15.4257 14.3122 15.1039 14.2687 14.763 14.3068C14.4221 14.3449 14.1275 14.3639 13.803 14.3775C13.5302 14.3775 13.803 14.4646 13.6666 14.5108C13.3421 14.6169 13.2521 14.5788 12.633 14.5679C12.3221 14.5679 12.0139 14.5679 11.6321 14.5435C11.3021 14.5244 10.9339 14.4945 10.5875 14.4564C10.2411 14.4183 9.90842 14.3149 9.5866 14.2524C9.24231 14.2186 8.90124 14.1577 8.5666 14.0701C8.25331 13.9843 7.97601 13.8002 7.77569 13.5451C7.66382 13.1931 7.60589 12.8262 7.60387 12.457C7.57933 12.155 7.60387 11.8013 7.60387 11.4151C7.60387 11.0941 7.54115 10.7513 7.55206 10.3895C7.56296 10.0277 7.55206 9.70124 7.5766 9.34487C7.60115 8.9885 7.60933 8.66478 7.63387 8.3193C7.65842 7.97381 7.75387 7.63921 7.78387 7.29917C7.81387 6.95913 7.8766 6.61908 7.91206 6.28992C7.94751 5.96076 7.93933 5.61799 7.97478 5.30243C8.01024 4.98687 8.10296 4.62779 8.1466 4.32311C8.19842 3.94498 8.16296 3.59677 8.21206 3.31658C8.24208 3.00653 8.3479 2.70856 8.52024 2.44879Z" fill="white"/>
<path fill-rule="evenodd" clip-rule="evenodd" d="M25.9962 21.902C25.4376 22.0681 24.8582 22.1542 24.2753 22.1577C23.9098 22.1577 23.378 22.204 22.7207 22.2312C22.2544 22.2502 21.7689 22.1686 21.1935 22.2013C20.7244 22.2285 20.2198 22.2203 19.6935 22.2557C19.1671 22.291 18.6244 22.3563 18.0571 22.3971C17.5471 22.4379 17.258 22.3754 16.7289 22.4216C16.1998 22.4679 15.7771 22.2938 15.2317 22.3454C14.738 22.3917 13.8844 22.4026 13.3907 22.4543C12.8971 22.5059 12.2998 22.7073 11.8089 22.7644C11.318 22.8215 10.8762 22.7861 10.3853 22.8514C9.89439 22.9167 9.29439 23.0854 8.80893 23.1588C8.32348 23.2323 7.8162 23.3193 7.36075 23.4009C6.90529 23.4826 6.40348 23.5397 5.99711 23.6349C5.59075 23.7301 5.27711 23.8552 4.97439 23.9477C4.41016 24.128 3.83305 24.2653 3.24802 24.3585C2.30711 24.4918 1.88439 24.2987 1.62802 23.9205C1.41121 23.5043 1.28394 23.0475 1.25439 22.5794C1.21526 22.2973 1.16063 22.0176 1.09075 21.7415C0.946205 20.969 0.818023 20.4793 1.28166 19.9923C1.62271 19.6651 2.01992 19.4015 2.45439 19.2143C3.16893 18.8308 2.8853 18.8852 3.89984 18.4771C4.30075 18.3166 4.79439 18.1425 5.38075 17.9521C5.83348 17.8052 6.36257 17.7073 6.93257 17.5549C7.40439 17.4271 7.91439 17.3019 8.46802 17.1768C8.95893 17.0653 9.47166 16.9048 10.0307 16.8041C10.5253 16.7098 11.0471 16.6191 11.5962 16.5321C12.1253 16.4477 12.6871 16.3852 13.2626 16.309C13.778 16.241 14.318 16.192 14.8771 16.1322C15.3735 16.0805 15.8807 15.9853 16.4098 15.939C16.9389 15.8928 17.6371 15.939 18.1853 15.9091C18.668 15.8765 18.9844 15.7812 19.4944 15.754C20.0044 15.7268 20.5035 15.7214 21.0271 15.7024C21.5507 15.6833 22.0607 15.6724 22.598 15.6643C23.0453 15.6643 23.498 15.6316 23.9617 15.6289C24.7144 15.6289 25.448 15.6697 25.8271 15.9009C26.3971 16.2655 26.3317 16.4804 26.3535 17.1931C26.3807 18.0092 26.3044 17.6093 26.4353 18.4064C26.5744 19.266 26.5935 20.0168 26.6507 20.7649C26.6944 21.1703 26.4353 21.5076 25.9962 21.902Z" fill="#3F3A86"/>
<path fill-rule="evenodd" clip-rule="evenodd" d="M19.9089 4.83633V3.98214H19.0389V4.83633H19.9089ZM11.5389 6.3298L15.3298 6.89835L18.7853 5.76669L19.3062 5.47017L19.3307 5.39128H19.3553V5.03763H18.818V3.77539H20.0944V5.04579H19.5489V5.56538L19.4971 5.5953L19.4671 5.61435V5.62795L21.0516 7.55123L21.1634 7.68725L20.9889 7.7199L18.8071 8.13339L18.7689 7.92936L20.7898 7.54851L19.4044 5.86734L18.8862 7.54035L18.6871 7.48051L19.1889 5.8483L18.8698 5.95439L15.6216 7.79879L16.0662 9.07463L18.5834 7.79879L18.6762 7.98377L16.0525 9.31402L15.9462 9.36843L15.908 9.24873L15.8425 9.05559L14.0425 8.91957L14.0589 8.7101L15.5398 8.82164L14.6671 8.33197L13.9716 8.72643H13.9525L9.86163 10.0866L9.64072 10.16L9.73345 9.94514L11.1571 6.6236L11.348 6.70521L10.0089 9.84721L13.8707 8.55232L14.4544 8.22316L11.3834 6.5039L11.3289 6.47398V5.9027H10.808V4.62414H12.0844V5.9027H11.5389V6.3298ZM21.4116 9.70847V8.85428H20.5525V9.70847H21.4116ZM21.6216 8.75091V9.91794H20.3425V8.64482H20.828V8.28845H21.038V8.63937H21.6216V8.75091ZM16.6198 10.8102V9.95602H15.7634V10.8102H16.6198ZM16.8298 9.85265V11.017H15.5453V9.74656H16.0362V9.54525H16.2434V9.74656H16.8216L16.8298 9.85265ZM14.2634 10.5273V9.67311H13.4044V10.5273H14.2634ZM14.4734 9.56973V10.7368H13.1944V9.46636H13.718V9.26777H13.928V9.46636H14.4734V9.56973ZM9.46345 11.9174L9.85345 11.153L9.08709 10.764L8.69709 11.5257L9.46345 11.9174ZM10.0907 11.153L9.65436 12.0072L9.5589 12.1921L9.46618 12.1459L8.51436 11.6644L8.42163 11.6182L8.47072 11.5257L8.95618 10.579L9.00527 10.4865L9.09799 10.5327L9.46072 10.715L9.5889 10.4865L9.77163 10.5871L9.64618 10.8129L10.0498 11.017L10.1425 11.0632L10.0907 11.153ZM11.8771 5.69052V4.83905H11.018V5.69324L11.8771 5.69052ZM17.8771 6.28627L15.3844 7.10238H15.3353L11.9998 6.60999L14.6616 8.10347L15.368 7.70357L15.308 7.52947L15.5044 7.46146L15.5534 7.59748L17.8771 6.28627ZM14.8771 8.22044L15.7116 8.70466L15.4389 7.91576L14.8771 8.22044Z" fill="#3F3A86"/>
<path d="M19.4183 6.33256C19.6939 6.33256 19.9174 6.10968 19.9174 5.83474C19.9174 5.5598 19.6939 5.33691 19.4183 5.33691C19.1426 5.33691 18.9192 5.5598 18.9192 5.83474C18.9192 6.10968 19.1426 6.33256 19.4183 6.33256Z" fill="#DF3F54"/>
<path d="M13.8569 9.32586C14.1461 9.32586 14.3805 9.09202 14.3805 8.80356C14.3805 8.51509 14.1461 8.28125 13.8569 8.28125C13.5677 8.28125 13.3333 8.51509 13.3333 8.80356C13.3333 9.09202 13.5677 9.32586 13.8569 9.32586Z" fill="#DF3F54"/>
<path d="M15.3931 7.6445C15.6688 7.6445 15.8922 7.42284 15.8922 7.1494C15.8922 6.87596 15.6688 6.6543 15.3931 6.6543C15.1175 6.6543 14.894 6.87596 14.894 7.1494C14.894 7.42284 15.1175 7.6445 15.3931 7.6445Z" fill="#DF3F54"/>
<path d="M9.87531 10.6552C10.151 10.6552 10.3744 10.4336 10.3744 10.1601C10.3744 9.8867 10.151 9.66504 9.87531 9.66504C9.59967 9.66504 9.37622 9.8867 9.37622 10.1601C9.37622 10.4336 9.59967 10.6552 9.87531 10.6552Z" fill="#E5889D"/>
<path d="M18.7742 8.41111C19.0499 8.41111 19.2733 8.18944 19.2733 7.916C19.2733 7.64256 19.0499 7.4209 18.7742 7.4209C18.4986 7.4209 18.2751 7.64256 18.2751 7.916C18.2751 8.18944 18.4986 8.41111 18.7742 8.41111Z" fill="#E6879C"/>
<path d="M11.4163 7.06987C11.692 7.06987 11.9154 6.84698 11.9154 6.57204C11.9154 6.2971 11.692 6.07422 11.4163 6.07422C11.1407 6.07422 10.9172 6.2971 10.9172 6.57204C10.9172 6.84698 11.1407 7.06987 11.4163 7.06987Z" fill="#F0E525"/>
<path d="M20.8829 8.37065C21.1585 8.37065 21.382 8.14776 21.382 7.87282C21.382 7.59788 21.1585 7.375 20.8829 7.375C20.6072 7.375 20.3838 7.59788 20.3838 7.87282C20.3838 8.14776 20.6072 8.37065 20.8829 8.37065Z" fill="#F0E525"/>
<path d="M16.1678 9.60795C16.4434 9.60795 16.6669 9.38507 16.6669 9.11013C16.6669 8.83519 16.4434 8.6123 16.1678 8.6123C15.8922 8.6123 15.6687 8.83519 15.6687 9.11013C15.6687 9.38507 15.8922 9.60795 16.1678 9.60795Z" fill="#F0E525"/>
<path fill-rule="evenodd" clip-rule="evenodd" d="M5.27488 20.6013C5.34025 20.6021 5.40509 20.5895 5.46544 20.5645C5.52579 20.5394 5.58036 20.5023 5.62582 20.4554C5.67127 20.4085 5.70665 20.3529 5.72978 20.2919C5.75291 20.2309 5.76331 20.1659 5.76033 20.1007C5.76637 19.9648 5.71902 19.832 5.62836 19.7304C5.5377 19.6287 5.41089 19.5664 5.27488 19.5566C5.20947 19.5628 5.14592 19.5817 5.08787 19.6124C5.02982 19.6431 4.97842 19.6849 4.93662 19.7355C4.89481 19.786 4.86342 19.8443 4.84424 19.907C4.82507 19.9697 4.81849 20.0355 4.82488 20.1007C4.81842 20.1637 4.82522 20.2273 4.84485 20.2875C4.86448 20.3477 4.89651 20.4031 4.93888 20.4503C4.98125 20.4974 5.03302 20.5352 5.09088 20.5612C5.14875 20.5872 5.21142 20.6008 5.27488 20.6013Z" fill="white"/>
<path fill-rule="evenodd" clip-rule="evenodd" d="M8.18168 22.0481C8.24797 22.05 8.31395 22.0383 8.37554 22.0138C8.43713 21.9893 8.49304 21.9524 8.5398 21.9055C8.58657 21.8586 8.6232 21.8027 8.64745 21.7411C8.67169 21.6795 8.68303 21.6137 8.68077 21.5476C8.67877 21.4852 8.66407 21.4239 8.63758 21.3675C8.61109 21.311 8.57335 21.2605 8.52666 21.219C8.47997 21.1775 8.42531 21.1459 8.36601 21.1262C8.3067 21.1064 8.24398 21.0989 8.18168 21.1041C8.1207 21.1 8.05952 21.1085 8.00193 21.1289C7.94434 21.1493 7.89155 21.1813 7.84683 21.2228C7.8021 21.2644 7.76639 21.3146 7.7419 21.3705C7.7174 21.4263 7.70464 21.4866 7.70441 21.5476C7.69895 22.2032 8.05623 22.0345 8.18168 22.0481Z" fill="white"/>
<path fill-rule="evenodd" clip-rule="evenodd" d="M6.54521 22.3942C6.67937 22.388 6.80615 22.3311 6.89985 22.2351C6.99354 22.1392 7.04713 22.0112 7.04976 21.8773C7.04548 21.7474 6.99018 21.6244 6.89579 21.5348C6.80139 21.4453 6.67548 21.3963 6.54521 21.3985C6.48339 21.3984 6.4222 21.4109 6.36542 21.4353C6.30864 21.4597 6.25746 21.4954 6.21504 21.5402C6.17263 21.5851 6.13987 21.6381 6.11879 21.6961C6.09771 21.7541 6.08876 21.8157 6.09248 21.8773C6.08804 21.9409 6.09624 22.0048 6.11661 22.0652C6.13698 22.1257 6.16912 22.1815 6.21118 22.2295C6.25325 22.2776 6.30441 22.3168 6.36174 22.3451C6.41906 22.3733 6.48141 22.39 6.54521 22.3942Z" fill="white"/>
<path fill-rule="evenodd" clip-rule="evenodd" d="M12.9439 20.3261C13.0785 20.3206 13.206 20.2641 13.3002 20.168C13.3945 20.072 13.4485 19.9437 13.4511 19.8093C13.4481 19.7466 13.4324 19.6851 13.405 19.6286C13.3776 19.5721 13.3391 19.5216 13.2918 19.4803C13.2444 19.4389 13.1892 19.4074 13.1295 19.3878C13.0697 19.3681 13.0066 19.3607 12.9439 19.3659C12.6711 19.3659 12.3466 19.4747 12.4639 19.8229C12.5457 20.0786 12.6739 20.3261 12.9439 20.3261Z" fill="white"/>
<path fill-rule="evenodd" clip-rule="evenodd" d="M10.1728 20.9118C10.2325 20.9115 10.2915 20.8993 10.3465 20.8761C10.4015 20.8529 10.4513 20.8191 10.4931 20.7767C10.5349 20.7342 10.5679 20.6839 10.5902 20.6286C10.6124 20.5734 10.6235 20.5143 10.6228 20.4548C10.6232 20.3962 10.6117 20.3382 10.5891 20.2842C10.5665 20.2301 10.5332 20.1812 10.4912 20.1403C10.4492 20.0994 10.3993 20.0674 10.3446 20.0462C10.2899 20.025 10.2315 20.015 10.1728 20.0168C10.1163 20.0163 10.0604 20.0274 10.0085 20.0496C9.9566 20.0719 9.90992 20.1046 9.87143 20.1458C9.83294 20.187 9.80348 20.2358 9.78494 20.289C9.76639 20.3422 9.75916 20.3987 9.76371 20.4548C9.75887 20.5119 9.76576 20.5695 9.78397 20.6239C9.80217 20.6783 9.83131 20.7284 9.86961 20.7712C9.9079 20.8139 9.95454 20.8485 10.0067 20.8727C10.0588 20.8968 10.1153 20.9102 10.1728 20.9118Z" fill="white"/>
<path fill-rule="evenodd" clip-rule="evenodd" d="M8.86626 20.549C9.13899 20.6061 9.33535 20.3232 9.33535 20.0539C9.33754 19.9907 9.32707 19.9277 9.30458 19.8686C9.28208 19.8095 9.24801 19.7554 9.20434 19.7096C9.16067 19.6637 9.10828 19.627 9.05024 19.6016C8.99219 19.5762 8.92965 19.5626 8.86626 19.5615C8.73726 19.5637 8.61436 19.6167 8.52442 19.7089C8.43447 19.8012 8.3848 19.9252 8.38626 20.0539C8.38626 20.3205 8.37808 20.4402 8.86626 20.549Z" fill="white"/>
<path fill-rule="evenodd" clip-rule="evenodd" d="M11.7659 18.8007C12.0386 18.8007 12.2459 18.73 12.2459 18.4634C12.2368 18.3338 12.1778 18.2127 12.0812 18.1255C11.9846 18.0382 11.8579 17.9917 11.7277 17.9955C11.5979 17.9903 11.4714 18.0367 11.3758 18.1244C11.2802 18.2121 11.2234 18.334 11.2177 18.4634C11.2095 18.73 11.4959 18.8007 11.7659 18.8007Z" fill="white"/>
<path fill-rule="evenodd" clip-rule="evenodd" d="M13.143 18.0879C13.2743 18.0909 13.4015 18.0424 13.4973 17.9529C13.5932 17.8634 13.6501 17.74 13.6557 17.6091C13.6427 17.4833 13.5833 17.3667 13.4891 17.282C13.3949 17.1973 13.2726 17.1504 13.1457 17.1504C13.0189 17.1504 12.8966 17.1973 12.8024 17.282C12.7082 17.3667 12.6488 17.4833 12.6357 17.6091C12.6407 17.7393 12.6966 17.8623 12.7914 17.9518C12.8863 18.0413 13.0125 18.0901 13.143 18.0879Z" fill="white"/>
<path fill-rule="evenodd" clip-rule="evenodd" d="M4.86068 22.4269C4.90792 22.4273 4.95476 22.4182 4.99834 22.4C5.04193 22.3818 5.08136 22.355 5.11426 22.3212C5.14715 22.2874 5.17282 22.2472 5.1897 22.2032C5.20659 22.1592 5.21434 22.1122 5.2125 22.0651C5.21775 21.9662 5.18382 21.8691 5.11802 21.7948C5.05222 21.7205 4.95981 21.675 4.86068 21.668C4.81306 21.6724 4.7668 21.6862 4.7246 21.7086C4.6824 21.7311 4.6451 21.7617 4.61489 21.7987C4.58467 21.8356 4.56215 21.8782 4.54862 21.924C4.5351 21.9697 4.53086 22.0177 4.53613 22.0651C4.53116 22.1107 4.53584 22.1567 4.54987 22.2003C4.56391 22.2439 4.58698 22.2841 4.61758 22.3182C4.64819 22.3523 4.68565 22.3796 4.72753 22.3984C4.76941 22.4171 4.81478 22.4268 4.86068 22.4269Z" fill="#F0E525"/>
<path fill-rule="evenodd" clip-rule="evenodd" d="M9.06002 18.5803C9.15703 18.5762 9.24881 18.5354 9.3167 18.4661C9.38459 18.3969 9.42349 18.3045 9.42548 18.2076C9.42262 18.1134 9.38269 18.024 9.3143 17.9588C9.24592 17.8937 9.15458 17.858 9.06002 17.8594C9.01469 17.8586 8.96967 17.8671 8.92782 17.8845C8.88598 17.902 8.84822 17.9279 8.81693 17.9606C8.78565 17.9933 8.76153 18.0322 8.7461 18.0747C8.73067 18.1172 8.72426 18.1625 8.72729 18.2076C8.72435 18.254 8.73064 18.3004 8.74581 18.3443C8.76097 18.3882 8.78472 18.4286 8.81566 18.4633C8.84661 18.4979 8.88414 18.5261 8.92609 18.5462C8.96803 18.5663 9.01355 18.5779 9.06002 18.5803Z" fill="#F0E525"/>
<path fill-rule="evenodd" clip-rule="evenodd" d="M7.41015 20.2502C7.60651 20.2502 7.75652 20.2013 7.75652 20.0054C7.75306 19.9575 7.74015 19.9107 7.71852 19.8678C7.69689 19.8249 7.66696 19.7866 7.63047 19.7553C7.59397 19.7239 7.55162 19.7001 7.50585 19.6851C7.46009 19.6702 7.41181 19.6644 7.36379 19.6681C7.31722 19.6663 7.27075 19.6736 7.22703 19.6897C7.18332 19.7058 7.14321 19.7304 7.10902 19.762C7.07482 19.7935 7.0472 19.8315 7.02774 19.8738C7.00828 19.916 6.99736 19.9617 6.99561 20.0081C7.00651 20.2013 7.21379 20.2502 7.41015 20.2502Z" fill="#F0E525"/>
<path fill-rule="evenodd" clip-rule="evenodd" d="M11.6999 21.1072C11.7948 21.1094 11.8867 21.0745 11.956 21.0099C12.0254 20.9453 12.0666 20.8562 12.0708 20.7617C12.0599 20.672 12.0164 20.5894 11.9485 20.5295C11.8807 20.4696 11.7933 20.4365 11.7027 20.4365C11.6121 20.4365 11.5246 20.4696 11.4568 20.5295C11.3889 20.5894 11.3454 20.672 11.3345 20.7617C11.338 20.8555 11.3783 20.9442 11.4466 21.0088C11.5149 21.0734 11.6058 21.1087 11.6999 21.1072Z" fill="#F0E525"/>
<path fill-rule="evenodd" clip-rule="evenodd" d="M18.6709 21.2817C18.8549 21.2782 19.0303 21.2031 19.1597 21.0725C19.2891 20.942 19.3623 20.7662 19.3637 20.5826C19.3581 20.3992 19.2818 20.2251 19.1507 20.0964C19.0197 19.9677 18.8439 19.8943 18.66 19.8916C18.5726 19.895 18.4867 19.9159 18.4075 19.953C18.3283 19.9901 18.2574 20.0427 18.1989 20.1076C18.1404 20.1726 18.0956 20.2485 18.067 20.331C18.0385 20.4135 18.0268 20.5009 18.0327 20.588C18.0283 20.6755 18.0414 20.763 18.0712 20.8454C18.101 20.9278 18.147 21.0035 18.2063 21.068C18.2657 21.1326 18.3374 21.1847 18.4171 21.2214C18.4969 21.2581 18.5832 21.2786 18.6709 21.2817Z" fill="#F0E525"/>
<path fill-rule="evenodd" clip-rule="evenodd" d="M17.861 18.9474C18.0479 18.9427 18.226 18.8673 18.3592 18.7364C18.4924 18.6056 18.5707 18.4291 18.5782 18.2428C18.5691 18.0605 18.489 17.8889 18.3551 17.7645C18.2212 17.64 18.0439 17.5726 17.861 17.5763C17.7737 17.5759 17.6873 17.593 17.6068 17.6265C17.5264 17.6601 17.4534 17.7094 17.3924 17.7715C17.3314 17.8337 17.2835 17.9074 17.2515 17.9884C17.2196 18.0693 17.2042 18.1558 17.2064 18.2428C17.2005 18.4226 17.2659 18.5974 17.3885 18.7293C17.511 18.8612 17.6808 18.9396 17.861 18.9474Z" fill="#F0E525"/>
<path fill-rule="evenodd" clip-rule="evenodd" d="M21.8735 19.1295C21.9604 19.1325 22.047 19.1179 22.1281 19.0866C22.2093 19.0553 22.2833 19.0081 22.3457 18.9476C22.408 18.8872 22.4576 18.8148 22.4912 18.7348C22.5249 18.6548 22.5421 18.5689 22.5416 18.4821C22.5418 18.3963 22.5243 18.3113 22.4903 18.2325C22.4563 18.1536 22.4064 18.0826 22.3438 18.0237C22.2812 17.9648 22.2072 17.9194 22.1263 17.8901C22.0454 17.8609 21.9593 17.8485 21.8735 17.8537C21.7899 17.8493 21.7064 17.8626 21.6284 17.8927C21.5504 17.9228 21.4797 17.9691 21.421 18.0285C21.3622 18.0879 21.3167 18.159 21.2875 18.2372C21.2584 18.3154 21.2461 18.3988 21.2516 18.4821C21.2459 18.5663 21.2579 18.6507 21.2867 18.73C21.3156 18.8094 21.3607 18.8818 21.4193 18.9427C21.4778 19.0037 21.5484 19.0518 21.6266 19.0839C21.7048 19.1161 21.7889 19.1316 21.8735 19.1295Z" fill="#F0E525"/>
<path fill-rule="evenodd" clip-rule="evenodd" d="M20.4547 20.4438C20.6389 20.4327 20.8119 20.3514 20.9377 20.2167C21.0636 20.0821 21.1328 19.9043 21.1311 19.7202C21.1299 19.6348 21.1111 19.5505 21.0758 19.4727C21.0406 19.3948 20.9897 19.325 20.9262 19.2676C20.8628 19.2102 20.7882 19.1664 20.7071 19.139C20.626 19.1116 20.5401 19.1011 20.4547 19.1082C20.2752 19.0922 20.0966 19.1476 19.9577 19.2621C19.8188 19.3767 19.7309 19.5413 19.7129 19.7202C19.7255 19.9108 19.8081 20.09 19.945 20.2236C20.0819 20.3571 20.2634 20.4356 20.4547 20.4438Z" fill="#F0E525"/>
</g>
<defs>
<clipPath id="clip0">
<rect width="150" height="25" fill="white"/>
</clipPath>
</defs>
</svg>
