<svg width="150" height="79" viewBox="0 0 150 79" fill="none" xmlns="http://www.w3.org/2000/svg">
<path d="M57.9024 72.2904L57.8774 78.265L58.3136 78.3398C59.6866 78.5956 61.0731 78.7734 62.4663 78.8724C63.6861 78.9855 64.9125 79.0096 66.1358 78.9445C67.305 78.8601 68.4606 78.6423 69.5802 78.2955C70.8937 77.924 72.1119 77.2751 73.1524 76.3927C74.0891 75.5932 74.8053 74.5677 75.233 73.4138C75.978 71.4813 75.9631 69.339 75.1913 67.4171C74.7851 66.4195 74.1449 65.5339 73.3247 64.8348C72.5324 64.1213 71.6008 63.5793 70.5886 63.2427L66.0774 61.5785C65.5375 61.3496 65.0992 60.9327 64.8441 60.4052C64.7459 60.189 64.6993 59.9529 64.7079 59.7156C64.7166 59.4784 64.7803 59.2463 64.8941 59.0378C64.9745 58.8893 65.0755 58.753 65.1941 58.6328C65.3324 58.4926 65.4873 58.3697 65.6552 58.2667C65.7219 58.226 65.7904 58.1872 65.8608 58.1502C66.3667 57.9042 66.9121 57.7493 67.4719 57.6926C68.427 57.555 69.3977 57.5652 70.3497 57.7231C71.4732 57.8448 72.587 58.0441 73.683 58.3194L73.9163 58.3721V52.8469L73.4858 52.7554C72.3682 52.4858 71.2357 52.2821 70.0941 52.1452C68.614 51.9479 67.1147 51.9414 65.633 52.1258C63.7549 52.2973 61.9682 53.0147 60.4941 54.1894C59.4951 54.9725 58.7351 56.0186 58.2997 57.2099C57.6459 59.0253 57.6459 61.0113 58.2997 62.8266C58.6367 63.729 59.1764 64.5422 59.8774 65.2037C60.4854 65.7894 61.1727 66.287 61.9191 66.6821C62.9022 67.2096 63.9447 67.6184 65.0247 67.8997C65.3802 68.007 65.7349 68.1198 66.0886 68.2381L66.6219 68.435L66.7747 68.496C67.3019 68.6842 67.7836 68.9809 68.1886 69.367C68.4698 69.6294 68.6865 69.9531 68.8219 70.3128C68.9042 70.6425 68.9042 70.9872 68.8219 71.3169C68.6529 71.8484 68.2819 72.2925 67.7886 72.5539C67.2508 72.8335 66.6677 73.0157 66.0663 73.092C65.1848 73.2313 64.2908 73.276 63.3997 73.2252C62.2315 73.1377 61.0694 72.983 59.9191 72.762C59.3173 72.6399 58.7191 72.5003 58.1247 72.3431L57.9024 72.2877" fill="#C82027"/>
<path d="M33.3693 78.0461V71.1119L33.2332 71.1702C31.6696 71.9267 29.9687 72.3589 28.2332 72.4405C26.427 72.5817 24.6321 72.0534 23.1915 70.9566C22.1627 70.1637 21.3979 69.079 20.9971 67.8445C20.5552 66.4995 20.5041 65.0569 20.8498 63.684C21.1678 62.2816 21.9509 61.0276 23.0721 60.1254C24.0704 59.2915 25.2906 58.7662 26.5832 58.6137C28.8679 58.3612 31.1762 58.7938 33.2137 59.8563L33.3637 59.934V52.9554L33.0471 52.8694C31.0072 52.2134 28.8653 51.9315 26.7248 52.0373C24.7751 52.0869 22.8551 52.5255 21.0776 53.3271C19.284 54.1476 17.7028 55.3678 16.4554 56.894C14.5591 59.2901 13.5067 62.2435 13.461 65.2971C13.4153 68.3507 14.3789 71.3342 16.2026 73.7858C18.0488 76.1415 20.6395 77.8035 23.5526 78.501C26.6237 79.247 29.8412 79.1347 32.8526 78.1765L33.3637 78.0378" fill="#C82027"/>
<path d="M48.994 78.5063V52.4863H42.4246V78.5063H48.994Z" fill="#C82027"/>
<path d="M146.237 75.4837V75.0898H143.456V75.4837H144.612V78.507H145.078V75.4837H146.237Z" fill="#C82027"/>
<path d="M146.505 78.507H146.95V75.7777H147.008L148.008 78.507H148.453L149.533 75.6474V78.507H150V75.0898H149.278L148.264 77.9051L147.239 75.0898H146.505V78.507Z" fill="#C82027"/>
<path d="M0 31.5761C0.0633461 32.393 0.433084 33.1561 1.03533 33.7127C1.63758 34.2693 2.42799 34.5784 3.24861 34.5784C4.06923 34.5784 4.85964 34.2693 5.46189 33.7127C6.06414 33.1561 6.43388 32.393 6.49722 31.5761V24.3645C6.45466 23.5326 6.09364 22.7488 5.48879 22.1752C4.88394 21.6016 4.08149 21.2819 3.24729 21.2822C2.41309 21.2826 1.61092 21.6029 1.00656 22.1771C0.402196 22.7513 0.041852 23.5353 0 24.3673L0 31.5788" fill="#12393D"/>
<path d="M17.9858 31.5758C18.0492 32.3928 18.4189 33.1558 19.0212 33.7124C19.6234 34.269 20.4138 34.5782 21.2344 34.5782C22.0551 34.5782 22.8455 34.269 23.4477 33.7124C24.05 33.1558 24.4197 32.3928 24.4831 31.5758V15.4108C24.4408 14.5789 24.0802 13.795 23.4756 13.2211C22.871 12.6472 22.0686 12.3271 21.2344 12.3271C20.4003 12.3271 19.5979 12.6472 18.9933 13.2211C18.3887 13.795 18.028 14.5789 17.9858 15.4108V31.5758Z" fill="#12393D"/>
<path d="M35.8782 38.0886C35.9415 38.9055 36.3113 39.6685 36.9135 40.2251C37.5158 40.7817 38.3062 41.0909 39.1268 41.0909C39.9474 41.0909 40.7378 40.7817 41.3401 40.2251C41.9423 39.6685 42.3121 38.9055 42.3754 38.0886V3.12075C42.3332 2.28885 41.9725 1.50493 41.3679 0.931033C40.7633 0.357132 39.961 0.0371094 39.1268 0.0371094C38.2926 0.0371094 37.4903 0.357132 36.8857 0.931033C36.2811 1.50493 35.9204 2.28885 35.8782 3.12075V38.0886Z" fill="#12393D"/>
<path d="M53.8613 31.5758C53.9247 32.3928 54.2944 33.1558 54.8967 33.7124C55.4989 34.269 56.2893 34.5782 57.1099 34.5782C57.9306 34.5782 58.721 34.269 59.3232 33.7124C59.9255 33.1558 60.2952 32.3928 60.3585 31.5758V15.4108C60.3163 14.5789 59.9557 13.795 59.3511 13.2211C58.7464 12.6472 57.9441 12.3271 57.1099 12.3271C56.2757 12.3271 55.4734 12.6472 54.8688 13.2211C54.2642 13.795 53.9035 14.5789 53.8613 15.4108V31.5758Z" fill="#12393D"/>
<path d="M71.7666 31.5765C71.8299 32.3934 72.1997 33.1565 72.8019 33.7131C73.4042 34.2697 74.1946 34.5788 75.0152 34.5788C75.8358 34.5788 76.6262 34.2697 77.2285 33.7131C77.8307 33.1565 78.2005 32.3934 78.2638 31.5765V24.3649C78.2216 23.533 77.8609 22.7491 77.2563 22.1752C76.6517 21.6013 75.8494 21.2812 75.0152 21.2813C74.181 21.2812 73.3787 21.6013 72.7741 22.1752C72.1695 22.7491 71.8088 23.533 71.7666 24.3649V31.5765Z" fill="#12393D"/>
<path d="M89.7356 31.5758C89.7989 32.3928 90.1687 33.1558 90.7709 33.7124C91.3732 34.269 92.1636 34.5782 92.9842 34.5782C93.8048 34.5782 94.5952 34.269 95.1975 33.7124C95.7997 33.1558 96.1695 32.3928 96.2328 31.5758V15.4108C96.1906 14.5789 95.8299 13.795 95.2253 13.2211C94.6207 12.6472 93.8184 12.3271 92.9842 12.3271C92.15 12.3271 91.3477 12.6472 90.7431 13.2211C90.1385 13.795 89.7778 14.5789 89.7356 15.4108V31.5758Z" fill="#12393D"/>
<path d="M107.634 38.0886C107.697 38.9055 108.067 39.6685 108.669 40.2251C109.271 40.7817 110.062 41.0909 110.882 41.0909C111.703 41.0909 112.493 40.7817 113.095 40.2251C113.698 39.6685 114.067 38.9055 114.131 38.0886V3.12075C114.089 2.28885 113.728 1.50493 113.123 0.931033C112.519 0.357132 111.716 0.0371094 110.882 0.0371094C110.048 0.0371094 109.246 0.357132 108.641 0.931033C108.036 1.50493 107.676 2.28885 107.634 3.12075V38.0886Z" fill="#12393D"/>
<path d="M125.589 31.5758C125.653 32.3928 126.022 33.1558 126.625 33.7124C127.227 34.269 128.017 34.5782 128.838 34.5782C129.659 34.5782 130.449 34.269 131.051 33.7124C131.654 33.1558 132.023 32.3928 132.087 31.5758V15.4108C132.044 14.5789 131.684 13.795 131.079 13.2211C130.474 12.6472 129.672 12.3271 128.838 12.3271C128.004 12.3271 127.201 12.6472 126.597 13.2211C125.992 13.795 125.632 14.5789 125.589 15.4108V31.5758Z" fill="#12393D"/>
<path d="M143.502 31.5765C143.566 32.3934 143.936 33.1565 144.538 33.7131C145.14 34.2697 145.93 34.5788 146.751 34.5788C147.572 34.5788 148.362 34.2697 148.964 33.7131C149.567 33.1565 149.936 32.3934 150 31.5765V24.3649C149.957 23.533 149.597 22.7491 148.992 22.1752C148.388 21.6013 147.585 21.2812 146.751 21.2813C145.917 21.2812 145.115 21.6013 144.51 22.1752C143.905 22.7491 143.545 23.533 143.502 24.3649V31.5765Z" fill="#12393D"/>
<path d="M102.019 78.0461V71.1119L101.883 71.1702C100.32 71.9267 98.6188 72.3589 96.8833 72.4405C95.0781 72.581 93.2843 72.0528 91.8444 70.9566C90.8156 70.1637 90.0507 69.079 89.6499 67.8445C89.208 66.4995 89.157 65.0569 89.5027 63.684C89.8207 62.2816 90.6037 61.0276 91.7249 60.1254C92.7233 59.2915 93.9434 58.7662 95.236 58.6137C97.5217 58.3608 99.831 58.7934 101.869 59.8563L102.019 59.934V52.9554L101.703 52.8694C99.6629 52.2134 97.5209 51.9315 95.3805 52.0373C93.4267 52.0873 91.5027 52.5277 89.7222 53.3326C87.9287 54.1534 86.3475 55.3736 85.0999 56.8996C83.2037 59.2957 82.1513 62.2491 82.1056 65.3027C82.0599 68.3562 83.0234 71.3397 84.8472 73.7913C86.6933 76.1471 89.284 77.8091 92.1972 78.5066C95.2682 79.2526 98.4857 79.1403 101.497 78.182L102.008 78.0434" fill="#C82027"/>
<path d="M108.941 65.5069C108.973 67.5373 109.457 69.5354 110.357 71.3561C111.258 73.1769 112.553 74.7748 114.148 76.0342C115.743 77.2935 117.599 78.1827 119.582 78.6372C121.564 79.0918 123.622 79.1004 125.608 78.6624C128.273 78.16 130.722 76.8604 132.63 74.936C134.538 73.0115 135.815 70.5533 136.291 67.8874C136.768 65.2214 136.421 62.4739 135.298 60.0092C134.174 57.5446 132.326 55.4794 130 54.0876C127.93 52.8086 125.559 52.099 123.126 52.0308C120.693 51.9626 118.285 52.5382 116.147 53.6992C114.009 54.8602 112.216 56.5653 110.951 58.6415C109.686 60.7176 108.994 63.091 108.944 65.5207L108.941 65.5069ZM118.483 60.1842C119.722 59.1961 121.265 58.6676 122.851 58.6886C124.436 58.7095 125.965 59.2787 127.177 60.2992C128.389 61.3197 129.21 62.7282 129.498 64.2849C129.787 65.8416 129.526 67.45 128.76 68.8362C127.994 70.2223 126.771 71.3004 125.298 71.8867C123.825 72.473 122.194 72.5313 120.684 72.0516C119.173 71.5719 117.875 70.5839 117.012 69.256C116.149 67.9281 115.773 66.3424 115.95 64.7691C116.152 62.9658 117.063 61.3166 118.483 60.1842Z" fill="#C82027"/>
</svg>
