<svg width="150" height="59" viewBox="0 0 150 59" fill="none" xmlns="http://www.w3.org/2000/svg">
<g clip-path="url(#clip0)">
<path d="M146.277 14.0176C147.013 14.0203 147.732 14.2413 148.343 14.6525C148.954 15.0638 149.429 15.6469 149.708 16.3281C149.987 17.0093 150.058 17.7581 149.912 18.4796C149.766 19.2012 149.409 19.8631 148.886 20.3818C148.363 20.9005 147.699 21.2526 146.976 21.3936C146.253 21.5346 145.505 21.4581 144.825 21.1739C144.146 20.8896 143.566 20.4104 143.16 19.7968C142.753 19.1831 142.537 18.4626 142.54 17.7264C142.541 17.2376 142.639 16.7539 142.828 16.3029C143.017 15.852 143.293 15.4426 143.64 15.0982C143.987 14.7538 144.398 14.4811 144.851 14.2957C145.303 14.1103 145.788 14.0158 146.277 14.0176ZM149.509 17.7264C149.509 17.0873 149.319 16.4625 148.964 15.931C148.609 15.3996 148.104 14.9854 147.514 14.7408C146.923 14.4962 146.273 14.4322 145.646 14.5569C145.019 14.6816 144.443 14.9894 143.991 15.4413C143.539 15.8933 143.231 16.4691 143.106 17.096C142.982 17.7228 143.046 18.3726 143.29 18.9631C143.535 19.5536 143.949 20.0583 144.481 20.4134C145.012 20.7684 145.637 20.958 146.277 20.958C147.133 20.9544 147.953 20.6128 148.558 20.0075C149.164 19.4022 149.505 18.5824 149.509 17.7264Z" fill="black"/>
<path d="M147.954 19.7713H147.3C147.276 19.5993 147.276 19.425 147.3 19.2531C147.3 18.3805 147.027 18.1487 146.277 18.1487H145.554V19.7713H144.899V15.6807H146.263C147.136 15.6807 148.022 15.8716 148.022 16.8669C148.022 17.5623 147.491 17.7941 147.013 17.8623C147.299 17.9029 147.556 18.0547 147.73 18.2847C147.904 18.5146 147.98 18.8039 147.941 19.0895C147.907 19.3159 147.911 19.5464 147.954 19.7713ZM147.231 16.8669C147.231 16.3897 146.836 16.1715 146.195 16.1715H145.472V17.726H146.195C146.863 17.726 147.231 17.3987 147.231 16.8669Z" fill="black"/>
<path d="M130.66 28.2658L141.353 44.86H130.292L125.164 35.8061L118.672 44.86H107.501L119.817 28.2249L110.379 14.126H121.659L125.3 20.6437L129.515 14.126H140.835L130.66 28.2658Z" fill="black"/>
<path d="M101.296 47.4505C102.436 47.4613 103.548 47.8097 104.49 48.4518C105.433 49.094 106.164 50.0009 106.591 51.0581C107.018 52.1153 107.122 53.2753 106.89 54.3916C106.658 55.5079 106.1 56.5304 105.287 57.3299C104.474 58.1294 103.442 58.6701 102.322 58.8836C101.201 59.0971 100.043 58.9739 98.9926 58.5296C97.9424 58.0852 97.0474 57.3396 96.4208 56.387C95.7942 55.4343 95.464 54.3174 95.4721 53.1773C95.4774 52.4187 95.6324 51.6686 95.9281 50.97C96.2239 50.2714 96.6546 49.6379 97.1955 49.106C97.7365 48.574 98.3771 48.1539 99.0807 47.8699C99.7843 47.5858 100.537 47.4433 101.296 47.4505Z" fill="black"/>
<path d="M85.243 32.616L94.6402 44.8878H83.0199L77.1552 35.7112V44.8605H67.9353V14.1265H80.0193C81.543 14.0345 83.0699 14.245 84.5119 14.7458C85.9538 15.2466 87.2824 16.0278 88.4208 17.0444C89.2845 17.9503 89.9567 19.0209 90.3972 20.1923C90.8378 21.3636 91.0377 22.6118 90.9849 23.8621C91.1035 25.7458 90.6079 27.6171 89.5727 29.1954C88.5374 30.7737 87.0182 31.9739 85.243 32.616ZM82.7334 24.4348C82.7627 24.0068 82.7053 23.5773 82.5647 23.172C82.4241 22.7667 82.2031 22.3939 81.9151 22.0759C80.824 20.9851 78.7236 20.8351 77.1552 20.8214V28.0618C81.0968 27.9663 82.7334 26.9164 82.7334 24.3802V24.4348Z" fill="black"/>
<path d="M65.4394 14.126V22.1572H58.4291V44.86H49.2501V22.1572H42.2397V14.126H65.4394Z" fill="black"/>
<path d="M39.7575 14.126V44.86H30.5376V40.6467V18.3666V14.126H39.7575Z" fill="black"/>
<path d="M35.1479 0C36.2922 3.18184e-06 37.4108 0.339422 38.3621 0.975292C39.3134 1.61116 40.0546 2.5149 40.4918 3.5721C40.9291 4.6293 41.0429 5.79244 40.8186 6.91429C40.5944 8.03613 40.0423 9.06625 39.2321 9.87424C38.422 10.6822 37.3903 11.2318 36.2677 11.4533C35.145 11.6748 33.9818 11.5584 32.9254 11.1187C31.869 10.6791 30.9667 9.93594 30.333 8.9834C29.6992 8.03087 29.3623 6.91176 29.365 5.76774C29.3686 4.23679 29.9795 2.76977 31.0636 1.6885C32.1477 0.607231 33.6165 -4.25794e-06 35.1479 0V0Z" fill="black"/>
<path d="M27.728 18.3665L22.8726 26.2068C22.1426 25.0613 21.1345 24.1192 19.942 23.4683C18.7496 22.8174 17.4117 22.4789 16.0532 22.4844C15.1494 22.4985 14.2574 22.692 13.4291 23.0538C12.6008 23.4156 11.8527 23.9383 11.2283 24.5918C10.6039 25.2452 10.1156 26.0162 9.79197 26.8599C9.4683 27.7037 9.31563 28.6033 9.34286 29.5066C9.31747 30.4087 9.4715 31.3069 9.796 32.1491C10.1205 32.9912 10.609 33.7606 11.2332 34.4126C11.8575 35.0645 12.6049 35.5861 13.4323 35.947C14.2597 36.308 15.1506 36.5011 16.0532 36.5151C17.4117 36.5207 18.7496 36.1822 19.942 35.5313C21.1345 34.8804 22.1426 33.9382 22.8726 32.7927L27.728 40.6466C25.503 42.9723 22.6326 44.5788 19.4863 45.2592C16.3401 45.9396 13.0622 45.6628 10.0747 44.4644C7.08718 43.266 4.52695 41.2009 2.72371 38.5351C0.920463 35.8693 -0.0432129 32.7248 -0.0432129 29.5066C-0.0432129 26.2884 0.920463 23.1439 2.72371 20.4781C4.52695 17.8123 7.08718 15.7472 10.0747 14.5488C13.0622 13.3504 16.3401 13.0736 19.4863 13.754C22.6326 14.4344 25.503 16.0409 27.728 18.3665Z" fill="black"/>
<path d="M105.906 14.126V44.86H96.686V40.6467V18.3666V14.126H105.906Z" fill="black"/>
</g>
<defs>
<clipPath id="clip0">
<rect width="150" height="59" fill="white"/>
</clipPath>
</defs>
</svg>
