<svg width="107" height="107" viewBox="0 0 107 107" fill="none" xmlns="http://www.w3.org/2000/svg">
<g clip-path="url(#clip0)">
<path d="M101.449 0H76.5784C73.6344 0 71.249 2.38626 71.249 5.32939V78.1644C71.249 81.1076 73.6344 83.4938 76.5784 83.4938H101.449C104.392 83.4938 106.778 81.1076 106.778 78.1644V5.32939C106.778 2.38626 104.392 0 101.449 0ZM103.225 78.1644C103.225 79.1455 102.43 79.9409 101.449 79.9409H76.5784C75.5974 79.9409 74.802 79.1455 74.802 78.1644V5.32939C74.802 4.34835 75.5974 3.55293 76.5784 3.55293H101.449C102.43 3.55293 103.225 4.34835 103.225 5.32939V78.1644Z" fill="white"/>
<path d="M48.155 72.8349H41.0491V65.7291H62.3667C65.3098 65.7291 67.6961 63.3428 67.6961 60.3997V24.8704C67.6961 21.9273 65.3098 19.541 62.3667 19.541H58.8137C57.8327 19.541 57.0373 20.3364 57.0373 21.3175C57.0373 22.2985 57.8327 23.0939 58.8137 23.0939H62.3667C63.3477 23.0939 64.1431 23.8894 64.1431 24.8704V60.3997C64.1431 61.3807 63.3477 62.1761 62.3667 62.1761H5.51982C4.53878 62.1761 3.74336 61.3807 3.74336 60.3997V24.8704C3.74336 23.8894 4.53878 23.0939 5.51982 23.0939H9.07275C10.0538 23.0939 10.8492 22.2985 10.8492 21.3175C10.8492 20.3364 10.0538 19.541 9.07275 19.541H5.51982C2.57582 19.541 0.19043 21.9273 0.19043 24.8704V60.3997C0.19043 63.3428 2.57582 65.7291 5.51982 65.7291H26.8374V72.8349H19.7315C16.7875 72.8349 14.4021 75.2212 14.4021 78.1643C14.4021 81.1075 16.7875 83.4937 19.7315 83.4937H48.155C51.0981 83.4937 53.4844 81.1075 53.4844 78.1643C53.4844 75.2212 51.0981 72.8349 48.155 72.8349ZM30.3903 65.7291H37.4962V72.8349H30.3903V65.7291ZM48.155 79.9408H19.7315C18.7505 79.9408 17.9551 79.1454 17.9551 78.1643C17.9551 77.1833 18.7505 76.3879 19.7315 76.3879H48.155C49.136 76.3879 49.9314 77.1833 49.9314 78.1643C49.9314 79.1454 49.136 79.9408 48.155 79.9408Z" fill="white"/>
<path d="M97.8961 8.88281H80.1314C79.1504 8.88281 78.355 9.67823 78.355 10.6593C78.355 11.6403 79.1504 12.4357 80.1314 12.4357H97.8961C98.8771 12.4357 99.6725 11.6403 99.6725 10.6593C99.6725 9.67823 98.8771 8.88281 97.8961 8.88281Z" fill="white"/>
<path d="M97.8961 15.9883H80.1314C79.1504 15.9883 78.355 16.7837 78.355 17.7647C78.355 18.7458 79.1504 19.5412 80.1314 19.5412H97.8961C98.8771 19.5412 99.6725 18.7458 99.6725 17.7647C99.6725 16.7837 98.8771 15.9883 97.8961 15.9883Z" fill="white"/>
<path d="M97.8961 23.0938H80.1314C79.1504 23.0938 78.355 23.8892 78.355 24.8702C78.355 25.8513 79.1504 26.6467 80.1314 26.6467H97.8961C98.8771 26.6467 99.6725 25.8513 99.6725 24.8702C99.6725 23.8892 98.8771 23.0938 97.8961 23.0938Z" fill="white"/>
<path d="M85.4607 28.4238H81.9078C80.9268 28.4238 80.1313 29.2192 80.1313 30.2003C80.1313 31.1813 80.9268 31.9768 81.9078 31.9768H85.4607C86.4418 31.9768 87.2372 31.1813 87.2372 30.2003C87.2372 29.2192 86.4418 28.4238 85.4607 28.4238Z" fill="white"/>
<path d="M96.1195 31.9768C97.1005 31.9768 97.8959 31.1813 97.8959 30.2003C97.8959 29.2192 97.1005 28.4238 96.1195 28.4238H92.5665C91.5855 28.4238 90.79 29.2192 90.79 30.2003C90.79 31.1813 91.5855 31.9768 92.5665 31.9768H96.1195Z" fill="white"/>
<path d="M81.9077 42.6352C81.9077 46.5593 85.0885 49.741 89.0136 49.741C92.9378 49.741 96.1194 46.5593 96.1194 42.6352C96.1194 38.711 92.9378 35.5293 89.0136 35.5293C85.0885 35.5293 81.9077 38.711 81.9077 42.6352ZM92.5665 42.6352C92.5622 43.899 91.8856 45.0648 90.79 45.6945V42.6352C90.79 41.6541 89.9946 40.8587 89.0136 40.8587C88.0325 40.8587 87.2371 41.6541 87.2371 42.6352V45.6945C85.7417 44.8306 85.0833 43.0177 85.6766 41.3965C86.2699 39.7753 87.9423 38.8151 89.6416 39.1204C91.3408 39.4257 92.5752 40.909 92.5665 42.6352Z" fill="white"/>
<path d="M97.8961 53.293H80.1314C79.1504 53.293 78.355 54.0884 78.355 55.0694V62.1753C78.355 63.1563 79.1504 63.9517 80.1314 63.9517H97.8961C98.8771 63.9517 99.6725 63.1563 99.6725 62.1753V55.0694C99.6725 54.0884 98.8771 53.293 97.8961 53.293ZM96.1196 60.3988H81.9079V56.8459H96.1196V60.3988Z" fill="white"/>
<path d="M97.8961 65.7285H80.1314C79.1504 65.7285 78.355 66.5239 78.355 67.505V74.6108C78.355 75.5919 79.1504 76.3873 80.1314 76.3873H97.8961C98.8771 76.3873 99.6725 75.5919 99.6725 74.6108V67.505C99.6725 66.5239 98.8771 65.7285 97.8961 65.7285ZM96.1196 72.8344H81.9079V69.2814H96.1196V72.8344Z" fill="white"/>
<path d="M48.5843 85.323L44.9265 84.4105C42.3806 83.7746 39.7168 83.7746 37.1709 84.4105L33.9433 85.2171L30.7147 84.4105C28.1689 83.7746 25.5051 83.7746 22.9592 84.4105L19.3013 85.323C18.5102 85.5207 17.9551 86.2312 17.9551 87.0465V104.811C17.9551 105.358 18.2066 105.875 18.6377 106.211C19.0688 106.548 19.6309 106.667 20.1609 106.535L23.8205 105.62C25.8034 105.126 27.8774 105.126 29.8603 105.62L33.52 106.535H33.559C33.572 106.535 33.6076 106.535 33.6319 106.543C33.7342 106.568 33.8383 106.582 33.9433 106.588C34.0473 106.579 34.1506 106.562 34.2521 106.536H34.3726L38.0322 105.621C40.0152 105.128 42.0891 105.128 44.0721 105.621L47.7317 106.536C48.2617 106.666 48.822 106.545 49.2514 106.209C49.6799 105.872 49.9306 105.357 49.9314 104.811V87.0465C49.9306 86.2312 49.3754 85.5207 48.5843 85.323ZM22.9592 102.175L21.508 102.53V88.4335L23.8171 87.855C25.8 87.3614 27.874 87.3614 29.8569 87.855L32.1668 88.4335V102.538L30.7147 102.182C28.1697 101.544 25.5059 101.541 22.9592 102.175ZM46.3785 102.538L44.9265 102.182C42.3806 101.546 39.7168 101.546 37.1709 102.182L35.7197 102.538V88.4335L38.0288 87.855C40.0117 87.3614 42.0857 87.3614 44.0686 87.855L46.3785 88.4335V102.538Z" fill="white"/>
<path d="M72.0731 91.075C71.3671 89.8494 70.2021 88.9551 68.8359 88.5882C67.4698 88.2221 66.0142 88.4129 64.7894 89.1207L61.7127 90.8972C60.4871 91.6033 59.5928 92.7682 59.2258 94.1344C58.8598 95.5006 59.0506 96.9561 59.7584 98.1809L63.3114 104.334C64.0148 105.563 65.1789 106.458 66.5468 106.821C66.9996 106.941 67.4672 107.001 67.9356 106.999C68.868 107.001 69.784 106.755 70.5916 106.289L73.6683 104.512C74.894 103.806 75.7883 102.641 76.1552 101.275C76.5212 99.9088 76.3295 98.4532 75.6226 97.2285L72.0731 91.075ZM72.7272 100.354C72.6066 100.809 72.3082 101.198 71.8988 101.432L68.8203 103.208C68.4126 103.443 67.9286 103.508 67.4741 103.386C67.0178 103.267 66.6301 102.968 66.3968 102.558L62.8438 96.4027C62.3546 95.5535 62.6443 94.4683 63.4927 93.9774L65.2691 97.0541C65.7627 97.8972 66.8444 98.1826 67.6901 97.6943C68.5358 97.2059 68.829 96.1268 68.3458 95.2776L66.5694 92.2027C66.8391 92.0457 67.1453 91.9633 67.4576 91.965C67.6146 91.965 67.7699 91.9849 67.9217 92.0257C68.3771 92.1445 68.7657 92.4438 68.9981 92.8532L72.5511 99.0084C72.787 99.4152 72.8503 99.8992 72.7272 100.354Z" fill="white"/>
<path d="M11.9273 25.8229L19.0332 38.1298C19.27 38.5375 19.6577 38.835 20.1131 38.9582C20.5685 39.0753 21.0517 39.0119 21.4611 38.7803L25.0608 36.702V40.8587C25.0608 41.8397 25.8563 42.6351 26.8373 42.6351H41.049C42.0301 42.6351 42.8255 41.8397 42.8255 40.8587V36.702L46.4244 38.7803C46.8338 39.0119 47.3169 39.0761 47.7723 38.9582C48.2277 38.835 48.6155 38.5375 48.8523 38.1298L55.9581 25.8229C56.4491 24.9729 56.1568 23.886 55.3067 23.3959L51.7078 21.3176L55.3067 19.2392C56.1568 18.7492 56.4491 17.6623 55.9581 16.8122L48.8523 4.50535C48.6172 4.0968 48.2286 3.79841 47.7732 3.67697C47.3178 3.55466 46.8321 3.61885 46.4244 3.85479L42.8255 5.93311V1.77646C42.8255 0.795419 42.0301 0 41.049 0H26.8373C25.8563 0 25.0608 0.795419 25.0608 1.77646V5.93311L21.4611 3.85479C21.0534 3.61885 20.5676 3.55466 20.1122 3.67697C19.6569 3.79841 19.2682 4.0968 19.0332 4.50535L11.9273 16.8122C11.4372 17.6623 11.7287 18.7492 12.5788 19.2392L16.1785 21.3176L12.5788 23.3959C11.7287 23.886 11.4372 24.9729 11.9273 25.8229ZM20.6197 22.8564C21.1688 22.5389 21.507 21.9525 21.507 21.3176C21.507 20.6826 21.1688 20.0962 20.6197 19.7788L15.894 17.0542L21.2234 7.81627L25.9491 10.5486C26.4981 10.8661 27.1756 10.8661 27.7255 10.5486C28.2746 10.2311 28.6138 9.64478 28.6138 9.00983V3.55293H39.2726V9.00983C39.2726 9.64478 39.6108 10.2311 40.1608 10.5486C40.7099 10.8661 41.3873 10.8661 41.9372 10.5486L46.662 7.81627L51.9914 17.0542L47.2666 19.7788C46.7167 20.0962 46.3784 20.6826 46.3784 21.3176C46.3784 21.9525 46.7167 22.5389 47.2666 22.8564L51.9914 25.5809L46.662 34.8189L41.9372 32.0865C41.3873 31.769 40.7099 31.769 40.1608 32.0865C39.6108 32.404 39.2726 32.9904 39.2726 33.6253V39.0822H28.6138V33.6253C28.6138 32.9904 28.2746 32.404 27.7255 32.0865C27.1756 31.769 26.4981 31.769 25.9491 32.0865L21.2234 34.8189L15.894 25.5809L20.6197 22.8564Z" fill="white"/>
<path d="M33.9434 30.2002C38.8486 30.2002 42.8257 26.2231 42.8257 21.3179C42.8257 16.4126 38.8486 12.4355 33.9434 12.4355C29.0373 12.4355 25.061 16.4126 25.061 21.3179C25.0662 26.2214 29.0399 30.1941 33.9434 30.2002ZM33.9434 15.9885C36.8865 15.9885 39.2727 18.3747 39.2727 21.3179C39.2727 24.261 36.8865 26.6473 33.9434 26.6473C30.9994 26.6473 28.614 24.261 28.614 21.3179C28.614 18.3747 30.9994 15.9885 33.9434 15.9885Z" fill="white"/>
<path d="M26.8372 47.9648H23.2843C22.3032 47.9648 21.5078 48.7603 21.5078 49.7413C21.5078 50.7224 22.3032 51.5178 23.2843 51.5178H26.8372C27.8182 51.5178 28.6137 50.7224 28.6137 49.7413C28.6137 48.7603 27.8182 47.9648 26.8372 47.9648Z" fill="white"/>
<path d="M46.3788 47.9648H32.1671C31.186 47.9648 30.3906 48.7603 30.3906 49.7413C30.3906 50.7224 31.186 51.5178 32.1671 51.5178H46.3788C47.3598 51.5178 48.1553 50.7224 48.1553 49.7413C48.1553 48.7603 47.3598 47.9648 46.3788 47.9648Z" fill="white"/>
<path d="M26.8372 55.0703H23.2843C22.3032 55.0703 21.5078 55.8657 21.5078 56.8468C21.5078 57.8278 22.3032 58.6232 23.2843 58.6232H26.8372C27.8182 58.6232 28.6137 57.8278 28.6137 56.8468C28.6137 55.8657 27.8182 55.0703 26.8372 55.0703Z" fill="white"/>
<path d="M46.3788 55.0703H32.1671C31.186 55.0703 30.3906 55.8657 30.3906 56.8468C30.3906 57.8278 31.186 58.6232 32.1671 58.6232H46.3788C47.3598 58.6232 48.1553 57.8278 48.1553 56.8468C48.1553 55.8657 47.3598 55.0703 46.3788 55.0703Z" fill="white"/>
</g>
<defs>
<clipPath id="clip0">
<rect width="107" height="107" fill="white"/>
</clipPath>
</defs>
</svg>
