<svg width="98" height="97" viewBox="0 0 98 97" fill="none" xmlns="http://www.w3.org/2000/svg">
<path d="M93.3678 32.6586L67.6181 48.0308C65.717 49.1656 64.9556 51.5005 65.7224 53.5051C64.5743 53.9875 63.2894 54.0101 62.1125 53.5546L58.7814 52.244C57.4525 51.7208 56.0179 51.6298 54.6333 51.9809L49.5296 53.2745C49.3317 53.3246 49.1378 53.3832 48.9481 53.4498C45.8301 51.6669 43.9727 51.134 40.6824 52.4082L37.7285 53.5519C36.3325 54.0923 34.7934 53.9641 33.5028 53.1984L32.5161 52.6159C32.7992 50.8478 32.0068 49.001 30.3819 48.031L4.63222 32.6586C2.59049 31.4401 0 32.9109 0 35.2943V64.0822C0 66.0701 1.05905 67.9371 2.76391 68.9548L14.0067 75.6668C16.098 76.9149 18.7863 76.2677 20.0881 74.2323L20.5687 74.5164L19.111 76.5501C17.4827 78.8212 18.0004 81.9791 20.2684 83.61C21.3895 84.4161 22.7557 84.7202 24.0944 84.4821C24.2994 85.8387 25.029 87.033 26.1428 87.8339C27.2608 88.6377 28.6357 88.9402 29.9708 88.7031C30.1673 90.0055 30.8669 91.2307 32.0173 92.0577C33.5673 93.172 35.4892 93.2629 37.0494 92.5576C37.3926 93.5104 38.0137 94.3368 38.8528 94.9403C41.0329 96.5076 44.056 96.0845 45.7277 94.0099L49.504 96.2505C50.31 96.7288 51.1958 96.9562 52.0707 96.9562C53.7982 96.9562 55.4835 96.0697 56.426 94.4763C56.8239 93.8037 57.0481 93.075 57.1116 92.3437L57.2586 92.4309C58.4199 93.1199 59.7796 93.315 61.0865 92.9795C62.394 92.6445 63.4929 91.8194 64.1806 90.6567C64.6059 89.9379 64.8425 89.1431 64.8823 88.3318C65.7237 88.5672 66.6161 88.5781 67.4852 88.3556C68.7927 88.0205 69.8916 87.1954 70.5793 86.0327C70.9796 85.3564 71.2129 84.6128 71.2718 83.8512C73.5632 84.8225 76.2825 83.9701 77.5846 81.769C78.7281 79.8359 78.435 77.4425 77.0257 75.8412L78.5057 74.9753C79.9089 76.3941 82.1674 76.7564 83.9935 75.6666L86.7114 74.0438C87.3926 73.6372 87.6156 72.7547 87.2097 72.0728C86.8035 71.3903 85.9217 71.1674 85.2416 71.5738L82.5237 73.1965C81.8828 73.5794 81.1027 73.4626 80.5998 73.002C80.5905 72.9211 68.5232 52.7238 68.5232 52.7238C68.0687 51.9553 68.3221 50.958 69.0881 50.5006L94.8378 35.1284C94.9691 35.051 95.1289 35.1434 95.1289 35.2941V64.082C95.1289 65.0621 94.6066 65.9829 93.7661 66.4846L91.0521 68.1048C90.3709 68.5114 90.1479 69.394 90.5539 70.0759C90.9597 70.7581 91.8415 70.9807 92.522 70.5748L95.2359 68.9546C96.9408 67.9369 97.9998 66.0699 97.9998 64.082V35.2943C98 32.9141 95.412 31.438 93.3678 32.6586ZM55.3375 54.7685C56.1366 54.566 56.9644 54.6185 57.7316 54.9203L61.0699 56.2338C63.0624 57.0054 65.2385 56.9207 67.1369 56.0226L76.9252 72.5701L75.339 73.4983C75.0508 73.6693 74.7744 73.8587 74.5114 74.0653L53.5771 61.6491C53.1332 61.3859 52.5826 61.3815 52.1348 61.6372C51.6868 61.893 51.4102 62.3697 51.4102 62.8864V63.1752C51.4102 64.198 51.0124 65.1595 50.2901 65.8824C49.5683 66.6049 48.609 67.0025 47.589 67.0025C47.4232 66.9964 47.2772 66.8632 47.277 66.6901V59.8665C47.277 58.3799 48.1079 57.0529 49.3794 56.3883C49.4425 56.3628 49.5042 56.3327 49.5635 56.2982C49.7763 56.2008 50.0005 56.1215 50.2338 56.0622L55.3375 54.7685ZM16.7073 73.3756C16.2868 73.4822 15.8496 73.4195 15.4767 73.1965L4.23391 66.4847C3.39325 65.9829 2.87109 65.0623 2.87109 64.0822V35.2943C2.87109 35.2636 2.87109 35.1821 2.96852 35.1267C3.00489 35.106 3.03762 35.0987 3.06556 35.0987C3.11227 35.0987 3.14576 35.1187 3.16222 35.1284L28.9121 50.5006C29.6781 50.958 29.9317 51.9553 29.4769 52.724L17.7024 72.6295C17.4813 73.0033 17.1278 73.2684 16.7073 73.3756ZM23.5675 81.6551C22.9929 81.7498 22.416 81.6143 21.9426 81.2742C21.4697 80.9341 21.1571 80.4299 21.0627 79.8545C20.9684 79.2788 21.1033 78.701 21.4431 78.2273L23.4911 75.37C23.5411 75.3002 23.5946 75.2345 23.6509 75.1726C23.6934 75.1344 23.7338 75.0932 23.7721 75.0495C24.5161 74.3515 25.675 74.2524 26.5337 74.8697C27.5102 75.5719 27.7344 76.9389 27.0333 77.9169C27.0321 77.9185 27.031 77.9202 27.0298 77.9217L24.985 80.7742C24.6457 81.2477 24.1421 81.5606 23.5675 81.6551ZM27.8171 85.4979C27.3441 85.1578 27.0315 84.6536 26.9372 84.0782C26.8428 83.5025 26.9778 82.9247 27.3175 82.451L29.3655 79.5937C29.3655 79.5937 29.3655 79.5935 29.3657 79.5935L31.6259 76.4405C31.9654 75.9666 32.4688 75.6537 33.0436 75.559C33.1632 75.5393 33.2827 75.5297 33.4015 75.5297C33.8538 75.5297 34.2937 75.6706 34.6685 75.9401C35.645 76.6421 35.8691 78.0091 35.168 78.9874L30.8595 84.9979C30.1584 85.9758 28.7934 86.1995 27.8171 85.4979ZM35.3162 90.1025C34.7418 90.197 34.1647 90.0617 33.6915 89.7216C32.715 89.0196 32.4908 87.6526 33.1919 86.6745C33.1931 86.6728 33.1942 86.6713 33.1954 86.6696L37.5005 80.6638C38.2014 79.6856 39.5664 79.4617 40.5431 80.1635C41.0161 80.5035 41.3286 81.0077 41.423 81.5834C41.5174 82.1589 41.3822 82.7368 41.0427 83.2105L36.7341 89.2211C36.3944 89.695 35.8908 90.008 35.3162 90.1025ZM40.527 92.6042C40.0541 92.2641 39.7415 91.76 39.6471 91.1843C39.5528 90.6088 39.6877 90.031 40.0275 89.5573C40.029 89.5552 40.0303 89.5533 40.0317 89.5512L41.4617 87.5564C42.1633 86.5802 43.5267 86.3565 44.5025 87.0581C45.4791 87.7603 45.7032 89.1273 45.0021 90.1054L44.1829 91.2483C44.1743 91.2598 44.1658 91.2717 44.1576 91.2836L43.5694 92.1042C42.8687 93.0819 41.504 93.3066 40.527 92.6042ZM75.1145 80.3034C74.5014 81.3396 73.1603 81.6833 72.1265 81.0693L68.8077 79.1003C68.8061 79.0995 68.8048 79.0986 68.8033 79.0978L58.5248 72.9991C57.8424 72.5944 56.9619 72.82 56.5581 73.5031C56.154 74.1863 56.3791 75.0683 57.0613 75.4728L67.3444 81.5742C67.3444 81.5742 67.3444 81.5742 67.3446 81.5744L67.3459 81.5751C68.3795 82.1895 68.7219 83.5314 68.1094 84.5672C67.8124 85.0693 67.3381 85.4254 66.7736 85.57C66.2091 85.7145 65.6221 85.6307 65.1208 85.333L62.4157 83.7281C62.4134 83.7268 62.4115 83.7254 62.4092 83.7241C62.4078 83.7233 62.4063 83.7224 62.4049 83.7216L54.8327 79.2287C54.1504 78.8239 53.2701 79.0497 52.866 79.7327C52.462 80.4159 52.6871 81.2979 53.3692 81.7024L60.9416 86.1955C60.9432 86.1964 60.9447 86.1974 60.946 86.1982C61.4471 86.4955 61.803 86.9705 61.9473 87.5359C62.0918 88.1012 62.0076 88.6891 61.7107 89.1912C61.4138 89.6932 60.9395 90.0494 60.3749 90.194C59.8106 90.3387 59.2234 90.2545 58.7223 89.9572L54.6624 87.5483C54.6597 87.5468 54.6572 87.5451 54.6547 87.5435L51.6856 85.782C51.0038 85.3777 50.1232 85.6029 49.7189 86.2864C49.3151 86.9694 49.5401 87.8514 50.2225 88.2561L53.1914 90.0176L53.1954 90.0199C54.2273 90.6349 54.5688 91.9754 53.9567 93.0106C53.3432 94.0469 52.0026 94.3903 50.9682 93.7768L47.4146 91.6683C48.9418 89.4111 48.4026 86.322 46.1777 84.7221C45.4977 84.2333 44.7364 83.9384 43.9601 83.8265C44.3035 82.9763 44.4087 82.0458 44.2566 81.1178C44.038 79.7843 43.3139 78.6159 42.2179 77.8278C41.0677 77.001 39.685 76.7288 38.39 76.9586C38.1934 75.6562 37.4938 74.4311 36.3435 73.6041C35.2473 72.816 33.9109 72.5028 32.5791 72.7215C31.467 72.9044 30.4702 73.4404 29.7133 74.2516C29.3608 73.5911 28.856 72.9993 28.2087 72.5336C26.4931 71.3002 24.2602 71.301 22.5723 72.3617L21.5544 71.7599L31.3215 55.2483L32.0427 55.674C33.2557 56.3939 34.6087 56.7591 35.9719 56.7591C36.9123 56.7591 37.8575 56.5852 38.7645 56.234L41.7183 55.0903C43.4841 54.4071 44.4323 54.3747 46.215 55.2433C45.0817 56.4681 44.4064 58.1023 44.4064 59.8665V66.6901C44.4064 68.4466 45.8322 69.8767 47.5849 69.878H47.5893C49.3761 69.878 51.0561 69.1814 52.3201 67.9164C53.0873 67.1486 53.6454 66.2271 53.966 65.2214L73.9611 77.0804C74.0271 77.1197 74.0953 77.1528 74.1649 77.1804C74.2224 77.228 74.284 77.2717 74.3502 77.311C75.3842 77.9248 75.7274 79.2673 75.1145 80.3034Z" fill="white"/>
<path d="M32.544 37.5065H65.4553C68.4352 37.5065 70.8593 35.0786 70.8593 32.0942V12.4829C70.8593 9.49857 68.4352 7.07069 65.4553 7.07069H57.5327V4.79254C57.5327 2.1743 55.4061 0.0439453 52.7921 0.0439453H45.2069C42.593 0.0439453 40.4663 2.17411 40.4663 4.79254V7.07069H32.5436C29.5638 7.07069 27.1396 9.49857 27.1396 12.4829V23.2862C27.1396 24.0804 27.7824 24.7239 28.5752 24.7239C29.368 24.7239 30.0107 24.0804 30.0107 23.2862V20.6141C31.5385 21.9872 33.5567 22.8236 35.7661 22.8236H36.8897V24.4051C36.8897 25.1993 37.5324 25.8429 38.3252 25.8429C39.118 25.8429 39.7608 25.1993 39.7608 24.4051V22.8236H58.2378V24.4051C58.2378 25.1993 58.8804 25.8429 59.6734 25.8429C60.4663 25.8429 61.1089 25.1993 61.1089 24.4051V22.8236H62.2323C64.4419 22.8236 66.46 21.9872 67.9878 20.6141V32.094C67.9878 33.4928 66.8515 34.6308 65.455 34.6308H32.544C31.1473 34.6308 30.0111 33.4927 30.0111 32.094V30.0076C30.0111 29.2133 29.3684 28.5698 28.5756 28.5698C27.7828 28.5698 27.14 29.2133 27.14 30.0076V32.094C27.14 35.0786 29.5642 37.5065 32.544 37.5065ZM43.3378 4.79254C43.3378 3.75966 44.1763 2.91944 45.2072 2.91944H52.7925C53.8234 2.91944 54.662 3.75966 54.662 4.79254V7.07069H43.338V4.79254H43.3378ZM62.2328 19.9481H61.1095V18.3666C61.1095 17.5724 60.4669 16.9288 59.6739 16.9288C58.8809 16.9288 58.2384 17.5724 58.2384 18.3666V19.9481H39.7614V18.3666C39.7614 17.5724 39.1186 16.9288 38.3258 16.9288C37.533 16.9288 36.8903 17.5724 36.8903 18.3666V19.9481H35.7667C32.5932 19.9481 30.0113 17.3623 30.0113 14.1839V12.4829C30.0113 11.0841 31.1475 9.94619 32.5442 9.94619H65.4555C66.8522 9.94619 67.9884 11.0843 67.9884 12.4829V14.1839C67.9884 17.3623 65.4065 19.9481 62.2328 19.9481Z" fill="white"/>
</svg>
