<svg width="150" height="47" viewBox="0 0 150 47" fill="none" xmlns="http://www.w3.org/2000/svg">
<path fill-rule="evenodd" clip-rule="evenodd" d="M0 2.51182H18.2399L20.2362 2.59233L22.1524 2.76139L23.9885 3.18003L25.7363 3.59866L27.3398 4.26687L28.8391 4.93508L30.2582 5.74015L31.5891 6.65793L32.7516 7.66427L33.9142 8.75111L34.9164 9.91846L35.8303 11.1744L36.576 12.5108L37.3296 13.8472L37.8989 15.2963L38.396 16.7213L64.2926 0L73.7052 6.352L53.5491 19.4022L56.7962 21.5759L77.1206 8.61425L85.8678 14.4913L65.8239 27.791L69.2394 29.8842L89.644 16.834V2.51182H104.637V31.0274H117.962V44.4077H89.6119V30.7215L64.3808 47L38.6445 29.5219L38.1474 31.0274L37.6824 32.4524L36.8806 33.8693L36.127 35.2943L35.229 36.5502L34.2268 37.8383L33.1445 39.0057L31.8937 40.012L30.651 40.9781L29.1517 41.7831L27.6525 42.5319L25.9848 43.2001L24.237 43.6992L22.401 44.0373L20.4848 44.2869L18.4002 44.3674H0V2.50377V2.51182ZM14.3273 15.6425H18.2399L19.9877 15.8116L21.4068 16.3107L22.6575 17.0594L23.7399 18.0658L24.4936 19.2331L25.0788 20.489L25.4156 21.914L25.4958 23.339L25.4156 24.764L25.0788 26.1889L24.4936 27.4448L23.6918 28.6122L22.6896 29.6185L21.4389 30.3673L19.9396 30.8664L18.272 31.0355H14.3273V15.6425ZM121.682 2.51182H136.755V31.0274H150V44.4077H121.682V2.54402V2.51182Z" fill="#0083CA"/>
</svg>
