<svg width="150" height="36" viewBox="0 0 150 36" fill="none" xmlns="http://www.w3.org/2000/svg">
<path d="M6.29785 17.8062V6.20435H28.2986V0H0V24.0126L6.20803 29.9473H28.2986L28.4718 23.8799H0.312219L6.29785 17.8062Z" fill="#452285"/>
<path d="M24.398 11.916H12.3625V17.9371H24.398V11.916Z" fill="#452285"/>
<path d="M40.0991 5.9873V7.84124V22.106V23.9578H42.2633H53.2636V22.106H42.2633V15.8447H52.1345V13.9929H42.2633V7.84124H53.2636V5.9873H42.2633H40.0991Z" fill="#452285"/>
<path d="M68.8719 10.6816H66.5196L62.5398 15.8453L58.6841 10.6816H56.1778L61.3808 17.32L56.0217 23.9583H58.3099L62.619 18.7083L66.5837 23.9583H69.0601L63.669 17.1957L68.8719 10.6816Z" fill="#452285"/>
<path d="M75.0143 6.69727H73.0084L72.9827 10.6811H71.0581V12.5645H73.002V20.7155C73.002 23.5554 75.2581 24.2043 76.6695 24.2043C77.5172 24.2044 78.3573 24.0471 79.1459 23.7408V21.91C78.0488 22.4957 77.2661 22.4662 77.2661 22.4662C75.1982 22.4662 75.04 20.4585 75.04 20.4585V12.5329H79.302V10.6811H75.0143V6.69727Z" fill="#452285"/>
<path d="M109.136 28.0029H108.233L108.223 29.7937H107.367V30.6364H108.242V34.3021C108.242 35.5788 109.255 35.8716 109.891 35.8716C110.272 35.871 110.65 35.7995 111.005 35.6609V34.8414C110.745 34.9942 110.451 35.0804 110.149 35.0921C109.219 35.0921 109.149 34.1904 109.149 34.1904V30.6258H111.073V29.7831H109.149L109.136 28.0029Z" fill="#452285"/>
<path d="M84.793 14.0459V10.6751H82.7251V23.9475H84.7631V18.0487C84.7631 18.0487 84.8892 12.6154 90.2483 12.5522V10.4454C90.2483 10.4454 86.9871 9.84713 84.793 14.0459Z" fill="#452285"/>
<path d="M130.397 31.2368V29.7052H129.456V35.7453H130.382V33.0613C130.382 33.0613 130.44 30.5901 132.877 30.5606V29.6062C132.877 29.6062 131.395 29.326 130.397 31.2368Z" fill="#452285"/>
<path d="M104.1 21.828L102.941 20.6229C102.43 21.2427 101.785 21.7419 101.053 22.0838C100.32 22.4258 99.5194 22.6018 98.709 22.5991C95.929 22.5991 94.0043 20.2521 93.9765 18.1538H104.727C104.727 18.1538 105.259 10.4326 98.4887 10.4326C91.7183 10.4326 91.9386 17.505 91.9386 17.7514C91.9386 17.9979 92.347 24.2044 98.8031 24.2044C98.7988 24.2044 101.782 24.5141 104.1 21.828ZM98.2706 12.1012C102.314 12.1012 102.565 16.5253 102.565 16.5253H93.9765C93.9765 16.5253 94.2267 12.1012 98.2706 12.1012Z" fill="#452285"/>
<path d="M104.009 29.6689C100.936 29.6689 101.037 32.8796 101.037 32.9913C101.037 33.1029 101.221 35.9196 104.153 35.9196C104.611 35.935 105.066 35.8456 105.483 35.6585C105.9 35.4713 106.268 35.1915 106.556 34.841L106.03 34.2953C105.798 34.5772 105.505 34.8042 105.172 34.9595C104.838 35.1148 104.474 35.1946 104.106 35.1928C103.556 35.1867 103.029 34.9747 102.632 34.5999C102.235 34.2251 101.997 33.7155 101.967 33.1746H106.847C106.847 33.1746 107.083 29.6689 104.009 29.6689ZM101.961 32.4309C101.961 32.4309 102.074 30.4274 103.909 30.4274C105.744 30.4274 105.857 32.4309 105.857 32.4309H101.961Z" fill="#452285"/>
<path d="M138.544 10.4326C131.774 10.4326 131.994 17.505 131.994 17.7514C131.994 17.9979 132.402 24.2044 138.859 24.2044C138.859 24.2044 141.835 24.5141 144.156 21.828L142.996 20.6229C142.486 21.2427 141.84 21.7419 141.108 22.0838C140.376 22.4258 139.575 22.6018 138.764 22.5991C135.984 22.5991 134.06 20.2521 134.032 18.1538H144.776C144.776 18.1538 145.315 10.4326 138.544 10.4326ZM134.032 16.5169C134.032 16.5169 134.282 12.0927 138.326 12.0927C142.37 12.0927 142.62 16.5169 142.62 16.5169H134.032Z" fill="#452285"/>
<path d="M123.532 10.4329C122.59 10.425 121.662 10.6569 120.838 11.1061C120.014 11.5553 119.321 12.2065 118.827 12.9968C117.198 10.0642 114.439 10.4329 114.439 10.4329C113.579 10.4315 112.733 10.6514 111.986 11.0708C111.238 11.4902 110.615 12.0945 110.177 12.824V10.6498H108.109V23.8949H110.177V15.784C110.474 14.3493 111.336 12.1014 113.812 12.1014C117.189 12.1014 117.326 15.3795 117.33 15.864V23.897H119.398V15.9293C119.398 15.1878 119.738 12.2236 123.091 12.2236C126.445 12.2236 126.543 15.4343 126.543 15.4343V23.8949H128.611V15.0972H128.581C128.435 12.6112 126.678 10.4329 123.532 10.4329Z" fill="#452285"/>
<path d="M148.026 9.66113C147.636 9.66113 147.254 9.77518 146.929 9.98884C146.605 10.2025 146.352 10.5062 146.202 10.8615C146.053 11.2168 146.014 11.6078 146.09 11.985C146.166 12.3622 146.354 12.7087 146.63 12.9806C146.906 13.2526 147.258 13.4378 147.641 13.5128C148.024 13.5878 148.421 13.5493 148.781 13.4022C149.142 13.255 149.45 13.0058 149.667 12.686C149.884 12.3662 150 11.9902 150 11.6057C150 11.0899 149.792 10.5953 149.422 10.2307C149.052 9.866 148.55 9.66113 148.026 9.66113ZM148.026 13.2594C147.693 13.2594 147.367 13.1621 147.09 12.9797C146.813 12.7973 146.597 12.538 146.469 12.2346C146.342 11.9313 146.308 11.5975 146.373 11.2755C146.438 10.9534 146.599 10.6576 146.835 10.4255C147.07 10.1933 147.37 10.0352 147.697 9.97112C148.024 9.90707 148.363 9.93994 148.671 10.0656C148.979 10.1912 149.242 10.404 149.427 10.677C149.612 10.95 149.711 11.271 149.711 11.5993C149.711 12.0396 149.534 12.4619 149.218 12.7732C148.902 13.0845 148.473 13.2594 148.026 13.2594Z" fill="#452285"/>
<path d="M148.888 11.1451C148.901 10.9966 148.854 10.849 148.757 10.7346C148.66 10.6201 148.521 10.5481 148.37 10.5342H147.241V12.5883H147.491V11.7772H148.024L148.65 12.5798H149.053L148.426 11.7371C148.426 11.7371 148.888 11.7308 148.888 11.1451ZM148.214 11.5538H147.491V10.8038H148.244C148.329 10.8252 148.402 10.8761 148.451 10.947C148.501 11.018 148.522 11.1041 148.511 11.1894C148.52 11.2767 148.494 11.3641 148.438 11.4323C148.382 11.5006 148.301 11.5443 148.212 11.5538H148.214Z" fill="#452285"/>
<path d="M97.3136 29.6309C96.9134 29.6284 96.5178 29.7143 96.1558 29.8824C95.7939 30.0505 95.4748 30.2964 95.2221 30.6021V29.7468H94.2341V35.7447H95.2221V31.7124C95.4531 31.0403 95.9984 30.402 97.1254 30.402C98.5133 30.402 98.7014 32.178 98.7014 32.178V35.7447H99.6894V31.6913H99.6531C99.5034 30.5284 98.7827 29.6309 97.3136 29.6309Z" fill="#452285"/>
<path d="M118.706 34.5402L117.082 29.7705H116.261L114.638 34.5402L113.064 29.7705H112.006L114.144 35.9243H115.038L116.635 31.1357L118.306 35.9243H119.176L121.267 29.7705H120.256L118.706 34.5402Z" fill="#452285"/>
<path d="M124.967 29.5908C124.324 29.5908 123.695 29.7788 123.16 30.1308C122.625 30.4829 122.208 30.9834 121.962 31.5689C121.716 32.1544 121.652 32.7987 121.777 33.4203C121.903 34.0419 122.212 34.6129 122.667 35.061C123.122 35.5091 123.702 35.8143 124.333 35.938C124.964 36.0616 125.618 35.9981 126.212 35.7556C126.806 35.5131 127.314 35.1024 127.672 34.5754C128.029 34.0485 128.22 33.4289 128.22 32.7952C128.22 32.3744 128.136 31.9577 127.972 31.5689C127.809 31.1801 127.569 30.8269 127.267 30.5294C126.965 30.2318 126.607 29.9958 126.212 29.8347C125.817 29.6737 125.394 29.5908 124.967 29.5908ZM124.967 35.1442C124.496 35.1442 124.035 35.0064 123.643 34.7483C123.25 34.4902 122.945 34.1233 122.764 33.6941C122.584 33.2649 122.537 32.7926 122.629 32.3369C122.721 31.8812 122.948 31.4627 123.281 31.1342C123.615 30.8057 124.04 30.5819 124.502 30.4913C124.965 30.4007 125.444 30.4472 125.88 30.625C126.315 30.8028 126.688 31.1038 126.95 31.4901C127.212 31.8764 127.352 32.3306 127.352 32.7952C127.352 33.4182 127.1 34.0157 126.653 34.4562C126.206 34.8967 125.6 35.1442 124.967 35.1442Z" fill="#452285"/>
<path d="M139.438 29.762H138.246L134.955 33.0633V27.2002H134.031V35.7451H134.955V34.2388L136.161 33.0359L138.37 35.7451H139.562L136.867 32.3554L139.438 29.762Z" fill="#452285"/>
<path d="M143.152 32.4939C141.523 31.9082 141.161 31.6912 141.161 31.2741C141.161 30.857 141.726 30.364 142.385 30.364C143.043 30.364 144.17 31.0276 144.17 31.0276L144.598 30.4462C143.98 29.9468 143.22 29.648 142.423 29.5908C141.67 29.5908 140.285 30.0859 140.285 31.3205C140.285 32.555 141.354 32.8794 141.899 33.0185C142.445 33.1575 143.89 33.2966 143.89 34.2235C143.89 35.1505 142.637 35.1442 142.637 35.1442C141.867 35.1652 141.115 34.9091 140.522 34.4237L139.975 35.0557C139.975 35.0557 140.869 35.8984 142.669 35.8984C144.47 35.8984 144.722 34.4785 144.722 34.213C144.722 33.9476 144.776 33.0754 143.152 32.4939Z" fill="#452285"/>
</svg>
