<svg width="22" height="28" viewBox="0 0 22 28" fill="none" xmlns="http://www.w3.org/2000/svg">
<path d="M14.9705 0.215978C14.8435 0.0810184 14.6694 0 14.489 0H3.68728C1.69409 0 0.0488281 1.65384 0.0488281 3.66523V24.2799C0.0488281 26.2915 1.69409 27.9454 3.68728 27.9454H18.348C20.3412 27.9454 21.9865 26.2915 21.9865 24.2799V7.91102C21.9865 7.73555 21.9062 7.5669 21.7925 7.43855L14.9705 0.215978ZM15.1644 2.38279L19.7326 7.22257H16.763C15.8801 7.22257 15.1644 6.50705 15.1644 5.61607V2.38279ZM18.348 26.5953H3.68728C2.43665 26.5953 1.3865 25.5491 1.3865 24.2799V3.66523C1.3865 2.40305 2.42989 1.35002 3.68728 1.35002H13.8267V5.61607C13.8267 7.25626 15.1378 8.5726 16.763 8.5726H20.6488V24.2799C20.6488 25.5491 19.6054 26.5953 18.348 26.5953Z" fill="#1B75BC"/>
<path d="M16.5215 21.9375H5.51259C5.14479 21.9375 4.84375 22.2411 4.84375 22.6125C4.84375 22.9837 5.14479 23.2875 5.51259 23.2875H16.5283C16.8961 23.2875 17.1971 22.9837 17.1971 22.6125C17.1971 22.2411 16.8961 21.9375 16.5215 21.9375Z" fill="#1B75BC"/>
<path d="M7.59298 14.6748L10.3486 11.6843V19.0555C10.3486 19.4267 10.6496 19.7305 11.0174 19.7305C11.3854 19.7305 11.6863 19.4267 11.6863 19.0555V11.6843L14.4419 14.6748C14.5756 14.8163 14.7497 14.8907 14.9301 14.8907C15.0907 14.8907 15.258 14.83 15.3849 14.7084C15.6526 14.452 15.6727 14.0266 15.4185 13.7567L11.4991 9.5109C11.3719 9.37594 11.1981 9.29492 11.0109 9.29492C10.8235 9.29492 10.6496 9.37594 10.5227 9.5109L6.60325 13.7567C6.34911 14.0266 6.36918 14.4586 6.63663 14.7084C6.9176 14.9649 7.33884 14.9447 7.59298 14.6748Z" fill="#1B75BC"/>
</svg>
