<svg width="117" height="117" viewBox="0 0 117 117" fill="none" xmlns="http://www.w3.org/2000/svg">
<path d="M108.955 28.6914H83.0816C82.0264 28.6914 81.3216 29.3962 81.3216 30.4514C81.3216 31.5066 82.0264 32.2114 83.0816 32.2114H108.781C110.893 32.2114 112.477 33.9714 112.477 35.9075V66.8865H108.252V46.8218C108.252 43.6542 105.611 41.1895 102.443 41.1895H77.0968C76.0416 41.1895 75.3368 41.8942 75.3368 42.9494C75.3368 44.0047 76.0416 44.7094 77.0968 44.7094H102.62C103.851 44.7094 104.908 45.7647 104.908 46.8218V67.0646H89.4187C82.0264 67.0646 76.2178 73.0493 76.2178 80.2655C76.2178 87.6578 82.2025 93.4664 89.4187 93.4664H104.908V112.652H5.8105C5.20695 112.641 4.63117 112.396 4.20433 111.97C3.77749 111.543 3.53286 110.967 3.52193 110.363V46.4694C3.52245 46.0028 3.70804 45.5554 4.03799 45.2255C4.36794 44.8955 4.8153 44.7099 5.28192 44.7094H28.8685C29.9237 44.7094 30.6285 44.0047 30.6285 42.9494C30.6285 41.8942 29.9237 41.1895 28.8685 41.1895H5.28192C4.75335 41.1895 4.05051 41.3657 3.52193 41.5418V35.2047C3.52193 33.6209 4.75335 32.2133 6.51333 32.2133H23.058C24.1132 32.2133 24.818 31.5086 24.818 30.4533C24.818 29.3981 24.1132 28.6933 23.058 28.6933H6.51333C5.65742 28.6913 4.80954 28.8584 4.01838 29.185C3.22723 29.5116 2.50839 29.9913 1.90317 30.5965C1.29795 31.2017 0.818258 31.9205 0.491657 32.7117C0.165055 33.5029 -0.00202426 34.3507 1.85074e-05 35.2067V110.365C1.85074e-05 113.533 2.64097 116.174 5.80856 116.174H108.779C112.827 116.174 115.995 112.83 115.995 108.958V36.0837C116.173 32.0352 112.827 28.6914 108.955 28.6914ZM79.7378 80.2655C79.7378 74.8093 84.1387 70.5846 89.4187 70.5846H112.653V90.1226H89.5949C88.2999 90.1246 87.0172 89.871 85.8203 89.3764C84.6235 88.8818 83.536 88.1558 82.6203 87.24C81.7046 86.3243 80.9786 85.2369 80.484 84.04C79.9893 82.8432 79.7357 81.5605 79.7378 80.2655ZM108.428 112.652V93.6425H112.653V108.956C112.653 110.892 111.243 112.652 108.428 112.652Z" fill="#1B75BC"/>
<path d="M93.2907 74.2797C92.503 74.2732 91.7219 74.4236 90.9929 74.7221C90.2638 75.0206 89.6015 75.4612 89.0445 76.0182C88.4875 76.5752 88.0469 77.2375 87.7484 77.9665C87.4499 78.6955 87.2996 79.4767 87.306 80.2644C87.306 83.6082 89.9469 86.2491 93.2907 86.2491C96.6345 86.2491 99.2755 83.6082 99.2755 80.2644C99.2819 79.4767 99.1315 78.6955 98.833 77.9665C98.5346 77.2375 98.094 76.5752 97.5369 76.0182C96.9799 75.4612 96.3176 75.0206 95.5886 74.7221C94.8596 74.4236 94.0785 74.2732 93.2907 74.2797ZM93.2907 82.9034C92.9649 82.9114 92.6408 82.8531 92.3382 82.732C92.0355 82.611 91.7606 82.4297 91.5302 82.1992C91.2997 81.9688 91.1184 81.6939 90.9974 81.3912C90.8763 81.0886 90.818 80.7645 90.826 80.4387C90.826 79.0311 91.8812 77.9739 93.2907 77.9739C94.7003 77.9739 95.7555 79.0291 95.7555 80.4387C95.7536 81.672 94.6983 82.9034 93.2907 82.9034ZM52.1023 63.7178C52.4547 63.894 52.8071 64.0702 52.9833 64.0702C53.3357 64.0702 53.6881 63.894 54.0385 63.7178C55.0937 63.013 79.5613 46.116 79.5613 19.538C79.5613 17.0732 79.3851 14.6104 78.8565 11.9695C78.6803 11.0885 77.9755 10.5619 77.0965 10.5619C67.5918 10.2095 60.5518 7.21809 54.2147 0.528579C54.0385 0.176194 53.6861 0 53.1576 0C52.629 0 52.2766 0.176194 51.9262 0.528579C45.4128 7.04189 37.4919 10.5619 29.7472 10.5619H29.2186C28.3377 10.5619 27.6348 11.0904 27.4586 11.9695C26.93 14.4342 26.7539 17.0732 26.7539 19.538C26.5796 46.4684 51.0452 63.013 52.1023 63.7178ZM30.6282 14.0819C38.5491 13.9057 46.47 10.3857 53.1576 4.22475C59.3185 10.3857 66.7108 13.5533 75.687 14.0819C76.0394 16.018 76.2156 17.778 76.2156 19.538C76.2156 41.3646 57.7347 56.6778 53.1576 60.0216C48.5804 56.6778 30.0996 41.715 30.0996 19.538C30.0996 17.778 30.2758 15.8418 30.6282 14.0819Z" fill="#1B75BC"/>
<path d="M67.4155 30.2756C67.4155 22.3547 60.9022 16.0176 53.1575 16.0176C45.2365 16.0176 38.8994 22.5309 38.8994 30.2756C38.8994 38.1965 45.4127 44.5337 53.1575 44.5337C55.032 44.5413 56.8895 44.1778 58.6229 43.464C60.3562 42.7502 61.931 41.7002 63.2565 40.3747C64.5821 39.0492 65.632 37.4744 66.3458 35.741C67.0596 34.0077 67.4232 32.1502 67.4155 30.2756ZM42.2451 30.2756C42.2451 24.2909 47.1727 19.5395 52.9813 19.5395C58.966 19.5395 63.7174 24.4671 63.7174 30.2756C63.7174 36.2604 58.7898 41.0117 52.9813 41.0117C47.1727 41.0137 42.2451 36.2604 42.2451 30.2756Z" fill="#1B75BC"/>
<path d="M60.5502 25.5233C59.8454 24.8185 58.7902 24.6423 58.0854 25.3471L50.6931 31.6842L48.5807 28.1642C48.0521 27.2833 46.9969 27.109 46.116 27.6357C45.235 28.1642 45.0608 29.2195 45.5874 30.1004L48.755 35.3804C49.2836 36.2613 50.515 36.4356 51.3959 35.7328L60.3721 27.988C61.0788 27.4595 61.255 26.2261 60.5502 25.5233ZM67.0635 71.8154H14.258C13.2028 71.8154 12.498 72.5202 12.498 73.5754C12.498 74.6307 13.2028 75.3354 14.258 75.3354H67.2397C68.2949 75.3354 68.9997 74.6307 68.9997 73.5754C68.8235 72.6945 68.1207 71.8154 67.0635 71.8154ZM67.0635 83.0802H14.258C13.2028 83.0802 12.498 83.7849 12.498 84.8401C12.498 85.8954 13.2028 86.6001 14.258 86.6001H67.2397C68.2949 86.6001 68.9997 85.8954 68.9997 84.8401C68.8235 83.7849 68.1207 83.0802 67.0635 83.0802ZM67.0635 93.8182H14.258C13.2028 93.8182 12.498 94.523 12.498 95.5782C12.498 96.6334 13.2028 97.3382 14.258 97.3382H67.2397C68.2949 97.3382 68.9997 96.6334 68.9997 95.5782C68.8235 94.521 68.1207 93.8182 67.0635 93.8182Z" fill="#1B75BC"/>
</svg>
