<svg width="175" height="34" viewBox="0 0 175 34" fill="none" xmlns="http://www.w3.org/2000/svg">
<path fill-rule="evenodd" clip-rule="evenodd" d="M20.3528 0C29.3144 0 36.9616 4.88787 39.67 11.6331H17.7639L8.55334 30.8327C3.38549 27.7435 0 22.6895 0 17C0 7.63485 9.14083 0 20.3528 0Z" fill="#2E3192"/>
<path fill-rule="evenodd" clip-rule="evenodd" d="M40.5372 14.7324C40.6573 15.4826 40.7172 16.241 40.7164 17.0004C40.7164 26.3655 31.5756 34.0004 20.3636 34.0004C18.8598 34.0002 17.3594 33.8594 15.8828 33.58L21.1702 21.7123C22.2854 19.2097 20.732 16.7658 18.0137 14.7324H40.5372Z" fill="#ED1C24"/>
<path fill-rule="evenodd" clip-rule="evenodd" d="M84.6374 6.25685H64.4837C59.1765 6.25685 52.5349 11.5357 51.2704 16.5507L50.424 20.0113C48.6615 27.2258 53.2618 31.8888 57.9119 31.8888H73.744C76.2632 31.8888 79.0015 28.8681 79.6089 26.4437L82.1281 16.3454L68.1879 16.4432L66.1964 20.0015H72.5492C73.5947 20.0015 73.0669 22.0838 72.7284 23.0711L71.6928 26.346C71.3145 27.4213 70.3187 28.7215 69.1736 28.7215H61.5662C58.3898 28.7215 57.8621 22.9538 58.6886 19.9233L59.6345 16.4627C60.6302 12.875 64.9318 9.53172 68.6857 9.53172H83.8109L84.6374 6.25685ZM174.99 6.25685H159.317C154.01 6.25685 147.368 11.5357 146.104 16.5507L145.258 20.0113C143.495 27.2258 148.095 31.8888 152.745 31.8888H168.578L169.424 28.7508H156.33C153.243 28.6628 152.716 23.0711 153.502 20.0309H171.425L172.222 16.9417H154.299L154.428 16.4823C155.424 12.8946 159.726 9.55128 163.479 9.55128H174.074L174.91 6.28618L174.99 6.25685ZM145.965 6.25685H130.341C125.034 6.25685 118.393 11.5357 117.128 16.5507L116.282 20.0113C114.519 27.2258 119.12 31.8888 123.77 31.8888H139.602L140.398 28.741H127.344C124.258 28.6531 123.73 23.0613 124.516 20.0211H142.44L143.236 16.932H125.313L125.442 16.4725C126.438 12.8848 130.74 9.5415 134.494 9.5415H145.088L145.925 6.2764L145.965 6.25685ZM88.7298 6.25685L82.2775 31.7911L90.6416 31.8888L96.0883 9.40464H106.474C107.868 9.40464 108.635 11.7215 108.386 13.0705C108.107 14.6053 106.454 16.9808 103.945 16.9808H96.3173L104.552 31.7911H113.932L107.28 20.1091C111.612 19.4932 116.013 16.277 116.242 11.7899C116.158 10.2909 115.491 8.88059 114.38 7.84944C113.269 6.81829 111.797 6.2448 110.268 6.24708L88.7298 6.25685Z" fill="#2E3192"/>
</svg>
