<svg width="1597" height="41" viewBox="0 0 1597 41" fill="none" xmlns="http://www.w3.org/2000/svg">
<rect x="1597" y="38" width="3.00007" height="1597" transform="rotate(90 1597 38)" fill="#1B75BC"/>
<rect y="33" width="39" height="5" fill="#1B75BC"/>
<path d="M5.994 14.18C3.93 14.18 2.148 13.508 0.648 12.164L2.286 10.202C3.522 11.222 4.776 11.732 6.048 11.732C6.612 11.732 7.056 11.624 7.38 11.408C7.704 11.192 7.866 10.892 7.866 10.508C7.866 10.148 7.698 9.86 7.362 9.644C7.026 9.416 6.348 9.17 5.328 8.906C4.608 8.726 4.026 8.552 3.582 8.384C3.138 8.204 2.712 7.97 2.304 7.682C1.908 7.394 1.614 7.034 1.422 6.602C1.242 6.158 1.152 5.63 1.152 5.018C1.152 3.878 1.56 2.96 2.376 2.264C3.204 1.568 4.266 1.22 5.562 1.22C7.35 1.22 8.91 1.754 10.242 2.822L8.802 4.91C7.614 4.082 6.522 3.668 5.526 3.668C5.01 3.668 4.608 3.776 4.32 3.992C4.044 4.196 3.906 4.466 3.906 4.802C3.906 5.21 4.08 5.516 4.428 5.72C4.776 5.924 5.508 6.17 6.624 6.458C7.992 6.818 9 7.28 9.648 7.844C10.296 8.408 10.62 9.218 10.62 10.274C10.62 11.498 10.194 12.458 9.342 13.154C8.502 13.838 7.386 14.18 5.994 14.18ZM23.9337 12.326C22.6617 13.586 21.0657 14.216 19.1457 14.216C17.2257 14.216 15.6297 13.586 14.3577 12.326C13.0977 11.066 12.4677 9.524 12.4677 7.7C12.4677 5.888 13.1037 4.352 14.3757 3.092C15.6597 1.82 17.2617 1.184 19.1817 1.184C21.1017 1.184 22.6917 1.814 23.9517 3.074C25.2237 4.334 25.8597 5.876 25.8597 7.7C25.8597 9.512 25.2177 11.054 23.9337 12.326ZM16.4457 10.508C17.1657 11.276 18.0777 11.66 19.1817 11.66C20.2857 11.66 21.1917 11.282 21.8997 10.526C22.6077 9.758 22.9617 8.816 22.9617 7.7C22.9617 6.596 22.6017 5.66 21.8817 4.892C21.1617 4.124 20.2497 3.74 19.1457 3.74C18.0417 3.74 17.1357 4.124 16.4277 4.892C15.7197 5.648 15.3657 6.584 15.3657 7.7C15.3657 8.804 15.7257 9.74 16.4457 10.508ZM28.3186 14V1.4H31.0906V11.48H37.3726V14H28.3186ZM44.3676 14.198C42.6516 14.198 41.3136 13.724 40.3536 12.776C39.3936 11.816 38.9136 10.424 38.9136 8.6V1.4H41.6856V8.528C41.6856 9.536 41.9196 10.31 42.3876 10.85C42.8676 11.378 43.5396 11.642 44.4036 11.642C45.2676 11.642 45.9336 11.384 46.4016 10.868C46.8816 10.352 47.1216 9.602 47.1216 8.618V1.4H49.8936V8.51C49.8936 10.382 49.4016 11.798 48.4176 12.758C47.4456 13.718 46.0956 14.198 44.3676 14.198ZM55.6511 14V3.956H51.8171V1.4H62.2571V3.956H58.4231V14H55.6511ZM64.515 14V1.4H67.287V14H64.515ZM81.3438 12.326C80.0718 13.586 78.4758 14.216 76.5558 14.216C74.6358 14.216 73.0398 13.586 71.7678 12.326C70.5078 11.066 69.8778 9.524 69.8778 7.7C69.8778 5.888 70.5138 4.352 71.7858 3.092C73.0698 1.82 74.6718 1.184 76.5918 1.184C78.5118 1.184 80.1018 1.814 81.3618 3.074C82.6338 4.334 83.2698 5.876 83.2698 7.7C83.2698 9.512 82.6278 11.054 81.3438 12.326ZM73.8558 10.508C74.5758 11.276 75.4878 11.66 76.5918 11.66C77.6958 11.66 78.6018 11.282 79.3098 10.526C80.0178 9.758 80.3718 8.816 80.3718 7.7C80.3718 6.596 80.0118 5.66 79.2918 4.892C78.5718 4.124 77.6598 3.74 76.5558 3.74C75.4518 3.74 74.5458 4.124 73.8378 4.892C73.1298 5.648 72.7758 6.584 72.7758 7.7C72.7758 8.804 73.1358 9.74 73.8558 10.508ZM85.7288 14V1.4H88.2848L94.1888 9.158V1.4H96.9248V14H94.5668L88.4648 5.99V14H85.7288ZM105.346 14V1.4H110.26C112.228 1.4 113.836 2 115.084 3.2C116.332 4.388 116.956 5.888 116.956 7.7C116.956 9.5 116.326 11 115.066 12.2C113.818 13.4 112.216 14 110.26 14H105.346ZM108.118 11.498H110.26C111.4 11.498 112.318 11.15 113.014 10.454C113.71 9.746 114.058 8.828 114.058 7.7C114.058 6.584 113.704 5.672 112.996 4.964C112.3 4.256 111.388 3.902 110.26 3.902H108.118V11.498ZM119.552 14V1.4H122.324V14H119.552ZM129.487 14.09L124.393 1.4H127.453L130.747 10.274L134.041 1.4H137.029L131.935 14.09H129.487ZM139.099 14V1.4H141.871V14H139.099ZM149.502 14.18C147.438 14.18 145.656 13.508 144.156 12.164L145.794 10.202C147.03 11.222 148.284 11.732 149.556 11.732C150.12 11.732 150.564 11.624 150.888 11.408C151.212 11.192 151.374 10.892 151.374 10.508C151.374 10.148 151.206 9.86 150.87 9.644C150.534 9.416 149.856 9.17 148.836 8.906C148.116 8.726 147.534 8.552 147.09 8.384C146.646 8.204 146.22 7.97 145.812 7.682C145.416 7.394 145.122 7.034 144.93 6.602C144.75 6.158 144.66 5.63 144.66 5.018C144.66 3.878 145.068 2.96 145.884 2.264C146.712 1.568 147.774 1.22 149.07 1.22C150.858 1.22 152.418 1.754 153.75 2.822L152.31 4.91C151.122 4.082 150.03 3.668 149.034 3.668C148.518 3.668 148.116 3.776 147.828 3.992C147.552 4.196 147.414 4.466 147.414 4.802C147.414 5.21 147.588 5.516 147.936 5.72C148.284 5.924 149.016 6.17 150.132 6.458C151.5 6.818 152.508 7.28 153.156 7.844C153.804 8.408 154.128 9.218 154.128 10.274C154.128 11.498 153.702 12.458 152.85 13.154C152.01 13.838 150.894 14.18 149.502 14.18ZM156.659 14V1.4H159.431V14H156.659ZM173.488 12.326C172.216 13.586 170.62 14.216 168.7 14.216C166.78 14.216 165.184 13.586 163.912 12.326C162.652 11.066 162.022 9.524 162.022 7.7C162.022 5.888 162.658 4.352 163.93 3.092C165.214 1.82 166.816 1.184 168.736 1.184C170.656 1.184 172.246 1.814 173.506 3.074C174.778 4.334 175.414 5.876 175.414 7.7C175.414 9.512 174.772 11.054 173.488 12.326ZM166 10.508C166.72 11.276 167.632 11.66 168.736 11.66C169.84 11.66 170.746 11.282 171.454 10.526C172.162 9.758 172.516 8.816 172.516 7.7C172.516 6.596 172.156 5.66 171.436 4.892C170.716 4.124 169.804 3.74 168.7 3.74C167.596 3.74 166.69 4.124 165.982 4.892C165.274 5.648 164.92 6.584 164.92 7.7C164.92 8.804 165.28 9.74 166 10.508ZM177.873 14V1.4H180.429L186.333 9.158V1.4H189.069V14H186.711L180.609 5.99V14H177.873Z" fill="#003056"/>
<path d="M370.485 11V0.499999H371.685L375.51 6.23L379.335 0.499999H380.535V11H379.35V2.495L375.525 8.12H375.465L371.64 2.51V11H370.485ZM389.747 9.995C388.967 10.785 388.002 11.18 386.852 11.18C385.702 11.18 384.742 10.785 383.972 9.995C383.212 9.205 382.832 8.25 382.832 7.13C382.832 6.02 383.217 5.07 383.987 4.28C384.767 3.48 385.732 3.08 386.882 3.08C388.032 3.08 388.992 3.475 389.762 4.265C390.532 5.055 390.917 6.01 390.917 7.13C390.917 8.24 390.527 9.195 389.747 9.995ZM386.882 10.145C387.712 10.145 388.392 9.855 388.922 9.275C389.462 8.695 389.732 7.98 389.732 7.13C389.732 6.29 389.452 5.575 388.892 4.985C388.342 4.395 387.662 4.1 386.852 4.1C386.022 4.1 385.342 4.395 384.812 4.985C384.282 5.565 384.017 6.28 384.017 7.13C384.017 7.97 384.292 8.685 384.842 9.275C385.392 9.855 386.072 10.145 386.882 10.145ZM397.135 11.165C395.915 11.165 394.925 10.615 394.165 9.515V11H393.01V0.0499997H394.165V4.805C394.945 3.655 395.935 3.08 397.135 3.08C398.125 3.08 398.99 3.45 399.73 4.19C400.47 4.92 400.84 5.9 400.84 7.13C400.84 8.34 400.47 9.315 399.73 10.055C398.99 10.795 398.125 11.165 397.135 11.165ZM396.925 10.13C397.705 10.13 398.355 9.86 398.875 9.32C399.395 8.77 399.655 8.035 399.655 7.115C399.655 6.225 399.39 5.505 398.86 4.955C398.33 4.395 397.685 4.115 396.925 4.115C396.175 4.115 395.52 4.4 394.96 4.97C394.4 5.54 394.12 6.26 394.12 7.13C394.12 8 394.4 8.72 394.96 9.29C395.52 9.85 396.175 10.13 396.925 10.13ZM403.001 1.55V0.274999H404.321V1.55H403.001ZM403.076 11V3.245H404.231V11H403.076ZM407.016 11V0.0499997H408.171V11H407.016ZM411.542 7.595C411.622 8.385 411.917 9.015 412.427 9.485C412.947 9.945 413.562 10.175 414.272 10.175C415.202 10.175 416.017 9.81 416.717 9.08L417.437 9.725C416.567 10.695 415.502 11.18 414.242 11.18C413.152 11.18 412.232 10.805 411.482 10.055C410.742 9.295 410.372 8.32 410.372 7.13C410.372 6 410.727 5.045 411.437 4.265C412.147 3.475 413.032 3.08 414.092 3.08C415.202 3.08 416.082 3.47 416.732 4.25C417.382 5.03 417.707 6.01 417.707 7.19C417.707 7.34 417.702 7.475 417.692 7.595H411.542ZM411.542 6.665H416.537C416.467 5.915 416.217 5.295 415.787 4.805C415.367 4.305 414.792 4.055 414.062 4.055C413.402 4.055 412.837 4.3 412.367 4.79C411.897 5.28 411.622 5.905 411.542 6.665ZM427.481 11.165C426.491 11.165 425.626 10.8 424.886 10.07C424.146 9.33 423.776 8.345 423.776 7.115C423.776 5.905 424.146 4.93 424.886 4.19C425.626 3.45 426.491 3.08 427.481 3.08C428.701 3.08 429.691 3.63 430.451 4.73V0.0499997H431.606V11H430.451V9.44C429.671 10.59 428.681 11.165 427.481 11.165ZM427.691 10.13C428.441 10.13 429.096 9.845 429.656 9.275C430.216 8.705 430.496 7.98 430.496 7.1C430.496 6.24 430.216 5.53 429.656 4.97C429.096 4.4 428.441 4.115 427.691 4.115C426.911 4.115 426.261 4.39 425.741 4.94C425.221 5.48 424.961 6.21 424.961 7.13C424.961 8.02 425.226 8.745 425.756 9.305C426.286 9.855 426.931 10.13 427.691 10.13ZM434.216 1.55V0.274999H435.536V1.55H434.216ZM434.291 11V3.245H435.446V11H434.291ZM440.722 11.06L437.362 3.245H438.637L441.247 9.68L443.872 3.245H445.117L441.742 11.06H440.722ZM446.961 1.55V0.274999H448.281V1.55H446.961ZM447.036 11V3.245H448.191V11H447.036ZM453.436 11.15C452.876 11.15 452.306 11.05 451.726 10.85C451.156 10.64 450.656 10.36 450.226 10.01L450.811 9.185C451.691 9.845 452.586 10.175 453.496 10.175C453.966 10.175 454.351 10.06 454.651 9.83C454.951 9.6 455.101 9.295 455.101 8.915C455.101 8.565 454.936 8.295 454.606 8.105C454.286 7.915 453.806 7.73 453.166 7.55C452.776 7.44 452.466 7.34 452.236 7.25C452.006 7.16 451.746 7.035 451.456 6.875C451.166 6.705 450.951 6.495 450.811 6.245C450.671 5.985 450.601 5.68 450.601 5.33C450.601 4.67 450.846 4.135 451.336 3.725C451.836 3.315 452.471 3.11 453.241 3.11C454.241 3.11 455.171 3.395 456.031 3.965L455.506 4.835C454.736 4.335 453.971 4.085 453.211 4.085C452.761 4.085 452.396 4.195 452.116 4.415C451.846 4.625 451.711 4.9 451.711 5.24C451.711 5.38 451.751 5.51 451.831 5.63C451.911 5.75 452.001 5.85 452.101 5.93C452.201 6.01 452.356 6.095 452.566 6.185C452.786 6.275 452.961 6.34 453.091 6.38C453.221 6.42 453.426 6.485 453.706 6.575C454.076 6.685 454.381 6.79 454.621 6.89C454.861 6.99 455.116 7.125 455.386 7.295C455.656 7.465 455.856 7.68 455.986 7.94C456.126 8.19 456.196 8.485 456.196 8.825C456.196 9.545 455.936 10.115 455.416 10.535C454.896 10.945 454.236 11.15 453.436 11.15ZM458.372 1.55V0.274999H459.692V1.55H458.372ZM458.447 11V3.245H459.602V11H458.447ZM468.717 9.995C467.937 10.785 466.972 11.18 465.822 11.18C464.672 11.18 463.712 10.785 462.942 9.995C462.182 9.205 461.802 8.25 461.802 7.13C461.802 6.02 462.187 5.07 462.957 4.28C463.737 3.48 464.702 3.08 465.852 3.08C467.002 3.08 467.962 3.475 468.732 4.265C469.502 5.055 469.887 6.01 469.887 7.13C469.887 8.24 469.497 9.195 468.717 9.995ZM465.852 10.145C466.682 10.145 467.362 9.855 467.892 9.275C468.432 8.695 468.702 7.98 468.702 7.13C468.702 6.29 468.422 5.575 467.862 4.985C467.312 4.395 466.632 4.1 465.822 4.1C464.992 4.1 464.312 4.395 463.782 4.985C463.252 5.565 462.987 6.28 462.987 7.13C462.987 7.97 463.262 8.685 463.812 9.275C464.362 9.855 465.042 10.145 465.852 10.145ZM471.979 11V3.245H473.134V4.595C473.744 3.585 474.629 3.08 475.789 3.08C476.709 3.08 477.434 3.365 477.964 3.935C478.494 4.495 478.759 5.245 478.759 6.185V11H477.604V6.47C477.604 5.74 477.414 5.17 477.034 4.76C476.664 4.34 476.139 4.13 475.459 4.13C474.789 4.13 474.234 4.355 473.794 4.805C473.354 5.255 473.134 5.84 473.134 6.56V11H471.979Z" fill="#003056"/>
<path d="M226.1 11.075L221.585 0.499999H222.905L226.64 9.545L230.39 0.499999H231.665L227.15 11.075H226.1ZM238.92 9.995C238.14 10.785 237.175 11.18 236.025 11.18C234.875 11.18 233.915 10.785 233.145 9.995C232.385 9.205 232.005 8.25 232.005 7.13C232.005 6.02 232.39 5.07 233.16 4.28C233.94 3.48 234.905 3.08 236.055 3.08C237.205 3.08 238.165 3.475 238.935 4.265C239.705 5.055 240.09 6.01 240.09 7.13C240.09 8.24 239.7 9.195 238.92 9.995ZM236.055 10.145C236.885 10.145 237.565 9.855 238.095 9.275C238.635 8.695 238.905 7.98 238.905 7.13C238.905 6.29 238.625 5.575 238.065 4.985C237.515 4.395 236.835 4.1 236.025 4.1C235.195 4.1 234.515 4.395 233.985 4.985C233.455 5.565 233.19 6.28 233.19 7.13C233.19 7.97 233.465 8.685 234.015 9.275C234.565 9.855 235.245 10.145 236.055 10.145ZM242.288 11V0.0499997H243.443V11H242.288ZM248.973 11.165C248.053 11.165 247.328 10.885 246.798 10.325C246.268 9.755 246.003 9 246.003 8.06V3.245H247.158V7.775C247.158 8.505 247.343 9.08 247.713 9.5C248.093 9.91 248.623 10.115 249.303 10.115C249.973 10.115 250.528 9.89 250.968 9.44C251.408 8.99 251.628 8.405 251.628 7.685V3.245H252.768V11H251.628V9.65C250.998 10.66 250.113 11.165 248.973 11.165ZM255.366 11V3.245H256.521V4.55C257.171 3.57 258.006 3.08 259.026 3.08C260.186 3.08 261.016 3.595 261.516 4.625C262.186 3.595 263.096 3.08 264.246 3.08C265.136 3.08 265.836 3.36 266.346 3.92C266.866 4.48 267.126 5.24 267.126 6.2V11H265.971V6.47C265.971 5.72 265.791 5.145 265.431 4.745C265.081 4.335 264.591 4.13 263.961 4.13C263.351 4.13 262.841 4.345 262.431 4.775C262.021 5.205 261.816 5.79 261.816 6.53V11H260.676V6.44C260.676 5.72 260.496 5.155 260.136 4.745C259.786 4.335 259.301 4.13 258.681 4.13C258.061 4.13 257.546 4.36 257.136 4.82C256.726 5.28 256.521 5.865 256.521 6.575V11H255.366ZM270.324 7.595C270.404 8.385 270.699 9.015 271.209 9.485C271.729 9.945 272.344 10.175 273.054 10.175C273.984 10.175 274.799 9.81 275.499 9.08L276.219 9.725C275.349 10.695 274.284 11.18 273.024 11.18C271.934 11.18 271.014 10.805 270.264 10.055C269.524 9.295 269.154 8.32 269.154 7.13C269.154 6 269.509 5.045 270.219 4.265C270.929 3.475 271.814 3.08 272.874 3.08C273.984 3.08 274.864 3.47 275.514 4.25C276.164 5.03 276.489 6.01 276.489 7.19C276.489 7.34 276.484 7.475 276.474 7.595H270.324ZM270.324 6.665H275.319C275.249 5.915 274.999 5.295 274.569 4.805C274.149 4.305 273.574 4.055 272.844 4.055C272.184 4.055 271.619 4.3 271.149 4.79C270.679 5.28 270.404 5.905 270.324 6.665ZM286.263 11.165C285.273 11.165 284.408 10.8 283.668 10.07C282.928 9.33 282.558 8.345 282.558 7.115C282.558 5.905 282.928 4.93 283.668 4.19C284.408 3.45 285.273 3.08 286.263 3.08C287.483 3.08 288.473 3.63 289.233 4.73V0.0499997H290.388V11H289.233V9.44C288.453 10.59 287.463 11.165 286.263 11.165ZM286.473 10.13C287.223 10.13 287.878 9.845 288.438 9.275C288.998 8.705 289.278 7.98 289.278 7.1C289.278 6.24 288.998 5.53 288.438 4.97C287.878 4.4 287.223 4.115 286.473 4.115C285.693 4.115 285.043 4.39 284.523 4.94C284.003 5.48 283.743 6.21 283.743 7.13C283.743 8.02 284.008 8.745 284.538 9.305C285.068 9.855 285.713 10.13 286.473 10.13ZM292.999 1.55V0.274999H294.319V1.55H292.999ZM293.074 11V3.245H294.229V11H293.074ZM299.504 11.06L296.144 3.245H297.419L300.029 9.68L302.654 3.245H303.899L300.524 11.06H299.504ZM305.743 1.55V0.274999H307.063V1.55H305.743ZM305.818 11V3.245H306.973V11H305.818ZM312.218 11.15C311.658 11.15 311.088 11.05 310.508 10.85C309.938 10.64 309.438 10.36 309.008 10.01L309.593 9.185C310.473 9.845 311.368 10.175 312.278 10.175C312.748 10.175 313.133 10.06 313.433 9.83C313.733 9.6 313.883 9.295 313.883 8.915C313.883 8.565 313.718 8.295 313.388 8.105C313.068 7.915 312.588 7.73 311.948 7.55C311.558 7.44 311.248 7.34 311.018 7.25C310.788 7.16 310.528 7.035 310.238 6.875C309.948 6.705 309.733 6.495 309.593 6.245C309.453 5.985 309.383 5.68 309.383 5.33C309.383 4.67 309.628 4.135 310.118 3.725C310.618 3.315 311.253 3.11 312.023 3.11C313.023 3.11 313.953 3.395 314.813 3.965L314.288 4.835C313.518 4.335 312.753 4.085 311.993 4.085C311.543 4.085 311.178 4.195 310.898 4.415C310.628 4.625 310.493 4.9 310.493 5.24C310.493 5.38 310.533 5.51 310.613 5.63C310.693 5.75 310.783 5.85 310.883 5.93C310.983 6.01 311.138 6.095 311.348 6.185C311.568 6.275 311.743 6.34 311.873 6.38C312.003 6.42 312.208 6.485 312.488 6.575C312.858 6.685 313.163 6.79 313.403 6.89C313.643 6.99 313.898 7.125 314.168 7.295C314.438 7.465 314.638 7.68 314.768 7.94C314.908 8.19 314.978 8.485 314.978 8.825C314.978 9.545 314.718 10.115 314.198 10.535C313.678 10.945 313.018 11.15 312.218 11.15ZM317.154 1.55V0.274999H318.474V1.55H317.154ZM317.229 11V3.245H318.384V11H317.229ZM327.499 9.995C326.719 10.785 325.754 11.18 324.604 11.18C323.454 11.18 322.494 10.785 321.724 9.995C320.964 9.205 320.584 8.25 320.584 7.13C320.584 6.02 320.969 5.07 321.739 4.28C322.519 3.48 323.484 3.08 324.634 3.08C325.784 3.08 326.744 3.475 327.514 4.265C328.284 5.055 328.669 6.01 328.669 7.13C328.669 8.24 328.279 9.195 327.499 9.995ZM324.634 10.145C325.464 10.145 326.144 9.855 326.674 9.275C327.214 8.695 327.484 7.98 327.484 7.13C327.484 6.29 327.204 5.575 326.644 4.985C326.094 4.395 325.414 4.1 324.604 4.1C323.774 4.1 323.094 4.395 322.564 4.985C322.034 5.565 321.769 6.28 321.769 7.13C321.769 7.97 322.044 8.685 322.594 9.275C323.144 9.855 323.824 10.145 324.634 10.145ZM330.762 11V3.245H331.917V4.595C332.527 3.585 333.412 3.08 334.572 3.08C335.492 3.08 336.217 3.365 336.747 3.935C337.277 4.495 337.542 5.245 337.542 6.185V11H336.387V6.47C336.387 5.74 336.197 5.17 335.817 4.76C335.447 4.34 334.922 4.13 334.242 4.13C333.572 4.13 333.017 4.355 332.577 4.805C332.137 5.255 331.917 5.84 331.917 6.56V11H330.762Z" fill="#003056"/>
</svg>
