<svg width="174" height="73" viewBox="0 0 174 73" fill="none" xmlns="http://www.w3.org/2000/svg">
<path d="M3.72344 3.73972H55.8183V13.416H3.72344V3.73972ZM0 17.1725H59.5417V0H0V17.1725Z" fill="#1AAD88"/>
<path d="M3.72344 45.5641H0V28.3916H3.72344V35.0996H10.4023V28.3916H14.0923V45.5641H10.3689V38.4536H3.69005L3.72344 45.5641ZM22.5577 45.8324C21.7124 45.8969 20.8632 45.7781 20.0676 45.4839C19.2721 45.1896 18.5489 44.727 17.947 44.1273C17.3452 43.5276 16.8789 42.8049 16.5796 42.0083C16.2804 41.2116 16.1553 40.3596 16.2128 39.5101C16.1463 38.6932 16.248 37.8713 16.5115 37.0956C16.775 36.3199 17.1948 35.6069 17.7446 35.0012C18.2944 34.3956 18.9625 33.91 19.7072 33.575C20.452 33.2399 21.2575 33.0625 22.0735 33.0537C25.7135 33.0537 27.5167 35.5021 27.5167 39.158V40.5331H19.7359C19.9001 41.2761 20.3319 41.9319 20.9483 42.3746C21.5647 42.8172 22.3222 43.0155 23.0753 42.9312C24.2628 42.9509 25.428 42.6057 26.4147 41.9418H26.5483V44.7759C25.3341 45.5496 23.9102 45.9247 22.4742 45.8492L22.5577 45.8324ZM19.6524 38.0511H24.0772C24.0772 36.7934 23.4761 35.9046 22.0234 35.9046C21.7255 35.8842 21.4264 35.9239 21.144 36.0213C20.8616 36.1188 20.6014 36.2721 20.3789 36.4722C20.1564 36.6722 19.976 36.915 19.8483 37.1862C19.7207 37.4574 19.6484 37.7515 19.6357 38.0511H19.6524ZM37.1175 38.3865L35.1974 45.5809H32.0416L28.385 33.54V33.4058H31.9415L33.9618 40.6337L35.882 33.4058H38.7873L40.7241 40.6337L42.7779 33.4058H46.1173V33.54L42.4105 45.5641H39.0711L37.1175 38.3865ZM52.1449 45.8492C49.1895 45.8492 47.9873 44.6753 47.9873 41.8915V28.4755H51.5939V41.7238C51.5939 42.5791 51.9278 42.8809 52.6291 42.8809C52.9085 42.8656 53.1842 42.8091 53.4473 42.7132V45.7151C53.0057 45.8618 52.5432 45.9354 52.0781 45.9331L52.1449 45.8492ZM60.8107 45.9331C59.9653 45.9976 59.1161 45.8787 58.3206 45.5845C57.525 45.2903 56.8018 44.8276 56.2 44.2279C55.5982 43.6283 55.1318 42.9056 54.8326 42.1089C54.5334 41.3122 54.4083 40.4603 54.4658 39.6108C54.3993 38.7939 54.5009 37.9719 54.7645 37.1962C55.028 36.4205 55.4477 35.7076 55.9975 35.1019C56.5473 34.4962 57.2154 34.0107 57.9602 33.6756C58.7049 33.3405 59.5104 33.1631 60.3265 33.1543C63.9664 33.1543 65.7697 35.6027 65.7697 39.2586V40.6337H58.0891C58.2532 41.3767 58.685 42.0326 59.3014 42.4752C59.9178 42.9179 60.6754 43.1161 61.4285 43.0318C62.6161 43.0526 63.7816 42.7073 64.7679 42.0424H64.9014V44.7759C63.6872 45.5496 62.2634 45.9247 60.8274 45.8492L60.8107 45.9331ZM58.0056 38.0511H62.447C62.447 36.7934 61.8459 35.9046 60.3932 35.9046C60.0958 35.8865 59.7977 35.9278 59.5162 36.0261C59.2348 36.1245 58.9755 36.2779 58.7535 36.4775C58.5314 36.6771 58.351 36.919 58.2226 37.1891C58.0942 37.4592 58.0205 37.7522 58.0056 38.0511ZM80.6134 33.3555H83.3016V36.2568H80.6969V41.2878C80.6969 42.361 81.1143 42.8474 82.1996 42.8474C82.5681 42.852 82.9348 42.7953 83.2849 42.6797V45.5306C82.5708 45.7771 81.8192 45.8963 81.0642 45.8828C78.1422 45.8828 76.9901 44.5412 76.9901 41.4387V36.2568H72.4652V41.2878C72.4652 42.361 72.8826 42.8474 73.9679 42.8474C74.3419 42.8523 74.7142 42.7957 75.07 42.6797V45.5306C74.3557 45.7767 73.6042 45.8959 72.8493 45.8828C69.9273 45.8828 68.7752 44.5412 68.7752 41.4387V36.2568H66.9886V33.3388H68.8587V29.9848H72.4652V33.3388H77.0903V29.9848H80.6969L80.6134 33.3555ZM102.036 34.2276C102.036 37.9673 99.5478 39.9965 95.7743 39.9965H93.203V45.5809H89.4795V28.3916H95.8578C99.6313 28.3916 102.119 30.4208 102.119 34.2108L102.036 34.2276ZM95.5572 36.894C95.9249 36.9433 96.2989 36.9089 96.6515 36.7933C97.0041 36.6777 97.3262 36.4838 97.5941 36.2261C97.8619 35.9684 98.0685 35.6534 98.1986 35.3045C98.3287 34.9556 98.379 34.5818 98.3456 34.2108C98.3763 33.8411 98.3241 33.4692 98.1928 33.1225C98.0615 32.7757 97.8545 32.4629 97.587 32.2071C97.3195 31.9513 96.9983 31.759 96.647 31.6443C96.2958 31.5296 95.9234 31.4955 95.5572 31.5444H93.203V36.894H95.5572ZM110.201 44.3567C109.791 44.8363 109.276 45.2144 108.697 45.4616C108.118 45.7089 107.489 45.8185 106.861 45.7821C106.306 45.8316 105.747 45.7633 105.221 45.5818C104.694 45.4003 104.211 45.1095 103.803 44.7284C103.395 44.3474 103.072 43.8844 102.854 43.3697C102.635 42.855 102.527 42.2999 102.537 41.7406C102.537 39.3592 104.473 37.7661 107.262 37.7661C108.179 37.7749 109.09 37.9161 109.967 38.1853V37.9673C109.967 36.6425 109.232 36.0723 107.279 36.0723C106.076 36.0839 104.897 36.4074 103.856 37.0114H103.722V34.0766C105.015 33.3983 106.454 33.0471 107.913 33.0537C111.586 33.0537 113.573 34.7307 113.573 37.8834V45.5474H110.201V44.3567ZM110.1 41.7238V40.684C109.477 40.3815 108.789 40.2375 108.097 40.2648C106.911 40.2648 106.21 40.7008 106.21 41.6902C106.21 42.6797 106.928 43.1492 107.997 43.1492C108.455 43.1701 108.909 43.0408 109.288 42.7807C109.667 42.5206 109.953 42.1438 110.1 41.707V41.7238ZM115.544 39.4598C115.506 38.6121 115.644 37.7657 115.949 36.9745C116.254 36.1832 116.72 35.4644 117.317 34.8635C117.914 34.2627 118.628 33.793 119.415 33.4844C120.202 33.1757 121.044 33.0347 121.888 33.0704C123.071 33.0326 124.237 33.3604 125.228 34.0096V37.112H125.094C124.298 36.4887 123.316 36.1521 122.306 36.1561C121.871 36.1402 121.437 36.2174 121.034 36.3826C120.63 36.5478 120.267 36.7973 119.967 37.1145C119.667 37.4317 119.437 37.8093 119.293 38.2223C119.15 38.6354 119.095 39.0743 119.133 39.5101C119.09 39.9471 119.14 40.3884 119.282 40.804C119.424 41.2195 119.653 41.5994 119.954 41.9178C120.255 42.2362 120.621 42.4856 121.027 42.6489C121.433 42.8122 121.869 42.8857 122.306 42.8641C123.315 42.8643 124.296 42.5281 125.094 41.9083H125.228V45.0107C124.238 45.6618 123.071 45.9898 121.888 45.9498C121.042 45.9928 120.197 45.8576 119.406 45.553C118.615 45.2484 117.896 44.7811 117.295 44.181C116.695 43.581 116.226 42.8615 115.918 42.0686C115.611 41.2758 115.472 40.4272 115.51 39.5772L115.544 39.4598ZM131.155 40.1306V45.6815H127.549V28.3916H131.155V38.1685L134.795 33.3388H138.903V33.54L134.528 39.0909L138.903 45.497V45.6312H134.762L131.155 40.1306ZM147.101 44.4741C146.703 44.9377 146.208 45.3063 145.65 45.5529C145.093 45.7995 144.487 45.9179 143.879 45.8995C143.324 45.949 142.765 45.8807 142.238 45.6992C141.711 45.5177 141.228 45.2269 140.82 44.8458C140.413 44.4647 140.089 44.0018 139.871 43.4871C139.653 42.9723 139.545 42.4173 139.554 41.8579C139.554 39.4766 141.491 37.8834 144.296 37.8834C145.213 37.8925 146.124 38.0337 147.001 38.3027V38.0847C147.001 36.7599 146.266 36.1897 144.313 36.1897C143.138 36.2148 141.99 36.5379 140.973 37.1288H140.756V34.0766C142.049 33.3983 143.488 33.0471 144.947 33.0537C148.62 33.0537 150.607 34.7307 150.607 37.8834V45.5474H147.101V44.4741ZM146.934 41.7238V40.684C146.311 40.3815 145.622 40.2375 144.93 40.2648C143.762 40.2648 143.044 40.7008 143.044 41.6902C143.044 42.6797 143.762 43.1492 144.814 43.1492C145.273 43.175 145.729 43.0499 146.111 42.7927C146.494 42.5356 146.783 42.1604 146.934 41.7238ZM156.618 35.3176C156.841 34.7068 157.242 34.1781 157.77 33.8009C158.297 33.4237 158.926 33.2158 159.574 33.2046C159.974 33.1965 160.372 33.2707 160.743 33.4226V36.894H160.609C160.103 36.7009 159.564 36.6097 159.023 36.6257C158.483 36.6318 157.963 36.8309 157.556 37.1875C157.149 37.544 156.881 38.0345 156.802 38.571V45.6144H153.179V33.3388H156.685L156.618 35.3176ZM170.444 44.3064C170.006 44.8307 169.451 45.2437 168.824 45.5118C168.198 45.7799 167.517 45.8955 166.837 45.8492C163.715 45.8492 161.728 42.9983 161.728 39.4766C161.728 35.9549 163.731 33.0704 166.837 33.0704C167.489 33.0236 168.144 33.126 168.751 33.37C169.359 33.6141 169.903 33.9933 170.343 34.4791V28.3916H173.95V45.5641H170.444V44.3064ZM170.31 41.4219V37.481C170.066 37.09 169.726 36.7689 169.322 36.5486C168.918 36.3283 168.465 36.2162 168.006 36.2232C166.42 36.2232 165.351 37.3803 165.351 39.4598C165.351 41.5393 166.42 42.6797 168.006 42.6797C168.465 42.6867 168.918 42.5746 169.322 42.3543C169.726 42.134 170.066 41.8129 170.31 41.4219ZM0 51.1821H10.5692V53.2783H2.37098V58.5274H9.80117V60.5565H2.37098V66.2751H10.5525V68.3546H0V51.1821ZM19.2851 56.0119C21.99 56.0119 23.4928 57.7895 23.4928 60.741V68.3546H21.2387V60.7913C21.2869 60.4399 21.2563 60.082 21.1491 59.7439C21.0419 59.4059 20.8609 59.0961 20.6192 58.8373C20.3776 58.5785 20.0814 58.3773 19.7524 58.2482C19.4233 58.1191 19.0697 58.0655 18.7174 58.0913C18.0332 58.0892 17.3668 58.3105 16.8187 58.7219C16.2705 59.1333 15.8704 59.7124 15.6785 60.3721V68.4217H13.3576V56.2634H15.6785V57.9404C16.0534 57.3188 16.5832 56.8061 17.2157 56.4532C17.8483 56.1003 18.5616 55.9192 19.2851 55.928V56.0119ZM29.6039 56.1796H32.6928V58.1249H29.6039V64.7323C29.6039 66.1074 30.3218 66.577 31.6075 66.577C31.9543 66.583 32.2993 66.5261 32.626 66.4093V68.3546C32.174 68.5313 31.6917 68.6168 31.2068 68.6062C28.385 68.6062 27.2663 67.3149 27.2663 64.9503V58.2423H25.2626V56.2634H27.3498V53.0436H29.6206L29.6039 56.1796ZM40.0729 68.6062C39.2658 68.647 38.4592 68.5143 37.7072 68.2169C36.9552 67.9195 36.2751 67.4642 35.7124 66.8816C35.1497 66.2989 34.7173 65.6023 34.4442 64.8384C34.1711 64.0744 34.0636 63.2606 34.1288 62.4516C34.1288 58.6615 36.3662 56.0286 39.6221 56.0286C42.878 56.0286 44.6312 58.4268 44.6312 61.9652V63.005H36.4163C36.4261 63.5095 36.5385 64.0067 36.7465 64.4661C36.9544 64.9255 37.2536 65.3374 37.6257 65.6766C37.9978 66.0158 38.4349 66.275 38.9103 66.4385C39.3856 66.602 39.8892 66.6662 40.3902 66.6273C41.5986 66.6668 42.7819 66.2747 43.7296 65.5205V67.5329C42.6329 68.3043 41.3095 68.6823 39.9727 68.6062H40.0729ZM36.3829 61.1267H42.3771C42.3771 59.3323 41.4254 57.974 39.5553 57.974C38.7325 58.0139 37.9533 58.3579 37.3677 58.9399C36.7821 59.5219 36.4314 60.3007 36.3829 61.1267ZM49.5235 58.1249C49.7521 57.5155 50.1611 56.9911 50.6955 56.6223C51.2298 56.2535 51.8639 56.0581 52.5122 56.0622C52.9158 56.0407 53.3195 56.1035 53.6977 56.2466V58.4938C53.2471 58.3122 52.7638 58.2265 52.2785 58.2423C51.6543 58.2547 51.0525 58.4783 50.5707 58.877C50.0889 59.2758 49.7552 59.8262 49.6236 60.4392V68.3211H47.3695V56.2634H49.6403L49.5235 58.1249ZM61.3951 56.0119C64.9849 56.0119 66.9051 58.9466 66.9051 62.3006C66.9051 65.6546 64.9849 68.5894 61.3951 68.5894C60.756 68.5871 60.1253 68.4431 59.5481 68.1677C58.9708 67.8923 58.4612 67.4923 58.0557 66.9962V72.9832H55.8683V56.2131H58.1391V57.5882C58.5332 57.0732 59.0385 56.6547 59.6169 56.3642C60.1954 56.0737 60.8319 55.9188 61.4786 55.9112L61.3951 56.0119ZM61.0945 66.4428C63.3319 66.4428 64.651 64.6652 64.651 62.2168C64.651 59.7684 63.3319 57.9907 61.0945 57.9907C60.4661 57.9972 59.8523 58.1816 59.3236 58.5227C58.7949 58.8639 58.3728 59.3479 58.1057 59.9193V64.5646C58.3775 65.1297 58.8017 65.6068 59.3301 65.9418C59.8584 66.2768 60.4697 66.4562 61.0945 66.4596V66.4428ZM71.9309 58.0746C72.1595 57.4652 72.5686 56.9408 73.1029 56.572C73.6373 56.2032 74.2713 56.0077 74.9197 56.0119C75.3178 55.9917 75.7157 56.0545 76.0885 56.1963V58.4435C75.6378 58.2619 75.1545 58.1762 74.6692 58.192C74.045 58.2043 73.4433 58.428 72.9614 58.8267C72.4796 59.2254 72.1459 59.7759 72.0144 60.3888V68.2708H69.6935V56.2634H71.9643L71.9309 58.0746ZM79.3778 51.3666C79.7564 51.3666 80.1195 51.5176 80.3873 51.7865C80.655 52.0554 80.8054 52.4201 80.8054 52.8004C80.8054 53.1807 80.655 53.5454 80.3873 53.8143C80.1195 54.0832 79.7564 54.2342 79.3778 54.2342C78.9992 54.2342 78.6361 54.0832 78.3683 53.8143C78.1006 53.5454 77.9502 53.1807 77.9502 52.8004C77.9502 52.4201 78.1006 52.0554 78.3683 51.7865C78.6361 51.5176 78.9992 51.3666 79.3778 51.3666ZM78.2591 56.2634H80.5299V68.3546H78.2925L78.2591 56.2634ZM88.628 61.2944C90.2977 61.8478 92.2679 62.5522 92.2679 64.8664C92.2679 67.1807 90.2476 68.6062 87.6428 68.6062C86.2038 68.6673 84.781 68.2807 83.5688 67.4993V65.4031H83.6856C84.7931 66.3165 86.1939 66.7935 87.6261 66.7447C88.9118 66.7447 90.0639 66.2584 90.0639 65.2019C90.0639 64.1453 89.1122 63.877 87.2087 63.2565C85.3052 62.636 83.6522 62.0491 83.6522 59.7348C83.6522 57.4205 85.5724 56.0286 88.0102 56.0286C89.3112 55.9785 90.5971 56.3233 91.7002 57.0181V59.1982C90.7003 58.3693 89.4401 57.9237 88.1437 57.9404C86.7245 57.9404 85.923 58.5777 85.923 59.4162C85.923 60.2547 86.7913 60.6572 88.7448 61.2944H88.628ZM100.182 68.6062C99.3752 68.647 98.5686 68.5143 97.8166 68.2169C97.0646 67.9195 96.3845 67.4642 95.8218 66.8816C95.2591 66.2989 94.8267 65.6023 94.5536 64.8384C94.2805 64.0744 94.173 63.2606 94.2382 62.4516C94.2382 58.6615 96.4756 56.0286 99.7315 56.0286C102.987 56.0286 104.741 58.4268 104.741 61.9652V63.005H96.5424C96.5522 63.5095 96.6646 64.0067 96.8726 64.4661C97.0805 64.9255 97.3797 65.3374 97.7518 65.6766C98.1239 66.0158 98.561 66.275 99.0363 66.4385C99.5117 66.602 100.015 66.6662 100.516 66.6273C101.725 66.6668 102.908 66.2747 103.856 65.5205V67.5329C102.759 68.3043 101.436 68.6823 100.099 68.6062H100.182ZM96.509 61.1267H102.503C102.503 59.3323 101.551 57.974 99.6814 57.974C98.8585 58.0139 98.0794 58.3579 97.4938 58.9399C96.9082 59.5219 96.5574 60.3007 96.509 61.1267Z" fill="#010101"/>
</svg>
