<svg width="104" height="105" viewBox="0 0 104 105" fill="none" xmlns="http://www.w3.org/2000/svg">
<g clip-path="url(#clip0)">
<path d="M31.9335 87.6052V97.4226C31.9335 100.212 30.5826 101.687 28.0026 101.687C25.4225 101.687 24.0582 100.159 24.0582 97.3019V87.6186H20.5595V97.4226C20.5595 102.251 23.2612 105 27.962 105C32.6629 105 35.4456 102.184 35.4456 97.2616V87.5918L31.9335 87.6052ZM44.8068 87.6052L37.2017 104.745H40.7949L42.2673 101.433L42.3753 101.191H50.2777L51.8311 104.759H55.5054L47.9542 87.7259L47.8867 87.6186L44.8068 87.6052ZM65.6365 87.6052L61.7192 99.4075L57.9098 87.632H54.168L60.1792 104.772H63.0835L67.0144 93.5198L70.9453 104.772H73.8631L79.8607 87.632H76.227L72.4042 99.4075L68.4868 87.6052H65.6365ZM99.9205 87.6052V104.719H103.379V87.6052H99.9205ZM0.783447 87.6052V104.745H4.26858V97.7847H12.1574V104.745H15.6695V87.6052H12.1574V94.5256H4.26858V87.6052H0.783447ZM82.6975 87.6052V104.745H95.7329V101.62H86.1421V97.3689H92.518V94.244H86.1421V90.7435H95.4087V87.6186L82.6975 87.6052ZM46.2927 91.9372L48.7918 97.6774L48.9674 98.0797H43.6586L43.8342 97.6774L46.2927 91.9372Z" fill="#232527"/>
<path d="M44.4025 0C43.0517 0.120705 39.2694 0.965641 39.2694 0.965641C36.8355 1.5819 34.5986 2.80071 32.7678 4.50817C30.937 6.21563 29.5721 8.35602 28.8005 10.7293C28.4152 11.9745 28.1927 13.2636 28.1386 14.5651V16.2415C28.1969 17.7787 28.4326 19.3042 28.841 20.7881C31.6778 33.2475 45.5643 53.7003 48.5496 57.9787C48.7657 58.1932 48.9278 58.1128 48.9278 58.1128C49.0157 58.0887 49.0929 58.0359 49.1468 57.9629C49.2007 57.8899 49.2283 57.8009 49.225 57.7104C53.8448 12.0705 44.4025 0 44.4025 0ZM59.6128 0C59.6128 0 50.1571 12.0705 54.7364 57.8043C54.7351 57.8892 54.763 57.9721 54.8153 58.0393C54.8676 58.1065 54.9413 58.1541 55.0244 58.1743C55.1075 58.1946 55.1951 58.1862 55.2728 58.1507C55.3505 58.1152 55.4138 58.0545 55.4523 57.9787C58.5052 53.5662 72.3241 33.2475 75.1473 20.8417C75.1473 20.8417 76.6738 14.8333 75.1473 10.783C74.3748 8.39829 73.0034 6.24818 71.1623 4.53529C69.3213 2.8224 67.0713 1.60315 64.6244 0.992464C62.9723 0.575643 61.2995 0.244375 59.6128 0V0ZM15.9272 13.7201C15.9272 13.7201 7.82221 21.3246 7.47099 29.3716V30.592C7.47099 30.6725 7.47099 30.7798 7.47099 30.8737C7.78735 34.8777 9.68604 38.5949 12.7527 41.2141C20.6686 48.899 39.8638 58.5822 44.3215 60.7817C44.389 60.7817 44.6187 60.889 44.7538 60.7146C44.8049 60.6727 44.8425 60.6167 44.8618 60.5537V60.3525C37.0804 43.7419 27.3696 28.0915 15.9272 13.7201ZM88.0747 13.7201C76.6664 28.0567 66.9746 43.6607 59.1941 60.2184C59.1542 60.3016 59.1406 60.3947 59.155 60.4857C59.1695 60.5767 59.2114 60.6612 59.2751 60.7281C59.324 60.7612 59.3791 60.784 59.4372 60.7951H59.6128H59.6939C64.2732 58.542 83.3333 48.9124 91.2356 41.2811C94.3062 38.6284 96.1952 34.8774 96.4903 30.8468C97.0847 21.9415 88.0747 13.7067 88.0747 13.7201ZM103.082 40.0204C103.082 40.0204 75.9038 54.505 61.8552 63.9066C61.7809 63.9572 61.7251 64.0301 61.6959 64.1147C61.6667 64.1992 61.6657 64.2909 61.6931 64.376C61.6931 64.376 61.8282 64.6174 62.0308 64.6174C67.0694 64.6174 86.1025 64.6174 86.5753 64.6174C88.4603 64.4674 90.3128 64.0426 92.0732 63.3567C96.6661 61.576 100.365 58.0671 102.366 53.593C103.459 51.1576 104.02 48.5205 104.014 45.8545V45.5997C103.999 43.6855 103.684 41.7854 103.082 39.9668V40.0204ZM0.919493 40.0875C-0.562652 44.6152 -0.257138 49.5328 1.77422 53.8454C3.80557 58.1579 7.41107 61.5433 11.8612 63.3165C13.8149 64.0876 15.8813 64.5405 17.9804 64.6577C18.4532 64.7381 36.9865 64.6577 41.9576 64.6577C42.0271 64.6516 42.0942 64.629 42.153 64.5916C42.2118 64.5542 42.2606 64.5033 42.2953 64.4431C42.301 64.4211 42.301 64.398 42.2953 64.376V64.1883C42.2613 64.1 42.2056 64.0216 42.1332 63.9603C28.1251 54.5453 0.919493 40.0875 0.919493 40.0875ZM41.4442 66.9108L9.45671 68.0642C12.9148 74.2068 18.7639 78.9813 24.8561 77.4524C29.0437 76.4063 38.5535 69.8212 41.7009 67.5948C41.944 67.3668 41.863 67.1925 41.863 67.1925C41.7955 66.9377 41.4577 66.9377 41.4577 66.9108H41.4442ZM62.6252 66.9108C62.6252 66.9108 62.3415 66.9108 62.2604 67.1657C62.242 67.2415 62.2435 67.3209 62.2648 67.396C62.2861 67.4711 62.3265 67.5396 62.382 67.5948C65.4349 69.7809 74.715 76.2185 79.1863 77.4658C79.7799 77.6351 80.3925 77.7298 81.0099 77.7475H81.6853C84.6706 77.6402 89.8983 76.1112 94.6262 68.0374L62.6252 66.9108Z" fill="#CF0A2C"/>
</g>
<defs>
<clipPath id="clip0">
<rect width="104" height="105" fill="white"/>
</clipPath>
</defs>
</svg>
