<svg width="95" height="96" viewBox="0 0 95 96" fill="none" xmlns="http://www.w3.org/2000/svg">
<g clip-path="url(#clip0)">
<path d="M47.5 6.25931C46.4671 6.25931 45.6299 5.41969 45.6299 4.38431V1.875C45.6299 0.839438 46.4671 0 47.5 0C48.5326 0 49.37 0.839438 49.37 1.875V4.38431C49.37 5.41969 48.5326 6.25931 47.5 6.25931Z" fill="white"/>
<path d="M17.1236 18.8715C16.645 18.8715 16.1665 18.6885 15.8014 18.3225L13.2505 15.7656C12.5202 15.0334 12.52 13.8462 13.2501 13.1138C13.9803 12.3814 15.1645 12.3814 15.8949 13.1134L18.4459 15.6705C19.1762 16.4027 19.1764 17.59 18.4463 18.3223C18.0811 18.6885 17.6023 18.8715 17.1236 18.8715Z" fill="white"/>
<path d="M77.8763 18.8714C77.3976 18.8714 76.919 18.6883 76.5538 18.3221C75.8237 17.5899 75.8239 16.4026 76.5542 15.6702L79.1051 13.1131C79.8354 12.3815 81.0195 12.3815 81.75 13.1135C82.4801 13.8457 82.4799 15.0329 81.7496 15.7653L79.1986 18.3224C78.8334 18.6884 78.3547 18.8714 77.8763 18.8714Z" fill="white"/>
<path d="M92.9621 49.3213H90.4585C89.4258 49.3213 88.5884 48.4819 88.5884 47.4463C88.5884 46.4109 89.4258 45.5713 90.4585 45.5713H92.9621C93.9948 45.5713 94.8322 46.4109 94.8322 47.4463C94.8322 48.4817 93.9948 49.3213 92.9621 49.3213Z" fill="white"/>
<path d="M4.54171 49.3213H2.03805C1.00539 49.3213 0.167969 48.4819 0.167969 47.4463C0.167969 46.4109 1.00539 45.5713 2.03805 45.5713H4.54171C5.57437 45.5713 6.41179 46.4109 6.41179 47.4463C6.41179 48.4817 5.57455 49.3213 4.54171 49.3213Z" fill="white"/>
<path d="M83.4205 46.6677C83.4205 26.8129 67.3066 10.6602 47.5001 10.6602C27.6935 10.6602 11.5796 26.8129 11.5796 46.6677C11.5796 62.4703 21.8888 76.4082 36.823 81.0572V83.1484C35.9202 83.2813 35.2271 84.0612 35.2271 85.0032V94.1258C35.2271 95.1612 36.0643 96.0008 37.0972 96.0008H57.9029C58.9356 96.0008 59.773 95.1612 59.773 94.1258V85.0032C59.773 84.0612 59.0798 83.2813 58.1771 83.1484V81.0572C73.1114 76.4082 83.4205 62.4703 83.4205 46.6677ZM15.3197 46.6677C15.3197 28.8808 29.7556 14.4102 47.5001 14.4102C65.2445 14.4102 79.6804 28.8808 79.6804 46.6677C79.6804 61.2595 69.8705 74.0764 55.8245 77.8356C55.0062 78.0548 54.4367 78.798 54.4367 79.6472V83.1282H40.563V79.647C40.563 78.7978 39.9936 78.0546 39.1752 77.8354C25.1296 74.0762 15.3197 61.2595 15.3197 46.6677ZM56.0329 92.2508H38.9673V86.8782H56.0329V92.2508Z" fill="white"/>
<path d="M70.9357 46.9555C70.1544 46.9555 69.4385 46.4473 69.1752 45.7112C68.9151 44.9843 69.1389 44.1501 69.7261 43.6504C70.3386 43.1293 71.2401 43.0626 71.9227 43.4875C72.5756 43.8938 72.9202 44.6908 72.7685 45.4461C72.5948 46.311 71.818 46.9555 70.9357 46.9555Z" fill="white"/>
<path d="M47.8305 53.6964C42.1154 53.6964 37.4658 49.0352 37.4658 43.3057C37.4658 37.5763 42.1154 32.915 47.8305 32.915C53.5457 32.915 58.1953 37.5763 58.1953 43.3057C58.1951 49.0352 53.5455 53.6964 47.8305 53.6964ZM47.8305 36.665C44.1777 36.665 41.206 39.644 41.206 43.3057C41.206 46.9674 44.1777 49.9464 47.8305 49.9464C51.4834 49.9464 54.4551 46.9674 54.4551 43.3057C54.4551 39.644 51.4834 36.665 47.8305 36.665Z" fill="white"/>
<path d="M70.4715 52.5093C69.4882 52.1912 68.4346 52.733 68.118 53.7187C67.0788 56.951 65.3284 59.8168 62.9153 62.2359C62.0294 63.1239 61.0747 63.926 60.0606 64.6382V59.5299C60.0606 56.9306 57.9513 54.8156 55.3583 54.8156H40.3026C37.7098 54.8156 35.6003 56.9304 35.6003 59.5299V64.6382C34.586 63.926 33.6313 63.1239 32.7455 62.2359C28.7227 58.2041 26.5074 52.8335 26.5074 47.1142C26.5074 41.3949 28.7229 36.0243 32.7458 31.9922C36.7676 27.9594 42.1247 25.7385 47.8303 25.7385C53.5357 25.7385 58.8927 27.9594 62.9154 31.9929C64.5362 33.6161 65.876 35.474 66.8974 37.5148C67.3606 38.4407 68.4845 38.8151 69.4074 38.3497C70.3305 37.8853 70.7036 36.7586 70.2402 35.8331C69.0386 33.432 67.4635 31.2474 65.5595 29.3403C60.8312 24.5994 54.5349 21.9883 47.8303 21.9883C41.1255 21.9883 34.8293 24.5994 30.1014 29.3402C25.3717 34.0803 22.7671 40.3925 22.7671 47.114C22.7671 53.8355 25.3717 60.1477 30.1012 64.8877C32.0221 66.8135 34.2189 68.4003 36.6305 69.6039C36.6326 69.6048 36.6345 69.6062 36.6365 69.6071C40.1411 71.3576 43.9858 72.2328 47.8303 72.2328C51.675 72.2328 55.5195 71.3576 59.024 69.6071C59.0261 69.6062 59.0279 69.6048 59.0298 69.6039C61.4409 68.4005 63.6379 66.8139 65.5592 64.8877C68.3561 62.0838 70.4719 58.6194 71.6773 54.8688C71.9945 53.8835 71.4546 52.827 70.4715 52.5093ZM39.3407 66.7333V59.5299C39.3407 58.9982 39.7723 58.5656 40.3028 58.5656H55.3585C55.889 58.5656 56.3206 58.9982 56.3206 59.5299V66.7333C50.9286 69.069 44.7325 69.069 39.3407 66.7333Z" fill="white"/>
</g>
<defs>
<clipPath id="clip0">
<rect width="95" height="96" fill="white"/>
</clipPath>
</defs>
</svg>
