<svg width="10" height="15" viewBox="0 0 10 15" fill="none" xmlns="http://www.w3.org/2000/svg">
<path d="M5 0C2.24161 0 0 2.36426 0 5.27344C0 6.25782 0.258389 7.21585 0.750028 8.04203L4.66106 14.7924C4.72778 14.9067 4.82778 14.977 4.94447 14.9946C5.10275 15.021 5.27783 14.9507 5.36947 14.7837L9.29169 7.97168C9.75831 7.16312 10 6.22269 10 5.27344C10 2.36426 7.75839 0 5 0ZM5 7.91016C3.60006 7.91016 2.5 6.71485 2.5 5.27344C2.5 3.82321 3.62497 2.63672 5 2.63672C6.37503 2.63672 7.5 3.82321 7.5 5.27344C7.5 6.70606 6.41664 7.91016 5 7.91016Z" fill="white"/>
</svg>
