<svg width="136" height="118" viewBox="0 0 136 118" fill="none" xmlns="http://www.w3.org/2000/svg">
<path d="M101.26 18.7969C92.6709 18.7969 85.7188 25.7529 85.7188 34.3468C85.7188 42.9407 92.6709 49.8968 101.26 49.8968C109.849 49.8968 116.802 42.9407 116.802 34.3468C117.005 25.9585 109.849 18.7969 101.26 18.7969ZM101.26 47.0321C94.3079 47.0321 88.7873 41.3028 88.7873 34.5524C88.7873 27.5964 94.5134 22.0727 101.26 22.0727C108.212 22.0727 113.733 27.8019 113.733 34.5524C113.938 41.5062 108.212 47.0321 101.26 47.0321Z" fill="#1B75BC" stroke="#1B75BC" stroke-width="0.5" stroke-miterlimit="10" stroke-linecap="round" stroke-linejoin="round"/>
<path d="M128.048 41.0982L135 39.8715V28.8241L128.048 27.5973C127.434 25.1416 126.411 22.6859 124.982 20.2324L128.867 14.5031L120.892 6.72928L115.166 10.8207C112.917 9.38834 110.463 8.57051 107.805 7.95602L106.579 1H95.538L94.3119 7.95602C91.8575 8.57051 89.4031 9.59392 87.1542 10.8207L81.2249 6.93262L78.7705 9.38834C65.6835 3.86464 50.7562 3.45573 37.4637 8.36494C33.9865 9.59169 30.5116 11.4329 27.2398 13.4797L28.8768 16.1388C31.9431 14.2976 35.2148 12.6597 38.4866 11.4329C50.7562 6.93262 64.4552 7.13596 76.5216 11.8418L73.4553 14.9098L77.5444 20.6391C76.3183 22.8892 75.2955 25.345 74.6814 28.004L67.7291 29.2308V40.2782L74.6814 41.5049C75.2955 44.164 76.3161 46.4164 77.7476 48.6665L73.8617 54.3958L81.6313 62.1696L87.3574 58.0783C89.6064 59.5106 92.0607 60.3284 94.7183 60.9429L95.9444 67.8989H106.986L108.212 60.9429C108.826 60.7373 109.235 60.7373 109.847 60.534C109.847 77.1073 102.077 93.064 88.7845 103.09C65.4735 120.685 32.3473 115.979 14.7602 92.655C-0.167009 73.0137 0.650373 46.0075 16.1918 27.184L17.6233 34.9578L20.6896 34.3433L18.4407 21.658L5.76235 23.9082L6.3765 27.1817L13.3287 25.955C-2.62139 45.8019 -3.23553 74.0349 12.3059 94.6996C17.5451 101.621 24.3139 107.236 32.0828 111.105C39.8516 114.973 48.4097 116.991 57.0876 117C68.7431 117 80.604 113.318 90.6225 105.747C105.141 94.9029 113.319 77.7174 112.911 59.5084C113.728 59.0994 114.751 58.6905 115.568 58.076L121.294 61.9641L129.064 54.1902L124.975 48.4609C126.415 46.2019 127.455 43.7111 128.048 41.0982ZM125.185 53.7835L121.096 58.0805L115.778 54.398L114.961 55.0125C112.506 56.6482 109.849 57.8772 106.78 58.4916L105.757 58.6972L104.531 65.0387H98.602L97.3759 58.6972L96.3531 58.4916C93.49 57.8772 90.627 56.856 88.1726 55.2181L87.3552 54.6036L82.0378 58.2861L77.7432 54.1947L81.4236 48.8743L80.8095 48.0565C79.1725 45.6008 77.9464 42.9417 77.3323 39.8715L77.1268 38.8481L70.7887 37.6213V31.6887L77.1268 30.462L77.3323 29.4386C77.9464 26.5739 78.9693 23.7093 80.604 21.2536L81.2182 20.4358L77.5377 15.1154L81.6269 10.8184L86.9443 14.5009L87.7617 13.8864C90.2496 12.2297 93.0235 11.05 95.9422 10.4073L96.965 10.2017L98.1911 3.86017H104.12L105.347 10.2017L106.369 10.4073C109.232 11.0218 112.095 12.0452 114.55 13.6808L115.367 14.2953L120.685 10.6129L124.979 14.7042L121.299 20.0246L121.913 20.8424C123.568 23.3322 124.747 26.1074 125.39 29.0274L125.596 30.0508L131.934 31.2776V37.2102L125.596 38.4369L125.187 39.4604C124.581 42.3584 123.474 45.1283 121.915 47.6453L121.301 48.4632L125.185 53.7835Z" fill="#1B75BC" stroke="#1B75BC" stroke-width="0.5" stroke-miterlimit="10" stroke-linecap="round" stroke-linejoin="round"/>
<path d="M51.1592 60.9442C51.1592 64.0121 53.8168 66.6734 56.8853 66.6734C57.9081 66.6734 58.931 66.4679 59.7484 65.8556L73.0409 79.1554L75.2898 76.9053L61.9973 63.6055C62.406 62.7876 62.8147 61.7642 62.8147 60.7408C62.8147 58.0818 60.9744 55.8294 58.7255 55.2171V29.4354H55.6592V55.2149C52.9994 56.2383 51.1592 58.2851 51.1592 60.9442ZM56.8853 58.2851C58.3168 58.2851 59.5429 59.5119 59.5429 60.9442C59.5429 61.762 59.3375 62.3765 58.7255 62.7854C58.3168 63.1943 57.4995 63.6032 56.8853 63.6032C55.4538 63.6032 54.2277 62.3765 54.2277 60.9442C54.2277 59.5119 55.4538 58.2851 56.8853 58.2851ZM55.2505 12.4531H58.3168V23.5005H55.2505V12.4531Z" fill="#1B75BC" stroke="#1B75BC" stroke-width="0.5" stroke-miterlimit="10" stroke-linecap="round" stroke-linejoin="round"/>
<path d="M69.4177 19.6878L66.4541 18.8946L67.8834 13.5586L70.8447 14.3518L69.4177 19.6878ZM103.437 74.8981L98.1041 73.468L98.897 70.505L104.23 71.9351L103.437 74.8981Z" fill="#1B75BC" stroke="#1B75BC" stroke-width="0.50002" stroke-miterlimit="10" stroke-linecap="round" stroke-linejoin="round"/>
<path d="M94.952 81.0938L99.7312 83.8556L98.2014 86.5124L93.4199 83.7506L94.952 81.0938Z" fill="#1B75BC" stroke="#1B75BC" stroke-width="0.49998" stroke-miterlimit="10" stroke-linecap="round" stroke-linejoin="round"/>
<path d="M79.7982 97.4492L82.5586 102.236L79.901 103.768L77.1406 98.9866L79.7982 97.4492Z" fill="#1B75BC" stroke="#1B75BC" stroke-width="0.500025" stroke-miterlimit="10" stroke-linecap="round" stroke-linejoin="round"/>
<path d="M66.6562 102.834L69.617 102.041L71.046 107.375L68.0853 108.17L66.6562 102.834Z" fill="#1B75BC" stroke="#1B75BC" stroke-width="0.50001" stroke-miterlimit="10" stroke-linecap="round" stroke-linejoin="round"/>
<path d="M42.9404 107.432L44.3694 102.096L47.3302 102.891L45.9012 108.227L42.9404 107.432Z" fill="#1B75BC" stroke="#1B75BC" stroke-width="0.499985" stroke-miterlimit="10" stroke-linecap="round" stroke-linejoin="round"/>
<path d="M31.3389 102.2L34.0992 97.418L36.7546 98.9508L33.9942 103.733L31.3389 102.2Z" fill="#1B75BC" stroke="#1B75BC" stroke-width="0.49999" stroke-miterlimit="10" stroke-linecap="round" stroke-linejoin="round"/>
<path d="M15.6573 86.6316L14.123 83.9747L18.9023 81.2129L20.4365 83.8697L15.6573 86.6316Z" fill="#1B75BC" stroke="#1B75BC" stroke-width="0.500015" stroke-miterlimit="10" stroke-linecap="round" stroke-linejoin="round"/>
<path d="M10.4498 75.1483L9.65472 72.1831L14.9878 70.753L15.7828 73.716L10.4498 75.1483ZM15.7694 48.4929L14.9744 51.4581L9.64355 50.028L10.4386 47.0605L15.7694 48.4929Z" fill="#1B75BC" stroke="#1B75BC" stroke-width="0.500025" stroke-miterlimit="10" stroke-linecap="round" stroke-linejoin="round"/>
<path d="M33.9435 18.0547L36.7038 22.8365L34.0462 24.3716L31.2881 19.5898L33.9435 18.0547Z" fill="#1B75BC" stroke="#1B75BC" stroke-width="0.49999" stroke-miterlimit="10" stroke-linecap="round" stroke-linejoin="round"/>
<path d="M45.7061 13.582L47.1352 18.9158L44.1722 19.7113L42.7432 14.3753L45.7061 13.582Z" fill="#1B75BC" stroke="#1B75BC" stroke-width="0.499985" stroke-miterlimit="10" stroke-linecap="round" stroke-linejoin="round"/>
<path d="M90.2135 96.2801L82.4082 88.4683L84.5745 86.3008L92.382 94.1104L90.2135 96.2801Z" fill="#1B75BC" stroke="#1B75BC" stroke-width="0.499995" stroke-miterlimit="10" stroke-linecap="round" stroke-linejoin="round"/>
<path d="M55.4561 98.5898H58.5217V109.637H55.4561V98.5898Z" fill="#1B75BC" stroke="#1B75BC" stroke-width="0.5" stroke-miterlimit="10" stroke-linecap="round" stroke-linejoin="round"/>
<path d="M29.4101 86.4863L31.5764 88.6583L23.7688 96.4679L21.6025 94.3004L29.4101 86.4863Z" fill="#1B75BC" stroke="#1B75BC" stroke-width="0.499995" stroke-miterlimit="10" stroke-linecap="round" stroke-linejoin="round"/>
<path d="M8.42285 59.5117H19.4642V62.5797H8.42285V59.5117Z" fill="#1B75BC" stroke="#1B75BC" stroke-width="0.5" stroke-miterlimit="10" stroke-linecap="round" stroke-linejoin="round"/>
</svg>
