<svg width="149" height="42" viewBox="0 0 149 42" fill="none" xmlns="http://www.w3.org/2000/svg">
<g clip-path="url(#clip0)">
<path d="M136.329 0.000104435C138.838 0.0063937 141.289 0.75275 143.371 2.14479C145.454 3.53682 147.075 5.51201 148.029 7.82055C148.983 10.1291 149.228 12.6673 148.732 15.1142C148.236 17.5611 147.022 19.8067 145.243 21.5671C143.465 23.3275 141.201 24.5236 138.739 25.0041C136.277 25.4846 133.728 25.2279 131.412 24.2666C129.097 23.3052 127.12 21.6824 125.732 19.6032C124.344 17.5241 123.606 15.082 123.613 12.5859C123.615 10.9281 123.946 9.28699 124.586 7.75657C125.227 6.22615 126.165 4.83653 127.346 3.66735C128.527 2.49816 129.929 1.5724 131.47 0.943104C133.012 0.31381 134.663 -0.00664489 136.329 0.000104435ZM138.502 12.6323C138.449 12.7295 138.374 12.8132 138.284 12.8766C136.156 14.8305 134.028 16.7845 131.901 18.7384C131.734 18.8923 131.734 18.9827 131.881 19.1292C132.452 19.7349 133.016 20.3463 133.573 20.9635C133.715 21.1222 133.818 21.1344 133.975 20.983C135.102 19.9401 136.239 18.9045 137.37 17.8665L142.69 12.9816C143.098 12.6079 143.098 12.6152 142.69 12.2489L135.772 5.89857C135.166 5.3417 134.545 4.79215 133.951 4.23528C133.85 4.14246 133.764 4.06431 133.634 4.20597C133.033 4.85728 132.429 5.50859 131.822 6.15991C131.734 6.25516 131.722 6.32599 131.822 6.42613C132.848 7.36403 133.867 8.30925 134.891 9.24958L138.328 12.4076C138.37 12.4321 138.408 12.4647 138.438 12.5037C138.468 12.5427 138.49 12.5873 138.502 12.6348V12.6323Z" fill="#E85222"/>
<path d="M3.02621 26.984C3.62023 26.0476 4.54214 25.3636 5.61367 25.0643C6.47722 24.8278 7.39487 24.8794 8.22617 25.2111C9.05747 25.5428 9.75661 26.1364 10.2166 26.901C10.3565 27.1452 10.413 27.0793 10.5431 26.901C11.5251 25.5967 12.8163 24.8909 14.4709 24.9177C15.55 24.9261 16.5816 25.3605 17.3388 26.1254C18.0961 26.8902 18.5171 27.923 18.5092 28.9966C18.5092 31.6442 18.5092 34.2918 18.5092 36.9394C18.5092 37.3595 18.5092 37.3619 18.0796 37.3619H15.9071C15.4897 37.3619 15.4873 37.3619 15.4873 36.9296C15.4873 34.6337 15.448 32.3378 15.4995 30.0444C15.5364 28.4495 14.2598 27.6191 12.8212 27.8462C11.5349 28.0514 10.8205 28.9331 10.8033 30.3668C10.7788 32.5064 10.791 34.6459 10.7861 36.7855C10.7861 36.8832 10.7861 36.9809 10.7861 37.0786C10.7861 37.274 10.7125 37.3643 10.5087 37.3619C9.68389 37.3619 8.85905 37.3619 8.0342 37.3619C7.74698 37.3619 7.75925 37.186 7.75925 36.9906C7.75925 34.939 7.75925 32.8874 7.75925 30.8357C7.75925 30.3961 7.73961 29.9565 7.70033 29.5193C7.61196 28.5569 6.82394 27.8706 5.76833 27.8096C4.1751 27.7265 3.15141 28.6571 3.06794 30.252C2.96238 32.4673 3.04585 34.685 3.01885 36.9027C3.01885 37.3643 3.01885 37.3643 2.54259 37.3643C1.80613 37.3643 1.06966 37.3643 0.333188 37.3643C0.0876978 37.3643 -0.010498 37.2764 -0.010498 37.0248C-0.00395165 33.1837 -0.000678458 29.345 -0.000678458 25.5088C-0.000678458 25.2401 0.102427 25.1498 0.365101 25.1546C1.14085 25.166 1.9166 25.166 2.69234 25.1546C2.93783 25.1546 3.03848 25.2426 3.03112 25.4966C3.01639 25.9924 3.02621 26.4882 3.02621 26.984Z" fill="#2B2A29"/>
<path d="M112.189 26.7226C112.454 26.4784 112.65 26.2781 112.871 26.1047C113.481 25.6315 114.184 25.292 114.935 25.1085C115.686 24.925 116.468 24.9017 117.229 25.0401C117.989 25.1785 118.712 25.4755 119.349 25.9116C119.986 26.3476 120.524 26.9129 120.926 27.5701C122.425 29.9246 122.369 33.4686 120.358 35.6839C119.386 36.7872 118.014 37.4633 116.543 37.5649C115.071 37.6664 113.619 37.1852 112.503 36.2261C112.422 36.1577 112.336 36.0918 112.243 36.0161C112.152 36.1309 112.186 36.2603 112.186 36.358C112.186 38.1068 112.186 39.8548 112.186 41.6019C112.186 41.9902 112.186 42 111.793 42.0025C111.027 42.0025 110.261 42.0025 109.496 42.0025C109.25 42.0025 109.154 41.9194 109.154 41.663C109.154 36.2717 109.154 30.8813 109.154 25.4916C109.154 25.2303 109.252 25.1546 109.5 25.157C110.276 25.157 111.052 25.157 111.828 25.157C112.09 25.157 112.203 25.2352 112.191 25.5087C112.189 25.8898 112.189 26.2659 112.189 26.7226ZM112.068 31.1947C112.029 33.0363 113.05 34.6605 115.053 34.8584C116.337 34.9829 117.459 34.6581 118.245 33.5834C119.124 32.3939 119.18 30.4082 118.414 29.1309C117.648 27.8535 116.362 27.4456 115.004 27.5995C114.417 27.6455 113.855 27.8582 113.385 28.2123C112.915 28.5663 112.557 29.047 112.353 29.5974C112.146 30.1038 112.049 30.6483 112.071 31.1947H112.068Z" fill="#2B2A29"/>
<path d="M30.2342 26.4758C30.2342 26.0996 30.2342 25.7894 30.2342 25.4792C30.2342 25.235 30.33 25.152 30.5681 25.1544C31.3635 25.1544 32.1589 25.1544 32.9543 25.1544C33.1826 25.1544 33.2611 25.2423 33.2611 25.4695C33.2611 29.3285 33.2611 33.1867 33.2611 37.0441C33.2611 37.2884 33.1629 37.3665 32.9297 37.3641C32.1441 37.3641 31.3586 37.3641 30.573 37.3641C30.3103 37.3641 30.2244 37.2591 30.2318 37.0148C30.2318 36.6875 30.2318 36.3627 30.2318 35.9646C30.0354 36.1282 29.9077 36.2455 29.7727 36.3505C29.1417 36.8529 28.4092 37.2141 27.6251 37.4093C26.8411 37.6046 26.0239 37.6293 25.2294 37.4819C24.4349 37.3344 23.6817 37.0183 23.0211 36.555C22.3605 36.0917 21.8081 35.4921 21.4015 34.7971C19.9924 32.4841 20.1642 29.2308 21.8483 27.1108C22.361 26.4288 23.0287 25.8773 23.7967 25.5012C24.5647 25.1251 25.4112 24.9351 26.2671 24.9468C27.7008 24.9468 29.0166 25.3596 30.082 26.3781C30.1309 26.4134 30.1817 26.4461 30.2342 26.4758ZM30.3938 31.2678C30.4055 30.9942 30.3832 30.7202 30.3275 30.452C30.082 29.1917 29.456 28.2416 28.1991 27.7996C27.452 27.5404 26.6425 27.5173 25.8817 27.7336C25.4943 27.8284 25.1302 28.0002 24.8113 28.2386C24.4923 28.477 24.2251 28.7771 24.0258 29.1209C23.5483 29.9602 23.37 30.9354 23.5201 31.8882C23.7238 33.5197 24.777 34.6457 26.4119 34.8508C27.6394 35.0047 28.7416 34.7336 29.5714 33.7444C30.1308 33.0394 30.422 32.1606 30.3938 31.2629V31.2678Z" fill="#2B2A29"/>
<path d="M94.4902 31.2634C94.4864 30.0066 94.8574 28.7769 95.5564 27.7301C96.2553 26.6832 97.2508 25.8662 98.4168 25.3826C99.5827 24.8989 100.867 24.7704 102.106 25.0132C103.346 25.256 104.485 25.8593 105.379 26.7466C106.274 27.6339 106.884 28.7654 107.132 29.9978C107.379 31.2301 107.254 32.508 106.772 33.6695C106.289 34.831 105.471 35.8239 104.421 36.5226C103.371 37.2212 102.136 37.5942 100.873 37.5942C100.034 37.6043 99.2007 37.4476 98.423 37.1333C97.6453 36.8189 96.9385 36.3533 96.344 35.7637C95.7496 35.1741 95.2794 34.4723 94.9611 33.6995C94.6427 32.9267 94.4827 32.0985 94.4902 31.2634ZM100.873 34.8635C102.523 34.8635 103.726 33.9379 104.126 32.3478C104.355 31.4721 104.306 30.5472 103.986 29.7003C103.848 29.3015 103.627 28.9363 103.337 28.6285C103.047 28.3208 102.695 28.0776 102.304 27.9148C101.923 27.7574 101.516 27.6673 101.104 27.6486C99.8616 27.5753 98.5899 28.037 97.9369 29.3046C97.5365 30.1053 97.3926 31.0089 97.5245 31.8936C97.7381 33.7058 99.0564 34.8758 100.868 34.8758L100.873 34.8635Z" fill="#2B2A29"/>
<path d="M56.6677 31.2458C56.6677 29.9886 57.0427 28.7598 57.7453 27.7149C58.4478 26.6701 59.4463 25.8562 60.6141 25.3763C61.782 24.8965 63.0667 24.7723 64.3056 25.0195C65.5445 25.2667 66.6817 25.8742 67.5733 26.765C68.4648 27.6558 69.0706 28.7898 69.3138 30.0234C69.557 31.257 69.4268 32.5347 68.9395 33.6946C68.4523 34.8545 67.63 35.8444 66.5768 36.5389C65.5236 37.2335 64.287 37.6014 63.0234 37.5961C62.1847 37.6026 61.353 37.4427 60.5772 37.1255C59.8013 36.8084 59.0968 36.3404 58.505 35.7491C57.9131 35.1577 57.4458 34.4548 57.1303 33.6816C56.8148 32.9083 56.6576 32.0802 56.6677 31.2458ZM59.6455 31.1627C59.6774 33.1631 60.6937 34.7042 62.7411 34.8557C64.0594 34.9534 65.3752 34.4624 66.0282 33.1118C66.3791 32.3647 66.5086 31.5335 66.4014 30.7158C66.0577 27.5284 62.8221 27.0521 61.1062 28.2001C60.0235 28.9206 59.6995 30.027 59.6529 31.1627H59.6455Z" fill="#2B2A29"/>
<path d="M75.9633 24.9126C77.5688 24.9615 79.0614 25.3572 80.3674 26.3341C80.576 26.4904 80.6129 26.6101 80.4631 26.8226C80.1341 27.3111 79.8248 27.8313 79.5253 28.3467C79.4001 28.5616 79.2799 28.5763 79.0884 28.4419C78.3362 27.9202 77.4751 27.5745 76.5696 27.4308C76.0551 27.3429 75.5283 27.3546 75.0181 27.465C74.8228 27.4963 74.6396 27.5795 74.4879 27.7059C74.3362 27.8323 74.2217 27.9972 74.1565 28.183C73.992 28.6715 74.1982 29.0819 74.7285 29.309C75.504 29.6155 76.3071 29.8478 77.1269 30.0027C78.0524 30.2078 78.9533 30.474 79.7266 31.048C81.1186 32.0787 81.4451 34.1475 80.4827 35.6886C79.7733 36.817 78.6956 37.3739 77.4117 37.5253C74.9862 37.8111 72.8382 37.1028 70.9209 35.63C70.8759 35.61 70.8365 35.5791 70.8065 35.5401C70.7765 35.5012 70.7566 35.4554 70.7488 35.4069C70.7411 35.3584 70.7455 35.3088 70.7618 35.2624C70.7782 35.2161 70.8058 35.1745 70.8424 35.1415C71.1885 34.6213 71.5199 34.0888 71.8391 33.5515C71.9643 33.3415 72.0649 33.3073 72.2687 33.4611C73.2072 34.1773 74.2898 34.6838 75.4428 34.9461C76.0169 35.0851 76.6151 35.0943 77.1932 34.973C77.4551 34.9181 77.6922 34.7805 77.8691 34.5807C78.046 34.3809 78.1534 34.1295 78.1751 33.8641C78.1984 33.6174 78.1282 33.371 77.9784 33.1731C77.8285 32.9752 77.6098 32.8401 77.365 32.7943C76.6605 32.6185 75.951 32.4671 75.2563 32.257C74.5106 32.0436 73.7897 31.7521 73.1058 31.3875C71.3873 30.4374 70.7785 28.4419 71.7286 26.7957C72.2564 25.8798 73.118 25.4182 74.1025 25.1471C74.7089 24.9837 75.3351 24.9048 75.9633 24.9126Z" fill="#2B2A29"/>
<path d="M35.2759 31.3314C35.2759 28.1196 37.3871 25.5502 40.4999 25.0202C42.5473 24.6709 44.364 25.2497 45.9007 26.6566C45.9327 26.6774 45.9594 26.7053 45.9786 26.7382C45.9979 26.771 46.0091 26.8079 46.0115 26.8458C46.0139 26.8838 46.0073 26.9218 45.9924 26.9568C45.9774 26.9917 45.9544 27.0228 45.9253 27.0474C45.4809 27.57 45.0415 28.0952 44.6168 28.6325C44.4474 28.8474 44.3492 28.8255 44.1651 28.6325C42.8051 27.2916 40.4386 27.3087 39.1743 28.6569C37.7284 30.1981 38.0009 33.1412 39.6972 34.2989C40.3912 34.745 41.2201 34.9357 42.0404 34.838C42.8608 34.7404 43.6211 34.3605 44.1897 33.764C44.3787 33.554 44.4695 33.5857 44.6389 33.764C45.1299 34.2721 45.629 34.7703 46.1364 35.2588C46.3058 35.4224 46.2886 35.5275 46.1364 35.6862C44.3517 37.4741 42.2086 38.0334 39.8126 37.3227C37.3577 36.5899 35.8847 34.9193 35.3668 32.4158C35.292 32.0594 35.2615 31.6952 35.2759 31.3314Z" fill="#2B2A29"/>
<path d="M89.1128 37.6138C85.7913 37.6138 83.1646 35.4376 82.6712 32.2942C82.0894 28.5964 84.5467 25.5214 87.932 25.0109C88.8722 24.8547 89.8361 24.9191 90.7469 25.199C91.6577 25.4789 92.4902 25.9664 93.1781 26.6229C93.3573 26.7841 93.3966 26.8989 93.2199 27.1114C92.7878 27.5999 92.3729 28.1128 91.9679 28.6281C91.7936 28.8504 91.6855 28.8724 91.4769 28.655C90.2494 27.4338 88.1014 27.3361 86.7856 28.4107C86.1892 28.9172 85.7919 29.6171 85.6637 30.3867C85.5355 30.9291 85.5239 31.4923 85.6297 32.0395C85.7355 32.5866 85.9562 33.1054 86.2774 33.5618C87.1342 34.7562 88.7004 35.1787 90.1831 34.656C90.7084 34.4828 91.1773 34.1724 91.5407 33.7572C91.6855 33.5887 91.7862 33.5862 91.9409 33.7572C92.4466 34.2766 92.9596 34.7887 93.4801 35.2935C93.6225 35.4327 93.6347 35.5377 93.4801 35.677C92.2551 36.9177 90.7944 37.6358 89.1128 37.6138Z" fill="#2B2A29"/>
<path d="M51.2176 28.0876C51.4685 27.5037 51.8107 26.9629 52.2315 26.4854C53.009 25.5994 54.0986 25.0442 55.2756 24.9344C55.7076 24.8929 55.7444 24.9344 55.7444 25.3692C55.7444 26.1019 55.7444 26.8346 55.7444 27.5674C55.7444 27.8336 55.6782 27.9459 55.3836 27.9484C54.2697 27.9613 53.2061 28.4116 52.4244 29.2012C51.6427 29.9908 51.2063 31.0557 51.2103 32.164C51.2103 33.7663 51.2103 35.366 51.2103 36.9683C51.2103 37.3664 51.2103 37.3737 50.7954 37.3737C50.0393 37.3737 49.2832 37.3737 48.5271 37.3737C48.2816 37.3737 48.1785 37.298 48.1785 37.0391C48.1785 33.1915 48.1785 29.3438 48.1785 25.4962C48.1785 25.2348 48.2816 25.1591 48.5295 25.164C49.3053 25.1738 50.081 25.1738 50.8568 25.164C51.1194 25.164 51.2201 25.2446 51.2152 25.5182C51.2103 26.3633 51.2176 27.2205 51.2176 28.0876Z" fill="#2B2A29"/>
</g>
<defs>
<clipPath id="clip0">
<rect width="149" height="42" fill="white"/>
</clipPath>
</defs>
</svg>
