<svg width="1141" height="399" viewBox="0 0 1141 399" fill="none" xmlns="http://www.w3.org/2000/svg">
<path opacity="0.3" fill-rule="evenodd" clip-rule="evenodd" d="M688.73 114.554L690.989 109.168L693.685 107.76L700.459 108.046L701.446 106.617L703.989 103.935L708.658 102.22L708.79 99.2513L709.908 96.283L713.591 94.4361L713.722 92.4572L716.134 90.0386L718.677 89.4889L720.65 86.6526L721.922 85.3773L720.365 84.234L720.233 82.1232L721.22 80.8479L726.021 82.2551L727.994 81.2657L729.551 77.4399L731.809 76.4505L737.026 75.7469L739.854 75.0433L742.266 74.8894L745.642 75.1752L747.9 73.7681L748.624 73.9L750.443 76.3186L750.728 78.0116L752.438 79.8585L755.529 79.5727L757.086 79.1329L759.782 79.2869L761.887 77.8577L766.556 77.4399L767.543 79.8585L768.113 82.2551L768.946 84.1021L776.005 88.3456L778.833 90.4784L784.073 93.0289L786.046 91.8855L789.005 90.8961L792.118 88.4995L794.661 88.2137L797.489 88.9173L799.594 90.4784L802.006 89.7748L808.363 89.9067L810.753 91.05L813.449 90.7642L814.151 90.0386L816.825 90.4784L821.78 89.9067L824.608 85.3773L823.051 83.6843L820.07 81.6835V77.1541L820.925 72.3389L820.508 70.492L817.68 69.5025L816.255 67.6776L811.893 66.5342L810.906 62.8624V55.6286L813.866 52.2205V50.1098L815.422 47.5592L817.812 46.7017L819.237 47.2734L820.355 44.8548L819.522 42.4582L819.938 40.0396L821.78 38.4785L824.608 38.6324L826.581 39.9077L830.395 40.8971L834.342 42.876L834.912 43.8654L838.288 45.0087L841.971 45.2946L847.188 45.1407L849.161 46.4159L850.586 47.8451L854.401 48.2628L856.374 49.2523L858.917 49.67L865.143 49.3842L867.401 50.3956L868.519 52.6603V54.6391L869.944 56.618V58.7508L871.347 60.3119L872.904 63.566L872.75 66.2484L874.592 67.8095H876.28L879.261 70.492L880.094 72.053L884.479 73.3283L888.995 75.7469H890.968L892.108 74.7575L896.493 75.0433L898.466 73.6141L900.724 73.7681L902.565 74.3177L904.407 73.7681L906.928 71.0636L911.181 69.6564L916.969 69.2167L919.928 67.3917L923.743 67.2378L927.426 66.2484L930.67 68.0953L935.033 68.5131L940.689 68.3812L943.649 72.6247L948.888 74.6036L953.119 74.4716L956.232 73.7681L957.635 75.1752L959.192 79.8585L962.151 81.8374L963.993 82.8268L965.834 83.2446L968.378 86.0809L970.636 86.2348L977.278 85.5092L983.066 87.2242L991.813 87.0703L995.628 86.6526L997.052 85.3773H1000.3L1003.13 86.9384L1004.81 86.6526L1007.07 83.1126L1012.57 79.9904H1015.97L1018.23 77.308L1020.77 77.0222H1027.42L1030.38 74.4716L1031.23 71.5034V70.2061L1033.05 67.3917L1036.16 65.9626L1038.29 63.6979L1039.41 60.5757L1041.67 58.4649H1044.21L1045.06 59.3224L1049.45 58.1791L1052.25 58.4649L1055.65 60.7296L1057.34 63.2801L1059.6 64.1156L1062.29 62.7085L1063.85 63.8518L1066.39 63.6979L1069.77 61.8729V60.3119L1074.72 59.4544L1080.23 61.1474L1081.78 62.8624L1078.54 85.6632L1079.24 90.6103L1077.97 94.8758L1078.39 97.8441L1076.41 104.22L1078.82 108.882L1085.73 112.29L1090.4 108.596H1096.32L1102.68 109.739L1105.66 112.707L1109.19 107.189L1108.75 103.935L1109.03 101.23L1113 99.9549L1114.56 98.6796L1121.05 100.395L1124.86 105.056L1130.23 109.871L1134.46 115.258L1139.84 119.084L1139.97 121.634L1140.95 123.613V126.164L1139.84 127.879V129.989L1138.56 131.704L1136.44 131.265L1135.03 129.858L1131.92 130.275L1130.23 131.419L1126.13 129.572L1123.59 130.143L1120.89 133.815L1116.95 137.069L1114.69 138.499L1112.02 136.652L1110.88 136.937L1110.74 139.62L1109.6 141.335L1107.63 141.599L1106.07 141.335L1104.96 143.028L1102.39 146.986L1101.69 151.383L1101.97 154.505L1100.42 156.33L1097.33 157.188L1090.68 161.585H1087.29L1083.63 160.882L1081.92 162.157L1079.24 167.961L1076.57 169.94L1073.17 172.337L1071.2 174.47L1070.34 176.888L1068.94 177.174L1065.82 175.745L1062.29 174.887L1057.78 173.326L1054.25 170.798L1050.57 170.644L1044.93 171.919L1041.53 174.47L1039.41 177.438L1039.28 183.968L1039.56 187.068L1039.28 189.201L1045.92 193.445L1051.84 197.139V198.985L1050.43 201.8L1048.46 204.636L1042.1 211.87L1038.29 218.092L1036.16 222.908H1033.77L1029.1 224.469L1025.57 224.623L1021.63 227.305L1017.66 230.273L1013.56 230.427L1007.49 231.131L1003.39 232.538L998.587 233.813L988.152 237.507L979.953 240.343L975.853 245.005L969.496 250.106L966.821 252.239L963.423 252.37L959.06 251.095V249.556L958.49 247.269L952.264 249.116L947.2 249.82L941.96 247.138L937.729 246.72L928.412 243.18L919.227 238.914L914.272 234.099H910.479L899.869 232.824L890.968 233.11L888.71 232.538L887.175 233.549L886.321 235.242L881.366 237.089L874.46 237.793L862.315 236.65L853.414 237.221L846.64 236.803L840.831 237.507L837.871 237.793L835.328 236.935L832.084 230.559L830.812 227.437L827.699 222.776L825.156 219.807L823.468 215.542L823.336 213.717L821.21 211.452L818.952 210.595L817.549 210.309L816.825 208.748L816.54 206.065L815.554 205.626L814.151 206.065H810.051L806.522 203.933L801.151 200.107L799.309 199.689H798.037L795.363 199.249L794.245 197.556L789.575 194.588L779.688 192.323L778.702 192.609L777.43 193.73L773.484 194.17H767.126L752.701 191.18L749.457 189.333L746.212 184.254L745.642 181.989V179.703L746.629 178.164L748.755 176.602L749.61 173.898L747.9 171.919L747.199 168.511L747.9 166.686L747.769 163.278L746.497 161.585L744.656 158.463L742.551 157.474L740.139 155.495L739.284 152.944L737.75 150.811L736.895 148.129L736.478 145.864L734.922 143.446L732.51 141.599L730.406 140.895L729.266 139.202L726.876 138.213L724.596 138.345L723.193 139.774L721.637 140.477L720.08 139.906L717.69 137.355L716.989 135.948H714.161L711.333 137.355L710.193 138.63L709.645 140.345L708.22 140.477L705.392 138.499L704.69 136.366L704.559 135.376L702.586 132.826L699.604 130.979L697.346 128.428L695.658 127.725L694.102 126.318L693.532 124.471L693.4 122.624L692.545 121.063L692.128 121.217L691.844 122.052L690.989 122.338L689.87 120.513L689.015 119.655V116.247L688.73 114.554Z" fill="#1B75BC"/>
<path opacity="0.5" fill-rule="evenodd" clip-rule="evenodd" d="M263.1 281.701L252.686 275.654L242.931 274.181L235.521 276.753L226.993 284.317L226.774 281.371L226.094 278.051L227.607 274.071L228.177 269.849L228.067 268.332L228.769 267.101L227.146 266.09L224.011 266.376L221.731 265.298L218.794 264.66L216.733 265.628L215.79 265.21L214.738 262.945L213.357 261.67L212.107 259.274L210.551 258.394L209.367 258.922L206.736 259.603L206.035 259.581L206.166 256.349L206.013 253.337L201.825 248.412L200.949 246.499L199.852 246.081L198.734 243.025L197.156 242.014L196.016 239.705L193.297 238.65L191.105 238.496L189.505 236.649L189.614 235.549L190.601 234.34L191.872 234.802L196.279 234.538L197.353 235.066L199.107 234.978L200.379 235.769L202.308 234.318L203.338 233.856L205.815 234.736L207.109 233.658L206.122 231.658L203.009 231.812L202.483 231.46V229.393L199.633 226.117L199.436 224.974L200.795 224.16V221.5L200.422 220.334L202.067 218.685L205.004 217.806L207.394 217.014L209.63 218.004L212.611 217.256L214.913 216.86L216.251 218.07L217.698 217.256H219.364L221.775 219.807H224.23L227.694 218.135L228.308 216.267L225.765 215.409L223.112 214.749L221.424 211.231L221.797 208.351L223.551 207.604L224.844 206.042L225.085 205.735L223.836 204.481L223.025 203.272L222.586 202.261L224.187 199.336L224.537 196.83L222.126 194.411L221.6 193.07L222.674 191.311V189.97L220.547 189.53L219.517 187.705L219.035 186.232L213.642 185.924L211.866 185.66L209.455 186.144L209.17 187.199L207.569 188.079L207.416 189.618L206.385 190.146L204.719 189.574L204.544 188.167L202.132 188.343L201.518 188.98L200.51 187.771L200.663 185.66L199.545 184.319L198.208 185.506H196.674L195.249 184.517L191.127 184.649L189.022 186.76L188.277 188.914L187.839 189.2L186.984 188.343H185.296L183.608 190.717L181.898 190.585L180.626 192.652L178.346 194.543L176.724 194.213L176.22 196.192L175.518 196.918L174.729 196.016L173.019 195.818L172.01 197.402H170.542L169.818 195.796L168.678 195.972L164.82 193.532L161.137 194.807L156.073 191.531L156.379 189.64H162.299L155.963 179.064L149.101 172.6L139.126 169.851L138.074 171.808L133.952 168.4L134.895 166.224L132.155 161.782L126.367 159.495L128.45 154.966L129.765 145.402L127.463 143.247L126.806 136.475L129.371 135.2L133.558 130.143V126.317L135.29 124.118L142.722 130.89L143.642 133.551L148.422 136.387L153.53 135.903L152.938 131.308L154.801 129.725L151.491 118.203L155.481 117.83H160.676V113.696L158.594 111.058L159.361 108.023L163.57 105.429L165.653 105.341L167.1 101.229L169.095 99.7342L172.317 100.658L172.822 97.6234L172.142 94.897L172.624 93.6437L176.548 95.8204L179.793 97.2496L179.442 98.7227L177.14 101.427L179.245 103.34L182.358 101.537L183.191 99.2724L184.419 98.4809L184.572 101.317L187.203 98.4809L187.576 96.8318L190.075 96.568L193.297 94.4572L195.534 94.3253L197.024 98.1291L200.554 100.592L205.991 98.8327H208.161L209.564 101.097L211.274 101.229L214.256 105.077H217.369L219.649 107.891L223.902 111.146L226.072 111.409L227.168 113.124L227.322 116.708L229.624 117.478L231.882 114.092L231.465 110.552L233.833 109.189L235.696 111.849L241.177 112.685L242.843 115.477L245.627 116.62L249.507 113.498L249.771 108.155L252.862 107.869L253.147 105.099L254.857 104.461L256.764 107.012L258.255 104.176L261.214 103.692L265.292 107.518L266.213 109.211L271.058 108.705L270.466 105.077L272.526 104.351L275.837 104.813L277.306 102.812L280.506 104.593L282.238 105.407L281.515 106.858L278.906 108.353L282.304 112.245L285.154 113.19L286.382 112.377L288.245 113.432L292.761 113.168L298.023 116.159L301.64 115.367L303.152 112.047L303.438 109.233L304.512 108.177L308.721 110.816L313.018 111.299L318.433 109.54L319.858 106.858L319.134 94.9189L317.446 93.7316L313.215 93.5777L310.606 91.4889L310.168 89.8179L306.638 89.0703L304.621 87.0475H301.311L301.201 85.6183L300.259 83.7714L300.544 82.782L303.262 82.3642L303.876 79.0881L306.046 76.4277L305.235 72.5139L303.021 72.2281L302.911 69.5017L306.068 64.9503L309.291 62.004L315.21 61.4544L317.797 62.3558L319.858 60.8167V57.2768L316.723 56.3313L314.487 54.0447L311.746 54.1986L310.146 55.5398L307.427 54.3745L303.832 54.2206L303.635 52.8134L304.621 51.9559L309.006 51.802L307.559 47.7783L303.394 48.3939L301.684 47.7783L302.692 46.6349L301.179 43.161L301.925 42.6113L305.082 42.3035L306.616 40.5005L308.261 40.6104L309.137 42.2155L312.645 41.7758L315.561 43.9305L317.03 41.8857V40.2806L319.244 38.7855L321.568 38.9174L323.475 41.9737L325.273 39.4451L325.601 37.4223L330.424 35.9272L333.713 35.6633L337.549 33.7944L341.408 33.5306L342.372 32.0794L345.946 29.8587L349.629 29.7268L351.996 28.0777L353.794 27.8798L355.921 28.8033L357.565 27.506L357.433 24.3839L358.836 23.1965H362.147L362.607 21.0198L364.164 19.8105L365.523 21.0418L367.934 21.5255L370.762 19.8765L374.051 18.931L380.277 14.7095H381.548L383.083 13.6321L386.591 13.1044L388.498 10.5319L390.142 11.0376L394.592 10.0921L394.417 7.5856L393.299 5.5188L394.483 4.88117L398.56 4.77123L399.306 1.67103L401.695 0.417758L403.383 0.681605L405.685 0L409.061 1.36321L413.073 0.989426L416.581 3.36405H420.242L423.662 1.91289L426.139 2.19872L427.367 5.60675L428.573 6.66214L429.581 9.45452L431.62 12.137L433.549 13.2803L433.812 14.6215L433.111 16.9742L433.659 20.0304L433.549 20.712L431.072 21.3276L432.563 24.6477L434.623 26.2748L437.868 24.2959L440.082 26.0989L442.231 25.3733L442.801 22.493L444.006 21.9433L444.927 24.7576H447.317L447.821 22.0092L446.791 19.2828L447.185 19.041L451.767 22.449L452.447 26.9344L454.464 31.024L456.612 30.8481L459.243 28.0337L457.292 26.9784L456.787 26.0549L459.309 25.4832L464.68 28.1217L466.872 28.1657L469.02 26.4067L469.985 26.9344L468.998 29.5509L467.113 31.068V35.2456L469.327 38.1039L471.739 37.928L473.471 35.7513L476.562 34.9377L482.284 36.3669L483.796 37.4663L486.12 35.8612L485.572 32.5411L487.918 31.6836L492.193 31.1339L495.174 29.1551L496.49 26.4946L498.616 24.6917L498.901 22.5369L502.058 19.3928L504.294 18.6452L506.618 16.3585L509.621 15.545L513.239 14.3357L514.444 15.1932V17.3479L512.099 19.8105L509.446 20.4921L510.805 23.2405L537.354 43.2269L573.46 88.5426L577.253 87.7951L579.928 86.234L580.629 83.9473L579.862 83.3097L579.73 80.5393L581.681 79.6158L585.408 81.3748L585.058 83.0238L585.211 85.5744L588.806 86.4758L590.955 88.6306L593.805 88.7845L596.041 87.2894L598.124 86.9596L601.85 89.1143L605.161 87.6851L607.55 88.2348L610.641 87.0035L611.716 85.2226L610.707 83.7494L611.102 82.6501L615.64 81.9904H620.792L625.067 83.1118L629.298 86.2999L631.578 90.4116L633.222 94.0395H634.932L637.913 94.875L641.289 97.1397H642.408L644.249 97.9972L644.381 99.4263L643.833 100.658L643.942 103.252L644.688 105.231L646.2 106.792L647.033 107.628H648.48L651.264 108.859L653.72 110.002L654.772 108.419L657.03 107.298L663.76 106.924L667.136 105.869L668.715 103.274L671.236 101.867L672.223 102.329L671.039 105.627L672.025 108.397L674.349 109.035L677.418 111.761L681.825 113.366L682.504 114.246L680.224 116.818L677.944 117.984L673.889 122.293L673.735 124.997L674.524 126.449L672.902 129.219L668.649 130.868L665.865 132.847L665.273 136.431L665.405 142.741L668.43 148.744L671.039 152.328L670.666 154.153L667.093 158.176L664.045 159.232L661.502 162.2L659.661 162.816L658.565 162.376L657.819 160.573H654.969L649.094 161.848L645.411 161.562L639.733 159.605L636.247 159.166L634.121 159.32L632.805 166.465L631.534 170.511L631.38 174.029L629.977 182.472L629.955 189.068L629.188 191.487L631.117 192.96L634.186 194.235L632.981 196.808L632.696 198.809H630.986L629.276 199.952H627.325L625.549 198.303L623.444 199.292L620.002 200.106L613.513 201.513L608.931 203.228L607.09 203.206L605.292 202.173L602.552 203.382L599.746 205.999L599.592 208.395L602.442 210.616L606.717 210.33L609.633 210.704V211.539L607.594 213.738L608.931 218.355L609.216 220.422L610.554 222.577L611.058 225.413L613.776 230.075L614.346 232.515L617.438 234.78L618.49 240.453L616.977 241.86L615.771 244.96L618.117 247.554L617.043 248.104L616.604 249.841L613.864 251.886L613.996 255.668L611.562 257.009L605.358 255.382L599.066 248.06L596.26 248.808L590.187 246.301L581.133 245.839L576.573 247.379L569.229 245.444L562.082 247.137L558.597 247.554L555.177 246.499L552.305 248.918L549.828 250.083L541.914 248.962L536.038 247.423L532.925 245.554L528.146 245.707L526.414 246.455L523.082 246.257L520.298 245.686L518.215 246.895L518.544 250.281L519.399 253.623L519.508 257.097L515.365 257.757L506.245 258.02L495.569 256.899L493.201 255.536L487.874 254.744L484.827 258.13L485.769 259.757L482.897 261.714L482.415 262.792L481.648 262.66L478.513 266.705L476.145 267.695L470.336 274.621L468.165 278.798L466.521 280.711L463.496 286.296L458.059 291.463L456.809 290.539L450.101 287.263L445.037 286.494L440.499 287.351L433.988 290.869L431.313 290.627L425.24 273.653L414.893 272.378L414.454 251.358L409.193 252.963L405.642 244.454L397.947 238.628H373.634L351.996 241.024L339.829 233.593L330.578 230.141L307.362 213.672L268.054 221.148L279.914 291.089L278.117 291.331L272.395 292.54L263.1 281.701Z" fill="#1B75BC"/>
<path opacity="0.3" fill-rule="evenodd" clip-rule="evenodd" d="M447.339 361.162L445.541 358.545L442.187 357.006L438.285 358.062L437.495 351.905L437.802 347.903L431.927 343.836L429.581 344.254L427.959 342.473L420.045 341.175L410.333 334.447L399.24 329.456L389.572 322.42L379.816 316.176L374.796 313.933L371.486 307.821L370.499 303.951L367.518 301.818L364.975 293.177L358.639 288.56L355.307 288.032L353.136 289.549L344.608 285.13L333.757 279.413L332.77 276.027L324.154 270.838L314.245 265.869L306.353 265.165L309.181 269.123L308.085 269.849L304.424 267.87L300.829 269.981L298.549 273.477L293.989 273.916L290.7 280.644L291.753 286.163L294.186 288.604L293.002 291.396L287.127 290.473L280.791 291L269.062 221.851L307.164 214.595L330.161 230.931L339.457 234.361L351.799 241.925L373.7 239.506H397.64L404.918 245.003L408.711 254.04L413.621 252.545L414.038 273.169L424.583 274.444L430.655 291.462L434.185 291.792L440.806 288.164L445.059 287.373L449.838 288.076L456.349 291.308L458.147 292.606L464.197 286.823L467.244 281.194L468.889 279.281L471.059 275.104L476.649 268.376L479.039 267.364L482.02 263.626L482.941 263.78L483.314 262.923L483.862 263.802L484.059 266.419L476.978 277.588L480.047 279.523L486.778 281.546L489.299 284.008L492.258 285.042L495.108 282.03L495.481 278.27L496.994 278.578L503.768 283.943L504.513 286.537L500.567 290.868L495.832 290.605L488.838 291.704L487.874 289.857L484.235 286.163L479.39 291.154L476.474 290.868L472.528 293.947L468.56 295.266L468.384 299.378L472.901 301.642L472.791 304.061L468.099 306.084L460.975 307.667L462.904 309.36L463.605 311.185L458.125 313.098L457.708 316.484L455.297 317.099L448.785 316.066L445.519 318.748V323.63L449.64 329.588L452.534 327.983L456.064 327.895L456.787 330.797L455.362 333.656L457.05 338.251L459.944 339.504L460.339 343.022L459.023 344.583L455.998 351.927L454.968 360.238L454.222 359.337L451.307 359.007L448.895 361.272L447.339 361.162Z" fill="#1B75BC"/>
<path opacity="0.3" fill-rule="evenodd" clip-rule="evenodd" d="M385.231 397.09L384.464 395.023L381 392.451H378.15L376.155 394.144H374.072L371.924 392.539L368.416 391.593L367.101 391.945L366.18 390.12L366.312 387.966L365.084 384.404L366.092 382.095L363.637 377.676L359.823 376.048L353.399 375.477L347.48 367.276L341.824 365.978L338.733 366.638L337.746 365.868L336.869 361.339L333.471 360.723L327.399 358.261L325.053 359.888L322.905 359.998L314.552 354.699L309.926 353.38L304.577 349.092L301.179 349.246L298.395 347.949L295.063 348.916L293.988 352.148L288.99 351.093L282.347 352.258L276.297 357.469L273.841 357.623L271.759 360.328L270.509 363.999L263.603 364.417L260.885 366.044L258.386 359.162L256.983 354.105L257.29 346.739L256.851 344.233V340.055L255.952 336.779L251.941 334.756L250.34 332.008L247.885 331.546L246.613 330.667L244.377 331.216L244.531 333.151L243.939 332.184L243.873 330.051L246.109 328.182L247.271 329.216L249.069 328.754L251.634 329.523L252.861 327.874L250.647 324.796L248.937 325.456L248.258 323.059L249.003 319.937L247.424 318.376L245.298 319.915L240.848 319.189L239.598 320.663L241.33 322.554L241.44 323.037L237.45 319.277L236.792 317.123L235.104 314.968L234.424 307.734L236.178 304.876L236.814 300.148L233.635 295.069L232.78 292.475L230.281 290.562L229.426 288.583L227.19 286.187L227.08 285.417L235.959 277.502L243.018 275.017L252.401 276.468L262.551 282.361L272.066 293.508L278.27 292.189L280.484 291.903L287.105 291.332L293.55 292.387L295.216 288.385L292.563 285.725L291.621 280.778L294.558 274.753L299.053 274.335L301.42 270.598L304.446 268.883L308.129 270.883L310.431 269.344L308.173 266.2L314.004 266.706L323.738 271.609L332.024 276.6L333.033 280.008L344.192 285.901L353.202 290.562L355.526 288.957L358.332 289.353L364.229 293.728L366.772 302.369L369.732 304.48L370.674 308.152L374.182 314.616L379.4 316.947L389.09 323.147L398.801 330.205L409.894 335.218L419.716 341.968L427.52 343.288L429.274 345.2L431.729 344.761L436.881 348.345L436.618 351.928L437.407 358.195L436.487 357.293L433.176 357.997L430.195 356.15L426.621 357.205L422.215 360.438H421.097L417.173 361.449L415.463 362.658L413.753 363.428L413.577 365.758L414.871 366.77V369.474L411.473 373.036V377.016L410.574 380.49L408.557 380.996L406.036 382.996L405.532 384.294L400.117 385.371L395.14 388.163L395.864 390.208L394 391.791L393.562 393.792L391.633 395.881L387.555 396.585L386.196 397.948L385.231 397.09Z" fill="#1B75BC"/>
<path opacity="0.3" fill-rule="evenodd" clip-rule="evenodd" d="M0 100.881L3.11304 98.7486L8.48412 97.0556L12.2987 98.9025L16.0913 97.0556L18.6344 96.7697L17.0778 92.5262L21.3309 92.3723L22.8874 88.5465L25.4304 87.711L26.417 89.404H29.6615V86.1499L25.847 84.303L26.702 79.7736L28.8065 79.3558L31.503 74.5406L36.5672 72.122V69.1537L34.3092 68.1643L37.7072 63.613L42.3767 61.5022L48.4494 60.6447L49.0193 56.8189L51.5405 55.5436L52.6805 52.5754L56.21 51.7179L58.7531 53.4329L61.9976 51.5859L64.9572 56.2472L68.5087 54.5542L71.7533 54.972L74.4279 59.8092L78.2424 56.8189L82.4735 55.5436L84.1835 57.6764H86.2881L92.6457 60.073L93.5007 63.481L92.5142 67.3068L95.0572 70.2751V74.6725L98.4333 78.3664L99.9898 82.3241L103.804 87.711L106.764 89.8218L108.035 94.637L112.99 95.9122L118.493 100.881L118.909 103.564L122.724 106.114L121.036 107.543L118.076 112.491L110.447 113.48L107.202 110.512L105.931 112.908L106.216 116.448L109.175 121.132L108.737 125.243L112.135 129.069V132.741L111.719 132.609L105.492 134.302L101.13 134.742L99.0033 140.261L98.7183 145.208L95.6053 145.647L93.0622 143.515L88.8311 144.79L86.2881 143.097L83.3285 143.229L80.5005 146.637L78.1109 145.779L77.5409 142.943L73.5729 142.525L68.9252 145.208L66.9522 144.372L62.5676 143.647L61.2961 144.922L59.1696 145.076L56.78 142.811L51.6939 144.79L51.1239 143.097L47.4628 141.382L39.1102 140.107L35.4491 138.128L33.6076 137.996L30.6481 140.546L25.9785 140.678L15.6748 142.239L13.1317 143.515L8.48412 141.096L6.07261 141.382L6.20415 139.975L3.24457 135.159L2.12651 130.916L4.38456 127.222L7.2126 126.233V117.02L5.50262 115.459L4.80109 111.919L2.82804 108.819L0.569992 102.003L0 100.881Z" fill="#1B75BC"/>
<path opacity="0.3" fill-rule="evenodd" clip-rule="evenodd" d="M142.087 342.079L138.075 341.881L134.655 340.056L134.238 337.219L127.815 333.723L128.078 331.789L126.763 328.82L124.833 328.974L122.882 326.578H122.334L122.225 326.424L123.978 326.336L126.258 325.148L130.161 328.908L132.024 327.193H134.129L136.343 331.789L140.048 332.778L146.34 342.518L145.748 344.101L142.087 342.079Z" fill="#1B75BC"/>
<path opacity="0.3" fill-rule="evenodd" clip-rule="evenodd" d="M181.283 350.565L180.34 348.938L177.819 347.596L173.434 342.825L178.367 339.483L174.509 337.064L173.895 335.943L175.824 334.448L173.413 332.007L172.119 329.655L170.891 329.391L170.584 328.467H168.677L165.74 330.534L163.547 330.93L161.684 333.525L159.908 334.206L157.431 337.658H156.028L154.778 339.395L154.34 341.044L152.147 342.034L150.635 341.528V338.714L151.862 337.328L149.867 333.744L153.616 332.843L149.517 328.907L145.132 328.753L138.972 325.411L137.174 321.278L139.081 319.211L138.753 315.847L132.833 311.032L132.702 308.261L133.754 304.765L130.51 301.489L125.27 300.786L122.705 298.587L122.924 296.52L127.988 294.563L136.012 299.027L141.712 299.378L147.434 302.281L148.399 296.278L146.206 293.156L142.545 290.803L143.773 286.23L147.5 286.604L154.077 292.035L156.05 295.641L163.372 296.41L164.578 293.706L168.831 291.375L173.785 285.482L176.569 287.395L180.954 293.134L181.085 295.838L183.102 300.126L188.057 303.732L188.627 306.128L191.981 308.723L196.103 308.569L199.61 310.042L201.013 312.241L199.654 312.065L197.637 313.516L193.669 313.802L189.022 317.716L189.328 321.761L189.723 324.73L188.495 326.379L188.188 329.325L189.109 330.996V332.733L187.838 334.008V336.207L185.317 333.678L183.87 335.13L182.861 337.68L184.023 341.638L183.563 343.837L184.44 345.156L184.308 350.433L183.387 350.938L181.283 350.565Z" fill="#1B75BC"/>
<path opacity="0.3" fill-rule="evenodd" clip-rule="evenodd" d="M140.595 332.029L136.956 331.04L134.676 326.313H131.694L130.16 327.698L126.411 324.07L123.736 325.499L121.654 325.587L120.799 323.982L118.036 321.19L114.858 321.497L110.407 321.212L106.593 318.837L106.439 313.274L107.47 308.679L105.584 305.249L103.151 304.699L102.888 303.028L100.98 300.873L104.883 299.532L111.46 298.125L113.104 298.565L121.237 298.279L124.876 301.665L130.094 302.369L132.768 305.051L131.848 308.195L131.979 311.515L137.92 316.352L138.183 318.947L136.145 321.124L138.293 326.071L144.914 329.677L149.189 329.875L151.885 332.447L148.553 333.239L150.811 337.306L149.781 338.472V341.396L147.04 341.968L140.595 332.029Z" fill="#1B75BC"/>
<path opacity="0.3" d="M510.475 305.797L499.119 305.534L502.715 296.563L501.071 291.44L505.477 286.778L504.512 283.414L497.344 277.808L495.195 277.302L494.713 277.192L494.253 281.633L492.016 284.03L489.736 283.26L487.215 280.82L480.397 278.731L478.205 277.324L484.957 266.66L484.672 263.516L483.817 262.131L486.93 260.02L485.9 258.239L488.202 255.666L492.915 256.348L495.305 257.711L496.248 257.843L506.222 258.899L517.403 258.327L520.385 257.074L520.253 253.49L519.398 250.148L519.157 247.377L520.494 246.586L522.752 246.959L526.348 247.223L528.145 246.586L532.903 246.41L535.84 248.279L550.002 251.005L555.351 247.465L559.495 248.301L569.207 246.3L576.617 248.301L581.264 246.696L589.989 247.157L596.194 249.73L598.759 249.048L604.875 256.172L610.663 257.667L581.549 280.93L566.137 289.989L551.515 296.387L544.653 298.388L537.243 295.551L530.579 306.193L521.261 308.986L510.475 305.797Z" fill="#1B75BC"/>
<path opacity="0.3" d="M457.446 363.45L455.736 361.185L456.832 352.148L459.769 345.047L461.238 343.31L460.778 338.912L457.752 337.593L456.328 333.701L457.709 330.909L456.744 326.995L452.294 327.149L449.904 328.446L446.396 323.345V319.168L449.049 317.013L455.341 317.98L458.498 317.167L458.936 313.759L464.834 311.67L462.619 308.196L467.64 307.075L473.646 304.656L473.8 301.116L469.284 298.851L469.394 295.883L473.274 294.454L476.738 291.793L479.741 292.079L484.235 287.418L487.173 290.364L488.357 292.651L495.876 291.486L500.261 291.749L501.795 296.521L497.827 306.371L510.345 306.657L521.263 309.911L530.712 307.075L536.981 315.672L534.877 318.178L542.155 330.579L539.24 342.166L525.362 344.937L511.858 343.969L506.925 341.661L504.163 341.726V339.638L501.247 338.121L498.639 336.208H494.692L493.158 339.154L492.566 343.376L490.856 344.827L489.409 347.047L490.264 351.159L488.357 353.951L485.836 354.303L485.419 352.654H483.446L482.131 354.413L478.886 355.293L478.535 357.799L479.982 359.096L480.092 360.811L475.707 360.46L474.282 358.503L472.309 357.206L470.468 358.921L468.714 359.206L467.07 361.625L464.088 363.34L459.419 364.373L457.446 363.45Z" fill="#1B75BC"/>
<path d="M430.922 134.484V138.703C433.259 138.703 435.172 140.602 435.172 142.922C435.172 145.214 433.33 147.141 430.922 147.141V158.484C431.164 158.49 431.412 158.375 431.55 158.138L438.218 147.239C439.011 145.945 439.422 144.441 439.422 142.922C439.422 138.267 435.611 134.484 430.922 134.484Z" fill="white"/>
<path d="M430.926 134.484C426.237 134.484 422.426 138.267 422.426 142.922C422.426 144.497 422.865 146.03 423.701 147.352L430.35 158.152C430.463 158.335 430.633 158.448 430.831 158.476C431.1 158.518 431.398 158.405 431.554 158.138L438.222 147.239C439.015 145.945 439.426 144.441 439.426 142.922C439.426 138.267 435.615 134.484 430.926 134.484ZM430.926 147.141C428.546 147.141 426.676 145.228 426.676 142.922C426.676 140.602 428.588 138.703 430.926 138.703C433.263 138.703 435.176 140.602 435.176 142.922C435.176 145.214 433.334 147.141 430.926 147.141Z" fill="#1B75BC"/>
<path d="M385.926 240C381.237 240 377.426 243.783 377.426 248.438C377.426 250.013 377.865 251.545 378.701 252.867L385.35 263.668C385.463 263.851 385.633 263.963 385.831 263.991C386.1 264.034 386.398 263.921 386.554 263.654L393.222 252.755C394.015 251.461 394.426 249.956 394.426 248.438C394.426 243.783 390.615 240 385.926 240ZM385.926 252.656C383.546 252.656 381.676 250.744 381.676 248.438C381.676 246.117 383.588 244.219 385.926 244.219C388.263 244.219 390.176 246.117 390.176 248.438C390.176 250.73 388.334 252.656 385.926 252.656Z" fill="#1B75BC"/>
<path d="M326.926 298C322.237 298 318.426 301.783 318.426 306.438C318.426 308.013 318.865 309.545 319.701 310.867L326.35 321.668C326.463 321.851 326.633 321.963 326.831 321.991C327.1 322.034 327.398 321.921 327.554 321.654L334.222 310.755C335.015 309.461 335.426 307.956 335.426 306.438C335.426 301.783 331.615 298 326.926 298ZM326.926 310.656C324.546 310.656 322.676 308.744 322.676 306.438C322.676 304.117 324.588 302.219 326.926 302.219C329.263 302.219 331.176 304.117 331.176 306.438C331.176 308.73 329.334 310.656 326.926 310.656Z" fill="#1B75BC"/>
<path d="M138.926 312C134.237 312 130.426 315.783 130.426 320.438C130.426 322.013 130.865 323.545 131.701 324.867L138.35 335.668C138.463 335.851 138.633 335.963 138.831 335.991C139.1 336.034 139.398 335.921 139.554 335.654L146.222 324.755C147.015 323.461 147.426 321.956 147.426 320.438C147.426 315.783 143.615 312 138.926 312ZM138.926 324.656C136.546 324.656 134.676 322.744 134.676 320.438C134.676 318.117 136.588 316.219 138.926 316.219C141.263 316.219 143.176 318.117 143.176 320.438C143.176 322.73 141.334 324.656 138.926 324.656Z" fill="#1B75BC"/>
<path d="M59.9258 78C55.2365 78 51.4258 81.7828 51.4258 86.4375C51.4258 88.0125 51.865 89.5454 52.7008 90.8672L59.3496 101.668C59.463 101.851 59.633 101.963 59.8314 101.991C60.1005 102.034 60.3981 101.921 60.5539 101.654L67.2217 90.7547C68.0149 89.461 68.4258 87.9563 68.4258 86.4375C68.4258 81.7828 64.615 78 59.9258 78ZM59.9258 90.6563C57.5459 90.6563 55.6758 88.7438 55.6758 86.4375C55.6758 84.1171 57.5882 82.2188 59.9258 82.2188C62.2633 82.2188 64.1758 84.1171 64.1758 86.4375C64.1758 88.7297 62.3341 90.6563 59.9258 90.6563Z" fill="#1B75BC"/>
<path d="M119.926 293C115.237 293 111.426 296.783 111.426 301.438C111.426 303.013 111.865 304.545 112.701 305.867L119.35 316.668C119.463 316.851 119.633 316.963 119.831 316.991C120.1 317.034 120.398 316.921 120.554 316.654L127.222 305.755C128.015 304.461 128.426 302.956 128.426 301.438C128.426 296.783 124.615 293 119.926 293ZM119.926 305.656C117.546 305.656 115.676 303.744 115.676 301.438C115.676 299.117 117.588 297.219 119.926 297.219C122.263 297.219 124.176 299.117 124.176 301.438C124.176 303.73 122.334 305.656 119.926 305.656Z" fill="#1B75BC"/>
<path d="M174.5 292C169.811 292 166 295.783 166 300.438C166 302.013 166.439 303.545 167.275 304.867L173.924 315.668C174.037 315.851 174.207 315.963 174.406 315.991C174.675 316.034 174.972 315.921 175.128 315.654L181.796 304.755C182.589 303.461 183 301.956 183 300.438C183 295.783 179.189 292 174.5 292ZM174.5 304.656C172.12 304.656 170.25 302.744 170.25 300.438C170.25 298.117 172.162 296.219 174.5 296.219C176.838 296.219 178.75 298.117 178.75 300.438C178.75 302.73 176.908 304.656 174.5 304.656Z" fill="#1B75BC"/>
<path d="M488.926 300C484.237 300 480.426 303.783 480.426 308.438C480.426 310.013 480.865 311.545 481.701 312.867L488.35 323.668C488.463 323.851 488.633 323.963 488.831 323.991C489.1 324.034 489.398 323.921 489.554 323.654L496.222 312.755C497.015 311.461 497.426 309.956 497.426 308.438C497.426 303.783 493.615 300 488.926 300ZM488.926 312.656C486.546 312.656 484.676 310.744 484.676 308.438C484.676 306.117 486.588 304.219 488.926 304.219C491.263 304.219 493.176 306.117 493.176 308.438C493.176 310.73 491.334 312.656 488.926 312.656Z" fill="#1B75BC"/>
<path d="M558.926 236C554.237 236 550.426 239.783 550.426 244.438C550.426 246.013 550.865 247.545 551.701 248.867L558.35 259.668C558.463 259.851 558.633 259.963 558.831 259.991C559.1 260.034 559.398 259.921 559.554 259.654L566.222 248.755C567.015 247.461 567.426 245.956 567.426 244.438C567.426 239.783 563.615 236 558.926 236ZM558.926 248.656C556.546 248.656 554.676 246.744 554.676 244.438C554.676 242.117 556.588 240.219 558.926 240.219C561.263 240.219 563.176 242.117 563.176 244.438C563.176 246.73 561.334 248.656 558.926 248.656Z" fill="#1B75BC"/>
<path d="M913.926 125C909.237 125 905.426 128.783 905.426 133.438C905.426 135.013 905.865 136.545 906.701 137.867L913.35 148.668C913.463 148.851 913.633 148.963 913.831 148.991C914.1 149.034 914.398 148.921 914.554 148.654L921.222 137.755C922.015 136.461 922.426 134.956 922.426 133.438C922.426 128.783 918.615 125 913.926 125ZM913.926 137.656C911.546 137.656 909.676 135.744 909.676 133.438C909.676 131.117 911.588 129.219 913.926 129.219C916.263 129.219 918.176 131.117 918.176 133.438C918.176 135.73 916.334 137.656 913.926 137.656Z" fill="#1B75BC"/>
<path d="M392.205 180V171.6H394.053V175.272L397.461 171.6H399.693L396.273 175.164L399.849 180H397.629L395.025 176.424L394.053 177.432V180H392.205ZM400.251 180L403.851 171.54H405.555L409.155 180H407.223L406.455 178.116H402.903L402.135 180H400.251ZM403.563 176.484H405.795L404.679 173.76L403.563 176.484ZM413.439 171.456C414.335 171.456 415.063 171.668 415.623 172.092C416.191 172.516 416.475 173.056 416.475 173.712C416.475 174.608 416.023 175.252 415.119 175.644C416.167 175.98 416.691 176.64 416.691 177.624C416.691 178.36 416.399 178.964 415.815 179.436C415.239 179.908 414.467 180.144 413.499 180.144C412.643 180.144 411.923 180.028 411.339 179.796C410.763 179.564 410.239 179.212 409.767 178.74L410.751 177.456C411.479 178.168 412.371 178.524 413.427 178.524C413.835 178.524 414.171 178.436 414.435 178.26C414.707 178.076 414.843 177.828 414.843 177.516C414.843 177.18 414.691 176.932 414.387 176.772C414.091 176.612 413.687 176.532 413.175 176.532H412.203V174.996H413.151C414.151 174.996 414.651 174.672 414.651 174.024C414.651 173.736 414.527 173.508 414.279 173.34C414.031 173.172 413.703 173.088 413.295 173.088C412.383 173.088 411.627 173.396 411.027 174.012L410.055 172.836C410.935 171.916 412.063 171.456 413.439 171.456ZM417.583 180L421.183 171.54H422.887L426.487 180H424.555L423.787 178.116H420.235L419.467 180H417.583ZM420.895 176.484H423.127L422.011 173.76L420.895 176.484ZM427.147 180L430.075 175.728L427.267 171.6H429.427L431.191 174.324L432.967 171.6H435.067L432.259 175.704L435.187 180H433.027L431.143 177.12L429.247 180H427.147ZM440.508 180.144C439.276 180.144 438.248 179.728 437.424 178.896C436.608 178.056 436.2 177.024 436.2 175.8C436.2 174.584 436.612 173.556 437.436 172.716C438.26 171.876 439.308 171.456 440.58 171.456C441.308 171.456 441.92 171.576 442.416 171.816C442.912 172.048 443.384 172.384 443.832 172.824L442.728 174.096C442.368 173.768 442.028 173.532 441.708 173.388C441.396 173.236 441.016 173.16 440.568 173.16C439.864 173.16 439.28 173.416 438.816 173.928C438.36 174.432 438.132 175.056 438.132 175.8C438.132 176.536 438.36 177.16 438.816 177.672C439.28 178.184 439.864 178.44 440.568 178.44C441.016 178.44 441.404 178.36 441.732 178.2C442.06 178.04 442.408 177.792 442.776 177.456L443.952 178.716C443.496 179.204 443 179.564 442.464 179.796C441.936 180.028 441.284 180.144 440.508 180.144ZM447.388 180V173.304H444.832V171.6H451.792V173.304H449.236V180H447.388ZM452.493 180L456.093 171.54H457.797L461.397 180H459.465L458.697 178.116H455.145L454.377 180H452.493ZM455.805 176.484H458.037L456.921 173.76L455.805 176.484ZM462.694 180V171.6H464.542V174.924H467.95V171.6H469.798V180H467.95V176.628H464.542V180H462.694Z" fill="#1B75BC"/>
<path d="M347.806 281.556L349.834 277.116H351.838L348.61 283.608C348.25 284.328 347.85 284.848 347.41 285.168C346.978 285.488 346.462 285.648 345.862 285.648C345.23 285.648 344.626 285.484 344.05 285.156L344.77 283.8C345.074 283.984 345.406 284.076 345.766 284.076C346.182 284.076 346.534 283.852 346.822 283.404L343.462 277.116H345.526L347.806 281.556ZM356.055 276.972C356.951 276.972 357.679 277.184 358.239 277.608C358.807 278.032 359.091 278.572 359.091 279.228C359.091 280.124 358.639 280.768 357.735 281.16C358.783 281.496 359.307 282.156 359.307 283.14C359.307 283.876 359.015 284.48 358.431 284.952C357.855 285.424 357.083 285.66 356.115 285.66C355.259 285.66 354.539 285.544 353.955 285.312C353.379 285.08 352.855 284.728 352.383 284.256L353.367 282.972C354.095 283.684 354.987 284.04 356.043 284.04C356.451 284.04 356.787 283.952 357.051 283.776C357.323 283.592 357.459 283.344 357.459 283.032C357.459 282.696 357.307 282.448 357.003 282.288C356.707 282.128 356.303 282.048 355.791 282.048H354.819V280.512H355.767C356.767 280.512 357.267 280.188 357.267 279.54C357.267 279.252 357.143 279.024 356.895 278.856C356.647 278.688 356.319 278.604 355.911 278.604C354.999 278.604 354.243 278.912 353.643 279.528L352.671 278.352C353.551 277.432 354.679 276.972 356.055 276.972ZM362.766 278.784V280.248H364.986C365.922 280.248 366.646 280.484 367.158 280.956C367.678 281.42 367.938 282.052 367.938 282.852C367.938 283.7 367.662 284.356 367.11 284.82C366.558 285.284 365.79 285.516 364.806 285.516H360.918V277.116H367.362V278.784H362.766ZM364.794 281.784H362.766V283.848H364.806C365.662 283.848 366.09 283.492 366.09 282.78C366.09 282.116 365.658 281.784 364.794 281.784ZM369.461 285.516V277.116H375.797V278.76H371.297V280.464H375.257V282.108H371.297V283.872H375.857V285.516H369.461ZM377.5 285.516V277.116H379.348V280.788L382.756 277.116H384.988L381.568 280.68L385.144 285.516H382.924L380.32 281.94L379.348 282.948V285.516H377.5ZM393.502 277.116V285.516H391.678V280.008L388.006 285.516H386.266V277.116H388.09V282.624L391.786 277.116H393.502ZM399.46 285.66C398.228 285.66 397.2 285.244 396.376 284.412C395.56 283.572 395.152 282.54 395.152 281.316C395.152 280.1 395.564 279.072 396.388 278.232C397.212 277.392 398.26 276.972 399.532 276.972C400.26 276.972 400.872 277.092 401.368 277.332C401.864 277.564 402.336 277.9 402.784 278.34L401.68 279.612C401.32 279.284 400.98 279.048 400.66 278.904C400.348 278.752 399.968 278.676 399.52 278.676C398.816 278.676 398.232 278.932 397.768 279.444C397.312 279.948 397.084 280.572 397.084 281.316C397.084 282.052 397.312 282.676 397.768 283.188C398.232 283.7 398.816 283.956 399.52 283.956C399.968 283.956 400.356 283.876 400.684 283.716C401.012 283.556 401.36 283.308 401.728 282.972L402.904 284.232C402.448 284.72 401.952 285.08 401.416 285.312C400.888 285.544 400.236 285.66 399.46 285.66ZM406.339 285.516V278.82H403.783V277.116H410.743V278.82H408.187V285.516H406.339ZM411.444 285.516L415.044 277.056H416.748L420.348 285.516H418.416L417.648 283.632H414.096L413.328 285.516H411.444ZM414.756 282H416.988L415.872 279.276L414.756 282ZM421.645 285.516V277.116H423.493V280.44H426.901V277.116H428.749V285.516H426.901V282.144H423.493V285.516H421.645Z" fill="#1B75BC"/>
<path d="M277.241 343.516V336.82H274.685V335.116H281.645V336.82H279.089V343.516H277.241ZM286.619 339.556L288.647 335.116H290.651L287.423 341.608C287.063 342.328 286.663 342.848 286.223 343.168C285.791 343.488 285.275 343.648 284.675 343.648C284.043 343.648 283.439 343.484 282.863 343.156L283.583 341.8C283.887 341.984 284.219 342.076 284.579 342.076C284.995 342.076 285.347 341.852 285.635 341.404L282.275 335.116H284.339L286.619 339.556ZM291.879 343.516V335.116H295.311C296.303 335.116 297.087 335.384 297.663 335.92C298.239 336.456 298.527 337.164 298.527 338.044C298.527 338.98 298.207 339.708 297.567 340.228C296.927 340.74 296.115 340.996 295.131 340.996H293.727V343.516H291.879ZM293.727 339.352H295.191C295.647 339.352 296.003 339.232 296.259 338.992C296.523 338.752 296.655 338.44 296.655 338.056C296.655 337.648 296.523 337.336 296.259 337.12C295.995 336.896 295.627 336.784 295.155 336.784H293.727V339.352ZM299.895 343.516V335.116H301.743V338.788L305.151 335.116H307.383L303.963 338.68L307.539 343.516H305.319L302.715 339.94L301.743 340.948V343.516H299.895ZM308.66 343.516V335.116H310.652L312.86 338.668L315.068 335.116H317.06V343.516H315.224V338.032L312.86 341.62H312.812L310.472 338.068V343.516H308.66ZM319.078 343.516V335.116H325.414V336.76H320.914V338.464H324.874V340.108H320.914V341.872H325.474V343.516H319.078ZM327.117 343.516V335.116H328.965V338.44H332.373V335.116H334.221V343.516H332.373V340.144H328.965V343.516H327.117ZM343.471 335.116V343.516H341.647V338.008L337.975 343.516H336.235V335.116H338.059V340.624L341.755 335.116H343.471ZM349.428 343.66C348.196 343.66 347.168 343.244 346.344 342.412C345.528 341.572 345.12 340.54 345.12 339.316C345.12 338.1 345.532 337.072 346.356 336.232C347.18 335.392 348.228 334.972 349.5 334.972C350.228 334.972 350.84 335.092 351.336 335.332C351.832 335.564 352.304 335.9 352.752 336.34L351.648 337.612C351.288 337.284 350.948 337.048 350.628 336.904C350.316 336.752 349.936 336.676 349.488 336.676C348.784 336.676 348.2 336.932 347.736 337.444C347.28 337.948 347.052 338.572 347.052 339.316C347.052 340.052 347.28 340.676 347.736 341.188C348.2 341.7 348.784 341.956 349.488 341.956C349.936 341.956 350.324 341.876 350.652 341.716C350.98 341.556 351.328 341.308 351.696 340.972L352.872 342.232C352.416 342.72 351.92 343.08 351.384 343.312C350.856 343.544 350.204 343.66 349.428 343.66ZM356.308 343.516V336.82H353.752V335.116H360.712V336.82H358.156V343.516H356.308ZM361.413 343.516L365.013 335.056H366.717L370.317 343.516H368.385L367.617 341.632H364.065L363.297 343.516H361.413ZM364.725 340H366.957L365.841 337.276L364.725 340ZM371.613 343.516V335.116H373.461V338.44H376.869V335.116H378.717V343.516H376.869V340.144H373.461V343.516H371.613Z" fill="#1B75BC"/>
<path d="M108.288 357.516L111.888 349.056H113.592L117.192 357.516H115.26L114.492 355.632H110.94L110.172 357.516H108.288ZM111.6 354H113.832L112.716 351.276L111.6 354ZM118.488 357.516V349.116H121.92C122.912 349.116 123.696 349.384 124.272 349.92C124.848 350.456 125.136 351.164 125.136 352.044C125.136 352.98 124.816 353.708 124.176 354.228C123.536 354.74 122.724 354.996 121.74 354.996H120.336V357.516H118.488ZM120.336 353.352H121.8C122.256 353.352 122.612 353.232 122.868 352.992C123.132 352.752 123.264 352.44 123.264 352.056C123.264 351.648 123.132 351.336 122.868 351.12C122.604 350.896 122.236 350.784 121.764 350.784H120.336V353.352ZM126.504 357.516V349.116H128.496L130.704 352.668L132.912 349.116H134.904V357.516H133.068V352.032L130.704 355.62H130.656L128.316 352.068V357.516H126.504ZM136.922 357.516V349.116H143.258V350.76H138.758V352.464H142.718V354.108H138.758V355.872H143.318V357.516H136.922ZM144.961 357.516V349.116H146.809V352.44H150.217V349.116H152.065V357.516H150.217V354.144H146.809V357.516H144.961ZM161.314 349.116V357.516H159.49V352.008L155.818 357.516H154.078V349.116H155.902V354.624L159.598 349.116H161.314ZM169.984 349.116V357.516H168.136V354.828H166.684L164.884 357.516H162.724L164.776 354.516C163.576 354.068 162.976 353.192 162.976 351.888C162.976 351.024 163.256 350.348 163.816 349.86C164.384 349.364 165.16 349.116 166.144 349.116H169.984ZM166.264 353.196H168.136V350.784H166.3C165.844 350.784 165.488 350.888 165.232 351.096C164.976 351.304 164.848 351.608 164.848 352.008C164.848 352.368 164.972 352.656 165.22 352.872C165.476 353.088 165.824 353.196 166.264 353.196Z" fill="#1B75BC"/>
<path d="M28.856 116.784V118.248H31.076C32.012 118.248 32.736 118.484 33.248 118.956C33.768 119.42 34.028 120.052 34.028 120.852C34.028 121.7 33.752 122.356 33.2 122.82C32.648 123.284 31.88 123.516 30.896 123.516H27.008V115.116H33.452V116.784H28.856ZM30.884 119.784H28.856V121.848H30.896C31.752 121.848 32.18 121.492 32.18 120.78C32.18 120.116 31.748 119.784 30.884 119.784ZM35.551 123.516V115.116H41.887V116.76H37.387V118.464H41.347V120.108H37.387V121.872H41.947V123.516H35.551ZM44.706 115.116H50.706V123.516H48.858V116.784H46.434V117.42C46.434 119.06 46.334 120.332 46.134 121.236C45.942 122.14 45.658 122.764 45.282 123.108C44.906 123.452 44.382 123.624 43.71 123.624C43.334 123.624 43.01 123.588 42.738 123.516L42.858 121.992C42.97 122.008 43.066 122.016 43.146 122.016C43.418 122.016 43.638 121.96 43.806 121.848C43.982 121.728 44.142 121.492 44.286 121.14C44.438 120.788 44.546 120.264 44.61 119.568C44.674 118.864 44.706 117.96 44.706 116.856V115.116ZM51.9989 123.516L55.5989 115.056H57.3029L60.9029 123.516H58.9709L58.2029 121.632H54.6509L53.8829 123.516H51.9989ZM55.3109 120H57.5429L56.4269 117.276L55.3109 120ZM62.1994 123.516V115.116H65.6314C66.6234 115.116 67.4074 115.384 67.9834 115.92C68.5594 116.456 68.8474 117.164 68.8474 118.044C68.8474 118.98 68.5274 119.708 67.8874 120.228C67.2474 120.74 66.4354 120.996 65.4514 120.996H64.0474V123.516H62.1994ZM64.0474 119.352H65.5114C65.9674 119.352 66.3234 119.232 66.5794 118.992C66.8434 118.752 66.9754 118.44 66.9754 118.056C66.9754 117.648 66.8434 117.336 66.5794 117.12C66.3154 116.896 65.9474 116.784 65.4754 116.784H64.0474V119.352ZM73.767 119.556L75.795 115.116H77.799L74.571 121.608C74.211 122.328 73.811 122.848 73.371 123.168C72.939 123.488 72.423 123.648 71.823 123.648C71.191 123.648 70.587 123.484 70.011 123.156L70.731 121.8C71.035 121.984 71.367 122.076 71.727 122.076C72.143 122.076 72.495 121.852 72.783 121.404L69.423 115.116H71.487L73.767 119.556ZM82.9635 123.66C81.7315 123.66 80.7035 123.244 79.8795 122.412C79.0635 121.572 78.6555 120.54 78.6555 119.316C78.6555 118.1 79.0675 117.072 79.8915 116.232C80.7155 115.392 81.7635 114.972 83.0355 114.972C83.7635 114.972 84.3755 115.092 84.8715 115.332C85.3675 115.564 85.8395 115.9 86.2875 116.34L85.1835 117.612C84.8235 117.284 84.4835 117.048 84.1635 116.904C83.8515 116.752 83.4715 116.676 83.0235 116.676C82.3195 116.676 81.7355 116.932 81.2715 117.444C80.8155 117.948 80.5875 118.572 80.5875 119.316C80.5875 120.052 80.8155 120.676 81.2715 121.188C81.7355 121.7 82.3195 121.956 83.0235 121.956C83.4715 121.956 83.8595 121.876 84.1875 121.716C84.5155 121.556 84.8635 121.308 85.2315 120.972L86.4075 122.232C85.9515 122.72 85.4555 123.08 84.9195 123.312C84.3915 123.544 83.7395 123.66 82.9635 123.66ZM87.8869 123.516V115.116H89.7349V117.972H91.5229C92.4829 117.972 93.2349 118.22 93.7789 118.716C94.3229 119.204 94.5949 119.864 94.5949 120.696C94.5949 121.56 94.3069 122.248 93.7309 122.76C93.1629 123.264 92.3869 123.516 91.4029 123.516H87.8869ZM91.3669 119.556H89.7349V121.848H91.3789C92.2989 121.848 92.7589 121.456 92.7589 120.672C92.7589 119.928 92.2949 119.556 91.3669 119.556Z" fill="#1B75BC"/>
<path d="M53.9654 301.268V308H52.1174V299.6H57.9854V301.268H53.9654ZM59.2893 308V299.6H62.7213C63.7133 299.6 64.4973 299.868 65.0733 300.404C65.6493 300.94 65.9373 301.648 65.9373 302.528C65.9373 303.464 65.6173 304.192 64.9773 304.712C64.3373 305.224 63.5253 305.48 62.5413 305.48H61.1373V308H59.2893ZM61.1373 303.836H62.6013C63.0573 303.836 63.4133 303.716 63.6693 303.476C63.9333 303.236 64.0653 302.924 64.0653 302.54C64.0653 302.132 63.9333 301.82 63.6693 301.604C63.4053 301.38 63.0373 301.268 62.5653 301.268H61.1373V303.836ZM70.8569 304.04L72.8849 299.6H74.8889L71.6609 306.092C71.3009 306.812 70.9009 307.332 70.4609 307.652C70.0289 307.972 69.5129 308.132 68.9129 308.132C68.2809 308.132 67.6769 307.968 67.1009 307.64L67.8209 306.284C68.1249 306.468 68.4569 306.56 68.8169 306.56C69.2329 306.56 69.5849 306.336 69.8729 305.888L66.5129 299.6H68.5769L70.8569 304.04ZM79.1054 299.456C80.0014 299.456 80.7294 299.668 81.2894 300.092C81.8574 300.516 82.1414 301.056 82.1414 301.712C82.1414 302.608 81.6894 303.252 80.7854 303.644C81.8334 303.98 82.3574 304.64 82.3574 305.624C82.3574 306.36 82.0654 306.964 81.4814 307.436C80.9054 307.908 80.1334 308.144 79.1654 308.144C78.3094 308.144 77.5894 308.028 77.0054 307.796C76.4294 307.564 75.9054 307.212 75.4334 306.74L76.4174 305.456C77.1454 306.168 78.0374 306.524 79.0934 306.524C79.5014 306.524 79.8374 306.436 80.1014 306.26C80.3734 306.076 80.5094 305.828 80.5094 305.516C80.5094 305.18 80.3574 304.932 80.0534 304.772C79.7574 304.612 79.3534 304.532 78.8414 304.532H77.8694V302.996H78.8174C79.8174 302.996 80.3174 302.672 80.3174 302.024C80.3174 301.736 80.1934 301.508 79.9454 301.34C79.6974 301.172 79.3694 301.088 78.9614 301.088C78.0494 301.088 77.2934 301.396 76.6934 302.012L75.7214 300.836C76.6014 299.916 77.7294 299.456 79.1054 299.456ZM91.2049 299.6V308H89.3809V302.492L85.7089 308H83.9689V299.6H85.7929V305.108L89.4889 299.6H91.2049ZM99.8748 299.6V308H98.0268V305.312H96.5748L94.7748 308H92.6147L94.6668 305C93.4668 304.552 92.8668 303.676 92.8668 302.372C92.8668 301.508 93.1468 300.832 93.7068 300.344C94.2748 299.848 95.0508 299.6 96.0348 299.6H99.8748ZM96.1548 303.68H98.0268V301.268H96.1908C95.7348 301.268 95.3788 301.372 95.1228 301.58C94.8668 301.788 94.7388 302.092 94.7388 302.492C94.7388 302.852 94.8628 303.14 95.1108 303.356C95.3668 303.572 95.7148 303.68 96.1548 303.68Z" fill="#1B75BC"/>
<path d="M123.323 286L126.923 277.54H128.627L132.227 286H130.295L129.527 284.116H125.975L125.207 286H123.323ZM126.635 282.484H128.867L127.751 279.76L126.635 282.484ZM136.512 277.456C137.408 277.456 138.136 277.668 138.696 278.092C139.264 278.516 139.548 279.056 139.548 279.712C139.548 280.608 139.096 281.252 138.192 281.644C139.24 281.98 139.764 282.64 139.764 283.624C139.764 284.36 139.472 284.964 138.888 285.436C138.312 285.908 137.54 286.144 136.572 286.144C135.716 286.144 134.996 286.028 134.412 285.796C133.836 285.564 133.312 285.212 132.84 284.74L133.824 283.456C134.552 284.168 135.444 284.524 136.5 284.524C136.908 284.524 137.244 284.436 137.508 284.26C137.78 284.076 137.916 283.828 137.916 283.516C137.916 283.18 137.764 282.932 137.46 282.772C137.164 282.612 136.76 282.532 136.248 282.532H135.276V280.996H136.224C137.224 280.996 137.724 280.672 137.724 280.024C137.724 279.736 137.6 279.508 137.352 279.34C137.104 279.172 136.776 279.088 136.368 279.088C135.456 279.088 134.7 279.396 134.1 280.012L133.128 278.836C134.008 277.916 135.136 277.456 136.512 277.456ZM141.375 286V277.6H147.711V279.244H143.211V280.948H147.171V282.592H143.211V284.356H147.771V286H141.375ZM149.414 286V277.6H152.846C153.838 277.6 154.622 277.868 155.198 278.404C155.774 278.94 156.062 279.648 156.062 280.528C156.062 281.464 155.742 282.192 155.102 282.712C154.462 283.224 153.65 283.48 152.666 283.48H151.262V286H149.414ZM151.262 281.836H152.726C153.182 281.836 153.538 281.716 153.794 281.476C154.058 281.236 154.19 280.924 154.19 280.54C154.19 280.132 154.058 279.82 153.794 279.604C153.53 279.38 153.162 279.268 152.69 279.268H151.262V281.836ZM159.278 279.268V280.732H161.498C162.434 280.732 163.158 280.968 163.67 281.44C164.19 281.904 164.45 282.536 164.45 283.336C164.45 284.184 164.174 284.84 163.622 285.304C163.07 285.768 162.302 286 161.318 286H157.43V277.6H163.874V279.268H159.278ZM161.306 282.268H159.278V284.332H161.318C162.174 284.332 162.602 283.976 162.602 283.264C162.602 282.6 162.17 282.268 161.306 282.268ZM165.253 286L168.853 277.54H170.557L174.157 286H172.225L171.457 284.116H167.905L167.137 286H165.253ZM168.565 282.484H170.797L169.681 279.76L168.565 282.484ZM182.689 277.6V286H180.865V280.492L177.193 286H175.453V277.6H177.277V283.108L180.973 277.6H182.689ZM180.457 276.484C180.105 276.804 179.653 276.964 179.101 276.964C178.549 276.964 178.093 276.804 177.733 276.484C177.381 276.164 177.165 275.716 177.085 275.14L178.153 274.948C178.321 275.484 178.637 275.752 179.101 275.752C179.565 275.752 179.881 275.484 180.049 274.948L181.117 275.14C181.037 275.716 180.817 276.164 180.457 276.484ZM183.823 287.752V284.332H184.615C184.943 283.572 185.179 282.768 185.323 281.92C185.467 281.072 185.539 279.96 185.539 278.584V277.6H191.647V284.332H192.655L192.415 287.752H190.867V286H185.611L185.491 287.752H183.823ZM189.799 279.268H187.315V280.12C187.315 281.704 187.063 283.108 186.559 284.332H189.799V279.268ZM200.57 286H198.734V283.768L197.618 282.568L195.254 286H193.046L196.37 281.236L193.166 277.6H195.362L198.734 281.524V277.6H200.57V281.524L203.942 277.6H206.138L202.934 281.236L206.258 286H204.05L201.674 282.568L200.57 283.768V286ZM206.655 286L210.255 277.54H211.959L215.559 286H213.627L212.859 284.116H209.307L208.539 286H206.655ZM209.967 282.484H212.199L211.083 279.76L209.967 282.484ZM216.856 286V277.6H218.704V280.924H222.112V277.6H223.96V286H222.112V282.628H218.704V286H216.856Z" fill="#1B75BC"/>
<path d="M441.241 345.516V338.82H438.685V337.116H445.645V338.82H443.089V345.516H441.241ZM446.347 345.516L449.947 337.056H451.651L455.251 345.516H453.319L452.551 343.632H448.999L448.231 345.516H446.347ZM449.659 342H451.891L450.775 339.276L449.659 342ZM455.659 347.268V343.848H456.451C456.779 343.088 457.015 342.284 457.159 341.436C457.303 340.588 457.375 339.476 457.375 338.1V337.116H463.483V343.848H464.491L464.251 347.268H462.703V345.516H457.447L457.327 347.268H455.659ZM461.635 338.784H459.151V339.636C459.151 341.22 458.899 342.624 458.395 343.848H461.635V338.784ZM472.405 345.516H470.569V343.284L469.453 342.084L467.089 345.516H464.881L468.205 340.752L465.001 337.116H467.197L470.569 341.04V337.116H472.405V341.04L475.777 337.116H477.973L474.769 340.752L478.093 345.516H475.885L473.509 342.084L472.405 343.284V345.516ZM486.447 337.116V345.516H484.623V340.008L480.951 345.516H479.211V337.116H481.035V342.624L484.731 337.116H486.447ZM488.469 345.516V337.116H490.317V340.788L493.725 337.116H495.957L492.537 340.68L496.113 345.516H493.893L491.289 341.94L490.317 342.948V345.516H488.469ZM504.471 337.116V345.516H502.647V340.008L498.975 345.516H497.235V337.116H499.059V342.624L502.755 337.116H504.471ZM510.428 345.66C509.196 345.66 508.168 345.244 507.344 344.412C506.528 343.572 506.12 342.54 506.12 341.316C506.12 340.1 506.532 339.072 507.356 338.232C508.18 337.392 509.228 336.972 510.5 336.972C511.228 336.972 511.84 337.092 512.336 337.332C512.832 337.564 513.304 337.9 513.752 338.34L512.648 339.612C512.288 339.284 511.948 339.048 511.628 338.904C511.316 338.752 510.936 338.676 510.488 338.676C509.784 338.676 509.2 338.932 508.736 339.444C508.28 339.948 508.052 340.572 508.052 341.316C508.052 342.052 508.28 342.676 508.736 343.188C509.2 343.7 509.784 343.956 510.488 343.956C510.936 343.956 511.324 343.876 511.652 343.716C511.98 343.556 512.328 343.308 512.696 342.972L513.872 344.232C513.416 344.72 512.92 345.08 512.384 345.312C511.856 345.544 511.204 345.66 510.428 345.66ZM517.308 345.516V338.82H514.752V337.116H521.712V338.82H519.156V345.516H517.308ZM522.413 345.516L526.013 337.056H527.717L531.317 345.516H529.385L528.617 343.632H525.065L524.297 345.516H522.413ZM525.725 342H527.957L526.841 339.276L525.725 342ZM532.613 345.516V337.116H534.461V340.44H537.869V337.116H539.717V345.516H537.869V342.144H534.461V345.516H532.613Z" fill="#1B75BC"/>
<path d="M515.479 281.516V273.116H517.327V276.788L520.735 273.116H522.967L519.547 276.68L523.123 281.516H520.903L518.299 277.94L517.327 278.948V281.516H515.479ZM524.244 281.516V273.116H526.092V275.972H527.88C528.84 275.972 529.592 276.22 530.136 276.716C530.68 277.204 530.952 277.864 530.952 278.696C530.952 279.56 530.664 280.248 530.088 280.76C529.52 281.264 528.744 281.516 527.76 281.516H524.244ZM527.724 277.556H526.092V279.848H527.736C528.656 279.848 529.116 279.456 529.116 278.672C529.116 277.928 528.652 277.556 527.724 277.556ZM531.888 281.516V273.116H533.736V281.516H531.888ZM535.752 281.516V273.116H539.184C540.176 273.116 540.96 273.384 541.536 273.92C542.112 274.456 542.4 275.164 542.4 276.044C542.4 276.98 542.08 277.708 541.44 278.228C540.8 278.74 539.988 278.996 539.004 278.996H537.6V281.516H535.752ZM537.6 277.352H539.064C539.52 277.352 539.876 277.232 540.132 276.992C540.396 276.752 540.528 276.44 540.528 276.056C540.528 275.648 540.396 275.336 540.132 275.12C539.868 274.896 539.5 274.784 539.028 274.784H537.6V277.352ZM545.616 274.784V281.516H543.768V273.116H549.636V274.784H545.616ZM550.94 281.516V273.116H552.788V275.972H554.576C555.536 275.972 556.288 276.22 556.832 276.716C557.376 277.204 557.648 277.864 557.648 278.696C557.648 279.56 557.36 280.248 556.784 280.76C556.216 281.264 555.44 281.516 554.456 281.516H550.94ZM554.42 277.556H552.788V279.848H554.432C555.352 279.848 555.812 279.456 555.812 278.672C555.812 277.928 555.348 277.556 554.42 277.556ZM558.584 281.516V273.116H560.432V281.516H558.584ZM565.435 272.972C566.331 272.972 567.059 273.184 567.619 273.608C568.187 274.032 568.471 274.572 568.471 275.228C568.471 276.124 568.019 276.768 567.115 277.16C568.163 277.496 568.687 278.156 568.687 279.14C568.687 279.876 568.395 280.48 567.811 280.952C567.235 281.424 566.463 281.66 565.495 281.66C564.639 281.66 563.919 281.544 563.335 281.312C562.759 281.08 562.235 280.728 561.763 280.256L562.747 278.972C563.475 279.684 564.367 280.04 565.423 280.04C565.831 280.04 566.167 279.952 566.431 279.776C566.703 279.592 566.839 279.344 566.839 279.032C566.839 278.696 566.687 278.448 566.383 278.288C566.087 278.128 565.683 278.048 565.171 278.048H564.199V276.512H565.147C566.147 276.512 566.647 276.188 566.647 275.54C566.647 275.252 566.523 275.024 566.275 274.856C566.027 274.688 565.699 274.604 565.291 274.604C564.379 274.604 563.623 274.912 563.023 275.528L562.051 274.352C562.931 273.432 564.059 272.972 565.435 272.972ZM574.235 281.66C573.003 281.66 571.975 281.244 571.151 280.412C570.335 279.572 569.927 278.54 569.927 277.316C569.927 276.1 570.339 275.072 571.163 274.232C571.987 273.392 573.035 272.972 574.307 272.972C575.035 272.972 575.647 273.092 576.143 273.332C576.639 273.564 577.111 273.9 577.559 274.34L576.455 275.612C576.095 275.284 575.755 275.048 575.435 274.904C575.123 274.752 574.743 274.676 574.295 274.676C573.591 274.676 573.007 274.932 572.543 275.444C572.087 275.948 571.859 276.572 571.859 277.316C571.859 278.052 572.087 278.676 572.543 279.188C573.007 279.7 573.591 279.956 574.295 279.956C574.743 279.956 575.131 279.876 575.459 279.716C575.787 279.556 576.135 279.308 576.503 278.972L577.679 280.232C577.223 280.72 576.727 281.08 576.191 281.312C575.663 281.544 575.011 281.66 574.235 281.66ZM581.114 281.516V274.82H578.558V273.116H585.518V274.82H582.962V281.516H581.114ZM586.22 281.516L589.82 273.056H591.524L595.124 281.516H593.192L592.424 279.632H588.872L588.104 281.516H586.22ZM589.532 278H591.764L590.648 275.276L589.532 278ZM596.42 281.516V273.116H598.268V276.44H601.676V273.116H603.524V281.516H601.676V278.144H598.268V281.516H596.42Z" fill="#1B75BC"/>
<path d="M878.43 170.516V162.116H880.422L882.63 165.668L884.838 162.116H886.83V170.516H884.994V165.032L882.63 168.62H882.582L880.242 165.068V170.516H878.43ZM896.12 169.4C895.272 170.24 894.208 170.66 892.928 170.66C891.648 170.66 890.584 170.24 889.736 169.4C888.896 168.56 888.476 167.532 888.476 166.316C888.476 165.108 888.9 164.084 889.748 163.244C890.604 162.396 891.672 161.972 892.952 161.972C894.232 161.972 895.292 162.392 896.132 163.232C896.98 164.072 897.404 165.1 897.404 166.316C897.404 167.524 896.976 168.552 896.12 169.4ZM891.128 168.188C891.608 168.7 892.216 168.956 892.952 168.956C893.688 168.956 894.292 168.704 894.764 168.2C895.236 167.688 895.472 167.06 895.472 166.316C895.472 165.58 895.232 164.956 894.752 164.444C894.272 163.932 893.664 163.676 892.928 163.676C892.192 163.676 891.588 163.932 891.116 164.444C890.644 164.948 890.408 165.572 890.408 166.316C890.408 167.052 890.648 167.676 891.128 168.188ZM899.043 170.516V162.116H900.891V165.44H904.299V162.116H906.147V170.516H904.299V167.144H900.891V170.516H899.043ZM910.008 163.784V170.516H908.16V162.116H914.028V163.784H910.008ZM922.604 169.4C921.756 170.24 920.692 170.66 919.412 170.66C918.132 170.66 917.068 170.24 916.22 169.4C915.38 168.56 914.96 167.532 914.96 166.316C914.96 165.108 915.384 164.084 916.232 163.244C917.088 162.396 918.156 161.972 919.436 161.972C920.716 161.972 921.776 162.392 922.616 163.232C923.464 164.072 923.888 165.1 923.888 166.316C923.888 167.524 923.46 168.552 922.604 169.4ZM917.612 168.188C918.092 168.7 918.7 168.956 919.436 168.956C920.172 168.956 920.776 168.704 921.248 168.2C921.72 167.688 921.956 167.06 921.956 166.316C921.956 165.58 921.716 164.956 921.236 164.444C920.756 163.932 920.148 163.676 919.412 163.676C918.676 163.676 918.072 163.932 917.6 164.444C917.128 164.948 916.892 165.572 916.892 166.316C916.892 167.052 917.132 167.676 917.612 168.188ZM926.644 162.116H932.644V170.516H930.796V163.784H928.372V164.42C928.372 166.06 928.272 167.332 928.072 168.236C927.88 169.14 927.596 169.764 927.22 170.108C926.844 170.452 926.32 170.624 925.648 170.624C925.272 170.624 924.948 170.588 924.676 170.516L924.796 168.992C924.908 169.008 925.004 169.016 925.084 169.016C925.356 169.016 925.576 168.96 925.744 168.848C925.92 168.728 926.08 168.492 926.224 168.14C926.376 167.788 926.484 167.264 926.548 166.568C926.612 165.864 926.644 164.96 926.644 163.856V162.116ZM941.892 162.116V170.516H940.068V165.008L936.396 170.516H934.656V162.116H936.48V167.624L940.176 162.116H941.892ZM950.562 162.116V170.516H948.714V167.828H947.262L945.462 170.516H943.302L945.354 167.516C944.154 167.068 943.554 166.192 943.554 164.888C943.554 164.024 943.834 163.348 944.394 162.86C944.962 162.364 945.738 162.116 946.722 162.116H950.562ZM946.842 166.196H948.714V163.784H946.878C946.422 163.784 946.066 163.888 945.81 164.096C945.554 164.304 945.426 164.608 945.426 165.008C945.426 165.368 945.55 165.656 945.798 165.872C946.054 166.088 946.402 166.196 946.842 166.196Z" fill="#1B75BC"/>
</svg>
