<svg width="622" height="327" viewBox="0 0 622 327" fill="none" xmlns="http://www.w3.org/2000/svg">
<mask id="path-1-inside-1" fill="white">
<path fill-rule="evenodd" clip-rule="evenodd" d="M152.768 314.177L141.141 307.434L130.248 305.791L121.974 308.66L112.452 317.096L112.207 313.81L111.449 310.107L113.138 305.668L113.774 300.96L113.652 299.268L114.435 297.895L112.623 296.767L109.123 297.085L106.577 295.884L103.297 295.173L100.996 296.252L99.9438 295.786L98.7688 293.26L97.2267 291.838L95.8314 289.165L94.0935 288.184L92.7716 288.772L89.8343 289.533L89.0509 289.508L89.1978 285.903L89.0265 282.544L84.3511 277.051L83.372 274.917L82.1481 274.452L80.8997 271.043L79.1373 269.915L77.8644 267.34L74.8291 266.163L72.3813 265.991L70.5944 263.932L70.7168 262.705L71.8183 261.357L73.238 261.872L78.1581 261.577L79.3576 262.166L81.3159 262.068L82.7356 262.951L84.8896 261.332L86.0401 260.817L88.8062 261.798L90.2504 260.597L89.1489 258.365L85.673 258.537L85.0855 258.144V255.839L81.9033 252.185L81.683 250.91L83.2006 250.003V247.036L82.7845 245.736L84.6204 243.897L87.9005 242.916L90.5686 242.033L93.0654 243.137L96.3944 242.303L98.9646 241.862L100.458 243.21L102.073 242.303H103.934L106.626 245.148H109.368L113.235 243.284L113.921 241.2L111.081 240.243L108.119 239.508L106.235 235.584L106.651 232.372L108.609 231.538L110.053 229.797L110.322 229.453L108.927 228.056L108.022 226.707L107.532 225.579L109.319 222.318L109.711 219.522L107.018 216.825L106.43 215.329L107.63 213.367V211.871L105.256 211.381L104.105 209.345L103.567 207.702L97.5449 207.359L95.5621 207.065L92.8696 207.604L92.5513 208.781L90.7644 209.762L90.5931 211.479L89.4426 212.067L87.5823 211.43L87.3864 209.86L84.6938 210.056L84.0084 210.768L82.8825 209.419L83.0538 207.065L81.8054 205.569L80.3122 206.893H78.5988L77.0077 205.79L72.4058 205.937L70.0559 208.291L69.2236 210.694L68.7341 211.013L67.7794 210.056H65.8946L64.0097 212.705L62.1005 212.558L60.6807 214.863L58.135 216.972L56.3236 216.604L55.7606 218.811L54.9773 219.62L54.0961 218.615L52.1868 218.394L51.0608 220.16H49.4208L48.613 218.369L47.3401 218.566L43.032 215.844L38.9196 217.266L33.2651 213.612L33.6078 211.503H40.2169L33.1427 199.708L25.4811 192.499L14.3435 189.433L13.1685 191.616L8.56664 187.815L9.61919 185.387L6.55941 180.434L0.097168 177.883L2.42259 172.832L3.8913 162.165L1.32108 159.762L0.586724 152.209L3.45071 150.787L8.12601 145.146V140.88L10.0598 138.427L18.3579 145.98L19.386 148.947L24.7222 152.111L30.4257 151.571L29.7648 146.446L31.8454 144.68L28.1492 131.831L32.6042 131.414H38.4056V126.804L36.0801 123.861L36.9369 120.477L41.6367 117.584L43.9621 117.485L45.5777 112.9L47.8052 111.232L51.4035 112.262L51.9665 108.878L51.2077 105.837L51.7462 104.44L56.1278 106.867L59.7506 108.461L59.3589 110.104L56.7887 113.121L59.1386 115.254L62.6145 113.243L63.5447 110.717L64.9154 109.835L65.0868 112.998L68.0242 109.835L68.4403 107.995L71.2308 107.701L74.8291 105.347L77.3259 105.2L78.9904 109.442L82.9314 112.189L89.002 110.227H91.4253L92.9919 112.753L94.9012 112.9L98.2303 117.191H101.706L104.252 120.33L109.001 123.959L111.424 124.254L112.648 126.166L112.819 130.163L115.39 131.022L117.911 127.245L117.446 123.297L120.089 121.777L122.17 124.744L128.29 125.676L130.15 128.79L133.259 130.065L137.591 126.583L137.885 120.624L141.336 120.306L141.655 117.216L143.564 116.505L145.693 119.349L147.358 116.186L150.663 115.646L155.216 119.913L156.244 121.801L161.653 121.237L160.992 117.191L163.293 116.382L166.99 116.897L168.63 114.665L172.203 116.652L174.137 117.559L173.329 119.177L170.416 120.845L174.211 125.185L177.393 126.24L178.764 125.333L180.844 126.51L185.887 126.215L191.761 129.55L195.8 128.668L197.489 124.965L197.808 121.826L199.007 120.649L203.707 123.591L208.505 124.131L214.551 122.169L216.142 119.177L215.334 105.862L213.449 104.538L208.725 104.366L205.812 102.037L205.322 100.173L201.381 99.3391L199.129 97.0831H195.433L195.311 95.4891L194.258 93.4293L194.576 92.3258L197.612 91.8599L198.297 88.2061L200.721 85.2389L199.815 80.8739L197.342 80.5552L197.22 77.5144L200.745 72.4383L204.343 69.1524L210.952 68.5393L213.841 69.5447L216.142 67.8282V63.8801L212.641 62.8257L210.145 60.2754L207.085 60.447L205.298 61.9429L202.263 60.6432L198.248 60.4715L198.028 58.9021L199.129 57.9458L204.025 57.7741L202.41 53.2866L197.759 53.9732L195.849 53.2866L196.975 52.0114L195.286 48.1369L196.119 47.5239L199.643 47.1806L201.357 45.1697L203.193 45.2924L204.172 47.0825L208.088 46.592L211.344 48.9952L212.984 46.7146V44.9245L215.456 43.257L218.051 43.4042L220.181 46.8127L222.188 43.9927L222.555 41.7366L227.94 40.0691L231.612 39.7749L235.896 37.6905L240.204 37.3962L241.281 35.7778L245.271 33.301L249.383 33.1539L252.027 31.3147L254.034 31.094L256.408 32.124L258.244 30.6772L258.097 27.195L259.664 25.8708H263.36L263.874 23.4431L265.612 22.0944L267.13 23.4677L269.822 24.0072L272.98 22.168L276.652 21.1135L283.604 16.4053H285.023L286.737 15.2037L290.653 14.6152L292.783 11.7461L294.619 12.3101L299.588 11.2557L299.392 8.46013L298.144 6.15505L299.466 5.44391L304.018 5.3213L304.851 1.86368L307.519 0.46592L309.404 0.760186L311.974 0L315.744 1.52037L320.223 1.1035L324.14 3.75188H328.227L332.046 2.13342L334.812 2.45221L336.183 6.25314L337.529 7.4302L338.655 10.5445L340.932 13.5362L343.086 14.8114L343.379 16.3072L342.596 18.9311L343.208 22.3396L343.086 23.0998L340.32 23.7865L341.984 27.4893L344.285 29.3039L347.908 27.0969L350.38 29.1078L352.779 28.2985L353.416 25.0861L354.762 24.4731L355.79 27.6119H358.458L359.021 24.5466L357.871 21.5059L358.311 21.2362L363.427 25.0371L364.186 30.0396L366.438 34.6007L368.837 34.4045L371.774 31.2657L369.596 30.0886L369.033 29.0587L371.848 28.4211L377.845 31.3638L380.293 31.4128L382.691 29.4511L383.768 30.0396L382.667 32.9577L380.562 34.6498V39.309L383.034 42.4968L385.727 42.3007L387.66 39.873L391.112 38.9656L397.501 40.5596L399.19 41.7857L401.784 39.9956L401.172 36.2927L403.792 35.3364L408.565 34.7233L411.894 32.5163L413.363 29.5492L415.737 27.5383L416.055 25.1352L419.58 21.6285L422.077 20.7948L424.672 18.2445L428.025 17.3371L432.064 15.9884L433.41 16.9448V19.348L430.791 22.0944L427.829 22.8546L429.347 25.9199L458.99 48.2105L499.306 98.7506L503.54 97.9168L506.527 96.1758L507.31 93.6255L506.453 92.9143L506.306 89.8245L508.485 88.7946L512.646 90.7564L512.255 92.5955L512.426 95.4401L516.44 96.4455L518.839 98.8487L522.021 99.0203L524.518 97.3528L526.844 96.985L531.005 99.3881L534.701 97.7942L537.369 98.4073L540.821 97.034L542.02 95.0477L540.894 93.4047L541.335 92.1786L546.402 91.443H552.154L556.927 92.6936L561.651 96.2493L564.197 100.835L566.033 104.881H567.942L571.271 105.813L575.041 108.339H576.289L578.346 109.295L578.493 110.889L577.881 112.262L578.003 115.156L578.835 117.363L580.524 119.104L581.454 120.036H583.07L586.179 121.409L588.92 122.684L590.095 120.919L592.617 119.668L600.131 119.251L603.901 118.074L605.663 115.18L608.478 113.611L609.58 114.126L608.258 117.804L609.36 120.894L611.954 121.605L615.381 124.646L620.301 126.436L621.06 127.417L618.514 130.286L615.969 131.586L611.44 136.392L611.269 139.408L612.15 141.027L610.339 144.116L605.59 145.956L602.481 148.163L601.82 152.16L601.967 159.198L605.345 165.892L608.258 169.889L607.842 171.925L603.852 176.412L600.449 177.589L597.61 180.9L595.554 181.586L594.33 181.096L593.498 179.085H590.316L583.755 180.507L579.643 180.189L573.303 178.006L569.411 177.516L567.037 177.687L565.568 185.657L564.148 190.169L563.977 194.093L562.41 203.509L562.386 210.866L561.529 213.563L563.683 215.206L567.11 216.628L565.764 219.497L565.446 221.729H563.536L561.627 223.004H559.448L557.466 221.165L555.116 222.268L551.273 223.176L544.027 224.745L538.911 226.658L536.855 226.633L534.848 225.481L531.788 226.83L528.655 229.748L528.484 232.421L531.666 234.897L536.439 234.579L539.695 234.995V235.927L537.418 238.38L538.911 243.529L539.23 245.834L540.723 248.237L541.286 251.401L544.321 256.599L544.957 259.321L548.409 261.847L549.584 268.174L547.895 269.743L546.549 273.201L549.168 276.095L547.968 276.708L547.479 278.645L544.419 280.925L544.566 285.143L541.849 286.639L534.921 284.824L527.896 276.659L524.763 277.492L517.982 274.697L507.873 274.182L502.781 275.898L494.581 273.74L486.601 275.629L482.709 276.095L478.891 274.917L475.684 277.615L472.918 278.915L464.081 277.664L457.521 275.947L454.045 273.863L448.709 274.035L446.775 274.868L443.055 274.648L439.946 274.01L437.621 275.359L437.988 279.135L438.942 282.863L439.065 286.737L434.438 287.473L424.255 287.767L412.335 286.516L409.691 284.996L403.743 284.113L400.34 287.89L401.393 289.704L398.186 291.887L397.648 293.088L396.791 292.941L393.29 297.453L390.647 298.557L384.16 306.281L381.737 310.94L379.901 313.074L376.523 319.303L370.452 325.065L369.057 324.035L361.567 320.381L355.912 319.523L350.845 320.48L343.575 324.403L340.589 324.133L333.808 305.202L322.255 303.78L321.765 280.337L315.89 282.127L311.925 272.637L303.333 266.139H276.187L252.027 268.811L238.441 260.523L228.112 256.673L202.189 238.306L158.3 246.643L171.542 324.648L169.535 324.918L163.146 326.267L152.768 314.177Z"/>
</mask>
<path fill-rule="evenodd" clip-rule="evenodd" d="M152.768 314.177L141.141 307.434L130.248 305.791L121.974 308.66L112.452 317.096L112.207 313.81L111.449 310.107L113.138 305.668L113.774 300.96L113.652 299.268L114.435 297.895L112.623 296.767L109.123 297.085L106.577 295.884L103.297 295.173L100.996 296.252L99.9438 295.786L98.7688 293.26L97.2267 291.838L95.8314 289.165L94.0935 288.184L92.7716 288.772L89.8343 289.533L89.0509 289.508L89.1978 285.903L89.0265 282.544L84.3511 277.051L83.372 274.917L82.1481 274.452L80.8997 271.043L79.1373 269.915L77.8644 267.34L74.8291 266.163L72.3813 265.991L70.5944 263.932L70.7168 262.705L71.8183 261.357L73.238 261.872L78.1581 261.577L79.3576 262.166L81.3159 262.068L82.7356 262.951L84.8896 261.332L86.0401 260.817L88.8062 261.798L90.2504 260.597L89.1489 258.365L85.673 258.537L85.0855 258.144V255.839L81.9033 252.185L81.683 250.91L83.2006 250.003V247.036L82.7845 245.736L84.6204 243.897L87.9005 242.916L90.5686 242.033L93.0654 243.137L96.3944 242.303L98.9646 241.862L100.458 243.21L102.073 242.303H103.934L106.626 245.148H109.368L113.235 243.284L113.921 241.2L111.081 240.243L108.119 239.508L106.235 235.584L106.651 232.372L108.609 231.538L110.053 229.797L110.322 229.453L108.927 228.056L108.022 226.707L107.532 225.579L109.319 222.318L109.711 219.522L107.018 216.825L106.43 215.329L107.63 213.367V211.871L105.256 211.381L104.105 209.345L103.567 207.702L97.5449 207.359L95.5621 207.065L92.8696 207.604L92.5513 208.781L90.7644 209.762L90.5931 211.479L89.4426 212.067L87.5823 211.43L87.3864 209.86L84.6938 210.056L84.0084 210.768L82.8825 209.419L83.0538 207.065L81.8054 205.569L80.3122 206.893H78.5988L77.0077 205.79L72.4058 205.937L70.0559 208.291L69.2236 210.694L68.7341 211.013L67.7794 210.056H65.8946L64.0097 212.705L62.1005 212.558L60.6807 214.863L58.135 216.972L56.3236 216.604L55.7606 218.811L54.9773 219.62L54.0961 218.615L52.1868 218.394L51.0608 220.16H49.4208L48.613 218.369L47.3401 218.566L43.032 215.844L38.9196 217.266L33.2651 213.612L33.6078 211.503H40.2169L33.1427 199.708L25.4811 192.499L14.3435 189.433L13.1685 191.616L8.56664 187.815L9.61919 185.387L6.55941 180.434L0.097168 177.883L2.42259 172.832L3.8913 162.165L1.32108 159.762L0.586724 152.209L3.45071 150.787L8.12601 145.146V140.88L10.0598 138.427L18.3579 145.98L19.386 148.947L24.7222 152.111L30.4257 151.571L29.7648 146.446L31.8454 144.68L28.1492 131.831L32.6042 131.414H38.4056V126.804L36.0801 123.861L36.9369 120.477L41.6367 117.584L43.9621 117.485L45.5777 112.9L47.8052 111.232L51.4035 112.262L51.9665 108.878L51.2077 105.837L51.7462 104.44L56.1278 106.867L59.7506 108.461L59.3589 110.104L56.7887 113.121L59.1386 115.254L62.6145 113.243L63.5447 110.717L64.9154 109.835L65.0868 112.998L68.0242 109.835L68.4403 107.995L71.2308 107.701L74.8291 105.347L77.3259 105.2L78.9904 109.442L82.9314 112.189L89.002 110.227H91.4253L92.9919 112.753L94.9012 112.9L98.2303 117.191H101.706L104.252 120.33L109.001 123.959L111.424 124.254L112.648 126.166L112.819 130.163L115.39 131.022L117.911 127.245L117.446 123.297L120.089 121.777L122.17 124.744L128.29 125.676L130.15 128.79L133.259 130.065L137.591 126.583L137.885 120.624L141.336 120.306L141.655 117.216L143.564 116.505L145.693 119.349L147.358 116.186L150.663 115.646L155.216 119.913L156.244 121.801L161.653 121.237L160.992 117.191L163.293 116.382L166.99 116.897L168.63 114.665L172.203 116.652L174.137 117.559L173.329 119.177L170.416 120.845L174.211 125.185L177.393 126.24L178.764 125.333L180.844 126.51L185.887 126.215L191.761 129.55L195.8 128.668L197.489 124.965L197.808 121.826L199.007 120.649L203.707 123.591L208.505 124.131L214.551 122.169L216.142 119.177L215.334 105.862L213.449 104.538L208.725 104.366L205.812 102.037L205.322 100.173L201.381 99.3391L199.129 97.0831H195.433L195.311 95.4891L194.258 93.4293L194.576 92.3258L197.612 91.8599L198.297 88.2061L200.721 85.2389L199.815 80.8739L197.342 80.5552L197.22 77.5144L200.745 72.4383L204.343 69.1524L210.952 68.5393L213.841 69.5447L216.142 67.8282V63.8801L212.641 62.8257L210.145 60.2754L207.085 60.447L205.298 61.9429L202.263 60.6432L198.248 60.4715L198.028 58.9021L199.129 57.9458L204.025 57.7741L202.41 53.2866L197.759 53.9732L195.849 53.2866L196.975 52.0114L195.286 48.1369L196.119 47.5239L199.643 47.1806L201.357 45.1697L203.193 45.2924L204.172 47.0825L208.088 46.592L211.344 48.9952L212.984 46.7146V44.9245L215.456 43.257L218.051 43.4042L220.181 46.8127L222.188 43.9927L222.555 41.7366L227.94 40.0691L231.612 39.7749L235.896 37.6905L240.204 37.3962L241.281 35.7778L245.271 33.301L249.383 33.1539L252.027 31.3147L254.034 31.094L256.408 32.124L258.244 30.6772L258.097 27.195L259.664 25.8708H263.36L263.874 23.4431L265.612 22.0944L267.13 23.4677L269.822 24.0072L272.98 22.168L276.652 21.1135L283.604 16.4053H285.023L286.737 15.2037L290.653 14.6152L292.783 11.7461L294.619 12.3101L299.588 11.2557L299.392 8.46013L298.144 6.15505L299.466 5.44391L304.018 5.3213L304.851 1.86368L307.519 0.46592L309.404 0.760186L311.974 0L315.744 1.52037L320.223 1.1035L324.14 3.75188H328.227L332.046 2.13342L334.812 2.45221L336.183 6.25314L337.529 7.4302L338.655 10.5445L340.932 13.5362L343.086 14.8114L343.379 16.3072L342.596 18.9311L343.208 22.3396L343.086 23.0998L340.32 23.7865L341.984 27.4893L344.285 29.3039L347.908 27.0969L350.38 29.1078L352.779 28.2985L353.416 25.0861L354.762 24.4731L355.79 27.6119H358.458L359.021 24.5466L357.871 21.5059L358.311 21.2362L363.427 25.0371L364.186 30.0396L366.438 34.6007L368.837 34.4045L371.774 31.2657L369.596 30.0886L369.033 29.0587L371.848 28.4211L377.845 31.3638L380.293 31.4128L382.691 29.4511L383.768 30.0396L382.667 32.9577L380.562 34.6498V39.309L383.034 42.4968L385.727 42.3007L387.66 39.873L391.112 38.9656L397.501 40.5596L399.19 41.7857L401.784 39.9956L401.172 36.2927L403.792 35.3364L408.565 34.7233L411.894 32.5163L413.363 29.5492L415.737 27.5383L416.055 25.1352L419.58 21.6285L422.077 20.7948L424.672 18.2445L428.025 17.3371L432.064 15.9884L433.41 16.9448V19.348L430.791 22.0944L427.829 22.8546L429.347 25.9199L458.99 48.2105L499.306 98.7506L503.54 97.9168L506.527 96.1758L507.31 93.6255L506.453 92.9143L506.306 89.8245L508.485 88.7946L512.646 90.7564L512.255 92.5955L512.426 95.4401L516.44 96.4455L518.839 98.8487L522.021 99.0203L524.518 97.3528L526.844 96.985L531.005 99.3881L534.701 97.7942L537.369 98.4073L540.821 97.034L542.02 95.0477L540.894 93.4047L541.335 92.1786L546.402 91.443H552.154L556.927 92.6936L561.651 96.2493L564.197 100.835L566.033 104.881H567.942L571.271 105.813L575.041 108.339H576.289L578.346 109.295L578.493 110.889L577.881 112.262L578.003 115.156L578.835 117.363L580.524 119.104L581.454 120.036H583.07L586.179 121.409L588.92 122.684L590.095 120.919L592.617 119.668L600.131 119.251L603.901 118.074L605.663 115.18L608.478 113.611L609.58 114.126L608.258 117.804L609.36 120.894L611.954 121.605L615.381 124.646L620.301 126.436L621.06 127.417L618.514 130.286L615.969 131.586L611.44 136.392L611.269 139.408L612.15 141.027L610.339 144.116L605.59 145.956L602.481 148.163L601.82 152.16L601.967 159.198L605.345 165.892L608.258 169.889L607.842 171.925L603.852 176.412L600.449 177.589L597.61 180.9L595.554 181.586L594.33 181.096L593.498 179.085H590.316L583.755 180.507L579.643 180.189L573.303 178.006L569.411 177.516L567.037 177.687L565.568 185.657L564.148 190.169L563.977 194.093L562.41 203.509L562.386 210.866L561.529 213.563L563.683 215.206L567.11 216.628L565.764 219.497L565.446 221.729H563.536L561.627 223.004H559.448L557.466 221.165L555.116 222.268L551.273 223.176L544.027 224.745L538.911 226.658L536.855 226.633L534.848 225.481L531.788 226.83L528.655 229.748L528.484 232.421L531.666 234.897L536.439 234.579L539.695 234.995V235.927L537.418 238.38L538.911 243.529L539.23 245.834L540.723 248.237L541.286 251.401L544.321 256.599L544.957 259.321L548.409 261.847L549.584 268.174L547.895 269.743L546.549 273.201L549.168 276.095L547.968 276.708L547.479 278.645L544.419 280.925L544.566 285.143L541.849 286.639L534.921 284.824L527.896 276.659L524.763 277.492L517.982 274.697L507.873 274.182L502.781 275.898L494.581 273.74L486.601 275.629L482.709 276.095L478.891 274.917L475.684 277.615L472.918 278.915L464.081 277.664L457.521 275.947L454.045 273.863L448.709 274.035L446.775 274.868L443.055 274.648L439.946 274.01L437.621 275.359L437.988 279.135L438.942 282.863L439.065 286.737L434.438 287.473L424.255 287.767L412.335 286.516L409.691 284.996L403.743 284.113L400.34 287.89L401.393 289.704L398.186 291.887L397.648 293.088L396.791 292.941L393.29 297.453L390.647 298.557L384.16 306.281L381.737 310.94L379.901 313.074L376.523 319.303L370.452 325.065L369.057 324.035L361.567 320.381L355.912 319.523L350.845 320.48L343.575 324.403L340.589 324.133L333.808 305.202L322.255 303.78L321.765 280.337L315.89 282.127L311.925 272.637L303.333 266.139H276.187L252.027 268.811L238.441 260.523L228.112 256.673L202.189 238.306L158.3 246.643L171.542 324.648L169.535 324.918L163.146 326.267L152.768 314.177Z" fill="white" stroke="white" mask="url(#path-1-inside-1)"/>
</svg>
