<svg width="100" height="107" viewBox="0 0 100 107" fill="none" xmlns="http://www.w3.org/2000/svg">
<path d="M49.9997 63.2884C52.0425 63.2884 54.0395 62.6818 55.738 61.5454C57.4366 60.4089 58.7604 58.7937 59.5422 56.9038C60.324 55.014 60.5285 52.9345 60.13 50.9283C59.7314 48.922 58.7477 47.0792 57.3032 45.6327C55.8587 44.1863 54.0183 43.2013 52.0147 42.8022C50.0111 42.4032 47.9344 42.608 46.047 43.3908C44.1597 44.1736 42.5465 45.4992 41.4116 47.2C40.2767 48.9008 39.6709 50.9004 39.6709 52.946C39.674 55.688 40.7632 58.3168 42.6996 60.2557C44.6359 62.1947 47.2613 63.2853 49.9997 63.2884ZM49.9997 45.2619C51.5174 45.2619 53.0011 45.7126 54.2631 46.5569C55.525 47.4012 56.5086 48.6013 57.0894 50.0054C57.6702 51.4095 57.8222 52.9545 57.5261 54.445C57.23 55.9356 56.4991 57.3048 55.4259 58.3794C54.3527 59.454 52.9854 60.1859 51.4968 60.4824C50.0082 60.7789 48.4652 60.6267 47.063 60.0451C45.6608 59.4635 44.4623 58.4786 43.6191 57.215C42.7758 55.9514 42.3258 54.4657 42.3258 52.946C42.3281 50.9087 43.1373 48.9556 44.5759 47.515C46.0146 46.0745 47.9651 45.2642 49.9997 45.2619Z" fill="white"/>
<path d="M37.596 63.2824C38.38 64.242 39.2799 65.1004 40.2752 65.838L40.2148 67.8925C40.2067 68.1674 40.284 68.4381 40.436 68.6672C40.5881 68.8963 40.8074 69.0726 41.0637 69.1716L45.6997 70.9634C45.955 71.0618 46.2344 71.079 46.4997 71.0124C46.765 70.9458 47.0033 70.7988 47.182 70.5914L48.5168 69.0425C49.7466 69.1483 50.9843 69.1162 52.207 68.9468L53.6369 70.4397C53.825 70.636 54.0687 70.7699 54.3352 70.8231C54.6016 70.8764 54.878 70.8464 55.1269 70.7374L59.6818 68.7421C59.9335 68.6318 60.1448 68.4461 60.2866 68.2105C60.4284 67.975 60.4938 67.7011 60.4736 67.4268L60.3223 65.3666C61.2807 64.5816 62.138 63.6804 62.8745 62.6838L64.9263 62.7443C65.2008 62.752 65.471 62.6745 65.6997 62.5223C65.9284 62.3701 66.1045 62.1507 66.2037 61.8943L67.9929 57.2521C68.0913 56.9965 68.1084 56.7168 68.042 56.4511C67.9756 56.1855 67.8289 55.9468 67.6219 55.7678L66.0752 54.4311C66.1809 53.1995 66.1489 51.9599 65.9796 50.7355L67.4705 49.304C67.6666 49.1156 67.8003 48.8716 67.8535 48.6048C67.9067 48.3379 67.8768 48.0612 67.7679 47.8119L65.7752 43.251C65.6651 42.999 65.4796 42.7874 65.2444 42.6454C65.0091 42.5034 64.7356 42.438 64.4617 42.4582L62.4042 42.6097C61.6202 41.6502 60.7203 40.7917 59.7252 40.0541L59.7856 37.9996C59.7936 37.7246 59.7163 37.4539 59.5642 37.2248C59.4121 36.9957 59.1928 36.8195 58.9365 36.7205L54.3004 34.9287C54.0451 34.8303 53.7658 34.8131 53.5004 34.8797C53.2351 34.9463 52.9968 35.0933 52.8181 35.3007L51.4834 36.8496C50.2533 36.7439 49.0153 36.776 47.7924 36.9453L46.3626 35.4524C46.1745 35.2561 45.9307 35.1222 45.6643 35.069C45.3978 35.0157 45.1215 35.0457 44.8725 35.1547L40.3179 37.1507C40.0662 37.2609 39.8549 37.4467 39.7131 37.6822C39.5712 37.9178 39.5059 38.1916 39.526 38.4659L39.6774 40.5262C38.719 41.3112 37.8617 42.2123 37.1252 43.2089L35.0734 43.1485C34.7989 43.141 34.5288 43.2186 34.3002 43.3708C34.0715 43.5229 33.8954 43.7422 33.796 43.9985L32.0068 48.6407C31.9084 48.8962 31.8913 49.176 31.9577 49.4417C32.0242 49.7074 32.171 49.946 32.378 50.1249L33.9249 51.4617C33.8192 52.6932 33.8513 53.9327 34.0205 55.157L32.5296 56.5886C32.3334 56.7769 32.1997 57.021 32.1466 57.2879C32.0934 57.5548 32.1233 57.8315 32.2322 58.0808L34.2254 62.6415C34.3353 62.8936 34.5207 63.1053 34.756 63.2473C34.9912 63.3893 35.2647 63.4547 35.5387 63.4344L37.596 63.2824ZM36.748 55.3947C36.4879 53.9715 36.4505 52.5163 36.6373 51.0815C36.6657 50.8633 36.6395 50.6415 36.5611 50.436C36.4827 50.2304 36.3546 50.0476 36.1882 49.9039L34.8218 48.7233L35.9362 45.8321L37.7626 45.8859C37.9875 45.8918 38.2103 45.8408 38.4102 45.7374C38.6101 45.634 38.7807 45.4817 38.9061 45.2947C39.6992 44.1021 40.6935 43.0567 41.8444 42.2054C42.0246 42.072 42.168 41.8951 42.2615 41.6912C42.355 41.4873 42.3954 41.263 42.3789 41.0393L42.2444 39.2083L45.0898 37.962L46.3595 39.2876C46.5114 39.4463 46.7003 39.5647 46.9093 39.6324C47.1182 39.7 47.3406 39.7147 47.5566 39.6751C48.9782 39.4147 50.4315 39.3774 51.8645 39.5643C52.0825 39.5927 52.304 39.5665 52.5094 39.488C52.7147 39.4095 52.8973 39.2812 53.0409 39.1146L54.2194 37.7464L57.1068 38.8623L57.053 40.6912C57.0464 40.9166 57.0972 41.1399 57.2005 41.3403C57.3039 41.5406 57.4564 41.7113 57.6438 41.8363C58.8346 42.6304 59.8785 43.6258 60.7287 44.7781C60.8618 44.9586 61.0384 45.1024 61.2421 45.196C61.4458 45.2897 61.6698 45.3301 61.8933 45.3135L63.7219 45.179L64.9665 48.0279L63.6426 49.2993C63.4842 49.4515 63.3659 49.6406 63.2984 49.8497C63.2309 50.0589 63.2162 50.2816 63.2557 50.4978C63.5158 51.9211 63.5531 53.3762 63.3663 54.811C63.338 55.0292 63.3643 55.2509 63.4426 55.4564C63.521 55.6619 63.6491 55.8447 63.8154 55.9885L65.1814 57.169L64.067 60.0604L62.2407 60.0066C62.0157 60.0003 61.7928 60.0513 61.5928 60.1547C61.3928 60.2581 61.2222 60.4106 61.0971 60.5979C60.304 61.7905 59.3097 62.8358 58.1588 63.6871C57.9787 63.8205 57.8352 63.9974 57.7417 64.2014C57.6482 64.4053 57.6078 64.6295 57.6243 64.8533L57.7588 66.6842L54.9117 67.9299L53.642 66.6043C53.4901 66.4455 53.3012 66.327 53.0922 66.2593C52.8833 66.1917 52.6608 66.1771 52.4449 66.2168C51.0235 66.4774 49.5704 66.5147 48.1376 66.3276C47.9196 66.2995 47.6982 66.3259 47.4929 66.4043C47.2877 66.4828 47.105 66.6109 46.9612 66.7773L45.7827 68.1455L42.8953 67.0296L42.9491 65.2006C42.9557 64.9753 42.905 64.752 42.8017 64.5516C42.6984 64.3513 42.5459 64.1806 42.3586 64.0555C41.1676 63.2616 40.1236 62.2662 39.2734 61.1138C39.1402 60.9334 38.9635 60.7897 38.7599 60.6961C38.5563 60.6024 38.3323 60.562 38.1088 60.5784L36.2803 60.7129L35.0353 57.864L36.3592 56.5926C36.5179 56.4407 36.6364 56.2517 36.7043 56.0427C36.7721 55.8337 36.7871 55.611 36.748 55.3947Z" fill="white"/>
<path d="M49.9998 100.995C50.9793 100.995 51.9369 100.704 52.7514 100.159C53.5659 99.6143 54.2007 98.8397 54.5756 97.9335C54.9505 97.0273 55.0486 96.0301 54.8575 95.0681C54.6664 94.106 54.1946 93.2223 53.502 92.5288C52.8093 91.8352 51.9268 91.3628 50.966 91.1715C50.0052 90.9801 49.0094 91.0783 48.1044 91.4537C47.1993 91.8291 46.4258 92.4647 45.8816 93.2803C45.3374 94.0959 45.0469 95.0547 45.0469 96.0356C45.0484 97.3505 45.5707 98.611 46.4992 99.5408C47.4277 100.471 48.6866 100.994 49.9998 100.995ZM49.9998 93.7346C50.4543 93.7346 50.8986 93.8695 51.2765 94.1224C51.6544 94.3752 51.9489 94.7346 52.1228 95.155C52.2968 95.5755 52.3423 96.0382 52.2536 96.4845C52.1649 96.9309 51.9461 97.3409 51.6247 97.6627C51.3033 97.9845 50.8938 98.2037 50.4481 98.2924C50.0023 98.3812 49.5402 98.3357 49.1203 98.1615C48.7004 97.9873 48.3415 97.6924 48.089 97.314C47.8365 96.9356 47.7017 96.4907 47.7017 96.0356C47.7025 95.4256 47.9449 94.8407 48.3757 94.4094C48.8065 93.978 49.3905 93.7353 49.9998 93.7346Z" fill="white"/>
<path d="M26.1062 20.9888C26.4583 20.9888 26.7959 20.8488 27.0449 20.5995C27.2938 20.3503 27.4337 20.0122 27.4337 19.6597V18.5343C27.4337 18.1817 27.2938 17.8437 27.0449 17.5944C26.7959 17.3451 26.4583 17.2051 26.1062 17.2051C25.7542 17.2051 25.4165 17.3451 25.1676 17.5944C24.9187 17.8437 24.7788 18.1817 24.7788 18.5343V19.6597C24.7788 20.0122 24.9187 20.3503 25.1676 20.5995C25.4165 20.8488 25.7542 20.9888 26.1062 20.9888Z" fill="white"/>
<path d="M26.1062 36.1027C26.4583 36.1027 26.7959 35.9627 27.0449 35.7134C27.2938 35.4641 27.4337 35.126 27.4337 34.7735V24.0538C27.4337 23.7013 27.2938 23.3632 27.0449 23.1139C26.7959 22.8646 26.4583 22.7246 26.1062 22.7246C25.7542 22.7246 25.4165 22.8646 25.1676 23.1139C24.9187 23.3632 24.7788 23.7013 24.7788 24.0538V34.7735C24.7788 35.126 24.9187 35.4641 25.1676 35.7134C25.4165 35.9627 25.7542 36.1027 26.1062 36.1027Z" fill="white"/>
<path d="M87.1598 54.2754C87.4157 55.5133 88.0291 56.6486 88.924 57.5403C89.9448 58.5617 91.2767 59.2131 92.7089 59.3913C94.141 59.5694 95.5916 59.2643 96.8311 58.524C98.0705 57.7838 99.028 56.6508 99.552 55.3043C100.076 53.9579 100.137 52.4749 99.7241 51.0901C99.3117 49.7053 98.4498 48.4977 97.2749 47.6586C96.0999 46.8195 94.6791 46.3967 93.2372 46.4572C91.7953 46.5177 90.4147 47.0579 89.314 47.9925C88.2132 48.927 87.4552 50.2025 87.1598 51.617H80.31V40.8882C80.6502 40.0766 80.8252 39.2052 80.8249 38.3251C80.824 37.2764 81.236 36.2697 81.9716 35.5232C82.7071 34.7768 83.7069 34.3507 84.7541 34.3375H86.0001C86.2328 35.5904 86.8494 36.7396 87.7642 37.6255C88.6712 38.5314 89.826 39.1478 91.0827 39.3968C92.3394 39.6459 93.6416 39.5164 94.8249 39.0248C96.0081 38.5331 97.0193 37.7014 97.7307 36.6346C98.4421 35.5678 98.8218 34.3138 98.8218 33.031C98.8218 31.7482 98.4421 30.4942 97.7307 29.4274C97.0193 28.3606 96.0081 27.5288 94.8249 27.0372C93.6416 26.5455 92.3394 26.4161 91.0827 26.6651C89.826 26.9142 88.6712 27.5306 87.7642 28.4365C86.8933 29.3371 86.2834 30.458 86.0001 31.6791H84.7541C83.104 31.6808 81.516 32.3088 80.31 33.4365V10.1905C80.31 7.48779 79.2378 4.89581 77.3293 2.98472C75.4207 1.07364 72.8322 0 70.133 0H29.8676C27.1685 0 24.5799 1.07364 22.6714 2.98472C20.7628 4.89581 19.6906 7.48779 19.6906 10.1905V33.4365C18.4846 32.3088 16.8966 31.6808 15.2466 31.6791H14.0005C13.7172 30.4582 13.1073 29.3375 12.2364 28.4372C11.3278 27.522 10.1684 26.8975 8.90499 26.6429C7.64159 26.3883 6.33115 26.5151 5.13979 27.0071C3.94843 27.4992 2.92979 28.3343 2.21301 29.4068C1.49623 30.4792 1.11359 31.7406 1.11359 33.031C1.11359 34.3214 1.49623 35.5828 2.21301 36.6552C2.92979 37.7276 3.94843 38.5628 5.13979 39.0548C6.33115 39.5469 7.64159 39.6736 8.90499 39.4191C10.1684 39.1645 11.3278 38.54 12.2364 37.6248C13.1512 36.7391 13.7678 35.5901 14.0005 34.3375H15.2466C16.2937 34.3507 17.2935 34.7768 18.029 35.5232C18.7646 36.2697 19.1766 37.2764 19.1758 38.3251C19.1754 39.2052 19.3505 40.0766 19.6906 40.8882V51.617H12.8408C12.5454 50.2027 11.7874 48.9276 10.6868 47.9932C9.58616 47.0589 8.20579 46.5188 6.76412 46.4584C5.32246 46.398 3.90185 46.8207 2.72713 47.6597C1.5524 48.4987 0.690665 49.706 0.278293 51.0906C-0.134079 52.4752 -0.0735295 53.9579 0.450358 55.3042C0.974246 56.6504 1.93155 57.7832 3.17076 58.5234C4.40997 59.2636 5.8603 59.5688 7.29223 59.3907C8.72415 59.2127 10.0559 58.5615 11.0766 57.5403C11.9715 56.6486 12.5849 55.5133 12.8408 54.2754H19.6906V65.0042C19.3505 65.8158 19.1754 66.6871 19.1758 67.5673C19.1766 68.6159 18.7646 69.6227 18.029 70.3691C17.2935 71.1156 16.2937 71.5416 15.2466 71.5549H14.0005C13.7679 70.302 13.1512 69.1528 12.2364 68.2669C11.3304 67.3669 10.1787 66.7555 8.92626 66.5099C7.67387 66.2644 6.37689 66.3955 5.19882 66.8868C4.02074 67.3782 3.01429 68.2078 2.30633 69.271C1.59836 70.3342 1.22057 71.5835 1.22057 72.8614C1.22057 74.1392 1.59836 75.3885 2.30633 76.4517C3.01429 77.5149 4.02074 78.3445 5.19882 78.8359C6.37689 79.3272 7.67387 79.4584 8.92626 79.2128C10.1787 78.9672 11.3304 78.3558 12.2364 77.4558C13.1074 76.5553 13.7172 75.4344 14.0005 74.2132H15.2466C16.8966 74.2115 18.4846 73.5835 19.6906 72.4558V96.8095C19.6906 99.5122 20.7628 102.104 22.6714 104.015C24.5799 105.926 27.1685 107 29.8676 107H70.133C72.8322 107 75.4207 105.926 77.3293 104.015C79.2378 102.104 80.31 99.5122 80.31 96.8095V72.4558C81.516 73.5835 83.104 74.2115 84.7541 74.2132H86.0001C86.2834 75.4342 86.8933 76.5549 87.7642 77.4552C88.6721 78.3664 89.8295 78.9875 91.0901 79.2398C92.3506 79.4921 93.6576 79.3642 94.8455 78.8724C96.0334 78.3805 97.0489 77.5468 97.7634 76.4768C98.4779 75.4068 98.8593 74.1485 98.8593 72.8614C98.8593 71.5742 98.4779 70.3159 97.7634 69.2459C97.0489 68.1759 96.0334 67.3422 94.8455 66.8503C93.6576 66.3585 92.3506 66.2306 91.0901 66.4829C89.8295 66.7352 88.6721 67.3563 87.7642 68.2676C86.8494 69.1532 86.2328 70.3022 86.0001 71.5549H84.7541C83.7069 71.5416 82.7071 71.1156 81.9716 70.3691C81.236 69.6227 80.824 68.6159 80.8249 67.5673C80.8252 66.6871 80.6502 65.8158 80.31 65.0042V54.2754H87.1598ZM90.8012 50.232C91.3373 49.695 92.0203 49.3293 92.7639 49.1811C93.5076 49.0329 94.2784 49.1088 94.979 49.3993C95.6795 49.6898 96.2783 50.1818 96.6995 50.813C97.1208 51.4443 97.3457 52.1865 97.3457 52.9457C97.3457 53.705 97.1208 54.4471 96.6995 55.0784C96.2783 55.7097 95.6795 56.2017 94.979 56.4921C94.2784 56.7826 93.5076 56.8586 92.7639 56.7104C92.0203 56.5621 91.3373 56.1964 90.8012 55.6595C90.0836 54.9391 89.6807 53.9632 89.6807 52.9457C89.6807 51.9283 90.0836 50.9524 90.8012 50.232ZM89.6415 30.3401C90.1776 29.8033 90.8607 29.4377 91.6043 29.2895C92.348 29.1414 93.1188 29.2174 93.8193 29.508C94.5198 29.7985 95.1186 30.2905 95.5398 30.9218C95.9611 31.5531 96.1859 32.2952 96.1859 33.0545C96.1859 33.8137 95.9611 34.5559 95.5398 35.1872C95.1186 35.8184 94.5198 36.3105 93.8193 36.601C93.1188 36.8915 92.348 36.9675 91.6043 36.8194C90.8607 36.6713 90.1776 36.3057 89.6415 35.7688C88.9225 35.0489 88.5187 34.0725 88.5187 33.0545C88.5187 32.0364 88.9225 31.06 89.6415 30.3401ZM10.3592 35.7688C9.73188 36.3966 8.90659 36.7873 8.02393 36.8741C7.14127 36.961 6.25583 36.7387 5.51849 36.2451C4.78114 35.7516 4.23751 35.0173 3.98022 34.1674C3.72292 33.3175 3.76789 32.4046 4.10745 31.5841C4.44701 30.7637 5.06015 30.0866 5.84241 29.6681C6.62468 29.2495 7.52766 29.1156 8.3975 29.289C9.26735 29.4624 10.0502 29.9324 10.6128 30.619C11.1753 31.3056 11.4827 32.1663 11.4826 33.0544C11.482 34.0725 11.0779 35.0487 10.3592 35.7688ZM9.19943 55.6604C8.66348 56.1967 7.98074 56.5619 7.23753 56.7098C6.49433 56.8576 5.72403 56.7815 5.02403 56.4911C4.32402 56.2006 3.72573 55.7088 3.30481 55.0779C2.88388 54.447 2.65922 53.7053 2.65922 52.9466C2.65922 52.1879 2.88388 51.4462 3.30481 50.8153C3.72573 50.1844 4.32402 49.6926 5.02403 49.4022C5.72403 49.1117 6.49433 49.0356 7.23753 49.1835C7.98074 49.3313 8.66348 49.6965 9.19943 50.2328C9.91697 50.9532 10.3199 51.9292 10.3199 52.9466C10.3199 53.9641 9.91697 54.94 9.19943 55.6604ZM10.3592 75.5522C9.8232 76.0886 9.14042 76.4539 8.39716 76.6018C7.6539 76.7497 6.88354 76.6736 6.18347 76.3831C5.48339 76.0927 4.88504 75.6009 4.46407 74.9699C4.04311 74.339 3.81842 73.5972 3.81842 72.8384C3.81842 72.0796 4.04311 71.3379 4.46407 70.7069C4.88504 70.076 5.48339 69.5842 6.18347 69.2937C6.88354 69.0033 7.6539 68.9272 8.39716 69.0751C9.14042 69.223 9.8232 69.5882 10.3592 70.1247C11.0777 70.8445 11.4814 71.8206 11.4814 72.8384C11.4814 73.8562 11.0777 74.8323 10.3592 75.5522ZM22.3454 43.9987C23.371 44.6348 24.5535 44.9715 25.7598 44.971H27.0443C26.4062 46.7873 25.9902 48.6743 25.8054 50.5908C25.7704 50.944 25.7452 51.2659 25.7258 51.617H22.3454V43.9987ZM22.3454 54.2754H25.7222C25.8329 56.5449 26.2825 58.7851 27.0558 60.9213H25.7598C24.5535 60.9208 23.371 61.2576 22.3454 61.8936V54.2754ZM77.6552 96.9493C77.6552 101.102 74.3123 104.563 70.1645 104.563H29.8362C25.6884 104.563 22.3454 101.102 22.3454 96.9493V89.0559H77.6552V96.9493ZM77.6552 86.3975H22.3454V65.6147C22.6829 65.0025 23.1771 64.4914 23.7771 64.1337C24.3772 63.7761 25.0615 63.5849 25.7598 63.5797H28.1713C29.9878 67.3038 32.7245 70.5013 36.1217 72.8689C39.5189 75.2365 43.4639 76.6957 47.5824 77.108C48.3946 77.1882 49.2038 77.2429 50.0094 77.2429C54.5493 77.224 58.9936 75.9345 62.8404 73.5202C66.6872 71.1059 69.7833 67.6628 71.7793 63.5797H74.2408C74.9391 63.5849 75.6234 63.7761 76.2235 64.1337C76.8235 64.4914 77.3177 65.0025 77.6552 65.6147V86.3975ZM28.4472 50.8217C28.8668 46.5602 30.5391 42.519 33.2524 39.2091C35.9657 35.8992 39.5984 33.4693 43.6909 32.2267C47.7834 30.9841 52.1519 30.9846 56.2442 32.2281C60.3364 33.4716 63.9685 35.9023 66.6811 39.2128C69.3937 42.5233 71.065 46.5648 71.4837 50.8264C71.9024 55.0881 71.0496 59.3783 69.0332 63.1546C67.0168 66.9309 63.9274 70.0237 60.1556 72.0418C56.3838 74.06 52.0991 74.9128 47.8432 74.4926C45.0104 74.2318 42.2575 73.4102 39.7444 72.0754C37.2313 70.7406 35.008 68.9193 33.2035 66.7171C31.3991 64.515 30.0494 61.9759 29.2329 59.2472C28.4164 56.5185 28.1494 53.6546 28.4472 50.8217ZM77.6552 61.8936C76.6296 61.2576 75.4471 60.9208 74.2408 60.9213H72.8857C73.5237 59.105 73.9397 57.218 74.1246 55.3015C74.1596 54.9484 74.1848 54.6265 74.2043 54.2754H77.6552V61.8936ZM77.6552 51.617H74.2078C74.097 49.3474 73.6475 47.1073 72.8742 44.971H74.2408C75.4471 44.9715 76.6296 44.6348 77.6552 43.9987V51.617ZM77.6552 40.2776C77.3177 40.8898 76.8235 41.401 76.2235 41.7586C75.6234 42.1162 74.9391 42.3075 74.2408 42.3126H71.7585C69.7614 38.2263 66.6592 34.7832 62.8046 32.3749C58.95 29.9667 54.4979 28.6899 49.9545 28.6899C45.4112 28.6899 40.959 29.9667 37.1044 32.3749C33.2498 34.7832 30.1476 38.2263 28.1505 42.3126H25.7598C25.0615 42.3075 24.3772 42.1162 23.7771 41.7586C23.1771 41.401 22.6829 40.8898 22.3454 40.2776V15.2857H77.6552V40.2776ZM77.6552 12.6273H22.3454V10.2722C22.3454 6.11916 25.6884 2.65839 29.8362 2.65839H70.1645C74.3123 2.65839 77.6552 6.11916 77.6552 10.2722V12.6273ZM89.6415 70.1236C90.2686 69.4956 91.0938 69.1047 91.9765 69.0177C92.8591 68.9306 93.7446 69.1527 94.4821 69.646C95.2195 70.1394 95.7633 70.8736 96.0208 71.7235C96.2783 72.5733 96.2335 73.4863 95.8941 74.3068C95.5548 75.1273 94.9417 75.8046 94.1595 76.2233C93.3774 76.6419 92.4744 76.7761 91.6045 76.6028C90.7346 76.4296 89.9516 75.9597 89.3889 75.2732C88.8262 74.5867 88.5187 73.7261 88.5187 72.838C88.518 72.3338 88.6169 71.8344 88.8095 71.3686C89.0022 70.9027 89.285 70.4796 89.6415 70.1236Z" fill="white"/>
</svg>
