<svg width="150" height="40" viewBox="0 0 150 40" fill="none" xmlns="http://www.w3.org/2000/svg">
<g clip-path="url(#clip0)">
<path d="M0 1.21973H12.053C14.8191 1.21973 18.0663 3.79067 19.5359 5.21925L40.7027 28.7041V1.21973H47.8897V38.7209H35.3027C33.0658 38.668 30.8505 38.1822 28.2768 35.669L7.1558 12.1312V38.7209H0V1.21973Z" fill="#005BAA"/>
<path d="M150 38.973C141.377 40.1635 132.681 40.2717 123.924 39.5358C118.803 39.1101 113.807 38.0326 109.201 35.6421C103.428 32.643 101.578 25.8826 101.65 19.7546C101.713 14.0956 103.402 8.08554 108.426 4.80031C111.729 2.63581 115.257 1.91431 119.026 1.2385C129.263 -0.565252 139.493 -0.158806 149.497 0.928255V6.27217C137.711 3.99944 125.28 4.56221 121.044 9.97587C118.415 13.3429 118.052 16.6882 118.052 19.5117C118.052 24.5983 119.774 32.2943 130.096 33.807C136.845 34.7979 143.496 34.0235 150.002 32.8667L150 38.973Z" fill="#005BAA"/>
<path d="M76.2484 33.1289C77.2706 33.1818 93.5185 33.2323 99.0988 33.1289V38.7517C87.8612 39.1919 77.0662 39.3674 65.7444 38.9009C56.1231 38.5016 54.4683 33.6604 54.2734 29.0163V1.22168H98.536V6.56319H69.9128V16.1135H95.9912V21.3203H69.9104C69.8959 24.139 69.9825 27.3328 70.0066 27.9052C70.1605 31.544 71.8466 32.9004 76.2363 33.1289" fill="#005BAA"/>
</g>
<defs>
<clipPath id="clip0">
<rect width="150" height="40" fill="white"/>
</clipPath>
</defs>
</svg>
