<svg width="176" height="54" viewBox="0 0 176 54" fill="none" xmlns="http://www.w3.org/2000/svg">
<g clip-path="url(#clip0)">
<path d="M56.1957 12.0639C58.2397 12.0181 60.2677 12.4376 62.1296 13.2914C63.9915 14.1452 65.6396 15.4113 66.9518 16.9962C68.2641 18.581 69.2069 20.4439 69.7105 22.4469C70.214 24.4499 70.2655 26.5418 69.861 28.5676C69.0538 33.0066 66.7502 37.0258 63.342 39.9414C59.9337 42.8571 55.6315 44.489 51.1671 44.5597C49.146 44.606 47.1402 44.1947 45.2968 43.3558C43.4533 42.5169 41.8189 41.2717 40.5134 39.7114C39.2078 38.1511 38.2641 36.3153 37.7515 34.3385C37.2389 32.3618 37.1703 30.2941 37.5508 28.287C38.3177 23.818 40.5962 19.7569 43.997 16.7978C47.3978 13.8388 51.7097 12.1655 56.1957 12.0639ZM51.8365 39.262C54.8396 39.102 57.7048 37.9368 59.9808 35.9499C62.2568 33.9629 63.8142 31.2671 64.4079 28.287C64.7205 26.9519 64.7238 25.5618 64.4178 24.2251C64.1117 22.8884 63.5044 21.6412 62.6433 20.5806C61.7822 19.5201 60.6904 18.6748 59.4531 18.1108C58.2158 17.5467 56.8664 17.279 55.5099 17.3286C52.509 17.4886 49.6485 18.6646 47.3889 20.6673C45.1293 22.67 43.602 25.383 43.0528 28.3696C42.7631 29.6928 42.7746 31.0653 43.0865 32.3835C43.3984 33.7016 44.0025 34.9308 44.8532 35.9783C45.7039 37.0259 46.779 37.8643 47.9972 38.4303C49.2155 38.9962 50.545 39.275 51.8855 39.2455" fill="#130C15"/>
<path d="M73.4691 23.7987H78.367L78.1058 25.4491C78.9378 24.6368 79.9371 24.0203 81.0321 23.6437C82.1272 23.2671 83.2911 23.1397 84.4405 23.2706C90.3834 23.7492 92.3752 29.1789 91.6895 33.7339C90.8568 39.2461 86.9385 44.0487 80.9956 44.2303C79.9663 44.3296 78.9286 44.1707 77.9745 43.7677C77.0205 43.3646 76.1795 42.7299 75.5262 41.9197L73.6323 53.9509H68.7344L73.4691 23.7987ZM80.5874 39.6092C83.0038 39.6092 85.7956 38.0579 86.6609 33.8329C87.3956 30.2847 85.714 27.9411 82.5956 27.9411C81.0804 28.0582 79.6531 28.7057 78.5594 29.7721C77.4657 30.8385 76.7741 32.257 76.6038 33.7834C76.065 38.0579 78.367 39.6092 80.5874 39.6092Z" fill="#130C15"/>
<path d="M95.7711 28.4522H93.714L94.4323 23.7981H96.5058L97.5344 17.2627H102.4L101.371 23.7981H104.587L103.853 28.4522H100.653L98.2527 43.7841H93.3711L95.7711 28.4522Z" fill="#130C15"/>
<path d="M103.754 33.6837C104.238 30.8351 105.681 28.2428 107.837 26.3452C109.994 24.4477 112.733 23.3613 115.591 23.2699C116.901 23.2286 118.202 23.4857 119.4 24.022C120.598 24.5583 121.662 25.3601 122.511 26.3681C123.361 27.3761 123.976 28.5644 124.31 29.845C124.643 31.1257 124.688 32.4658 124.44 33.7662C123.995 36.6784 122.541 39.336 120.337 41.2647C118.133 43.1933 115.322 44.2675 112.407 44.2956C111.103 44.3074 109.813 44.0244 108.631 43.4675C107.45 42.9105 106.406 42.0936 105.576 41.0764C104.747 40.0592 104.153 38.8676 103.838 37.5885C103.522 36.3094 103.494 34.9753 103.754 33.6837ZM119.591 33.6837C120.097 30.1684 118.187 28.0395 115.101 27.9735C113.505 28.0354 111.98 28.6575 110.788 29.7327C109.596 30.8079 108.812 32.2691 108.571 33.8653C107.983 37.4136 110.073 39.6416 113.044 39.6416C114.652 39.5763 116.187 38.9425 117.38 37.8507C118.574 36.7589 119.35 35.2784 119.575 33.6672" fill="#130C15"/>
<path d="M147.69 28.8984C147.614 28.6534 147.468 28.4366 147.271 28.2751C147.073 28.1136 146.833 28.0147 146.58 27.9907C145.961 27.8798 145.324 27.9516 144.745 28.1975C144.166 28.4434 143.669 28.8529 143.315 29.377C142.589 30.7454 142.156 32.252 142.041 33.8L140.408 43.7847H135.51L137.274 32.6777C137.666 29.9876 137.78 27.9412 135.837 27.9412C132.719 27.9412 132.066 31.6215 131.706 33.7835L130.074 43.7682H125.176L128.31 23.7658H133.208L132.996 25.2181C133.48 24.58 134.111 24.0707 134.833 23.7343C135.556 23.3979 136.349 23.2444 137.143 23.2872C137.981 23.2964 138.803 23.5116 139.54 23.9142C140.277 24.3167 140.905 24.8945 141.372 25.5977C142.905 24.1034 144.956 23.2742 147.086 23.2872C148.117 23.1931 149.152 23.4233 150.049 23.9461C150.946 24.4689 151.662 25.259 152.098 26.2083C152.796 28.0923 152.921 30.1438 152.457 32.1001L150.645 43.7682H145.747L147.494 32.6612C148.033 29.7071 147.625 28.8819 147.625 28.8819" fill="#130C15"/>
<path d="M172.881 43.7842H167.983L168.277 42.1338C167.461 42.8937 166.5 43.4773 165.453 43.8491C164.406 44.2208 163.295 44.3728 162.187 44.2958C157.926 44.2958 153.567 40.2194 154.677 33.6674C155.706 27.5446 160.277 23.3196 165.698 23.3196C166.667 23.2303 167.644 23.3839 168.541 23.7667C169.438 24.1495 170.228 24.7499 170.841 25.5146L171.118 23.8643H176.016L172.881 43.7842ZM165.779 27.9407C164.233 28.0508 162.772 28.7001 161.647 29.7776C160.521 30.8551 159.801 32.2941 159.608 33.849C159.118 37.0012 160.604 39.6418 163.608 39.6418C165.16 39.5517 166.631 38.9117 167.762 37.8342C168.894 36.7567 169.614 35.3106 169.796 33.75C170.383 29.8881 168.424 27.9242 165.812 27.9242" fill="#130C15"/>
<path d="M15.3791 22.9401C15.3791 22.9401 0.685238 21.2897 -0.000476565 14.3252C-0.653538 8.02079 23.0526 0.693158 44.8159 3.77744e-06C79.0036 -0.973712 98.1057 9.24206 98.1057 9.24206C98.1057 9.24206 77.9424 3.96088 50.0077 6.32091C24.8812 8.43338 13.5342 14.1932 12.1628 17.8075C11.1505 20.4976 15.4281 22.9236 15.4281 22.9236" fill="#D61F28"/>
</g>
<defs>
<clipPath id="clip0">
<rect width="176" height="54" fill="white"/>
</clipPath>
</defs>
</svg>
