<svg width="176" height="26" viewBox="0 0 176 26" fill="none" xmlns="http://www.w3.org/2000/svg">
<path fill-rule="evenodd" clip-rule="evenodd" d="M42.1523 7.44981H48.6634L48.9539 9.61565C49.4548 7.90103 52.7504 6.67773 54.7538 6.67773C59.4017 6.67773 61.2649 9.54546 61.2649 14.559V25.358H54.0326V15.692C54.0326 13.7568 53.672 12.3229 51.7387 12.3229C49.8054 12.3229 49.0241 14.2581 49.0241 15.6318V25.3781H42.1523V7.44981Z" fill="#0066B1"/>
<path fill-rule="evenodd" clip-rule="evenodd" d="M0 25.4286V0.0703125H12.0906C19.3229 0.0703125 22.6085 3.57976 22.6085 8.66346C22.6085 14.1081 19.6034 17.8281 12.0906 17.8281H8.01366V25.4186L0 25.4286ZM11.2592 11.6816C13.1925 11.6816 15.266 11.2504 15.266 9.03445C15.266 6.81848 13.0522 6.23691 11.2592 6.23691H8.01366V11.6816H11.2592Z" fill="#0066B1"/>
<path fill-rule="evenodd" clip-rule="evenodd" d="M121.727 7.45033H128.308L128.518 9.59612C129.089 7.8815 132.385 6.6582 134.388 6.6582C138.966 6.6582 140.899 9.52593 140.899 14.5394V25.4287H133.667V15.6925C133.667 13.7573 133.236 12.3235 131.303 12.3235C129.59 12.3235 128.659 14.2587 128.659 15.6223V25.4388H121.717V7.45033H121.727Z" fill="#0066B1"/>
<path fill-rule="evenodd" clip-rule="evenodd" d="M88.5206 18.9813C88.5288 19.7666 88.8085 20.5248 89.312 21.127C89.8649 21.5632 90.5418 21.8125 91.2453 21.839C92.5375 21.839 93.5392 21.478 93.5392 20.2647C93.6093 17.2566 82.6606 19.9038 82.6606 12.7445C82.6606 7.73097 86.5272 6.58789 90.534 6.58789C94.5409 6.58789 100.05 7.38002 99.8399 12.8247H93.7595C93.7345 12.3511 93.559 11.898 93.2587 11.5312C93.0252 11.2704 92.7373 11.0643 92.4153 10.9274C92.0933 10.7905 91.7451 10.7262 91.3955 10.7391C90.1834 10.6689 89.0315 10.8794 89.0315 11.812C89.1016 14.6095 100.341 12.7445 100.341 19.3322C100.341 23.9146 97.1153 25.9901 90.8947 25.9901C86.958 25.92 82.0195 23.9146 82.0195 18.9712L88.5206 18.9813Z" fill="#0066B1"/>
<path fill-rule="evenodd" clip-rule="evenodd" d="M162.597 14.3985C162.634 13.7747 162.43 13.1605 162.026 12.6839C161.81 12.3601 161.524 12.0891 161.19 11.8912C160.855 11.6933 160.48 11.5735 160.093 11.5408C157.378 11.5408 156.657 14.188 156.657 16.3438C156.657 18.8505 157.799 20.9261 159.952 20.9261C160.737 20.8719 161.47 20.5118 161.992 19.9232C162.515 19.3345 162.786 18.5642 162.747 17.7776H169.048C169.188 21.5077 166.614 25.9396 159.672 25.9396C158.388 25.9981 157.107 25.7881 155.909 25.323C154.711 24.8579 153.622 24.148 152.714 23.2385C151.805 22.329 151.096 21.2399 150.631 20.0407C150.167 18.8415 149.957 17.5585 150.015 16.2736C150.015 9.32486 155.164 6.67773 159.602 6.67773C165.612 6.67773 169.048 10.3276 168.978 14.4186L162.597 14.3985Z" fill="#0066B1"/>
<path fill-rule="evenodd" clip-rule="evenodd" d="M34.498 25.4284L33.7868 23.9243C32.3901 25.1584 30.5694 25.8019 28.7082 25.7191C26.4944 25.649 22.127 25.3582 22.127 20.5653C22.127 12.684 33.867 16.2637 33.867 12.4033C33.867 11.1098 32.4345 11.19 31.6532 11.19C30.2208 11.19 29.2892 11.4808 29.0788 13.6266H23.0686C23.0686 9.90655 24.2105 6.74805 32.0839 6.74805C39.737 6.74805 40.5283 10.7588 40.5283 14.6995V22.8614C40.4706 23.2902 40.5119 23.7265 40.6491 24.1367C40.7863 24.547 41.0157 24.9203 41.3197 25.2278V25.3682L34.5181 25.4384L34.498 25.4284ZM33.9271 17.1862C31.4929 18.3292 28.4177 18.2591 28.3476 20.0539C28.3476 21.197 28.9887 21.7685 30.4211 21.7685C32.7851 21.7685 34.0673 19.3319 33.9271 17.1862ZM74.8669 25.4284L74.1556 23.9243C72.7525 25.1476 70.9363 25.7894 69.077 25.7191C66.7831 25.649 62.4257 25.3582 62.4257 20.5653C62.4257 12.684 74.1657 16.2637 74.2358 12.4033C74.2358 11.1098 72.7332 11.19 72.022 11.19C70.5195 11.19 69.658 11.4808 69.4476 13.6266H63.4374C63.4374 9.90655 64.5092 6.74805 72.4527 6.74805C80.0357 6.74805 80.827 10.7588 80.827 14.6995V22.8614C80.7693 23.2902 80.8106 23.7265 80.9478 24.1367C81.085 24.547 81.3144 24.9203 81.6184 25.2278V25.3682L74.8869 25.4384L74.8669 25.4284ZM74.2959 17.1862C71.8617 18.3292 68.7164 18.2591 68.7164 20.0539C68.7164 21.197 69.2873 21.7685 70.7899 21.7685C73.0838 21.7685 74.4361 19.3319 74.2959 17.1862Z" fill="#0066B1"/>
<path fill-rule="evenodd" clip-rule="evenodd" d="M148.854 25.4285V7.45006H142.203V25.4285H148.854ZM142.203 5.15388H148.854V0H142.203V5.15388Z" fill="#0066B1"/>
<path fill-rule="evenodd" clip-rule="evenodd" d="M111 6.80859C116.94 6.80859 120.587 10.9598 120.587 16.4044C120.587 21.8491 116.94 26.0003 111 26.0003C105.06 26.0003 101.344 21.9193 101.344 16.4044C101.344 10.8896 105.07 6.80859 111 6.80859ZM107.855 16.4044C107.855 18.6204 108.566 21.3477 111 21.4179C113.434 21.4881 114.075 18.6204 114.075 16.4044C114.075 14.1885 113.434 11.4611 111 11.4611C108.566 11.4611 107.925 14.2587 107.855 16.4044Z" fill="#0066B1"/>
<path fill-rule="evenodd" clip-rule="evenodd" d="M173.255 21.9188C173.686 21.9188 174.327 21.989 174.327 21.4174C174.327 20.8459 173.896 20.8459 173.535 20.8459H172.674V21.9188H173.255ZM174.687 23.6334H174.257L173.395 22.1996H172.684V23.6535H172.323V20.5752H173.616C174.186 20.5752 174.697 20.7456 174.697 21.4375C174.697 22.1294 174.327 22.2296 173.756 22.2296L174.687 23.6635V23.6334ZM175.689 22.1695C175.695 21.693 175.559 21.2255 175.298 20.8269C175.037 20.4282 174.664 20.1164 174.225 19.9313C173.786 19.7462 173.303 19.6962 172.835 19.7877C172.368 19.8792 171.939 20.1081 171.602 20.445C171.266 20.782 171.037 21.2117 170.946 21.6794C170.854 22.147 170.904 22.6314 171.089 23.0705C171.274 23.5096 171.585 23.8835 171.984 24.1445C172.382 24.4055 172.849 24.5418 173.325 24.5358C173.95 24.528 174.546 24.2762 174.988 23.8341C175.43 23.392 175.681 22.7946 175.689 22.1695ZM170.57 22.1695C170.57 21.632 170.73 21.1067 171.028 20.6598C171.326 20.2129 171.75 19.8647 172.246 19.659C172.742 19.4533 173.288 19.3995 173.815 19.5044C174.341 19.6092 174.825 19.868 175.204 20.248C175.584 20.6281 175.843 21.1122 175.947 21.6393C176.052 22.1665 175.998 22.7128 175.793 23.2093C175.587 23.7059 175.24 24.1303 174.793 24.4288C174.347 24.7274 173.822 24.8868 173.285 24.8868C172.565 24.8868 171.875 24.6005 171.365 24.0909C170.856 23.5813 170.57 22.8901 170.57 22.1695Z" fill="#0066B1"/>
</svg>
