<svg width="150" height="31" viewBox="0 0 150 31" fill="none" xmlns="http://www.w3.org/2000/svg">
<g clip-path="url(#clip0)">
<path d="M71.5566 0L67.321 7.45688H52.4543L49.9017 11.8747H61.767L57.6857 19.0502H45.8063L43.3379 23.4681H58.1906L53.9409 30.925H29.1724L46.7881 0H71.5566Z" fill="#0073BD"/>
<path d="M85.5958 0L72.2297 23.4681H83.2395L78.9899 30.925H57.5312L75.1329 0H85.5958Z" fill="#0073BD"/>
<path d="M106.635 7.45688C106.238 7.45791 105.849 7.56935 105.511 7.77882C105.174 7.98829 104.901 8.28759 104.722 8.64342L97.0132 22.1455C96.924 22.2858 96.8754 22.4482 96.873 22.6145C96.8766 22.8356 96.9661 23.0465 97.1224 23.2024C97.2787 23.3583 97.4894 23.4469 97.7098 23.4493H110.571L106.321 30.9015H87.247C86.3707 30.9015 85.5302 30.553 84.9098 29.9323C84.2893 29.3116 83.9395 28.4695 83.937 27.5905C83.9458 27.0115 84.1071 26.4452 84.4045 25.949L97.3498 3.1938C97.8769 2.22673 98.6539 1.41987 99.599 0.857899C100.544 0.295932 101.623 -0.000404146 102.721 4.13676e-07H123.577L119.341 7.45688H106.635Z" fill="#0073BD"/>
<path d="M28.0505 8.77477L25.7129 12.8878C25.5292 13.2478 25.249 13.5492 24.9037 13.758C24.5584 13.9668 24.1619 14.0747 23.7588 14.0696H20.0561L23.8429 7.45691H27.3492C27.5724 7.45691 27.7865 7.54585 27.9443 7.70417C28.1021 7.86248 28.1907 8.0772 28.1907 8.30109C28.1886 8.46749 28.14 8.62995 28.0505 8.77008V8.77477ZM37.798 2.99524e-05H17.6157L0 30.925H10.4628L15.8064 21.5453H27.6718C28.7705 21.5457 29.8491 21.2493 30.7943 20.6874C31.7394 20.1254 32.5164 19.3185 33.0435 18.3515L40.6732 4.95722C40.9599 4.45642 41.1099 3.8886 41.108 3.31107C41.1086 2.8753 41.0233 2.44369 40.8571 2.04109C40.6909 1.63848 40.4469 1.27281 40.1393 0.965104C39.8317 0.657399 39.4665 0.413729 39.0647 0.248106C38.6629 0.0824831 38.2324 -0.00182487 37.798 2.99524e-05Z" fill="#0073BD"/>
<path d="M136.928 8.77475L129.256 22.2769C129.072 22.6312 128.793 22.928 128.452 23.1347C128.111 23.3414 127.72 23.4503 127.321 23.4493H125.343C125.232 23.4493 125.123 23.4273 125.02 23.3846C124.918 23.3419 124.825 23.2793 124.747 23.2004C124.668 23.1215 124.607 23.0279 124.565 22.925C124.523 22.822 124.501 22.7117 124.502 22.6005C124.505 22.4342 124.553 22.2719 124.642 22.1315L132.305 8.64343C132.482 8.28496 132.756 7.98346 133.096 7.77297C133.436 7.56249 133.827 7.45138 134.226 7.45221H136.204C136.314 7.45095 136.424 7.47193 136.527 7.51391C136.63 7.55589 136.723 7.61802 136.801 7.69666C136.88 7.7753 136.942 7.86886 136.984 7.97185C137.025 8.07484 137.046 8.18518 137.045 8.29638C137.049 8.46364 137 8.62781 136.905 8.76537L136.928 8.77475ZM146.704 1.33058e-05H130.341C129.242 -0.000391254 128.164 0.295945 127.219 0.857912C126.273 1.41988 125.497 2.22675 124.969 3.19381L112.005 25.9678C111.718 26.4665 111.568 27.0331 111.571 27.6092C111.571 28.0448 111.656 28.4762 111.823 28.8785C111.989 29.2808 112.233 29.6462 112.541 29.9538C112.848 30.2614 113.213 30.5051 113.615 30.6709C114.016 30.8368 114.446 30.9215 114.881 30.9203H131.243C132.342 30.9207 133.421 30.6244 134.366 30.0624C135.311 29.5004 136.088 28.6936 136.615 27.7265L149.574 4.95251C149.862 4.45223 150.012 3.88407 150.009 3.30637C150.009 2.87138 149.924 2.44067 149.757 2.03891C149.591 1.63715 149.348 1.27225 149.04 0.965099C148.733 0.657953 148.369 0.414605 147.968 0.248997C147.567 0.08339 147.137 -0.0012207 146.704 1.33058e-05Z" fill="#0073BD"/>
<path d="M138.555 29.3068H138.836C138.98 29.3176 139.124 29.2935 139.257 29.2365C139.29 29.207 139.316 29.1709 139.334 29.1305C139.352 29.09 139.361 29.0463 139.361 29.002C139.361 28.9577 139.352 28.9139 139.334 28.8735C139.316 28.8331 139.29 28.797 139.257 28.7675C139.128 28.7131 138.989 28.6905 138.85 28.7018H138.541V29.3303L138.555 29.3068ZM138.317 28.5236H139.032C139.187 28.5117 139.341 28.5548 139.467 28.6456C139.519 28.6842 139.561 28.7354 139.588 28.7945C139.615 28.8535 139.626 28.9184 139.621 28.9832C139.621 29.2505 139.467 29.41 139.154 29.4522C139.255 29.5135 139.345 29.5912 139.42 29.682C139.524 29.8623 139.613 30.0505 139.687 30.2448H139.434C139.343 30.0191 139.22 29.8075 139.07 29.6164C138.945 29.5225 138.79 29.4774 138.635 29.4897H138.537V30.2448H138.312L138.317 28.5236ZM140.421 29.3725C140.422 29.1832 140.386 28.9955 140.314 28.8206C140.242 28.6457 140.135 28.4873 140 28.3548C139.869 28.2186 139.712 28.1103 139.539 28.0363C139.365 27.9623 139.179 27.9242 138.99 27.9242C138.802 27.9242 138.615 27.9623 138.442 28.0363C138.268 28.1103 138.111 28.2186 137.98 28.3548C137.843 28.4862 137.734 28.6441 137.659 28.819C137.585 28.9939 137.546 29.1822 137.546 29.3725C137.546 29.5627 137.585 29.751 137.659 29.926C137.734 30.1009 137.843 30.2588 137.98 30.3902C138.111 30.5264 138.268 30.6347 138.442 30.7086C138.615 30.7826 138.802 30.8208 138.99 30.8208C139.179 30.8208 139.365 30.7826 139.539 30.7086C139.712 30.6347 139.869 30.5264 140 30.3902C140.14 30.2562 140.251 30.0945 140.326 29.9153C140.401 29.7361 140.438 29.5433 140.435 29.349L140.421 29.3725ZM137.349 29.3725C137.345 29.1569 137.384 28.9427 137.464 28.7427C137.544 28.5428 137.664 28.3613 137.817 28.2094C137.97 28.0546 138.152 27.9316 138.352 27.8478C138.553 27.7639 138.768 27.7207 138.986 27.7207C139.203 27.7207 139.418 27.7639 139.619 27.8478C139.819 27.9316 140.001 28.0546 140.154 28.2094C140.347 28.4011 140.489 28.6376 140.568 28.8977C140.648 29.1579 140.662 29.4337 140.609 29.7007C140.557 29.9676 140.439 30.2174 140.267 30.4278C140.095 30.6381 139.874 30.8026 139.623 30.9066C139.373 31.0105 139.1 31.0507 138.831 31.0235C138.561 30.9963 138.302 30.9027 138.077 30.7508C137.852 30.599 137.667 30.3937 137.54 30.1533C137.414 29.9128 137.348 29.6446 137.349 29.3725Z" fill="#0073BD"/>
</g>
<defs>
<clipPath id="clip0">
<rect width="150" height="31" fill="white"/>
</clipPath>
</defs>
</svg>
