<svg width="101" height="85" viewBox="0 0 101 85" fill="none" xmlns="http://www.w3.org/2000/svg">
<path d="M16.8005 42.5004C16.8005 64.2113 8.02396 75.8742 0.661971 81.8345C0.0296713 82.3513 -0.144461 83.251 0.248679 83.9698C0.647662 84.6896 1.49904 85.0195 2.27314 84.7545C12.4826 81.5097 23.1849 80.1323 33.8749 80.6872C38.4762 81.0688 43.0247 81.9396 47.4447 83.2852C51.1403 84.3367 54.962 84.8694 58.8018 84.868C59.4324 84.868 60.0652 84.8539 60.7003 84.8256C81.8413 83.6594 98.899 66.9591 100.686 45.678C101.601 33.9053 97.5645 22.2872 89.5636 13.6667C77.8086 0.911917 59.5135 -3.28783 43.4445 3.07982C27.3754 9.44747 16.806 25.0853 16.8005 42.5004ZM58.8018 3.52221C69.5379 3.53996 79.7862 8.047 87.1057 15.9698C94.4659 23.9032 98.1797 34.593 97.3389 45.4255C95.6977 65.0037 80.005 80.3683 60.5558 81.4396C56.4411 81.6302 52.3226 81.1547 48.357 80.0313C43.7055 78.6195 38.9185 77.7106 34.0765 77.3198C32.3595 77.213 30.6744 77.1656 29.0246 77.1656C21.8701 77.1883 14.7416 78.0338 7.77699 79.6856C14.2015 72.4441 20.1606 60.8032 20.1606 42.5004C20.1847 20.9834 37.4709 3.54649 58.8018 3.52221Z" fill="white"/>
<path d="M32.9527 63.0804C33.584 63.08 34.1618 62.7227 34.4485 62.1554C34.7352 61.588 34.6825 60.9065 34.3119 60.3909C25.6074 48.2531 26.9286 31.5359 37.4296 20.9425C47.9305 10.3492 64.5031 9.01512 76.5366 17.7945C77.0234 18.1502 77.6614 18.217 78.2101 17.9696C78.7589 17.7222 79.1352 17.1983 79.1972 16.5952C79.2592 15.9921 78.9975 15.4014 78.5107 15.0457C65.1399 5.26991 46.7088 6.74374 35.0319 18.5225C23.355 30.3012 21.8939 48.893 31.5852 62.3805C31.9027 62.8223 32.4117 63.0828 32.9527 63.0804Z" fill="white"/>
<path d="M80.1853 64.071C69.7084 74.7297 53.0811 76.0623 41.067 67.2062C40.5802 66.8505 39.9423 66.7838 39.3935 67.0312C38.8447 67.2786 38.4685 67.8025 38.4065 68.4056C38.3445 69.0087 38.6061 69.5993 39.0929 69.9551C52.4638 79.7309 70.8948 78.257 82.5717 66.4783C94.2487 54.6995 95.7098 36.1077 86.0185 22.6203C85.4695 21.8754 84.4288 21.7145 83.6839 22.2594C82.939 22.8042 82.7672 23.8521 83.2985 24.6099C92.0799 36.7296 90.7565 53.5048 80.1853 64.071Z" fill="white"/>
<path d="M47.0415 42.5005C47.0415 38.7567 44.0328 35.7217 40.3213 35.7217C36.6098 35.7217 33.6011 38.7567 33.6011 42.5005C33.6011 46.2443 36.6098 49.2793 40.3213 49.2793C44.0328 49.2793 47.0415 46.2443 47.0415 42.5005ZM36.9612 42.5005C36.9612 40.6286 38.4655 39.1111 40.3213 39.1111C42.177 39.1111 43.6814 40.6286 43.6814 42.5005C43.6814 44.3724 42.177 45.8899 40.3213 45.8899C38.4655 45.8899 36.9612 44.3724 36.9612 42.5005Z" fill="white"/>
<path d="M65.5219 42.5005C65.5219 38.7567 62.5132 35.7217 58.8017 35.7217C55.0903 35.7217 52.0815 38.7567 52.0815 42.5005C52.0815 46.2443 55.0903 49.2793 58.8017 49.2793C62.5132 49.2793 65.5219 46.2443 65.5219 42.5005ZM55.4416 42.5005C55.4416 40.6286 56.946 39.1111 58.8017 39.1111C60.6575 39.1111 62.1618 40.6286 62.1618 42.5005C62.1618 44.3724 60.6575 45.8899 58.8017 45.8899C56.946 45.8899 55.4416 44.3724 55.4416 42.5005Z" fill="white"/>
<path d="M70.5625 42.5005C70.5625 46.2443 73.5712 49.2793 77.2827 49.2793C80.9942 49.2793 84.0029 46.2443 84.0029 42.5005C84.0029 38.7567 80.9942 35.7217 77.2827 35.7217C73.5712 35.7217 70.5625 38.7567 70.5625 42.5005ZM80.6428 42.5005C80.6428 44.3724 79.1385 45.8899 77.2827 45.8899C75.427 45.8899 73.9226 44.3724 73.9226 42.5005C73.9226 40.6286 75.427 39.1111 77.2827 39.1111C79.1385 39.1111 80.6428 40.6286 80.6428 42.5005Z" fill="white"/>
</svg>
