<svg width="123" height="123" viewBox="0 0 123 123" fill="none" xmlns="http://www.w3.org/2000/svg">
<path d="M42.6759 42.1172C41.5587 42.1172 40.8125 42.8634 40.8125 43.9806V95.4172C40.8125 96.5344 41.5587 97.2806 42.6759 97.2806H54.6028C54.8478 97.2876 55.0913 97.2412 55.3164 97.1445C55.5416 97.0479 55.743 96.9034 55.9066 96.721C56.0888 96.5572 56.2332 96.3557 56.3298 96.1306C56.4264 95.9055 56.473 95.6621 56.4663 95.4172V43.9827C56.4733 43.7378 56.4268 43.4943 56.3302 43.2691C56.2335 43.0439 56.089 42.8425 55.9066 42.6789C55.7428 42.4967 55.5414 42.3524 55.3163 42.2557C55.0911 42.1591 54.8477 42.1125 54.6028 42.1192H42.6759V42.1172ZM52.7394 93.5537H44.5394V45.8461H52.7394V93.5537ZM17.5163 63.7365C16.399 63.7365 15.6528 64.4827 15.6528 65.5999V95.4172C15.6528 96.5344 16.399 97.2806 17.5163 97.2806H29.4432C29.6881 97.2876 29.9316 97.2412 30.1568 97.1445C30.3819 97.0479 30.5833 96.9034 30.747 96.721C30.9291 96.5572 31.0735 96.3557 31.1701 96.1306C31.2668 95.9055 31.3133 95.6621 31.3066 95.4172V65.5999C31.3066 65.0403 31.1201 64.6672 30.747 64.2961C30.3739 63.9251 30.0008 63.7365 29.4432 63.7365H17.5163ZM27.5818 93.5537H19.3818V67.4634H27.5818V93.5537Z" fill="#1B75BC"/>
<path d="M121.137 102.687H116.663C117.223 100.45 117.596 97.8403 117.596 95.4193C117.596 86.6596 113.496 78.2731 106.042 72.8693V29.6328C106.042 28.5155 105.296 27.7693 104.179 27.7693H92.25C91.1328 27.7693 90.3866 28.5155 90.3866 29.6328V67.8365H90.2C87.0327 67.8365 84.2365 68.3962 81.4404 69.3269V50.3172C81.4404 49.2 80.6942 48.4538 79.5769 48.4538H67.65C67.4051 48.4468 67.1616 48.4933 66.9364 48.5899C66.7113 48.6866 66.5098 48.8311 66.3462 49.0135C66.164 49.1773 66.0197 49.3787 65.923 49.6038C65.8264 49.8289 65.7798 50.0724 65.7865 50.3172V82.9307C63.8397 86.8061 62.8187 91.0804 62.8038 95.4172C62.8038 97.8403 63.1769 100.263 63.7365 102.684H3.7269V1.86345C3.7269 0.746201 2.9807 0 1.86345 0C0.932751 0 0 0.932751 0 1.86345V104.55C0 105.11 0.186551 105.483 0.559651 105.854C0.723473 106.036 0.924908 106.18 1.15002 106.277C1.37514 106.374 1.61856 106.42 1.86345 106.413H64.8538C69.1404 116.104 78.8327 123 90.2 123C101.567 123 111.26 116.104 115.546 106.413H121.137C122.254 106.413 123 105.667 123 104.55C122.999 104.056 122.803 103.582 122.454 103.233C122.104 102.884 121.631 102.687 121.137 102.687ZM94.1134 31.6828H102.313V70.8193C99.7038 69.5155 96.9096 68.7693 94.1134 68.2096V31.6828ZM69.3269 52.1828H77.5269V70.8193C74.41 72.4622 71.6286 74.6748 69.3269 77.3424V52.1828ZM90.2 119.273C76.7827 119.273 66.3462 108.277 66.3462 95.4193C66.3462 82.3731 76.9693 71.5655 90.2 71.5655C103.431 71.5655 114.054 82.1886 114.054 95.4193C114.054 108.65 103.246 119.273 90.2 119.273Z" fill="#1B75BC"/>
<path d="M21.4329 48.4539C22.5356 48.4585 23.6282 48.2447 24.6478 47.8249C25.6674 47.405 26.5937 46.7875 27.3734 46.0078C28.1531 45.2281 28.7707 44.3018 29.1905 43.2822C29.6103 42.2626 29.8241 41.1699 29.8195 40.0673C29.8195 38.3904 29.2598 36.9001 28.5157 35.5942L42.4926 21.8039C44.2024 22.8968 46.2588 23.3116 48.2585 22.9669C50.2583 22.6221 52.0571 21.5428 53.3022 19.9404L63.7388 25.1577C63.5502 25.7173 63.5502 26.4635 63.5502 27.0232C63.5502 31.6828 67.2771 35.4097 71.9367 35.4097C76.5964 35.4097 80.3233 31.6828 80.3233 27.0232C80.3233 25.7194 79.9502 24.6001 79.5771 23.6694L91.3174 14.7232C92.8078 15.8404 94.6712 16.7732 96.7212 16.7732C101.381 16.7732 105.108 13.0463 105.108 8.38662C105.108 3.72697 101.383 7.3023e-05 96.7233 7.3023e-05C95.6207 -0.00453771 94.528 0.209239 93.5085 0.629069C92.4889 1.0489 91.5625 1.66647 90.7828 2.44615C90.0031 3.22584 89.3856 4.1522 88.9657 5.17178C88.5459 6.19137 88.3321 7.28399 88.3367 8.38662C88.3367 9.69042 88.7099 10.8097 89.083 11.7404L77.3426 20.6866C73.6157 17.7039 68.5829 18.2635 65.6022 21.8039L54.9791 16.7711C55.1657 16.2115 55.1657 15.4673 55.1657 14.9077C55.1703 13.805 54.9565 12.7124 54.5367 11.6928C54.1169 10.6732 53.4993 9.74689 52.7196 8.96721C51.9399 8.18753 51.0136 7.56995 49.994 7.15012C48.9744 6.73029 47.8818 6.51651 46.7791 6.52112C45.6765 6.51651 44.5839 6.73029 43.5643 7.15012C42.5447 7.56995 41.6184 8.18753 40.8387 8.96721C40.059 9.74689 39.4414 10.6732 39.0216 11.6928C38.6018 12.7124 38.388 13.805 38.3926 14.9077C38.3926 16.5846 38.9522 18.0749 39.6964 19.3808L25.7195 33.1711C24.4157 32.4249 22.9233 31.8673 21.2464 31.8673C16.9598 31.6808 13.0464 35.4077 13.0464 40.0673C13.0464 44.727 16.9598 48.4539 21.4329 48.4539ZM96.5368 3.72697C99.1464 3.72697 101.196 5.77697 101.196 8.38662C101.196 10.9963 99.1464 13.0463 96.5368 13.0463C95.9231 13.0526 95.3143 12.9364 94.7461 12.7044C94.178 12.4725 93.6618 12.1295 93.2278 11.6955C92.7939 11.2616 92.4509 10.7454 92.2189 10.1772C91.987 9.60905 91.8708 9.00029 91.8771 8.38662C92.0637 5.77697 94.1137 3.72697 96.5368 3.72697ZM71.9367 22.5501C74.5464 22.5501 76.5964 24.6001 76.5964 27.2097C76.5964 29.8194 74.5464 31.8694 71.9367 31.8694C69.3271 31.8694 67.2771 29.8194 67.2771 27.2097C67.2771 24.6001 69.5136 22.5501 71.9367 22.5501ZM46.9636 10.2501C49.5733 10.2501 51.6233 12.3001 51.6233 14.9097C51.6233 17.5194 49.5733 19.5694 46.9636 19.5694C44.354 19.5694 42.304 17.5194 42.304 14.9097C42.304 12.3001 44.354 10.2501 46.9636 10.2501ZM21.4329 35.4097C24.0426 35.4097 26.0926 37.4597 26.0926 40.0694C26.0926 42.679 24.0426 44.729 21.4329 44.729C20.8193 44.7353 20.2105 44.6191 19.6423 44.3872C19.0742 44.1552 18.558 43.8123 18.124 43.3783C17.6901 42.9443 17.3471 42.4282 17.1151 41.86C16.8832 41.2918 16.767 40.683 16.7733 40.0694C16.7733 37.4597 19.0098 35.4097 21.4329 35.4097ZM92.2502 92.2501L92.0636 83.4904C94.4935 83.8657 96.796 84.8252 98.7733 86.2866L101.754 82.0001C98.5868 79.9501 95.4174 78.6463 91.8771 78.4597V76.0366H88.8943V78.2732C85.9116 78.4597 83.304 79.3904 81.4405 81.0694C79.5771 82.7463 78.6443 84.9828 78.6443 87.779C78.6443 90.5752 79.3905 92.6252 81.0674 93.929C82.7443 95.2328 85.354 96.3521 88.8943 97.2828V106.416C86.0981 106.042 83.304 104.552 80.6943 102.316L77.3405 106.416C80.6943 109.398 84.6078 111.075 88.8943 111.633V114.987H91.8771V111.633C95.0443 111.446 97.654 110.516 99.704 108.837C101.567 107.16 102.687 104.923 102.687 102.127C102.687 99.3308 101.754 97.2808 100.077 95.7904C98.5867 94.3001 95.7906 93.1828 92.2502 92.2501ZM89.083 91.5039C87.4061 90.9442 86.1002 90.3866 85.5426 89.827C84.9829 89.2673 84.6098 88.3366 84.6098 87.4039C84.6098 86.2866 84.9829 85.5404 85.7271 84.7942C86.4733 84.048 87.5905 83.677 89.0809 83.4904L89.083 91.5039ZM95.604 105.11C94.6712 105.856 93.554 106.227 92.0636 106.414V98.027C93.9271 98.5866 95.2309 99.1442 95.9771 99.8904C96.7233 100.45 97.0964 101.383 97.0964 102.5C97.0964 103.617 96.5368 104.55 95.604 105.11Z" fill="#1B75BC"/>
</svg>
