<svg width="150" height="50" viewBox="0 0 150 50" fill="none" xmlns="http://www.w3.org/2000/svg">
<g clip-path="url(#clip0)">
<path d="M149.902 11.9029C147.862 0.141744 112.675 -3.52612 71.3084 3.7046C53.9312 6.7499 38.2424 11.2504 26.0275 16.2684C27.9027 16.3134 29.2923 16.7409 30.144 17.5885C30.4836 17.9503 30.7467 18.3774 30.9174 18.8441C31.0882 19.3107 31.1631 19.8073 31.1376 20.3038V21.4664H27.0809V20.4388C27.0963 20.2494 27.0699 20.0589 27.0035 19.8809C26.937 19.703 26.8322 19.542 26.6966 19.4094C26.561 19.2768 26.3979 19.1759 26.219 19.114C26.04 19.0521 25.8496 19.0306 25.6615 19.0511C25.3441 19.0136 25.0244 19.099 24.7676 19.2899C24.5107 19.4809 24.3361 19.763 24.2794 20.0787C24.2233 20.3458 24.2233 20.6217 24.2794 20.8888C24.7127 22.674 30.7342 23.7766 31.3916 27.0619C31.5386 27.9308 31.5386 28.8183 31.3916 29.6872C31.0181 32.335 28.6946 33.3626 25.7436 33.3626C21.6197 33.3626 19.9463 31.4049 19.9463 28.6971V27.422H24.2943V29.0121C24.2914 29.2049 24.3289 29.3961 24.4045 29.5733C24.4801 29.7506 24.592 29.9098 24.7329 30.0407C24.8739 30.1716 25.0407 30.2713 25.2226 30.3331C25.4045 30.395 25.5973 30.4177 25.7885 30.3998C26.1208 30.4497 26.4595 30.3715 26.7367 30.1808C27.0139 29.9902 27.2089 29.7013 27.2826 29.3722C27.3933 28.9977 27.3933 28.599 27.2826 28.2246C26.4758 26.1994 20.8502 25.2243 20.1629 21.9764C20.0239 21.2654 20.0264 20.5338 20.1704 19.8237C20.2353 19.4309 20.3561 19.0495 20.529 18.6911C6.96936 25.0517 -0.957225 32.0499 0.0886961 38.0955C2.13571 49.8567 37.3534 53.5246 78.6897 46.2864C96.8737 43.106 113.22 38.3506 125.666 33.0175C125.487 33.0175 125.315 33.0175 125.129 33.0175C122.297 33.0175 119.772 31.9524 119.503 29.0496C119.458 28.5171 119.451 28.2996 119.443 27.9995V21.3239C119.443 21.0388 119.443 20.5288 119.51 20.2663C119.847 17.461 122.058 16.2984 125.121 16.2984C127.489 16.2984 130.403 16.9809 130.724 20.2663C130.741 20.5986 130.741 20.9315 130.724 21.2639V21.8939H126.623V21.0013C126.621 20.8027 126.603 20.6046 126.57 20.4088C126.503 20.0703 126.313 19.7691 126.037 19.5639C125.761 19.3586 125.418 19.2641 125.076 19.2987C124.736 19.2708 124.396 19.3679 124.122 19.572C123.847 19.7762 123.655 20.0735 123.582 20.4088C123.536 20.656 123.516 20.9074 123.522 21.1588V28.4196C123.505 28.6167 123.505 28.815 123.522 29.0121C123.634 29.3387 123.845 29.622 124.125 29.8226C124.404 30.0232 124.74 30.131 125.084 30.131C125.428 30.131 125.763 30.0232 126.043 29.8226C126.323 29.622 126.533 29.3387 126.645 29.0121C126.675 28.8161 126.687 28.6178 126.682 28.4196V26.1693H125.069V23.7166H130.769V28.022C130.77 28.3727 130.752 28.7232 130.717 29.0721C130.663 29.7729 130.429 30.4475 130.037 31.0298C143.253 24.7517 150.91 17.8585 149.902 11.9029ZM42.6353 32.74L40.5584 18.5861H40.4837L38.3545 32.74H33.9765L36.9201 16.7484H44.0771L46.9982 32.74H42.6353ZM63.6732 32.74L63.5761 18.8561H63.5014L60.9314 32.74H56.8224L54.2674 18.8561H54.1927L54.103 32.74H50.0538L50.405 16.7484H56.927L58.8321 28.6296H58.9217L60.8343 16.7484H67.3713L67.7224 32.74H63.6732ZM82.8285 29.6422C82.3877 32.74 79.3695 33.2801 77.2328 33.2801C73.6842 33.2801 71.4952 31.7799 71.4952 28.6596V27.3995H75.791V28.9746C75.7867 29.1674 75.8234 29.359 75.8987 29.5364C75.9739 29.7139 76.0859 29.8732 76.2273 30.0038C76.3687 30.1344 76.5361 30.2332 76.7185 30.2937C76.9009 30.3543 77.0941 30.3751 77.2851 30.3548C77.6168 30.4086 77.9565 30.3329 78.2344 30.1432C78.5123 29.9535 78.7072 29.6642 78.7793 29.3347C78.8866 28.9648 78.8866 28.5719 78.7793 28.202C77.9874 26.2143 72.4067 25.2017 71.7268 22.0139C71.5722 21.311 71.5595 20.5841 71.6895 19.8762C72.1601 16.9509 74.9542 16.3434 77.2104 16.3434C79.2201 16.3434 80.6844 16.7859 81.5659 17.6635C81.9022 18.0211 82.163 18.4434 82.3325 18.9049C82.5019 19.3664 82.5766 19.8575 82.5521 20.3488V21.5039H78.5328V20.4838C78.5469 20.2966 78.5199 20.1087 78.4537 19.9332C78.3876 19.7577 78.2839 19.5988 78.15 19.4679C78.016 19.3371 77.8551 19.2373 77.6786 19.1756C77.502 19.114 77.3142 19.0919 77.1282 19.1111C76.8116 19.0715 76.4919 19.1551 76.2349 19.3449C75.9778 19.5346 75.8029 19.816 75.7461 20.1312C75.6907 20.3959 75.6907 20.6692 75.7461 20.9338C76.1794 22.704 82.1487 23.7916 82.7986 27.0469C82.9526 27.9043 82.9627 28.7815 82.8285 29.6422ZM97.7105 28.187C97.7105 28.4871 97.7105 29.0871 97.6731 29.2372C97.4266 31.8699 95.5514 33.2126 92.1073 33.2126C88.6633 33.2126 86.7731 31.8699 86.5341 29.2372C86.5341 29.0871 86.4892 28.4871 86.4967 28.187V16.7484H90.6057V28.5546C90.5862 28.7516 90.5862 28.9501 90.6057 29.1471C90.6663 29.4948 90.8472 29.8099 91.1164 30.0369C91.3856 30.264 91.7259 30.3884 92.0774 30.3884C92.429 30.3884 92.7693 30.264 93.0385 30.0369C93.3077 29.8099 93.4885 29.4948 93.5492 29.1471C93.5647 28.9474 93.5647 28.7468 93.5492 28.5471V16.7484H97.6432L97.7105 28.187ZM115.424 32.575H109.701L105.861 19.9137H105.794L106.011 32.5825H102.021V16.7559H107.998L111.547 28.9221H111.629L111.42 16.7559H115.431L115.424 32.575Z" fill="#034EA2"/>
</g>
<defs>
<clipPath id="clip0">
<rect width="150" height="50" fill="white"/>
</clipPath>
</defs>
</svg>
