<svg width="107" height="107" viewBox="0 0 107 107" fill="none" xmlns="http://www.w3.org/2000/svg">
<path d="M24.9179 33.8828H14.2388C13.2557 33.8828 12.459 34.6811 12.459 35.6661C12.459 36.651 13.2557 37.4493 14.2388 37.4493H24.9179C25.9009 37.4493 26.6977 36.651 26.6977 35.6661C26.6977 34.6811 25.9009 33.8828 24.9179 33.8828Z" fill="white"/>
<path d="M24.9179 41.0176H14.2388C13.2557 41.0176 12.459 41.8159 12.459 42.8008C12.459 43.7858 13.2557 44.5841 14.2388 44.5841H24.9179C25.9009 44.5841 26.6977 43.7856 26.6977 42.8008C26.6977 41.8161 25.9009 41.0176 24.9179 41.0176Z" fill="white"/>
<path d="M19.5783 51.7168C15.6465 51.7168 12.459 54.9105 12.459 58.8501C12.459 62.7896 15.6465 65.9833 19.5783 65.9833C23.5083 65.9787 26.6933 62.7878 26.6977 58.8501C26.6977 54.9105 23.5102 51.7168 19.5783 51.7168ZM19.5783 62.4168C17.6131 62.4149 16.0206 60.8191 16.0186 58.8501C16.0186 56.8802 17.6123 55.2833 19.5783 55.2833C21.5444 55.2833 23.1381 56.8802 23.1381 58.8501C23.1379 60.82 21.5442 62.4168 19.5783 62.4168Z" fill="white"/>
<path d="M21.3583 17.834H8.89942C7.91639 17.834 7.11963 18.6325 7.11963 19.6172C7.11963 20.6022 7.91639 21.4005 8.89942 21.4005H21.3583C22.3414 21.4005 23.1381 20.602 23.1381 19.6172C23.1381 18.6325 22.3414 17.834 21.3583 17.834Z" fill="white"/>
<path d="M101.452 76.6833C104.399 76.6801 106.788 74.2866 106.791 71.3333V14.2667C106.788 11.3134 104.399 8.91987 101.452 8.91674H76.5338V5.35C76.5307 2.39663 74.1418 0.00313477 71.1942 0H35.5972C32.6496 0.00313477 30.2608 2.39663 30.2576 5.35V8.91674H5.33957C2.39196 8.91987 0.00312866 11.3134 0 14.2667V71.3335C0.00312866 74.2868 2.39196 76.6803 5.33957 76.6835H17.7985V96.3H14.2389C12.2737 96.3019 10.6812 97.8977 10.6791 99.8667H1.77979C0.796764 99.8667 0 100.665 0 101.65C0 102.635 0.796764 103.433 1.77979 103.433H10.6791C10.681 105.402 12.2737 106.998 14.2389 107H24.9181C26.8833 106.998 28.4758 105.402 28.4779 103.433H44.4966C44.4984 105.402 46.0911 106.998 48.0564 107H58.7355C60.7007 106.998 62.2932 105.402 62.2953 103.433H78.314C78.3159 105.402 79.9086 106.998 81.8738 107H92.5529C94.5181 106.998 96.1106 105.402 96.1127 103.433H105.012C105.995 103.433 106.792 102.635 106.792 101.65C106.792 100.665 105.995 99.8667 105.012 99.8667H96.1123C96.1104 97.8977 94.5177 96.3021 92.5525 96.3H88.9927V76.6833H101.452ZM76.5338 21.4H88.9927C89.9757 21.4 90.7725 20.6015 90.7725 19.6167C90.7725 18.6318 89.9757 17.8335 88.9927 17.8335H76.5338V12.4835H101.452C102.434 12.4847 103.23 13.2824 103.232 14.2667V26.75H76.5338V21.4ZM33.8172 5.35C33.8185 4.36568 34.6146 3.56799 35.597 3.56674H71.1942C72.1766 3.56799 72.9728 4.36568 72.974 5.35V21.4H33.8172V5.35ZM33.8172 24.9667H72.974V80.25C72.9728 81.2343 72.1766 82.032 71.1942 82.0333H35.5972C34.6148 82.032 33.8187 81.2343 33.8174 80.25V24.9667H33.8172ZM3.55978 14.2667C3.56104 13.2824 4.35717 12.4847 5.33957 12.4835H30.2576V17.8335H28.4779C27.4948 17.8335 26.6981 18.632 26.6981 19.6167C26.6981 20.6017 27.4948 21.4 28.4779 21.4H30.2576V26.75H3.55978V14.2667ZM5.33957 73.1167C4.35717 73.1155 3.56104 72.3178 3.55978 71.3335V30.3167H30.2576V73.1167H5.33957ZM14.2389 103.433V99.8665H24.9181L24.9193 101.644L24.9181 101.65L24.9193 101.656L24.9206 103.433H14.2389ZM44.4964 99.8667H28.4776C28.4758 97.8977 26.8831 96.3021 24.9179 96.3H21.3583V76.6833H30.2576V80.25C30.2608 83.2034 32.6496 85.5969 35.5972 85.6H51.6159V96.3H48.0561C46.0909 96.3019 44.4984 97.8977 44.4964 99.8667ZM48.0561 103.433V99.8665H58.7353L58.7365 101.644L58.7353 101.65L58.7365 101.656L58.7378 103.433H48.0561ZM78.3138 99.8667H62.2951C62.2932 97.8977 60.7005 96.3021 58.7353 96.3H55.1755V85.6H71.1942C74.1418 85.5969 76.5307 83.2034 76.5338 80.25V76.6833H85.4332V96.3H81.8734C79.9084 96.3019 78.3157 97.8977 78.3138 99.8667ZM92.5525 99.8667L92.5538 101.644L92.5525 101.65L92.5538 101.657L92.555 103.433H81.8732V99.8667H92.5525ZM76.5338 73.1167V30.3167H103.232V71.3335C103.23 72.3178 102.434 73.1155 101.452 73.1167H76.5338Z" fill="white"/>
<path d="M92.5527 33.8828H81.8735C80.8905 33.8828 80.0938 34.6811 80.0938 35.6661C80.0938 36.651 80.8907 37.4493 81.8735 37.4493H92.5527C93.5357 37.4493 94.3325 36.651 94.3325 35.6661C94.3325 34.6811 93.5357 33.8828 92.5527 33.8828Z" fill="white"/>
<path d="M92.5527 41.0176H81.8735C80.8905 41.0176 80.0938 41.8159 80.0938 42.8008C80.0938 43.7858 80.8907 44.5841 81.8735 44.5841H92.5527C93.5357 44.5841 94.3325 43.7856 94.3325 42.8008C94.3325 41.8161 93.5357 41.0176 92.5527 41.0176Z" fill="white"/>
<path d="M87.2131 51.7168C83.2812 51.7168 80.0938 54.9105 80.0938 58.8501C80.0938 62.7896 83.2812 65.9833 87.2131 65.9833C91.145 65.9833 94.3325 62.7896 94.3325 58.8501C94.3281 54.9124 91.1433 51.7212 87.2131 51.7168ZM87.2131 62.4168C85.2471 62.4168 83.6533 60.82 83.6533 58.8501C83.6533 56.8802 85.2471 55.2833 87.2131 55.2833C89.1792 55.2833 90.7729 56.8802 90.7729 58.8501C90.771 60.8191 89.1783 62.4147 87.2131 62.4168Z" fill="white"/>
<path d="M53.3957 60.6328C49.4638 60.6328 46.2764 63.8265 46.2764 67.7661C46.2764 71.7056 49.4638 74.8993 53.3957 74.8993C57.3276 74.8993 60.5151 71.7056 60.5151 67.7661C60.5107 63.8284 57.3257 60.6374 53.3957 60.6328ZM53.3957 71.3328C51.4297 71.3328 49.8359 69.736 49.8359 67.7661C49.8359 65.7962 51.4297 64.1996 53.3957 64.1996C55.3618 64.1996 56.9555 65.7964 56.9555 67.7663C56.9534 69.7351 55.3609 71.3309 53.3957 71.3328Z" fill="white"/>
<path d="M97.8926 17.834H96.1128C95.1298 17.834 94.333 18.6325 94.333 19.6172C94.333 20.6022 95.13 21.4005 96.1128 21.4005H97.8926C98.8756 21.4005 99.6724 20.602 99.6724 19.6172C99.6726 18.6325 98.8756 17.834 97.8926 17.834Z" fill="white"/>
<path d="M58.7353 10.6992H39.1567C38.1737 10.6992 37.377 11.4975 37.377 12.4825C37.377 13.4674 38.1737 14.2657 39.1567 14.2657H58.7353C59.7183 14.2657 60.515 13.4674 60.515 12.4825C60.515 11.4975 59.7183 10.6992 58.7353 10.6992Z" fill="white"/>
<path d="M67.6343 10.6992H65.8545C64.8715 10.6992 64.0747 11.4975 64.0747 12.4825C64.0747 13.4674 64.8715 14.2657 65.8545 14.2657H67.6343C68.6173 14.2657 69.4141 13.4674 69.4141 12.4825C69.4141 11.4975 68.6171 10.6992 67.6343 10.6992Z" fill="white"/>
<path d="M44.4966 32.0997H62.2951C63.2781 32.0997 64.0749 31.3012 64.0749 30.3165C64.0749 29.3317 63.2781 28.5332 62.2951 28.5332H44.4966C43.5136 28.5332 42.7168 29.3315 42.7168 30.3165C42.7168 31.3014 43.5138 32.0997 44.4966 32.0997Z" fill="white"/>
<path d="M44.4966 39.2325H62.2951C63.2781 39.2325 64.0749 38.4342 64.0749 37.4493C64.0749 36.4643 63.2781 35.666 62.2951 35.666H44.4966C43.5136 35.666 42.7168 36.4643 42.7168 37.4493C42.7168 38.4342 43.5138 39.2325 44.4966 39.2325Z" fill="white"/>
<path d="M44.4966 46.3673H62.2951C63.2781 46.3673 64.0749 45.5688 64.0749 44.584C64.0749 43.5991 63.2781 42.8008 62.2951 42.8008H44.4966C43.5136 42.8008 42.7168 43.5993 42.7168 44.584C42.7168 45.5688 43.5138 46.3673 44.4966 46.3673Z" fill="white"/>
</svg>
