<svg width="96" height="96" viewBox="0 0 96 96" fill="none" xmlns="http://www.w3.org/2000/svg">
<path d="M93.7319 44.9183C92.2949 43.5926 90.3401 42.7737 88.3684 42.6712C86.1294 42.5555 84.0317 43.3538 82.4695 44.9168L71.7952 55.479C71.5842 55.1136 71.3433 54.7686 71.073 54.4485C69.7598 52.8892 67.8393 52.0308 65.6663 52.0308H50.7234C47.9057 52.0308 45.157 51.6653 42.5539 50.9454C35.7673 49.0682 29.2839 50.4393 23.8032 54.9129C21.5744 56.7322 19.9485 58.7112 18.9201 60.1541L16.2409 57.554C15.8886 57.212 15.4111 57.0179 14.9196 57.0179C14.9153 57.0179 14.9116 57.0179 14.9072 57.0179C14.3982 57.0215 13.906 57.2332 13.5529 57.5994L0.528284 71.1207C0.179651 71.4825 -0.0100461 71.9688 0.000940222 72.4712C0.0119266 72.9744 0.222132 73.452 0.586146 73.7984L22.6152 94.7742C22.9807 95.1221 23.4494 95.2957 23.9175 95.2957C24.4089 95.2957 24.9004 95.1045 25.2702 94.7252L38.1733 81.4874C38.5256 81.1255 38.7212 80.6312 38.7117 80.1258C38.7021 79.6277 38.4934 79.1473 38.136 78.8001L37.0124 77.7103L39.584 77.4209C41.1396 77.24 42.7217 77.1485 44.2876 77.1485H67.0227C70.717 77.1485 73.8547 76.3406 76.3494 74.7469C76.3699 74.7337 76.3904 74.7198 76.4109 74.7059C77.3044 74.0848 78.1152 73.3487 78.8198 72.5188L94.1406 54.4947C96.7627 51.4104 96.5986 47.5616 93.7319 44.9183ZM23.8684 90.7525L4.56613 72.3731L14.9643 61.5779L34.1538 80.1998L23.8684 90.7525ZM91.2629 52.0484L75.9421 70.0733C75.4558 70.6453 74.8984 71.1536 74.2839 71.5843C72.4111 72.7701 69.9685 73.3721 67.0227 73.3721H44.2868C42.5766 73.3721 40.8474 73.4725 39.1548 73.6695L33.5019 74.3038L21.666 62.8179C22.4885 61.5984 24.001 59.6275 26.1916 57.8389C30.7458 54.1211 35.9123 53.0262 41.5469 54.5855C44.478 55.3963 47.5652 55.8079 50.7234 55.8079H65.6663C68.3499 55.8079 69.0662 58.1326 69.0662 59.5059C69.0662 60.5093 68.7439 61.4644 68.1821 62.1265C67.5727 62.8436 66.7063 63.2068 65.6069 63.2068H52.5991C51.5561 63.2068 50.7109 64.0528 50.7109 65.0957C50.7109 66.1387 51.5561 66.9839 52.5991 66.9839H65.6069C67.8027 66.9839 69.7393 66.127 71.0605 64.5713C72.1599 63.2779 72.7869 61.5772 72.8396 59.7593L85.1333 47.5945C86.8904 45.8374 89.6355 46.2784 91.1714 47.6949C91.9653 48.4273 93.0332 49.9661 91.2629 52.0484Z" fill="white"/>
<path d="M46.7097 64.5935C46.4717 63.5776 45.4558 62.9485 44.4399 63.1858C43.4248 63.4238 42.7942 64.4397 43.0329 65.4556L43.0505 65.5325C43.2549 66.4026 44.0305 66.99 44.8874 66.99C45.0303 66.99 45.1753 66.9739 45.3203 66.9402C46.3362 66.7022 46.966 65.6856 46.728 64.6704L46.7097 64.5935Z" fill="white"/>
<path d="M12.7649 40.5938H31.1663C32.1682 40.5938 33.0955 40.2686 33.8499 39.7193C34.6043 40.2686 35.5315 40.5938 36.5335 40.5938H54.9356C55.9375 40.5938 56.8648 40.2686 57.6192 39.7193C58.3736 40.2686 59.3008 40.5938 60.3027 40.5938H78.7041C81.2251 40.5938 83.2759 38.5423 83.2759 36.0213V27.4402C83.2759 23.5862 81.1189 20.2383 77.8904 18.5867C79.4549 16.7 80.3968 14.28 80.3968 11.6433C80.3968 5.63672 75.51 0.75 69.5034 0.75C63.4968 0.75 58.6101 5.63672 58.6101 11.6433C58.6101 14.28 59.552 16.7007 61.1165 18.5867C59.7212 19.3015 58.5266 20.3335 57.6192 21.5852C56.7117 20.3328 55.5171 19.3008 54.1211 18.5867C55.6856 16.7007 56.6275 14.28 56.6275 11.6433C56.6275 5.63672 51.7407 0.75 45.7341 0.75C39.7275 0.75 34.8408 5.63672 34.8408 11.6433C34.8408 14.28 35.7835 16.7007 37.3479 18.5874C35.9519 19.3015 34.7573 20.3335 33.8499 21.5859C32.9424 20.3335 31.7478 19.3015 30.3518 18.5867C31.9163 16.7007 32.8582 14.28 32.8582 11.644C32.8582 5.63672 27.9714 0.75 21.9648 0.75C15.959 0.75 11.0723 5.63672 11.0723 11.644C11.0723 14.28 12.0142 16.7007 13.5786 18.5874C10.3501 20.239 8.19238 23.5877 8.19238 27.4409V36.0213C8.19238 38.5423 10.2439 40.5938 12.7649 40.5938ZM69.5042 4.5271C73.4278 4.5271 76.6204 7.719 76.6204 11.6433C76.6204 15.5669 73.4278 18.7595 69.5042 18.7595C65.5799 18.7595 62.388 15.5676 62.388 11.6433C62.3872 7.719 65.5799 4.5271 69.5042 4.5271ZM64.5977 21.3648C66.0735 22.1126 67.7398 22.5366 69.5034 22.5366C71.2678 22.5366 72.9341 22.1126 74.4092 21.3648C77.344 21.876 79.4995 24.405 79.4995 27.4402V36.0213C79.4995 36.46 79.1428 36.8167 78.7041 36.8167H60.3027C59.8648 36.8167 59.5081 36.46 59.5081 36.0213V27.4402C59.5073 24.4058 61.6636 21.876 64.5977 21.3648ZM45.7349 4.5271C49.6585 4.5271 52.8511 7.719 52.8511 11.6433C52.8511 15.5669 49.6585 18.7595 45.7349 18.7595C41.8106 18.7595 38.6187 15.5676 38.6187 11.6433C38.6187 7.719 41.8106 4.5271 45.7349 4.5271ZM40.8291 21.3648C42.3042 22.1126 43.9705 22.5366 45.7349 22.5366C47.4993 22.5366 49.1648 22.1126 50.6406 21.3648C53.5747 21.876 55.731 24.405 55.731 27.4402V36.0213C55.731 36.46 55.3743 36.8167 54.9356 36.8167H36.5342C36.0955 36.8167 35.7388 36.46 35.7388 36.0213V27.4402C35.7388 24.4058 37.895 21.876 40.8291 21.3648ZM21.9656 4.5271C25.8892 4.5271 29.0818 7.719 29.0818 11.6433C29.0818 15.5669 25.8892 18.7595 21.9656 18.7595C18.042 18.7595 14.8494 15.5669 14.8494 11.6433C14.8494 7.719 18.042 4.5271 21.9656 4.5271ZM11.9695 27.4402C11.9695 24.4058 14.1257 21.876 17.0598 21.3648C18.5356 22.1126 20.2012 22.5366 21.9656 22.5366C23.73 22.5366 25.3955 22.1126 26.8713 21.3648C29.8062 21.876 31.9617 24.405 31.9617 27.4402V36.0213C31.9617 36.46 31.605 36.8167 31.1663 36.8167H12.7649C12.3262 36.8167 11.9695 36.46 11.9695 36.0213V27.4402Z" fill="white"/>
</svg>
