<svg width="89" height="96" viewBox="0 0 89 96" fill="none" xmlns="http://www.w3.org/2000/svg">
<g clip-path="url(#clip0)">
<path d="M84.7516 23.9223H83.773C83.1945 21.9021 82.3864 19.9637 81.3592 18.1312L82.0547 17.4393C82.8506 16.6483 83.2886 15.5932 83.2886 14.4684C83.2886 13.3437 82.8506 12.2888 82.0542 11.4968L77.4195 6.89364C76.6236 6.09734 75.5613 5.65898 74.4281 5.65898C73.2951 5.65898 72.2325 6.09734 71.4406 6.8897L70.7458 7.58062C68.9015 6.55596 66.9515 5.75085 64.9212 5.17581V4.20289C64.9213 1.88545 63.0254 0 60.6947 0H54.1421C51.8115 0 49.9154 1.88545 49.9154 4.20289V5.17581C47.8854 5.75067 45.9343 6.55596 44.0863 7.58137L43.3946 6.89364C42.5984 6.09734 41.5361 5.65898 40.403 5.65917C39.27 5.65917 38.2077 6.09772 37.4158 6.88989L32.782 11.4978C31.9861 12.2888 31.5481 13.3438 31.5481 14.4686C31.5481 15.5934 31.9861 16.6483 32.7818 17.4393L33.4772 18.131C32.4456 19.9692 31.6371 21.9079 31.0618 23.9223H30.0797C27.7491 23.9223 25.853 25.8078 25.853 28.1252V34.6467C25.853 36.9641 27.7491 38.8496 30.0797 38.8496H31.0618C31.6371 40.8638 32.4456 42.8025 33.4772 44.6409L32.7818 45.3326C31.986 46.1236 31.5479 47.1787 31.5479 48.3035C31.5479 49.4281 31.986 50.4831 32.7817 51.2741L37.4118 55.8783C38.2077 56.6746 39.2698 57.1129 40.4028 57.1129H40.403C41.5361 57.1129 42.5986 56.6746 43.3907 55.8822L44.0861 55.1905C45.936 56.2169 47.8871 57.0211 49.9152 57.5929V58.5692C49.9152 60.8866 51.8113 62.7721 54.1419 62.7721H60.6945C63.0251 62.7721 64.9212 60.8866 64.9212 58.5692V57.5929C66.9498 57.0209 68.8995 56.2171 70.7458 55.1913L71.4367 55.8783C72.2325 56.6746 73.2949 57.1129 74.4279 57.1129C75.5611 57.1129 76.6236 56.6744 77.4148 55.8829L82.0547 51.2741C82.8504 50.4829 83.2884 49.4279 83.2884 48.3033C83.2884 47.1785 82.8504 46.1236 82.0547 45.3326L81.359 44.6407C82.3862 42.8082 83.1942 40.8698 83.7728 38.8496H84.7514C87.082 38.8496 88.9781 36.9641 88.9781 34.6467V28.1252C88.9783 25.8078 87.0824 23.9223 84.7516 23.9223ZM61.1503 58.569C61.1503 58.8146 60.9417 59.022 60.6947 59.022H54.1421C53.8951 59.022 53.6865 58.8146 53.6865 58.569V56.1348V44.3145C53.6865 43.5304 53.1959 42.8292 52.4568 42.5565C47.3899 40.688 43.9858 35.839 43.9858 30.4905C43.9858 26.2518 46.1083 22.2784 49.6626 19.8625C49.8221 19.7541 49.9631 19.6656 50.0864 19.5931C50.0797 19.8368 50.0623 20.0686 50.0531 20.1895C50.0389 20.3798 50.0276 20.53 50.0276 20.679V29.5282C50.0276 33.59 53.2193 36.9821 57.2934 37.2508C57.3765 37.2562 57.4599 37.2562 57.543 37.2508C61.6143 36.9823 64.8035 33.5901 64.8035 29.5282V20.679C64.8035 20.5307 64.7924 20.3815 64.7784 20.1923C64.7694 20.0708 64.752 19.8377 64.7454 19.5929C64.8684 19.6653 65.0086 19.7536 65.1676 19.8617C68.7228 22.2782 70.8454 26.2516 70.8454 30.4903C70.8454 35.8382 67.4431 40.6874 62.3793 42.5565C61.6403 42.8293 61.1499 43.5304 61.1499 44.3143V56.1346V58.569H61.1503ZM85.2072 34.6467C85.2072 34.888 84.9943 35.0997 84.7516 35.0997H82.3091C81.4282 35.0997 80.6645 35.7062 80.4701 36.5606C79.873 39.1843 78.8387 41.6652 77.3961 43.9344C76.9251 44.6754 77.0333 45.6422 77.6567 46.262L79.3886 47.9842C79.5009 48.0959 79.5177 48.232 79.5177 48.3033C79.5177 48.3743 79.5009 48.5106 79.3891 48.6216L74.7452 53.2344C74.6391 53.3405 74.5141 53.3628 74.4281 53.3628C74.3423 53.3628 74.2175 53.3405 74.1073 53.2303L72.3755 51.5081C71.7512 50.8875 70.778 50.7806 70.0329 51.2501C68.4234 52.2643 66.7102 53.069 64.9213 53.6638V45.5615C70.7711 42.8545 74.6168 36.9553 74.6168 30.4901C74.6168 25.0121 71.88 19.8814 67.2962 16.7658C66.594 16.2886 64.4586 14.8369 62.591 15.9058C60.7571 16.9558 60.9398 19.417 61.0177 20.4681C61.0245 20.5594 61.0311 20.6361 61.0326 20.679V29.5282C61.0326 31.5806 59.4552 33.3012 57.4184 33.499C55.3788 33.301 53.7989 31.5804 53.7989 29.5282L53.7987 20.6925C53.8004 20.6361 53.8072 20.5594 53.814 20.4677C53.8926 19.4172 54.0768 16.9573 52.2444 15.9067C50.3776 14.8359 48.239 16.2883 47.5355 16.7658C42.9513 19.8816 40.2147 25.0122 40.2147 30.4903C40.2147 36.9564 44.0625 42.856 49.9154 45.5623V53.6639C48.1262 53.0692 46.4109 52.2641 44.7967 51.2494C44.4864 51.0544 44.1372 50.9593 43.7897 50.9593C43.3026 50.9593 42.8195 51.1466 42.4558 51.5085L40.7204 53.2344C40.6142 53.3407 40.4892 53.363 40.4032 53.363C40.3172 53.363 40.1926 53.3407 40.0825 53.2306L35.4486 48.6226C35.336 48.5108 35.3192 48.3745 35.3192 48.3035C35.3192 48.2322 35.336 48.0961 35.4486 47.9842L37.1803 46.262C37.8036 45.6422 37.9118 44.6754 37.4408 43.9344C35.9909 41.6532 34.9568 39.1734 34.3676 36.5638C34.1745 35.7079 33.4101 35.0995 32.5279 35.0995H30.08C29.8374 35.0995 29.6245 34.8878 29.6245 34.6465V28.125C29.6245 27.8794 29.833 27.672 30.08 27.672H32.5279C33.4101 27.672 34.1743 27.0636 34.3676 26.2077C34.9568 23.5982 35.9907 21.1182 37.4408 18.8371C37.9118 18.0961 37.8036 17.1294 37.1803 16.5095L35.4484 14.7874C35.336 14.6756 35.3192 14.5395 35.3192 14.4683C35.3192 14.397 35.336 14.2609 35.4486 14.149L40.0864 9.53695C40.1926 9.43082 40.3174 9.40851 40.4034 9.40851C40.4894 9.40851 40.6142 9.43082 40.7243 9.54088L42.456 11.263C43.0798 11.8831 44.0519 11.9905 44.7969 11.5221C47.088 10.0818 49.5847 9.05152 52.2167 8.46035C53.0765 8.26723 53.6869 7.50768 53.6869 6.63152V4.20289C53.6869 3.95727 53.8954 3.7499 54.1424 3.7499H60.6951C60.9421 3.7499 61.1506 3.95727 61.1506 4.20289V6.63189C61.1506 7.50825 61.761 8.2676 62.6206 8.46072C65.2551 9.05246 67.7489 10.0822 70.0332 11.5216C70.7786 11.9911 71.7515 11.8842 72.3759 11.2636L74.1115 9.53751C74.2177 9.43139 74.3427 9.40907 74.4285 9.40907C74.5144 9.40907 74.6393 9.43139 74.7501 9.5422L79.389 14.1495C79.5013 14.2613 79.5181 14.3974 79.5181 14.4686C79.5181 14.5399 79.5013 14.676 79.3888 14.7879L77.6571 16.5101C77.0337 17.1299 76.9255 18.0967 77.3965 18.8376C78.8389 21.1069 79.8733 23.5877 80.4705 26.2115C80.6649 27.0659 81.4285 27.6724 82.3095 27.6724H84.752C84.999 27.6724 85.2076 27.8798 85.2076 28.1254V34.6467H85.2072Z" fill="white"/>
<path d="M68.4048 82.558C67.6685 83.2902 67.6685 84.4775 68.4048 85.2098C68.773 85.5758 69.2556 85.759 69.7381 85.759C70.2206 85.759 70.7031 85.5758 71.0714 85.2098L71.0767 85.2046C71.813 84.4724 71.8104 83.2878 71.0738 82.5556C70.3373 81.8234 69.1411 81.8262 68.4048 82.558Z" fill="white"/>
<path d="M77.1395 64.3953L62.17 72.0397C60.901 70.7328 59.123 69.9176 57.1561 69.9176H46.8995C46.3252 69.9176 46.1849 69.8722 46.1755 69.869C46.0923 69.8255 45.8295 69.5799 45.6185 69.3827L45.525 69.2953C37.2271 61.5279 30.2175 62.0201 22.2464 65.1483C20.9567 65.6545 20.9318 65.6556 19.6366 65.7106L17.3174 65.7123C16.6567 63.7302 14.7764 62.2959 12.5645 62.2959H5.02308C2.26509 62.2959 0.0214844 64.5295 0.0214844 67.2748V86.956C0.0214844 89.6983 2.26509 91.9295 5.02308 91.9295H12.5645C14.7763 91.9295 16.6563 90.4969 17.3172 88.5173H21.5597C21.9343 88.5173 21.9343 88.5173 22.3701 88.6394C22.5285 88.6838 22.7212 88.7378 22.9701 88.8044L42.4843 93.9957C43.3445 94.2267 44.1334 94.4542 44.8965 94.6739C47.3968 95.3943 49.4984 95.9999 51.6888 95.9999C54.1645 95.9999 56.7532 95.2263 60.1579 92.9699C60.1743 92.9591 60.1907 92.9478 60.207 92.9364L63.9324 90.2948C64.7803 89.6935 64.9776 88.5227 64.3729 87.6796C63.7682 86.8362 62.5905 86.6403 61.7431 87.2416L58.0424 89.8656C53.1015 93.1334 51.0034 92.5293 45.946 91.0721C45.1669 90.8477 44.3614 90.6156 43.4637 90.3744L23.9479 85.1829C23.7194 85.1218 23.5401 85.0715 23.393 85.0303C22.681 84.8308 22.4148 84.7678 21.5599 84.7678H17.5716V69.4637H19.6093C19.6364 69.4637 19.6632 69.4631 19.6904 69.462L19.7978 69.4575C21.3785 69.3903 21.8207 69.3474 23.6312 68.6366C30.632 65.8894 36.036 65.563 42.9427 72.0284L43.0361 72.1156C44.2164 73.2186 44.8961 73.6679 46.8997 73.6679H57.1563C58.3601 73.6679 59.4098 74.3324 59.9569 75.3113C59.9628 75.3221 59.9696 75.3324 59.9756 75.3433C60.22 75.7927 60.3591 76.3069 60.3591 76.8528C60.3591 78.6061 58.9225 80.0324 57.1565 80.0324H40.5341C39.4929 80.0324 38.6486 80.8718 38.6486 81.9073C38.6486 82.9429 39.4929 83.7823 40.5341 83.7823H57.1565C61.0019 83.7823 64.1302 80.6738 64.1302 76.8528C64.1302 76.3335 64.0706 75.828 63.9613 75.3411L78.8624 67.7316C80.2727 67.0116 82.2013 67.0888 83.1588 68.6338C84.0057 69.9956 83.5398 71.8057 82.0757 72.8436L75.5391 77.4729C74.6908 78.0736 74.4928 79.2443 75.0969 80.0879C75.4648 80.6014 76.0452 80.8754 76.6344 80.8754C77.0128 80.8754 77.3948 80.7623 77.7265 80.5276L84.2639 75.8977C87.3686 73.6967 88.2722 69.726 86.3674 66.664C84.4943 63.6412 80.5275 62.6658 77.1395 64.3953ZM13.8003 86.956C13.8003 87.6194 13.2344 88.1796 12.5645 88.1796H5.02308C4.35598 88.1796 3.79258 87.6192 3.79258 86.956V67.275C3.79258 66.5974 4.34466 66.046 5.02308 66.046H12.5645C13.2344 66.046 13.8003 66.6087 13.8003 67.275V86.956Z" fill="white"/>
</g>
<defs>
<clipPath id="clip0">
<rect width="89" height="96" fill="white"/>
</clipPath>
</defs>
</svg>
