<svg width="264" height="164" viewBox="0 0 264 164" fill="none" xmlns="http://www.w3.org/2000/svg">
<mask id="path-1-inside-1" fill="white">
<path fill-rule="evenodd" clip-rule="evenodd" d="M199.482 163.799L197.475 160.881L193.73 159.165L189.373 160.342L188.491 153.476L188.834 149.013L182.274 144.476L179.655 144.942L177.843 142.956L169.007 141.509L158.163 134.005L145.777 128.439L134.982 120.591L124.089 113.627L118.484 111.126L114.787 104.309L113.686 99.9929L110.357 97.6143L107.517 87.977L100.443 82.8274L96.7226 82.2389L94.2992 83.9309L84.7772 79.0019L72.6605 72.6262L71.559 68.8498L61.939 63.0626L50.8749 57.5206L42.0627 56.7359L45.2204 61.1498L43.9965 61.9591L39.9086 59.7521L35.8942 62.1062L33.3485 66.0052L28.257 66.4957L24.5853 73.9994L25.7602 80.1545L28.4773 82.8764L27.1555 85.9908L20.5953 84.9608L13.5211 85.5494L0.425293 8.42727L42.9684 0.334961L68.6461 18.5549L79.0248 22.3803L92.806 30.816L117.26 28.1185H143.99L152.117 34.2491L156.351 44.3277L161.835 42.6602L162.3 65.6619L174.074 67.0842L180.854 86.0643L184.795 86.4322L192.188 82.386L196.936 81.5032L202.273 82.2879L209.543 85.8927L211.55 87.3395L218.306 80.8901L221.708 74.6125L223.544 72.4791L225.967 67.8199L232.209 60.3161L234.878 59.1881L238.207 55.0193L239.235 55.191L239.651 54.2346L240.263 55.2155L240.483 58.1336L232.577 70.5909L236.003 72.7488L243.518 75.0049L246.333 77.7513L249.638 78.9039L252.82 75.5443L253.236 71.351L254.925 71.6944L262.489 77.6778L263.321 80.5714L258.915 85.4022L253.628 85.108L245.819 86.3341L244.742 84.2742L240.679 80.1545L235.269 85.721L232.014 85.4022L227.607 88.8353L223.177 90.3066L222.981 94.8923L228.024 97.4181L227.901 100.115L222.663 102.372L214.707 104.137L216.862 106.025L217.645 108.061L211.525 110.194L211.06 113.971L208.368 114.657L201.098 113.505L197.45 116.496V121.94L202.052 128.586L205.283 126.796L209.224 126.698L210.032 129.934L208.441 133.122L210.326 138.247L213.557 139.645L213.998 143.569L212.529 145.31L209.151 153.5L208 162.77L207.168 161.764L203.913 161.396L201.22 163.922L199.482 163.799Z"/>
</mask>
<path fill-rule="evenodd" clip-rule="evenodd" d="M199.482 163.799L197.475 160.881L193.73 159.165L189.373 160.342L188.491 153.476L188.834 149.013L182.274 144.476L179.655 144.942L177.843 142.956L169.007 141.509L158.163 134.005L145.777 128.439L134.982 120.591L124.089 113.627L118.484 111.126L114.787 104.309L113.686 99.9929L110.357 97.6143L107.517 87.977L100.443 82.8274L96.7226 82.2389L94.2992 83.9309L84.7772 79.0019L72.6605 72.6262L71.559 68.8498L61.939 63.0626L50.8749 57.5206L42.0627 56.7359L45.2204 61.1498L43.9965 61.9591L39.9086 59.7521L35.8942 62.1062L33.3485 66.0052L28.257 66.4957L24.5853 73.9994L25.7602 80.1545L28.4773 82.8764L27.1555 85.9908L20.5953 84.9608L13.5211 85.5494L0.425293 8.42727L42.9684 0.334961L68.6461 18.5549L79.0248 22.3803L92.806 30.816L117.26 28.1185H143.99L152.117 34.2491L156.351 44.3277L161.835 42.6602L162.3 65.6619L174.074 67.0842L180.854 86.0643L184.795 86.4322L192.188 82.386L196.936 81.5032L202.273 82.2879L209.543 85.8927L211.55 87.3395L218.306 80.8901L221.708 74.6125L223.544 72.4791L225.967 67.8199L232.209 60.3161L234.878 59.1881L238.207 55.0193L239.235 55.191L239.651 54.2346L240.263 55.2155L240.483 58.1336L232.577 70.5909L236.003 72.7488L243.518 75.0049L246.333 77.7513L249.638 78.9039L252.82 75.5443L253.236 71.351L254.925 71.6944L262.489 77.6778L263.321 80.5714L258.915 85.4022L253.628 85.108L245.819 86.3341L244.742 84.2742L240.679 80.1545L235.269 85.721L232.014 85.4022L227.607 88.8353L223.177 90.3066L222.981 94.8923L228.024 97.4181L227.901 100.115L222.663 102.372L214.707 104.137L216.862 106.025L217.645 108.061L211.525 110.194L211.06 113.971L208.368 114.657L201.098 113.505L197.45 116.496V121.94L202.052 128.586L205.283 126.796L209.224 126.698L210.032 129.934L208.441 133.122L210.326 138.247L213.557 139.645L213.998 143.569L212.529 145.31L209.151 153.5L208 162.77L207.168 161.764L203.913 161.396L201.22 163.922L199.482 163.799Z" fill="white" stroke="white" mask="url(#path-1-inside-1)"/>
</svg>
