<svg width="138" height="107" viewBox="0 0 138 107" fill="none" xmlns="http://www.w3.org/2000/svg">
<mask id="path-1-inside-1" fill="white">
<path fill-rule="evenodd" clip-rule="evenodd" d="M0 55.5118L3.4759 53.1331L9.47306 51.2449L13.7323 53.3048L17.967 51.2449L20.8065 50.9261L19.0685 46.1934L23.8173 46.0217L25.5552 41.7549L28.3947 40.823L29.4962 42.7112H33.119V39.082L28.8598 37.0221L29.8144 31.9706L32.1644 31.5046L35.1752 26.1343L40.8296 23.4369V20.1264L38.3084 19.0229L42.1025 13.9468L47.3164 11.5927L54.0968 10.6363L54.7333 6.36947L57.5482 4.94718L58.8211 1.6367L62.7621 0.680336L65.6016 2.59306L69.2243 0.533203L72.5289 5.73189L76.4944 3.84369L80.1171 4.30961L83.1035 9.70447L87.3627 6.36947L92.087 4.94718L93.9963 7.32583H96.3462L103.445 9.99874L104.4 13.7997L103.298 18.0665L106.137 21.377V26.2814L109.907 30.4011L111.645 34.8151L115.904 40.823L119.209 43.1772L120.629 48.5475L126.161 49.9698L132.305 55.5118L132.77 58.5035L137.029 61.348L135.144 62.942L131.84 68.4595L123.321 69.563L119.698 66.2525L118.279 68.9254L118.597 72.8734L121.901 78.0966L121.412 82.6823L125.206 86.9491V91.0443L124.741 90.8972L117.789 92.7854L112.918 93.2758L110.544 99.4309L110.225 104.948L106.749 105.439L103.91 103.06L99.1857 104.482L96.3462 102.594L93.0416 102.741L89.8839 106.542L87.2158 105.586L86.5794 102.423L82.1488 101.957L76.9595 104.948L74.7564 104.017L69.8608 103.207L68.441 104.63L66.0667 104.801L63.3985 102.275L57.7196 104.482L57.0832 102.594L52.9953 100.682L43.6691 99.2592L39.5812 97.0522L37.5251 96.9051L34.2205 99.7497L29.0067 99.8968L17.5019 101.638L14.6624 103.06L9.47306 100.363L6.78046 100.682L6.92733 99.1121L3.62277 93.7418L2.37439 89.009L4.89564 84.8893L8.05333 83.7858V73.511L6.14403 71.7699L5.36073 67.8219L3.15769 64.3643L0.636433 56.7624L0 55.5118Z"/>
</mask>
<path fill-rule="evenodd" clip-rule="evenodd" d="M0 55.5118L3.4759 53.1331L9.47306 51.2449L13.7323 53.3048L17.967 51.2449L20.8065 50.9261L19.0685 46.1934L23.8173 46.0217L25.5552 41.7549L28.3947 40.823L29.4962 42.7112H33.119V39.082L28.8598 37.0221L29.8144 31.9706L32.1644 31.5046L35.1752 26.1343L40.8296 23.4369V20.1264L38.3084 19.0229L42.1025 13.9468L47.3164 11.5927L54.0968 10.6363L54.7333 6.36947L57.5482 4.94718L58.8211 1.6367L62.7621 0.680336L65.6016 2.59306L69.2243 0.533203L72.5289 5.73189L76.4944 3.84369L80.1171 4.30961L83.1035 9.70447L87.3627 6.36947L92.087 4.94718L93.9963 7.32583H96.3462L103.445 9.99874L104.4 13.7997L103.298 18.0665L106.137 21.377V26.2814L109.907 30.4011L111.645 34.8151L115.904 40.823L119.209 43.1772L120.629 48.5475L126.161 49.9698L132.305 55.5118L132.77 58.5035L137.029 61.348L135.144 62.942L131.84 68.4595L123.321 69.563L119.698 66.2525L118.279 68.9254L118.597 72.8734L121.901 78.0966L121.412 82.6823L125.206 86.9491V91.0443L124.741 90.8972L117.789 92.7854L112.918 93.2758L110.544 99.4309L110.225 104.948L106.749 105.439L103.91 103.06L99.1857 104.482L96.3462 102.594L93.0416 102.741L89.8839 106.542L87.2158 105.586L86.5794 102.423L82.1488 101.957L76.9595 104.948L74.7564 104.017L69.8608 103.207L68.441 104.63L66.0667 104.801L63.3985 102.275L57.7196 104.482L57.0832 102.594L52.9953 100.682L43.6691 99.2592L39.5812 97.0522L37.5251 96.9051L34.2205 99.7497L29.0067 99.8968L17.5019 101.638L14.6624 103.06L9.47306 100.363L6.78046 100.682L6.92733 99.1121L3.62277 93.7418L2.37439 89.009L4.89564 84.8893L8.05333 83.7858V73.511L6.14403 71.7699L5.36073 67.8219L3.15769 64.3643L0.636433 56.7624L0 55.5118Z" fill="white" stroke="white" mask="url(#path-1-inside-1)"/>
</svg>
