<svg width="88" height="74" viewBox="0 0 88 74" fill="none" xmlns="http://www.w3.org/2000/svg">
<path d="M61.7021 69.4688L57.0319 64.3925L62.2991 60.8279L62.617 60.6127L62.2916 60.4089L58.0387 57.7461L57.4872 56.7398L59.4725 55.203L59.6957 55.0302L59.4972 54.8295L56.8291 52.1323L55.4017 49.5389L55.3467 49.4389L55.2352 49.415L54.004 49.1507L53.7064 48.2563L53.6495 48.0853H53.4692H51.3396H51.2605L51.1959 48.1307L47.9609 50.4041L45.5673 50.8357L45.4678 50.8536L45.4087 50.9358L43.3717 53.7687L41.4588 54.5021L41.3889 54.5289L41.3453 54.5897L38.654 58.3355H37.2157H37.0876L37.0128 58.4394L35.6176 60.3766L35.5907 60.414L35.5788 60.4584L35.1198 62.1828L32.8695 63.1973L31.444 62.7213V59.8575L32.7518 58.3836L32.8695 58.2509L32.7832 58.096L30.7161 54.3867L34.5815 53.4583L35.0263 53.3514L34.6961 53.0347L30.1187 48.6452L30.0498 48.5792L29.9544 48.5758L25.1174 48.4063L18.3664 44.7479L16.4588 40.3663L18.4776 38.1811L18.5537 38.0987L18.5428 37.9871L18.1757 34.2352L18.1655 34.1313L18.0845 34.0655L11.5621 28.7657L11.4226 25.8305L12.5852 21.9726L12.6281 21.8301L12.5234 21.7244L8.90055 18.0706L8.84062 18.0102L8.75626 17.9988L2.9792 17.224L0.271279 14.9054L0.486062 12.8829L5.8889 10.7975L14.7457 15.7187L14.7952 15.7462L14.8517 15.7497L21.1645 16.1389L27.5072 19.3524L27.8126 19.5072L27.867 19.1691L28.9441 12.4746L28.9602 12.3743L28.9018 12.2911L26.454 8.80899L26.4257 8.76886L26.3845 8.74237L22.4504 6.21723L23.7187 1.49819L27.5931 1.88637L34.8409 7.86442L37.0209 11.8439L37.0838 11.9587L37.2141 11.9724L45.3898 12.8307L45.5702 12.8496L45.6442 12.6839L46.9561 9.74465L51.631 7.18577L51.6721 7.16329L51.7022 7.12747L57.0884 0.728864L59.9774 2.71154L64.8015 9.01825L64.9446 11.9566L64.947 12.0061L64.9681 12.051L67.2201 16.8328L67.2474 16.8908L67.2993 16.9285L72.7565 20.8957L73.3716 23.4787L73.392 23.5646L73.4619 23.6186L77.2071 26.5122L77.2788 26.5676L77.3693 26.5642L81.916 26.3946L85.7097 27.9861L86.946 29.9214L85.9594 29.7938L85.8615 29.7812L85.7814 29.8387L83.5868 31.4159L79.2268 31.7297L79.1459 31.7355L79.0838 31.7877L73.8944 36.1526L73.7964 36.2351L73.8061 36.3629L74.1488 40.8749L74.1484 40.875L74.1502 40.889L74.5774 44.0987L73.2674 45.8563L73.2263 45.9114L73.2192 45.9797L72.8765 49.2657L72.8684 49.3437L72.9063 49.4124L73.9033 51.2197V52.9891L72.5566 54.3382L72.4836 54.4114V54.5148V56.3627L70.0955 53.9704L69.9185 53.7931L69.7416 53.9704L68.126 55.5888L68.0895 55.6254L68.0705 55.6734L66.9445 58.518L66.9129 58.598L66.9371 58.6805L68.2168 63.0342L67.7156 65.4249L67.6941 65.5275L67.7522 65.6147L68.6875 67.0203L68.5462 72.6828L67.7215 73.1353L65.5726 72.7541L64.5783 71.0399L64.5424 70.9781L64.4793 70.9446L61.7021 69.4688Z" fill="white" stroke="white" stroke-width="0.5"/>
</svg>
