<svg width="236" height="148" viewBox="0 0 236 148" fill="none" xmlns="http://www.w3.org/2000/svg">
<mask id="path-1-inside-1" fill="white">
<path fill-rule="evenodd" clip-rule="evenodd" d="M177.136 146.87L176.279 144.565L172.411 141.696H169.229L167.002 143.584H164.676L162.277 141.794L158.361 140.739L156.892 141.132L155.864 139.096L156.011 136.693L154.64 132.721L155.766 130.146L153.025 125.217L148.765 123.402L141.593 122.765L134.984 113.618L128.669 112.171L125.217 112.907L124.116 112.048L123.137 106.997L119.343 106.31L112.562 103.564L109.943 105.378L107.544 105.501L98.2178 99.5912L93.0529 98.1199L87.0803 93.338L83.2862 93.5097L80.1774 92.0629L76.4567 93.1419L75.2573 96.7466L69.6763 95.5695L62.2594 96.8692L55.5034 102.681L52.7618 102.853L50.4364 105.869L49.0411 109.964L41.3305 110.43L38.2952 112.245L35.5047 104.569L33.9381 98.9291L34.2808 90.7142L33.7912 87.9186V83.2595L32.7876 79.6056L28.3081 77.3496L26.5212 74.2843L23.7796 73.7694L22.3599 72.7885L19.8631 73.4016L20.0345 75.5595L19.3736 74.4805L19.3001 72.1019L21.7969 70.0175L23.0943 71.17L25.1014 70.6551L27.9654 71.5133L29.3362 69.6742L26.8639 66.2411L24.9546 66.9768L24.1958 64.3038L25.028 60.8217L23.2656 59.0806L20.8912 60.7972L15.9221 59.9879L14.5269 61.6309L16.4606 63.7398L16.583 64.2793L12.128 60.0861L11.3937 57.6829L9.50884 55.2797L8.75002 47.2119L10.7082 44.0241L11.4181 38.7518L7.8688 33.0872L6.91415 30.1936L4.12364 28.0601L3.16899 25.8532L0.672203 23.1803L0.549805 22.322L10.4635 13.494L18.3455 10.723L28.8221 12.3415L40.1556 18.9134L50.7791 31.3461L57.7064 29.8748L60.1787 29.556L67.5712 28.9184L74.7678 30.0955L76.6281 25.6325L73.6662 22.6653L72.6137 17.1478L75.8937 10.4288L80.9118 9.96282L83.5554 5.79407L86.9334 3.88135L91.0458 6.11285L93.616 4.39631L91.0947 0.889648L97.6059 1.45367L108.474 6.92209L117.727 12.4886L118.853 16.2895L131.312 22.8615L141.373 28.0601L143.968 26.27L147.101 26.7115L153.685 31.5913L156.525 41.2285L159.83 43.5826L160.882 47.6778L164.799 54.8873L170.624 57.4867L181.444 64.4019L192.288 72.2735L204.674 77.8646L215.64 85.3929L224.354 86.8642L226.312 88.9976L229.054 88.5072L234.806 92.5043L234.513 96.5014L235.394 103.49L234.366 102.485L230.669 103.27L227.34 101.21L223.35 102.387L218.43 105.991H217.182L212.8 107.119L210.891 108.468L208.982 109.326L208.786 111.926L210.23 113.054V116.07L206.436 120.043V124.481L205.432 128.356L203.18 128.92L200.365 131.151L199.802 132.598L193.756 133.8L188.2 136.914L189.008 139.194L186.927 140.96L186.437 143.192L184.283 145.521L179.73 146.306L178.213 147.826L177.136 146.87Z"/>
</mask>
<path fill-rule="evenodd" clip-rule="evenodd" d="M177.136 146.87L176.279 144.565L172.411 141.696H169.229L167.002 143.584H164.676L162.277 141.794L158.361 140.739L156.892 141.132L155.864 139.096L156.011 136.693L154.64 132.721L155.766 130.146L153.025 125.217L148.765 123.402L141.593 122.765L134.984 113.618L128.669 112.171L125.217 112.907L124.116 112.048L123.137 106.997L119.343 106.31L112.562 103.564L109.943 105.378L107.544 105.501L98.2178 99.5912L93.0529 98.1199L87.0803 93.338L83.2862 93.5097L80.1774 92.0629L76.4567 93.1419L75.2573 96.7466L69.6763 95.5695L62.2594 96.8692L55.5034 102.681L52.7618 102.853L50.4364 105.869L49.0411 109.964L41.3305 110.43L38.2952 112.245L35.5047 104.569L33.9381 98.9291L34.2808 90.7142L33.7912 87.9186V83.2595L32.7876 79.6056L28.3081 77.3496L26.5212 74.2843L23.7796 73.7694L22.3599 72.7885L19.8631 73.4016L20.0345 75.5595L19.3736 74.4805L19.3001 72.1019L21.7969 70.0175L23.0943 71.17L25.1014 70.6551L27.9654 71.5133L29.3362 69.6742L26.8639 66.2411L24.9546 66.9768L24.1958 64.3038L25.028 60.8217L23.2656 59.0806L20.8912 60.7972L15.9221 59.9879L14.5269 61.6309L16.4606 63.7398L16.583 64.2793L12.128 60.0861L11.3937 57.6829L9.50884 55.2797L8.75002 47.2119L10.7082 44.0241L11.4181 38.7518L7.8688 33.0872L6.91415 30.1936L4.12364 28.0601L3.16899 25.8532L0.672203 23.1803L0.549805 22.322L10.4635 13.494L18.3455 10.723L28.8221 12.3415L40.1556 18.9134L50.7791 31.3461L57.7064 29.8748L60.1787 29.556L67.5712 28.9184L74.7678 30.0955L76.6281 25.6325L73.6662 22.6653L72.6137 17.1478L75.8937 10.4288L80.9118 9.96282L83.5554 5.79407L86.9334 3.88135L91.0458 6.11285L93.616 4.39631L91.0947 0.889648L97.6059 1.45367L108.474 6.92209L117.727 12.4886L118.853 16.2895L131.312 22.8615L141.373 28.0601L143.968 26.27L147.101 26.7115L153.685 31.5913L156.525 41.2285L159.83 43.5826L160.882 47.6778L164.799 54.8873L170.624 57.4867L181.444 64.4019L192.288 72.2735L204.674 77.8646L215.64 85.3929L224.354 86.8642L226.312 88.9976L229.054 88.5072L234.806 92.5043L234.513 96.5014L235.394 103.49L234.366 102.485L230.669 103.27L227.34 101.21L223.35 102.387L218.43 105.991H217.182L212.8 107.119L210.891 108.468L208.982 109.326L208.786 111.926L210.23 113.054V116.07L206.436 120.043V124.481L205.432 128.356L203.18 128.92L200.365 131.151L199.802 132.598L193.756 133.8L188.2 136.914L189.008 139.194L186.927 140.96L186.437 143.192L184.283 145.521L179.73 146.306L178.213 147.826L177.136 146.87Z" fill="white" stroke="white" mask="url(#path-1-inside-1)"/>
</svg>
