<svg width="108" height="87" viewBox="0 0 108 87" fill="none" xmlns="http://www.w3.org/2000/svg">
<path d="M21.2266 27.4671L18.9462 23.8934L24.2035 22.7205L24.2234 22.7161L24.2424 22.7084L30.9494 20.011L31.0988 19.9509L31.1058 19.7899L31.2772 15.8418L31.2842 15.68L31.1394 15.6075L26.2407 13.1537L26.351 10.1715L30.5263 8.63541L30.562 8.62228L30.5922 8.59913L34.3817 5.69181L37.6374 6.00127L37.7573 6.01266L37.841 5.92601L42.6821 0.910581L45.7549 3.98897L47.059 6.50503L47.1417 6.66453L47.3192 6.63704L55.6888 5.34148L60.387 5.62387L62.0204 10.6963L57.6237 21.5983L57.4886 21.9335L57.8499 21.9417L71.7934 22.2597L83.9514 25.8794L84.023 25.9007L84.0945 25.8793L94.4753 22.7668L101.256 32.0538L99.0324 34.6993L98.9187 34.8345L99.0082 34.9868L107.083 48.729L103.891 61.3995L88.5844 64.4518L73.5856 63.3786L68.1199 60.8233L68.0667 60.7985L68.0081 60.7999L65.1797 60.8673V58.7937V58.6419L65.045 58.5719L61.8064 56.8887L58.909 54.7666L58.843 54.7183H58.7613H54.3552H54.2036L54.1335 54.8527L52.4201 58.1387L52.4001 58.1769L52.3941 58.2195L51.7464 62.8334L49.9098 64.3903L49.882 64.4138L49.8621 64.4444L48.2465 66.9211L48.1901 67.0076L48.2111 67.1087L49.1441 71.5901L47.137 74.5253L44.6534 74.8715L44.2433 73.2495L44.1956 73.0608H44.0009H41.7978H41.6727L41.5977 73.161L40.1807 75.0538L36.6411 76.0122L36.4817 76.0553L36.4588 76.2188L36.0672 79.0143L36.0487 79.1463L36.1479 79.2352L37.6873 80.6139L37.7847 82.1363L33.2914 81.7762L31.768 79.6865L31.7412 79.6497L31.7032 79.6248L29.5002 78.178L29.3362 78.0703L29.1927 78.2039L27.1919 80.0651L25.3083 80.3717L25.2023 80.3889L25.1418 80.4778L23.3383 83.1277L20.0923 84.9927L14.9987 86.1187L12.9288 85.151L11.1178 82.7553L12.3254 72.8109L15.5774 64.9579L17.1923 63.0505L17.2612 62.969L17.2501 62.8629L16.736 57.9585L16.7208 57.8135L16.5872 57.7553L13.3073 56.3267L11.79 52.1875L13.2845 49.1694L13.3251 49.0874L13.3032 48.9986L12.2261 44.6336L12.1775 44.4367L11.9748 44.4437L7.0057 44.6153L6.94689 44.6173L6.89516 44.6454L4.42466 45.9851L0.679688 40.5451V36.0828L3.46312 33.8244L10.3789 34.8865L10.4295 34.8943L10.4792 34.8815L14.004 33.9742L14.168 33.932L14.1897 33.7641L14.6595 30.1156L21.0992 27.8373L21.3959 27.7324L21.2266 27.4671Z" fill="white" stroke="white" stroke-width="0.5"/>
</svg>
