<svg width="505" height="240" viewBox="0 0 505 240" fill="none" xmlns="http://www.w3.org/2000/svg">
<mask id="path-1-inside-1" fill="white">
<path fill-rule="evenodd" clip-rule="evenodd" d="M0.012207 85.7606L2.53346 79.7527L5.5443 78.1833L13.1081 78.5021L14.2095 76.9081L17.049 73.9164L22.2629 72.0037L22.4097 68.6932L23.6582 65.3827L27.7705 63.3229L27.9173 61.1159L30.61 58.4184L33.4494 57.8054L35.6525 54.642L37.0722 53.2197L35.3342 51.9446L35.1874 49.5905L36.2889 48.1682L41.6497 49.7376L43.8527 48.6341L45.5906 44.3673L48.1119 43.2638L53.9377 42.4791L57.0954 41.6944L59.788 41.5227L63.5576 41.8415L66.0788 40.2721L66.8867 40.4192L68.9183 43.1166L69.2366 45.0048L71.1459 47.0647L74.5973 46.7459L76.3352 46.2555L79.3461 46.4271L81.696 44.8332L86.9098 44.3673L88.0114 47.0647L88.6478 49.7376L89.5779 51.7975L97.4599 56.5302L100.618 58.9089L106.468 61.7534L108.671 60.4783L111.975 59.3748L115.451 56.7019L118.291 56.3831L121.449 57.1678L123.798 58.9089L126.491 58.1242L133.59 58.2713L136.258 59.5465L139.269 59.2277L140.052 58.4184L143.038 58.9089L148.57 58.2713L151.728 53.2197L149.99 51.3315L146.661 49.1V44.0485L147.616 38.6781L147.151 36.6183L143.993 35.5148L142.402 33.4794L137.531 32.2043L136.429 28.1091V20.0413L139.734 16.2404V13.8863L141.472 11.0417L144.14 10.0853L145.731 10.7229L146.979 8.02548L146.049 5.35257L146.514 2.65513L148.57 0.914062L151.728 1.08572L153.931 2.508L158.19 3.6115L162.596 5.81849L163.233 6.92198L167.003 8.19713L171.115 8.51592L176.941 8.34427L179.144 9.76655L180.735 11.3605L184.994 11.8264L187.197 12.9299L190.036 13.3958L196.988 13.077L199.51 14.2051L200.758 16.7308V18.9378L202.349 21.1448V23.5235L203.916 25.2645L205.654 28.8938L205.482 31.8855L207.538 33.6266H209.423L212.752 36.6183L213.682 38.3593L218.578 39.7816L223.621 42.4791H225.824L227.096 41.3756L231.992 41.6944L234.195 40.1004L236.716 40.2721L238.773 40.8851L240.829 40.2721L243.644 37.2558L248.393 35.6864L254.855 35.196L258.159 33.1607L262.419 32.989L266.531 31.8855L270.154 33.9454L275.025 34.4113L281.34 34.2641L284.645 38.9969L290.495 41.2039L295.219 41.0568L298.695 40.2721L300.262 41.8415L302 47.0647L305.304 49.2717L307.361 50.3752L309.417 50.8411L312.256 54.0045L314.777 54.1761L322.194 53.3669L328.656 55.2796L338.423 55.1079L342.683 54.642L344.274 53.2197H347.896L351.054 54.9608L352.939 54.642L355.46 50.694L361.604 47.2118H365.398L367.92 44.2201L370.759 43.9013H378.176L381.48 41.0568L382.435 37.7463V36.2995L384.467 33.1607L387.943 31.5667L390.317 29.0409L391.565 25.5588L394.087 23.2047H396.926L397.881 24.161L402.777 22.8859L405.91 23.2047L409.704 25.7305L411.589 28.575L414.11 29.5069L417.121 27.9374L418.859 29.2126L421.698 29.0409L425.468 27.0056V25.2645L431 24.3082L437.144 26.1964L438.882 28.1091L435.259 53.5385L436.042 59.056L434.623 63.8133L435.088 67.1238L432.885 74.2352L435.577 79.4339L443.288 83.2348L448.502 79.1151H455.111L462.21 80.3903L465.539 83.7007L469.48 77.5457L468.99 73.9164L469.308 70.9002L473.739 69.4779L475.477 68.0556L482.722 69.9684L486.981 75.167L492.979 80.5374L497.703 86.5453L503.7 90.8122L503.847 93.6567L504.949 95.8637V98.7083L503.7 100.621V102.975L502.28 104.888L499.906 104.397L498.339 102.828L494.864 103.294L492.979 104.569L488.401 102.509L485.562 103.147L482.551 107.242L478.145 110.871L475.624 112.465L472.637 110.405L471.365 110.724L471.218 113.716L469.945 115.629L467.742 115.923L466.004 115.629L464.755 117.517L461.891 121.931L461.108 126.835L461.426 130.317L459.688 132.353L456.237 133.309L448.82 138.213H445.026L440.938 137.429L439.029 138.851L436.042 145.325L433.056 147.532L429.262 150.205L427.059 152.583L426.104 155.281L424.538 155.6L421.062 154.006L417.121 153.049L412.078 151.308L408.137 148.488L404.025 148.317L397.734 149.739L393.94 152.583L391.565 155.894L391.419 163.177L391.737 166.635L391.419 169.013L398.836 173.746L405.445 177.866V179.926L403.878 183.064L401.675 186.228L394.576 194.296L390.317 201.235L387.943 206.606H385.275L380.061 208.347L376.12 208.518L371.714 211.51L367.283 214.821L362.706 214.992L355.925 215.777L351.348 217.346L345.987 218.769L334.335 222.888L325.181 226.052L320.603 231.25L313.504 236.939L310.518 239.318L306.724 239.465L301.853 238.043V236.326L301.217 233.776L294.265 235.836L288.61 236.621L282.76 233.629L278.036 233.163L267.632 229.215L257.376 224.458L251.844 219.087H247.609L235.762 217.665L225.824 217.984L223.302 217.346L221.589 218.474L220.634 220.363L215.102 222.422L207.392 223.207L193.831 221.932L183.892 222.57L176.329 222.104L169.842 222.888L166.537 223.207L163.698 222.251L160.075 215.139L158.655 211.657L155.179 206.458L152.34 203.148L150.455 198.391L150.308 196.355L147.934 193.83L145.413 192.873L143.846 192.554L143.038 190.813L142.72 187.822L141.619 187.331L140.052 187.822H135.475L131.534 185.443L125.536 181.176L123.48 180.71H122.06L119.074 180.22L117.826 178.332L112.612 175.021L101.572 172.495L100.471 172.814L99.051 174.065L94.6449 174.555H87.5463L71.4396 171.22L67.8169 169.16L64.1941 163.496L63.5576 160.97V158.42L64.6591 156.703L67.0335 154.962L67.9881 151.946L66.0788 149.739L65.2956 145.938L66.0788 143.903L65.932 140.102L64.5123 138.213L62.4561 134.731L60.1062 133.628L57.4136 131.421L56.4589 128.576L54.7454 126.198L53.7908 123.206L53.3257 120.68L51.5878 117.983L48.8952 115.923L46.5453 115.138L45.2724 113.25L42.6043 112.146L40.0585 112.294L38.4919 113.887L36.754 114.672L35.016 114.035L32.3479 111.19L31.5646 109.621H28.4069L25.2492 111.19L23.9764 112.612L23.3644 114.525L21.7733 114.672L18.6157 112.465L17.8323 110.087L17.6855 108.983L15.4824 106.138L12.1534 104.079L9.63212 101.234L7.74733 100.449L6.0094 98.8799L5.37294 96.8201L5.22608 94.7602L4.27139 93.0191L3.8063 93.1908L3.48814 94.1226L2.53346 94.4414L1.28505 92.4061L0.330436 91.4497V87.6488L0.012207 85.7606Z"/>
</mask>
<path fill-rule="evenodd" clip-rule="evenodd" d="M0.012207 85.7606L2.53346 79.7527L5.5443 78.1833L13.1081 78.5021L14.2095 76.9081L17.049 73.9164L22.2629 72.0037L22.4097 68.6932L23.6582 65.3827L27.7705 63.3229L27.9173 61.1159L30.61 58.4184L33.4494 57.8054L35.6525 54.642L37.0722 53.2197L35.3342 51.9446L35.1874 49.5905L36.2889 48.1682L41.6497 49.7376L43.8527 48.6341L45.5906 44.3673L48.1119 43.2638L53.9377 42.4791L57.0954 41.6944L59.788 41.5227L63.5576 41.8415L66.0788 40.2721L66.8867 40.4192L68.9183 43.1166L69.2366 45.0048L71.1459 47.0647L74.5973 46.7459L76.3352 46.2555L79.3461 46.4271L81.696 44.8332L86.9098 44.3673L88.0114 47.0647L88.6478 49.7376L89.5779 51.7975L97.4599 56.5302L100.618 58.9089L106.468 61.7534L108.671 60.4783L111.975 59.3748L115.451 56.7019L118.291 56.3831L121.449 57.1678L123.798 58.9089L126.491 58.1242L133.59 58.2713L136.258 59.5465L139.269 59.2277L140.052 58.4184L143.038 58.9089L148.57 58.2713L151.728 53.2197L149.99 51.3315L146.661 49.1V44.0485L147.616 38.6781L147.151 36.6183L143.993 35.5148L142.402 33.4794L137.531 32.2043L136.429 28.1091V20.0413L139.734 16.2404V13.8863L141.472 11.0417L144.14 10.0853L145.731 10.7229L146.979 8.02548L146.049 5.35257L146.514 2.65513L148.57 0.914062L151.728 1.08572L153.931 2.508L158.19 3.6115L162.596 5.81849L163.233 6.92198L167.003 8.19713L171.115 8.51592L176.941 8.34427L179.144 9.76655L180.735 11.3605L184.994 11.8264L187.197 12.9299L190.036 13.3958L196.988 13.077L199.51 14.2051L200.758 16.7308V18.9378L202.349 21.1448V23.5235L203.916 25.2645L205.654 28.8938L205.482 31.8855L207.538 33.6266H209.423L212.752 36.6183L213.682 38.3593L218.578 39.7816L223.621 42.4791H225.824L227.096 41.3756L231.992 41.6944L234.195 40.1004L236.716 40.2721L238.773 40.8851L240.829 40.2721L243.644 37.2558L248.393 35.6864L254.855 35.196L258.159 33.1607L262.419 32.989L266.531 31.8855L270.154 33.9454L275.025 34.4113L281.34 34.2641L284.645 38.9969L290.495 41.2039L295.219 41.0568L298.695 40.2721L300.262 41.8415L302 47.0647L305.304 49.2717L307.361 50.3752L309.417 50.8411L312.256 54.0045L314.777 54.1761L322.194 53.3669L328.656 55.2796L338.423 55.1079L342.683 54.642L344.274 53.2197H347.896L351.054 54.9608L352.939 54.642L355.46 50.694L361.604 47.2118H365.398L367.92 44.2201L370.759 43.9013H378.176L381.48 41.0568L382.435 37.7463V36.2995L384.467 33.1607L387.943 31.5667L390.317 29.0409L391.565 25.5588L394.087 23.2047H396.926L397.881 24.161L402.777 22.8859L405.91 23.2047L409.704 25.7305L411.589 28.575L414.11 29.5069L417.121 27.9374L418.859 29.2126L421.698 29.0409L425.468 27.0056V25.2645L431 24.3082L437.144 26.1964L438.882 28.1091L435.259 53.5385L436.042 59.056L434.623 63.8133L435.088 67.1238L432.885 74.2352L435.577 79.4339L443.288 83.2348L448.502 79.1151H455.111L462.21 80.3903L465.539 83.7007L469.48 77.5457L468.99 73.9164L469.308 70.9002L473.739 69.4779L475.477 68.0556L482.722 69.9684L486.981 75.167L492.979 80.5374L497.703 86.5453L503.7 90.8122L503.847 93.6567L504.949 95.8637V98.7083L503.7 100.621V102.975L502.28 104.888L499.906 104.397L498.339 102.828L494.864 103.294L492.979 104.569L488.401 102.509L485.562 103.147L482.551 107.242L478.145 110.871L475.624 112.465L472.637 110.405L471.365 110.724L471.218 113.716L469.945 115.629L467.742 115.923L466.004 115.629L464.755 117.517L461.891 121.931L461.108 126.835L461.426 130.317L459.688 132.353L456.237 133.309L448.82 138.213H445.026L440.938 137.429L439.029 138.851L436.042 145.325L433.056 147.532L429.262 150.205L427.059 152.583L426.104 155.281L424.538 155.6L421.062 154.006L417.121 153.049L412.078 151.308L408.137 148.488L404.025 148.317L397.734 149.739L393.94 152.583L391.565 155.894L391.419 163.177L391.737 166.635L391.419 169.013L398.836 173.746L405.445 177.866V179.926L403.878 183.064L401.675 186.228L394.576 194.296L390.317 201.235L387.943 206.606H385.275L380.061 208.347L376.12 208.518L371.714 211.51L367.283 214.821L362.706 214.992L355.925 215.777L351.348 217.346L345.987 218.769L334.335 222.888L325.181 226.052L320.603 231.25L313.504 236.939L310.518 239.318L306.724 239.465L301.853 238.043V236.326L301.217 233.776L294.265 235.836L288.61 236.621L282.76 233.629L278.036 233.163L267.632 229.215L257.376 224.458L251.844 219.087H247.609L235.762 217.665L225.824 217.984L223.302 217.346L221.589 218.474L220.634 220.363L215.102 222.422L207.392 223.207L193.831 221.932L183.892 222.57L176.329 222.104L169.842 222.888L166.537 223.207L163.698 222.251L160.075 215.139L158.655 211.657L155.179 206.458L152.34 203.148L150.455 198.391L150.308 196.355L147.934 193.83L145.413 192.873L143.846 192.554L143.038 190.813L142.72 187.822L141.619 187.331L140.052 187.822H135.475L131.534 185.443L125.536 181.176L123.48 180.71H122.06L119.074 180.22L117.826 178.332L112.612 175.021L101.572 172.495L100.471 172.814L99.051 174.065L94.6449 174.555H87.5463L71.4396 171.22L67.8169 169.16L64.1941 163.496L63.5576 160.97V158.42L64.6591 156.703L67.0335 154.962L67.9881 151.946L66.0788 149.739L65.2956 145.938L66.0788 143.903L65.932 140.102L64.5123 138.213L62.4561 134.731L60.1062 133.628L57.4136 131.421L56.4589 128.576L54.7454 126.198L53.7908 123.206L53.3257 120.68L51.5878 117.983L48.8952 115.923L46.5453 115.138L45.2724 113.25L42.6043 112.146L40.0585 112.294L38.4919 113.887L36.754 114.672L35.016 114.035L32.3479 111.19L31.5646 109.621H28.4069L25.2492 111.19L23.9764 112.612L23.3644 114.525L21.7733 114.672L18.6157 112.465L17.8323 110.087L17.6855 108.983L15.4824 106.138L12.1534 104.079L9.63212 101.234L7.74733 100.449L6.0094 98.8799L5.37294 96.8201L5.22608 94.7602L4.27139 93.0191L3.8063 93.1908L3.48814 94.1226L2.53346 94.4414L1.28505 92.4061L0.330436 91.4497V87.6488L0.012207 85.7606Z" fill="white" stroke="white" mask="url(#path-1-inside-1)"/>
</svg>
