<svg width="174" height="55" viewBox="0 0 174 55" fill="none" xmlns="http://www.w3.org/2000/svg">
<g clip-path="url(#clip0)">
<path d="M171.023 11.5844C169.274 11.5844 168.029 10.2796 168.029 8.55635C168.029 6.73127 169.41 5.52832 171.023 5.52832C172.636 5.52832 174.001 6.73678 174.001 8.55635C174.001 10.3759 172.62 11.5844 171.023 11.5844ZM171.023 6.04584C169.706 6.04584 168.676 7.07537 168.676 8.55222C168.676 9.9286 169.57 11.0572 171.023 11.0572C172.325 11.0572 173.35 10.036 173.35 8.55222C173.35 7.06849 172.324 6.04721 171.023 6.04721V6.04584ZM170.421 10.2865H169.869V6.93085H171.146C171.959 6.93085 172.375 7.21438 172.375 7.89431C172.375 8.50267 172.001 8.75455 171.495 8.81098L172.44 10.2865H171.813L170.942 8.85227H170.421V10.2865ZM171.038 8.38155C171.453 8.38155 171.82 8.34163 171.82 7.8544C171.82 7.44974 171.421 7.40019 171.088 7.40019H170.421V8.38155H171.038Z" fill="#231F20"/>
<path d="M39.0699 5.95605L30.5508 36.9837H25.6001L19.5791 14.4524L13.4698 36.9837H8.5191L0 5.95605H4.90652L10.9717 28.4915L17.081 5.95605H21.942L28.0982 28.4915L34.1634 5.95605H39.0699Z" fill="#231F20"/>
<path d="M41.3398 6.04546L46.2464 5.64355V13.2467L46.1566 16.0916H46.3361C48.6106 15.2465 50.4389 14.8529 52.6692 14.8529C56.6394 14.8529 59.3143 16.6312 59.3143 23.4318V36.9836H54.4092V23.8255C54.4092 19.7363 52.4027 19.2036 50.1282 19.2036C48.7003 19.2036 47.4961 19.5147 46.2478 19.8712V36.9836H41.3398V6.04546Z" fill="#231F20"/>
<path d="M66.0465 6.35645C68.5888 6.35645 68.9907 7.82366 68.9907 9.46843C68.9907 11.1132 68.4549 12.6245 66.0465 12.6245C63.6381 12.6245 63.1465 11.1104 63.1465 9.46843C63.1465 7.82642 63.5939 6.35645 66.0465 6.35645ZM63.5939 15.1584H68.4949V36.9836H63.5939V15.1584Z" fill="#231F20"/>
<path d="M72.6465 15.1583H75.9912L76.6609 16.9297H76.973C78.2656 15.819 80.3177 14.8404 82.994 14.8404C83.3361 14.8338 83.6783 14.8485 84.0186 14.8844V19.6852C83.1058 19.5291 82.1827 19.4403 81.2567 19.4196C79.9186 19.4196 78.8483 19.7307 77.5544 20.3087V36.9835H72.6465V15.1583Z" fill="#231F20"/>
<path d="M86.1152 36.9836V6.04546L91.0218 5.64355V36.9836H86.1152Z" fill="#231F20"/>
<path d="M125.895 14.8457C132.852 14.8457 135.53 18.9349 135.53 26.1802C135.53 32.9808 133.032 37.4279 125.807 37.4279C118.581 37.4279 116.039 32.9822 116.039 26.1802C116.039 18.9363 118.938 14.8457 125.895 14.8457ZM130.534 26.1802C130.534 22.051 129.864 18.6693 125.939 18.6693C121.97 18.6693 120.988 21.9134 120.988 26.1802C120.988 30.1359 121.791 33.5603 125.717 33.5603C129.643 33.5603 130.535 30.3148 130.535 26.1815L130.534 26.1802Z" fill="#231F20"/>
<path d="M147.899 14.8457C154.856 14.8457 157.534 18.9349 157.534 26.1802C157.534 32.9808 155.036 37.4279 147.81 37.4279C140.585 37.4279 138.043 32.9822 138.043 26.1802C138.035 18.9363 140.935 14.8457 147.899 14.8457ZM152.537 26.1802C152.537 22.051 151.868 18.6693 147.943 18.6693C143.974 18.6693 142.992 21.9134 142.992 26.1802C142.992 30.1359 143.795 33.5603 147.721 33.5603C151.647 33.5603 152.531 30.3148 152.531 26.1815L152.537 26.1802Z" fill="#231F20"/>
<path d="M160.705 36.9836V6.04546L165.61 5.64355V36.9836H160.705Z" fill="#231F20"/>
<path d="M95.034 15.1573H98.7377L99.1396 16.7581C100.612 15.9584 103.331 14.8477 105.785 14.8477C110.244 14.8477 113.499 18.0932 113.499 25.8711C113.499 33.5182 110.064 37.295 104.357 37.295C102.256 37.295 99.9378 36.8504 99.9378 36.8504V46.8512L95.0312 47.3852L95.034 15.1573ZM99.9405 32.9387C101.321 32.9814 102.081 33.0268 103.508 33.0268C106.546 33.0268 108.548 31.4261 108.548 25.0686C108.548 20.7124 106.764 19.5631 103.553 19.5631C102.323 19.5705 101.102 19.7807 99.9405 20.1852V32.9387Z" fill="#231F20"/>
<path d="M119.323 1.74694C115.654 -2.49092 104.013 1.23906 91.0222 10.1951V12.4538C102.468 4.34829 112.549 0.608677 115.437 3.94364C119.045 8.10855 110.072 21.7319 95.3957 34.3616C80.7189 46.9912 65.8917 53.8249 62.2818 49.66C60.4093 47.4963 61.9366 42.7781 65.8875 36.9836H63.5937C58.701 44.2563 56.8671 50.3674 59.3818 53.2661C63.9583 58.5582 81.0904 51.3213 97.6342 37.0882C114.178 22.855 123.903 7.03635 119.323 1.74694Z" fill="#EEB111"/>
</g>
<defs>
<clipPath id="clip0">
<rect width="174" height="55" fill="white"/>
</clipPath>
</defs>
</svg>
