<svg width="120" height="120" viewBox="0 0 120 120" fill="none" xmlns="http://www.w3.org/2000/svg">
<path d="M113.052 0H24.6315C23.585 0 22.7368 0.848203 22.7368 1.89469C22.7368 2.94117 23.5853 3.78937 24.6315 3.78937H113.052C114.794 3.78937 116.21 5.20594 116.21 6.94734V68.2104H105.474C104.427 68.2104 103.579 69.0586 103.579 70.1051C103.579 71.1518 104.427 71.9998 105.474 71.9998H116.21V90.3155C116.21 91.4395 115.605 92.4884 114.63 93.052C113.725 93.5761 113.415 94.7351 113.939 95.6409C114.29 96.2477 114.926 96.5871 115.581 96.5871C115.902 96.5871 116.229 96.5051 116.528 96.3321C118.669 95.0932 120 92.7877 120 90.3155V6.94734C120 3.11672 116.883 0 113.052 0Z" fill="#1B75BC"/>
<path d="M98.5264 82.7364C98.5264 86.567 101.643 89.6838 105.474 89.6838C109.305 89.6838 112.421 86.567 112.421 82.7364C112.421 78.9058 109.305 75.7891 105.474 75.7891C101.643 75.7891 98.5264 78.9058 98.5264 82.7364ZM105.474 79.5787C107.215 79.5787 108.632 80.9952 108.632 82.7366C108.632 84.478 107.215 85.8946 105.474 85.8946C103.732 85.8946 102.316 84.478 102.316 82.7366C102.316 80.9952 103.732 79.5787 105.474 79.5787Z" fill="#1B75BC"/>
<path d="M41.6842 95.3684C41.6842 94.3216 40.8358 93.4737 39.7895 93.4737H6.94733C5.20593 93.4737 3.78937 92.0571 3.78937 90.3157V72H49.8946C50.9411 72 51.7893 71.152 51.7893 70.1053C51.7893 69.0586 50.9408 68.2106 49.8946 68.2106H3.78937V6.94734C3.78937 5.20594 5.20593 3.78937 6.94733 3.78937H17.0526C18.0991 3.78937 18.9473 2.94117 18.9473 1.89469C18.9473 0.848203 18.0991 0 17.0526 0H6.94733C3.11648 0 0 3.11672 0 6.94734V90.3157C0 94.1463 3.11648 97.263 6.94733 97.263H39.7893C40.8358 97.263 41.6842 96.4151 41.6842 95.3684Z" fill="#1B75BC"/>
<path d="M106.395 93.9201L89.6838 88.9066V82.9804C91.039 82.3368 92.3128 81.5125 93.4674 80.522C96.5571 77.8715 98.5992 74.1958 99.2182 70.1725L101.324 56.4834C103.379 55.6961 104.842 53.7032 104.842 51.3749C104.842 49.9145 104.273 48.5416 103.241 47.5089C103.241 47.5089 103.241 47.5089 103.241 47.5087L99.5505 43.8189L96.9427 35.995C95.4345 31.4709 91.4283 28.315 86.7586 27.8493C86.0604 26.3252 84.5201 25.2637 82.7368 25.2637H72.6315C70.8481 25.2637 69.308 26.3252 68.6096 27.8493C63.9399 28.315 59.9337 31.4709 58.4255 35.995L55.8177 43.8189L52.1277 47.5087C51.095 48.5413 50.5262 49.9145 50.5262 51.3749C50.5262 53.7032 51.9889 55.6963 54.0439 56.4834L56.1498 70.1725C56.7688 74.196 58.8113 77.8715 61.9006 80.522C63.0552 81.5123 64.329 82.3363 65.6841 82.9804V88.9066L48.9728 93.9201C43.8578 95.4546 40.4209 100.074 40.4209 105.414V115.579C40.4209 118.017 42.4044 120 44.8419 120H90.3155C91.362 120 92.2102 119.152 92.2102 118.106C92.2102 117.059 91.3617 116.211 90.3155 116.211H60.6317V110.527C60.6317 109.48 59.7833 108.632 58.737 108.632C57.6908 108.632 56.8423 109.48 56.8423 110.527V116.211H44.8424C44.4943 116.211 44.2107 115.928 44.2107 115.579V105.414C44.2107 101.76 46.5622 98.5996 50.0619 97.5496L67.857 92.211H87.5114L105.307 97.5496C108.806 98.5996 111.158 101.76 111.158 105.414V115.579C111.158 115.928 110.875 116.211 110.526 116.211H98.5263V110.527C98.5263 109.48 97.6779 108.632 96.6316 108.632C95.5854 108.632 94.737 109.48 94.737 110.527V118.106C94.737 119.152 95.5854 120 96.6316 120H110.526C112.964 120 114.947 118.017 114.947 115.579V105.414C114.947 100.074 111.51 95.4546 106.395 93.9201ZM55.9941 53.0528C55.0688 53.0528 54.3163 52.3 54.3163 51.3747C54.3163 50.9266 54.4909 50.5052 54.8075 50.1883L58.8137 46.1824C59.0216 45.9742 59.1786 45.7206 59.2714 45.4417L62.0209 37.1936C62.968 34.3523 65.3546 32.2998 68.2109 31.7357V39.79C68.2109 40.8367 69.0594 41.6847 70.1056 41.6847C71.1521 41.6847 72.0003 40.8365 72.0003 39.79V29.6847C72.0003 29.3364 72.2836 29.053 72.6319 29.053H82.7372C83.0853 29.053 83.3689 29.3362 83.3689 29.6847V39.79C83.3689 40.8367 84.2173 41.6847 85.2635 41.6847C86.3098 41.6847 87.1582 40.8365 87.1582 39.79V31.7359C90.0145 32.3001 92.4007 34.3525 93.3478 37.1938L96.0973 45.442C96.1903 45.7211 96.3471 45.9747 96.555 46.1826L100.561 50.1883C100.873 50.5007 101.053 50.9334 101.053 51.3749C101.053 52.3005 100.3 53.0531 99.3748 53.0531V53.0528H55.9941ZM82.3646 84.632C83.5582 84.632 84.7416 84.5064 85.8952 84.2622V88.4214H69.4742V84.2622C70.6278 84.5064 71.8107 84.632 73.0048 84.632H75.1585C76.205 84.632 77.0532 83.7841 77.0532 82.7374C77.0532 81.6906 76.2047 80.8427 75.1585 80.8427H73.0048C66.4114 80.8427 60.8982 76.1128 59.8958 69.596L57.9336 56.8427H97.4355L95.4736 69.596C94.4709 76.1125 88.958 80.8427 82.3646 80.8427C81.3181 80.8427 80.4699 81.6906 80.4699 82.7374C80.4694 83.7838 81.3178 84.632 82.3646 84.632Z" fill="#1B75BC"/>
<path d="M14.5264 75.7891C10.6956 75.7891 7.5791 78.9058 7.5791 82.7364C7.5791 86.567 10.6956 89.6838 14.5264 89.6838H32.2107C36.0415 89.6838 39.158 86.567 39.158 82.7364C39.158 78.9058 36.0415 75.7891 32.2107 75.7891H14.5264ZM35.3684 82.7364C35.3684 84.4778 33.9519 85.8944 32.2105 85.8944H14.5264C12.785 85.8944 11.3685 84.4778 11.3685 82.7364C11.3685 80.995 12.785 79.5784 14.5264 79.5784H32.2107C33.9519 79.5787 35.3684 80.9952 35.3684 82.7364Z" fill="#1B75BC"/>
<path d="M35.9999 10.1055H18.3157C16.5743 10.1055 15.1577 11.522 15.1577 13.2634V20.8424C15.1577 22.5838 16.5743 24.0004 18.3157 24.0004H25.263V28.5137L16.904 32.6934C15.8269 33.2315 15.158 34.3141 15.158 35.518V36.4832C15.158 37.6872 15.8269 38.7698 16.9036 39.3077L25.2632 43.4875V48.0002H18.3157C16.5743 48.0002 15.1577 49.4167 15.1577 51.1581V58.7371C15.1577 60.4785 16.5743 61.8951 18.3157 61.8951H35.9999C37.7413 61.8951 39.1579 60.4785 39.1579 58.7371V56.8424H44.8422C45.8887 56.8424 46.7369 55.9944 46.7369 54.9477C46.7369 53.901 45.8884 53.053 44.8422 53.053H39.1579V51.1584C39.1579 49.417 37.7413 48.0004 35.9999 48.0004H29.0526V43.487L37.4116 39.3074C38.4888 38.7693 39.1577 37.6867 39.1577 36.4827V35.5176C39.1577 34.3136 38.4888 33.231 37.4121 32.6931L29.0524 28.5133V24.0002H35.9999C37.7413 24.0002 39.1579 22.5836 39.1579 20.8422V18.9475H101.052V37.2632C101.052 38.3099 101.901 39.1579 102.947 39.1579C103.994 39.1579 104.842 38.3099 104.842 37.2632V17.0528C104.842 16.0061 103.993 15.1581 102.947 15.1581H39.1579V13.2634C39.1579 11.522 37.7413 10.1055 35.9999 10.1055ZM35.3683 51.7895V58.1052H18.9473V51.7895H35.3683ZM35.3683 35.9083V36.0925L27.1577 40.1978L18.9471 36.0925V35.9083L27.1577 31.803L35.3683 35.9083ZM35.3683 20.2108H27.1577H18.9473V13.8948H35.3683V20.2108Z" fill="#1B75BC"/>
<path d="M42.9473 82.7364C42.9473 86.567 46.0637 89.6838 49.8946 89.6838C53.7254 89.6838 56.8419 86.567 56.8419 82.7364C56.8419 78.9058 53.7254 75.7891 49.8946 75.7891C46.0637 75.7891 42.9473 78.9058 42.9473 82.7364ZM53.0526 82.7364C53.0526 84.4778 51.636 85.8944 49.8946 85.8944C48.1532 85.8944 46.7366 84.4778 46.7366 82.7364C46.7366 80.995 48.1532 79.5784 49.8946 79.5784C51.636 79.5784 53.0526 80.9952 53.0526 82.7364Z" fill="#1B75BC"/>
</svg>
