<svg width="110" height="101" viewBox="0 0 110 101" fill="none" xmlns="http://www.w3.org/2000/svg">
<g clip-path="url(#clip0)">
<path d="M54.9971 0C53.8107 0 52.8486 0.958002 52.8486 2.13983V14.8703C52.8486 16.0522 53.8107 17.0102 54.9971 17.0102C56.1834 17.0102 57.1455 16.0522 57.1455 14.8703V2.13983C57.1455 0.958002 56.1834 0 54.9971 0Z" fill="white"/>
<path d="M42.8235 18.2697L37.6831 13.1545C36.8433 12.3191 35.4834 12.3197 34.6446 13.1557C33.8061 13.9918 33.8067 15.3465 34.6459 16.1819L39.7865 21.2972C40.2061 21.7146 40.7556 21.9233 41.305 21.9233C41.8552 21.9233 42.4052 21.714 42.8248 21.2959C43.6633 20.4598 43.6627 19.1051 42.8235 18.2697Z" fill="white"/>
<path d="M75.3537 13.1604C74.5143 12.3248 73.1539 12.3257 72.3152 13.1615L66.8502 18.6089C66.0116 19.4449 66.0123 20.7996 66.8515 21.635C67.2711 22.0527 67.8208 22.2613 68.3702 22.2613C68.9204 22.2613 69.4704 22.0521 69.89 21.6339L75.355 16.1866C76.1935 15.3505 76.1929 13.9958 75.3537 13.1604Z" fill="white"/>
<path d="M95.9277 56.4924H94.1939C95.6089 54.6554 96.4526 52.36 96.4526 49.8711V46.8512C96.4526 40.8402 91.5428 35.95 85.5078 35.95C79.4729 35.95 74.563 40.8402 74.563 46.851V49.1986L58.4001 33.1002C57.5031 32.207 56.184 31.9203 55.0002 32.3461C53.8169 31.9203 52.4973 32.207 51.6001 33.1004L35.4374 49.1986V46.851C35.437 40.8402 30.5271 35.95 24.4922 35.95C18.4572 35.95 13.5474 40.8402 13.5474 46.851V49.8709C13.5474 52.36 14.3911 54.6551 15.8061 56.4922H14.0723C6.31275 56.4924 0 62.7799 0 70.5083V98.861C0 100.043 0.96207 101.001 2.14844 101.001H11.2256C11.4404 101.001 11.6475 100.969 11.8433 100.91C12.039 100.969 12.2461 101.001 12.4609 101.001H36.5234C37.7098 101.001 38.6719 100.043 38.6719 98.861V91.5856C38.6719 90.4038 37.7098 89.4458 36.5234 89.4458C35.3371 89.4458 34.375 90.4038 34.375 91.5856V96.7212H14.6094V72.3385C14.6094 71.1567 13.6473 70.1987 12.4609 70.1987C11.2746 70.1987 10.3125 71.1567 10.3125 72.3385V96.7212H4.29688V70.5083C4.29688 65.1397 8.68205 60.7721 14.0723 60.7721H29.0039C29.5952 60.7721 30.1305 60.5339 30.519 60.1492C30.5205 60.1477 30.5218 60.1468 30.5233 60.1455L52.8389 37.9191C52.6926 42.3631 51.3047 46.6434 48.8026 50.3447L34.7415 71.1434C34.5028 71.4967 34.3752 71.9129 34.3752 72.3385V74.681C34.3752 75.8628 35.3373 76.8208 36.5237 76.8208C37.71 76.8208 38.6721 75.8628 38.6721 74.681V72.9916L52.3669 52.7346C53.4132 51.1869 54.2906 49.5516 55.0002 47.8541C55.7098 49.5516 56.5871 51.1869 57.6336 52.7346L71.3281 72.9916V98.861C71.3281 100.043 72.2902 101.001 73.4766 101.001H97.5391C97.7539 101.001 97.961 100.969 98.1567 100.91C98.3525 100.969 98.5596 101.001 98.7744 101.001H107.852C109.038 101.001 110 100.043 110 98.861V70.5083C110 62.7799 103.687 56.4924 95.9277 56.4924ZM31.1401 49.8709C31.1401 53.5221 28.1581 56.4924 24.4922 56.4924C20.8263 56.4924 17.8443 53.5221 17.8443 49.8711V46.8512C17.8443 43.2 20.8265 40.2297 24.4922 40.2297C28.1579 40.2297 31.1401 43.2 31.1401 46.851V49.8709ZM78.8599 46.851C78.8599 43.2 81.8421 40.2297 85.5078 40.2297C89.1735 40.2297 92.1557 43.2 92.1557 46.851V49.8709C92.1557 53.5221 89.1737 56.4924 85.5078 56.4924C81.8419 56.4924 78.8599 53.5221 78.8599 49.8711V46.851ZM105.703 96.7212H99.6875V80.8865C99.6875 79.7046 98.7254 78.7466 97.5391 78.7466C96.3527 78.7466 95.3906 79.7046 95.3906 80.8865V96.7212H75.625V72.3385C75.625 71.9127 75.4974 71.4965 75.2587 71.1434L61.1976 50.3449C58.6955 46.6436 57.3076 42.3633 57.1613 37.9193L79.4769 60.1455C79.5053 60.1738 79.5319 60.1975 79.5577 60.2187C79.9386 60.5617 80.4422 60.7725 80.9961 60.7725H95.9277C101.318 60.7725 105.703 65.1401 105.703 70.5087V96.7212Z" fill="white"/>
<path d="M99.0578 70.8242C98.6584 70.4262 98.1041 70.1973 97.5391 70.1973C96.974 70.1973 96.4197 70.4262 96.0201 70.8242C95.6205 71.2222 95.3906 71.7743 95.3906 72.3371C95.3906 72.8999 95.6203 73.452 96.0201 73.85C96.4197 74.248 96.974 74.4769 97.5391 74.4769C98.1041 74.4769 98.6584 74.248 99.0578 73.85C99.4574 73.452 99.6875 72.8999 99.6875 72.3371C99.6875 71.7743 99.4576 71.2244 99.0578 70.8242Z" fill="white"/>
<path d="M38.0422 82.1543C37.6428 81.7563 37.0885 81.5273 36.5234 81.5273C35.9584 81.5273 35.4041 81.7563 35.0045 82.1543C34.6049 82.5523 34.375 83.1044 34.375 83.6672C34.375 84.2299 34.6047 84.782 35.0045 85.18C35.4043 85.578 35.9584 85.807 36.5234 85.807C37.0885 85.807 37.6428 85.578 38.0422 85.18C38.4418 84.782 38.6719 84.2299 38.6719 83.6672C38.6719 83.1044 38.442 82.5523 38.0422 82.1543Z" fill="white"/>
</g>
<defs>
<clipPath id="clip0">
<rect width="110" height="101" fill="white"/>
</clipPath>
</defs>
</svg>
